<svg width="182" height="46" viewBox="0 0 182 46" fill="none" xmlns="http://www.w3.org/2000/svg">
<path d="M55.0258 22.5189L54.3326 23.4927C53.6676 24.4271 52.7219 26.0281 52.2247 27.0616L48.8055 34.1678C48.2213 35.3825 46.7077 36.334 45.3594 36.334H21.7183C20.3917 36.334 18.7891 35.4608 18.0694 34.346L11.7774 24.5954C11.2088 23.7141 9.86531 22.7697 8.84347 22.5329L3.32912 21.255C1.99751 20.9465 0.914062 19.5831 0.914062 18.216V8.60376C0.914062 7.18533 2.0681 6.03129 3.48653 6.03129H7.5956C8.46726 3.03922 11.2324 0.84602 14.5018 0.84602C17.7715 0.84602 20.5366 3.03922 21.4083 6.03129H34.7481C35.6198 3.03922 38.385 0.84602 41.6546 0.84602C44.924 0.84602 47.6892 3.03922 48.5609 6.03129H53.7659C55.1845 6.03129 56.3383 7.18533 56.3383 8.60376V18.4109C56.3383 19.6802 55.762 21.4847 55.0258 22.5189ZM14.5018 4.46663C12.5285 4.46663 10.9286 6.06681 10.9286 8.04012C10.9286 10.0136 12.5285 11.6134 14.5018 11.6134C16.4754 11.6134 18.0753 10.0136 18.0753 8.04012C18.0753 6.06681 16.4754 4.46663 14.5018 4.46663ZM34.8909 22.53H16.8645C15.9247 22.53 15.5564 23.1864 16.0463 23.9886L20.605 31.4554C21.0948 32.2576 22.2646 32.914 23.2045 32.914H34.8911L34.8909 22.53ZM41.6546 4.46663C39.6811 4.46663 38.0811 6.06681 38.0811 8.04012C38.0811 10.0136 39.6811 11.6134 41.6546 11.6134C43.6279 11.6134 45.2279 10.0136 45.2279 8.04012C45.2279 6.06681 43.6279 4.46663 41.6546 4.46663ZM46.8655 22.53H39.0032V32.9142H43.4637C44.4036 32.9142 45.412 32.1835 45.7047 31.2901L48.0426 24.1541C48.3353 23.261 47.8056 22.53 46.8655 22.53Z" fill="white"/>
<path fill-rule="evenodd" clip-rule="evenodd" d="M177.66 40.1147C177.66 41.1195 176.838 41.9411 175.833 41.9411L163.048 41.9411L163.048 27.3297L177.66 27.3297L177.66 40.1147ZM159.395 41.9411L144.784 41.9411L144.784 27.3297L159.395 27.3297L159.395 41.9411ZM141.131 41.9411L126.52 41.9411L126.52 27.3297L141.131 27.3297L141.131 41.9411ZM122.867 41.9411L110.721 41.9411C108.986 41.9411 107.433 40.6629 107.159 38.928L105.059 25.9598C104.876 24.59 104.694 23.2202 104.694 21.8504L117.387 21.8504L122.867 27.3297L122.867 41.9411ZM181.312 41.9411L181.312 9.06536C181.312 7.0564 179.669 5.4125 177.66 5.4125L177.477 5.4125C177.568 5.96067 177.66 6.5998 177.66 7.23893C177.66 12.2616 173.55 16.3711 168.527 16.3711C163.505 16.3711 159.395 12.2616 159.395 7.23893C159.395 6.59979 159.487 5.96067 159.578 5.4125L126.337 5.4125C126.428 5.96067 126.52 6.59981 126.52 7.23893C126.52 12.2616 122.41 16.3711 117.387 16.3711C112.365 16.3711 108.255 12.2616 108.255 7.23893C108.255 6.59979 108.347 5.96067 108.438 5.4125L104.602 5.41251C102.593 5.41251 100.95 7.05641 100.95 9.06536L100.95 20.7546C100.95 22.6726 101.132 24.6816 101.406 26.5996L103.507 39.6581C104.146 43.1284 107.159 45.6856 110.721 45.6856L177.66 45.6855C179.669 45.594 181.312 43.9507 181.312 41.9411Z" fill="white"/>
<path fill-rule="evenodd" clip-rule="evenodd" d="M110.996 7.23835C110.996 3.70797 113.858 0.845846 117.389 0.845846C120.919 0.845845 123.781 3.70796 123.781 7.23835C123.781 10.7687 120.919 13.6309 117.389 13.6309C113.858 13.6309 110.996 10.7687 110.996 7.23835Z" fill="white"/>
<path fill-rule="evenodd" clip-rule="evenodd" d="M162.137 7.23835C162.137 3.70797 164.999 0.845846 168.529 0.845846C172.06 0.845845 174.922 3.70796 174.922 7.23835C174.922 10.7687 172.06 13.6309 168.529 13.6309C164.999 13.6309 162.137 10.7687 162.137 7.23835Z" fill="white"/>
</svg>
