<?xml version="1.0" encoding="UTF-8" standalone="no"?>
<svg xmlns="http://www.w3.org/2000/svg" version="1.2" baseProfile="tiny" viewBox="0.00 0.00 664.00 554.00">
<path fill="#003586" d="
  M 256.76 128.29
  Q 257.91 124.64 255.80 127.83
  C 221.02 180.25 243.08 247.33 301.88 269.15
  Q 301.99 269.19 301.96 269.36
  A 0.07 0.07 0.0 0 1 301.87 269.42
  Q 258.05 257.81 231.72 222.44
  C 201.58 181.95 199.79 125.75 227.54 83.24
  C 245.17 56.24 272.09 37.68 303.43 30.02
  C 317.58 26.56 327.13 19.33 331.77 4.92
  A 0.26 0.26 0.0 0 1 332.27 4.92
  Q 336.77 18.84 348.76 25.79
  C 355.20 29.53 364.91 30.80 371.48 33.03
  C 450.49 59.75 482.83 154.85 432.44 222.68
  Q 406.34 257.81 362.75 269.32
  Q 362.42 269.41 362.56 269.09
  C 362.60 269.01 362.81 268.79 362.92 268.75
  C 422.04 248.37 443.00 177.32 407.72 126.84
  A 0.26 0.26 0.0 0 0 407.26 127.07
  C 421.58 173.08 393.19 218.97 347.02 228.59
  A 0.19 0.19 0.0 0 1 346.91 228.23
  Q 372.46 218.94 379.53 194.54
  C 391.86 152.01 345.01 115.64 307.00 138.51
  C 270.49 160.49 276.47 214.14 317.03 228.04
  A 0.18 0.18 0.0 0 1 316.94 228.39
  C 271.37 220.23 243.00 171.83 256.76 128.29
  Z"
/>
<path fill="#000000" d="
  M 79.23 244.27
  C 83.42 244.59 91.67 246.30 94.27 249.98
  Q 102.39 261.47 107.51 271.75
  C 111.00 278.76 109.11 288.36 108.41 296.03
  C 107.72 303.56 109.50 309.34 118.20 309.05
  Q 135.46 308.49 154.02 304.68
  C 160.48 303.36 165.96 300.61 171.89 297.81
  A 1.44 1.43 -50.1 0 1 172.86 297.72
  C 173.66 297.95 174.96 298.20 175.62 298.65
  Q 190.22 308.68 201.42 322.35
  C 204.74 326.39 202.71 331.35 201.87 335.49
  Q 201.25 338.56 201.18 342.06
  C 200.26 386.02 199.50 430.02 197.66 473.95
  C 197.32 482.22 192.02 491.56 187.49 498.31
  C 183.06 504.92 175.85 506.78 169.80 500.46
  C 162.44 492.77 143.57 473.81 153.75 463.05
  C 157.25 459.35 163.79 466.75 169.10 462.55
  Q 173.25 459.28 173.33 453.82
  Q 173.55 438.09 173.18 434.06
  C 172.52 427.03 162.48 426.75 157.03 425.72
  Q 135.40 421.63 121.73 405.36
  C 117.86 400.76 113.83 393.80 109.91 388.13
  C 106.77 383.58 103.71 378.85 98.63 384.63
  Q 87.74 397.02 81.55 406.29
  C 78.16 411.38 78.08 418.18 73.07 423.59
  C 63.53 433.89 56.21 404.80 55.02 399.23
  Q 53.08 390.12 59.92 385.67
  Q 66.81 381.20 89.98 368.55
  C 94.55 366.05 95.48 362.43 96.00 357.50
  C 96.52 352.47 97.07 340.40 92.61 337.50
  C 89.87 335.72 83.39 337.34 80.51 338.88
  C 69.95 344.53 53.52 356.81 41.75 346.01
  C 37.61 342.20 32.83 337.44 37.31 332.52
  Q 41.18 328.26 48.25 327.21
  Q 69.02 324.12 74.75 322.80
  C 90.99 319.08 85.94 300.17 82.52 289.49
  C 79.67 280.57 70.82 275.48 64.95 268.63
  C 59.57 262.34 63.38 253.34 68.06 248.21
  Q 72.15 243.74 79.23 244.27
  Z
  M 150.43 400.07
  C 154.28 403.99 158.64 406.45 165.57 410.75
  C 169.66 413.28 171.65 406.43 171.74 403.72
  C 172.40 383.48 171.48 360.05 172.05 345.06
  Q 172.22 340.56 174.21 332.93
  C 175.20 329.15 173.55 326.16 169.48 326.34
  C 153.95 327.05 136.57 331.23 121.32 332.29
  Q 118.97 332.46 117.37 334.00
  A 1.17 1.16 66.8 0 0 117.01 334.91
  C 117.83 351.28 122.43 369.57 133.66 382.09
  Q 143.12 392.64 150.43 400.07
  Z"
/>
<path fill="#000000" d="
  M 447.19 351.56
  C 443.67 349.65 445.73 343.61 446.50 340.47
  C 448.49 332.39 454.94 331.10 462.22 331.19
  Q 472.18 331.30 481.21 326.70
  C 486.18 324.16 493.94 317.60 489.49 311.28
  C 485.93 306.21 479.36 299.72 482.27 293.02
  C 484.61 287.64 494.32 287.46 498.52 289.33
  C 504.52 292.01 507.70 299.41 510.23 305.50
  C 514.28 315.27 524.10 312.45 531.77 314.47
  C 539.75 316.56 531.16 328.08 532.31 333.40
  Q 532.58 334.65 533.75 336.27
  Q 537.14 340.96 537.06 345.51
  C 536.92 353.73 522.66 364.31 516.27 368.19
  C 514.04 369.54 512.71 371.96 514.79 374.10
  Q 521.28 380.78 528.96 377.32
  C 536.76 373.81 541.69 363.29 551.32 368.69
  C 555.68 371.13 560.28 376.40 561.88 380.53
  C 563.41 384.52 561.51 387.42 558.35 390.03
  C 543.62 402.18 527.26 393.66 513.22 395.27
  C 507.36 395.95 500.79 400.72 496.39 404.64
  C 489.33 410.93 474.91 425.04 465.33 424.49
  Q 464.85 424.46 464.46 424.17
  C 457.82 419.33 445.63 428.42 440.32 432.98
  C 433.84 438.54 427.01 445.64 419.00 447.74
  C 414.56 448.91 401.65 434.49 402.89 430.26
  Q 403.03 429.77 403.47 429.51
  Q 430.82 413.76 458.55 398.73
  C 466.49 394.43 464.93 391.37 460.24 384.97
  Q 458.18 382.17 455.44 380.01
  Q 455.00 379.67 454.91 379.13
  C 453.96 373.93 459.88 357.67 467.50 360.23
  C 474.55 362.58 479.16 381.94 487.11 371.44
  Q 498.72 356.09 511.49 341.73
  C 519.53 332.68 505.15 333.75 500.96 334.37
  Q 498.56 334.72 496.11 336.31
  C 485.98 342.87 458.89 357.91 447.19 351.56
  Z"
/>
<path fill="#000000" d="
  M 566.99 362.37
  C 564.80 358.77 560.60 359.32 558.55 356.28
  C 556.45 353.16 558.05 346.52 559.57 344.05
  C 561.72 340.54 568.67 342.25 572.35 341.22
  Q 575.16 340.43 578.40 337.64
  C 592.77 325.23 605.69 313.39 617.40 298.83
  C 618.73 297.17 621.31 292.88 623.09 291.78
  Q 628.17 288.63 631.59 292.93
  Q 636.87 299.59 646.28 314.44
  C 652.01 323.48 649.55 330.00 643.11 337.34
  C 635.61 345.89 632.04 360.22 625.96 368.94
  C 621.96 374.68 617.98 384.02 623.93 389.67
  Q 635.45 400.63 647.54 410.96
  C 654.51 416.92 664.39 425.22 659.50 434.48
  Q 654.77 443.47 652.31 446.56
  C 648.41 451.47 643.02 450.47 637.37 448.32
  Q 619.84 441.64 602.56 434.34
  C 598.14 432.47 593.83 431.55 592.91 437.72
  C 592.22 442.29 592.74 448.45 592.72 451.84
  Q 592.55 480.08 594.54 508.25
  Q 595.08 515.89 596.87 523.33
  Q 596.98 523.80 597.30 524.16
  C 599.87 527.04 599.32 529.48 597.36 532.71
  Q 592.44 540.78 588.77 549.49
  Q 587.68 552.08 585.18 552.59
  Q 584.65 552.70 584.18 552.42
  C 578.49 549.03 573.88 548.14 572.98 540.50
  Q 571.76 530.13 571.66 523.00
  Q 570.73 457.25 570.44 391.50
  C 570.40 383.19 571.40 369.63 566.99 362.37
  Z
  M 591.85 396.93
  C 592.14 403.62 587.65 420.01 599.00 421.02
  Q 608.63 421.87 616.82 421.16
  C 622.07 420.70 618.93 413.90 617.49 411.32
  C 613.88 404.84 607.45 400.22 604.70 393.22
  C 601.95 386.21 602.02 379.80 605.01 372.58
  C 609.20 362.46 614.79 349.40 615.54 338.49
  A 1.60 1.60 0.0 0 0 613.34 336.90
  Q 603.05 341.11 593.20 346.21
  C 578.74 353.71 589.39 362.82 590.52 373.75
  Q 591.09 379.24 591.85 396.93
  Z"
/>
<path fill="#000000" d="
  M 26.30 491.26
  C 19.25 488.90 16.07 479.86 16.32 472.98
  Q 16.80 459.58 16.92 432.04
  C 16.95 426.17 18.39 419.69 18.43 413.94
  Q 18.50 401.64 18.70 389.35
  C 18.84 381.41 17.58 367.74 13.12 361.21
  C 10.28 357.04 5.19 349.83 5.47 344.68
  C 5.82 337.98 10.74 319.09 20.44 330.98
  Q 30.60 343.42 38.20 355.30
  C 45.95 367.43 47.62 384.25 46.67 398.25
  C 45.69 412.78 46.62 432.93 45.63 449.93
  C 45.12 458.46 43.74 497.10 26.30 491.26
  Z"
/>
<path fill="#000000" d="
  M 341.37 430.56
  A 1.27 1.27 0.0 0 1 340.52 429.93
  Q 335.33 420.72 329.08 411.93
  C 327.02 409.03 323.84 402.78 327.24 399.47
  C 335.38 391.55 342.88 378.50 345.44 367.44
  Q 346.72 361.92 346.56 351.82
  C 346.08 319.97 380.15 345.07 378.59 356.83
  C 378.18 359.92 375.97 361.90 374.61 363.96
  Q 363.74 380.39 353.44 398.39
  A 1.25 1.23 47.4 0 0 353.40 399.54
  C 355.10 403.05 367.66 401.58 371.55 399.37
  C 380.37 394.39 396.30 381.12 407.35 386.18
  C 411.00 387.85 414.75 392.32 417.15 395.60
  C 422.93 403.48 407.53 409.23 402.47 411.22
  Q 373.97 422.41 344.44 430.55
  Q 343.11 430.92 341.37 430.56
  Z"
/>
<path fill="#000000" d="
  M 288.06 401.58
  C 289.68 406.69 295.17 406.77 298.53 403.06
  C 301.60 399.68 307.14 391.32 312.45 394.39
  C 316.94 397.00 325.86 401.59 322.59 408.36
  C 320.10 413.54 306.33 420.09 299.43 423.93
  C 294.73 426.54 291.54 431.90 291.32 437.59
  Q 290.73 452.55 290.38 457.44
  C 289.68 467.13 279.68 463.27 273.35 461.45
  C 268.47 460.05 266.45 456.94 266.48 452.09
  Q 266.66 421.68 266.80 391.25
  C 266.81 388.68 265.64 379.49 261.25 380.50
  Q 253.01 382.39 244.69 383.90
  C 230.50 386.46 217.27 373.53 210.04 362.21
  Q 209.79 361.83 209.85 361.38
  C 210.46 357.00 217.00 355.82 220.76 356.14
  C 241.39 357.89 265.40 359.08 283.84 347.16
  Q 290.96 342.55 292.11 342.04
  C 297.98 339.45 306.56 338.16 312.52 341.11
  C 317.07 343.36 317.34 347.74 315.50 351.98
  C 313.26 357.14 310.79 361.26 305.39 363.46
  C 300.74 365.35 292.70 367.12 290.10 371.86
  C 285.31 380.62 285.12 392.26 288.06 401.58
  Z"
/>
<path fill="#000000" d="
  M 479.26 501.15
  C 469.68 496.24 444.12 462.63 445.65 451.19
  C 446.22 446.88 449.95 436.97 454.99 436.03
  C 462.57 434.61 462.83 450.21 472.88 445.90
  C 495.47 436.22 515.23 424.39 541.46 409.68
  C 547.29 406.41 550.73 409.33 554.30 414.25
  C 556.60 417.44 563.80 425.07 564.20 428.53
  C 564.74 433.23 557.37 439.47 553.76 442.77
  Q 551.45 444.88 545.37 453.87
  C 542.00 458.85 538.83 462.67 534.97 466.74
  C 531.36 470.53 533.32 473.52 536.45 476.91
  C 540.75 481.58 549.64 489.43 538.99 494.90
  Q 535.29 496.80 531.26 496.76
  C 522.32 496.67 515.16 497.30 506.05 499.38
  C 497.60 501.32 487.47 505.36 479.26 501.15
  Z
  M 482.21 480.95
  C 484.89 483.65 487.20 483.26 490.73 481.79
  Q 498.39 478.60 500.74 477.96
  C 507.61 476.09 510.20 472.49 515.38 466.25
  C 519.45 461.34 528.28 451.72 525.17 445.03
  C 520.18 434.29 497.18 453.50 488.77 457.75
  C 484.54 459.89 473.69 460.61 471.50 464.93
  C 469.20 469.47 479.00 477.72 482.21 480.95
  Z"
/>
<path fill="#000000" d="
  M 302.58 459.16
  C 307.86 461.64 312.21 468.18 314.12 473.26
  Q 314.30 473.74 314.07 474.20
  C 312.16 477.96 306.84 479.89 302.91 481.54
  C 284.31 489.39 271.29 499.60 256.12 510.62
  Q 251.78 513.78 247.03 511.78
  Q 235.86 507.08 228.85 497.42
  A 1.78 1.71 26.7 0 1 228.53 496.52
  C 226.99 471.68 237.44 450.25 221.76 427.31
  Q 221.47 426.90 221.61 426.42
  C 222.98 421.49 226.69 420.39 231.34 422.13
  C 235.08 423.54 238.13 424.75 242.44 425.74
  C 247.53 426.91 255.15 428.82 253.64 435.63
  C 250.38 450.27 246.72 467.85 256.84 480.89
  C 259.68 484.57 263.95 481.80 266.91 480.14
  Q 284.60 470.19 301.67 459.22
  Q 302.10 458.94 302.58 459.16
  Z"
/>
<path fill="#000000" d="
  M 302.94 506.81
  C 297.92 502.86 299.23 497.46 305.24 495.96
  Q 327.24 490.45 345.68 478.79
  C 348.09 477.27 350.34 475.39 351.94 473.32
  A 2.49 2.47 44.4 0 0 351.90 470.24
  L 341.02 456.76
  Q 340.71 456.38 340.71 455.89
  C 340.70 451.18 347.22 446.35 350.91 444.07
  Q 363.19 436.49 373.78 426.65
  Q 374.23 426.23 374.78 426.49
  Q 376.69 427.39 376.90 430.08
  C 377.83 441.56 376.04 448.63 369.51 458.03
  Q 368.72 459.16 368.55 461.54
  A 1.27 1.27 0.0 0 0 368.81 462.42
  Q 370.52 464.63 373.25 467.49
  C 390.57 485.62 408.22 502.43 430.98 511.37
  Q 449.98 518.84 467.75 522.75
  Q 472.31 523.75 470.98 528.26
  C 465.95 545.22 444.43 547.31 430.45 543.17
  Q 419.12 539.82 411.50 536.00
  C 403.65 532.07 397.33 525.49 390.17 518.32
  C 383.14 511.30 377.89 502.77 372.48 494.53
  Q 370.36 491.30 365.83 489.00
  A 1.59 1.56 52.3 0 0 364.83 488.86
  Q 361.65 489.47 358.68 492.19
  C 348.37 501.66 336.15 516.51 321.70 519.08
  Q 321.17 519.18 320.70 518.92
  Q 313.04 514.77 302.94 506.81
  Z"
/>
</svg>
