<svg width="160" height="160" viewBox="0 0 160 160" fill="none" xmlns="http://www.w3.org/2000/svg">
<rect x="0.5" y="0.5" width="159" height="159" rx="79.5" fill="#F6FAFF"/>
<g clip-path="url(#clip0_178_10477)">
<path d="M129.306 64.6578C132.478 58.9836 133.844 52.4771 133.223 46.0063C133.059 38.4914 130.643 31.1987 126.287 25.0727C117.734 13.6266 106.953 13.1774 95.5965 15.8907C92.3192 16.6916 89.2461 18.1703 86.5752 20.2315C83.9043 22.2927 81.695 24.8906 80.0895 27.8578C78.6699 27.4266 78.2926 26.4743 77.6996 25.5938C70.027 15.3516 53.316 12.2969 42.8043 17.6875C31.8074 23.3297 27.441 33.3922 26.6324 45.5211C25.8059 59.0157 31.8434 69.7969 39.6778 79.7157C43.6853 84.837 47.9808 89.7264 52.5434 94.3602C61.5277 103.524 70.8895 112.329 80.1613 121.511C81.7606 121.637 82.5692 120.289 83.5754 119.283C88.0137 114.845 92.7395 110.64 96.8363 105.914C106.593 94.6297 117.914 84.6571 125.73 71.7735C127.042 69.6172 128.12 67.3352 129.324 65.125" stroke="#381805" stroke-width="2" stroke-linecap="round" stroke-linejoin="round"/>
<path d="M50.7293 36.2312C47.6566 41.2804 47.7465 47.264 45.8598 52.6906C44.6004 56.7417 43.7045 60.8969 43.1824 65.107C42.841 67.389 41.6012 67.2453 40.002 67.3531C37.6301 67.5148 35.0965 66.5804 32.8145 68.2156" stroke="#F8D208" stroke-width="2" stroke-linecap="round" stroke-linejoin="round"/>
<path d="M50.9629 35.4946C55.509 42.5923 57.5035 50.8399 60.8996 58.4587C61.7621 60.3634 62.2652 62.4298 64.0441 63.8493" stroke="#F8D208" stroke-width="2" stroke-linecap="round" stroke-linejoin="round"/>
<path d="M100.449 100.182C96.2801 99.4813 92.1652 100.721 88.0145 100.631L60.4863 100.182" stroke="#381805" stroke-width="2" stroke-linecap="round" stroke-linejoin="round"/>
<path d="M104.006 48.6655C107.136 55.8455 109.66 63.2745 111.553 70.8749" stroke="#F8D208" stroke-width="2" stroke-linecap="round" stroke-linejoin="round"/>
<path d="M70.7098 82.375C71.1051 85.9687 70.2605 88.2148 66.3254 89.5625C64.3414 90.1837 62.5545 91.3133 61.1423 92.839C59.7301 94.3647 58.7417 96.2334 58.2754 98.2594" stroke="#381805" stroke-width="2" stroke-linecap="round" stroke-linejoin="round"/>
<path d="M90.2419 82.375C89.9184 85.5734 90.2419 88.0172 94.195 89.1492C98.1006 90.5023 101.324 93.326 103.179 97.0195" stroke="#381805" stroke-width="2" stroke-linecap="round" stroke-linejoin="round"/>
<path d="M103.575 47.354C99.9814 51.3071 98.0768 56.4642 94.2314 60.2196" stroke="#F8D208" stroke-width="2" stroke-linecap="round" stroke-linejoin="round"/>
<path d="M80 68.647V80.5782" stroke="#381805" stroke-width="2" stroke-linecap="round" stroke-linejoin="round"/>
<path d="M88.4631 73.5345C86.3967 71.2345 85.3545 67.6407 81.2756 67.7845C75.4717 67.9641 74.2318 68.9884 71.9678 75.3134" stroke="#381805" stroke-width="2" stroke-linecap="round" stroke-linejoin="round"/>
<path d="M128.857 64.6578C124.922 61.7109 122.91 59.6805 119.1 57.2188C116.372 61.2503 114.003 65.5132 112.021 69.9586" stroke="#F8D208" stroke-width="2" stroke-linecap="round" stroke-linejoin="round"/>
<path d="M84.4559 93.5156C79.227 90.1195 75.2918 92.3296 73.3691 99.7327" stroke="#381805" stroke-width="2" stroke-linecap="round" stroke-linejoin="round"/>
<path d="M80.2156 56.9852C86.0409 56.9852 90.7633 52.2629 90.7633 46.4375C90.7633 40.6122 86.0409 35.8899 80.2156 35.8899C74.3903 35.8899 69.668 40.6122 69.668 46.4375C69.668 52.2629 74.3903 56.9852 80.2156 56.9852Z" stroke="#381805" stroke-width="2" stroke-linecap="round" stroke-linejoin="round"/>
<path d="M86.2348 57.1109C95.3809 59.9679 97.6988 68.0538 100.43 75.7624C101.562 79.0148 100.43 80.7937 96.8363 81.1531C85.8934 81.9976 74.9324 81.4945 63.9895 81.6382C63.1332 81.5942 62.2953 81.3735 61.5284 80.9901C60.7615 80.6066 60.0822 80.0687 59.5332 79.4101C59.641 74.0195 62.8574 69.4554 64.1871 64.3523C65.1754 60.5429 75.3996 55.9249 79.4965 56.8953C81.5988 57.3804 83.3777 56.1945 85.3004 56.7515" stroke="#381805" stroke-width="2" stroke-linecap="round" stroke-linejoin="round"/>
</g>
<path d="M48.92 128.66H58.7V130.94H48.92V128.66ZM54 134.88H56.46V143.52C56.46 144.8 56.2 145.48 55.32 145.86C54.46 146.22 53.2 146.24 51.4 146.24C51.32 145.54 51 144.5 50.68 143.8C51.82 143.86 53.14 143.86 53.5 143.86C53.88 143.84 54 143.76 54 143.46V134.88ZM48.06 134.2H59.22V136.48H48.06V134.2ZM43.58 136.56L45.68 134.46L45.98 134.58V146.32H43.58V136.56ZM45.84 131.88L48.12 132.74C46.54 135.4 44.08 138.2 41.94 139.96C41.6 139.46 40.78 138.38 40.3 137.9C42.34 136.46 44.52 134.14 45.84 131.88ZM45.08 127.52L47.38 128.46C45.92 130.36 43.76 132.44 41.86 133.76C41.54 133.22 40.92 132.28 40.52 131.8C42.18 130.72 44.1 128.92 45.08 127.52ZM61.16 140.46H70.5V142.16H61.16V140.46ZM60.7 130.94H70.7V132.68H60.7V130.94ZM64.68 129.52H66.84V143.86H64.68V129.52ZM60.6 143.64C63.08 143.46 66.9 143.18 70.5 142.86L70.52 144.68C67.12 145.04 63.48 145.4 60.88 145.64L60.6 143.64ZM63.14 137.26V138.18H68.42V137.26H63.14ZM63.14 134.96V135.86H68.42V134.96H63.14ZM61.22 133.46H70.4V139.68H61.22V133.46ZM69.42 127.62L70.48 129.42C67.92 129.94 64.28 130.24 61.28 130.3C61.2 129.82 60.98 129.06 60.76 128.6C63.74 128.46 67.22 128.1 69.42 127.62ZM70.7 132.04H77.62V134.24H70.7V132.04ZM76.66 132.04H78.96C78.96 132.04 78.94 132.82 78.94 133.1C78.76 141.34 78.6 144.26 77.94 145.16C77.5 145.84 77.04 146.06 76.38 146.18C75.76 146.3 74.82 146.3 73.88 146.26C73.82 145.6 73.56 144.62 73.18 143.98C74.04 144.06 74.8 144.06 75.2 144.06C75.5 144.06 75.7 144 75.88 143.72C76.34 143.12 76.5 140.3 76.66 132.56V132.04ZM72.62 127.86H74.92C74.9 136.4 74.88 142.82 70.26 146.46C69.92 145.88 69.14 145.06 68.6 144.66C72.82 141.44 72.6 135.84 72.62 127.86ZM92.9 127.66H95.08V143.4H92.9V127.66ZM89.1 131.78H99.46V133.52H89.1V131.78ZM89.66 139.84H99.08V141.58H89.66V139.84ZM90.16 137.12H98.58V138.86H90.16V137.12ZM85.4 129.12H88.18V131.04H85.4V129.12ZM86.42 134.62H88.62V136.36H86.42V134.62ZM87.64 129.12H87.92L88.26 129.04L89.76 129.42C88.94 131.7 87.66 134.76 86.6 137.18L84.64 136.72C85.72 134.32 87.02 131.06 87.64 129.36V129.12ZM88.04 134.62H88.42L88.8 134.58L90.06 134.78C89.66 140.42 88.38 144.16 85.68 146.26C85.4 145.74 84.8 144.9 84.36 144.48C86.54 142.94 87.74 139.38 88.04 134.96V134.62ZM86.54 137.6C87.62 142.86 90.18 143.9 93.96 143.92C94.88 143.92 98.48 143.92 99.62 143.86C99.3 144.38 98.98 145.4 98.86 146.02H93.84C89.06 146.02 86.18 144.64 84.74 138.12L86.54 137.6ZM90.4 129.14H98.46V136.18H90.4V134.44H96.44V130.88H90.4V129.14ZM83.8 127.58L85.94 128.22C84.9 131.54 83.18 135.14 81.28 137.44C81.12 136.88 80.56 135.48 80.22 134.86C81.7 133.06 83.02 130.34 83.8 127.58ZM82.44 133.36L84.5 131.3L84.54 131.34V146.28H82.44V133.36ZM104.82 134.82H119.36V136.5H104.82V134.82ZM106 132.3H117.56V139.06H105.78V137.46H115.3V133.92H106V132.3ZM110.2 131.14H112.5V143.94C112.5 145.14 112.24 145.66 111.46 145.98C110.68 146.3 109.54 146.34 107.88 146.34C107.78 145.76 107.48 144.88 107.16 144.32C108.2 144.36 109.4 144.36 109.74 144.34C110.08 144.34 110.2 144.24 110.2 143.92V131.14ZM104.82 140.28L106.12 139C107.1 139.46 108.38 140.24 109.04 140.8L107.64 142.22C107.06 141.64 105.8 140.82 104.82 140.28ZM116.8 139.14L118.56 140.56C117.3 141.38 115.84 142.22 114.7 142.72L113.36 141.52C114.44 140.94 115.94 139.9 116.8 139.14ZM112.88 138.56C113.88 141.22 115.96 143.28 119.04 144.16C118.54 144.6 117.9 145.48 117.58 146.08C114.32 144.9 112.26 142.4 111.08 138.98L112.88 138.56ZM103.98 143.66C105.3 143.24 107.28 142.5 109.22 141.76L109.64 143.48C108.1 144.22 106.44 144.96 105.1 145.56L103.98 143.66ZM109.38 127.52H111.88V130.34H109.38V127.52ZM103.32 129.24H119.12V131.32H103.32V129.24ZM102.18 129.24H104.46V135.04C104.46 138.32 104.16 143.26 102.36 146.38C101.94 145.98 100.94 145.3 100.4 145.08C102.06 142.2 102.18 138.02 102.18 135.04V129.24Z" fill="#381805"/>
<rect x="0.5" y="0.5" width="159" height="159" rx="79.5" stroke="#FFD75F"/>
<defs>
<clipPath id="clip0_178_10477">
<rect width="115" height="115" fill="white" transform="translate(22.5 10.5)"/>
</clipPath>
</defs>
</svg>
