<svg width="160" height="160" viewBox="0 0 160 160" fill="none" xmlns="http://www.w3.org/2000/svg">
<rect x="0.5" y="0.5" width="159" height="159" rx="79.5" fill="#F6FAFF"/>
<g clip-path="url(#clip0_178_10207)">
<path d="M90.3409 77.2951C90.1073 75.624 90.1073 69.4068 90.1612 67.6998C90.4487 55.8764 89.4784 44.0709 89.2627 32.2475C89.2627 29.5342 88.2745 28.4201 85.5432 28.5459C68.976 29.3904 52.4088 28.9592 35.8417 28.9951C32.4276 28.9951 32.0503 30.792 32.1042 33.6311C32.6432 59.9852 33.0984 86.3813 33.4698 112.819C33.4698 115.658 34.3682 116.719 37.2253 116.521C47.3417 115.838 57.476 115.317 67.5924 114.724C72.9831 114.365 78.3737 113.826 83.7643 113.376" stroke="#381805" stroke-width="2" stroke-linecap="round" stroke-linejoin="round"/>
<path d="M81.9127 48.3655L41.4111 48.8327" stroke="#381805" stroke-width="2" stroke-linecap="round" stroke-linejoin="round"/>
<path d="M80.9424 74.5999L41.4111 75.5342" stroke="#381805" stroke-width="2" stroke-linecap="round" stroke-linejoin="round"/>
<path d="M70.8084 84.7341C66.3701 90.2685 61.824 95.731 57.4936 101.337C56.11 103.134 54.942 104.931 51.9592 105.039C49.3477 102.052 47.3183 98.6022 45.9756 94.8685" stroke="#F8D208" stroke-width="2" stroke-linecap="round" stroke-linejoin="round"/>
<path d="M67.125 61.7161L40.4414 62.6325" stroke="#381805" stroke-width="2" stroke-linecap="round" stroke-linejoin="round"/>
<path d="M137.616 93.6827C133.627 89.3702 130.034 84.6983 125.721 80.6733C121.371 76.3896 116.671 72.4767 111.67 68.9757C110.515 68.0431 109.084 67.5211 107.6 67.4918C106.117 67.4625 104.666 67.9276 103.476 68.8139C93.6209 76.0114 85.0134 84.7768 77.9961 94.7608" stroke="#381805" stroke-width="2" stroke-linecap="round" stroke-linejoin="round"/>
<path d="M107.788 118.875L111.562 118.767C114.544 118.767 117.527 118.767 120.546 118.587C121.546 118.575 122.544 118.478 123.529 118.3C127.895 117.168 129.548 114.706 130.069 110.196C130.878 103.224 130.069 96.288 130.069 89.3521" stroke="#381805" stroke-width="2" stroke-linecap="round" stroke-linejoin="round"/>
<path d="M107.788 118.875L104.015 118.767C101.05 118.767 98.067 118.767 95.0303 118.587C94.0357 118.574 93.0441 118.477 92.0654 118.3C87.699 117.168 86.0459 114.706 85.5068 110.196C84.6982 103.224 85.5068 96.288 85.5068 89.3521" stroke="#381805" stroke-width="2" stroke-linecap="round" stroke-linejoin="round"/>
</g>
<path d="M40.72 128.94H47.18V131.04H40.72V128.94ZM40.9 134.7H46.9V136.82H40.9V134.7ZM46.94 133.32H59.34V135.22H46.94V133.32ZM40.44 141.34C42.2 140.96 44.82 140.3 47.32 139.64L47.6 141.78C45.32 142.42 42.86 143.08 40.94 143.6L40.44 141.34ZM50.26 137.66V138.94H56.02V137.66H50.26ZM48.16 135.96H58.24V140.66H48.16V135.96ZM55.3 129.76V131.06H56.58V129.76H55.3ZM52.5 129.76V131.06H53.76V129.76H52.5ZM49.76 129.76V131.06H50.98V129.76H49.76ZM47.84 128.16H58.58V132.66H47.84V128.16ZM53.86 139.74C54.84 141.84 56.86 143.66 59.4 144.44C58.9 144.88 58.22 145.74 57.9 146.32C55.26 145.22 53.26 142.96 52.14 140.24L53.86 139.74ZM57.42 140.6L59.06 141.82C58.26 142.42 57.34 143.02 56.64 143.4L55.28 142.32C55.94 141.9 56.88 141.12 57.42 140.6ZM42.94 129.86H45.1V141.5L42.94 141.86V129.86ZM52.74 139.42L54.42 140.18C52.68 142.32 49.68 144.3 46.98 145.34C46.68 144.84 46.06 144.06 45.6 143.64C48.24 142.82 51.22 141.14 52.74 139.42ZM50.76 142.24L53.02 140.72V146.3H50.76V142.24ZM67.46 128.78H78.94V130.64H67.46V128.78ZM67.02 132.18H79.3V134.12H67.02V132.18ZM71.82 127.58H74.18V130.04H71.82V127.58ZM74.84 130.28L77.18 130.72C76.8 131.46 76.48 132.1 76.22 132.56L74.14 132.14C74.4 131.6 74.7 130.82 74.84 130.28ZM69.18 130.78L71.24 130.36C71.56 130.86 71.84 131.6 71.96 132.1L69.78 132.62C69.72 132.12 69.44 131.36 69.18 130.78ZM70.38 138.76V139.78H76.02V138.76H70.38ZM70.38 136.38V137.38H76.02V136.38H70.38ZM68.14 134.9H78.36V141.26H68.14V134.9ZM73.64 140.8H75.92V143.6C75.92 144.1 75.98 144.18 76.32 144.18C76.46 144.18 77.04 144.18 77.24 144.18C77.56 144.18 77.64 143.96 77.7 142.44C78.12 142.78 79.08 143.16 79.68 143.28C79.46 145.62 78.9 146.2 77.5 146.2C77.12 146.2 76.28 146.2 75.92 146.2C74.04 146.2 73.64 145.54 73.64 143.64V140.8ZM69.98 140.72H72.32C71.92 143.42 70.9 145.3 66.76 146.36C66.54 145.78 65.92 144.8 65.46 144.34C68.96 143.66 69.66 142.5 69.98 140.72ZM60.88 132.28H66.92V134.54H60.88V132.28ZM62.88 127.8H65.1V141.08H62.88V127.8ZM60.44 140.88C62.08 140.32 64.6 139.26 66.96 138.24L67.5 140.38C65.38 141.4 63.08 142.44 61.26 143.28L60.44 140.88ZM88.66 127.5H91.22V131.14H88.66V127.5ZM81.48 129.3H98.58V134.04H96.02V131.52H83.92V134.04H81.48V129.3ZM87.94 132L90.46 132.54C88.94 135.76 86.9 139.74 85.46 142.24L82.94 141.56C84.44 139.12 86.56 135.08 87.94 132ZM92.98 136.58L95.7 136.94C93.94 143.08 89.74 145.32 82.88 146.32C82.66 145.74 81.96 144.66 81.52 144.12C88.08 143.48 91.9 141.7 92.98 136.58ZM81.08 134.98H98.94V137.24H81.08V134.98ZM84.44 141.14L86.18 139.48C90.04 140.54 95.34 142.58 98.14 144.3L96.2 146.26C93.68 144.58 88.48 142.34 84.44 141.14ZM109.92 129.8C108.26 132.16 105.2 134.86 101.92 136.68C101.6 136.12 100.92 135.24 100.4 134.74C103.84 133 107.08 129.92 108.56 127.44H111.06C113.2 130.52 116.46 133.14 119.64 134.5C119.04 135.12 118.5 135.92 118.06 136.66C114.98 134.96 111.62 132.18 109.92 129.8ZM103.12 139.18H116.8V141.26H103.12V139.18ZM104.14 134.76H115.88V136.86H104.14V134.76ZM101.52 143.68H118.6V145.82H101.52V143.68ZM108.66 135.7H111.2V144.88H108.66V135.7Z" fill="#381805"/>
<rect x="0.5" y="0.5" width="159" height="159" rx="79.5" stroke="#FFD75F"/>
<defs>
<clipPath id="clip0_178_10207">
<rect width="115" height="115" fill="white" transform="translate(22.5 10.5)"/>
</clipPath>
</defs>
</svg>
