<svg width="160" height="160" viewBox="0 0 160 160" fill="none" xmlns="http://www.w3.org/2000/svg">
<rect x="0.5" y="0.5" width="159" height="159" rx="79.5" fill="#F6FAFF"/>
<g clip-path="url(#clip0_178_10515)">
<path d="M78.0598 24.1024C64.5473 23.8868 50.8371 39.25 56.8207 56.3204C60.4145 66.7782 69.5246 74.0915 83.5043 72.654C88.6205 71.9172 93.3779 69.5978 97.1095 66.021C100.841 62.4441 103.36 57.7891 104.312 52.7086C107.043 35.5665 92.8481 22.1618 78.527 24.1024" stroke="#F8D208" stroke-width="2" stroke-linecap="round" stroke-linejoin="round"/>
<path d="M108.049 105.429C108.983 98.547 114.14 95.2767 119.89 93.3001C121.297 92.9205 122.598 92.2245 123.694 91.2653C124.79 90.3061 125.652 89.1091 126.215 87.7657C129.522 80.147 131.247 72.061 133.403 64.1189C134.104 61.5134 133.654 58.7282 130.294 57.7759C127.994 57.129 124.67 59.3392 123.538 62.7892C121.741 68.054 117.986 72.2767 116.494 77.7212C115.606 79.7036 114.091 81.3389 112.182 82.3751C109.484 84.3392 106.887 86.4383 104.401 88.6642" stroke="#381805" stroke-width="2" stroke-linecap="round" stroke-linejoin="round"/>
<path d="M55.8145 89.5624C55.4552 88.8616 55.4192 88.1968 54.4849 87.7656C45.213 82.7343 41.6731 73.3906 37.2528 64.6218C36.1208 62.4116 35.456 59.8241 33.0481 58.8718C32.272 58.4799 31.4039 58.3064 30.5367 58.3697C29.6695 58.433 28.8358 58.7307 28.1247 59.2312C27.442 59.6391 26.9026 60.2488 26.5808 60.976C26.259 61.7033 26.1706 62.5125 26.3278 63.2921C28.9692 71.3062 30.6044 79.7695 33.9466 87.7656C34.5822 89.3264 35.5749 90.7166 36.8449 91.8244C38.115 92.9322 39.6271 93.7268 41.2599 94.1445C47.0638 96.0491 51.6099 99.3195 52.6341 105.914" stroke="#381805" stroke-width="2" stroke-linecap="round" stroke-linejoin="round"/>
<path d="M116.674 73.8399C115.986 73.0949 115.066 72.6056 114.063 72.4522C113.061 72.2987 112.037 72.4903 111.157 72.9954C104.886 75.6008 99.9629 79.9313 94.9856 84.1899C93.584 85.3938 93.0449 87.9454 92.6856 89.9938C91.9848 93.875 91.7152 97.8461 91.248 101.781" stroke="#381805" stroke-width="2" stroke-linecap="round" stroke-linejoin="round"/>
<path d="M69.434 101.781C69.434 97.9539 68.266 94.2703 67.8887 90.443C67.2957 84.6391 62.498 81.3328 58.0598 78.1883C55.4919 76.2894 52.7481 74.6408 49.866 73.2648C48.9043 72.6626 47.7793 72.3737 46.6463 72.438C45.5134 72.5024 44.4284 72.9169 43.541 73.6242" stroke="#381805" stroke-width="2" stroke-linecap="round" stroke-linejoin="round"/>
<path d="M90.7816 102.249C89.4879 102.249 88.1762 101.907 87.9605 104.045C87.5263 105.84 86.8683 107.572 86.002 109.202C93.1895 112.095 101.042 112.958 108.391 115.096C110.547 112.922 110.278 110.101 111.446 107.531C105.013 104.764 98.0949 104.459 91.6801 102.249" stroke="#381805" stroke-width="2" stroke-linecap="round" stroke-linejoin="round"/>
<path d="M69.8832 102.249C72.8121 103.201 72.8121 103.201 74.052 109.436C69.0387 111.898 63.3965 112.491 58.0598 113.982C51.0699 115.905 50.7645 115.492 49.3809 107.765C55.5262 104.746 62.516 104.333 68.9848 102.249" stroke="#381805" stroke-width="2" stroke-linecap="round" stroke-linejoin="round"/>
<path d="M69.5779 59.6804C72.2796 60.9349 75.2243 61.579 78.2029 61.5671C84.1326 61.5671 87.7623 59.1234 87.7623 55.5835C87.7623 52.3671 85.4443 50.4804 79.7303 48.8812C73.3514 47.228 69.542 44.8562 69.542 40.939C69.542 36.7343 74.3217 33.6616 81.06 33.6616C83.7541 33.5626 86.4397 34.0215 88.9482 35.0093L87.8521 36.7163C85.6486 35.7603 83.2637 35.2944 80.8623 35.3507C74.4654 35.3507 72.2912 38.3335 72.2912 40.5796C72.2912 43.778 74.8428 45.4132 80.5029 47.0124C87.0436 48.9351 90.5115 51.0913 90.5115 55.4038C90.5115 59.7163 86.3967 63.3101 77.9334 63.3101C74.675 63.3424 71.4469 62.6809 68.4639 61.3694L69.5779 59.6804Z" fill="#381805" stroke="#381805" stroke-width="0.75" stroke-miterlimit="10"/>
<path d="M79.5684 31.5054V66.4187" stroke="#381805" stroke-width="2" stroke-linecap="round" stroke-linejoin="round"/>
</g>
<path d="M41.54 128.28H43.8V141.06H41.54V128.28ZM42.82 128.28H47.94V140.14H42.82V138H45.74V130.38H42.82V128.28ZM42.76 133H46.9V135.08H42.76V133ZM48.54 128.22H57.36V130.32H48.54V128.22ZM56.6 128.22H58.88C58.88 128.22 58.86 128.74 58.84 129.02C58.68 131.78 58.5 133.04 58.04 133.54C57.66 133.96 57.2 134.12 56.64 134.18C56.14 134.24 55.26 134.26 54.34 134.22C54.3 133.62 54.08 132.82 53.76 132.3C54.5 132.36 55.18 132.38 55.5 132.38C55.78 132.38 55.94 132.34 56.1 132.2C56.36 131.92 56.48 130.96 56.6 128.52V128.22ZM51.6 128.86H53.94C53.66 131.88 52.86 133.9 49.1 135.02C48.88 134.48 48.32 133.66 47.84 133.26C50.92 132.46 51.4 131.04 51.6 128.86ZM51.38 136.76V138.9H55.88V136.76H51.38ZM49.14 134.84H58.26V140.82H49.14V134.84ZM46.46 142.02L48.68 141.74C48.94 143.08 49.18 144.8 49.2 145.86L46.84 146.24C46.84 145.16 46.68 143.38 46.46 142.02ZM50.7 141.98L52.96 141.56C53.46 142.86 53.96 144.56 54.14 145.66L51.74 146.16C51.6 145.1 51.16 143.32 50.7 141.98ZM54.84 141.96L57.02 141.12C57.84 142.42 58.9 144.18 59.36 145.3L57.04 146.3C56.64 145.18 55.64 143.32 54.84 141.96ZM43.12 141.28L45.44 141.92C44.78 143.44 43.8 145.22 42.98 146.4L40.66 145.4C41.46 144.42 42.48 142.74 43.12 141.28ZM67.76 139.96H77V141.68H67.76V139.96ZM76.44 139.96H76.86L77.24 139.88L78.62 140.56C76.7 144.12 72.48 145.66 67.74 146.34C67.56 145.8 67.14 145 66.78 144.54C71.06 144.12 75 142.82 76.44 140.24V139.96ZM71.08 141.44C72.62 143.04 75.88 144.04 79.48 144.4C79.02 144.86 78.42 145.72 78.14 146.28C74.34 145.76 71.08 144.4 69.12 142.2L71.08 141.44ZM67.48 128.52H79.12V130.24H67.48V128.52ZM69.72 134.26H78.14V135.44H69.72V134.26ZM69.72 136.04H78.14V137.24H69.72V136.04ZM70 127.5H72.12V131.18H70V127.5ZM72.86 132.86H74.94V139H72.86V132.86ZM74.46 127.5H76.6V131.18H74.46V127.5ZM69.32 130.72L71.2 131.2C70.5 132.92 69.34 134.66 68.18 135.76C67.86 135.42 67.1 134.8 66.66 134.52C67.78 133.58 68.76 132.16 69.32 130.72ZM73.44 130.8L75.6 131.16C75.18 131.96 74.78 132.66 74.46 133.16L72.62 132.8C72.92 132.2 73.26 131.38 73.44 130.8ZM78.58 132.18V133.66H70.84V137.86H79.06V139.36H68.74V132.18H78.58ZM61.42 133.66H66.74V135.46H61.42V133.66ZM61.54 128.14H66.68V129.96H61.54V128.14ZM61.42 136.38H66.74V138.2H61.42V136.38ZM60.58 130.84H67.24V132.74H60.58V130.84ZM62.52 139.16H66.7V145.2H62.52V143.32H64.78V141.04H62.52V139.16ZM61.36 139.16H63.24V146.04H61.36V139.16ZM88.32 128H91.06C90.88 131.36 90.62 141.12 82.44 146.14C82.02 145.52 81.24 144.78 80.42 144.22C88.46 139.76 88.18 130.62 88.32 128ZM90.98 128.52C91.04 130.26 91.46 140.24 99.66 144.08C98.9 144.66 98.18 145.46 97.82 146.12C89.2 141.84 88.82 130.82 88.66 128.76L90.98 128.52ZM101.5 131.68H116.82V134.14H101.5V131.68ZM115.84 131.68H118.34C118.34 131.68 118.32 132.5 118.28 132.84C117.88 140.84 117.48 143.88 116.58 144.94C116 145.7 115.42 145.92 114.54 146.04C113.78 146.16 112.54 146.14 111.32 146.08C111.28 145.38 110.94 144.3 110.48 143.6C111.76 143.7 112.94 143.72 113.48 143.72C113.88 143.72 114.12 143.64 114.4 143.38C115.1 142.7 115.5 139.54 115.84 132.16V131.68ZM107.64 127.56H110.18V131.68C110.18 136.22 109.54 142.56 102.74 146.4C102.36 145.82 101.46 144.88 100.86 144.46C107.08 141.08 107.64 135.54 107.64 131.68V127.56Z" fill="#381805"/>
<rect x="0.5" y="0.5" width="159" height="159" rx="79.5" stroke="#FFD75F"/>
<defs>
<clipPath id="clip0_178_10515">
<rect width="115" height="115" fill="white" transform="translate(22.5 10.5)"/>
</clipPath>
</defs>
</svg>
