<svg width="160" height="160" viewBox="0 0 160 160" fill="none" xmlns="http://www.w3.org/2000/svg">
<rect x="0.5" y="0.5" width="159" height="159" rx="79.5" fill="#F6FAFF"/>
<g clip-path="url(#clip0_178_10376)">
<path d="M81.4375 109.184L88.1398 108.987C93.4406 108.843 98.7414 108.987 104.042 108.681C105.815 108.663 107.583 108.488 109.325 108.16C117.088 106.166 120.106 101.925 120.969 93.7853C122.406 81.3868 120.969 69.0603 120.969 56.6978" stroke="#381805" stroke-width="2" stroke-linecap="round" stroke-linejoin="round"/>
<path d="M81.4373 109.184L74.735 108.987C69.4522 108.843 64.1514 108.987 58.8506 108.681C57.0778 108.663 55.3101 108.488 53.5678 108.16C45.8053 106.166 42.7865 101.925 41.924 93.7853C40.4865 81.3868 41.924 69.0603 41.924 56.6978" stroke="#381805" stroke-width="2" stroke-linecap="round" stroke-linejoin="round"/>
<path d="M134.661 67.0655C127.474 59.3749 121.095 50.9835 113.368 43.796C105.372 36.3749 97.4119 28.9358 88.2119 22.8983C83.1447 19.5741 78.1314 19.3046 73.6932 22.5929C56.0543 35.4584 40.6529 51.139 28.1064 69.0061" stroke="#381805" stroke-width="2" stroke-linecap="round" stroke-linejoin="round"/>
<path d="M108.427 61.3335C111.337 72.1147 109.577 81.6562 101.76 89.9757C93.3148 98.9601 79.3891 100.523 68.2305 94.378C67.0445 93.7312 66.1102 92.5812 64.6367 92.5812" stroke="#F8D208" stroke-width="2" stroke-linecap="round" stroke-linejoin="round"/>
<path d="M101.275 50.6062C95.6551 45.8695 88.5162 43.3177 81.1675 43.4187C75.4053 43.7508 69.8888 45.8661 65.3818 49.4717C60.8748 53.0773 57.6002 57.9949 56.0112 63.5437C55.2916 67.2291 55.0082 70.9865 55.1667 74.7382" stroke="#F8D208" stroke-width="2" stroke-linecap="round" stroke-linejoin="round"/>
<path d="M82.516 76.535C91.8238 76.9304 96.5137 74.1991 99.4965 66.7061C100.826 63.346 99.4965 61.1897 95.9027 60.8843C93.2564 60.5747 90.5773 61.0459 88.1955 62.24C85.8137 63.4341 83.8332 65.2989 82.4981 67.6046C81.5441 68.8903 80.9923 70.4297 80.9124 72.0287C80.8324 73.6277 81.2279 75.2145 82.0488 76.589C78.2889 77.7386 74.2481 77.5608 70.6037 76.0854C66.9593 74.6099 63.9328 71.9266 62.0317 68.4851C60.5942 65.7897 63.6129 62.4296 67.8535 62.2499C70.3573 62.1842 72.8453 62.6646 75.1446 63.6576C77.444 64.6505 79.4995 66.1323 81.1684 67.9999" stroke="#381805" stroke-width="2" stroke-linecap="round" stroke-linejoin="round"/>
<path d="M81.168 77.8828V92.6352" stroke="#381805" stroke-width="2" stroke-linecap="round" stroke-linejoin="round"/>
<path d="M70.4404 68.4851C73.7467 69.9406 76.5318 72.4921 80.2693 72.9593" stroke="#381805" stroke-width="2" stroke-linecap="round" stroke-linejoin="round"/>
<path d="M90.9973 68.4851C88.2302 70.3219 85.9342 72.7841 84.2949 75.6726" stroke="#381805" stroke-width="2" stroke-linecap="round" stroke-linejoin="round"/>
<path d="M64.8701 101.063L63.5225 90.8743L73.3154 89.6704" stroke="#F8D208" stroke-width="2" stroke-linecap="round" stroke-linejoin="round"/>
<path d="M102.604 42.3945L103.377 52.6367L93.5303 53.3016" stroke="#F8D208" stroke-width="2" stroke-linecap="round" stroke-linejoin="round"/>
</g>
<path d="M46.92 131.38H59.16V133.66H46.92V131.38ZM47.58 137.14H58.6V139.42H47.58V137.14ZM46.48 143.38H59.46V145.66H46.48V143.38ZM51.82 132.08H54.26V144.84H51.82V132.08ZM49.3 129.18L50.88 127.48C52.36 128.26 54.42 129.5 55.44 130.4L53.72 132.32C52.82 131.4 50.8 130.06 49.3 129.18ZM45.08 127.56L47.32 128.28C45.96 131.68 43.76 135.26 41.48 137.52C41.28 136.96 40.64 135.64 40.24 135.06C42.14 133.26 44 130.42 45.08 127.56ZM43.16 133.1L45.42 130.82L45.44 130.84V146.24H43.16V133.1ZM73.72 132.12L75.6 134.08C72.3 135.38 67.76 136.14 63.7 136.54C63.62 135.94 63.28 135 62.98 134.46C66.9 134 71.14 133.2 73.72 132.12ZM60.96 138.72L78.64 136.96L78.94 139.18L61.26 141.04L60.96 138.72ZM67.92 135.2H70.54V142.78C70.54 143.68 70.72 143.82 71.92 143.82C72.48 143.82 74.7 143.82 75.34 143.82C76.42 143.82 76.6 143.38 76.76 141.02C77.32 141.46 78.42 141.86 79.16 142.02C78.82 145.26 78.08 146.18 75.54 146.18C74.88 146.18 72.26 146.18 71.66 146.18C68.72 146.18 67.92 145.4 67.92 142.8V135.2ZM68.66 127.54H71.22V131.18H68.66V127.54ZM61.4 129.28H78.6V134.02H76.02V131.54H63.84V134.02H61.4V129.28ZM88.4 133.14H99.34V135.52H88.4V133.14ZM94.98 128.9L96.88 128.02C97.76 129.1 98.74 130.56 99.16 131.56L97.12 132.56C96.76 131.56 95.82 130.02 94.98 128.9ZM82.36 133.04H86.44V135.18H82.36V133.04ZM80.68 137.36H86.02V139.5H80.68V137.36ZM85.5 127.52H87.74V146.3H85.5V127.52ZM81.38 128.4H83.56V135.16H81.38V128.4ZM81.9 138.18H84.06V139.88C84.06 141.44 83.8 144.2 82.24 145.88C81.82 145.54 80.96 145 80.42 144.78C81.72 143.34 81.9 141.08 81.9 139.82V138.18ZM92.22 127.54H94.52V133.48C94.52 137.86 93.96 142.96 88.98 146.36C88.66 145.8 87.88 144.9 87.38 144.5C91.76 141.58 92.22 137.16 92.22 133.48V127.54ZM94.86 133.98C95.02 136.7 95.52 141.62 99.66 144.24C98.98 144.72 98.28 145.54 97.9 146.2C93.52 143.2 92.92 137.28 92.64 134.14L94.86 133.98ZM101.82 129.36L103.14 127.6C104.38 128.04 106.02 128.84 106.84 129.52L105.44 131.48C104.68 130.78 103.1 129.9 101.82 129.36ZM100.56 134.82L101.82 133.02C103.14 133.46 104.88 134.28 105.76 134.94L104.4 136.94C103.62 136.26 101.9 135.36 100.56 134.82ZM101.3 144.58C102.44 143.02 104.1 140.4 105.38 138L107.14 139.46C105.98 141.68 104.62 144.08 103.34 146.06L101.3 144.58ZM113.24 136.86H115.64V143.2C115.64 143.88 115.68 143.98 116.04 143.98C116.18 143.98 116.74 143.98 116.9 143.98C117.28 143.98 117.36 143.54 117.42 141.14C117.88 141.52 118.88 141.92 119.52 142.08C119.32 145.22 118.74 146.12 117.14 146.12C116.78 146.12 115.94 146.12 115.6 146.12C113.68 146.12 113.24 145.38 113.24 143.24V136.86ZM110 130.62V134.76H115.84V130.62H110ZM107.66 128.4H118.3V136.98H107.66V128.4ZM109.36 136.82H111.7C111.54 141.48 111 144.58 106.94 146.34C106.7 145.74 106.04 144.84 105.52 144.38C108.96 143.02 109.22 140.68 109.36 136.82Z" fill="#381805"/>
<rect x="0.5" y="0.5" width="159" height="159" rx="79.5" stroke="#FFD75F"/>
<defs>
<clipPath id="clip0_178_10376">
<rect width="115" height="115" fill="white" transform="translate(22.5 10.5)"/>
</clipPath>
</defs>
</svg>
