<svg width="160" height="160" viewBox="0 0 160 160" fill="none" xmlns="http://www.w3.org/2000/svg">
<rect x="0.5" y="0.5" width="159" height="159" rx="79.5" fill="#F6FAFF"/>
<g clip-path="url(#clip0_178_10344)">
<path d="M106.379 107.406C107.313 100.542 112.344 97.415 118.04 95.4564C119.428 95.0826 120.711 94.3937 121.79 93.4432C122.868 92.4926 123.713 91.3061 124.257 89.9759C127.51 82.4829 129.199 74.5228 131.319 66.6165C132.02 64.065 131.589 61.3337 128.264 60.3814C126.018 59.7525 122.73 61.9267 121.616 65.3228C119.927 70.4978 116.225 74.6486 114.698 80.0032C113.818 81.9595 112.322 83.5748 110.439 84.6032C107.79 86.5315 105.241 88.5947 102.803 90.7845" stroke="#381805" stroke-width="2" stroke-linecap="round" stroke-linejoin="round"/>
<path d="M54.9692 91.7548C54.6278 91.072 54.5919 90.4071 53.6575 89.9579C44.5474 84.9986 41.0794 75.7267 36.713 67.1915C35.5989 64.9993 34.9161 62.4657 32.5802 61.5134C31.8134 61.1335 30.9586 60.9664 30.1052 61.0297C29.2518 61.0929 28.4311 61.384 27.7286 61.8728C26.5606 62.879 25.4106 64.1907 25.9317 65.8618C28.5552 73.8939 30.1544 82.2134 33.4427 90.0478C34.0723 91.5789 35.0495 92.9425 36.2969 94.0309C37.5443 95.1193 39.0279 95.9026 40.6302 96.3189C46.3263 98.1157 50.8184 101.404 51.8067 107.891" stroke="#381805" stroke-width="2" stroke-linecap="round" stroke-linejoin="round"/>
<path d="M80.449 57.3266V62.7173C85.5701 62.4477 91.2303 63.993 94.6623 58.6024C96.6389 55.4759 93.7639 50.6782 88.499 47.0485C89.4514 39.6813 87.3131 36.0696 81.3115 34.9735C80.2137 34.7244 79.0744 34.7204 77.9749 34.962C76.8753 35.2036 75.8426 35.6847 74.9503 36.3711C74.058 37.0575 73.3281 37.9322 72.8125 38.933C72.297 39.9338 72.0086 41.036 71.9678 42.161C71.7881 45.5212 71.5904 48.4321 67.9787 50.3368C66.7856 51.0034 65.8835 52.0905 65.4483 53.3861C65.0131 54.6817 65.076 56.0929 65.6248 57.3446C65.9187 58.6993 66.6459 59.9215 67.6963 60.826C68.7468 61.7306 70.0633 62.2683 71.4467 62.3579C74.3037 62.7352 77.0529 63.6696 80.1975 62.2141L80.6108 68.9524" stroke="#F8D208" stroke-width="2" stroke-linecap="round" stroke-linejoin="round"/>
<path d="M79.8564 16.7351C80.0953 17.376 80.4219 17.9807 80.8268 18.532C83.7878 22.6135 87.542 26.0555 91.8645 28.6521C96.187 31.2487 100.989 32.9464 105.983 33.6437C109.307 34.2007 110.529 35.782 110.026 39.0343C109.154 45.1543 107.679 51.1731 105.624 57.0031C103.374 63.0387 99.0575 68.0813 93.4408 71.2343C89.1283 73.8218 84.7619 76.3195 80.7189 79.3203" stroke="#381805" stroke-width="2" stroke-linecap="round" stroke-linejoin="round"/>
<path d="M79.1017 18.4243C72.0759 28.361 61.9236 33.1407 50.9087 35.4407C50.5127 41.1542 51.1705 46.8917 52.8494 52.3673C55.7962 62.3938 62.5166 69.3478 71.9142 73.9298C74.8072 75.3493 78.3111 76.3196 79.8923 79.5001" stroke="#381805" stroke-width="2" stroke-linecap="round" stroke-linejoin="round"/>
<path d="M68.3738 103.812C68.3738 100.056 67.2238 96.4086 66.8465 92.6711C66.2715 86.9571 61.5457 83.6868 57.1793 80.6141C54.6601 78.734 51.9641 77.1031 49.1293 75.7446C47.2246 74.918 44.8707 74.3071 42.9121 76.1039" stroke="#381805" stroke-width="2" stroke-linecap="round" stroke-linejoin="round"/>
<path d="M114.86 76.3195C114.188 75.5903 113.289 75.1113 112.309 74.9611C111.33 74.8109 110.328 74.9984 109.469 75.4929C103.36 78.0445 98.4182 82.3749 93.5127 86.5077C92.1291 87.6757 91.608 90.2093 91.2486 92.2038C90.5658 96.0491 90.2783 99.9484 89.8291 103.812" stroke="#381805" stroke-width="2" stroke-linecap="round" stroke-linejoin="round"/>
<path d="M89.3973 104.261C88.1035 104.261 86.8277 103.937 86.6121 106.058C86.188 107.821 85.542 109.524 84.6895 111.125C91.877 113.964 99.4957 114.826 106.719 116.947C108.857 114.844 108.516 112.023 109.72 109.49C103.395 106.776 96.5848 106.471 90.2777 104.279" stroke="#381805" stroke-width="2" stroke-linecap="round" stroke-linejoin="round"/>
<path d="M68.8236 104.261C73.4057 104.566 71.3932 108.807 73.3877 111.107C67.9971 113.766 62.4447 114.359 57.2158 115.815C50.3518 117.72 50.0283 117.306 48.6807 109.706C54.7361 106.741 61.6002 106.327 67.9791 104.315" stroke="#381805" stroke-width="2" stroke-linecap="round" stroke-linejoin="round"/>
<path d="M80 46.1499C80.1437 49.5819 80.3055 53.014 80.4492 56.428" stroke="#F8D208" stroke-width="2" stroke-linecap="round" stroke-linejoin="round"/>
<path d="M74.6094 55.0984C78.4188 57.021 82.1922 58.2789 85.7859 54.6492" stroke="#F8D208" stroke-width="2" stroke-linecap="round" stroke-linejoin="round"/>
</g>
<path d="M40.72 128.94H47.18V131.04H40.72V128.94ZM40.9 134.7H46.9V136.82H40.9V134.7ZM46.94 133.32H59.34V135.22H46.94V133.32ZM40.44 141.34C42.2 140.96 44.82 140.3 47.32 139.64L47.6 141.78C45.32 142.42 42.86 143.08 40.94 143.6L40.44 141.34ZM50.26 137.66V138.94H56.02V137.66H50.26ZM48.16 135.96H58.24V140.66H48.16V135.96ZM55.3 129.76V131.06H56.58V129.76H55.3ZM52.5 129.76V131.06H53.76V129.76H52.5ZM49.76 129.76V131.06H50.98V129.76H49.76ZM47.84 128.16H58.58V132.66H47.84V128.16ZM53.86 139.74C54.84 141.84 56.86 143.66 59.4 144.44C58.9 144.88 58.22 145.74 57.9 146.32C55.26 145.22 53.26 142.96 52.14 140.24L53.86 139.74ZM57.42 140.6L59.06 141.82C58.26 142.42 57.34 143.02 56.64 143.4L55.28 142.32C55.94 141.9 56.88 141.12 57.42 140.6ZM42.94 129.86H45.1V141.5L42.94 141.86V129.86ZM52.74 139.42L54.42 140.18C52.68 142.32 49.68 144.3 46.98 145.34C46.68 144.84 46.06 144.06 45.6 143.64C48.24 142.82 51.22 141.14 52.74 139.42ZM50.76 142.24L53.02 140.72V146.3H50.76V142.24ZM67.46 128.78H78.94V130.64H67.46V128.78ZM67.02 132.18H79.3V134.12H67.02V132.18ZM71.82 127.58H74.18V130.04H71.82V127.58ZM74.84 130.28L77.18 130.72C76.8 131.46 76.48 132.1 76.22 132.56L74.14 132.14C74.4 131.6 74.7 130.82 74.84 130.28ZM69.18 130.78L71.24 130.36C71.56 130.86 71.84 131.6 71.96 132.1L69.78 132.62C69.72 132.12 69.44 131.36 69.18 130.78ZM70.38 138.76V139.78H76.02V138.76H70.38ZM70.38 136.38V137.38H76.02V136.38H70.38ZM68.14 134.9H78.36V141.26H68.14V134.9ZM73.64 140.8H75.92V143.6C75.92 144.1 75.98 144.18 76.32 144.18C76.46 144.18 77.04 144.18 77.24 144.18C77.56 144.18 77.64 143.96 77.7 142.44C78.12 142.78 79.08 143.16 79.68 143.28C79.46 145.62 78.9 146.2 77.5 146.2C77.12 146.2 76.28 146.2 75.92 146.2C74.04 146.2 73.64 145.54 73.64 143.64V140.8ZM69.98 140.72H72.32C71.92 143.42 70.9 145.3 66.76 146.36C66.54 145.78 65.92 144.8 65.46 144.34C68.96 143.66 69.66 142.5 69.98 140.72ZM60.88 132.28H66.92V134.54H60.88V132.28ZM62.88 127.8H65.1V141.08H62.88V127.8ZM60.44 140.88C62.08 140.32 64.6 139.26 66.96 138.24L67.5 140.38C65.38 141.4 63.08 142.44 61.26 143.28L60.44 140.88ZM86.74 128.54H99.04V130.64H86.74V128.54ZM88.4 140.2C90.34 142.58 94.4 143.68 99.7 143.92C99.18 144.48 98.56 145.5 98.26 146.16C92.72 145.7 88.74 144.2 86.3 140.92L88.4 140.2ZM89.24 136.7V138.18H96.24V136.7H89.24ZM89.24 133.6V135.04H96.24V133.6H89.24ZM87.02 131.84H98.56V139.92H87.02V131.84ZM91.64 129.16H94.02V137.42C94.02 141.2 92.7 144.62 86.92 146.32C86.62 145.78 85.92 144.84 85.42 144.36C91.14 143.22 91.64 140.4 91.64 137.38V129.16ZM84.68 127.6L86.94 128.28C85.76 131.68 83.82 135.3 81.76 137.6C81.54 137.02 80.88 135.7 80.46 135.12C82.16 133.28 83.74 130.44 84.68 127.6ZM82.8 133.12L85.08 130.84L85.1 130.86V146.28H82.8V133.12ZM100.86 133.46H110.46V135.68H100.86V133.46ZM111.42 129.94H113.76V141.18H111.42V129.94ZM104.68 129.5H107.04V146.28H104.68V129.5ZM116.16 127.9H118.54V143.36C118.54 144.78 118.26 145.44 117.44 145.84C116.6 146.22 115.28 146.3 113.44 146.3C113.32 145.6 112.94 144.5 112.6 143.82C113.92 143.86 115.2 143.86 115.62 143.86C116 143.86 116.16 143.74 116.16 143.36V127.9ZM108.7 127.6L110.42 129.44C107.88 130.44 104.36 131.12 101.34 131.54C101.24 131 100.9 130.16 100.62 129.66C103.54 129.22 106.76 128.48 108.7 127.6ZM104.66 134.52L106.28 135.22C105.28 138.22 103.52 141.8 101.64 143.8C101.4 143.08 100.8 142.08 100.4 141.44C102.12 139.78 103.86 136.86 104.66 134.52ZM106.68 136.54C107.46 137.04 109.94 139.12 110.52 139.64L109.16 141.7C108.28 140.62 106.42 138.68 105.44 137.78L106.68 136.54Z" fill="#381805"/>
<rect x="0.5" y="0.5" width="159" height="159" rx="79.5" stroke="#FFD75F"/>
<defs>
<clipPath id="clip0_178_10344">
<rect width="115" height="115" fill="white" transform="translate(22.5 10.5)"/>
</clipPath>
</defs>
</svg>
