<svg width="160" height="160" viewBox="0 0 160 160" fill="none" xmlns="http://www.w3.org/2000/svg">
<rect x="0.5" y="0.5" width="159" height="159" rx="79.5" fill="#F6FAFF"/>
<g clip-path="url(#clip0_178_10408)">
<path d="M54.9336 114.305C61.4703 113.796 67.9887 115.498 73.4414 119.139C81.3477 124.152 88.5711 123.505 95.8844 118.133C103.863 112.275 112.937 107.98 120.214 101.044C122.065 99.4813 123.524 97.5057 124.473 95.2765C125.982 91.3413 123.826 87.9812 119.693 88.6819C116.89 89.2912 114.169 90.2322 111.589 91.4851C106.773 93.6054 101.58 95.0788 97.7711 99.0679" stroke="#381805" stroke-width="2" stroke-linecap="round" stroke-linejoin="round"/>
<path d="M54.4666 113.838C53.2599 105.239 52.785 96.5531 53.0471 87.8735H39.6963C39.6963 97.4868 39.6963 106.849 39.6963 116.21C39.6963 118.259 40.5229 119.121 42.5713 119.085C46.165 119.085 49.8846 119.085 53.5682 119.085C53.9275 117.199 54.1971 115.761 54.4846 114.324" stroke="#381805" stroke-width="2" stroke-linecap="round" stroke-linejoin="round"/>
<path d="M77.7895 102.877C82.9707 105.828 88.6055 107.898 94.4644 109.005C98.5973 109.867 101.652 107.495 101.652 104.315C101.557 103.001 101.035 101.754 100.166 100.765C99.2961 99.7754 98.1269 99.0974 96.8363 98.8343C90.4754 97.828 85.3004 94.0366 79.2809 92.3655C73.7105 90.8202 68.1762 91.4132 62.6059 91.9163C60.3777 92.1319 58.1676 93.0304 55.9395 91.9163" stroke="#381805" stroke-width="2" stroke-linecap="round" stroke-linejoin="round"/>
<path d="M91.9133 53.2836C92.8117 55.2062 95.9562 56.1047 98.7234 55.2602C103.323 53.8766 107.133 49.3305 106.738 44.8023C106.342 40.2742 104.725 36.2312 98.2563 34.7578C95.9831 34.3065 93.6242 34.627 91.554 35.6687C89.4837 36.7103 87.8205 38.4134 86.8281 40.5078C86.325 41.4422 85.8758 42.4125 85.3906 43.3648" stroke="#381805" stroke-width="2" stroke-linecap="round" stroke-linejoin="round"/>
<path d="M72.0756 54.793C66.0202 56.3204 60.6295 54.5235 59.21 50.4985C56.4967 42.7899 59.5873 37.7047 63.9717 35.7282C65.2468 35.1326 66.6319 34.8091 68.0389 34.7783C69.4459 34.7475 70.8439 35.0101 72.1438 35.5493C73.4437 36.0886 74.617 36.8926 75.5891 37.9103C76.5612 38.928 77.3106 40.1369 77.7897 41.4602C78.1491 42.3047 78.5983 43.1133 79.1913 44.3172" stroke="#381805" stroke-width="2" stroke-linecap="round" stroke-linejoin="round"/>
<path d="M59.2285 52.8882C54.6824 55.9788 54.6105 61.2257 53.0293 65.7358" stroke="#381805" stroke-width="2" stroke-linecap="round" stroke-linejoin="round"/>
<path d="M105.39 52.4031C110.187 54.9367 109.738 60.3992 112.056 64.3164" stroke="#381805" stroke-width="2" stroke-linecap="round" stroke-linejoin="round"/>
<path d="M82.3355 61.4055C87.2379 61.4055 91.2121 57.4313 91.2121 52.5289C91.2121 47.6265 87.2379 43.6523 82.3355 43.6523C77.4332 43.6523 73.459 47.6265 73.459 52.5289C73.459 57.4313 77.4332 61.4055 82.3355 61.4055Z" stroke="#381805" stroke-width="2" stroke-linecap="round" stroke-linejoin="round"/>
<path d="M68.8955 75.6007C68.8955 75.6007 73.1002 60.0757 78.1135 60.4351" stroke="#381805" stroke-width="2" stroke-linecap="round" stroke-linejoin="round"/>
<path d="M95.9742 75.6007C95.9742 75.6007 91.7516 60.0757 86.7383 60.4351" stroke="#381805" stroke-width="2" stroke-linecap="round" stroke-linejoin="round"/>
<path d="M106.737 69.7969C97.9406 74.9538 89.6449 80.9214 81.9585 87.6219C74.5234 80.6026 66.184 74.608 57.1616 69.7969C39.0671 60.0938 25.9678 33.8594 47.9796 19.9875C69.9913 6.11567 81.9585 31.1102 81.9585 31.1102C81.9585 31.1102 95.0397 5.77426 117.033 19.7C139.027 33.6258 125.119 59.0157 106.737 69.7969Z" stroke="#F8D208" stroke-width="2" stroke-linecap="round" stroke-linejoin="round"/>
</g>
<path d="M48.1 128.52H59.06V130.62H48.1V128.52ZM48.82 138.78H58.56V140.9H48.82V138.78ZM47.62 143.66H59.42V145.76H47.62V143.66ZM52.34 139.7H54.76V144.94H52.34V139.7ZM49.86 130.94L51.86 131.42C51.3 132.46 50.58 133.6 49.96 134.56C50.76 135.66 51.56 136.92 51.96 137.76L50.04 138.52C49.64 137.46 48.78 135.98 47.78 134.58C48.58 133.36 49.42 131.92 49.86 130.94ZM53.28 130.94L55.3 131.42C54.7 132.46 53.96 133.6 53.3 134.56C54.18 135.64 55.04 136.88 55.46 137.72L53.6 138.52C53.14 137.46 52.2 135.96 51.1 134.58C51.96 133.38 52.82 131.92 53.28 130.94ZM56.76 130.94L58.76 131.44C58.14 132.48 57.38 133.6 56.72 134.56C57.64 135.6 58.58 136.84 59.06 137.68L57.2 138.52C56.7 137.46 55.66 135.96 54.5 134.58C55.36 133.38 56.28 131.92 56.76 130.94ZM43.58 127.54L45.66 128.26C44.84 129.82 43.92 131.6 43.16 132.72L41.56 132.06C42.26 130.86 43.12 128.92 43.58 127.54ZM45.84 129.9L47.78 130.8C46.32 133.04 44.38 135.82 42.84 137.54L41.46 136.76C42.96 134.96 44.78 132.04 45.84 129.9ZM40.48 132.2L41.66 130.6C42.7 131.54 43.92 132.84 44.4 133.78L43.1 135.62C42.66 134.64 41.48 133.22 40.48 132.2ZM45.16 134.7L46.82 134C47.62 135.36 48.38 137.12 48.62 138.26L46.82 139.08C46.6 137.92 45.9 136.08 45.16 134.7ZM40.42 136.3C42.22 136.2 44.8 136.06 47.3 135.9L47.32 137.86C44.98 138.04 42.54 138.22 40.68 138.36L40.42 136.3ZM45.7 139.72L47.38 139.2C47.86 140.32 48.26 141.78 48.4 142.74L46.62 143.32C46.52 142.34 46.14 140.86 45.7 139.72ZM41.28 139.28L43.2 139.6C43 141.52 42.58 143.5 42 144.78C41.6 144.52 40.72 144.14 40.26 143.94C40.82 142.76 41.12 140.96 41.28 139.28ZM43.48 137.36H45.54V146.3H43.48V137.36ZM66.08 132.02H69.88V133.52H66.08V132.02ZM65.84 129.08H79.18V130.98H65.84V129.08ZM68.72 138.44H76.36V140.3H68.72V138.44ZM68.54 141.38H76.38V143.24H68.54V141.38ZM71.16 127.5H73.62V129.98H71.16V127.5ZM71.46 133.2H73.34V137.38H71.46V133.2ZM75.24 137.38H77.52V146.28H75.24V137.38ZM69.14 132.02H70.7C70.7 132.02 70.68 132.4 70.68 132.62C70.64 135.06 70.58 136.12 70.28 136.52C70.04 136.8 69.78 136.96 69.4 137C69.12 137.04 68.66 137.06 68.24 137.04C68.22 136.58 68.08 135.96 67.9 135.58C68.22 135.62 68.44 135.62 68.6 135.62C68.74 135.64 68.86 135.62 68.96 135.48C69.08 135.28 69.12 134.48 69.14 132.26V132.02ZM73.72 135.7C74.64 135.6 75.78 135.44 77.1 135.24L77.18 136.56C76.1 136.74 75.06 136.92 74.08 137.08L73.72 135.7ZM77.52 131.38L78.86 132.5C77.84 133.1 76.5 133.58 75.38 133.88C75.28 133.56 75.04 133.02 74.86 132.7C75.82 132.36 76.92 131.84 77.52 131.38ZM73.56 130.72L75.34 131.26C74.82 132.12 74.32 132.98 73.9 133.56L72.58 133.06C72.92 132.4 73.34 131.4 73.56 130.72ZM77.84 132.4C78.1 133.82 78.64 135.3 79.54 136C79.14 136.3 78.62 136.92 78.34 137.34C77.32 136.4 76.76 134.52 76.5 132.72L77.84 132.4ZM61.32 129.44L62.66 127.7C63.76 128.16 65.16 128.94 65.86 129.56L64.44 131.48C63.8 130.84 62.42 129.96 61.32 129.44ZM60.54 134.78L61.86 133.02C62.98 133.44 64.4 134.16 65.08 134.78L63.68 136.72C63.04 136.1 61.66 135.28 60.54 134.78ZM60.88 144.86C61.66 143.3 62.7 140.76 63.5 138.42L65.44 139.66C64.74 141.8 63.88 144.12 63.06 146.08L60.88 144.86ZM67.48 137.38H69.74V140.14C69.74 142.02 69.4 144.84 67.26 146.48C66.86 146.1 65.98 145.48 65.46 145.2C67.24 143.82 67.48 141.54 67.48 140.1V137.38ZM66.98 132.56L68.56 132.66C68.36 134.86 67.7 136.5 66.24 137.56C66.04 137.26 65.48 136.66 65.14 136.4C66.36 135.6 66.86 134.26 66.98 132.56ZM69.84 131.36L71.2 130.76C71.64 131.42 72.08 132.3 72.26 132.9L70.82 133.6C70.66 132.98 70.26 132.06 69.84 131.36ZM74.44 132.08L76.4 132.66C76.36 132.78 76.22 132.86 75.96 132.9V136.16H74.44V132.08ZM88.4 133.14H99.34V135.52H88.4V133.14ZM94.98 128.9L96.88 128.02C97.76 129.1 98.74 130.56 99.16 131.56L97.12 132.56C96.76 131.56 95.82 130.02 94.98 128.9ZM82.36 133.04H86.44V135.18H82.36V133.04ZM80.68 137.36H86.02V139.5H80.68V137.36ZM85.5 127.52H87.74V146.3H85.5V127.52ZM81.38 128.4H83.56V135.16H81.38V128.4ZM81.9 138.18H84.06V139.88C84.06 141.44 83.8 144.2 82.24 145.88C81.82 145.54 80.96 145 80.42 144.78C81.72 143.34 81.9 141.08 81.9 139.82V138.18ZM92.22 127.54H94.52V133.48C94.52 137.86 93.96 142.96 88.98 146.36C88.66 145.8 87.88 144.9 87.38 144.5C91.76 141.58 92.22 137.16 92.22 133.48V127.54ZM94.86 133.98C95.02 136.7 95.52 141.62 99.66 144.24C98.98 144.72 98.28 145.54 97.9 146.2C93.52 143.2 92.92 137.28 92.64 134.14L94.86 133.98ZM101.82 129.36L103.14 127.6C104.38 128.04 106.02 128.84 106.84 129.52L105.44 131.48C104.68 130.78 103.1 129.9 101.82 129.36ZM100.56 134.82L101.82 133.02C103.14 133.46 104.88 134.28 105.76 134.94L104.4 136.94C103.62 136.26 101.9 135.36 100.56 134.82ZM101.3 144.58C102.44 143.02 104.1 140.4 105.38 138L107.14 139.46C105.98 141.68 104.62 144.08 103.34 146.06L101.3 144.58ZM113.24 136.86H115.64V143.2C115.64 143.88 115.68 143.98 116.04 143.98C116.18 143.98 116.74 143.98 116.9 143.98C117.28 143.98 117.36 143.54 117.42 141.14C117.88 141.52 118.88 141.92 119.52 142.08C119.32 145.22 118.74 146.12 117.14 146.12C116.78 146.12 115.94 146.12 115.6 146.12C113.68 146.12 113.24 145.38 113.24 143.24V136.86ZM110 130.62V134.76H115.84V130.62H110ZM107.66 128.4H118.3V136.98H107.66V128.4ZM109.36 136.82H111.7C111.54 141.48 111 144.58 106.94 146.34C106.7 145.74 106.04 144.84 105.52 144.38C108.96 143.02 109.22 140.68 109.36 136.82Z" fill="#381805"/>
<rect x="0.5" y="0.5" width="159" height="159" rx="79.5" stroke="#FFD75F"/>
<defs>
<clipPath id="clip0_178_10408">
<rect width="115" height="115" fill="white" transform="translate(22.5 10.5)"/>
</clipPath>
</defs>
</svg>
