<svg width="366" height="226" viewBox="0 0 366 226" fill="none" xmlns="http://www.w3.org/2000/svg">
<path d="M365.5 115.503C350.564 115.654 338.961 122.579 328.202 132.825C320.934 139.747 314.011 148.229 306.693 157.194C303.086 161.613 299.383 166.149 295.496 170.674C283.698 184.407 270.148 198.108 252.267 208.379C234.392 218.646 212.166 225.5 183 225.5C153.834 225.5 131.608 218.646 113.733 208.379C95.8522 198.108 82.302 184.407 70.5043 170.674C66.6169 166.149 62.9139 161.613 59.3068 157.194C51.9891 148.229 45.066 139.747 37.798 132.825C27.0394 122.579 15.4358 115.654 0.5 115.503V110.497C15.4358 110.346 27.0394 103.421 37.798 93.1746C45.066 86.2526 51.9891 77.7712 59.3067 68.8064C62.9139 64.3874 66.6169 59.8509 70.5043 55.3258C82.302 41.5931 95.8522 27.8922 113.733 17.6211C131.608 7.3536 153.834 0.5 183 0.5C212.166 0.5 234.392 7.3536 252.267 17.6211C270.148 27.8922 283.698 41.5931 295.496 55.3258C299.383 59.8508 303.086 64.3873 306.693 68.8064C314.011 77.7711 320.934 86.2526 328.202 93.1746C338.961 103.421 350.564 110.346 365.5 110.497V115.503Z" fill="url(#paint0_linear_1528_11485)" stroke="white"/>
<defs>
<linearGradient id="paint0_linear_1528_11485" x1="183" y1="0" x2="183" y2="226" gradientUnits="userSpaceOnUse">
<stop offset="0.614583" stop-color="white"/>
<stop offset="1" stop-color="#FFF9EE" stop-opacity="0"/>
</linearGradient>
</defs>
</svg>
