<svg width="68" height="567" viewBox="0 0 68 567" fill="none" xmlns="http://www.w3.org/2000/svg">
<path opacity="0.5" d="M7 548.871C7 553.507 9.54748 558.154 14.6176 561.692C24.7745 568.767 41.2338 568.767 51.3824 561.692C56.4525 558.154 59 553.507 59 548.871V387.998H7V548.871Z" fill="url(#paint0_linear_2157_6262)"/>
<path opacity="0.5" fill-rule="evenodd" clip-rule="evenodd" d="M58.2262 15.4819C59.5286 17.7789 59.9681 20.6286 59.6504 23.79L59.0238 66.416L59.0238 208.453H7.3838L7.38379 47.4734C7.38379 44.5983 8.35515 41.7193 10.292 39.1029C13.2275 32.7927 18.2613 26.208 24.7923 20.7195C38.4092 9.27598 53.3781 6.93102 58.2262 15.4819Z" fill="url(#paint1_linear_2157_6262)"/>
<path d="M56.5584 17.1045C58.4589 20.4565 58.2071 25.696 55.4713 31.9341C52.77 38.0936 47.8254 44.7347 41.2258 50.2809C34.6262 55.8272 27.7725 59.1012 22.0842 59.9923C16.3232 60.8948 12.2099 59.3236 10.3094 55.9716C8.40894 52.6197 8.6607 47.3801 11.3965 41.142C14.0978 34.9825 19.0424 28.3415 25.6421 22.7952C32.2417 17.249 39.0953 13.975 44.7837 13.0839C50.5447 12.1814 54.6579 13.7526 56.5584 17.1045Z" stroke="#FFD75F" stroke-width="4"/>
<path d="M3.2 25.3547H5.6L12.14 35.0947V25.3547H14.68V39.3347H12.28L5.74 29.5747V39.3347H3.2V25.3547ZM18.0867 25.3547H27.5467V27.4547H20.6267V31.2947H25.7667V33.3947H20.6267V37.2347H27.5467V39.3347H18.0867V25.3547ZM29.6633 25.3547H32.3033L35.0833 35.2347L37.8233 25.3547H39.7833L42.5233 35.2347L45.3033 25.3547H47.9433L43.9633 39.3347H41.6033L38.8033 29.6147L36.0033 39.3347H33.6433L29.6633 25.3547ZM54.0877 39.6347C53.261 39.6347 52.441 39.5547 51.6277 39.3947C50.8277 39.248 50.1677 39.048 49.6477 38.7947V36.6147C50.3143 36.9347 51.0143 37.1747 51.7477 37.3347C52.481 37.4947 53.201 37.5747 53.9077 37.5747C54.801 37.5747 55.481 37.408 55.9477 37.0747C56.4143 36.7413 56.6477 36.2813 56.6477 35.6947C56.6477 35.2813 56.541 34.9413 56.3277 34.6747C56.1143 34.3947 55.801 34.1547 55.3877 33.9547C54.9743 33.7413 54.341 33.468 53.4877 33.1347C52.181 32.6013 51.2343 32.008 50.6477 31.3547C50.061 30.7013 49.7677 29.888 49.7677 28.9147C49.7677 28.1547 49.9743 27.4813 50.3877 26.8947C50.801 26.308 51.381 25.8547 52.1277 25.5347C52.8743 25.2147 53.7343 25.0547 54.7077 25.0547C55.5077 25.0547 56.2143 25.1213 56.8277 25.2547C57.4543 25.3747 58.0677 25.568 58.6677 25.8347V27.9547C57.5077 27.3947 56.3343 27.1147 55.1477 27.1147C54.2943 27.1147 53.6343 27.2747 53.1677 27.5947C52.701 27.9013 52.4677 28.3413 52.4677 28.9147C52.4677 29.328 52.5743 29.668 52.7877 29.9347C53.001 30.188 53.281 30.408 53.6277 30.5947C53.9877 30.768 54.6277 31.048 55.5477 31.4347C56.481 31.8213 57.2143 32.2013 57.7477 32.5747C58.2943 32.948 58.701 33.388 58.9677 33.8947C59.2477 34.388 59.3877 34.9947 59.3877 35.7147C59.3877 36.9547 58.941 37.9213 58.0477 38.6147C57.1543 39.2947 55.8343 39.6347 54.0877 39.6347Z" fill="#381805"/>
<path d="M26.92 103.339C29.58 103.339 31.26 105.039 31.26 107.279C31.26 109.979 29.54 111.899 25.12 116.339H31.62L31.38 117.999H22.84V116.419C27.94 111.099 29.2 109.719 29.2 107.379C29.2 105.859 28.22 104.979 26.82 104.979C25.6 104.979 24.8 105.459 23.84 106.559L22.54 105.519C23.7 104.059 25.12 103.339 26.92 103.339ZM28.02 133.339C31.26 133.339 32.86 136.019 32.86 140.779C32.86 145.579 31.26 148.259 28.02 148.259C24.78 148.259 23.18 145.579 23.18 140.779C23.18 135.999 24.78 133.339 28.02 133.339ZM28.02 134.919C26.22 134.919 25.26 136.559 25.26 140.779C25.26 145.039 26.22 146.679 28.02 146.679C29.82 146.679 30.8 145.039 30.8 140.779C30.8 136.559 29.82 134.919 28.02 134.919ZM26.92 163.339C29.58 163.339 31.26 165.039 31.26 167.279C31.26 169.979 29.54 171.899 25.12 176.339H31.62L31.38 177.999H22.84V176.419C27.94 171.099 29.2 169.719 29.2 167.379C29.2 165.859 28.22 164.979 26.82 164.979C25.6 164.979 24.8 165.459 23.84 166.559L22.54 165.519C23.7 164.059 25.12 163.339 26.92 163.339ZM26.86 193.339C29.62 193.339 31.14 195.059 31.14 196.999C31.14 198.839 29.94 199.939 28.32 200.339C30.14 200.499 31.6 201.639 31.6 203.839C31.6 206.359 29.66 208.259 26.66 208.259C24.94 208.259 23.42 207.639 22.32 206.319L23.52 205.219C24.46 206.199 25.44 206.639 26.6 206.639C28.42 206.639 29.52 205.519 29.52 203.799C29.52 201.819 28.4 201.219 26.64 201.219H25.56L25.8 199.679H26.54C27.96 199.679 29.14 198.819 29.14 197.139C29.14 195.779 28.2 194.939 26.76 194.939C25.6 194.939 24.74 195.319 23.78 196.219L22.74 195.039C23.96 193.899 25.3 193.339 26.86 193.339ZM38.36 228.139V236.079H25.92V228.059H29.68C29.52 227.679 29.16 227.099 28.9 226.839C31.92 226.339 33.16 225.319 33.6 223.779H31.82C31.36 224.339 30.78 224.899 30.02 225.479L29.12 224.399C30.34 223.579 31.24 222.239 31.7 221.139L33.32 221.399C33.16 221.759 32.94 222.119 32.72 222.479H38.92L39.2 222.419L40.4 222.739C39.92 223.719 39.1 224.879 38.46 225.539L37.04 225.099C37.4 224.759 37.74 224.239 38.04 223.779H35.34C35.7 225.119 37.06 226.459 40.6 226.939L40.18 228.479C39.42 228.339 38.82 228.259 38.36 228.139ZM28.98 222.499V223.879H23.82V222.499H28.98ZM29.18 226.559C28.62 226.719 28.02 226.899 27.42 227.059L27.1 227.139L26.9 227.199L26.7 227.259C25.6 227.559 24.5 227.859 23.64 228.079L23.08 226.599C24.28 226.359 26.18 225.939 27.98 225.499L28.18 225.459C28.46 225.379 28.74 225.319 29.02 225.239L29.18 226.559ZM30.26 228.059H38.08C36.2 227.459 35.06 226.439 34.48 225.439C33.76 226.599 32.5 227.519 30.26 228.059ZM27.66 230.359H36.54V229.179H27.66V230.359ZM27.66 232.619H36.54V231.419H27.66V232.619ZM27.66 234.959H36.54V233.719H27.66V234.959ZM30.6 236.919C29.06 237.899 26.6 238.979 24.36 239.579L23.74 238.059C25.28 237.759 27.8 236.919 29.1 236.139L30.6 236.919ZM40.66 238.619L38.54 239.479C37.4 238.859 35.34 237.859 33.44 237.179L34.74 236.279C36.76 236.959 39.3 237.979 40.66 238.619ZM38.54 263.819V269.419H36.84V264.099L31.18 265.179L30.9 263.519L36.84 262.359V251.159H38.54V262.079L40.78 261.659L41.02 263.319L38.54 263.819ZM28.04 261.659V269.399H26.34V261.619C25.68 263.499 24.64 265.779 23.98 266.679L22.7 265.379C23.92 263.879 25.14 261.219 25.76 259.299H23.24V257.619H26.34V251.239H28.04V257.619H30.92V259.299H28.04V259.519C28.6 260.119 30.34 262.679 30.74 263.239L29.6 264.679C29.3 263.999 28.68 262.639 28.04 261.659ZM31.08 252.599C30.92 253.099 30.76 253.639 30.6 254.199L30.54 254.399L30.48 254.599C30.2 255.519 29.92 256.419 29.64 257.019L28.5 256.679C28.9 255.539 29.3 253.539 29.52 252.259L31.08 252.599ZM25.68 256.659L24.32 257.019C24.2 256.439 24.02 255.619 23.84 254.779L23.78 254.579L23.74 254.359C23.6 253.759 23.44 253.179 23.32 252.659L24.58 252.339C24.72 252.779 24.86 253.299 24.98 253.799L25.04 254.019L25.1 254.219C25.32 255.119 25.54 256.019 25.68 256.659ZM36.04 254.719L35.1 256.079C34.42 255.459 33.18 254.359 32.2 253.579L33.12 252.379C34.1 253.099 35.34 254.099 36.04 254.719ZM35.36 259.419L34.46 260.859C33.76 260.279 32.3 259.199 31.28 258.479L32.12 257.199C32.54 257.459 33.02 257.779 33.5 258.099L33.68 258.219C34.34 258.679 34.96 259.099 35.36 259.419ZM26.88 285.319C26.12 286.039 25.06 286.799 23.96 287.499L23.04 286.119C25.18 284.839 27.14 282.879 28.04 281.359H29.66C31.02 282.359 32.72 283.919 33.68 284.879L32.5 286.239C32.2 285.899 31.78 285.479 31.34 285.019V286.079H26.88V285.319ZM39.16 299.059C38.52 299.339 37.32 299.419 35.42 299.399L35.32 297.559C36.26 297.619 37.46 297.619 37.84 297.619C38.14 297.619 38.36 297.399 38.36 297.079V281.519H40.1V297.079C40.1 298.119 39.82 298.759 39.16 299.059ZM27.36 284.839H27.38H31.14C30.96 284.659 30.76 284.459 30.58 284.279L30.44 284.139L30.3 283.999C29.92 283.599 29.52 283.219 29.12 282.879C28.66 283.479 28.02 284.199 27.36 284.839ZM35.68 283.439V294.359H34.02V283.439H35.68ZM26.04 295.099C25.68 296.399 25 297.979 24.18 298.979C23.94 298.659 23.26 298.059 22.94 297.859C24.66 295.739 25 292.279 25 290.139V287.039H32.72V292.759H26.44C26.4 293.079 26.32 293.539 26.26 293.879H33.02V298.839H26.04V295.099ZM26.6 289.319H31.1V288.319H26.6V289.319ZM26.56 291.479H31.1V290.419H26.6C26.6 290.719 26.58 291.159 26.56 291.479ZM27.6 297.479H31.44V295.199H27.6V297.479ZM28.78 324.539V329.379H27.02V324.599C26.16 325.859 24.98 327.239 23.98 328.019L22.94 326.639C24.12 325.859 25.74 323.919 26.66 322.379H23.34V320.859H27.02V318.979H23.28V317.459H25.32C25.26 316.799 24.92 315.639 24.6 314.899L25.98 314.559H23.54V313.079H27.02V311.259H28.78V313.079H32.04V314.559H29.68L31.04 314.899C30.96 315.119 30.86 315.339 30.78 315.579L30.7 315.779C30.44 316.399 30.2 317.039 29.98 317.459H32.26V318.979H28.78V320.859H32.08V322.379H28.78V322.699C29.46 323.179 31.14 324.819 31.58 325.179L30.52 326.499C30.16 326.059 29.48 325.199 28.78 324.539ZM34.54 319.259V319.539C34.54 322.339 34.16 326.899 31.58 329.499C31.38 329.119 30.72 328.459 30.32 328.219C32.6 325.919 32.92 322.039 32.92 319.439V312.659L34.12 312.999C35.96 312.579 38.06 311.959 39.22 311.359L40.7 312.639C39.84 313.039 38.68 313.399 37.5 313.699L37.3 313.759C36.36 313.999 35.4 314.219 34.54 314.399V317.599H40.9V319.259H38.8V329.299H37.04V319.259H34.54ZM25.74 317.459H29.88L28.7 317.159C29 316.439 29.38 315.319 29.56 314.559H26.06C26.44 315.359 26.78 316.499 26.86 317.159L25.74 317.459ZM26.14 348.979C26.12 350.079 26.06 351.419 25.9 352.819L25.88 353.039C25.62 355.359 25.12 357.799 24.28 359.459C24 359.159 23.24 358.539 22.88 358.359C24.22 355.679 24.46 351.159 24.46 348.399V342.539H31.64V341.139H33.52V342.539H40.72V344.039H32.82L34.2 344.419C34.02 344.859 33.78 345.359 33.52 345.799H35.26C35.54 345.299 35.86 344.599 36.02 344.159L37.66 344.579C37.6 344.659 37.54 344.739 37.5 344.819L37.38 344.999C37.22 345.279 37.04 345.559 36.88 345.799H40.1V346.919H36.64V347.839H39.6V348.799H36.64V349.759H39.6V350.719H36.64V351.759H40.42V352.919H32.56C33.62 353.379 34.86 354.299 35.5 354.919L34.4 355.979C33.76 355.339 32.44 354.399 31.34 353.859L32.3 352.919H31.64V348.599C31.38 348.879 31.12 349.159 30.82 349.439L29.74 348.339C30.82 347.359 32 345.579 32.66 344.039H26.14V348.259C27.34 347.219 28.64 345.519 29.34 344.059L30.66 344.499C30.34 345.159 30.08 345.879 29.66 346.499V353.279H28.1V348.559C27.72 348.979 27.28 349.419 26.88 349.759C26.72 349.579 26.4 349.259 26.14 348.979ZM33.18 347.839H35.12V346.919H33.18V347.839ZM33.18 349.759H35.12V348.799H33.18V349.759ZM33.18 351.759H35.12V350.719H33.18V351.759ZM40.94 358.279L39.38 359.099C38.96 358.039 37.7 356.159 36.64 355.039L38.06 354.359C39.12 355.439 40.42 357.219 40.94 358.279ZM29.48 355.119C28.88 356.319 28.02 357.939 27.26 358.999L25.9 358.119C26.26 357.659 26.64 357.039 27.02 356.399L27.12 356.219C27.44 355.659 27.76 355.079 28.02 354.579L29.48 355.119ZM37.42 356.619C37.24 358.679 36.68 359.299 34.56 359.299H33.36C30.8 359.299 30.3 358.739 30.3 357.239V354.739H31.92V357.239C31.92 357.699 32.1 357.859 33.46 357.859H34.52C35.74 357.859 35.88 357.519 35.94 356.399L37.42 356.619ZM26.88 383.339C26.58 385.419 25.74 388.039 24.36 389.559C24.1 389.219 23.32 388.559 22.94 388.339C24.96 386.099 25.32 382.159 25.34 379.519V372.439H39.48V387.059C39.48 388.079 39.2 388.739 38.52 388.999C37.82 389.279 36.58 389.319 34.62 389.299L34.5 387.579C35.34 387.619 36.52 387.619 37.02 387.619H37.16C37.5 387.619 37.68 387.399 37.68 387.039V383.339H33.06V389.179H31.24V383.339H26.88ZM33.06 376.939H37.68V374.159H33.06V376.939ZM27.12 376.939H31.24V374.159H27.12V376.939ZM27.02 381.619H31.24V378.619H27.12V379.439C27.12 380.079 27.08 380.919 27.02 381.619ZM33.06 381.619H37.68V378.619H33.06V381.619ZM31.6 405.839V407.259H23.2V405.839H25.24C25.16 405.279 24.9 404.519 24.7 403.979L25.04 403.939H23.6V402.519H26.84V401.179H28.46V402.519H31.46V403.939H30.26L30.48 403.999C30.2 404.639 30.1 405.339 29.9 405.839H31.6ZM40.84 405.839V407.259H32.08V405.839H33.76C33.66 405.279 33.56 404.519 33.34 403.979L33.6 403.939H32.3V402.519H35.22V401.179H36.94V402.519H40.52V403.939H39.2L39.4 403.959C39.22 404.359 39 404.779 38.8 405.179L38.72 405.339C38.64 405.519 38.56 405.679 38.48 405.839H40.84ZM26.38 405.839H28.74L28.4 405.759C28.58 405.279 28.86 404.499 29 403.939H26.18C26.44 404.519 26.68 405.279 26.76 405.759L26.38 405.839ZM34.96 405.839H37.34L36.92 405.739C37.14 405.259 37.46 404.499 37.64 403.939H34.86C35.14 404.519 35.22 405.279 35.26 405.759L34.96 405.839ZM35.18 413.159C34.96 415.999 34.26 418.379 31.28 419.499L30.64 418.019C32.9 417.239 33.54 415.399 33.7 413.159H32.7V408.219H39.88V413.159H38V417.059C38 417.239 38.06 417.299 38.1 417.359C38.16 417.439 38.34 417.539 38.64 417.539H38.92C39.22 417.539 39.46 417.439 39.56 417.379C39.62 417.299 39.74 417.159 39.76 416.999C39.8 416.699 39.84 415.879 39.84 415.359L41.2 415.579C41.14 416.719 41.04 417.779 40.96 418.179C40.84 418.519 40.6 418.779 40.3 418.959C40.06 419.119 39.62 419.199 38.88 419.199H38.36C37.64 419.199 37.12 419.079 36.82 418.819C36.5 418.519 36.38 418.099 36.38 417.159V413.159H35.18ZM26.84 413.139C26.66 415.779 25.96 418.179 23.78 419.479L22.9 418.059C24.56 417.199 25.1 415.239 25.24 413.139H24.06V408.239H30.92V413.139H29.58V416.219C30.2 416.019 30.88 415.739 31.52 415.499L31.8 416.979C31.56 417.079 31.32 417.179 31.08 417.279L30.88 417.359C30.56 417.519 30.22 417.679 29.88 417.819L29.7 417.899C29.12 418.159 28.56 418.399 28.04 418.599L27.58 416.999L28.14 416.759V413.139H26.84ZM34.34 411.799H38.1V409.559H34.34V411.799ZM25.68 411.759H29.44V409.579H25.68V411.759ZM25.4 433.619V435.339H23.74V432.259H31.08V431.119H32.9V432.259H40.32V435.339H38.6V433.619H25.4ZM30.8 447.419C29.26 448.219 26.56 449.079 24.18 449.459L23.76 448.179C25.1 447.979 27.42 447.299 28.76 446.779H26.66V441.919C25.82 442.379 24.84 442.839 23.82 443.179L23.2 441.699C24.52 441.359 26.48 440.439 27.68 439.519H23.56V438.259H28.34V437.439H25.9V436.459H28.34V435.719H25.62V434.659H28.34V433.919H29.86V434.659H34.12V433.919H35.66V434.659H38.4V435.719H35.66V436.459H38.2V437.439H35.66V438.259H40.5V439.519H36.62C37.8 440.399 39.62 441.239 40.84 441.519L40.24 443.039C39.18 442.699 38.2 442.259 37.4 441.779V446.779H35.3C35.7 446.879 36.12 447.019 36.54 447.139L36.74 447.219C36.78 447.219 36.82 447.239 36.84 447.239L37.06 447.319C38.28 447.719 39.48 448.159 40.28 448.419L38.72 449.439C37.4 448.939 35.28 448.079 33.14 447.459L33.9 446.779H29.94L30.8 447.419ZM29.86 436.459H34.12V435.719H29.86V436.459ZM29.86 438.259H34.12V437.439H29.86V438.259ZM28.84 440.379H35.42C35.12 440.119 34.84 439.759 34.6 439.519H29.54C29.28 439.759 29.14 440.119 28.84 440.379ZM28.32 442.199H35.62V441.339H28.32V442.199ZM28.32 443.979H35.62V443.119H28.32V443.979ZM28.32 445.799H35.62V444.899H28.32V445.799ZM26.32 473.359V479.419H24.48V465.439H31.36C31.3 464.839 31.24 464.139 31.18 463.519H27.94V461.939H32.72C32.78 463.159 32.9 464.399 33.1 465.439H39.64V477.119C39.64 478.119 39.4 478.799 38.7 479.079C38 479.359 36.74 479.399 34.9 479.399L34.78 477.559C35.64 477.599 36.98 477.619 37.32 477.619C37.66 477.599 37.84 477.399 37.84 477.119V473.059C37.44 473.399 36.74 474.179 36.48 474.639C34.26 473.439 32.9 471.139 32.08 468.659C31.24 471.259 29.78 473.559 27.46 474.759C27.26 474.399 26.72 473.719 26.32 473.359ZM26.32 467.179V473.259C28.62 472.099 30.04 469.839 30.7 467.179H26.32ZM33.48 467.179C34.2 469.739 35.58 471.979 37.84 473.039V467.179H33.48ZM36 505.959C34.96 507.239 33.62 508.619 31.9 509.519L31 507.799C32.66 507.039 34.02 505.659 35.02 504.259C34.4 503.119 33.96 501.619 33.58 500.159L33.54 499.959C33.52 499.859 33.48 499.759 33.46 499.659L33.42 499.459C33.38 499.359 33.36 499.259 33.34 499.159C33.02 499.739 32.66 500.279 32.32 500.759C32.1 500.499 31.6 500.039 31.22 499.739H29.2V504.439L32.1 503.779L32.28 505.399C31.38 505.599 30.44 505.839 29.52 506.079L29.3 506.119C29.24 506.139 29.16 506.159 29.1 506.179L28.88 506.239C28.58 506.299 28.26 506.379 27.96 506.459L27.76 506.519C26.08 506.939 24.5 507.339 23.28 507.599L22.94 505.759L24.08 505.499V496.819H25.72V505.219L27.42 504.799V494.119H23.36V492.399H32.14V494.119H29.2V498.039H31.48V498.639C32.28 497.439 32.88 495.779 33.34 494.019L33.38 493.819C33.6 492.919 33.8 492.019 33.96 491.119L35.72 491.439C35.68 491.659 35.64 491.879 35.6 492.099L35.56 492.299C35.54 492.399 35.54 492.499 35.52 492.599L35.48 492.799C35.44 492.959 35.42 493.119 35.38 493.279L35.36 493.459C35.28 493.879 35.2 494.279 35.1 494.679H40.9V496.359H39.62C39.14 499.339 38.24 502.299 37.08 504.299C38.04 505.719 39.54 507.119 40.92 507.779L39.94 509.479C38.36 508.639 36.96 507.259 36 505.959ZM34.42 496.699C34.5 497.119 34.58 497.539 34.68 497.979L34.74 498.179C34.76 498.339 34.8 498.499 34.84 498.679L34.9 498.879C35.22 500.159 35.6 501.419 36.08 502.439C36.86 500.859 37.44 498.599 37.78 496.359H34.4L34.42 496.699ZM40.56 533.139V534.719H23.46V533.139H31.06V531.599H25.06V530.179H31.06V528.779H25.4V521.839H38.58V528.779H32.88V530.179H38.92V531.599H32.88V533.139H40.56ZM32.88 527.299H36.74V523.299H32.88V527.299ZM27.12 527.299H31.06V523.299H27.12V527.299ZM36.08 524.179C35.6 525.159 35.08 526.299 34.68 527.039L33.56 526.599C33.72 526.259 33.9 525.799 34.08 525.339L34.14 525.159C34.36 524.619 34.56 524.099 34.7 523.679L36.08 524.179ZM30.28 526.439L29.06 526.899C28.86 526.199 28.46 524.959 27.94 524.119L29.1 523.719C29.62 524.539 30.12 525.719 30.28 526.439ZM40.72 538.819L38.92 539.499C38.48 538.619 37.36 536.939 36.5 535.919L38.16 535.379C39.02 536.359 40.24 537.919 40.72 538.819ZM27.32 535.819C26.7 536.939 25.78 538.519 25.12 539.499L23.4 538.739C24.02 537.919 24.96 536.439 25.56 535.379L27.32 535.819ZM35.34 538.899L33.72 539.339C33.56 538.539 33.14 537.019 32.74 536.039L34.44 535.699C34.84 536.639 35.18 538.119 35.34 538.899ZM30.86 539.079L29.1 539.319C29.1 538.539 28.98 537.019 28.86 535.999L30.46 535.859C30.68 536.839 30.86 538.319 30.86 539.079Z" fill="#381805" fill-opacity="0.7"/>
<path d="M27.488 80.7191L27.488 76.3991L43.352 76.3991L43.352 85.2311L39.392 85.2311L39.392 80.7191L27.488 80.7191ZM28.376 77.2871L28.376 79.8071L40.304 79.8071L40.304 84.3431L42.464 84.3431L42.464 77.2871L28.376 77.2871Z" fill="#FFFEF9"/>
<path d="M27.488 80.7191L26.988 80.7191L26.988 81.2191L27.488 81.2191L27.488 80.7191ZM27.488 76.3991L27.488 75.8991L26.988 75.8991L26.988 76.3991L27.488 76.3991ZM43.352 76.3991L43.852 76.3991L43.852 75.8991L43.352 75.8991L43.352 76.3991ZM43.352 85.2311L43.352 85.7311L43.852 85.7311L43.852 85.2311L43.352 85.2311ZM39.392 85.2311L38.892 85.2311L38.892 85.7311L39.392 85.7311L39.392 85.2311ZM39.392 80.7191L39.892 80.7191L39.892 80.2191L39.392 80.2191L39.392 80.7191ZM28.376 77.2871L28.376 76.7871L27.876 76.7871L27.876 77.2871L28.376 77.2871ZM28.376 79.8071L27.876 79.8071L27.876 80.3071L28.376 80.3071L28.376 79.8071ZM40.304 79.8071L40.804 79.8071L40.804 79.3071L40.304 79.3071L40.304 79.8071ZM40.304 84.3431L39.804 84.3431L39.804 84.8431L40.304 84.8431L40.304 84.3431ZM42.464 84.3431L42.464 84.8431L42.964 84.8431L42.964 84.3431L42.464 84.3431ZM42.464 77.2871L42.964 77.2871L42.964 76.7871L42.464 76.7871L42.464 77.2871ZM27.988 80.7191L27.988 76.3991L26.988 76.3991L26.988 80.7191L27.988 80.7191ZM27.488 76.8991L43.352 76.8991L43.352 75.8991L27.488 75.8991L27.488 76.8991ZM42.852 76.3991L42.852 85.2311L43.852 85.2311L43.852 76.3991L42.852 76.3991ZM43.352 84.7311L39.392 84.7311L39.392 85.7311L43.352 85.7311L43.352 84.7311ZM39.892 85.2311L39.892 80.7191L38.892 80.7191L38.892 85.2311L39.892 85.2311ZM39.392 80.2191L27.488 80.2191L27.488 81.2191L39.392 81.2191L39.392 80.2191ZM27.876 77.2871L27.876 79.8071L28.876 79.8071L28.876 77.2871L27.876 77.2871ZM28.376 80.3071L40.304 80.3071L40.304 79.3071L28.376 79.3071L28.376 80.3071ZM39.804 79.8071L39.804 84.3431L40.804 84.3431L40.804 79.8071L39.804 79.8071ZM40.304 84.8431L42.464 84.8431L42.464 83.8431L40.304 83.8431L40.304 84.8431ZM42.964 84.3431L42.964 77.2871L41.964 77.2871L41.964 84.3431L42.964 84.3431ZM42.464 76.7871L28.376 76.7871L28.376 77.7871L42.464 77.7871L42.464 76.7871Z" fill="#381805"/>
<defs>
<linearGradient id="paint0_linear_2157_6262" x1="32.9956" y1="566.636" x2="32.9956" y2="386.918" gradientUnits="userSpaceOnUse">
<stop stop-color="#FFD75F" stop-opacity="0.7"/>
<stop offset="1" stop-color="#FFD75F" stop-opacity="0"/>
</linearGradient>
<linearGradient id="paint1_linear_2157_6262" x1="33.208" y1="29.6971" x2="33.208" y2="209.535" gradientUnits="userSpaceOnUse">
<stop stop-color="#FFD75F" stop-opacity="0.7"/>
<stop offset="1" stop-color="#FFD75F" stop-opacity="0"/>
</linearGradient>
</defs>
</svg>
