<?xml version="1.0" encoding="UTF-8" standalone="no"?>
<svg xmlns="http://www.w3.org/2000/svg" version="1.2" baseProfile="tiny" viewBox="0.00 0.00 900.00 900.00">
<path stroke="#809ac2" stroke-width="2.00" fill="none" stroke-linecap="butt" vector-effect="non-scaling-stroke" d="
  M 232.79 399.84
  Q 235.67 395.88 234.15 400.53
  C 189.93 535.45 271.73 673.60 409.26 702.13
  Q 409.38 702.15 409.26 702.11
  C 345.44 681.18 304.62 621.89 307.75 554.96
  C 310.94 486.60 364.03 428.46 431.58 418.46
  C 482.75 410.89 534.15 430.31 566.80 470.81
  C 631.20 550.69 596.35 669.85 498.29 702.07
  A 0.03 0.03 0.0 0 0 498.31 702.12
  Q 560.87 689.21 607.20 647.97
  C 677.61 585.29 702.78 487.23 672.07 397.83
  A 0.39 0.38 -73.0 0 1 672.74 397.47
  C 783.41 546.88 720.72 756.01 547.72 821.12
  Q 547.26 821.29 547.74 821.16
  Q 642.83 795.51 710.95 728.21
  C 795.27 644.89 834.82 524.88 813.24 407.05
  C 787.10 264.36 676.59 149.22 534.37 118.07
  C 494.56 109.35 465.80 83.61 453.42 44.75
  Q 453.22 44.12 453.02 44.76
  C 442.91 76.81 419.48 102.56 387.82 113.83
  Q 383.41 115.40 368.51 118.97
  C 267.14 143.25 181.02 208.85 131.54 300.05
  C 99.73 358.67 84.37 427.38 89.00 494.25
  C 93.72 562.50 116.89 628.75 157.68 683.55
  Q 234.61 786.93 361.13 821.87
  A 0.19 0.19 0.0 0 0 361.24 821.50
  Q 350.37 817.85 339.82 812.95
  C 180.46 739.06 129.98 541.23 232.79 399.84"
/>
<path fill="#ffffff" d="
  M 0.00 0.00
  L 900.00 0.00
  L 900.00 900.00
  L 0.00 900.00
  L 0.00 0.00
  Z
  M 232.79 399.84
  Q 235.67 395.88 234.15 400.53
  C 189.93 535.45 271.73 673.60 409.26 702.13
  Q 409.38 702.15 409.26 702.11
  C 345.44 681.18 304.62 621.89 307.75 554.96
  C 310.94 486.60 364.03 428.46 431.58 418.46
  C 482.75 410.89 534.15 430.31 566.80 470.81
  C 631.20 550.69 596.35 669.85 498.29 702.07
  A 0.03 0.03 0.0 0 0 498.31 702.12
  Q 560.87 689.21 607.20 647.97
  C 677.61 585.29 702.78 487.23 672.07 397.83
  A 0.39 0.38 -73.0 0 1 672.74 397.47
  C 783.41 546.88 720.72 756.01 547.72 821.12
  Q 547.26 821.29 547.74 821.16
  Q 642.83 795.51 710.95 728.21
  C 795.27 644.89 834.82 524.88 813.24 407.05
  C 787.10 264.36 676.59 149.22 534.37 118.07
  C 494.56 109.35 465.80 83.61 453.42 44.75
  Q 453.22 44.12 453.02 44.76
  C 442.91 76.81 419.48 102.56 387.82 113.83
  Q 383.41 115.40 368.51 118.97
  C 267.14 143.25 181.02 208.85 131.54 300.05
  C 99.73 358.67 84.37 427.38 89.00 494.25
  C 93.72 562.50 116.89 628.75 157.68 683.55
  Q 234.61 786.93 361.13 821.87
  A 0.19 0.19 0.0 0 0 361.24 821.50
  Q 350.37 817.85 339.82 812.95
  C 180.46 739.06 129.98 541.23 232.79 399.84
  Z"
/>
<path fill="#003585" d="
  M 232.79 399.84
  C 129.98 541.23 180.46 739.06 339.82 812.95
  Q 350.37 817.85 361.24 821.50
  A 0.19 0.19 0.0 0 1 361.13 821.87
  Q 234.61 786.93 157.68 683.55
  C 116.89 628.75 93.72 562.50 89.00 494.25
  C 84.37 427.38 99.73 358.67 131.54 300.05
  C 181.02 208.85 267.14 143.25 368.51 118.97
  Q 383.41 115.40 387.82 113.83
  C 419.48 102.56 442.91 76.81 453.02 44.76
  Q 453.22 44.12 453.42 44.75
  C 465.80 83.61 494.56 109.35 534.37 118.07
  C 676.59 149.22 787.10 264.36 813.24 407.05
  C 834.82 524.88 795.27 644.89 710.95 728.21
  Q 642.83 795.51 547.74 821.16
  Q 547.26 821.29 547.72 821.12
  C 720.72 756.01 783.41 546.88 672.74 397.47
  A 0.39 0.38 -73.0 0 0 672.07 397.83
  C 702.78 487.23 677.61 585.29 607.20 647.97
  Q 560.87 689.21 498.31 702.12
  A 0.03 0.03 0.0 0 1 498.29 702.07
  C 596.35 669.85 631.20 550.69 566.80 470.81
  C 534.15 430.31 482.75 410.89 431.58 418.46
  C 364.03 428.46 310.94 486.60 307.75 554.96
  C 304.62 621.89 345.44 681.18 409.26 702.11
  Q 409.38 702.15 409.26 702.13
  C 271.73 673.60 189.93 535.45 234.15 400.53
  Q 235.67 395.88 232.79 399.84
  Z"
/>
</svg>
