<svg xmlns="http://www.w3.org/2000/svg" width="52" height="52" viewBox="0 0 52 52" fill="none">
	<path
		d="M25.8378 12.5309C29.4078 12.1109 30.5078 8.81088 29.2278 6.53088C28.7508 5.67404 27.9934 5.00751 27.0828 4.6433C26.1723 4.27908 25.1642 4.23939 24.2278 4.53088C23.3854 4.78122 22.6488 5.30205 22.132 6.01288C21.6151 6.72372 21.3468 7.58499 21.3684 8.46359C21.39 9.34219 21.7004 10.1892 22.2516 10.8738C22.8028 11.5583 23.5641 12.0423 24.4178 12.2509C24.8178 12.3709 25.2178 12.5209 25.6078 12.6509"
		stroke="#381805" stroke-width="2" stroke-linecap="round" stroke-linejoin="round" />
	<path
		d="M26.2422 28.5902C27.4016 27.3501 28.752 26.3035 30.2422 25.4902C31.4899 27.2012 32.3964 29.1364 32.9122 31.1902C34.0922 34.6302 35.7822 37.8402 36.9122 41.2802C37.4822 42.9602 38.1722 44.6102 38.9122 46.2302C39.4122 47.3602 38.4922 48.5202 39.0922 49.6102"
		stroke="#381805" stroke-width="2" stroke-linecap="round" stroke-linejoin="round" />
	<path
		d="M21.2769 24C21.6569 26 20.2769 27.45 19.6469 29.14C17.7769 34.54 15.7269 39.86 13.7469 45.22C13.4821 45.8539 13.3429 46.5331 13.3369 47.22C13.3966 48.0621 13.2089 48.9032 12.7969 49.64"
		stroke="#381805" stroke-width="2" stroke-linecap="round" stroke-linejoin="round" />
	<path
		d="M25.8391 17.0903C24.0991 17.8603 22.2691 17.4503 20.4891 17.4503C18.9991 17.4503 18.3891 17.9803 18.4891 19.4503C18.3963 20.8363 18.6221 22.2251 19.1491 23.5103H32.6191C33.2291 21.7903 32.8991 20.2103 32.9691 18.6603C33.0191 17.5503 32.2591 17.5103 31.3891 17.4403C29.6091 17.3203 27.7691 17.9103 26.0391 17.0703"
		stroke="#381805" stroke-width="2" stroke-linecap="round" stroke-linejoin="round" />
	<path
		d="M38.3322 15.1091C41.3322 12.5991 42.4122 9.48914 40.8722 5.79914C40.0922 3.91914 39.1522 1.99914 36.7422 1.61914"
		stroke="#F8D208" stroke-width="2" stroke-linecap="round" stroke-linejoin="round" />
	<path
		d="M13.7473 2C12.1468 2.92974 10.9181 4.38572 10.2708 6.11984C9.62346 7.85395 9.59749 9.75888 10.1973 11.51C10.7488 13.1698 11.863 14.5848 13.3473 15.51"
		stroke="#F8D208" stroke-width="2" stroke-linecap="round" stroke-linejoin="round" />
	<path d="M26.4375 39.0996C30.4375 42.2896 34.3275 45.7096 38.7275 48.4196" stroke="#381805" stroke-width="2"
		stroke-linecap="round" stroke-linejoin="round" />
	<path
		d="M25.4409 39.3008C22.2109 42.0008 19.0009 44.7408 15.7109 47.4108C15.0881 47.7785 14.4141 48.0515 13.7109 48.2208"
		stroke="#381805" stroke-width="2" stroke-linecap="round" stroke-linejoin="round" />
	<path d="M33.0781 4.69922C35.8781 7.69922 35.6981 9.18922 33.1781 12.3292" stroke="#F8D208" stroke-width="2"
		stroke-linecap="round" stroke-linejoin="round" />
	<path d="M18.5119 4.80078C15.5819 7.10078 15.3519 9.12078 17.7119 11.9308" stroke="#F8D208" stroke-width="2"
		stroke-linecap="round" stroke-linejoin="round" />
	<path d="M32.0875 33.5508C30.5275 35.6308 28.0875 36.7408 26.4375 38.7108" stroke="#381805" stroke-width="2"
		stroke-linecap="round" stroke-linejoin="round" />
	<path
		d="M33.0006 33.1491C32.7775 33.2859 32.5155 33.3454 32.2552 33.3182C31.9949 33.2911 31.7507 33.1789 31.5606 32.9991C29.6757 31.6183 27.8727 30.1291 26.1606 28.5391C24.0206 30.3191 21.6406 31.6291 19.8906 33.7591"
		stroke="#381805" stroke-width="2" stroke-linecap="round" stroke-linejoin="round" />
	<path d="M18.7031 33.3496C21.2531 34.6796 23.1731 36.8196 25.4431 38.5096" stroke="#381805" stroke-width="2"
		stroke-linecap="round" stroke-linejoin="round" />
	<path d="M21.4766 25.8203C23.1207 26.3198 24.5367 27.3818 25.4766 28.8203" stroke="#381805" stroke-width="2"
		stroke-linecap="round" stroke-linejoin="round" />
	<path d="M25.6406 12.7305V17.0905" stroke="#381805" stroke-width="2" stroke-linecap="round"
		stroke-linejoin="round" />
	<path d="M6.90625 49.5508H45.6463" stroke="#381805" stroke-width="3" stroke-linecap="round"
		stroke-linejoin="round" />
</svg>