<svg width="52" height="53" viewBox="0 0 52 53" fill="none" xmlns="http://www.w3.org/2000/svg">
	<path id="Vector"
		d="M25.8398 13.0299C29.4098 12.6099 30.5098 9.3099 29.2298 7.0299C28.7527 6.17306 27.9953 5.50653 27.0848 5.14232C26.1743 4.77811 25.1661 4.73841 24.2298 5.0299C23.3873 5.28024 22.6507 5.80107 22.1339 6.51191C21.6171 7.22274 21.3487 8.08401 21.3704 8.96261C21.392 9.84121 21.7024 10.6882 22.2535 11.3728C22.8047 12.0573 23.566 12.5413 24.4198 12.7499C24.8198 12.8699 25.2198 13.0199 25.6098 13.1499"
		stroke="#381805" stroke-width="2" stroke-linecap="round" stroke-linejoin="round" />
	<path id="Vector_2"
		d="M26.2402 29.09C27.3996 27.8499 28.75 26.8033 30.2402 25.99C31.488 27.7009 32.3945 29.6362 32.9102 31.69C34.0902 35.13 35.7802 38.34 36.9102 41.78C37.4802 43.46 38.1702 45.11 38.9102 46.73C39.4102 47.86 38.4902 49.02 39.0902 50.11"
		stroke="#381805" stroke-width="2" stroke-linecap="round" stroke-linejoin="round" />
	<path id="Vector_3"
		d="M21.2798 24.5C21.6598 26.5 20.2798 27.95 19.6498 29.64C17.7798 35.04 15.7298 40.36 13.7498 45.72C13.4851 46.3539 13.3458 47.0331 13.3398 47.72C13.3996 48.5621 13.2119 49.4032 12.7998 50.14"
		stroke="#381805" stroke-width="2" stroke-linecap="round" stroke-linejoin="round" />
	<path id="Vector_4"
		d="M25.84 17.5901C24.1 18.3601 22.27 17.9501 20.49 17.9501C19 17.9501 18.39 18.4801 18.49 19.9501C18.3973 21.336 18.6231 22.7248 19.15 24.0101H32.62C33.23 22.2901 32.9 20.7101 32.97 19.1601C33.02 18.0501 32.26 18.0101 31.39 17.9401C29.61 17.8201 27.77 18.4101 26.04 17.5701"
		stroke="#381805" stroke-width="2" stroke-linecap="round" stroke-linejoin="round" />
	<path id="Vector_5"
		d="M38.3302 15.6101C41.3302 13.1001 42.4102 9.99012 40.8702 6.30012C40.0902 4.42012 39.1502 2.50012 36.7402 2.12012"
		stroke="white" stroke-width="2" stroke-linecap="round" stroke-linejoin="round" />
	<path id="Vector_6"
		d="M13.7502 2.5C12.1497 3.42974 10.921 4.88572 10.2737 6.61984C9.62639 8.35395 9.60042 10.2589 10.2002 12.01C10.7517 13.6698 11.8659 15.0848 13.3502 16.01"
		stroke="white" stroke-width="2" stroke-linecap="round" stroke-linejoin="round" />
	<path id="Vector_7" d="M26.4404 39.6001C30.4404 42.7901 34.3304 46.2101 38.7304 48.9201" stroke="#381805"
		stroke-width="2" stroke-linecap="round" stroke-linejoin="round" />
	<path id="Vector_8" d="M25.44 39.8C22.21 42.5 19 45.24 15.71 47.91C15.0872 48.2778 14.4131 48.5508 13.71 48.7201"
		stroke="#381805" stroke-width="2" stroke-linecap="round" stroke-linejoin="round" />
	<path id="Vector_9" d="M33.0801 5.19995C35.8801 8.19995 35.7001 9.68995 33.1801 12.83" stroke="white"
		stroke-width="2" stroke-linecap="round" stroke-linejoin="round" />
	<path id="Vector_10" d="M18.51 5.30005C15.58 7.60005 15.35 9.62005 17.71 12.43" stroke="white" stroke-width="2"
		stroke-linecap="round" stroke-linejoin="round" />
	<path id="Vector_11" d="M32.0904 34.05C30.5304 36.13 28.0904 37.24 26.4404 39.21" stroke="#381805" stroke-width="2"
		stroke-linecap="round" stroke-linejoin="round" />
	<path id="Vector_12"
		d="M32.9996 33.65C32.7765 33.7869 32.5145 33.8463 32.2542 33.8192C31.9939 33.7921 31.7498 33.6799 31.5596 33.5C29.6748 32.1192 27.8717 30.6301 26.1596 29.04C24.0196 30.82 21.6396 32.13 19.8896 34.26"
		stroke="#381805" stroke-width="2" stroke-linecap="round" stroke-linejoin="round" />
	<path id="Vector_13" d="M18.7002 33.8501C21.2502 35.1801 23.1702 37.3201 25.4402 39.0101" stroke="#381805"
		stroke-width="2" stroke-linecap="round" stroke-linejoin="round" />
	<path id="Vector_14" d="M21.4805 26.3201C23.1246 26.8196 24.5406 27.8816 25.4805 29.3201" stroke="#381805"
		stroke-width="2" stroke-linecap="round" stroke-linejoin="round" />
	<path id="Vector_15" d="M25.6396 13.23V17.59" stroke="#381805" stroke-width="2" stroke-linecap="round"
		stroke-linejoin="round" />
	<path id="Vector_16" d="M6.91016 50.05H45.6502" stroke="#381805" stroke-width="3" stroke-linecap="round"
		stroke-linejoin="round" />
</svg>