<svg width="52" height="52" viewBox="0 0 52 52" fill="none" xmlns="http://www.w3.org/2000/svg">
	<path id="Vector"
		d="M11.8701 38C13.4401 41.39 15.3001 41.76 19.0201 39.35C20.3801 40.21 21.4501 41.72 23.5501 41.29C24.9101 41.01 25.3701 40.15 25.9501 39.21"
		stroke="#56A7BA" stroke-width="2" stroke-linecap="round" stroke-linejoin="round" />
	<path id="Vector_2"
		d="M21.9297 34.1499C22.3297 34.4199 22.7497 34.6599 23.1297 34.9599C25.2197 36.5899 26.4797 36.5899 28.5697 34.9599L29.5697 34.1499"
		stroke="#56A7BA" stroke-width="2" stroke-linecap="round" stroke-linejoin="round" />
	<path id="Vector_3"
		d="M39.6302 38.3799C37.7902 40.9299 35.8202 41.1599 32.7902 39.1799C28.9002 42.3799 27.8402 41.4499 25.9502 39.7899"
		stroke="#56A7BA" stroke-width="2" stroke-linecap="round" stroke-linejoin="round" />
	<path id="Vector_4"
		d="M35.6101 33.1499C35.5502 33.6546 35.3542 34.1335 35.0429 34.5352C34.7316 34.937 34.3168 35.2464 33.843 35.4304C33.3693 35.6143 32.8544 35.6659 32.3535 35.5795C31.8527 35.4931 31.3848 35.272 31.0001 34.9399C30.4903 34.5153 30.0155 34.0505 29.5801 33.5499"
		stroke="#56A7BA" stroke-width="2" stroke-linecap="round" stroke-linejoin="round" />
	<path id="Vector_5" d="M15.9004 34.0001C18.2604 36.5401 20.0204 36.4201 21.9004 33.6001" stroke="#56A7BA"
		stroke-width="2" stroke-linecap="round" stroke-linejoin="round" />
	<path id="Vector_6"
		d="M24.9998 13.7299C23.8598 14.2399 23.8098 15.6299 23.8998 16.7299L24.3398 21.6699C24.352 22.0592 24.4262 22.4441 24.5598 22.8099C24.6314 22.993 24.7446 23.1569 24.8903 23.2888C25.0361 23.4207 25.2105 23.5169 25.3998 23.5699C25.6387 23.5953 25.88 23.5513 26.0946 23.4431C26.3092 23.3349 26.4881 23.1672 26.6098 22.9599C26.8401 22.5201 26.9732 22.0358 26.9998 21.5399C27.2264 19.8331 27.3234 18.1115 27.2898 16.3899C27.2898 14.4599 27.2898 13.5999 25.1698 13.6999"
		stroke="#381805" stroke-width="2" stroke-linecap="round" stroke-linejoin="round" />
	<path id="Vector_7"
		d="M25.1496 4.58008C21.8796 5.93008 20.9996 9.24008 19.3596 11.8501C13.8796 20.6301 8.58957 29.5301 3.22957 38.3801C2.89957 38.9201 2.50957 39.3801 2.22957 39.9901C0.549574 43.2901 2.44957 46.2201 6.22957 46.2201C12.5296 46.2201 18.8396 46.2701 25.1396 46.2201C32.1396 46.1501 39.2196 45.9901 46.2596 45.8201C46.906 45.7768 47.5332 45.5824 48.0908 45.2525C48.6484 44.9226 49.1208 44.4665 49.47 43.9208C49.8192 43.3752 50.0354 42.7551 50.1014 42.1106C50.1673 41.4661 50.0811 40.8152 49.8496 40.2101C49.1508 38.8206 48.352 37.4838 47.4596 36.2101C41.5662 27.0101 35.6662 17.8234 29.7596 8.65008C28.6496 6.92008 27.5796 5.11008 25.3396 4.65008"
		stroke="#381805" stroke-width="2" stroke-linecap="round" stroke-linejoin="round" />
	<path id="Vector_8"
		d="M25.7502 29.4101C26.6062 29.4101 27.3002 28.7161 27.3002 27.8601C27.3002 27.004 26.6062 26.3101 25.7502 26.3101C24.8942 26.3101 24.2002 27.004 24.2002 27.8601C24.2002 28.7161 24.8942 29.4101 25.7502 29.4101Z"
		stroke="#381805" stroke-width="2" stroke-linecap="round" stroke-linejoin="round" />
</svg>