<svg xmlns="http://www.w3.org/2000/svg" width="52" height="52" viewBox="0 0 52 52" fill="none">
	<path
		d="M11.8672 38C13.4372 41.39 15.2972 41.76 19.0172 39.35C20.3772 40.21 21.4472 41.72 23.5472 41.29C24.9072 41.01 25.3672 40.15 25.9472 39.21"
		stroke="white" stroke-width="2" stroke-linecap="round" stroke-linejoin="round" />
	<path
		d="M21.9297 34.1504C22.3297 34.4204 22.7497 34.6604 23.1297 34.9604C25.2197 36.5904 26.4797 36.5904 28.5697 34.9604L29.5697 34.1504"
		stroke="white" stroke-width="2" stroke-linecap="round" stroke-linejoin="round" />
	<path
		d="M39.6331 38.3809C37.7931 40.9309 35.8231 41.1609 32.7931 39.1809C28.9031 42.3809 27.8431 41.4509 25.9531 39.7909"
		stroke="white" stroke-width="2" stroke-linecap="round" stroke-linejoin="round" />
	<path
		d="M35.6081 33.1504C35.5483 33.6551 35.3522 34.134 35.0409 34.5357C34.7296 34.9375 34.3149 35.2469 33.8411 35.4309C33.3673 35.6148 32.8524 35.6664 32.3516 35.58C31.8507 35.4935 31.3829 35.2725 30.9981 34.9404C30.4884 34.5158 30.0135 34.051 29.5781 33.5504"
		stroke="white" stroke-width="2" stroke-linecap="round" stroke-linejoin="round" />
	<path d="M15.8984 33.9996C18.2584 36.5396 20.0184 36.4196 21.8984 33.5996" stroke="white" stroke-width="2"
		stroke-linecap="round" stroke-linejoin="round" />
	<path
		d="M24.9968 13.7292C23.8568 14.2392 23.8068 15.6292 23.8968 16.7292L24.3368 21.6692C24.349 22.0585 24.4233 22.4433 24.5568 22.8092C24.6285 22.9922 24.7416 23.1562 24.8874 23.288C25.0332 23.4199 25.2075 23.5162 25.3968 23.5692C25.6358 23.5946 25.8771 23.5506 26.0917 23.4424C26.3063 23.3342 26.4851 23.1664 26.6068 22.9592C26.8372 22.5193 26.9702 22.035 26.9968 21.5392C27.2235 19.8323 27.3204 18.1107 27.2868 16.3892C27.2868 14.4592 27.2868 13.5992 25.1668 13.6992"
		stroke="#381805" stroke-width="2" stroke-linecap="round" stroke-linejoin="round" />
	<path
		d="M25.1525 4.58008C21.8825 5.93008 21.0025 9.24008 19.3625 11.8501C13.8825 20.6301 8.5925 29.5301 3.2325 38.3801C2.9025 38.9201 2.5125 39.3801 2.2325 39.9901C0.552503 43.2901 2.4525 46.2201 6.2325 46.2201C12.5325 46.2201 18.8425 46.2701 25.1425 46.2201C32.1425 46.1501 39.2225 45.9901 46.2625 45.8201C46.9089 45.7768 47.5361 45.5824 48.0937 45.2525C48.6513 44.9226 49.1237 44.4665 49.4729 43.9208C49.8221 43.3752 50.0384 42.7551 50.1043 42.1106C50.1702 41.4661 50.084 40.8152 49.8525 40.2101C49.1537 38.8206 48.355 37.4838 47.4625 36.2101C41.5692 27.0101 35.6692 17.8234 29.7625 8.65008C28.6525 6.92008 27.5825 5.11008 25.3425 4.65008"
		stroke="#381805" stroke-width="2" stroke-linecap="round" stroke-linejoin="round" />
	<path
		d="M25.7531 29.4105C26.6092 29.4105 27.3031 28.7166 27.3031 27.8605C27.3031 27.0045 26.6092 26.3105 25.7531 26.3105C24.8971 26.3105 24.2031 27.0045 24.2031 27.8605C24.2031 28.7166 24.8971 29.4105 25.7531 29.4105Z"
		stroke="#381805" stroke-width="2" stroke-linecap="round" stroke-linejoin="round" />
</svg>