<svg width="52" height="52" viewBox="0 0 52 52" fill="none" xmlns="http://www.w3.org/2000/svg">
	<path id="Vector" d="M31.3203 6.62988H7.78027V45.3799H31.3203V6.62988Z" stroke="#381805" stroke-width="2"
		stroke-linecap="round" stroke-linejoin="round" />
	<path id="Vector_2" d="M44.2303 27.5701H31.3203V45.3801H44.2303V27.5701Z" stroke="#381805" stroke-width="2"
		stroke-linecap="round" stroke-linejoin="round" />
	<path id="Vector_3" d="M17.3002 13.3101H12.4902V18.1201H17.3002V13.3101Z" stroke="#F8D208" stroke-width="2"
		stroke-linecap="round" stroke-linejoin="round" />
	<path id="Vector_4" d="M17.3002 21.95H12.4902V26.76H17.3002V21.95Z" stroke="#F8D208" stroke-width="2"
		stroke-linecap="round" stroke-linejoin="round" />
	<path id="Vector_5" d="M26.6098 13.3101H21.7998V18.1201H26.6098V13.3101Z" stroke="#F8D208" stroke-width="2"
		stroke-linecap="round" stroke-linejoin="round" />
	<path id="Vector_6" d="M26.6098 21.95H21.7998V26.76H26.6098V21.95Z" stroke="#F8D208" stroke-width="2"
		stroke-linecap="round" stroke-linejoin="round" />
	<path id="Vector_7"
		d="M19.7498 35C20.5879 35 21.3917 35.3329 21.9843 35.9255C22.5769 36.5182 22.9098 37.3219 22.9098 38.16V45.39H16.5898V38.14C16.5951 37.3054 16.9304 36.5068 17.5224 35.9185C18.1145 35.3302 18.9152 35 19.7498 35Z"
		stroke="#381805" stroke-width="2" stroke-linecap="round" stroke-linejoin="round" />
</svg>