<svg xmlns="http://www.w3.org/2000/svg" width="52" height="52" viewBox="0 0 52 52" fill="none">
	<path d="M31.3212 6.63086H7.78125V45.3809H31.3212V6.63086Z" stroke="#381805" stroke-width="2" stroke-linecap="round"
		stroke-linejoin="round" />
	<path d="M44.2303 27.5703H31.3203V45.3803H44.2303V27.5703Z" stroke="#381805" stroke-width="2" stroke-linecap="round"
		stroke-linejoin="round" />
	<path d="M17.3022 13.3105H12.4922V18.1205H17.3022V13.3105Z" stroke="white" stroke-width="2" stroke-linecap="round"
		stroke-linejoin="round" />
	<path d="M17.3022 21.9492H12.4922V26.7592H17.3022V21.9492Z" stroke="white" stroke-width="2" stroke-linecap="round"
		stroke-linejoin="round" />
	<path d="M26.6069 13.3105H21.7969V18.1205H26.6069V13.3105Z" stroke="white" stroke-width="2" stroke-linecap="round"
		stroke-linejoin="round" />
	<path d="M26.6069 21.9492H21.7969V26.7592H26.6069V21.9492Z" stroke="white" stroke-width="2" stroke-linecap="round"
		stroke-linejoin="round" />
	<path
		d="M19.7537 35C20.5918 35 21.3956 35.3329 21.9882 35.9255C22.5808 36.5182 22.9137 37.3219 22.9137 38.16V45.39H16.5938V38.14C16.599 37.3054 16.9343 36.5068 17.5263 35.9185C18.1184 35.3302 18.9191 35 19.7537 35Z"
		stroke="#381805" stroke-width="2" stroke-linecap="round" stroke-linejoin="round" />
</svg>