<svg width="52" height="52" viewBox="0 0 52 52" fill="none" xmlns="http://www.w3.org/2000/svg">
	<path id="Vector"
		d="M23.6202 32.1101C23.6202 30.3401 24.5402 28.4701 22.8102 26.8901C22.2746 26.3508 21.5779 26.0006 20.8256 25.8924C20.0733 25.7841 19.3062 25.9237 18.6402 26.2901C17.8789 26.6955 17.2787 27.3486 16.9387 28.1413C16.5987 28.934 16.5393 29.819 16.7702 30.6501C17.1602 32.3301 18.1502 33.1201 20.0902 33.1201C20.9988 33.0588 21.9014 32.9284 22.7902 32.7301"
		stroke="#381805" stroke-width="2" stroke-linecap="round" stroke-linejoin="round" />
	<path id="Vector_2"
		d="M17.6395 32.8301C14.8895 33.8301 13.8295 35.4501 13.7295 38.6901C13.6795 40.4301 13.5895 42.1701 13.5195 43.9101"
		stroke="#381805" stroke-width="2" stroke-linecap="round" stroke-linejoin="round" />
	<path id="Vector_3"
		d="M36.3203 32.6101C39.3203 33.1701 39.8203 35.8301 40.2003 39.1301C40.2689 40.5845 40.4225 42.0336 40.6603 43.4701"
		stroke="#381805" stroke-width="2" stroke-linecap="round" stroke-linejoin="round" />
	<path id="Vector_4"
		d="M24.7002 37.3799C25.0362 37.6689 25.4381 37.8711 25.8704 37.9688C26.3028 38.0664 26.7525 38.0565 27.1802 37.9399C29.3502 37.4499 30.0002 38.6299 30.6802 40.0799C31.6302 42.1299 31.3702 44.3699 31.7602 46.5099"
		stroke="#381805" stroke-width="2" stroke-linecap="round" stroke-linejoin="round" />
	<path id="Vector_5"
		d="M24.5902 37.6101C22.6602 39.5501 22.7502 42.1201 22.4202 44.6101C22.3402 45.2601 22.2802 45.9101 22.2002 46.5601"
		stroke="#381805" stroke-width="2" stroke-linecap="round" stroke-linejoin="round" />
	<path id="Vector_6"
		d="M33.2802 25.8799C35.7802 26.0899 36.9702 27.2799 36.9702 29.5699C37.016 30.0471 36.9594 30.5286 36.8043 30.9823C36.6492 31.4359 36.399 31.8512 36.0706 32.2005C35.7421 32.5498 35.343 32.8249 34.8997 33.0076C34.4564 33.1903 33.9793 33.2763 33.5002 33.2599C30.4502 33.3699 29.6002 32.7399 29.3702 30.2599C29.1402 27.7799 30.3102 26.3199 32.8502 25.9199"
		stroke="#381805" stroke-width="2" stroke-linecap="round" stroke-linejoin="round" />
	<path id="Vector_7"
		d="M26.8203 31C29.0603 31.19 30.1303 32.26 30.1303 34.31C30.1818 34.7435 30.1381 35.183 30.0021 35.5979C29.8662 36.0127 29.6414 36.3929 29.3433 36.7119C29.0453 37.0309 28.6812 37.281 28.2766 37.4448C27.8719 37.6085 27.4363 37.682 27.0003 37.66C24.2803 37.76 23.5103 37.19 23.3103 34.94C23.1103 32.69 24.1503 31.4 26.4203 31.04"
		stroke="#381805" stroke-width="2" stroke-linecap="round" stroke-linejoin="round" />
	<path id="Vector_8"
		d="M45.5802 22.6H49.4502C49.5793 22.6004 49.7054 22.5611 49.8115 22.4875C49.9175 22.4138 49.9984 22.3094 50.0431 22.1883C50.0879 22.0671 50.0943 21.9352 50.0616 21.8103C50.0289 21.6854 49.9586 21.5736 49.8602 21.49L27.3402 2.20997C27.0057 1.92008 26.5779 1.7605 26.1352 1.7605C25.6925 1.7605 25.2647 1.92008 24.9302 2.20997L2.4202 21.49C2.32183 21.5736 2.25153 21.6854 2.21881 21.8103C2.18609 21.9352 2.19253 22.0671 2.23727 22.1883C2.282 22.3094 2.36287 22.4138 2.46892 22.4875C2.57497 22.5611 2.70109 22.6004 2.8302 22.6H7.5002"
		stroke="#381805" stroke-width="2" stroke-linecap="round" stroke-linejoin="round" />
	<path id="Vector_9"
		d="M45.8304 39.81C45.7563 40.1184 45.6126 40.4057 45.4104 40.65C44.2441 42.1373 42.6753 43.2583 40.8904 43.88C38.7804 44.58 36.6104 45.07 34.4604 45.64C31.5247 46.2786 28.8938 47.8974 27.0004 50.23C23.9304 46.59 19.6404 46.11 15.6104 44.98C12.9704 44.23 10.1104 43.86 8.30044 41.32C7.95044 40.82 7.58044 40.45 7.66044 39.78"
		stroke="#F8D208" stroke-width="2" stroke-linecap="round" stroke-linejoin="round" />
	<path id="Vector_10" d="M7.55957 23.24V39.57" stroke="#F8D208" stroke-width="2" stroke-linecap="round"
		stroke-linejoin="round" />
	<path id="Vector_11" d="M45.8701 23.24V39.57" stroke="#F8D208" stroke-width="2" stroke-linecap="round"
		stroke-linejoin="round" />
	<path id="Vector_12"
		d="M7.55957 23.2601C8.21408 21.8165 9.19079 20.5422 10.4147 19.535C11.6385 18.5278 13.077 17.8146 14.6196 17.4501C20.1796 15.8701 25.4096 19.8501 26.6196 23.8401"
		stroke="#F8D208" stroke-width="2" stroke-linecap="round" stroke-linejoin="round" />
	<path id="Vector_13"
		d="M45.7504 23.2601C45.0978 21.8152 44.1217 20.5398 42.8975 19.5324C41.6733 18.5249 40.2339 17.8125 38.6904 17.4501C33.1304 15.8701 27.9004 19.8501 26.6904 23.8401"
		stroke="#F8D208" stroke-width="2" stroke-linecap="round" stroke-linejoin="round" />
</svg>