<svg xmlns="http://www.w3.org/2000/svg" width="52" height="52" viewBox="0 0 52 52" fill="none">
	<path
		d="M23.6212 32.1108C23.6212 30.3408 24.5412 28.4708 22.8112 26.8908C22.2756 26.3516 21.5789 26.0014 20.8266 25.8931C20.0743 25.7849 19.3072 25.9245 18.6412 26.2908C17.8799 26.6963 17.2797 27.3493 16.9397 28.142C16.5997 28.9347 16.5402 29.8197 16.7712 30.6508C17.1612 32.3308 18.1512 33.1208 20.0912 33.1208C20.9998 33.0595 21.9024 32.9292 22.7912 32.7308"
		stroke="#381805" stroke-width="2" stroke-linecap="round" stroke-linejoin="round" />
	<path
		d="M17.6434 32.8301C14.8934 33.8301 13.8334 35.4501 13.7334 38.6901C13.6834 40.4301 13.5934 42.1701 13.5234 43.9101"
		stroke="#381805" stroke-width="2" stroke-linecap="round" stroke-linejoin="round" />
	<path
		d="M36.3203 32.6094C39.3203 33.1694 39.8203 35.8294 40.2003 39.1294C40.2689 40.5838 40.4225 42.0329 40.6603 43.4694"
		stroke="#381805" stroke-width="2" stroke-linecap="round" stroke-linejoin="round" />
	<path
		d="M24.7031 37.3809C25.0392 37.6699 25.441 37.8721 25.8734 37.9697C26.3058 38.0674 26.7555 38.0575 27.1831 37.9409C29.3531 37.4509 30.0031 38.6309 30.6831 40.0809C31.6331 42.1309 31.3731 44.3709 31.7631 46.5109"
		stroke="#381805" stroke-width="2" stroke-linecap="round" stroke-linejoin="round" />
	<path
		d="M24.5931 37.6094C22.6631 39.5494 22.7531 42.1194 22.4231 44.6094C22.3431 45.2594 22.2831 45.9094 22.2031 46.5594"
		stroke="#381805" stroke-width="2" stroke-linecap="round" stroke-linejoin="round" />
	<path
		d="M33.2821 25.8809C35.7821 26.0909 36.9721 27.2809 36.9721 29.5709C37.0179 30.0481 36.9614 30.5296 36.8062 30.9833C36.6511 31.4369 36.401 31.8522 36.0725 32.2015C35.7441 32.5507 35.3449 32.8259 34.9017 33.0086C34.4584 33.1913 33.9813 33.2773 33.5021 33.2609C30.4521 33.3709 29.6021 32.7409 29.3721 30.2609C29.1421 27.7809 30.3121 26.3209 32.8521 25.9209"
		stroke="#381805" stroke-width="2" stroke-linecap="round" stroke-linejoin="round" />
	<path
		d="M26.8233 31C29.0633 31.19 30.1333 32.26 30.1333 34.31C30.1847 34.7435 30.141 35.183 30.0051 35.5979C29.8691 36.0127 29.6443 36.3929 29.3463 36.7119C29.0482 37.0309 28.6842 37.281 28.2795 37.4448C27.8748 37.6085 27.4393 37.682 27.0033 37.66C24.2833 37.76 23.5133 37.19 23.3133 34.94C23.1133 32.69 24.1533 31.4 26.4233 31.04"
		stroke="#381805" stroke-width="2" stroke-linecap="round" stroke-linejoin="round" />
	<path
		d="M45.5773 22.5992H49.4473C49.5764 22.5996 49.7025 22.5604 49.8086 22.4867C49.9146 22.4131 49.9955 22.3086 50.0402 22.1875C50.0849 22.0664 50.0914 21.9345 50.0587 21.8096C50.0259 21.6847 49.9556 21.5729 49.8573 21.4892L27.3373 2.20924C27.0027 1.91934 26.5749 1.75977 26.1323 1.75977C25.6896 1.75977 25.2618 1.91934 24.9273 2.20924L2.41727 21.4892C2.3189 21.5729 2.2486 21.6847 2.21588 21.8096C2.18316 21.9345 2.1896 22.0664 2.23434 22.1875C2.27907 22.3086 2.35994 22.4131 2.46599 22.4867C2.57205 22.5604 2.69816 22.5996 2.82727 22.5992H7.49727"
		stroke="#381805" stroke-width="2" stroke-linecap="round" stroke-linejoin="round" />
	<path
		d="M45.8295 39.8093C45.7553 40.1177 45.6117 40.405 45.4095 40.6493C44.2431 42.1365 42.6743 43.2576 40.8895 43.8793C38.7795 44.5793 36.6095 45.0693 34.4595 45.6393C31.5238 46.2779 28.8928 47.8966 26.9995 50.2293C23.9295 46.5893 19.6395 46.1093 15.6095 44.9793C12.9695 44.2293 10.1095 43.8593 8.29946 41.3193C7.94946 40.8193 7.57946 40.4493 7.65946 39.7793"
		stroke="white" stroke-width="2" stroke-linecap="round" stroke-linejoin="round" />
	<path d="M7.5625 23.2402V39.5702" stroke="white" stroke-width="2" stroke-linecap="round" stroke-linejoin="round" />
	<path d="M45.8672 23.2402V39.5702" stroke="white" stroke-width="2" stroke-linecap="round" stroke-linejoin="round" />
	<path
		d="M7.5625 23.2603C8.21701 21.8168 9.19372 20.5424 10.4176 19.5352C11.6415 18.5281 13.08 17.8148 14.6225 17.4504C20.1825 15.8704 25.4125 19.8503 26.6225 23.8403"
		stroke="white" stroke-width="2" stroke-linecap="round" stroke-linejoin="round" />
	<path
		d="M45.7475 23.2603C45.0949 21.8155 44.1188 20.54 42.8946 19.5326C41.6704 18.5252 40.2309 17.8127 38.6875 17.4504C33.1275 15.8704 27.8975 19.8503 26.6875 23.8403"
		stroke="white" stroke-width="2" stroke-linecap="round" stroke-linejoin="round" />
</svg>