<svg width="52" height="52" viewBox="0 0 52 52" fill="none" xmlns="http://www.w3.org/2000/svg">
	<path id="Vector" d="M10.9297 23.3601H41.0697" stroke="#381805" stroke-width="2" stroke-linecap="round"
		stroke-linejoin="round" />
	<path id="Vector_2"
		d="M11.2197 23.3599C9.9997 23.3799 8.5097 23.7499 7.9997 24.9999C5.9997 29.9999 3.8197 34.8499 1.7497 39.7899C0.749703 42.0799 1.2297 42.7899 3.6897 42.5799C14.0297 41.6799 24.3997 42.4899 34.7397 42.1399C39.4497 41.9799 44.1497 41.6599 48.8597 41.7599C49.1504 41.7895 49.4438 41.7422 49.7105 41.6229C49.9772 41.5036 50.208 41.3163 50.3797 41.0799C50.2903 40.5637 50.1392 40.0601 49.9297 39.5799C47.1697 34.9999 45.8597 29.9999 43.3397 25.2899C42.0797 22.9099 41.4897 23.4299 39.9497 23.3599"
		stroke="#381805" stroke-width="2" stroke-linecap="round" stroke-linejoin="round" />
	<path id="Vector_3" d="M21.3896 35.7L27.9296 41.61" stroke="#381805" stroke-width="2" stroke-linecap="round"
		stroke-linejoin="round" />
	<path id="Vector_4" d="M30.5303 35.7L36.8903 41.63" stroke="#381805" stroke-width="2" stroke-linecap="round"
		stroke-linejoin="round" />
	<path id="Vector_5" d="M6.09961 30.5801H45.3496" stroke="#381805" stroke-width="2" stroke-linecap="round"
		stroke-linejoin="round" />
	<path id="Vector_6" d="M30.5703 35.7H47.2703" stroke="#381805" stroke-width="2" stroke-linecap="round"
		stroke-linejoin="round" />
	<path id="Vector_7" d="M3.49023 35.7H21.3902" stroke="#381805" stroke-width="2" stroke-linecap="round"
		stroke-linejoin="round" />
	<path id="Vector_8"
		d="M36.2201 16.74C36.2201 23.16 30.6401 33.22 26.4001 33.22C22.5801 33.22 16.5801 22.67 16.5801 16.74C16.5801 11.85 19.1601 6 26.4001 6C33.2101 6 36.2201 11.85 36.2201 16.74Z"
		fill="white" stroke="#F8D208" stroke-width="2" stroke-linecap="round" stroke-linejoin="round" />
	<path id="Vector_9"
		d="M26.3998 19.8799C28.6642 19.8799 30.4998 18.0443 30.4998 15.7799C30.4998 13.5156 28.6642 11.6799 26.3998 11.6799C24.1354 11.6799 22.2998 13.5156 22.2998 15.7799C22.2998 18.0443 24.1354 19.8799 26.3998 19.8799Z"
		fill="white" stroke="#F8D208" stroke-width="2" stroke-linecap="round" stroke-linejoin="round" />
</svg>