<svg xmlns="http://www.w3.org/2000/svg" width="52" height="52" viewBox="0 0 52 52" fill="none">
	<path
		d="M33.5509 0.0488281C34.4937 1.20159 35.7109 2.09906 37.0909 2.65883C38.0332 3.03658 38.8852 3.60907 39.5909 4.33883C39.8428 4.65876 40.0765 4.99262 40.2909 5.33883C39.745 5.72718 39.2812 6.21948 38.926 6.78748C38.5707 7.35549 38.3311 7.98803 38.2209 8.64883C38.0809 9.43883 38.0609 10.2388 37.9609 11.0288C37.8478 12.4172 37.6642 13.799 37.4109 15.1688C37.2684 15.8797 36.9208 16.5333 36.4109 17.0488C35.1918 18.2875 34.4603 19.9243 34.3509 21.6588C34.0855 24.3738 33.5427 27.0545 32.7309 29.6588C31.4509 33.4688 29.7809 37.1488 26.8709 39.8888C25.912 40.8164 25.1673 41.9422 24.6888 43.1876C24.2104 44.433 24.0097 45.7678 24.1009 47.0988C24.1009 47.8688 24.1709 48.6388 24.1009 49.3988C24.1125 49.6299 24.0753 49.8609 23.9919 50.0767C23.9084 50.2925 23.7804 50.4883 23.6163 50.6515C23.4523 50.8146 23.2557 50.9414 23.0394 51.0237C22.8231 51.1059 22.5919 51.1417 22.3609 51.1288C21.4109 51.1288 21.0009 50.7688 20.9109 49.8088C20.8576 48.9005 20.7541 47.9958 20.6009 47.0988C20.4807 46.4268 20.1997 45.7938 19.7817 45.254C19.3638 44.7142 18.8214 44.2835 18.2009 43.9988C17.0265 43.5156 16.0332 42.6762 15.3609 41.5988C14.4409 39.9288 13.3609 38.3088 12.6209 36.5988C11.4109 33.8988 11.6209 31.0488 12.1309 28.1988C12.8968 24.5588 14.4011 21.1144 16.5509 18.0788C19.1409 14.3388 21.7909 10.6488 24.6109 7.07883C24.8306 6.80943 25.0217 6.51786 25.1809 6.20883C25.5337 5.54548 26.0167 4.96007 26.6009 4.48757C27.185 4.01507 27.8585 3.66519 28.5809 3.45883C29.3209 3.20883 30.0509 2.93883 30.7709 2.63883C31.9911 2.15707 32.9841 1.23192 33.5509 0.0488281Z"
		fill="white" stroke="#381805" stroke-width="2.11" stroke-linecap="round" stroke-linejoin="round" />
	<path
		d="M26.0022 14.4198C26.0022 19.5698 21.5222 27.6398 18.1222 27.6398C15.0522 27.6398 10.2422 19.1798 10.2422 14.4198C10.2422 10.4898 12.3122 5.75977 18.1222 5.75977C23.5822 5.75977 26.0022 10.4898 26.0022 14.4198Z"
		fill="#F8D208" stroke="white" stroke-width="1.6" stroke-linecap="round" stroke-linejoin="round" />
	<path
		d="M18.1181 16.9394C19.9351 16.9394 21.4081 15.4664 21.4081 13.6494C21.4081 11.8324 19.9351 10.3594 18.1181 10.3594C16.3011 10.3594 14.8281 11.8324 14.8281 13.6494C14.8281 15.4664 16.3011 16.9394 18.1181 16.9394Z"
		fill="#F8D208" stroke="white" stroke-width="1.6" stroke-linecap="round" stroke-linejoin="round" />
</svg>