<svg width="60" height="60" viewBox="0 0 60 60" fill="none" xmlns="http://www.w3.org/2000/svg">
<circle cx="30" cy="30" r="30" fill="#F3C10E"/>
<path d="M45.8171 26.644L32.3744 13.2016C32.2723 13.0982 32.1646 13.0002 32.0519 12.9082C32.045 12.9025 32.0379 12.8973 32.0309 12.8917C31.9869 12.8563 31.9423 12.8214 31.8968 12.7878C31.8809 12.7761 31.8647 12.7651 31.8487 12.7536C31.8114 12.7269 31.7741 12.7004 31.736 12.675C31.7157 12.6616 31.6951 12.6488 31.6746 12.6357C31.6397 12.6134 31.6048 12.5911 31.5692 12.5698C31.5473 12.5568 31.5251 12.5445 31.5031 12.5319C31.4678 12.5117 31.4324 12.4916 31.3963 12.4724C31.3749 12.4609 31.3533 12.4502 31.3317 12.4393C31.294 12.4201 31.2562 12.4011 31.2179 12.383C31.1984 12.3739 31.1788 12.3653 31.1593 12.3566C31.118 12.338 31.0766 12.3196 31.0346 12.3024C31.018 12.2956 31.0012 12.2893 30.9845 12.2827C30.9393 12.2648 30.8938 12.2474 30.8478 12.2311C30.8342 12.2263 30.8205 12.2218 30.8068 12.2172C30.7578 12.2004 30.7085 12.1843 30.6587 12.1694C30.6477 12.1661 30.6365 12.1632 30.6255 12.16C30.5734 12.1449 30.521 12.1305 30.4681 12.1175C30.4587 12.1152 30.4492 12.1132 30.4398 12.1109C30.3858 12.0981 30.3316 12.086 30.2769 12.0753C30.2674 12.0735 30.2578 12.072 30.2483 12.0702C30.1941 12.0601 30.1397 12.0506 30.0847 12.0426C30.0733 12.0409 30.0618 12.0398 30.0504 12.0382C29.9975 12.031 29.9446 12.0243 29.8912 12.0191C29.8759 12.0176 29.8605 12.017 29.8453 12.0157C29.7955 12.0114 29.7458 12.0073 29.6955 12.0049C29.6747 12.0039 29.6539 12.004 29.633 12.0033C29.5888 12.0019 29.5448 12 29.5003 12C29.4627 12 29.4255 12.0018 29.3881 12.0029C29.3599 12.0036 29.3316 12.0036 29.3035 12.005C29.2605 12.007 29.2181 12.0108 29.1756 12.0142C29.1525 12.016 29.1294 12.0172 29.1064 12.0194C29.0608 12.0238 29.0158 12.0297 28.9707 12.0357C28.9509 12.0383 28.931 12.0403 28.9112 12.0433C28.8649 12.05 28.819 12.0582 28.7732 12.0666C28.7546 12.0699 28.736 12.0729 28.7175 12.0766C28.6721 12.0854 28.6271 12.0957 28.5822 12.1062C28.563 12.1106 28.5438 12.1147 28.5246 12.1195C28.4818 12.1301 28.4395 12.1419 28.3973 12.1539C28.3757 12.16 28.354 12.1658 28.3325 12.1723C28.2937 12.184 28.2553 12.1967 28.2171 12.2095C28.192 12.2179 28.167 12.226 28.1421 12.2349C28.108 12.2471 28.0744 12.2601 28.0408 12.2732C28.0119 12.2843 27.9831 12.2953 27.9545 12.3072C27.9253 12.3193 27.8966 12.3322 27.8677 12.3449C27.8353 12.3592 27.8028 12.3735 27.7707 12.3888C27.7461 12.4004 27.722 12.4127 27.6977 12.4248C27.6623 12.4424 27.627 12.4601 27.592 12.4789C27.571 12.4901 27.5503 12.502 27.5295 12.5137C27.4927 12.5344 27.4559 12.5551 27.4195 12.577C27.4003 12.5884 27.3817 12.6006 27.3628 12.6124C27.3261 12.6353 27.2895 12.6583 27.2533 12.6826C27.234 12.6955 27.2153 12.7091 27.1963 12.7223C27.1618 12.7463 27.1272 12.7703 27.0933 12.7955C27.071 12.812 27.0495 12.8295 27.0276 12.8464C26.998 12.8694 26.9683 12.892 26.9392 12.9158C26.9081 12.9414 26.8779 12.968 26.8476 12.9946C26.8286 13.0112 26.8092 13.0271 26.7904 13.0441C26.7392 13.0905 26.6892 13.138 26.6405 13.1869L13.1829 26.6441C11.6057 28.2219 11.6057 30.7782 13.1829 32.3553C14.76 33.9331 17.3172 33.9331 18.8943 32.3553L25.4612 25.7891V42.961C25.4612 45.1919 27.2694 47 29.5003 47C31.7313 47 33.5395 45.1919 33.5395 42.961V25.7893L40.1063 32.3559C40.8946 33.1441 41.9278 33.5382 42.9617 33.5382C43.9957 33.5382 45.0296 33.1441 45.8171 32.3552C47.3943 30.7781 47.3943 28.2211 45.8171 26.644Z" fill="white"/>
</svg>
