<?xml version="1.0" encoding="utf-8"?>
<!-- Generator: Adobe Illustrator 26.0.2, SVG Export Plug-In . SVG Version: 6.00 Build 0)  -->
<svg version="1.1" id="圖層_1" xmlns="http://www.w3.org/2000/svg" xmlns:xlink="http://www.w3.org/1999/xlink" x="0px" y="0px"
	 viewBox="0 0 435 200" style="enable-background:new 0 0 435 200;" xml:space="preserve">
<style type="text/css">
	.st0{fill:none;stroke:#FFD75F;}
	.st1{fill:none;stroke:#FFD75F;stroke-width:1;stroke-miterlimit:4;}
	.st2{fill:url(#SVGID_1_);}
	.st3{fill:#381805;}
</style>
<line class="st0" x1="349" y1="101.5" x2="436" y2="101.5"/>
<line class="st0" x1="0" y1="101.5" x2="87" y2="101.5"/>
<line class="st0" x1="98.4" y1="0.7" x2="166.4" y2="71.7"/>
<line class="st1" x1="98.4" y1="199.3" x2="166.4" y2="128.3"/>
<line class="st1" x1="330.6" y1="0.7" x2="262.6" y2="71.7"/>
<line class="st0" x1="330.6" y1="199.3" x2="262.6" y2="128.3"/>
<linearGradient id="SVGID_1_" gradientUnits="userSpaceOnUse" x1="218" y1="158.89" x2="218" y2="38.89" gradientTransform="matrix(1 0 0 -1 0 199.89)">
	<stop  offset="0" style="stop-color:#FFDF6C"/>
	<stop  offset="1" style="stop-color:#FFBE17"/>
</linearGradient>
<path class="st2" d="M147,41h142c33.1,0,60,26.9,60,60l0,0c0,33.1-26.9,60-60,60H147c-33.1,0-60-26.9-60-60l0,0
	C87,67.9,113.9,41,147,41z"/>
<path class="st3" d="M138.3,85.6h7.3l11.7,29.4h-7.6l-2.4-6h-10.8l-2.4,6h-7.6L138.3,85.6z M145.5,103.2l-3.6-9.9l-3.6,9.9H145.5z
	 M164.9,85.6h7.4l10.8,17.5V85.6h7.4V115h-7.3l-10.8-17.5V115h-7.4V85.6z M214.1,115.6c-3.2,0-6-0.6-8.4-1.8c-2.4-1.2-4.3-3-5.6-5.3
	c-1.3-2.3-2-5-2-8.1c0-3.1,0.7-5.8,2-8.1c1.3-2.3,3.2-4.1,5.6-5.3c2.4-1.3,5.2-1.9,8.4-1.9c2.1,0,4,0.2,5.6,0.6
	c1.7,0.4,3.2,1,4.6,1.9v7.1c-1.2-1-2.6-1.7-4.2-2.1c-1.5-0.4-3.3-0.7-5.3-0.7c-1.7,0-3.3,0.3-4.7,1c-1.3,0.7-2.4,1.7-3.2,2.9
	c-0.8,1.3-1.2,2.8-1.2,4.5c0,2.7,0.8,4.8,2.3,6.3c1.6,1.5,3.7,2.3,6.3,2.3c1.5,0,2.7-0.3,3.7-0.8v-4.7h-4.5v-5.2h11.6v14.6
	C222.1,114.7,218.4,115.6,214.1,115.6z M232.7,85.6h20.8v6.3h-13.4v5.5h9.8v5.8h-9.8v5.5h13.4v6.3h-20.8V85.6z M261.1,85.6h7.4v23.1
	h12.8v6.3h-20.2V85.6z M297.2,115.6c-1.8,0-3.7-0.2-5.5-0.5c-1.8-0.3-3.3-0.8-4.5-1.4V107c1.5,0.8,3.1,1.4,4.7,1.8
	c1.7,0.4,3.2,0.6,4.7,0.6c1.4,0,2.4-0.2,3.1-0.6c0.7-0.4,1.1-1,1.1-1.8c0-0.6-0.2-1.1-0.6-1.5c-0.4-0.4-0.9-0.9-1.6-1.2
	s-1.9-0.9-3.4-1.5c-2.7-1.1-4.7-2.4-5.9-3.8s-1.8-3.1-1.8-5.2c0-1.7,0.5-3.2,1.4-4.5c1-1.3,2.3-2.3,3.9-3.1c1.7-0.7,3.6-1.1,5.8-1.1
	c1.8,0,3.4,0.1,4.8,0.4s2.7,0.7,4,1.3v6.5c-2.5-1.3-4.9-1.9-7.4-1.9c-1.3,0-2.4,0.2-3.2,0.7c-0.8,0.4-1.2,1-1.2,1.8
	c0,0.8,0.4,1.5,1.2,2c0.8,0.5,2.3,1.2,4.5,2.1c2,0.8,3.5,1.6,4.6,2.4c1.1,0.8,1.9,1.7,2.4,2.7c0.5,1,0.8,2.4,0.8,3.9
	c0,2.7-1,4.8-3,6.4C304.1,114.9,301.1,115.6,297.2,115.6z"/>
</svg>
