<svg width="160" height="160" viewBox="0 0 160 160" fill="none" xmlns="http://www.w3.org/2000/svg">
<rect x="0.5" y="0.5" width="159" height="159" rx="79.5" fill="#F6FAFF"/>
<g clip-path="url(#clip0_3642_8064)">
<path d="M94.6795 86.4299C95.1995 82.6099 97.9995 80.8699 101.169 79.7799C101.942 79.5719 102.656 79.1885 103.256 78.6595C103.856 78.1305 104.326 77.4702 104.629 76.7299C106.439 72.5599 107.379 68.1299 108.559 63.7299C108.949 62.3099 108.709 60.7899 106.859 60.2599C105.609 59.9099 103.779 61.1199 103.159 63.0099C102.219 65.8899 100.159 68.1999 99.3095 71.1799C98.8194 72.2686 97.9872 73.1675 96.9395 73.7399C95.4648 74.813 94.0463 75.9612 92.6895 77.1799" stroke="#381805" stroke-width="2" stroke-linecap="round" stroke-linejoin="round"/>
<path d="M66.0697 77.72C65.8797 77.34 65.8597 76.97 65.3397 76.72C60.2697 73.96 58.3397 68.8 55.9097 64.05C55.2897 62.83 54.9097 61.42 53.6097 60.89C53.1829 60.6786 52.7073 60.5856 52.2323 60.6208C51.7574 60.656 51.3006 60.818 50.9097 61.09C50.2597 61.65 49.6197 62.38 49.9097 63.31C51.3697 67.78 52.2597 72.41 54.0897 76.77C54.4401 77.6221 54.9839 78.381 55.6781 78.9867C56.3723 79.5924 57.198 80.0283 58.0897 80.26C61.2597 81.26 63.7597 83.09 64.3097 86.7" stroke="#381805" stroke-width="2" stroke-linecap="round" stroke-linejoin="round"/>
<path d="M80.2497 58.56V61.56C83.0997 61.41 86.2497 62.27 88.1597 59.27C89.2597 57.53 87.6597 54.86 84.7297 52.84C85.2597 48.74 84.0697 46.73 80.7297 46.12C80.1187 45.9814 79.4847 45.9792 78.8728 46.1136C78.2608 46.2481 77.6861 46.5158 77.1895 46.8978C76.6929 47.2798 76.2867 47.7666 75.9998 48.3236C75.7129 48.8806 75.5524 49.4939 75.5297 50.12C75.4297 51.99 75.3197 53.61 73.3097 54.67C72.6457 55.041 72.1436 55.646 71.9015 56.367C71.6593 57.0881 71.6943 57.8734 71.9997 58.57C72.1632 59.324 72.5679 60.0041 73.1525 60.5075C73.7371 61.0109 74.4698 61.3102 75.2397 61.36C76.8297 61.57 78.3597 62.09 80.1097 61.28L80.3397 65.03" stroke="#F8D208" stroke-width="2" stroke-linecap="round" stroke-linejoin="round"/>
<path d="M79.9199 35.97C80.0529 36.3266 80.2346 36.6632 80.4599 36.97C82.1078 39.2414 84.1971 41.157 86.6027 42.602C89.0082 44.0471 91.6806 44.9919 94.4599 45.38C96.3099 45.69 96.9899 46.57 96.7099 48.38C96.2246 51.7859 95.4039 55.1355 94.2599 58.38C93.0081 61.7389 90.6057 64.5452 87.4799 66.3C85.0799 67.74 82.6499 69.13 80.3999 70.8" stroke="#381805" stroke-width="2" stroke-linecap="round" stroke-linejoin="round"/>
<path d="M79.5003 36.9099C75.5903 42.4399 69.9403 45.0999 63.8103 46.3799C63.5899 49.5596 63.956 52.7527 64.8903 55.7999C66.5303 61.3799 70.2703 65.2499 75.5003 67.7999C77.1103 68.5899 79.0603 69.1299 79.9403 70.8999" stroke="#381805" stroke-width="2" stroke-linecap="round" stroke-linejoin="round"/>
<path d="M73.5294 84.4301C73.5294 82.3401 72.8894 80.3101 72.6794 78.2301C72.3594 75.0501 69.7294 73.2301 67.2994 71.5201C65.8974 70.4737 64.397 69.5661 62.8194 68.8101C61.7594 68.3501 60.4494 68.0101 59.3594 69.0101" stroke="#381805" stroke-width="2" stroke-linecap="round" stroke-linejoin="round"/>
<path d="M99.4007 69.13C99.0271 68.7242 98.5266 68.4576 97.9813 68.374C97.4361 68.2904 96.8787 68.3948 96.4007 68.67C93.0007 70.09 90.2507 72.5 87.5207 74.8C86.7507 75.45 86.4607 76.86 86.2607 77.97C85.8807 80.11 85.7207 82.28 85.4707 84.43" stroke="#381805" stroke-width="2" stroke-linecap="round" stroke-linejoin="round"/>
<path d="M85.2294 84.68C84.5094 84.68 83.7994 84.5 83.6794 85.68C83.4433 86.6615 83.0838 87.609 82.6094 88.5C86.6094 90.08 90.8494 90.56 94.8694 91.74C96.0594 90.57 95.8694 89 96.5394 87.59C93.0194 86.08 89.2294 85.91 85.7194 84.69" stroke="#381805" stroke-width="2" stroke-linecap="round" stroke-linejoin="round"/>
<path d="M73.7803 84.6799C76.3303 84.8499 75.2103 87.2099 76.3203 88.4899C73.3203 89.9699 70.2303 90.2999 67.3203 91.1099C63.5003 92.1699 63.3203 91.9399 62.5703 87.7099C65.9403 86.0599 69.7603 85.8299 73.3103 84.7099" stroke="#381805" stroke-width="2" stroke-linecap="round" stroke-linejoin="round"/>
<path d="M80 52.3401C80.08 54.2501 80.17 56.1601 80.25 58.0601" stroke="#F8D208" stroke-width="2" stroke-linecap="round" stroke-linejoin="round"/>
<path d="M77 57.3201C79.12 58.3901 81.22 59.0901 83.22 57.0701" stroke="#F8D208" stroke-width="2" stroke-linecap="round" stroke-linejoin="round"/>
</g>
<path d="M56.042 103.504V108.212H44.646V103.504H56.042ZM44.36 117.958C43.788 118.156 43.172 118.376 42.556 118.574L42.336 118.662C42.028 118.772 41.698 118.882 41.368 118.992L41.148 119.058C41.038 119.102 40.928 119.146 40.818 119.19L40.598 119.256L40.378 119.322C39.344 119.696 38.332 120.026 37.496 120.29L36.792 117.892C37.276 117.76 37.936 117.584 38.596 117.386L38.816 117.32L39.036 117.254C39.212 117.21 39.41 117.144 39.586 117.1V112.854H37.386V110.588H39.586V106.65H37.166V104.384H44.206V106.65H41.874V110.588H43.788V112.854H41.874V116.44L43.876 115.78L44.36 117.958ZM46.692 106.496H48.012V105.242H46.692V106.496ZM49.662 106.496H50.828V105.242H49.662V106.496ZM52.456 106.496H53.886V105.242H52.456V106.496ZM56.922 108.96V110.962H43.876V108.96H56.922ZM57.01 121.236L56.02 123.48C54.106 122.732 52.566 121.39 51.532 120.004L51.686 121.962C51.444 122.028 51.18 122.072 50.916 122.116L50.696 122.16C50.63 122.182 50.542 122.204 50.476 122.204L50.146 122.292C50.036 122.314 49.926 122.336 49.816 122.358L49.464 122.424C48.056 122.71 46.67 123.018 45.526 123.238L45.02 121.148C45.526 121.06 46.186 120.972 46.824 120.884V119.322L46.648 119.41L46.472 119.498C45.658 119.894 44.844 120.268 43.766 120.598L43.018 118.662C44.316 118.354 46.164 117.562 47.572 116.77H45.174V111.776H55.734V116.77H51.928C52.214 117.32 52.566 117.98 53.006 118.464C53.688 117.98 54.502 117.276 54.964 116.836L56.812 118.222C55.998 118.728 55.052 119.3 54.304 119.696C55.096 120.334 56.24 121.016 57.01 121.236ZM47.418 114.9H53.314V113.602H47.418V114.9ZM49.024 118.024V120.488L51.488 119.938C50.938 119.146 50.388 118.09 50.014 117.122C49.662 117.408 49.42 117.76 49.024 118.024ZM66.492 116.77C65.832 117.1 65.128 117.43 64.402 117.782L64.182 117.892L63.874 118.024L63.676 118.134C62.246 118.816 60.816 119.476 59.694 120.004L58.814 117.364C59.298 117.21 59.914 116.968 60.574 116.726L60.794 116.638C61.036 116.528 61.3 116.44 61.542 116.33V110.39H59.364V107.97H61.542V103.13H63.918V107.97H65.81V107.838H68.648C68.56 107.376 68.318 106.76 68.12 106.342L68.912 106.166H66.294V104.186H70.87V102.866H73.312V104.186H78.504V106.166H76.018L76.568 106.276C76.304 106.826 75.974 107.398 75.732 107.838H78.9V109.928H65.81V110.39H63.918V115.362C64.226 115.252 64.556 115.098 64.886 114.944L65.084 114.856C65.37 114.724 65.678 114.592 65.942 114.482L66.492 116.77ZM70.826 107.838H73.4L73.29 107.816C73.488 107.354 73.774 106.672 73.95 106.166H70.518C70.782 106.672 71.002 107.332 71.112 107.772L70.826 107.838ZM71.376 117.76C70.914 120.246 69.66 122.402 65.414 123.48L64.666 121.148C67.548 120.598 68.472 119.278 68.846 117.76H67.02V110.808H77.866V117.76H75.182V120.356C75.182 120.884 75.27 121.038 75.952 121.038H76.348C76.986 121.038 77.118 120.686 77.162 119.432L79.34 119.74C79.076 122.402 78.372 123.216 76.414 123.216H75.732C73.268 123.216 72.718 122.336 72.718 120.378V117.76H71.376ZM69.418 113.514H75.314V112.37H69.418V113.514ZM69.418 116.154H75.314V114.988H69.418V116.154ZM91.902 121.302C90.89 122.028 89.548 122.842 87.546 123.458L86.688 121.126C87.7 120.928 88.778 120.422 89.614 119.938C88.69 119.278 87.898 118.332 87.216 117.386L89.284 116.55C89.834 117.232 90.626 117.98 91.484 118.464C91.99 117.848 92.32 116.99 92.518 116.286H87.898V107.486H92.716V106.166H87.612V104.252C87.238 105.506 86.556 107.024 85.918 108.278V123.282H83.432V112.326C83.058 112.81 82.64 113.316 82.552 113.426L80.638 111.336C82.64 109.158 84.554 105.836 85.5 102.888L87.92 103.636L87.81 103.922H100.636V106.166H95.136V107.486H100.064V116.286H94.872C94.652 117.298 94.366 118.53 93.728 119.432C95.774 120.114 98.502 120.598 100.79 120.73L100.262 123.194C96.764 122.908 94.014 122.226 91.902 121.302ZM95.136 110.984H97.556V109.356H95.136V110.984ZM90.186 110.984H92.716V109.356H90.186V110.984ZM95.114 114.394H97.556V112.722H95.136V113.646C95.136 113.866 95.136 114.174 95.114 114.394ZM90.186 114.394H92.738C92.738 114.152 92.716 113.844 92.716 113.602V112.722H90.186V114.394ZM109.986 115.626V123.282H107.5V115.34C106.554 117.21 105.256 119.322 104.354 120.268L102.594 118.2C104.31 116.55 106.07 113.756 106.994 111.6H103.32V109.246H107.5V106.54C106.312 106.76 104.926 106.98 103.804 107.112C103.694 106.584 103.342 105.638 103.056 105.11C103.782 105 104.552 104.868 105.344 104.714L105.564 104.67L105.806 104.626C108.028 104.164 110.228 103.526 111.636 102.888L113.462 104.868C112.428 105.286 111.24 105.682 109.986 105.99V109.246H113.528V111.6H109.986V112.81C110.998 113.58 113.022 115.538 113.572 115.978L112.098 118.2C111.592 117.562 110.8 116.462 109.986 115.626ZM120.832 122.798C119.996 123.194 118.39 123.304 116.168 123.282L116.014 120.642C116.872 120.686 118.126 120.686 118.698 120.686H118.874C119.27 120.686 119.49 120.466 119.49 120.092V103.24H122.042V120.114C122.042 121.544 121.69 122.402 120.832 122.798ZM116.872 105.44V117.65H114.364V105.44H116.872Z" fill="#381805"/>
<rect x="0.5" y="0.5" width="159" height="159" rx="79.5" stroke="#FFD75F"/>
<defs>
<clipPath id="clip0_3642_8064">
<rect width="64" height="64" fill="white" transform="translate(48 32.5)"/>
</clipPath>
</defs>
</svg>
