<svg width="160" height="160" viewBox="0 0 160 160" fill="none" xmlns="http://www.w3.org/2000/svg">
<rect x="0.5" y="0.5" width="159" height="159" rx="79.5" fill="#F6FAFF"/>
<g clip-path="url(#clip0_3642_8063)">
<path d="M83.6899 66.0601C83.5599 65.1301 83.5599 61.6701 83.5899 60.7201C83.7499 54.1401 83.2099 47.5701 83.0899 40.9901C83.0899 39.4801 82.5399 38.8601 81.0199 38.9301C71.7999 39.4001 62.5799 39.1601 53.3599 39.1801C51.4599 39.1801 51.2499 40.1801 51.2799 41.7601C51.5799 56.4268 51.8332 71.1168 52.0399 85.8301C52.0399 87.4101 52.5399 88.0001 54.1299 87.8901C59.7599 87.5101 65.3999 87.2201 71.0299 86.8901C74.0299 86.6901 77.0299 86.3901 80.0299 86.1401" stroke="#381805" stroke-width="2" stroke-linecap="round" stroke-linejoin="round"/>
<path d="M79.0009 49.96L56.4609 50.22" stroke="#381805" stroke-width="2" stroke-linecap="round" stroke-linejoin="round"/>
<path d="M78.4609 64.5601L56.4609 65.0801" stroke="#381805" stroke-width="2" stroke-linecap="round" stroke-linejoin="round"/>
<path d="M72.82 70.2C70.35 73.28 67.82 76.3199 65.41 79.4399C64.64 80.4399 63.99 81.44 62.33 81.5C60.8767 79.8375 59.7472 77.9178 59 75.84" stroke="#F8D208" stroke-width="2" stroke-linecap="round" stroke-linejoin="round"/>
<path d="M70.7699 57.3899L55.9199 57.8999" stroke="#381805" stroke-width="2" stroke-linecap="round" stroke-linejoin="round"/>
<path d="M110 75.18C107.78 72.78 105.78 70.18 103.38 67.94C100.959 65.556 98.3437 63.3785 95.5603 61.43C94.918 60.9111 94.1213 60.6205 93.2957 60.6042C92.4701 60.5879 91.6626 60.8468 91.0003 61.34C85.5158 65.3456 80.7256 70.2237 76.8203 75.78" stroke="#381805" stroke-width="2" stroke-linecap="round" stroke-linejoin="round"/>
<path d="M93.4004 89.2L95.5004 89.14C97.1604 89.14 98.8204 89.14 100.5 89.04C101.057 89.033 101.612 88.9795 102.16 88.88C104.59 88.25 105.51 86.88 105.8 84.37C106.25 80.49 105.8 76.63 105.8 72.77" stroke="#381805" stroke-width="2" stroke-linecap="round" stroke-linejoin="round"/>
<path d="M93.4008 89.2L91.3008 89.14C89.6508 89.14 87.9908 89.14 86.3008 89.04C85.7473 89.0324 85.1954 88.9789 84.6508 88.88C82.2208 88.25 81.3008 86.88 81.0008 84.37C80.5508 80.49 81.0008 76.63 81.0008 72.77" stroke="#381805" stroke-width="2" stroke-linecap="round" stroke-linejoin="round"/>
</g>
<path d="M56.042 103.504V108.212H44.646V103.504H56.042ZM44.36 117.958C43.788 118.156 43.172 118.376 42.556 118.574L42.336 118.662C42.028 118.772 41.698 118.882 41.368 118.992L41.148 119.058C41.038 119.102 40.928 119.146 40.818 119.19L40.598 119.256L40.378 119.322C39.344 119.696 38.332 120.026 37.496 120.29L36.792 117.892C37.276 117.76 37.936 117.584 38.596 117.386L38.816 117.32L39.036 117.254C39.212 117.21 39.41 117.144 39.586 117.1V112.854H37.386V110.588H39.586V106.65H37.166V104.384H44.206V106.65H41.874V110.588H43.788V112.854H41.874V116.44L43.876 115.78L44.36 117.958ZM46.692 106.496H48.012V105.242H46.692V106.496ZM49.662 106.496H50.828V105.242H49.662V106.496ZM52.456 106.496H53.886V105.242H52.456V106.496ZM56.922 108.96V110.962H43.876V108.96H56.922ZM57.01 121.236L56.02 123.48C54.106 122.732 52.566 121.39 51.532 120.004L51.686 121.962C51.444 122.028 51.18 122.072 50.916 122.116L50.696 122.16C50.63 122.182 50.542 122.204 50.476 122.204L50.146 122.292C50.036 122.314 49.926 122.336 49.816 122.358L49.464 122.424C48.056 122.71 46.67 123.018 45.526 123.238L45.02 121.148C45.526 121.06 46.186 120.972 46.824 120.884V119.322L46.648 119.41L46.472 119.498C45.658 119.894 44.844 120.268 43.766 120.598L43.018 118.662C44.316 118.354 46.164 117.562 47.572 116.77H45.174V111.776H55.734V116.77H51.928C52.214 117.32 52.566 117.98 53.006 118.464C53.688 117.98 54.502 117.276 54.964 116.836L56.812 118.222C55.998 118.728 55.052 119.3 54.304 119.696C55.096 120.334 56.24 121.016 57.01 121.236ZM47.418 114.9H53.314V113.602H47.418V114.9ZM49.024 118.024V120.488L51.488 119.938C50.938 119.146 50.388 118.09 50.014 117.122C49.662 117.408 49.42 117.76 49.024 118.024ZM66.492 116.77C65.832 117.1 65.128 117.43 64.402 117.782L64.182 117.892L63.874 118.024L63.676 118.134C62.246 118.816 60.816 119.476 59.694 120.004L58.814 117.364C59.298 117.21 59.914 116.968 60.574 116.726L60.794 116.638C61.036 116.528 61.3 116.44 61.542 116.33V110.39H59.364V107.97H61.542V103.13H63.918V107.97H65.81V107.838H68.648C68.56 107.376 68.318 106.76 68.12 106.342L68.912 106.166H66.294V104.186H70.87V102.866H73.312V104.186H78.504V106.166H76.018L76.568 106.276C76.304 106.826 75.974 107.398 75.732 107.838H78.9V109.928H65.81V110.39H63.918V115.362C64.226 115.252 64.556 115.098 64.886 114.944L65.084 114.856C65.37 114.724 65.678 114.592 65.942 114.482L66.492 116.77ZM70.826 107.838H73.4L73.29 107.816C73.488 107.354 73.774 106.672 73.95 106.166H70.518C70.782 106.672 71.002 107.332 71.112 107.772L70.826 107.838ZM71.376 117.76C70.914 120.246 69.66 122.402 65.414 123.48L64.666 121.148C67.548 120.598 68.472 119.278 68.846 117.76H67.02V110.808H77.866V117.76H75.182V120.356C75.182 120.884 75.27 121.038 75.952 121.038H76.348C76.986 121.038 77.118 120.686 77.162 119.432L79.34 119.74C79.076 122.402 78.372 123.216 76.414 123.216H75.732C73.268 123.216 72.718 122.336 72.718 120.378V117.76H71.376ZM69.418 113.514H75.314V112.37H69.418V113.514ZM69.418 116.154H75.314V114.988H69.418V116.154ZM84.62 107.112V109.84H82.002V104.758H89.57V102.822H92.298V104.758H100.086V109.84H97.336V107.112H84.62ZM92.21 120.312C90.01 121.786 86.974 122.842 83.08 123.414L82.486 120.928C84.928 120.686 87.458 120.048 89.328 119.146C88.404 118.816 87.59 118.376 86.71 118.112L86.314 118.816L83.608 118.09C84.356 116.88 85.346 115.01 86.248 113.316H81.54V110.896H87.48C88.008 109.84 88.404 108.608 88.8 107.662L91.506 108.212C91.308 108.63 91.088 109.114 90.868 109.576L90.758 109.774C90.736 109.818 90.736 109.862 90.714 109.884L90.604 110.082C90.494 110.368 90.362 110.632 90.23 110.896H100.482V113.316H96.852C96.258 115.274 95.466 117.188 94.344 118.442C96.346 119.278 98.304 120.356 99.602 121.148L97.534 123.26C96.258 122.402 94.3 121.236 92.21 120.312ZM87.832 116.022C88.536 116.22 89.262 116.506 90.01 116.792L90.208 116.88C90.428 116.946 90.626 117.034 90.846 117.122L91.044 117.188C91.286 117.298 91.528 117.386 91.77 117.474C92.782 116.484 93.42 114.944 93.86 113.316H89.02C88.844 113.668 88.69 114.064 88.514 114.438L88.448 114.636C88.25 115.12 88.052 115.604 87.832 116.022ZM122.13 120.488V122.754H104.024V120.488H111.592V117.716H106.18V115.494H111.592V112.92H107.236V111.072C106.356 111.666 105.278 112.26 104.266 112.766L103.078 110.5C104.508 109.928 106.268 108.806 107.874 107.552L108.05 107.42C108.688 106.914 109.304 106.386 109.854 105.858H107.17V103.504H114.364C116.146 106.1 119.732 109.026 122.966 110.214L121.69 112.788C120.612 112.282 119.556 111.71 118.72 111.138V112.92H114.276V115.494H119.754V117.716H114.276V120.488H122.13ZM107.852 110.654H117.972C116.08 109.312 114.32 107.464 112.978 105.858C112.12 106.87 111.064 107.97 109.942 108.982L109.766 109.136C109.15 109.686 108.49 110.192 107.852 110.654Z" fill="#381805"/>
<rect x="0.5" y="0.5" width="159" height="159" rx="79.5" stroke="#FFD75F"/>
<defs>
<clipPath id="clip0_3642_8063">
<rect width="64" height="64" fill="white" transform="translate(48 32.5)"/>
</clipPath>
</defs>
</svg>
