<svg width="160" height="160" viewBox="0 0 160 160" fill="none" xmlns="http://www.w3.org/2000/svg">
<rect x="0.5" y="0.5" width="159" height="159" rx="79.5" fill="#F6FAFF"/>
<g clip-path="url(#clip0_3642_8066)">
<path d="M66.0508 90.2701C69.6886 89.9864 73.3162 90.9338 76.3508 92.96C80.7508 95.75 84.7708 95.3901 88.8408 92.4001C93.2808 89.1401 98.3308 86.75 102.381 82.89C103.411 82.0201 104.223 80.9207 104.751 79.6801C105.591 77.4901 104.391 75.62 102.091 76.01C100.531 76.3491 99.0168 76.8728 97.5808 77.5701C94.9008 78.75 92.0108 79.5701 89.8908 81.7901" stroke="#381805" stroke-width="2" stroke-linecap="round" stroke-linejoin="round"/>
<path d="M65.7903 90.0101C65.1188 85.2244 64.8545 80.3904 65.0003 75.5601H57.5703C57.5703 80.9101 57.5703 86.1201 57.5703 91.3301C57.5703 92.4701 58.0303 92.9501 59.1703 92.9301C61.1703 92.9301 63.2403 92.9301 65.2903 92.9301C65.4903 91.8801 65.6403 91.0801 65.8003 90.2801" stroke="#381805" stroke-width="2" stroke-linecap="round" stroke-linejoin="round"/>
<path d="M78.7694 83.9101C81.6528 85.5522 84.7887 86.7045 88.0494 87.3201C90.3494 87.8001 92.0494 86.4801 92.0494 84.7101C91.9965 83.979 91.706 83.2852 91.2222 82.7345C90.7383 82.1839 90.0876 81.8065 89.3694 81.6601C85.8294 81.1001 82.9494 78.9901 79.5994 78.0601C76.4994 77.2001 73.4194 77.5301 70.3194 77.8101C69.0794 77.9301 67.8494 78.4301 66.6094 77.8101" stroke="#381805" stroke-width="2" stroke-linecap="round" stroke-linejoin="round"/>
<path d="M86.63 56.31C87.13 57.38 88.88 57.88 90.42 57.41C92.98 56.64 95.1 54.11 94.88 51.59C94.66 49.07 93.76 46.82 90.16 46C88.8949 45.7488 87.5822 45.9273 86.43 46.507C85.2779 47.0867 84.3523 48.0345 83.8 49.2C83.52 49.72 83.27 50.26 83 50.79" stroke="#381805" stroke-width="2" stroke-linecap="round" stroke-linejoin="round"/>
<path d="M75.5902 57.15C72.2202 58 69.2202 57 68.4302 54.76C66.9202 50.47 68.6402 47.64 71.0802 46.54C71.7898 46.2085 72.5606 46.0285 73.3436 46.0114C74.1267 45.9942 74.9047 46.1404 75.6281 46.4405C76.3515 46.7406 77.0045 47.188 77.5455 47.7544C78.0864 48.3207 78.5035 48.9936 78.7702 49.73C78.9702 50.2 79.2202 50.65 79.5502 51.32" stroke="#381805" stroke-width="2" stroke-linecap="round" stroke-linejoin="round"/>
<path d="M68.4402 56.0901C65.9102 57.8101 65.8702 60.7301 64.9902 63.2401" stroke="#381805" stroke-width="2" stroke-linecap="round" stroke-linejoin="round"/>
<path d="M94.1309 55.8201C96.8009 57.2301 96.5509 60.2701 97.8409 62.4501" stroke="#381805" stroke-width="2" stroke-linecap="round" stroke-linejoin="round"/>
<path d="M81.2994 60.83C84.0277 60.83 86.2394 58.6182 86.2394 55.8899C86.2394 53.1617 84.0277 50.95 81.2994 50.95C78.5711 50.95 76.3594 53.1617 76.3594 55.8899C76.3594 58.6182 78.5711 60.83 81.2994 60.83Z" stroke="#381805" stroke-width="2" stroke-linecap="round" stroke-linejoin="round"/>
<path d="M73.8203 68.73C73.8203 68.73 76.1603 60.09 78.9503 60.29" stroke="#381805" stroke-width="2" stroke-linecap="round" stroke-linejoin="round"/>
<path d="M88.89 68.73C88.89 68.73 86.54 60.09 83.75 60.29" stroke="#381805" stroke-width="2" stroke-linecap="round" stroke-linejoin="round"/>
<path d="M94.8796 65.4999C89.984 68.3699 85.3672 71.691 81.0896 75.4199C76.9518 71.5136 72.3108 68.1774 67.2896 65.4999C57.2196 60.0999 49.9296 45.4999 62.1796 37.7799C74.4296 30.0599 81.0896 43.9699 81.0896 43.9699C81.0896 43.9699 88.3696 29.8699 100.61 37.6199C112.85 45.3699 105.11 59.4999 94.8796 65.4999Z" stroke="#F8D208" stroke-width="2" stroke-linecap="round" stroke-linejoin="round"/>
</g>
<path d="M42.38 114.13V123.326H40.158V114.306L37.1 114.548L36.814 112.326L38.376 112.238L38.508 112.084C38.794 111.732 39.146 111.314 39.432 110.918C38.838 109.994 37.76 108.718 36.924 107.86L38.2 106.144C38.332 106.276 38.53 106.408 38.684 106.584C39.278 105.44 39.938 103.9 40.268 102.844L42.512 103.614C41.786 105.044 40.796 106.892 40.026 108.036C40.268 108.322 40.576 108.652 40.752 108.894C41.478 107.75 42.226 106.408 42.71 105.374L44.712 106.342C44.272 107.09 43.722 107.926 43.15 108.762L43.018 108.96C42.82 109.268 42.6 109.598 42.38 109.906L42.248 110.104C41.742 110.808 41.236 111.49 40.752 112.084L42.666 111.974C42.468 111.512 42.226 110.984 41.984 110.588L43.788 109.818C44.514 111.226 45.284 113.294 45.526 114.46L43.788 115.34C43.722 115.01 43.59 114.526 43.458 114.086L42.38 114.13ZM56.636 103.9V106.144H44.976V103.9H56.636ZM56.614 113.822L54.612 114.724C54.106 113.646 52.874 111.842 51.686 110.434C52.566 109.224 53.644 107.508 54.15 106.496L56.306 107.046C55.646 108.102 54.722 109.422 54.062 110.412C55.008 111.468 56.13 112.964 56.614 113.822ZM49.068 113.91L47.044 114.724C46.626 113.646 45.658 111.864 44.712 110.434C45.46 109.202 46.406 107.508 46.868 106.496L49.002 107.024C48.408 108.08 47.616 109.422 46.956 110.412C47.814 111.534 48.672 113.052 49.068 113.91ZM52.698 113.866L50.696 114.724C50.212 113.646 49.332 111.842 48.188 110.434C49.068 109.224 49.904 107.508 50.366 106.496L52.5 107.024C51.884 108.102 51.048 109.422 50.366 110.412C51.29 111.512 52.236 113.008 52.698 113.866ZM57.01 120.466V122.71H44.514V120.466H49.53V117.32H45.746V115.076H56.064V117.32H51.928V120.466H57.01ZM45.46 119.388L43.568 120.026C43.458 119.014 43.04 117.254 42.578 116.066L44.382 115.538C44.866 116.66 45.35 118.398 45.46 119.388ZM39.828 115.956C39.652 117.914 39.102 120.334 38.53 121.632L36.616 120.73C37.21 119.52 37.584 117.342 37.76 115.604L39.828 115.956ZM61.278 102.998C62.4 103.482 64.028 104.384 64.732 105L63.214 107.068C62.554 106.408 60.948 105.418 59.804 104.89L61.278 102.998ZM70.738 108.96H72.036L71.618 108.806C71.926 108.212 72.3 107.244 72.52 106.562H70.43C70.848 107.2 71.266 108.08 71.442 108.63L70.738 108.96ZM63.896 110.654L62.4 112.744C61.938 112.436 61.19 111.974 60.442 111.534L60.222 111.402C59.782 111.138 59.342 110.874 58.968 110.654L60.398 108.762C60.794 108.96 61.3 109.224 61.784 109.466L62.004 109.598C62.73 109.972 63.456 110.39 63.896 110.654ZM68.296 119.938C67.922 121.148 67.372 122.622 66.184 123.48C65.832 123.128 64.864 122.424 64.314 122.16C66.184 120.73 66.316 117.958 66.316 116.506V113.536H68.714V114.68H74.478V113.536H76.92V123.304H74.478V119.938H68.296ZM64.27 116C63.94 116.924 63.588 117.958 63.192 118.992L63.038 119.432C62.576 120.73 62.092 122.028 61.674 123.084L59.342 121.742C59.76 120.752 60.398 119.19 61.036 117.584L61.124 117.364C61.212 117.144 61.3 116.924 61.388 116.682L61.476 116.462C61.718 115.846 61.96 115.208 62.18 114.636L64.27 116ZM68.648 117.958H74.478V116.682H68.714C68.714 117.034 68.692 117.562 68.648 117.958ZM64.732 106.562V105V104.516H70.254V102.822H72.784V104.516H78.768V106.562H73.62L74.544 106.826L73.95 107.838L74.83 108.102C75.6 107.772 76.502 107.332 76.92 106.98L78.416 108.19C78.13 108.366 77.778 108.542 77.448 108.696C77.756 109.95 78.35 111.402 79.098 111.974L77.888 113.426C76.964 112.612 76.282 110.852 75.996 109.246C75.754 109.334 75.468 109.4 75.248 109.488V111.358C75.6 111.314 76.106 111.16 76.502 111.16L76.546 112.59C76.216 112.634 75.864 112.7 75.49 112.766L75.182 112.832C74.478 112.942 73.796 113.074 73.202 113.162L72.806 111.666L73.598 111.556V108.432C73.4 108.762 73.202 109.07 73.026 109.29L72.498 109.07V113.536H70.584V109.048L69.902 109.334C69.858 109.202 69.814 109.004 69.748 108.85C69.682 110.984 69.594 112.15 69.33 112.546C69.066 112.854 68.736 113.03 68.362 113.052C68.076 113.096 67.548 113.14 67.064 113.118L67.152 111.578C67.196 111.578 67.372 111.578 67.526 111.578C67.68 111.622 67.812 111.556 67.922 111.424C67.988 111.27 68.032 110.61 68.076 109.29H67.372C67.042 111.16 66.448 112.744 65.084 113.712L64.05 112.348C64.974 111.754 65.414 110.566 65.656 109.29H64.974V107.684H69.22C69.088 107.442 68.956 107.178 68.824 106.98L69.726 106.562H64.732ZM94.784 116.44C94.014 118.838 92.54 121.588 89.9 123.392C89.658 122.952 89.24 122.182 88.712 121.72V123.326H86.336V115.802H84.774V116.264C84.774 117.848 84.4 121.148 82.772 122.864C82.354 122.534 81.342 121.896 80.814 121.654C82.156 120.18 82.464 117.474 82.464 116.198V115.802H81.1V113.514H86.336V111.072H82.926V111.05H81.892V103.768H84.224V108.784H86.336V102.822H88.712V121.082C92.166 118.64 93.112 114.592 93.332 111.446H89.306V108.894H93.222V102.844H95.664V108.894H100.966V111.446H96.17C96.5 114.306 97.754 118.86 101.142 120.994L99.47 123.326C97.05 121.654 95.532 118.816 94.784 116.44ZM100.746 107.178L98.546 108.234C98.238 107.684 97.754 106.826 97.226 105.968L97.116 105.748C96.808 105.242 96.478 104.736 96.214 104.296L98.26 103.372C98.59 103.856 99.008 104.472 99.404 105.044L99.536 105.242C99.998 105.968 100.46 106.672 100.746 107.178ZM109.788 104.978L108.27 107.068C107.764 106.738 106.862 106.188 105.96 105.682L105.74 105.572C105.256 105.286 104.772 105.022 104.376 104.802L105.74 102.888C106.246 103.13 106.862 103.438 107.456 103.746L107.676 103.856C108.49 104.274 109.282 104.692 109.788 104.978ZM114.826 113.03C114.65 117.716 114.034 121.522 109.722 123.436L108.6 121.148C111.9 119.872 112.186 116.902 112.318 113.03H110.492V103.768H121.778V113.03H118.874V119.938C118.874 120.62 118.962 120.818 119.622 120.818H120.018C120.678 120.818 120.788 120.158 120.854 118.024L123.142 118.376C122.9 121.94 122.196 123.128 120.04 123.128H119.358C116.872 123.128 116.3 122.182 116.3 119.96V113.03H114.826ZM113 110.654H119.116V106.144H113V110.654ZM108.622 110.83L107.192 113.008C106.708 112.722 105.938 112.282 105.124 111.842L104.926 111.732C104.244 111.358 103.562 110.984 102.99 110.698L104.332 108.762C105.674 109.356 107.654 110.302 108.622 110.83ZM110.096 115.802C109.634 116.682 109.106 117.694 108.556 118.706L108.446 118.904C108.402 118.97 108.358 119.036 108.314 119.102L108.204 119.322C108.16 119.41 108.094 119.52 108.05 119.608L107.94 119.806C107.852 119.96 107.786 120.092 107.698 120.224L107.588 120.422C107.038 121.368 106.51 122.292 106.004 123.062L103.782 121.522C104.53 120.466 105.564 118.838 106.576 117.144L106.686 116.946C106.752 116.836 106.818 116.726 106.862 116.616L106.994 116.418C107.434 115.648 107.852 114.9 108.226 114.196L110.096 115.802Z" fill="#381805"/>
<rect x="0.5" y="0.5" width="159" height="159" rx="79.5" stroke="#FFD75F"/>
<defs>
<clipPath id="clip0_3642_8066">
<rect width="64" height="64" fill="white" transform="translate(48 32.5)"/>
</clipPath>
</defs>
</svg>
