<svg width="160" height="160" viewBox="0 0 160 160" fill="none" xmlns="http://www.w3.org/2000/svg">
<rect x="0.5" y="0.5" width="159" height="159" rx="79.5" fill="#F6FAFF"/>
<g clip-path="url(#clip0_3642_8065)">
<path d="M80.8008 87.42L84.5308 87.31C87.4808 87.23 90.4308 87.31 93.3808 87.14C94.3674 87.1296 95.3512 87.0326 96.3208 86.85C100.641 85.74 102.321 83.38 102.801 78.85C103.601 71.95 102.801 65.09 102.801 58.21" stroke="#381805" stroke-width="2" stroke-linecap="round" stroke-linejoin="round"/>
<path d="M80.8006 87.42L77.0706 87.31C74.1306 87.23 71.1806 87.31 68.2306 87.14C67.244 87.1296 66.2602 87.0326 65.2906 86.85C60.9706 85.74 59.2906 83.38 58.8106 78.85C58.0106 71.95 58.8106 65.09 58.8106 58.21" stroke="#381805" stroke-width="2" stroke-linecap="round" stroke-linejoin="round"/>
<path d="M110.419 63.98C106.419 59.7 102.869 55.03 98.5691 51.03C94.1191 46.9 89.6891 42.76 84.5691 39.4C81.7491 37.55 78.9591 37.4 76.4891 39.23C66.6727 46.3899 58.1015 55.1165 51.1191 65.06" stroke="#381805" stroke-width="2" stroke-linecap="round" stroke-linejoin="round"/>
<path d="M95.8192 60.79C97.4392 66.79 96.4592 72.1 92.1092 76.73C87.4092 81.73 79.6592 82.6 73.4492 79.18C72.7892 78.82 72.2692 78.18 71.4492 78.18" stroke="#F8D208" stroke-width="2" stroke-linecap="round" stroke-linejoin="round"/>
<path d="M91.84 54.82C88.7126 52.1839 84.7397 50.7638 80.65 50.82C77.4432 51.0048 74.3732 52.182 71.8649 54.1886C69.3567 56.1952 67.5343 58.932 66.65 62.02C66.2495 64.071 66.0918 66.1621 66.18 68.25" stroke="#F8D208" stroke-width="2" stroke-linecap="round" stroke-linejoin="round"/>
<path d="M81.4007 69.25C86.5807 69.47 89.1907 67.95 90.8507 63.78C91.5907 61.91 90.8507 60.71 88.8507 60.54C87.3779 60.3677 85.887 60.63 84.5614 61.2945C83.2359 61.9591 82.1337 62.9968 81.3907 64.28C80.8598 64.9955 80.5527 65.8523 80.5082 66.7421C80.4637 67.632 80.6838 68.5151 81.1407 69.28C79.0482 69.9198 76.7994 69.8209 74.7712 68.9998C72.743 68.1786 71.0587 66.6853 70.0007 64.77C69.2007 63.27 70.8807 61.4 73.2407 61.3C74.6341 61.2635 76.0187 61.5308 77.2983 62.0834C78.578 62.636 79.7219 63.4607 80.6507 64.5" stroke="#381805" stroke-width="2" stroke-linecap="round" stroke-linejoin="round"/>
<path d="M80.6504 70V78.21" stroke="#381805" stroke-width="2" stroke-linecap="round" stroke-linejoin="round"/>
<path d="M74.6797 64.77C76.5197 65.58 78.0697 67 80.1497 67.26" stroke="#381805" stroke-width="2" stroke-linecap="round" stroke-linejoin="round"/>
<path d="M86.1206 64.77C84.5807 65.7923 83.3029 67.1625 82.3906 68.77" stroke="#381805" stroke-width="2" stroke-linecap="round" stroke-linejoin="round"/>
<path d="M71.5801 82.9001L70.8301 77.2301L76.2801 76.5601" stroke="#F8D208" stroke-width="2" stroke-linecap="round" stroke-linejoin="round"/>
<path d="M92.5793 50.25L93.0093 55.95L87.5293 56.32" stroke="#F8D208" stroke-width="2" stroke-linecap="round" stroke-linejoin="round"/>
</g>
<path d="M57.054 120.18V122.6H43.238V120.18H48.958V115.692H44.404V113.272H48.958V109.422H43.722V107.002H49.662C48.65 106.21 47.352 105.242 46.252 104.604L47.946 102.778C49.486 103.57 51.62 105 52.654 105.902L51.686 107.002H56.702V109.422H51.4V113.272H56.108V115.692H51.4V120.18H57.054ZM42.27 107.816V123.26H39.806V111.578C39.234 112.282 38.552 113.052 38.2 113.382L36.396 111.204C38.596 109.136 40.796 105.814 41.918 102.866L44.294 103.636C43.744 104.978 43.018 106.518 42.27 107.816ZM62.532 107.134V109.818H59.914V104.736H67.57V102.844H70.298V104.736H78.108V109.818H75.358V107.134H62.532ZM78.768 118.31C78.394 121.962 77.382 123.172 73.576 123.172H71.992C67.768 123.172 66.778 122.138 66.778 119.498V116.704L59.76 117.518L59.452 115.01L66.778 114.262V111.974C66.25 112.062 65.7 112.15 65.172 112.216L64.952 112.26C64.908 112.26 64.886 112.26 64.842 112.26L64.622 112.304C63.874 112.392 63.126 112.502 62.422 112.568C62.334 111.952 61.938 110.874 61.652 110.324C61.696 110.324 61.718 110.302 61.762 110.302L62.004 110.28C62.312 110.236 62.62 110.192 62.928 110.148L63.17 110.126C63.324 110.104 63.478 110.082 63.632 110.06L63.874 110.016C63.918 110.016 63.94 110.016 63.984 109.994L64.226 109.972L64.468 109.928C64.578 109.906 64.688 109.884 64.82 109.862L65.04 109.818L65.282 109.796C65.678 109.708 66.052 109.642 66.448 109.576L66.668 109.532C69.044 109.048 71.244 108.454 72.806 107.772L74.808 109.884C73.312 110.5 71.486 111.05 69.594 111.446V113.954L78.174 113.074L78.482 115.45L69.594 116.418V119.454C69.594 120.378 69.858 120.642 72.124 120.642H73.51C75.688 120.642 75.974 119.982 76.128 117.87L78.768 118.31ZM94.784 116.44C94.014 118.838 92.54 121.588 89.9 123.392C89.658 122.952 89.24 122.182 88.712 121.72V123.326H86.336V115.802H84.774V116.264C84.774 117.848 84.4 121.148 82.772 122.864C82.354 122.534 81.342 121.896 80.814 121.654C82.156 120.18 82.464 117.474 82.464 116.198V115.802H81.1V113.514H86.336V111.072H82.926V111.05H81.892V103.768H84.224V108.784H86.336V102.822H88.712V121.082C92.166 118.64 93.112 114.592 93.332 111.446H89.306V108.894H93.222V102.844H95.664V108.894H100.966V111.446H96.17C96.5 114.306 97.754 118.86 101.142 120.994L99.47 123.326C97.05 121.654 95.532 118.816 94.784 116.44ZM100.746 107.178L98.546 108.234C98.238 107.684 97.754 106.826 97.226 105.968L97.116 105.748C96.808 105.242 96.478 104.736 96.214 104.296L98.26 103.372C98.59 103.856 99.008 104.472 99.404 105.044L99.536 105.242C99.998 105.968 100.46 106.672 100.746 107.178ZM109.788 104.978L108.27 107.068C107.764 106.738 106.862 106.188 105.96 105.682L105.74 105.572C105.256 105.286 104.772 105.022 104.376 104.802L105.74 102.888C106.246 103.13 106.862 103.438 107.456 103.746L107.676 103.856C108.49 104.274 109.282 104.692 109.788 104.978ZM114.826 113.03C114.65 117.716 114.034 121.522 109.722 123.436L108.6 121.148C111.9 119.872 112.186 116.902 112.318 113.03H110.492V103.768H121.778V113.03H118.874V119.938C118.874 120.62 118.962 120.818 119.622 120.818H120.018C120.678 120.818 120.788 120.158 120.854 118.024L123.142 118.376C122.9 121.94 122.196 123.128 120.04 123.128H119.358C116.872 123.128 116.3 122.182 116.3 119.96V113.03H114.826ZM113 110.654H119.116V106.144H113V110.654ZM108.622 110.83L107.192 113.008C106.708 112.722 105.938 112.282 105.124 111.842L104.926 111.732C104.244 111.358 103.562 110.984 102.99 110.698L104.332 108.762C105.674 109.356 107.654 110.302 108.622 110.83ZM110.096 115.802C109.634 116.682 109.106 117.694 108.556 118.706L108.446 118.904C108.402 118.97 108.358 119.036 108.314 119.102L108.204 119.322C108.16 119.41 108.094 119.52 108.05 119.608L107.94 119.806C107.852 119.96 107.786 120.092 107.698 120.224L107.588 120.422C107.038 121.368 106.51 122.292 106.004 123.062L103.782 121.522C104.53 120.466 105.564 118.838 106.576 117.144L106.686 116.946C106.752 116.836 106.818 116.726 106.862 116.616L106.994 116.418C107.434 115.648 107.852 114.9 108.226 114.196L110.096 115.802Z" fill="#381805"/>
<rect x="0.5" y="0.5" width="159" height="159" rx="79.5" stroke="#FFD75F"/>
<defs>
<clipPath id="clip0_3642_8065">
<rect width="64" height="64" fill="white" transform="translate(48 32.5)"/>
</clipPath>
</defs>
</svg>
