<svg width="160" height="160" viewBox="0 0 160 160" fill="none" xmlns="http://www.w3.org/2000/svg">
<rect x="0.5" y="0.5" width="159" height="159" rx="79.5" fill="#F6FAFF"/>
<g clip-path="url(#clip0_3767_400)">
<path d="M107.44 62.6399C109.205 59.4821 109.966 55.8611 109.62 52.2599C109.529 48.0777 108.184 44.0192 105.76 40.6099C101 34.2399 95 33.9899 88.68 35.4999C86.8561 35.9456 85.1459 36.7686 83.6595 37.9157C82.173 39.0628 80.9435 40.5086 80.05 42.1599C79.26 41.9199 79.05 41.3899 78.72 40.8999C74.45 35.1999 65.15 33.4999 59.3 36.4999C53.18 39.6399 50.75 45.2399 50.3 51.9899C49.84 59.4999 53.2 65.4999 57.56 71.0199C59.7903 73.8701 62.1808 76.5911 64.72 79.1699C69.72 84.2699 74.93 89.1699 80.09 94.2799C80.98 94.3499 81.43 93.5999 81.99 93.0399C84.46 90.5699 87.09 88.2299 89.37 85.5999C94.8 79.3199 101.1 73.7699 105.45 66.5999C106.18 65.3999 106.78 64.1299 107.45 62.8999" stroke="#381805" stroke-width="2" stroke-linecap="round" stroke-linejoin="round"/>
<path d="M63.7102 46.8201C62.0002 49.6301 62.0502 52.9601 61.0002 55.9801C60.2994 58.2346 59.8008 60.5471 59.5102 62.8901C59.3202 64.1601 58.6302 64.0801 57.7402 64.1401C56.4202 64.2301 55.0102 63.7101 53.7402 64.6201" stroke="#F8D208" stroke-width="2" stroke-linecap="round" stroke-linejoin="round"/>
<path d="M63.8398 46.4099C66.3698 50.3599 67.4798 54.9499 69.3698 59.1899C69.8498 60.2499 70.1298 61.3999 71.1198 62.1899" stroke="#F8D208" stroke-width="2" stroke-linecap="round" stroke-linejoin="round"/>
<path d="M91.3806 82.41C89.0606 82.02 86.7706 82.71 84.4606 82.66L69.1406 82.41" stroke="#381805" stroke-width="2" stroke-linecap="round" stroke-linejoin="round"/>
<path d="M93.3594 53.74C95.1012 57.7358 96.5061 61.8702 97.5594 66.1" stroke="#F8D208" stroke-width="2" stroke-linecap="round" stroke-linejoin="round"/>
<path d="M74.8302 72.5C75.0502 74.5 74.5802 75.75 72.3902 76.5C71.286 76.8457 70.2916 77.4743 69.5056 78.3234C68.7197 79.1725 68.1697 80.2125 67.9102 81.34" stroke="#381805" stroke-width="2" stroke-linecap="round" stroke-linejoin="round"/>
<path d="M85.701 72.5C85.521 74.28 85.701 75.64 87.901 76.27C90.0745 77.023 91.8684 78.5945 92.901 80.65" stroke="#381805" stroke-width="2" stroke-linecap="round" stroke-linejoin="round"/>
<path d="M93.1199 53.01C91.1199 55.21 90.0599 58.08 87.9199 60.17" stroke="#F8D208" stroke-width="2" stroke-linecap="round" stroke-linejoin="round"/>
<path d="M80 64.8601V71.5001" stroke="#381805" stroke-width="2" stroke-linecap="round" stroke-linejoin="round"/>
<path d="M84.7093 67.58C83.5593 66.3 82.9793 64.3 80.7093 64.38C77.4793 64.48 76.7893 65.05 75.5293 68.57" stroke="#381805" stroke-width="2" stroke-linecap="round" stroke-linejoin="round"/>
<path d="M107.19 62.64C105 61 103.88 59.87 101.76 58.5C100.242 60.7436 98.9239 63.116 97.8203 65.59" stroke="#F8D208" stroke-width="2" stroke-linecap="round" stroke-linejoin="round"/>
<path d="M82.4805 78.6999C79.5705 76.8099 77.3805 78.0399 76.3105 82.1599" stroke="#381805" stroke-width="2" stroke-linecap="round" stroke-linejoin="round"/>
<path d="M80.12 58.3699C83.3619 58.3699 85.99 55.7418 85.99 52.4999C85.99 49.258 83.3619 46.6299 80.12 46.6299C76.8781 46.6299 74.25 49.258 74.25 52.4999C74.25 55.7418 76.8781 58.3699 80.12 58.3699Z" stroke="#381805" stroke-width="2" stroke-linecap="round" stroke-linejoin="round"/>
<path d="M83.4694 58.4401C88.5594 60.0301 89.8494 64.5301 91.3694 68.8201C91.9994 70.6301 91.3694 71.6201 89.3694 71.8201C83.2794 72.2901 77.1794 72.0101 71.0894 72.0901C70.6128 72.0656 70.1465 71.9428 69.7197 71.7294C69.2929 71.516 68.9149 71.2166 68.6094 70.8501C68.6694 67.8501 70.4594 65.3101 71.1994 62.4701C71.7494 60.3501 77.4394 57.7801 79.7194 58.3201C80.8894 58.5901 81.8794 57.9301 82.9494 58.2401" stroke="#381805" stroke-width="2" stroke-linecap="round" stroke-linejoin="round"/>
</g>
<path d="M44.382 103.834C43.722 104.692 42.886 105.616 41.962 106.496L41.808 106.672C40.664 107.772 39.432 108.806 38.376 109.532L36.946 107.42C38.64 106.342 40.906 104.274 41.896 102.822L44.382 103.834ZM56.218 104.054V106.496H45.856V104.054H56.218ZM42.864 111.798V123.348H40.268V114.658C39.674 115.23 39.014 115.846 38.464 116.286L36.704 114.02C38.772 112.502 41.39 109.84 42.71 107.508L45.174 108.454C44.778 109.114 44.294 109.84 43.788 110.544L43.656 110.742C43.392 111.094 43.128 111.468 42.864 111.798ZM52.544 122.798C51.664 123.172 50.344 123.238 48.21 123.238L48.078 120.642C48.914 120.686 50.212 120.686 50.586 120.686C50.96 120.686 51.136 120.532 51.136 120.224V112.502H44.954V110.038H56.79V112.502H53.754V120.268C53.754 121.588 53.446 122.446 52.544 122.798ZM74.016 110.06C73.994 110.302 73.972 110.566 73.972 110.808L73.95 111.05C73.598 116.198 72.542 120.906 69.286 123.502C68.978 122.996 68.318 122.182 67.768 121.72C67.614 121.742 67.46 121.742 67.306 121.764L67.086 121.786L66.844 121.808C66.8 121.83 66.778 121.83 66.734 121.83L66.492 121.852C66.426 121.852 66.338 121.874 66.272 121.874L65.92 121.918H65.81L65.568 121.962H65.458L65.216 121.984L65.106 122.006L64.864 122.028L64.644 122.05C62.664 122.27 60.772 122.468 59.32 122.578L59.012 120.422C59.892 120.356 61.08 120.268 62.29 120.202L62.532 120.18C62.84 120.158 63.17 120.136 63.478 120.114V118.706H59.606V116.902H63.478V115.978H59.694V109.224H63.478V108.366H59.144V106.496H63.478V105.638C62.95 105.66 62.378 105.704 61.806 105.726L61.586 105.748C60.948 105.77 60.31 105.792 59.76 105.792C59.672 105.286 59.408 104.472 59.188 103.988C59.98 103.944 60.838 103.878 61.696 103.812L61.916 103.79C62.312 103.768 62.708 103.724 63.104 103.68L63.324 103.658L63.566 103.636C65.392 103.46 67.13 103.218 68.406 102.932L69.528 104.846C68.428 105.088 67.152 105.286 65.81 105.44V106.496H69.77V107.706H71.618C71.64 106.892 71.64 105.968 71.64 105.044V104.824V104.604C71.64 104.472 71.64 104.318 71.64 104.164V103.174H74.104V103.504V103.614V103.944C74.104 104.274 74.104 104.604 74.104 104.934V105.264V105.484C74.104 106.254 74.082 107.024 74.06 107.706H78.504C78.504 107.706 78.482 108.564 78.482 108.85C78.306 117.298 78.064 121.126 77.404 122.094C76.92 122.776 76.37 123.04 75.688 123.194C75.072 123.304 73.972 123.282 72.674 123.26L72.586 120.84C73.136 120.884 74.016 120.906 74.412 120.906C74.72 120.906 75.006 120.796 75.182 120.51C75.622 119.96 75.842 116.726 75.974 110.06H74.016ZM65.81 118.706V119.916C65.986 119.894 66.162 119.894 66.338 119.872L66.558 119.85C66.602 119.85 66.646 119.85 66.668 119.85L66.888 119.828C66.932 119.828 66.954 119.828 66.998 119.828L67.218 119.806C67.35 119.784 67.504 119.762 67.636 119.762L68.186 119.718L68.296 119.696L68.736 119.652C68.956 119.63 69.176 119.63 69.396 119.608C71.002 117.364 71.596 113.756 71.728 110.06H69.77V108.366H65.81V109.224H69.462V115.978H65.81V116.902H69.55V118.706H65.81ZM61.762 111.842H63.478V110.852H61.762V111.842ZM65.81 111.842H67.328V110.852H65.81V111.842ZM65.81 114.394H67.328V113.36H65.81V114.394ZM61.762 114.394H63.478V113.36H61.762V114.394ZM85.324 121.522V123.282H83.036V111.798C82.618 112.392 82.134 113.052 81.716 113.558C81.562 112.964 80.968 111.402 80.594 110.764C82.134 108.916 83.74 105.726 84.532 102.888L86.842 103.57C86.732 103.9 86.622 104.23 86.512 104.56H88.778L89.152 104.472L90.736 104.868C90.186 106.43 89.504 108.63 88.712 110.5H89.35L89.724 110.456L91.066 110.698C91.066 110.742 91.066 110.786 91.066 110.83L91.044 111.072C90.824 113.998 90.45 116.836 89.68 118.772C91.044 120.158 92.804 120.73 95.07 120.73H95.466H95.554H95.73C97.226 120.73 100.262 120.73 101.23 120.686C100.9 121.214 100.526 122.358 100.416 123.018H94.938C92.232 123.018 90.032 122.424 88.426 120.928C87.876 121.786 87.304 122.688 86.534 123.282C86.314 122.82 85.764 121.984 85.324 121.522ZM96.258 118.09V120.092H93.948V118.09H90.626V116.242H93.948V115.098H91.176V113.25H93.948V112.172H91.44V110.324H93.948V109.268H90.032V107.398H93.948V106.43H91.44V104.582H93.948V102.976H96.258V104.582H99.976V107.398H101.054V109.268H99.976V112.172H96.258V113.25H100.108V115.098H96.258V116.242H100.636V118.09H96.258ZM85.324 107.552V121.192C85.984 120.686 86.622 119.806 87.106 118.948C86.512 117.826 85.962 116.11 85.544 114.328L87.48 113.756C87.678 114.68 87.92 115.626 88.206 116.308C88.404 115.626 88.514 114.834 88.602 114.02L88.624 113.8L88.646 113.58C88.69 113.162 88.734 112.744 88.778 112.348H87.92L87.524 113.25L85.434 112.788C86.248 110.984 87.106 108.388 87.788 106.628H86.248V105.33C86.138 105.594 86.028 105.858 85.918 106.144L85.83 106.342C85.654 106.76 85.478 107.178 85.324 107.552ZM96.258 107.398H97.776V106.43H96.258V107.398ZM96.258 110.324H97.776V109.268H96.258V110.324ZM107.214 106.892V111.05C107.214 114.416 106.752 120.246 104.926 123.436C104.486 122.996 103.342 122.248 102.792 121.984C104.486 118.97 104.772 114.108 104.772 111.05V104.67H112.34V102.844H115.002V104.67H122.702V106.892H115.662V107.992H120.986V110.72H122.944V112.502H120.986V115.34H116.146C116.454 116.044 116.894 116.902 117.378 117.518C118.324 116.946 119.468 116 120.15 115.406L122.086 116.99C121.69 117.232 121.272 117.496 120.854 117.738L120.656 117.87C119.996 118.266 119.336 118.64 118.764 118.926C119.754 119.762 121.184 120.554 122.284 120.884L121.294 123.194C118.764 122.248 116.762 120.488 115.662 118.552V120.73C115.662 121.984 115.354 122.644 114.562 122.996C113.77 123.304 112.428 123.348 110.734 123.348C110.646 122.82 110.536 121.984 110.228 121.412C109.48 121.786 108.644 122.248 107.918 122.512L106.73 120.422C107.786 120.114 109.282 119.498 110.822 118.882L111.262 118.706C111.416 118.662 111.57 118.596 111.724 118.53L111.944 118.442C112.01 118.42 112.076 118.398 112.164 118.354L112.604 120.202C111.988 120.554 111.306 120.906 110.646 121.192C111.526 121.258 112.45 121.258 112.714 121.236C113.088 121.236 113.242 121.06 113.242 120.73V115.34H109.15C110.14 115.824 111.306 116.704 111.988 117.254L110.492 118.948C109.854 118.266 108.644 117.232 107.632 116.682L108.952 115.34H108.644V113.624H113.242V112.502H107.654V110.72H113.242V109.686H108.886V107.992H113.242V106.892H107.214ZM115.662 110.72H118.5V109.686H115.662V110.72ZM115.662 113.624H118.5V112.502H115.662V113.624Z" fill="#381805"/>
<rect x="0.5" y="0.5" width="159" height="159" rx="79.5" stroke="#FFD75F"/>
<defs>
<clipPath id="clip0_3767_400">
<rect width="64" height="64" fill="white" transform="translate(48 32.5)"/>
</clipPath>
</defs>
</svg>
