<svg width="160" height="160" viewBox="0 0 160 160" fill="none" xmlns="http://www.w3.org/2000/svg">
<rect x="0.5" y="0.5" width="159" height="159" rx="79.5" fill="#F6FAFF"/>
<g clip-path="url(#clip0_3642_8067)">
<path d="M78.9198 40.07C71.3998 39.95 63.7698 48.5 67.0998 58C69.0998 63.82 74.1698 67.89 81.9498 67.09C84.7971 66.68 87.4447 65.3892 89.5214 63.3986C91.5981 61.4079 92.9997 58.8173 93.5298 55.99C95.0498 46.45 87.1498 38.99 79.1798 40.07" stroke="#F8D208" stroke-width="2" stroke-linecap="round" stroke-linejoin="round"/>
<path d="M95.6101 85.3301C96.1301 81.5001 99.0001 79.6801 102.2 78.5801C102.983 78.3688 103.707 77.9815 104.317 77.4477C104.927 76.9139 105.407 76.2477 105.72 75.5001C107.56 71.2601 108.52 66.7601 109.72 62.3401C110.11 60.8901 109.86 59.3401 107.99 58.8101C106.71 58.4501 104.86 59.6801 104.23 61.6001C103.23 64.5301 101.14 66.8801 100.31 69.9101C99.8159 71.0133 98.9725 71.9234 97.9101 72.5001C96.4088 73.5932 94.9636 74.7613 93.5801 76.0001" stroke="#381805" stroke-width="2" stroke-linecap="round" stroke-linejoin="round"/>
<path d="M66.5401 76.5001C66.3401 76.1101 66.3201 75.7401 65.8001 75.5001C60.6401 72.7001 58.6701 67.5001 56.2101 62.6201C55.5801 61.3901 55.2101 59.9501 53.8701 59.4201C53.4382 59.202 52.955 59.1054 52.4724 59.1406C51.9898 59.1759 51.5258 59.3416 51.1301 59.6201C50.7502 59.8471 50.45 60.1864 50.2709 60.5911C50.0918 60.9959 50.0426 61.4462 50.1301 61.8801C51.6001 66.3401 52.5101 71.0501 54.3701 75.5001C54.7238 76.3687 55.2763 77.1424 55.9831 77.7589C56.6899 78.3754 57.5315 78.8176 58.4401 79.0501C61.6701 80.1101 64.2001 81.9301 64.7701 85.6001" stroke="#381805" stroke-width="2" stroke-linecap="round" stroke-linejoin="round"/>
<path d="M100.41 67.7499C100.027 67.3353 99.5148 67.063 98.957 66.9777C98.3993 66.8923 97.829 66.9988 97.3398 67.2799C93.8498 68.7299 91.1098 71.1399 88.3398 73.5099C87.5598 74.1799 87.2598 75.6 87.0598 76.74C86.6698 78.9 86.5198 81.1099 86.2598 83.2999" stroke="#381805" stroke-width="2" stroke-linecap="round" stroke-linejoin="round"/>
<path d="M74.1209 83.2999C74.1209 81.1699 73.4709 79.1199 73.2609 76.9899C72.9309 73.7599 70.2609 71.9199 67.7909 70.1699C66.3619 69.1131 64.8349 68.1956 63.2309 67.4299C62.6957 67.0947 62.0696 66.9339 61.4391 66.9698C60.8086 67.0056 60.2048 67.2362 59.7109 67.6299" stroke="#381805" stroke-width="2" stroke-linecap="round" stroke-linejoin="round"/>
<path d="M85.9998 83.56C85.2798 83.56 84.5498 83.37 84.4298 84.56C84.1882 85.5585 83.822 86.5227 83.3398 87.43C87.3398 89.04 91.7098 89.52 95.7998 90.71C96.9998 89.5 96.8498 87.93 97.4998 86.5C93.9198 84.96 90.0698 84.79 86.4998 83.56" stroke="#381805" stroke-width="2" stroke-linecap="round" stroke-linejoin="round"/>
<path d="M74.3709 83.5601C76.0009 84.0901 76.0009 84.0901 76.6909 87.5601C73.9009 88.9301 70.7609 89.2601 67.7909 90.0901C63.9009 91.1601 63.7309 90.9301 62.9609 86.6301C66.3809 84.9501 70.2709 84.7201 73.8709 83.5601" stroke="#381805" stroke-width="2" stroke-linecap="round" stroke-linejoin="round"/>
<path d="M74.2001 59.8699C75.7036 60.5681 77.3424 60.9265 79.0001 60.9199C82.3001 60.9199 84.3201 59.5599 84.3201 57.5899C84.3201 55.7999 83.0301 54.7499 79.8501 53.8599C76.3001 52.9399 74.1801 51.6199 74.1801 49.4399C74.1801 47.0999 76.8401 45.3899 80.5901 45.3899C82.0895 45.3348 83.584 45.5902 84.9801 46.1399L84.3701 47.0899C83.1437 46.5579 81.8165 46.2986 80.4801 46.3299C76.9201 46.3299 75.7101 47.9899 75.7101 49.2399C75.7101 51.0199 77.1301 51.9299 80.2801 52.8199C83.9201 53.8899 85.8501 55.0899 85.8501 57.4899C85.8501 59.8899 83.5601 61.8899 78.8501 61.8899C77.0367 61.9079 75.2402 61.5397 73.5801 60.8099L74.2001 59.8699Z" fill="#381805" stroke="#381805" stroke-width="0.75" stroke-miterlimit="10"/>
<path d="M79.7598 44.1899V63.6199" stroke="#381805" stroke-width="2" stroke-linecap="round" stroke-linejoin="round"/>
</g>
<path d="M55.734 110.742V117.254H46.076V110.918L46.032 110.94C45.834 110.412 45.284 109.576 44.888 109.114V116.748H38.068V103.636H44.888V109.004C47.132 108.366 48.122 107.222 48.496 105.814H45.416V103.57H56.438C56.438 103.57 56.394 104.142 56.372 104.45C56.218 107.244 55.976 108.784 55.492 109.29C55.096 109.73 54.546 109.928 53.996 109.994C53.468 110.06 52.412 110.082 51.224 110.016L51.158 108.014C51.642 108.036 52.412 108.08 52.742 108.08C53.028 108.08 53.248 108.014 53.402 107.86C53.6 107.662 53.732 107.002 53.842 105.814H50.828C50.388 107.97 49.398 109.774 46.626 110.742H55.734ZM40.488 108.718H42.622V105.88H40.488V108.718ZM40.488 114.46H42.622V110.984H40.488V114.46ZM48.496 115.208H53.16V112.788H48.496V115.208ZM56.944 122.27L54.436 123.348C54.172 122.622 53.644 121.522 53.094 120.444L52.984 120.224C52.654 119.63 52.324 119.036 52.038 118.552L54.392 117.628C54.744 118.178 55.14 118.838 55.536 119.542L55.646 119.74C56.174 120.664 56.658 121.61 56.944 122.27ZM42.27 118.486C41.984 119.036 41.654 119.674 41.302 120.334L41.192 120.532C41.148 120.642 41.082 120.73 41.016 120.84L40.906 121.038C40.444 121.94 39.96 122.798 39.564 123.436L37.056 122.358C37.452 121.742 37.98 120.862 38.53 119.96L38.64 119.74L38.772 119.542C39.124 118.926 39.476 118.332 39.762 117.782L42.27 118.486ZM51.268 122.644L48.87 123.172C48.76 122.094 48.232 119.96 47.748 118.574L50.168 118.156C50.696 119.454 51.07 121.5 51.268 122.644ZM46.142 122.842L43.788 123.26C43.722 122.622 43.59 121.588 43.458 120.554L43.436 120.312C43.348 119.718 43.282 119.146 43.216 118.64L45.57 118.354C45.636 118.838 45.724 119.41 45.79 120.004L45.834 120.246L45.856 120.466C45.966 121.368 46.076 122.248 46.142 122.842ZM78.614 114.042V115.648H67.658V111.05C67.46 111.27 67.24 111.512 67.042 111.688C66.734 111.38 66.162 110.764 65.7 110.434V111.402H59.936V109.422H65.7V110.302C66.822 109.312 67.724 107.684 68.296 106.254L69 106.452V105.726H66.316V103.9H69V102.822H71.288V103.9H73.642V102.822H75.952V103.9H78.68V105.726H75.952V106.782H74.83C74.632 107.134 74.434 107.552 74.236 107.86H78.108V109.422H74.126V110.104H77.646V111.38H74.126V112.062H77.646V113.36H74.126V114.042H78.614ZM65.634 103.504V105.44H60.046V103.504H65.634ZM69.814 107.86H71.97C72.19 107.376 72.41 106.804 72.52 106.364L73.642 106.54V105.726H71.288V106.782H70.21L70.298 106.804C70.144 107.134 69.99 107.53 69.814 107.86ZM66.228 106.386V108.432H59.012V106.386H66.228ZM69.902 110.104H71.904V109.422H69.902V110.104ZM69.902 112.062H71.904V111.38H69.902V112.062ZM65.7 112.436V114.35H59.936V112.436H65.7ZM69.902 114.042H71.904V113.36H69.902V114.042ZM72.256 121.852C70.562 122.512 68.67 123.084 66.58 123.37C66.426 122.864 66.03 122.072 65.678 121.764L65.656 121.742V122.336H59.848V115.494H65.656V121.632L65.788 121.61L66.008 121.544C66.118 121.522 66.228 121.5 66.338 121.478L66.558 121.412C66.69 121.39 66.844 121.346 66.976 121.324L67.306 121.236L67.526 121.192C67.636 121.17 67.746 121.126 67.856 121.104L68.076 121.06C68.758 120.884 69.418 120.73 70.056 120.554C69.33 120.07 68.604 119.41 68.076 118.794L69.55 118.2H66.602V116.352H76.326L76.678 116.264L78.152 117.012C77.426 118.354 76.172 119.652 74.896 120.488C76.084 120.818 77.69 121.126 78.636 121.236L78.064 123.348C75.776 123.04 73.774 122.49 72.256 121.852ZM61.85 120.07H63.61V117.496H61.85V120.07ZM70.364 118.2C70.914 118.706 71.552 119.278 72.388 119.652C73.136 119.278 73.95 118.706 74.522 118.2H70.364ZM90.89 111.996C89.768 115.736 87.392 120.466 82.772 123.282L81.144 120.884C89.086 116.462 89.064 106.056 89.218 103.328H92.144C92.122 103.658 92.078 104.12 92.078 104.56C92.254 107.398 93.574 117.298 100.988 120.774L99.558 123.26C94.608 120.818 92.078 115.802 90.89 111.996ZM113.132 109.972C112.802 114.24 111.152 120.158 105.102 123.568L103.562 121.17C108.446 118.53 110.008 113.602 110.36 109.972H104.002V107.332H110.47V102.866H113.22V107.332H121.822C121.822 107.332 121.8 108.234 121.756 108.564C121.338 116.792 120.81 120.708 119.908 121.786C119.292 122.6 118.588 122.908 117.686 123.018C116.938 123.128 115.684 123.128 114.034 123.04L113.968 120.444C114.848 120.532 116.014 120.532 116.542 120.532C116.982 120.532 117.29 120.422 117.576 120.136C118.192 119.498 118.698 116.132 119.028 109.972H113.132Z" fill="#381805"/>
<rect x="0.5" y="0.5" width="159" height="159" rx="79.5" stroke="#FFD75F"/>
<defs>
<clipPath id="clip0_3642_8067">
<rect width="64" height="64" fill="white" transform="translate(48 32.5)"/>
</clipPath>
</defs>
</svg>
