<svg width="219" height="219" viewBox="0 0 219 219" fill="none" xmlns="http://www.w3.org/2000/svg">
<path d="M154.369 20.6814C156.857 15.7562 162.897 13.7425 167.575 16.669C181.754 25.5398 193.753 37.5671 202.604 51.8636C213.212 69 218.885 88.7317 218.998 108.886C219.111 129.04 213.66 148.834 203.245 166.088C194.555 180.483 182.692 192.644 168.613 201.673C163.968 204.652 157.906 202.707 155.363 197.809V197.809C152.82 192.912 154.767 186.926 159.35 183.853C170.193 176.583 179.349 167.006 186.137 155.761C194.652 141.656 199.108 125.474 199.016 108.998C198.923 92.5217 194.286 76.3909 185.613 62.3817C178.7 51.2139 169.436 41.7399 158.512 34.5926C153.895 31.5713 151.881 25.6067 154.369 20.6814V20.6814Z" fill="#F3C10E"/>
<path d="M154.369 20.6814C156.857 15.7562 162.897 13.7426 167.575 16.6691C188.763 29.9232 204.874 50.0965 213.059 73.9217C221.244 97.7468 220.933 123.562 212.365 147.039C210.473 152.223 204.471 154.346 199.481 151.99V151.99C194.491 149.634 192.415 143.69 194.2 138.469C200.607 119.741 200.653 99.3118 194.16 80.4144C187.668 61.517 175.077 45.4299 158.513 34.5926C153.895 31.5714 151.881 25.6067 154.369 20.6814V20.6814Z" fill="#FFF0C9"/>
<path d="M154.369 20.6814C156.857 15.7562 162.897 13.7425 167.575 16.669C183.676 26.7417 196.885 40.8346 205.895 57.5542C208.512 62.4119 206.112 68.3085 201.036 70.4727V70.4727C195.96 72.6369 190.138 70.241 187.422 65.4377C180.387 52.9967 170.472 42.4176 158.513 34.5925C153.895 31.5713 151.881 25.6067 154.369 20.6814V20.6814Z" fill="#FFFCF6"/>
</svg>
