<svg width="48" height="48" viewBox="0 0 48 48" fill="none" xmlns="http://www.w3.org/2000/svg">
<path d="M26.5 25C32.299 25 37 20.299 37 14.5C37 8.70101 32.299 4 26.5 4C20.701 4 16 8.70101 16 14.5C16 20.299 20.701 25 26.5 25Z" stroke="#381805" stroke-width="1.5" stroke-linecap="round" stroke-linejoin="round"/>
<path d="M19.2608 8.33984L22.6408 9.64984C22.9313 9.76252 23.1687 9.98045 23.3058 10.2602C23.443 10.54 23.4697 10.8612 23.3808 11.1598L22.7508 13.3198C22.6648 13.6197 22.6941 13.9409 22.8329 14.2203C22.9717 14.4997 23.2099 14.7171 23.5008 14.8298L24.9508 15.3798C25.1717 15.4643 25.3641 15.6096 25.5057 15.799C25.6473 15.9884 25.7323 16.2141 25.7508 16.4498L26.0008 20.6698C26.013 20.836 25.9916 21.0028 25.9379 21.1605C25.8842 21.3182 25.7993 21.4634 25.6882 21.5875C25.5771 21.7117 25.4422 21.8122 25.2915 21.883C25.1407 21.9538 24.9772 21.9936 24.8108 21.9998H24.4508C24.211 21.9993 23.9764 21.9302 23.7744 21.8009C23.5725 21.6716 23.4116 21.4874 23.3108 21.2698L22.1808 18.7298C22.0816 18.5131 21.9226 18.3292 21.7224 18.1999C21.5221 18.0705 21.2891 18.0011 21.0508 17.9998H20.1008C19.9073 18.0026 19.7159 17.9596 19.5422 17.8745C19.3684 17.7894 19.2172 17.6644 19.1008 17.5098L16.8008 14.5098" stroke="#381805" stroke-width="1.5" stroke-linecap="round" stroke-linejoin="round"/>
<path d="M33.7405 7L30.6605 9.13C30.4261 9.29154 30.2545 9.5288 30.1744 9.80193C30.0942 10.0751 30.1105 10.3675 30.2205 10.63L30.5605 11.47C30.6467 11.6791 30.6745 11.9076 30.641 12.1313C30.6076 12.3549 30.5141 12.5653 30.3705 12.74L29.0005 14.43C28.8725 14.5852 28.7839 14.7689 28.7421 14.9656C28.7003 15.1623 28.7066 15.3662 28.7605 15.56C28.8471 15.8719 29.0531 16.137 29.3339 16.298C29.6147 16.459 29.9476 16.5028 30.2605 16.42L33.3505 15.64C33.6211 15.5775 33.9046 15.602 34.1605 15.71L36.2605 16.64" stroke="#381805" stroke-width="1.5" stroke-linecap="round" stroke-linejoin="round"/>
<path d="M33.08 33.7102L40.9 32.0502C41.2977 31.9574 41.7153 32.0065 42.0805 32.1891C42.4458 32.3718 42.7357 32.6764 42.9 33.0502C43.0012 33.4481 42.9558 33.8691 42.7722 34.2363C42.5886 34.6035 42.279 34.8924 41.9 35.0502L28.25 40.7902C25.9205 41.6058 23.4681 42.0151 21 42.0002C19.4994 42.0162 18.0032 41.8346 16.55 41.4602L15 41.0002" stroke="#381805" stroke-width="1.5" stroke-linecap="round" stroke-linejoin="round"/>
<path d="M15 42L12 44L5 31L8 29L15 42Z" stroke="#381805" stroke-width="1.5" stroke-linecap="round" stroke-linejoin="round"/>
<path d="M21 36H30.5C31.163 36 31.7989 35.7366 32.2678 35.2678C32.7366 34.7989 33 34.163 33 33.5C33 32.837 32.7366 32.2011 32.2678 31.7322C31.7989 31.2634 31.163 31 30.5 31H24L23.15 30.36C21.1061 28.8307 18.6227 28.0029 16.07 28C14.4547 28.0085 12.8583 28.3489 11.38 29L9 30" stroke="#381805" stroke-width="1.5" stroke-linecap="round" stroke-linejoin="round"/>
</svg>
