<svg width="60" height="60" viewBox="0 0 60 60" fill="none" xmlns="http://www.w3.org/2000/svg">
<g clip-path="url(#clip0_635_10545)">
<rect width="60" height="60" fill="#F5F5F5"/>
<path d="M44.5312 0H15.4688C11.3662 0 7.43165 1.62974 4.53069 4.53069C1.62974 7.43165 0 11.3662 0 15.4688L0 44.5312C0 48.6338 1.62974 52.5684 4.53069 55.4693C7.43165 58.3703 11.3662 60 15.4688 60H44.5312C48.6338 60 52.5684 58.3703 55.4693 55.4693C58.3703 52.5684 60 48.6338 60 44.5312V15.4688C60 11.3662 58.3703 7.43165 55.4693 4.53069C52.5684 1.62974 48.6338 0 44.5312 0ZM45.1547 30.9117H43.9242V43.4895C43.9242 44.1269 43.671 44.7382 43.2202 45.189C42.7695 45.6397 42.1582 45.893 41.5207 45.893H34.6348V37.7695C34.6348 36.5403 34.1465 35.3614 33.2773 34.4923C32.4081 33.6231 31.2292 33.1348 30 33.1348C28.7708 33.1348 27.5919 33.6231 26.7227 34.4923C25.8535 35.3614 25.3652 36.5403 25.3652 37.7695V45.893H18.4793C17.8418 45.893 17.2305 45.6397 16.7798 45.189C16.329 44.7382 16.0758 44.1269 16.0758 43.4895V30.9117H14.8406C12.5859 30.9117 11.5594 28.0992 13.2902 26.6461L26.9121 15.2344C27.7774 14.5085 28.8706 14.1107 30 14.1107C31.1294 14.1107 32.2226 14.5085 33.0879 15.2344L46.7098 26.6508C48.4383 28.0945 47.4141 30.9117 45.1594 30.9117H45.1547Z" fill="#F3C10E"/>
</g>
<defs>
<clipPath id="clip0_635_10545">
<rect width="60" height="60" fill="white"/>
</clipPath>
</defs>
</svg>
