<svg width="400" height="400" viewBox="0 0 400 400" fill="none" xmlns="http://www.w3.org/2000/svg">
<mask id="mask0_4539_882" style="mask-type:luminance" maskUnits="userSpaceOnUse" x="0" y="0" width="400" height="400">
<path d="M400 0H0V400H400V0Z" fill="white"/>
</mask>
<g mask="url(#mask0_4539_882)">
<path d="M910.479 -173.568H-389.633V1043.67H910.479V-173.568Z" fill="white" stroke="#381805" stroke-width="0.5"/>
<path d="M198.399 323.824L178.688 306.728L193.392 258.264L222.912 249.168L278.399 265.736L292 260.264L293.104 334.304L306.704 335.104L294.896 366.224L310.704 380.24L301.495 403.496L273.784 379.496L247.063 374.104H246.967V373.408L198.399 323.824Z" fill="#E7E7E7" stroke="#381805" stroke-width="0.5"/>
<path d="M330.098 130.151L400.738 223.351L387.434 276.287L398.442 288.927L389.538 321.287L417.25 332.607L432.362 358.023L385.034 379.279L366.818 318.895L380.802 300.799L362.794 255.799L344.586 250.559L342.682 225.759L310.866 184.159L288.154 195.871L275.242 179.687L285.354 172.135L267.242 103.439L330.098 130.151Z" fill="#E7E7E7" stroke="#381805" stroke-width="0.5"/>
<path d="M480.885 -22.4874L485.789 4.59261L468.077 30.7446L468.797 43.2006L397.933 50.4006L411.045 96.8006L404.037 120.001L367.237 122.001L347.629 90.8006L325.693 81.6006L277.061 52.5766L255.461 19.8646L300.797 18.6326L317.597 5.44061L395.837 -11.9194L424.549 -30.9754L476.981 -31.7754L480.885 -22.4874Z" fill="#E7E7E7" stroke="#381805" stroke-width="0.5"/>
<path d="M613.265 91.9992H613.361L639.761 138.031L691.201 166.399L648.473 179.119L571.129 215.423L551.929 235.071L541.122 204.239L522.722 211.479L502.105 188.359L472.801 179.263L456.889 166.231L418.866 163.071L404.041 119.999L411.049 96.8632L397.938 50.3992L468.801 43.1992L468.105 30.7832L554.953 84.5432L579.665 107.831L613.265 91.9992Z" fill="#E7E7E7" stroke="#381805" stroke-width="0.5"/>
<path d="M325.19 -128.225L323.998 -74.8888L376.534 -53.4328L404.35 -60.9928L403.75 -40.7048L424.55 -30.9768L395.838 -11.9208L317.598 5.43922L300.798 18.6312L255.47 19.8632L222.734 -4.28078L263.862 -45.3288L277.766 -94.4008L306.398 -137.801L325.19 -128.225Z" fill="#E7E7E7" stroke="#381805" stroke-width="0.5"/>
<path d="M325.695 81.5996L347.607 90.7756L367.215 121.976L404.015 119.976L418.823 163.072L456.847 166.232L472.799 179.264L457.167 223.2L400.735 223.352L330.095 130.152L325.695 81.5996Z" fill="#E7E7E7" stroke="#381805" stroke-width="0.5"/>
<path d="M551.926 235.064L528.798 281.688L495.078 289.392L471.078 326.832L432.358 358.032L417.246 332.616L389.534 321.296L398.438 288.936L387.43 276.296L400.734 223.36L457.166 223.208L472.798 179.264L502.11 188.36L522.726 211.48L541.126 204.24L551.926 235.064Z" fill="#E7E7E7" stroke="#381805" stroke-width="0.5"/>
<path d="M385.032 379.28L345.832 426.256L317.216 423.792L301.504 403.464L310.712 380.208L294.88 366.192L306.688 335.072L293.088 334.272L292 260.264L325.72 226.896L342.728 225.744L344.632 250.544L362.84 255.784L380.8 300.8L366.792 318.904L385.032 379.28Z" fill="#E7E7E7" stroke="#381805" stroke-width="0.5"/>
<path d="M275.266 179.648L288.178 195.832L310.89 184.12L342.706 225.72L325.698 226.872L292.002 260.264L278.402 265.736L222.97 249.168L193.45 258.264L163.738 271.128L133.602 257.032L150.314 200.92L173.122 191.32L187.202 166.776L216.122 161.76L227.922 141.336L275.266 179.648Z" fill="#E7E7E7" stroke="#381805" stroke-width="0.5"/>
<path d="M471.081 326.832L518.281 347.088L523.689 391.76L565.009 426.568L577.921 450.744L543.121 482.608L535.201 524.64L547.609 545.496L551.009 600.2L498.281 617.128L460.361 601.128L427.137 604.328L386.617 627.792L346.289 624.336L338.689 582.176L359.297 550.544L324.977 522.304L344.289 512.992L363.705 467.728L345.793 426.232L384.993 379.256L432.321 358L471.081 326.832Z" fill="#E7E7E7" stroke="#381805" stroke-width="0.5"/>
<path d="M222.736 -4.28022L255.456 19.8638L277.056 52.5758L325.696 81.5998L330.096 130.176L267.264 103.424L220.232 65.6878L205.328 53.2638L164.528 47.9438L141.392 21.1038L117.672 12.7998L151.2 -30.8242H176L209.432 1.35178L222.736 -4.28022Z" fill="#E7E7E7" stroke="#381805" stroke-width="0.5"/>
<path d="M306.395 -137.8L277.763 -94.4001L263.859 -45.3281L222.731 -4.28012L209.427 1.31987L175.995 -30.8241H151.195L186.915 -113.792L206.219 -133.6L207.923 -133.208L208.019 -133.136L222.931 -125.184L245.243 -144.328L264.443 -134.368L306.395 -137.8Z" fill="#E7E7E7" stroke="#381805" stroke-width="0.5"/>
<path d="M266.783 103.543L284.879 172.183L274.783 179.727L227.495 141.447L215.695 161.863L186.807 166.871L172.711 191.359L164.711 133.663L187.911 100.231L179.615 88.3673L219.807 65.8633L266.783 103.543Z" fill="#E7E7E7" stroke="#381805" stroke-width="0.5"/>
<path d="M219.8 65.8642L179.608 88.3682L187.904 100.232L164.704 133.664L162.704 104.624L125.016 65.4242L84.3359 62.3202L117.32 12.9922L141.016 21.3202L164.112 48.1362L204.912 53.4562L219.8 65.8642Z" fill="#E7E7E7" stroke="#381805" stroke-width="0.5"/>
<path d="M164.712 133.664L172.712 191.36L149.912 200.96L133.216 257.016L131.416 256.088L99.4157 248.544L87.1118 208.808L73.7357 221.392L38.3438 212.928L74.5357 167.712L65.7357 120.96L84.3358 62.3203L125.024 65.4003L162.712 104.6L164.712 133.664Z" fill="#E7E7E7" stroke="#381805" stroke-width="0.5"/>
<path d="M194.924 479.424L154.924 448.424L122.476 437.128L107.996 448.576L95.0439 401.6L72.8359 406.784L98.0599 378.712L94.7399 358.136L123.54 342.664L140.42 351.56L157.308 314.656L198.708 323.712L247.436 373.448V374.144H247.54L215.196 384.544L153.724 370.4L173.42 421.6L202.164 414.944L209.5 440L194.924 479.424Z" fill="#E7E7E7" stroke="#381805" stroke-width="0.5"/>
<path d="M247.583 374.104L274.399 379.52L302.231 403.648L318.007 424.064L346.743 426.536L364.735 468.216L345.239 513.664L325.847 523.016L360.311 551.384L339.615 583.144L347.247 625.48L276.607 635.296L253.711 604.16L232.311 619.848L180.959 611.424L154.839 572.48L166.399 534.304L194.935 479.424L209.503 440L202.167 414.944L173.423 421.6L153.727 370.4L215.199 384.544L247.583 374.104Z" fill="#E7E7E7" stroke="#381805" stroke-width="0.5"/>
<path d="M42.0876 368.072L44.1996 392.36L72.8396 406.76L95.0476 401.6L108 448.576L122.472 437.128L154.928 448.424L135.84 468.52L85.6956 459.48L65.5996 444.632L1.09556 450.584L-16.1924 444.944L-48.6484 382.304L-15.5844 337.288L23.5036 336.488L42.0876 368.072Z" fill="#E7E7E7" stroke="#381805" stroke-width="0.5"/>
<path d="M131.823 255.655L116.151 270.279L56.1513 274.231L42.0873 368.071L23.5033 336.511L-15.5847 337.311L-40.3047 323.767L9.53532 274.023L17.5353 240.975L38.2713 212.239L73.8473 220.751L87.3113 208.135L99.6713 248.071L131.823 255.655Z" fill="#E7E7E7" stroke="#381805" stroke-width="0.5"/>
<path d="M133.598 256.584L163.846 270.744L193.694 257.824L178.918 306.496L198.718 323.672L157.318 314.616L140.462 351.52L123.582 342.624L94.7819 358.096L98.1019 378.672L72.8379 406.744L44.1979 392.344L42.0859 368.056L56.1579 274.232L116.158 270.28L131.83 255.656L133.598 256.584Z" fill="#E7E7E7" stroke="#381805" stroke-width="0.5"/>
</g>
</svg>
