<svg width="211" height="175" viewBox="0 0 211 175" fill="none" xmlns="http://www.w3.org/2000/svg">
<g clip-path="url(#clip0_4501_2646)">
<path d="M89.8095 71.1392L89.6295 65.4532C89.7742 65.0755 89.8207 64.6676 89.7648 64.2672C89.7089 63.8668 89.5523 63.4869 89.3095 63.1629C89.4444 62.531 89.3417 61.8717 89.021 61.3101C88.7003 60.7485 88.1839 60.3235 87.5695 60.1158C80.2595 56.4911 79.8595 47.9572 86.7295 43.5658C88.8795 42.2015 89.7295 41.2456 86.7295 40.0905C86.4333 40.0044 86.1743 39.8227 85.9932 39.5739C85.8122 39.3251 85.7194 39.0234 85.7295 38.7163C85.7635 38.3488 85.923 38.0039 86.1814 37.7394C86.4398 37.4748 86.7815 37.3064 87.1495 37.2624C88.9388 36.8645 90.7919 36.8442 92.5895 37.2027C93.8895 37.4716 94.9895 38.1985 93.7195 39.742C92.4495 41.2854 92.7195 42.2015 94.7195 42.7293C95.965 43.1646 97.178 43.687 98.3495 44.2927C98.6196 43.9669 98.7935 43.5728 98.8517 43.1543C98.91 42.7358 98.8504 42.3094 98.6795 41.9227C97.7395 38.069 99.4895 35.5497 102.42 33.3092C105.18 31.1981 108 30.0131 111.54 30.8296C113.43 31.2678 115.39 31.3574 117.31 31.6761C122.74 32.5723 122.64 32.5922 122.99 37.8002C123.41 43.9541 123.99 50.0882 124.5 56.2322C124.63 57.9649 125.23 58.7914 127.14 58.891C129.561 59.0726 131.964 59.4388 134.33 59.9863C135.8 60.2851 136.26 59.5283 136.73 58.4429C137.819 55.7435 139.222 53.1802 140.91 50.8052C143.16 47.8178 145.3 47.6087 147.36 50.5463C152.194 57.1282 155.332 64.7908 156.5 72.8619C156.91 76.0285 155.5 78.2093 152.5 79.4242C150.789 80.0612 149.016 80.5184 147.21 80.7884C145.76 81.0572 144.89 81.6248 144.88 83.3974C144.87 85.1699 145.88 85.5781 147.33 85.8171C156.23 87.1738 165.019 89.1706 173.63 91.7919C181.447 94.1504 188.946 97.451 195.96 101.62C200.06 104.024 203.642 107.212 206.5 111.001C211.09 117.354 211.1 124.135 206.56 130.608C203.13 135.497 198.36 138.843 193.25 141.751C182.99 147.606 171.8 150.932 160.33 153.381C134.52 158.888 108.46 160.033 82.1895 157.853C63.5495 156.299 45.1895 153.212 27.7795 146.202C21.0895 143.513 14.6795 140.297 9.18953 135.537C5.34953 132.211 2.18953 128.407 1.24953 123.249C0.880274 121.296 0.934616 119.287 1.40891 117.356C1.8832 115.426 2.76648 113.619 3.99953 112.056C13.1095 99.4893 26.8095 94.9684 40.6595 90.6168C45.2795 89.1729 45.1595 89.3024 44.7595 84.6421C44.3195 79.6631 44.0695 74.5946 42.4995 69.7052C42.0495 68.351 42.7095 67.4846 43.8995 66.7179C48.4495 63.9098 52.8995 61.012 57.4795 58.184C58.1695 57.7558 58.8895 57.0289 59.8095 57.467C65.2295 60.076 71.2795 60.305 76.9295 62.0178C78.0895 62.3663 79.2795 62.6053 80.4595 62.8841C87.2595 64.5072 87.2595 64.5072 88.3795 71.1292C88.3795 74.495 88.3795 77.8608 88.4395 81.2265C88.4395 81.9136 88.3295 82.7899 89.3495 82.8795C90.5695 82.9791 90.7095 82.0929 90.6495 81.1967C90.3795 77.8707 90.0895 74.505 89.8095 71.1392ZM157.21 134.432C156.92 135.796 156.21 137.548 154.99 137.419C152.26 137.13 150.99 139.082 149.27 140.327C144.96 143.483 140.8 146.859 136.56 150.115C135.74 150.743 134.81 152.107 133.77 151.24C132.06 149.896 130.28 150.523 128.55 150.563C123.68 150.663 118.81 151.001 113.94 151.131C111.38 151.201 109.48 150.753 110.23 147.217C110.542 145.173 110.286 143.083 109.49 141.173C108.88 139.59 106.85 140.665 105.49 140.287C103.62 139.759 102.83 138.624 103.77 136.772C104.54 135.258 105.43 133.784 106.25 132.33C106.8 131.335 107.64 130.538 106.25 129.243C104.86 127.949 104.25 128.118 102.86 128.905C98.7895 131.315 94.6395 133.605 90.5195 135.955C86.2295 138.395 86.0495 140.984 89.9895 144.25C94.0995 147.666 98.2895 151.001 102.36 154.467C103.809 155.757 105.707 156.433 107.65 156.349C122.402 156.327 137.125 155.021 151.65 152.445C165.44 149.906 179.01 146.471 191.46 139.729C192.66 139.072 194.07 138.614 194.9 137.011C191.2 136.104 187.79 135.338 184.42 134.432C181.05 133.525 177.49 132.091 174.57 135.686C174.053 136.215 173.366 136.546 172.63 136.622C169.32 136.971 168.63 138.952 168.94 141.85C169.06 142.906 169.41 144.718 167.52 144.539C165.87 144.37 166.42 142.717 166.4 141.551C166.388 141.187 166.422 140.822 166.5 140.466C167.1 137.967 165.8 136.891 163.5 136.672C162.587 136.637 161.691 136.415 160.868 136.019C160.046 135.623 159.314 135.062 158.72 134.372C158.162 132.667 157.865 130.887 157.84 129.094C157.864 128.914 157.848 128.731 157.792 128.557C157.736 128.384 157.641 128.226 157.515 128.094C157.39 127.962 157.236 127.86 157.065 127.795C156.895 127.731 156.712 127.705 156.53 127.72C155.4 127.72 155.84 128.716 155.74 129.333C155.5 131.255 157.42 132.559 157.21 134.432ZM144.37 91.4234C144.213 91.4517 144.053 91.4482 143.899 91.4129C143.744 91.3776 143.598 91.3114 143.47 91.2183C143.342 91.1251 143.234 91.007 143.153 90.8711C143.072 90.7352 143.02 90.5843 143 90.4276C142.33 87.3208 141 87.2112 139 89.4318C138.654 89.7439 138.234 89.9632 137.78 90.0691C133.13 91.6226 129.02 94.2714 124.88 96.7708C121.907 98.6995 118.328 99.4755 114.82 98.9516C106.98 97.8064 99.3295 95.7252 91.6195 93.9726C89.1395 93.415 88.3195 93.9726 88.5595 96.5219C88.8595 99.7781 88.9195 103.044 89.0895 106.31C89.0895 107.027 89.0095 107.884 89.7195 108.302C91.8495 109.527 92.0895 111.887 92.9795 113.769C95.2695 118.579 91.8495 124.832 86.5795 124.633C83.3195 124.523 82.1095 125.848 80.3795 127.879C77.6895 131.046 72.4895 132.091 71.0895 129.592C69.2995 126.386 67.1695 125.609 63.9695 126.007C63.8595 126.007 63.7395 125.928 63.6295 125.898C55.3395 123.747 47.2495 120.849 38.7995 119.325C36.5595 118.917 34.9295 117.404 32.7995 116.806C25.5295 114.815 18.3295 112.514 11.0895 110.343C8.08953 109.437 6.65953 110.104 5.51953 113.072C5.12953 114.068 4.81953 115.133 4.51953 116.169C3.25953 120.013 3.37953 120.311 7.26953 121.646C18.9095 125.629 30.5595 129.542 42.1895 133.515C46.9195 135.129 47.3095 136.901 43.6895 140.287C42.8191 140.942 41.896 141.525 40.9295 142.029C39.0395 143.264 36.7595 143.931 34.8695 145.853C41.2417 148.164 47.776 150.004 54.4195 151.36C56.6605 151.927 59.0346 151.613 61.0495 150.484C64.5195 148.592 65.9895 148.89 68.5595 152.107C69.0871 152.838 69.7898 153.425 70.6037 153.817C71.4175 154.208 72.3168 154.39 73.2195 154.347C74.5495 154.347 75.8695 154.716 77.2195 154.815C84.2795 155.363 91.3495 155.871 98.6595 156.409C98.1495 154.487 96.9695 153.949 96.0895 153.192C92.6795 150.205 89.1895 147.417 85.7995 144.469C82.8895 141.93 82.7995 139.062 85.5195 136.383C86.6759 135.312 87.9547 134.379 89.3295 133.605C93.4195 131.205 97.4895 128.736 101.72 126.635C104.33 125.31 105.32 123.647 105.29 120.66C105.248 115.066 106.624 109.552 109.29 104.628C111.6 100.286 114.29 99.8478 118.07 102.875C118.39 103.134 118.6 103.761 119.2 103.353C121.95 99.2304 124.85 98.9914 128.2 102.616C128.735 103.113 129.187 103.691 129.54 104.329C131.03 107.665 133.09 107.894 136.39 106.48C142.81 103.741 143.39 104.08 148.16 109.467C151.33 113.082 154.99 116.229 157.92 120.421C159.2 117.155 160.23 114.366 161.4 111.618C162.06 110.055 161.14 109.686 159.97 109.437C157.35 108.88 154.72 108.441 152.1 107.834C148.55 107.077 147.47 104.379 149.3 101.302C151.13 98.2247 154.3 96.5318 157.39 94.7792C158.97 93.8631 160.89 93.3055 162.05 91.284C160.78 90.9255 159.88 90.6069 158.95 90.4276C154.42 89.5712 149.89 88.7547 145.54 87.9581C144.36 89.0534 145.55 90.6168 144.37 91.4234ZM45.9595 72.135C46.8295 82.4912 47.6595 92.2798 48.5195 102.427C49.2253 101.786 50.0734 101.32 50.9944 101.067C51.9155 100.814 52.8836 100.782 53.8195 100.973C57.8195 101.819 61.9295 102.507 65.9695 103.293C67.8495 103.662 68.5495 104.747 68.9695 106.759C69.7295 110.652 67.4295 112.803 64.9095 115.143C67.0095 116.418 69.2495 116.497 71.2295 117.294C73.2095 118.091 73.8595 117.543 73.7095 115.442C72.9495 104.568 73.0695 93.6739 73.0895 82.78C73.0895 81.0672 72.5795 79.932 70.9795 79.454C62.8295 77.0542 54.6895 74.6842 45.9595 72.135ZM206.68 117.065C206.393 116.195 206.059 115.34 205.68 114.506C203.05 109.656 198.89 106.32 194.31 103.492C186.5 98.6628 177.96 95.5958 169.19 93.0266C168.804 92.8448 168.387 92.7414 167.961 92.7226C167.535 92.7038 167.109 92.7699 166.71 92.9171C161.79 95.536 156.71 97.896 152.38 101.471C150.53 103.034 150.95 104.359 153.38 105.016C156.53 105.882 159.76 106.47 162.93 107.266C163.404 107.36 163.894 107.334 164.356 107.19C164.817 107.045 165.235 106.787 165.57 106.44C168.04 104.558 170.13 105.185 171.79 107.535C172.158 108.148 172.649 108.678 173.232 109.092C173.815 109.507 174.478 109.797 175.18 109.945C185.5 112.206 195.71 114.576 206.68 117.065ZM120.58 116.069C125.46 121.715 130.33 127.272 135.09 132.938C136.22 134.282 136.97 133.794 138.09 133.067C143.26 129.672 148.3 126.017 154.39 124.334C156.9 123.647 155.8 122.343 154.97 121.168C151.75 116.418 147.25 112.793 143.57 108.451C143.225 108.011 142.743 107.697 142.2 107.56C141.657 107.423 141.083 107.471 140.57 107.695C134.57 109.935 128.57 112.176 122.57 114.486C121.833 114.932 121.163 115.478 120.58 116.109V116.069ZM106.27 137.638C112.13 138.315 112.13 138.315 112.61 144.18C112.654 144.664 112.674 145.149 112.67 145.634C112.57 147.486 113.39 148.243 115.29 148.134C118.57 147.934 121.87 148.054 125.14 147.775C131.2 147.257 131.25 147.168 130.84 141.054C130.68 138.634 130.23 136.244 133.84 135.736C128.99 130.04 124.43 124.683 119.84 119.335C119.2 118.579 118.59 117.643 117.66 119.057C113.73 125.151 109.75 131.195 106.27 137.678V137.638ZM207.27 122.273C207.57 120.69 206.78 119.953 205.39 119.644C195.896 117.526 186.406 115.402 176.92 113.271C175.2 112.873 174.68 113.271 175.22 115.093C176.619 119.343 177.489 123.747 177.81 128.208C177.89 129.851 179.05 130.12 180.23 130.409C185.67 131.753 191.1 133.057 196.54 134.392C197.54 134.621 198.54 134.969 199.37 134.342C203.41 131.285 206.5 127.531 207.24 122.313L207.27 122.273ZM76.0695 115.8C79.4395 114.635 81.3795 111.996 84.1995 110.951C86.5795 110.065 87.0895 108.531 86.9095 106.191C86.0195 94.6099 86.2695 82.999 86.1595 71.3981C86.1595 70.6512 86.6095 69.7052 85.5095 69.0381C84.7702 69.8054 83.9783 70.5208 83.1395 71.179C76.6795 75.6003 74.3695 81.3958 75.1395 89.3323C76.0595 97.9458 75.1695 106.709 76.0695 115.8ZM84.9995 66.3594C76.2595 64.2782 68.1495 62.3762 59.9995 60.4444C59.2989 60.2528 58.5532 60.3091 57.8895 60.6037C54.3995 62.7347 50.8795 64.9255 47.4995 67.3253C46.0895 68.3211 45.3295 69.7152 48.0995 70.482C55.7995 72.613 63.4595 74.8933 71.0995 77.2035C71.5894 77.4449 72.1435 77.5258 72.6823 77.4346C73.2212 77.3434 73.7173 77.0847 74.0995 76.6957C77.5695 73.3498 81.0995 70.0538 84.9995 66.3594ZM99.8195 90.5172C100.27 89.0403 100.27 87.4634 99.8195 85.9864C99.3895 83.9251 100.39 83.2281 102.19 83.5368C105.3 84.0645 108.38 84.7317 111.45 85.4088C113.07 85.7673 113.35 87.032 113.45 88.4858C113.427 90.0558 113.588 91.6231 113.93 93.1561C114.65 95.7352 117.32 94.9784 119.11 95.6754C120.18 96.0937 120.42 94.8191 120.49 94.0125C120.936 89.08 121.353 84.1442 121.74 79.2051C121.88 77.2932 121.04 76.4368 118.98 76.2874C115.59 76.0484 112.24 75.441 108.86 75.0128C104.65 74.4751 100.43 73.9274 96.2095 73.4594C94.9095 73.31 93.2095 73.0312 93.8495 75.3016C94.8495 78.6076 94.6895 82.063 94.7795 85.3889C94.8595 89.1331 96.1495 90.6168 99.8195 90.5172ZM4.36953 123.657C4.81499 126.186 6.00543 128.525 7.78953 130.379C11.9695 135.288 17.5195 138.265 23.0495 141.392C28.0995 144.25 32.6295 144.828 37.3695 141.014C39.0595 139.659 41.4295 139.132 42.7495 136.732L4.36953 123.657ZM115.37 68.1817C116.03 59.9266 114.52 52.1296 114.7 44.2828C114.756 43.923 114.73 43.5554 114.624 43.2069C114.519 42.8584 114.336 42.538 114.089 42.2693C113.842 42.0007 113.538 41.7907 113.199 41.6549C112.86 41.5191 112.494 41.4609 112.13 41.4846C109.47 41.3153 106.81 41.0265 104.13 40.7079C102.22 40.4689 101.45 41.1261 101.77 43.0878C102.62 48.2062 102.77 53.4042 103.23 58.5624C103.88 65.5329 103.96 65.5329 110.9 67.2456C112.29 67.5942 113.72 67.8531 115.33 68.1817H115.37ZM137.62 68.6398C136.9 71.4678 137.94 74.2261 139.98 76.6758C140.47 77.2732 140.82 78.3487 141.9 77.8807C142.65 77.5521 142.64 76.6957 142.64 75.9588C142.64 72.6926 142.64 69.4264 142.64 66.1602C142.64 65.1645 141.97 63.372 143.91 63.382C145.54 63.382 145.51 64.9055 145.52 66.1304C145.52 69.1177 145.58 72.1748 145.52 75.202C145.52 76.7256 145.95 77.8309 147.46 78.2591C149.88 78.9462 154.12 75.6899 153.81 73.2005C152.87 65.7321 149.29 59.2594 145.64 52.8465C144.96 51.6416 143.64 51.074 142.84 52.747C140.44 57.696 136.75 62.2368 137.58 68.6398H137.62ZM169.72 134.81C175.12 132.818 175.35 132.46 174.87 127.839C174.82 127.351 174.87 126.844 174.87 126.386C174.391 121.225 173.06 116.178 170.93 111.449C169.17 107.685 167.83 107.525 165.38 110.911C163.131 114.205 161.617 117.94 160.94 121.865C160.29 125.081 159.89 128.218 160.8 131.494C161.5 134.033 163.28 133.725 165.1 133.675C167.23 133.625 166.76 132.012 166.81 130.757C166.776 128.584 166.853 126.41 167.04 124.245C167.16 123.378 167.04 121.646 168.51 121.735C169.98 121.825 169.74 123.289 169.74 124.354C169.69 127.74 169.68 131.126 169.68 134.81H169.72ZM33.7195 114.197C32.8595 109.218 34.6095 105.056 35.9895 100.863C36.8095 98.384 35.7595 98.0454 33.9295 97.5077C32.6651 97.0887 31.3279 96.9318 30.0003 97.0465C28.6726 97.1613 27.3826 97.5452 26.2095 98.1749C21.0295 100.863 15.2095 102.576 11.0095 107.436L33.7195 114.197ZM94.4995 71.0894L120.03 74.2162C120.85 74.3257 121.7 74.7738 122.47 74.1465C126.24 71.0994 130.07 68.1717 133.7 64.9255C134.97 63.8102 135.08 62.2468 132.77 61.8783C130.77 61.5597 128.69 61.3307 126.64 61.1116C125.96 61.0419 125.31 60.9622 124.96 61.958C123.82 65.264 120.52 66.5785 118.32 68.9285C115.32 72.1549 112.24 69.1974 109.21 69.2173C108.359 69.2347 107.51 69.1512 106.68 68.9684C104.2 68.351 101.5 68.112 100.4 65.2342C98.0395 66.8772 95.9695 68.3311 94.4995 71.0894ZM133.1 68.7095C132.121 69.5475 131.093 70.3257 130.02 71.0396C125.81 73.5291 123.46 76.8251 123.83 81.9933C124.1 85.7275 123.41 89.5314 123.83 93.6142C127.24 91.4035 129.95 88.9538 133.16 87.2212C134.78 86.3548 137.64 86.1159 136.41 83.0887C135.53 80.9378 137.54 78.3188 136.25 76.9247C134.08 74.5647 133.83 71.7964 133.1 68.7095ZM153.1 127.999C151.037 128.326 149.083 129.139 147.4 130.369C144.3 132.271 141.33 134.352 138.22 136.224C135.11 138.096 132.22 140.207 133.85 144.658C134.16 145.515 133.48 146.73 134.46 147.317C135.66 148.064 136.46 146.978 137.31 146.321C141.31 143.224 145.15 139.799 149.41 137.06C152.89 134.77 154.61 132.281 153.07 127.949L153.1 127.999ZM107.43 123.02C107.82 124.354 106.85 126.356 108.68 126.854C110.51 127.351 110.87 125.35 111.61 124.175C113.335 121.132 115.214 118.177 117.24 115.322C119.87 111.977 118.06 109.069 116.94 106.052C116.751 105.468 116.387 104.957 115.897 104.586C115.407 104.215 114.814 104.004 114.2 103.98C112.76 103.98 112.48 105.125 111.96 106.032C108.89 111.26 108.33 117.155 107.4 122.98L107.43 123.02ZM91.5495 44.9898C90.6383 44.9653 89.7316 45.1252 88.8843 45.4597C88.0369 45.7943 87.2665 46.2964 86.6196 46.9359C85.9728 47.5754 85.4629 48.3389 85.1208 49.1803C84.7787 50.0216 84.6116 50.9233 84.6295 51.8308C84.6295 55.1866 87.3295 57.696 91.7695 58.0246C95.2995 58.2935 98.6595 54.8082 98.5995 51.3728C98.4862 49.6057 97.6873 47.9518 96.3716 46.7607C95.056 45.5695 93.3268 44.9345 91.5495 44.9898ZM43.0995 113.341C45.5595 111.728 45.7495 110.114 44.8295 108.362C44.3795 107.485 43.5295 106.709 44.5495 105.832C46.9195 103.841 45.8895 101.122 45.9795 98.6927C46.0495 96.8405 45.6195 94.8788 43.3295 94.5701C41.2195 94.2813 40.4095 96.024 39.7795 97.5575C38.2861 101.364 37.1676 105.306 36.4395 109.328C36.2062 110.39 36.1996 111.49 36.4201 112.555C36.6406 113.62 37.0833 114.628 37.7195 115.512C38.1495 116.089 38.7195 116.786 39.4495 116.637C40.3895 116.448 40.1595 115.522 40.1995 114.834C40.3295 112.325 39.8495 109.766 40.8395 107.316C41.0795 106.709 40.7895 105.653 41.8395 105.703C42.8895 105.753 43.0895 106.699 43.1095 107.595C43.1295 109.268 43.0995 110.951 43.0995 113.341ZM120.88 38.1188C117.07 41.6937 116.82 41.8032 116.88 43.8147C117.15 51.074 117.55 58.3234 117.88 65.7221C122.37 62.7347 122.36 62.7347 122.05 57.7558C121.98 56.5509 122.05 55.336 122.05 54.1411C121.71 49.0028 121.31 43.8645 120.88 38.1188ZM101.59 37.2923C104.69 37.84 107.31 38.2383 109.9 38.776C115.56 39.971 116.9 39.3934 119.81 34.1755C117.391 33.9746 114.989 33.612 112.62 33.0901C107.98 31.7557 104.74 33.6178 101.59 37.2923ZM65.4995 105.554C61.4995 104.727 57.7495 104.17 54.1595 103.164C51.8295 102.517 50.4495 103.612 49.0795 104.956C47.9995 106.012 47.7895 107.047 49.7195 107.495C51.7612 107.828 53.7692 108.342 55.7195 109.029C59.9995 110.881 62.8195 108.999 65.4995 105.554ZM111.6 92.0308C110.9 90.7463 112.07 88.2468 110.6 87.5597C108.25 86.4843 105.46 86.315 102.85 85.8171C102.676 85.81 102.503 85.8421 102.344 85.9111C102.184 85.9801 102.043 86.0841 101.93 86.2154C101.36 86.9523 102.93 91.4533 103.87 91.7421C105.96 92.3694 108.07 92.9171 110.17 93.4847C111.18 93.7635 111.84 93.5345 111.6 92.0308ZM73.3095 123.279C73.5325 123.536 73.6794 123.85 73.7342 124.186C73.7889 124.522 73.7492 124.866 73.6195 125.181C73.2095 125.928 71.7595 126.495 72.8895 127.491C74.0195 128.487 75.1395 127.909 76.2795 127.401C77.4808 126.833 78.5142 125.965 79.2795 124.882C79.9296 124.16 80.3072 123.236 80.3473 122.268C80.3875 121.299 80.0877 120.347 79.4995 119.574C78.9595 118.778 78.3095 118.389 77.3795 118.907C75.4995 119.943 73.7195 121.048 73.3095 123.279ZM90.6795 116.776C90.5195 115.382 90.5695 113.56 88.1895 113.381C86.1295 113.231 83.3495 116.099 83.4395 118.419C83.4995 119.903 83.8795 121.287 85.8595 121.407C86.4836 121.427 87.1054 121.322 87.6881 121.098C88.2708 120.875 88.8026 120.537 89.2519 120.105C89.7013 119.674 90.0592 119.157 90.3044 118.585C90.5496 118.013 90.6772 117.398 90.6795 116.776ZM60.5495 122.193C60.1895 119.774 61.8295 117.274 58.5495 116.099C54.5495 114.675 54.1295 114.775 50.7995 119.007C51.0636 119.243 51.3599 119.441 51.6795 119.594C54.4395 120.421 57.1995 121.217 60.5495 122.193ZM128.6 108.541C128.66 107.625 125.36 104.05 124.26 104.05C121.95 104.05 121.16 105.882 120.9 107.595C120.72 108.81 120.83 110.582 122.63 111.031C123.5 111.279 128.57 109.059 128.6 108.541ZM94.2495 65.9611C101.97 61.4302 100.5 62.7347 99.8295 56.76C98.8295 57.6164 97.9295 58.8113 96.8295 59.1798C93.1795 60.3747 93.3695 62.8144 94.2495 65.9611ZM92.8195 91.2143C93.1195 88.7248 93.1695 86.3748 90.1995 85.4785C89.0695 85.14 88.6695 85.9864 88.4995 87.1714C87.9895 90.6168 89.9795 91.1645 92.8195 91.2143ZM48.9995 109.995C52.3895 112.445 56.5595 112.823 60.6095 113.63C57.3395 110.752 53.1095 110.732 48.9995 109.995ZM65.1395 123.309C66.2172 123.702 67.3815 123.798 68.5095 123.587C70.0695 123.219 70.3495 121.855 70.8195 120.67C71.0795 120.032 70.8195 119.544 70.0995 119.306C68.7195 118.818 67.7995 119.505 67.0195 120.5C66.3895 121.317 65.3195 121.835 65.1395 123.309ZM66.9195 107.376C65.3895 108.661 64.0295 109.796 62.6795 110.951C61.9795 111.548 62.1895 112.225 62.5895 112.883C62.8395 113.321 63.2695 113.739 63.6895 113.291C65.1795 111.718 68.0795 110.891 66.9195 107.396V107.376ZM139.79 80.6589C139.99 82.2024 138.68 84.0645 141.03 84.9508C141.8 85.2396 142.42 84.9508 142.56 83.955C142.88 81.9734 142.13 80.7983 139.79 80.6589ZM33.9095 94.8091C34.6095 95.068 35.0195 95.1875 35.3995 95.3667C36.3995 95.8547 37.4595 96.243 38.2695 95.058C38.4195 94.829 38.4495 94.2415 38.2695 94.112C37.3795 93.3851 36.4795 93.8332 35.5795 94.2017C35.1695 94.3809 34.7095 94.5203 33.9095 94.8091ZM46.7495 116.507C46.6295 116.019 46.7495 115.193 45.9895 115.193C44.9895 115.193 44.5895 116.009 44.4895 116.836C44.3895 117.662 45.0695 117.752 45.6695 117.832C46.7595 117.971 46.7695 117.244 46.7495 116.507ZM53.1795 114.516C51.5595 114.207 50.6395 113.211 49.8195 114.516C49.7255 114.733 49.689 114.971 49.7136 115.206C49.7381 115.441 49.8228 115.667 49.9595 115.86C51.2095 116.786 51.6895 115.402 53.1795 114.516ZM62.7795 152.266C63.8595 153.262 64.7795 153.591 65.7795 152.933C65.1995 151.589 64.2395 151.609 62.7795 152.296V152.266Z" fill="#381805"/>
<path d="M144.371 91.4234C145.551 90.6268 144.371 89.0534 145.611 88.0078C149.961 88.8045 154.491 89.621 159.021 90.4774C159.951 90.6566 160.851 90.9753 162.121 91.3338C160.961 93.3253 159.041 93.9129 157.461 94.829C154.411 96.5816 151.271 98.1549 149.371 101.351C147.471 104.548 148.621 107.127 152.171 107.884C154.791 108.441 157.421 108.88 160.041 109.487C161.211 109.736 162.131 110.104 161.471 111.668C160.301 114.416 159.271 117.204 157.991 120.471C155.061 116.229 151.401 113.082 148.231 109.517C143.501 104.13 142.881 103.791 136.461 106.53C133.161 107.944 131.101 107.714 129.611 104.379C129.258 103.74 128.806 103.162 128.271 102.666C124.871 99.0412 121.971 99.2802 119.271 103.403C118.671 103.811 118.461 103.184 118.141 102.925C114.331 99.9374 111.671 100.336 109.361 104.677C106.695 109.602 105.319 115.116 105.361 120.71C105.361 123.697 104.361 125.32 101.791 126.684C97.5607 128.815 93.4907 131.285 89.4007 133.655C87.9949 134.42 86.6856 135.349 85.5007 136.423C82.7607 139.102 82.8707 141.97 85.7807 144.509C89.1707 147.496 92.6607 150.294 96.0707 153.232C96.9507 153.989 98.1307 154.527 98.6407 156.448C91.3307 155.911 84.2607 155.403 77.2007 154.855C75.8607 154.756 74.5407 154.377 73.2007 154.387C72.2943 154.426 71.3928 154.237 70.5786 153.839C69.7644 153.44 69.0637 152.845 68.5407 152.107C65.9707 148.89 64.5407 148.592 61.0307 150.484C59.0157 151.613 56.6417 151.927 54.4007 151.36C47.7496 150.038 41.2053 148.231 34.8207 145.953C36.7107 144.031 38.9907 143.364 40.8807 142.129C41.8471 141.625 42.7702 141.042 43.6407 140.386C47.2607 137.001 46.8707 135.228 42.1407 133.615C30.5107 129.632 18.8607 125.718 7.22066 121.745C3.33066 120.411 3.22066 120.112 4.47066 116.268C4.81066 115.273 5.12066 114.187 5.47066 113.171C6.61066 110.184 7.99066 109.537 11.0407 110.443C18.2807 112.614 25.4807 114.884 32.7507 116.906C34.8907 117.503 36.5207 119.017 38.7507 119.425C47.2007 120.949 55.2907 123.846 63.5807 125.997C63.6907 125.997 63.8107 126.117 63.9207 126.107C67.1207 125.698 69.2507 126.485 71.0407 129.692C72.4407 132.191 77.6407 131.145 80.3307 127.979C82.0607 125.987 83.2707 124.623 86.5307 124.733C91.8007 124.932 95.2207 118.678 92.9307 113.868C92.0407 111.986 91.8007 109.626 89.6707 108.402C88.9607 107.983 89.0807 107.127 89.0407 106.41C88.8707 103.144 88.8107 99.8776 88.5107 96.6214C88.2707 94.0921 89.0907 93.5145 91.5707 94.0722C99.2807 95.8248 106.931 97.906 114.771 99.0511C118.279 99.575 121.858 98.7991 124.831 96.8704C128.971 94.3709 133.081 91.7221 137.731 90.1687C138.185 90.0628 138.605 89.8435 138.951 89.5314C140.951 87.2909 142.261 87.4004 142.951 90.5272C142.982 90.6801 143.045 90.8251 143.134 90.9535C143.223 91.082 143.338 91.1913 143.47 91.2749C143.602 91.3585 143.75 91.4147 143.905 91.4402C144.06 91.4657 144.218 91.46 144.371 91.4234Z" fill="#ECECE7"/>
<path d="M158.789 134.432C159.384 135.122 160.116 135.683 160.938 136.079C161.761 136.475 162.657 136.697 163.569 136.732C165.839 136.951 167.139 138.026 166.569 140.526C166.492 140.882 166.458 141.247 166.469 141.611C166.469 142.756 165.939 144.409 167.589 144.599C169.479 144.778 169.129 142.965 169.009 141.91C168.699 139.012 169.389 137.031 172.699 136.682C173.436 136.606 174.123 136.275 174.639 135.746C177.559 132.151 181.009 133.555 184.489 134.491C187.969 135.427 191.269 136.164 194.969 137.07C194.139 138.674 192.729 139.132 191.529 139.789C179.079 146.54 165.529 149.966 151.719 152.505C137.195 155.081 122.472 156.387 107.719 156.409C105.777 156.493 103.879 155.817 102.429 154.527C98.3594 151.061 94.1694 147.725 90.0594 144.31C86.1194 141.044 86.2994 138.455 90.5894 136.015C94.7094 133.665 98.8594 131.374 102.929 128.965C104.269 128.178 105.059 128.098 106.319 129.303C107.579 130.508 106.829 131.384 106.319 132.39C105.499 133.874 104.609 135.318 103.839 136.831C102.899 138.684 103.689 139.819 105.559 140.347C106.899 140.725 108.929 139.649 109.559 141.233C110.356 143.142 110.612 145.233 110.299 147.277C109.549 150.812 111.449 151.26 114.009 151.191C118.879 151.061 123.749 150.723 128.619 150.623C130.349 150.623 132.129 149.956 133.839 151.3C134.839 152.127 135.839 150.802 136.629 150.175C140.869 146.919 145.029 143.543 149.339 140.386C151.029 139.142 152.339 137.19 155.059 137.479C156.249 137.598 156.989 135.846 157.279 134.491L158.789 134.432Z" fill="#D882A5"/>
<path d="M45.9609 72.135C54.6909 74.6842 62.8309 77.0542 70.9609 79.4541C72.5609 79.932 73.0709 81.0672 73.0709 82.78C73.0709 93.6739 72.9309 104.568 73.6909 115.442C73.8409 117.543 73.1709 118.081 71.2109 117.294C69.2509 116.507 66.9909 116.418 64.8909 115.143C67.4109 112.803 69.7109 110.652 68.9509 106.759C68.5509 104.767 67.8509 103.662 65.9509 103.293C61.9509 102.507 57.8409 101.819 53.8009 100.973C52.865 100.782 51.8969 100.814 50.9759 101.067C50.0548 101.32 49.2067 101.786 48.5009 102.427C47.6609 92.2798 46.8309 82.4912 45.9609 72.135ZM49.7909 82.4514C49.0609 85.2396 50.6509 86.9822 54.0109 87.6892C57.0709 88.3265 60.0809 89.2327 63.0709 90.1688C65.5409 90.9455 66.7609 89.5613 67.2209 87.6295C67.6809 85.6977 67.7409 83.5667 64.8309 82.9393C60.5909 82.0431 56.3709 80.9477 52.2009 79.8524C50.2409 79.3047 49.4209 79.7229 49.7909 82.4514ZM52.6909 90.0194C51.7509 90.1588 50.7809 89.7804 50.6009 90.7164C50.3909 91.8218 51.4009 92.0508 52.2209 92.24C55.8609 93.0864 59.5109 93.893 63.1509 94.7394C63.9309 94.9187 64.8509 95.5958 65.1509 94.3013C65.4509 93.176 64.4209 92.8375 63.6509 92.6483C59.9509 91.7023 56.1909 90.8459 52.6909 90.0194Z" fill="#F6F6F5"/>
<path d="M206.68 117.065C195.68 114.575 185.45 112.206 175.17 109.945C174.469 109.797 173.806 109.507 173.223 109.092C172.64 108.678 172.148 108.148 171.78 107.535C170.12 105.185 168.03 104.548 165.56 106.44C165.225 106.787 164.808 107.045 164.346 107.19C163.885 107.334 163.395 107.36 162.92 107.266C159.75 106.47 156.52 105.882 153.37 105.016C150.95 104.359 150.53 103.024 152.37 101.471C156.66 97.8661 161.78 95.4962 166.7 92.9171C167.1 92.7699 167.525 92.7038 167.951 92.7226C168.377 92.7414 168.795 92.8448 169.18 93.0266C177.95 95.6057 186.53 98.6628 194.34 103.492C198.92 106.32 203.08 109.656 205.71 114.506C206.079 115.341 206.403 116.195 206.68 117.065Z" fill="#D882A5"/>
<path d="M120.58 116.109C121.17 115.491 121.843 114.959 122.58 114.526C128.58 112.216 134.58 109.975 140.58 107.734C141.093 107.51 141.667 107.463 142.21 107.6C142.754 107.737 143.236 108.051 143.58 108.491C147.26 112.833 151.76 116.458 154.98 121.208C155.81 122.432 156.91 123.687 154.4 124.374C148.31 126.057 143.27 129.712 138.1 133.107C136.99 133.834 136.24 134.322 135.1 132.978C130.33 127.312 125.5 121.755 120.58 116.109Z" fill="#F6F6F5"/>
<path d="M106.27 137.678C109.75 131.195 113.73 125.151 117.69 119.096C118.62 117.682 119.23 118.618 119.87 119.375C124.44 124.723 129 130.08 133.87 135.776C130.25 136.284 130.7 138.674 130.87 141.093C131.28 147.208 131.23 147.297 125.17 147.815C121.9 148.094 118.6 147.974 115.32 148.173C113.42 148.283 112.6 147.526 112.7 145.674C112.704 145.189 112.684 144.703 112.64 144.22C112.13 138.355 112.13 138.355 106.27 137.678Z" fill="#F6F6F5"/>
<path d="M207.24 122.313C206.52 127.531 203.41 131.275 199.34 134.372C198.51 134.999 197.46 134.651 196.51 134.422C191.07 133.097 185.64 131.793 180.2 130.438C179.02 130.15 177.86 129.881 177.78 128.238C177.459 123.777 176.589 119.373 175.19 115.123C174.65 113.351 175.19 112.903 176.89 113.301C186.383 115.439 195.873 117.563 205.36 119.674C206.75 119.993 207.5 120.73 207.24 122.313Z" fill="#ECECE7"/>
<path d="M76.0708 115.8C75.1708 106.709 76.0708 97.9458 75.1808 89.3323C74.3708 81.366 76.6808 75.6003 83.1808 71.179C84.0024 70.519 84.7776 69.8037 85.5008 69.0381C86.6008 69.7053 86.1408 70.6513 86.1508 71.3981C86.2608 82.999 86.0108 94.61 86.9008 106.191C87.0808 108.531 86.5708 110.065 84.1908 110.951C81.3808 111.996 79.4408 114.635 76.0708 115.8ZM83.4008 87.9182C83.4008 87.2411 83.4008 86.6436 82.8608 86.6138C81.7708 86.5441 81.1608 87.4303 80.5808 88.1473C80.0008 88.8642 78.5808 89.7107 79.3008 91.1346C79.4182 91.2477 79.5616 91.3304 79.7185 91.3755C79.8754 91.4207 80.041 91.4269 80.2008 91.3936C81.5755 90.5767 82.686 89.3844 83.4008 87.9581V87.9182ZM82.7308 80.2507C82.6408 79.7329 82.3108 79.2549 81.8108 79.4839C80.1543 80.1864 78.8035 81.4539 78.0008 83.0588C77.9451 83.1655 77.9161 83.284 77.9162 83.4042C77.9163 83.5245 77.9456 83.6429 78.0016 83.7495C78.0576 83.8561 78.1385 83.9476 78.2376 84.0163C78.3368 84.085 78.4511 84.1289 78.5708 84.1442C79.5508 84.4429 82.8708 81.346 82.7308 80.2905V80.2507ZM83.2308 96.9998C83.3308 96.2928 83.0608 95.8646 82.5208 95.9244C80.8008 96.0937 79.8508 97.3185 79.1508 98.7126C78.8308 99.3599 79.3908 100.097 79.9608 99.8976C81.3473 99.3459 82.5016 98.337 83.2308 97.0397V96.9998Z" fill="#F6F6F5"/>
<path d="M85.001 66.3594C81.101 70.0537 77.571 73.3299 74.091 76.6957C73.7087 77.0847 73.2126 77.3434 72.6738 77.4346C72.1349 77.5258 71.5808 77.4449 71.091 77.2035C63.451 74.8933 55.791 72.6129 48.091 70.4819C45.321 69.7152 46.091 68.341 47.491 67.3253C50.881 64.9254 54.401 62.7347 57.911 60.6037C58.5746 60.3091 59.3203 60.2528 60.021 60.4444C68.151 62.3364 76.261 64.2782 85.001 66.3594Z" fill="#F6F6F5"/>
<path d="M99.8204 90.5172C96.1504 90.6566 94.8204 89.1331 94.7504 85.3889C94.6604 82.063 94.8204 78.6076 93.8204 75.3016C93.1404 73.0312 94.8804 73.31 96.1804 73.4593C100.4 73.9274 104.62 74.4551 108.83 75.0128C112.21 75.441 115.56 76.0086 118.95 76.2874C121.01 76.4368 121.85 77.2832 121.71 79.205C121.33 84.1574 120.927 89.0932 120.5 94.0124C120.43 94.819 120.19 96.0936 119.12 95.6754C117.33 94.9783 114.66 95.7352 113.94 93.1561C113.599 91.6231 113.438 90.0558 113.46 88.4858C113.4 87.032 113.12 85.7673 111.46 85.4088C108.39 84.7317 105.31 84.0645 102.2 83.5367C100.4 83.228 99.4004 83.9251 99.8304 85.9864C100.278 87.4643 100.274 89.0412 99.8204 90.5172Z" fill="#F6F6F5"/>
<path d="M4.36914 123.657L42.7491 136.732C41.4291 139.132 39.0591 139.659 37.3691 141.014C32.6291 144.828 28.0991 144.25 23.0491 141.392C17.5191 138.265 11.9691 135.288 7.78914 130.379C6.00504 128.525 4.8146 126.186 4.36914 123.657Z" fill="#D882A5"/>
<path d="M115.33 68.1816C113.72 67.853 112.33 67.5941 110.89 67.2555C103.95 65.5428 103.89 65.5428 103.22 58.5723C102.74 53.4141 102.61 48.2161 101.76 43.0977C101.44 41.1061 102.21 40.4788 104.12 40.7178C106.77 41.0364 109.43 41.3252 112.12 41.4945C112.485 41.4708 112.85 41.529 113.189 41.6648C113.528 41.8006 113.833 42.0106 114.079 42.2792C114.326 42.5479 114.509 42.8683 114.615 43.2168C114.72 43.5653 114.746 43.9329 114.69 44.2927C114.5 52.1295 115.99 59.9265 115.33 68.1816ZM108.92 47.1705C109.69 47.1705 110.62 47.4194 110.86 46.573C111.17 45.5075 110.26 45.0793 109.39 45.0096C107.99 44.9001 106.72 43.7848 105.22 44.4918C105.136 44.5224 105.06 44.5707 104.997 44.6333C104.933 44.6959 104.884 44.7714 104.853 44.8546C104.822 44.9378 104.809 45.0267 104.815 45.1154C104.821 45.204 104.847 45.2902 104.89 45.3681C105.78 47.0112 107.7 46.3639 108.92 47.1705ZM108.04 61.1812C107.39 61.5596 105.97 61.1812 106.18 62.2965C106.5 63.9097 108.29 63.362 109.46 63.6707C110.28 63.8898 111.51 63.5811 111.36 62.6749C111.06 60.8228 109.15 61.938 108.04 61.1812ZM110.5 50.4665C109.326 49.84 108.021 49.4988 106.69 49.4708C106.04 49.4708 105.24 49.9288 105.44 50.4665C106.14 52.3585 108.1 51.6316 109.44 52.0598C110.03 52.2191 110.5 51.5918 110.5 50.4665ZM105.03 55.9334C106.87 57.3674 108.57 57.8055 110.5 57.0686C110.583 56.938 110.634 56.7899 110.65 56.6361C110.665 56.4823 110.645 56.3269 110.59 56.1824C109.33 54.6289 107.59 55.1866 105.94 55.1866C105.72 55.2065 105.56 55.4654 104.99 55.9334H105.03Z" fill="#F6F6F5"/>
<path d="M137.579 68.6398C136.749 62.2369 140.439 57.6861 142.819 52.7072C143.619 51.0342 144.939 51.6018 145.619 52.8068C149.269 59.2196 152.849 65.6923 153.789 73.1607C154.099 75.6502 149.859 78.9064 147.439 78.2193C145.929 77.7911 145.439 76.6858 145.499 75.1622C145.579 72.1749 145.499 69.1078 145.499 66.0906C145.499 64.8658 145.499 63.3422 143.889 63.3422C141.949 63.3422 142.649 65.0848 142.619 66.1205C142.529 69.3866 142.619 72.6528 142.619 75.919C142.619 76.6559 142.619 77.5123 141.879 77.8409C140.799 78.3089 140.449 77.2335 139.959 76.636C137.899 74.2262 136.859 71.4678 137.579 68.6398Z" fill="#22B573"/>
<path d="M169.681 134.81C169.681 131.126 169.681 127.74 169.681 124.364C169.681 123.299 169.851 121.825 168.451 121.745C167.051 121.666 167.101 123.388 166.981 124.255C166.794 126.42 166.717 128.594 166.751 130.767C166.701 132.022 167.171 133.635 165.041 133.685C163.221 133.735 161.441 134.043 160.741 131.504C159.831 128.228 160.231 125.091 160.881 121.875C161.558 117.95 163.072 114.215 165.321 110.921C167.771 107.535 169.111 107.695 170.871 111.459C173.001 116.188 174.332 121.235 174.811 126.396C174.811 126.874 174.811 127.391 174.811 127.849C175.311 132.44 175.081 132.808 169.681 134.81Z" fill="#22B573"/>
<path d="M33.7002 114.197L10.9902 107.436C15.2402 102.576 20.9902 100.864 26.1902 98.1749C27.3633 97.5453 28.6533 97.1613 29.981 97.0466C31.3086 96.9318 32.6458 97.0888 33.9102 97.5077C35.7402 98.0454 36.7902 98.384 35.9702 100.864C34.5902 105.056 32.8402 109.268 33.7002 114.197Z" fill="#D882A5"/>
<path d="M94.5 71.0894C95.94 68.331 98.01 66.8772 100.4 65.2142C101.5 68.092 104.2 68.331 106.68 68.9484C107.51 69.1312 108.36 69.2148 109.21 69.1974C112.21 69.1974 115.28 72.1847 118.32 68.9086C120.52 66.5784 123.82 65.264 124.96 61.9381C125.31 60.9423 125.96 61.0219 126.64 61.0916C128.64 61.3107 130.74 61.5397 132.77 61.8584C135.08 62.2268 134.97 63.7902 133.7 64.9055C130.07 68.112 126.24 71.0794 122.47 74.1265C121.7 74.7539 120.85 74.3058 120.03 74.1962L94.5 71.0894Z" fill="#F6F6F5"/>
<path d="M133.101 68.7095C133.831 71.8462 134.101 74.6145 136.251 76.9646C137.541 78.3587 135.531 80.9477 136.411 83.1285C137.641 86.1159 134.781 86.3947 133.161 87.261C129.951 88.9937 127.241 91.4433 123.831 93.654C123.411 89.5713 124.101 85.7673 123.831 82.0331C123.461 76.8252 125.831 73.5291 130.021 71.0794C131.095 70.3526 132.123 69.5612 133.101 68.7095Z" fill="#F6F6F5"/>
<path d="M153.07 127.949C154.61 132.281 152.89 134.77 149.38 137.031C145.12 139.769 141.31 143.195 137.28 146.291C136.45 146.929 135.63 148.014 134.43 147.287C133.43 146.7 134.13 145.485 133.82 144.628C132.2 140.217 134.94 138.146 138.19 136.194C141.44 134.242 144.27 132.211 147.37 130.339C149.051 129.102 151.006 128.282 153.07 127.949Z" fill="#F6F6F5"/>
<path d="M107.4 122.98C108.33 117.155 108.89 111.26 111.93 105.992C112.45 105.086 112.73 103.891 114.17 103.94C114.785 103.964 115.378 104.176 115.868 104.546C116.358 104.917 116.722 105.428 116.91 106.012C118.03 108.999 119.84 111.986 117.21 115.283C115.185 118.137 113.306 121.092 111.58 124.135C110.84 125.31 110.42 127.292 108.65 126.814C106.88 126.336 107.79 124.314 107.4 122.98Z" fill="#22B573"/>
<path d="M91.5495 44.9898C93.3182 44.9476 95.0347 45.5885 96.3396 46.7784C97.6444 47.9682 98.4363 49.6146 98.5495 51.3728C98.6095 54.8083 95.2495 58.2935 91.7195 58.0247C87.2795 57.6961 84.6095 55.1867 84.5795 51.8309C84.5613 50.919 84.7299 50.0131 85.075 49.1683C85.4201 48.3235 85.9345 47.5577 86.5868 46.9175C87.2391 46.2773 88.0155 45.7761 88.8688 45.4447C89.722 45.1133 90.6341 44.9585 91.5495 44.9898Z" fill="#F6F6F5"/>
<path d="M43.1006 113.341C43.1006 110.951 43.1006 109.268 43.1006 107.595C43.1006 106.719 42.8806 105.763 41.8306 105.703C40.7806 105.643 41.0906 106.699 40.8306 107.316C39.8306 109.766 40.3206 112.295 40.1906 114.834C40.1906 115.522 40.3806 116.448 39.4406 116.637C38.6606 116.786 38.1406 116.089 37.7106 115.512C37.0771 114.63 36.636 113.626 36.4155 112.564C36.1951 111.503 36.2002 110.407 36.4306 109.348C37.1625 105.329 38.2845 101.39 39.7806 97.5873C40.4106 96.004 41.2206 94.2614 43.3306 94.6C45.6206 94.9087 46.0506 96.8704 45.9806 98.7225C45.8906 101.152 46.9206 103.831 44.5506 105.862C43.5506 106.739 44.3806 107.515 44.8306 108.392C45.7506 110.114 45.5606 111.728 43.1006 113.341Z" fill="#22B573"/>
<path d="M120.88 38.1188C121.31 43.8645 121.71 49.0028 122.06 54.151C122.14 55.3459 122.06 56.5608 122.06 57.7657C122.37 62.7446 122.38 62.7446 117.89 65.732C117.53 58.3532 117.13 51.1039 116.89 43.8246C116.82 41.8231 117.07 41.6937 120.88 38.1188Z" fill="#F6F6F5"/>
<path d="M101.59 37.2923C104.74 33.6179 107.98 31.7557 112.59 33.0901C114.959 33.612 117.361 33.9746 119.78 34.1755C116.84 39.3934 115.53 39.971 109.87 38.7761C107.31 38.2383 104.69 37.84 101.59 37.2923Z" fill="#F6F6F5"/>
<path d="M65.4994 105.554C62.7794 108.999 59.9594 110.881 55.6694 109.029C53.719 108.342 51.7111 107.828 49.6694 107.495C47.7394 107.047 47.9494 106.012 49.0294 104.956C50.3994 103.612 51.7794 102.517 54.1094 103.164C57.7894 104.17 61.4994 104.727 65.4994 105.554Z" fill="#F6F6F5"/>
<path d="M111.6 92.0309C111.84 93.5345 111.181 93.7635 110.151 93.4847C108.051 92.9171 105.94 92.3694 103.85 91.7421C102.91 91.4533 101.341 86.9523 101.911 86.2155C102.024 86.0842 102.165 85.9801 102.325 85.9111C102.484 85.8421 102.657 85.81 102.831 85.8171C105.441 86.315 108.231 86.4843 110.581 87.5598C112.071 88.2469 110.9 90.7463 111.6 92.0309Z" fill="#F6F6F5"/>
<path d="M73.3107 123.279C73.7207 121.048 75.5207 119.943 77.3907 118.907C78.3207 118.389 78.9707 118.778 79.5107 119.574C80.0989 120.347 80.3987 121.299 80.3585 122.267C80.3184 123.236 79.9409 124.16 79.2907 124.882C78.5254 125.965 77.492 126.833 76.2907 127.401C75.1507 127.909 73.8807 128.397 72.9007 127.491C71.9207 126.585 73.2207 125.927 73.6307 125.181C73.7591 124.865 73.7971 124.52 73.7406 124.185C73.6841 123.849 73.5353 123.535 73.3107 123.279Z" fill="#22B573"/>
<path d="M90.6796 116.776C90.6707 117.394 90.5382 118.003 90.2901 118.569C90.0419 119.136 89.683 119.647 89.2343 120.073C88.7856 120.5 88.2561 120.833 87.6767 121.053C87.0973 121.273 86.4796 121.377 85.8596 121.357C83.8596 121.287 83.4996 119.903 83.4396 118.369C83.3496 116.049 86.1296 113.181 88.1896 113.331C90.5696 113.52 90.4996 115.382 90.6796 116.776Z" fill="#22B573"/>
<path d="M60.5505 122.193C57.2005 121.198 54.4405 120.421 51.6905 119.594C51.3709 119.441 51.0746 119.243 50.8105 119.007C54.1405 114.775 54.5605 114.675 58.5605 116.099C61.8305 117.274 60.1905 119.774 60.5505 122.193Z" fill="#F6F6F5"/>
<path d="M128.601 108.541C128.601 109.049 123.531 111.269 122.601 111.03C120.801 110.562 120.691 108.81 120.871 107.595C121.131 105.882 121.871 104.04 124.231 104.05C125.361 104.06 128.661 107.635 128.601 108.541Z" fill="#22B573"/>
<path d="M94.2501 65.9611C93.3701 62.8144 93.1801 60.3747 96.7901 59.1997C97.9301 58.8312 98.7901 57.6363 99.7901 56.7799C100.5 62.7347 101.97 61.4302 94.2501 65.9611Z" fill="#F6F6F5"/>
<path d="M92.8198 91.2142C89.9798 91.2142 87.9898 90.567 88.4998 87.1713C88.6698 85.9864 89.0698 85.1798 90.1998 85.4785C93.1698 86.3747 93.1198 88.7248 92.8198 91.2142Z" fill="#F6F6F5"/>
<path d="M49 109.995C53.11 110.732 57.34 110.752 60.61 113.63C56.56 112.823 52.39 112.445 49 109.995Z" fill="#CBC8C3"/>
<path d="M65.1406 123.309C65.3206 121.835 66.3906 121.317 67.0206 120.501C67.8006 119.505 68.7206 118.818 70.1006 119.306C70.7806 119.545 71.1006 120.032 70.8206 120.67C70.3506 121.855 70.0706 123.219 68.5106 123.587C67.3826 123.798 66.2183 123.702 65.1406 123.309Z" fill="#F6F6F5"/>
<path d="M66.9194 107.396C68.0794 110.891 65.1794 111.718 63.6894 113.311C63.2694 113.759 62.8394 113.311 62.5894 112.903C62.1894 112.245 61.9794 111.568 62.6794 110.971C64.0294 109.816 65.3894 108.68 66.9194 107.396Z" fill="#CBC8C3"/>
<path d="M158.789 134.432H157.209C157.419 132.559 155.509 131.255 155.809 129.363C155.909 128.746 155.469 127.79 156.599 127.75C156.781 127.735 156.964 127.761 157.135 127.825C157.306 127.89 157.46 127.992 157.585 128.124C157.711 128.256 157.805 128.414 157.862 128.587C157.918 128.76 157.934 128.944 157.909 129.124C157.932 130.927 158.229 132.717 158.789 134.432Z" fill="#CBC8C3"/>
<path d="M33.9102 94.8091C34.7102 94.5203 35.1702 94.3809 35.6002 94.2016C36.5002 93.8332 37.4002 93.3851 38.2902 94.112C38.4502 94.2415 38.4202 94.829 38.2902 95.058C37.4802 96.243 36.4502 95.8547 35.4202 95.3667C35.0202 95.1875 34.6102 95.068 33.9102 94.8091Z" fill="#CBC8C3"/>
<path d="M46.7496 116.507C46.7496 117.294 46.7496 118.021 45.6696 117.852C45.0696 117.752 44.4196 117.543 44.4896 116.856C44.5596 116.169 45.0296 115.213 45.9896 115.213C46.7696 115.143 46.6296 115.97 46.7496 116.507Z" fill="#CBC8C3"/>
<path d="M53.1804 114.516C51.6904 115.372 51.1804 116.756 49.9604 115.82C49.8236 115.627 49.739 115.402 49.7144 115.166C49.6899 114.931 49.7264 114.693 49.8204 114.476C50.6404 113.241 51.5604 114.237 53.1804 114.516Z" fill="#CBC8C3"/>
<path d="M62.7793 152.296C64.2393 151.609 65.1993 151.589 65.7793 152.963C64.7293 153.62 63.8593 153.352 62.7793 152.296Z" fill="#D882A5"/>
<path d="M49.7897 82.4513C49.4197 79.7228 50.2397 79.3046 52.1997 79.8523C56.3697 80.9975 60.5897 82.043 64.8297 82.9392C67.7397 83.5666 67.6797 85.6577 67.2197 87.6294C66.7597 89.6011 65.4997 90.9454 63.0697 90.1687C60.0697 89.2326 57.0697 88.3265 54.0097 87.6892C50.6497 86.9821 49.0597 85.2395 49.7897 82.4513ZM52.3197 82.0928C51.7297 84.0844 52.5297 84.9707 54.0097 85.3889C56.9297 86.2154 59.8297 87.1016 62.7797 87.7887C63.5397 87.968 64.9297 89.0434 65.2197 87.022C65.4297 85.5383 64.6797 85.2395 63.4197 84.9507C59.7697 84.1043 56.1497 83.0886 52.3197 82.0928Z" fill="#3F362F"/>
<path d="M52.6894 90.0193C56.1894 90.8458 59.9494 91.7022 63.6894 92.6482C64.4594 92.8374 65.4894 93.1759 65.1894 94.3012C64.8494 95.5957 63.9294 94.9186 63.1894 94.7393C59.5494 93.8929 55.8994 93.0863 52.2594 92.2399C51.4394 92.0507 50.4294 91.8217 50.6394 90.7163C50.7794 89.7803 51.7494 90.1587 52.6894 90.0193Z" fill="#3F362F"/>
<path d="M83.4006 87.9581C82.6936 89.4027 81.5823 90.6131 80.2006 91.4433C80.0407 91.4766 79.8751 91.4704 79.7182 91.4253C79.5613 91.3802 79.4179 91.2975 79.3006 91.1844C78.5906 89.7505 79.8806 89.0435 80.5806 88.1971C81.2806 87.3506 81.7706 86.6337 82.8606 86.6337C83.4006 86.6835 83.5006 87.2809 83.4006 87.9581Z" fill="#3F362F"/>
<path d="M82.7306 80.2905C82.8706 81.3461 79.5506 84.443 78.5706 84.1841C78.4509 84.1688 78.3366 84.1249 78.2374 84.0562C78.1383 83.9875 78.0574 83.8959 78.0014 83.7894C77.9454 83.6828 77.9161 83.5644 77.916 83.4441C77.9159 83.3238 77.9449 83.2053 78.0006 83.0986C78.8033 81.4938 80.1541 80.2263 81.8106 79.5238C82.3106 79.2848 82.6406 79.7727 82.7306 80.2905Z" fill="#3F362F"/>
<path d="M83.23 97.0396C82.5079 98.3519 81.3528 99.3755 79.96 99.9374C79.39 100.137 78.83 99.3996 79.15 98.7524C79.85 97.3583 80.8 96.1334 82.52 95.9642C83.06 95.9044 83.33 96.3326 83.23 97.0396Z" fill="#3F362F"/>
<path d="M108.92 47.1705C107.7 46.3639 105.78 47.0112 104.92 45.3681C104.877 45.2902 104.852 45.204 104.845 45.1154C104.839 45.0267 104.852 44.9378 104.883 44.8546C104.915 44.7714 104.964 44.6959 105.027 44.6333C105.09 44.5707 105.166 44.5224 105.25 44.4918C106.75 43.7848 108.02 44.9001 109.42 45.0096C110.29 45.0793 111.2 45.5075 110.89 46.573C110.62 47.4194 109.69 47.1207 108.92 47.1705Z" fill="#3F362F"/>
<path d="M108.039 61.1813C109.149 61.8385 111.039 60.8626 111.359 62.4658C111.509 63.2824 110.279 63.5612 109.459 63.372C108.289 63.1031 106.459 63.5811 106.179 62.1571C105.969 61.2211 107.389 61.5099 108.039 61.1813Z" fill="#3F362F"/>
<path d="M110.5 50.4666C110.5 51.5919 110.07 52.2192 109.5 52.04C108.11 51.6118 106.15 52.3387 105.5 50.4467C105.3 49.909 106.1 49.4509 106.75 49.4509C108.062 49.4944 109.346 49.8422 110.5 50.4666Z" fill="#3F362F"/>
<path d="M104.99 55.9335C105.56 55.4655 105.72 55.2066 105.9 55.1966C107.53 55.1966 109.29 54.629 110.55 56.1924C110.605 56.337 110.626 56.4923 110.61 56.6461C110.595 56.8 110.543 56.948 110.46 57.0787C108.5 57.8056 106.83 57.3675 104.99 55.9335Z" fill="#3F362F"/>
<path d="M52.3199 82.0929C56.1499 83.0887 59.7699 84.0845 63.4199 84.9508C64.6799 85.2396 65.4199 85.5383 65.2199 87.022C64.9299 89.0136 63.5399 88.0178 62.7799 87.7888C59.7799 87.1017 56.9299 86.2155 54.0099 85.389C52.4999 84.9707 51.7299 84.1243 52.3199 82.0929Z" fill="#F6F6F5"/>
</g>
<defs>
<clipPath id="clip0_4501_2646">
<rect width="210" height="175" fill="white" transform="translate(0.5)"/>
</clipPath>
</defs>
</svg>
