<svg width="211" height="175" viewBox="0 0 211 175" fill="none" xmlns="http://www.w3.org/2000/svg">
<g clip-path="url(#clip0_4501_1876)">
<path d="M28.8351 111.528C32.18 108.341 35.1071 104.654 37.5322 100.575C38.4334 98.9118 40.2359 99.3599 41.5157 98.5831C44.4087 96.7708 47.2566 94.7991 50.4561 93.6042C54.755 96.3924 58.1798 93.0067 61.5865 91.2243C63.5873 90.1488 65.4348 88.456 67.751 87.6295C70.3891 86.5297 72.8553 84.9808 75.0602 83.0389C75.9614 82.3219 76.7365 81.3162 76.0245 79.9918C75.4116 78.8765 74.3301 78.996 73.3928 79.3644C68.7514 81.356 64.155 83.4571 59.3424 84.911C58.8233 85.1056 58.3616 85.4518 58.0062 85.9129C57.6507 86.3739 57.4149 86.9327 57.3236 87.5299C57.0802 88.5257 56.8369 89.6111 56.5575 90.6467C55.431 94.839 54.1422 95.4564 50.402 93.6341C48.996 91.2641 46.6348 90.1488 44.7151 88.446C43.5074 87.3805 42.4259 88.446 41.3895 88.9638C33.1431 92.7279 24.6443 94.0722 15.8211 92.1802C3.77137 89.621 -2.33008 77.8707 1.77961 65.0649C5.38461 53.7029 12.6847 45.4777 21.526 38.9752C35.6485 28.5891 51.4114 25.3727 67.9673 28.2107C78.9536 30.1027 84.9649 38.5072 87.7137 50.0185C88.0291 51.3429 87.5334 53.4938 90.075 51.7412C107.054 40.0407 124.106 40.4689 141.131 51.7412C141.5 51.9802 141.879 52.2192 142.257 52.4383C142.452 52.4637 142.648 52.4637 142.843 52.4383C142.528 48.9231 142.104 45.4678 142.762 41.9427C145.285 28.7086 157.551 17.1375 170.448 14.8871C190.276 11.4317 204.074 29.2563 207.111 45.6669C210.518 64.1089 199.559 78.528 181.588 79.215C178.938 79.3047 176.424 79.3843 174.81 82.4016C171.701 88.207 173.774 94.6896 179.767 97.1592C185.11 99.2083 190.28 101.774 195.215 104.827C199.237 107.266 202.783 110.559 205.651 114.516C210.157 121.058 210.157 128.208 205.804 134.84C202.65 139.6 198.378 142.896 193.791 145.734C182.228 152.884 169.574 156.419 156.668 158.749C124.872 164.534 93.2113 164.016 61.7848 155.463C52.7592 153.151 44.0982 149.358 36.0902 144.21C31.9534 141.482 28.1592 138.235 25.4554 133.754C22.3371 128.566 21.571 123.139 24.437 117.463C26.8163 117.692 27.2309 118.459 27.0506 122.153C26.2125 126.555 27.6815 130.12 30.2681 133.346C35.243 139.6 41.7951 143.045 48.5634 146.122C61.974 152.226 76.1507 154.706 90.4084 156.687C102.512 158.36 114.742 158.44 126.864 158.082C132.704 157.912 138.526 157.006 144.366 156.508C145.85 156.325 147.35 156.382 148.818 156.677C148.692 156.787 148.593 156.528 148.449 156.508C142.636 155.741 142.564 155.771 141.05 149.538C140.437 147.038 139.184 145.853 136.904 145.853C133.299 145.853 129.82 144.688 126.251 144.3C124.16 144.061 123.232 142.637 122.772 140.625C121.691 135.975 121.727 131.086 120.33 126.495C120.179 125.533 120.373 124.544 120.871 123.737C121.826 121.576 122.619 119.335 123.475 117.135C124.989 113.261 126.9 110.234 131.082 109.079C134.173 108.222 136.913 105.902 139.599 103.871C141.879 102.148 144.105 101.61 146.574 103.283C148.431 104.548 149.81 104.448 150.477 101.77C150.928 100.547 151.509 99.3869 152.207 98.3143C152.595 97.5276 153.442 96.6115 152.532 95.7651C151.621 94.9186 150.873 95.7651 150.152 96.263C148.993 97.162 147.789 97.9897 146.547 98.7425C139.337 102.646 131.595 103.721 123.683 103.014C120.889 102.765 118.536 102.726 116.932 105.803C115.328 108.88 115.761 111.538 117.779 114.058C119.798 116.577 120.483 119.415 120.078 122.96C119.492 128.546 120.014 134.232 119.753 139.888C119.645 142.219 119.059 144.091 117.049 145.236C116.079 145.794 115.22 146.563 114.526 147.496C111.696 151.37 108.109 152.007 103.963 150.822C101.755 150.185 99.457 149.777 97.2489 149.358C95.8636 148.994 94.4116 149.091 93.0761 149.637C87.1099 152.445 81.2788 150.006 75.4477 148.98C73.5821 148.661 73.3568 146.481 72.9332 144.738C71.9689 140.755 71.1307 140.357 67.9854 142.617C66.3592 143.773 64.4665 144.388 62.5328 144.389C58.4682 144.509 54.5658 143.244 50.5822 142.707C50.2485 142.701 49.9207 142.608 49.6261 142.435C49.3314 142.262 49.0784 142.014 48.8879 141.711C47.0854 138.206 43.9671 137.728 40.8397 137.05C30.5294 134.82 31.7642 135.129 30.6466 123.707C30.3041 120.271 30.4393 116.736 29.2226 113.52C29.0018 113.257 28.8492 112.934 28.781 112.583C28.7128 112.233 28.7315 111.868 28.8351 111.528Z" fill="#282828"/>
<path d="M25.0945 122.562C24.3645 120.939 26.6266 118.877 24.4727 117.463C25.9597 115.472 26.9962 113.151 28.8347 111.489L30.0964 112.275C30.3514 112.493 30.522 112.809 30.5739 113.16C30.6257 113.512 30.5549 113.871 30.3758 114.167C29.2222 116.537 28.1407 118.937 27.1584 121.397C27.0242 121.853 26.7315 122.232 26.3446 122.451C25.9576 122.669 25.508 122.709 25.0945 122.562Z" fill="#5E5E5E"/>
<path d="M111.967 106.729C110.164 103.144 108.569 100.306 107.271 97.3185C107.047 96.6057 106.623 95.9905 106.061 95.5625C105.498 95.1344 104.827 94.9158 104.144 94.9386C92.617 94.2714 84.7942 87.5299 79.6751 76.4368C78.918 74.7838 79.0803 73.6586 80.4952 72.4536C82.4803 70.8715 84.1596 68.8675 85.4348 66.5592C86.71 64.2508 87.5554 61.6845 87.9215 59.0105C88.282 56.3119 90.0755 54.5991 92.0132 53.215C108.515 41.4348 132.569 44.0338 145.962 59.847C151.369 66.1802 153.037 74.0768 152.739 82.4812C152.514 88.6452 148.999 92.4989 144.223 95.1079C137.238 98.9118 129.803 99.0113 122.223 98.4437C121.571 98.4159 120.922 98.3226 120.285 98.1649C117.266 97.3185 115.283 98.3641 114.283 101.77C113.624 103.484 112.849 105.142 111.967 106.729Z" fill="#FEFEFE"/>
<path d="M54.3578 81.9933C53.8711 84.3036 53.3754 86.6038 52.8978 88.9638C52.5282 90.7463 51.6 91.294 50.4644 89.8899C46.3006 84.7517 41.8124 85.7873 36.6663 88.0577C29.8624 91.1338 22.3255 91.6208 15.2436 89.4418C5.00539 86.2951 0.499146 76.7356 4.10414 65.7221C7.12333 56.5708 12.7471 49.6302 19.5786 43.8148C33.9445 31.6661 50.3202 27.7726 67.8855 30.9691C79.809 33.13 86.6495 45.3881 85.2165 58.6819C84.5857 64.4774 81.7467 68.0921 77.9435 71.2089C74.2456 74.1963 70.054 76.3546 65.6054 77.5621C63.172 75.8792 64.0823 73.5092 64.8123 71.4479C65.2449 70.2032 65.7856 69.0779 64.587 68.3709C62.5862 67.176 63.0819 65.3039 63.3252 63.6111C63.8423 60.37 63.694 57.042 62.8913 53.8727C62.0885 50.7034 60.6518 47.7738 58.6872 45.3002C56.7226 42.8265 54.2803 40.8719 51.5405 39.5807C48.8008 38.2895 45.8335 37.6946 42.8578 37.84C27.834 38.6566 19.5606 55.8638 25.7341 69.3169C26.9418 71.9458 27.2122 73.7283 25.0942 75.7796C24.3118 76.626 23.6979 77.6434 23.2917 78.767C22.6969 80.2507 22.5888 81.6348 24.5985 81.7543C25.3916 81.7543 26.2388 81.7543 26.6173 82.6107C28.2216 85.9964 30.0511 84.2936 31.2317 82.551C33.1153 79.7827 34.9359 79.5636 37.6937 80.9278C41.2987 82.6705 45.2191 82.4315 49.0494 81.2067C50.4373 80.7685 51.7532 79.7528 53.3484 80.3304C53.9883 80.659 54.5741 81.0174 54.3578 81.9933Z" fill="#FEFEFE"/>
<path d="M168.854 90.5272C167.679 88.2261 166.914 85.6977 166.6 83.0787C166.141 80.5793 164.942 79.2947 162.626 79.2748C161.864 79.3005 161.102 79.2303 160.355 79.0657C157.146 78.2591 154.65 76.9845 154.208 72.5532C153.734 67.34 151.649 62.4662 148.305 58.7516C144.448 54.4896 143.916 49.3115 144.772 44.1135C146.935 30.9989 154.902 23.2019 165.771 18.9698C176.37 14.8771 186.221 16.9782 194.368 25.8407C202.263 34.4045 206.508 44.7607 205.183 57.218C204.57 63.1131 201.29 67.2556 197.126 70.6114C192.572 74.3928 187.075 76.5343 181.381 76.7455C175.829 76.8948 172.72 79.6432 170.963 85.0703C170.458 86.783 169.71 88.3763 168.854 90.5272Z" fill="#FEFEFE"/>
<path d="M52.8705 81.2564C47.1025 83.6363 41.2985 84.4728 35.4944 81.4954C35.067 81.2348 34.5654 81.165 34.0928 81.3002C33.6202 81.4354 33.2123 81.7653 32.9529 82.2223C32.0517 83.3874 31.0693 84.5524 30.105 85.6876C28.5098 87.5796 27.0317 88.2767 26.2747 84.9607C25.8961 83.3276 25.2022 82.8397 23.6881 83.3575C22.7057 83.706 21.462 84.0346 20.723 82.7799C19.9839 81.5252 20.7951 80.6191 21.3809 79.7926C24.6704 75.4211 25.4996 71.4379 23.3817 65.4233C20.2363 56.4612 24.1838 46.6029 31.1144 41.0265C34.5685 38.2701 38.6874 36.7128 42.9458 36.5532C47.2043 36.3936 51.4092 37.6389 55.0245 40.1303C58.5918 42.5905 61.4038 46.1835 63.0922 50.4388C64.7807 54.6942 65.2671 59.4136 64.4876 63.9794C64.1361 66.0905 64.4876 67.156 66.3802 67.5643C67.4257 67.7834 68.6874 67.9327 68.7776 69.4961C68.8677 70.8703 67.7501 71.189 66.8579 71.5873C63.9108 72.9316 66.1639 75.5704 65.5871 77.562L62.6851 79.1154C60.6663 78.4781 58.7917 78.3487 56.8811 79.7826C55.6787 80.6412 54.2987 81.1483 52.8705 81.2564Z" fill="#292929"/>
<path d="M180.254 136.144C180.254 138.903 180.128 141.671 180.254 144.419C180.417 147.008 179.479 147.546 177.388 146.998C174.748 146.311 172.08 145.754 169.403 145.246C169.082 145.23 168.767 145.142 168.477 144.988C168.186 144.835 167.927 144.618 167.715 144.351C167.502 144.085 167.34 143.773 167.238 143.436C167.137 143.099 167.097 142.742 167.123 142.388C166.835 137.001 166.366 131.623 166.078 126.236C165.798 120.998 169.421 117.882 171.747 114.078C172.161 113.391 172.711 113.898 173.035 114.416C175.28 117.941 177.884 121.287 179.633 125.101C180.93 127.949 179.921 131.484 180.11 134.7C180.11 135.178 180.11 135.696 180.11 136.144H180.254Z" fill="#EAEAEA"/>
<path d="M107.333 136.423C107.333 139.301 107.261 142.189 107.333 145.057C107.396 147.048 106.738 147.616 105.017 147.188C102.157 146.484 99.2851 145.853 96.4011 145.296C94.896 145.007 94.4904 143.911 94.4093 142.497C94.1029 136.881 93.6703 131.255 93.5081 125.629C93.4089 121.148 96.6534 118.419 98.7804 115.193C99.6816 113.769 100.385 115.551 100.925 116.268C105.396 122.084 109.109 128.198 107.333 136.423Z" fill="#EAEAEA"/>
<path d="M33.8468 119.276C32.4048 113.749 33.8468 108.083 37.9655 103.074C39.1371 101.66 39.768 101.242 40.8044 103.024C42.5528 105.902 44.4094 108.73 46.2119 111.509C46.8822 112.595 47.1998 113.901 47.1132 115.213C47.1132 120.68 47.1132 126.167 47.2303 131.613C47.2844 133.784 46.8248 134.78 44.6708 134.153C42.8112 133.501 40.8917 133.08 38.9478 132.898C34.9373 132.749 33.8558 130.379 34.1081 126.406C34.147 124.025 34.0597 121.645 33.8468 119.276Z" fill="#EAEAEA"/>
<path d="M129.244 114.277C132.344 118.409 135.093 122.114 137.887 125.768C138.596 126.845 138.9 128.183 138.734 129.502C138.662 132.619 138.436 135.756 138.59 138.863C138.734 141.681 137.562 142.179 135.462 141.721C135.246 141.721 135.039 141.641 134.822 141.611C126.819 140.297 127.351 140.117 125.107 131.653C123.241 124.723 126.594 120.092 129.244 114.277Z" fill="#FDFDFD"/>
<path d="M148.179 126.535C151.279 130.677 154.028 134.382 156.822 138.036C157.529 139.114 157.83 140.453 157.66 141.77C157.588 144.758 157.326 147.745 157.525 150.733C157.75 153.939 156.443 154.298 154.046 153.919C145.781 152.615 146.304 152.485 144.024 143.882C142.176 136.951 145.529 132.33 148.179 126.535Z" fill="#FDFDFD"/>
<path d="M54.1774 112.773C57.3948 117.095 60.6213 120.849 63.1898 125.091C64.6949 127.6 63.5503 130.956 63.5323 133.924C63.5323 140.496 63.4422 140.496 57.4579 139.769C57.1335 139.769 56.809 139.699 56.4846 139.689C52.9517 139.57 50.7526 138.116 50.6354 133.715C50.5543 130.886 49.7342 128.078 49.2295 125.27C49.0269 124.587 49.0623 123.845 49.3286 123.189C50.8427 119.883 52.3749 116.607 54.1774 112.773Z" fill="#FDFDFD"/>
<path d="M89.0293 138.335C88.822 147.377 88.831 147.297 81.4137 146.162C78.3405 145.694 76.3127 144.748 76.1685 140.715C76.0603 137.648 75.123 134.631 74.6544 131.584C74.2308 128.825 76.1324 126.963 77.0877 124.772C79.5391 119.136 79.6112 119.186 83.0991 123.916C83.6796 124.782 84.3055 125.61 84.9737 126.396C88.2542 129.931 90.3271 133.904 89.0293 138.335Z" fill="#FDFDFD"/>
<path d="M167.284 110.642V114.008C167.284 118.16 167.203 118.3 164.012 116.487C161.453 115.034 160.137 117.294 158.56 118.419C156.316 120.042 155.162 120.132 155.09 116.707C155.027 115.638 154.814 114.586 154.459 113.59C152.116 106.42 154.207 100.505 158.587 95.1875C159.254 94.3809 159.894 94.1917 160.389 95.1875C163.093 100.386 168.708 104.14 167.284 110.642Z" fill="#EAEAEA"/>
<path d="M50.4023 93.6838C53.5117 94.4804 54.9717 92.688 55.0708 89.6011C55.233 84.7217 57.5673 82.8098 61.713 82.0729C66.1021 81.2962 70.0946 78.9362 74.0962 76.8251C75.7094 75.9687 77.0433 75.7695 77.7012 78.02C78.1879 79.8622 80.7925 81.6547 77.575 83.6462C73.6005 85.9963 69.4638 88.1273 65.6334 90.5172C62.5808 92.4648 59.4029 94.1622 56.1253 95.5957C53.5297 96.6911 51.7903 96.1633 50.4564 93.6041L50.4023 93.6838Z" fill="#FDFDFD"/>
<path d="M100.538 112.265C97.5818 111.937 95.9054 108.093 92.5888 108.661C92.4226 108.143 92.3166 107.604 92.2734 107.057C92.1472 103.453 92.0931 99.8478 91.9309 96.253C91.8678 94.7195 92.2103 94.2615 93.5802 94.9486C96.6535 96.5319 99.8169 97.7766 103.314 97.3285C103.748 97.2739 104.187 97.3881 104.553 97.6516C104.92 97.915 105.192 98.3113 105.323 98.7724C106.567 101.571 107.847 104.339 109.109 107.117C106.946 110.234 103.918 111.608 100.538 112.265Z" fill="#FDFDFD"/>
<path d="M68.436 105.066C70.2385 105.066 76.8536 111.538 76.9708 113.191C77.0519 114.287 76.2137 114.565 75.6369 115.004C72.4195 117.433 69.1209 119.734 65.9665 122.253C64.885 123.119 64.4524 122.542 63.8756 121.795C61.8478 119.146 59.8471 116.477 57.8012 113.829C57.0352 112.833 56.7738 112.036 58.1167 111.359C61.3543 109.687 64.4725 107.746 67.4446 105.554C67.7624 105.361 68.094 105.198 68.436 105.066Z" fill="#FDFDFD"/>
<path d="M143.619 106.49C145.331 106.589 151.73 112.893 152 114.456C152.162 115.382 151.613 115.751 151.099 116.139C147.692 118.688 144.24 121.178 140.888 123.797C139.725 124.713 139.338 123.707 138.833 123.07C136.85 120.53 134.913 117.961 132.966 115.382C132.344 114.556 131.515 113.689 133.047 112.903C136.372 111.168 139.579 109.171 142.645 106.928C142.952 106.738 143.279 106.591 143.619 106.49Z" fill="#FDFDFD"/>
<path d="M80.4406 84.7317C80.9338 85.0193 81.4041 85.3524 81.8466 85.7275C82.5856 86.4245 83.2706 87.2013 83.9735 87.9581C89.2008 93.5843 89.2008 93.5942 83.1444 97.9757C80.9904 99.5291 78.6381 102.516 76.7185 102.208C74.7988 101.899 73.2036 98.3342 71.4732 96.2331C71.1951 95.8463 70.894 95.4804 70.572 95.1377C68.1206 92.8175 68.8235 91.513 71.5453 90.2384C73.8872 88.9776 76.1593 87.5644 78.3497 86.0063C79.0437 85.5283 79.7106 85.1599 80.4406 84.7317Z" fill="#FDFDFD"/>
<path d="M181.723 146.62C181.723 140.274 181.723 133.93 181.723 127.59C181.723 126.495 181.723 125.509 182.867 124.902C185.102 123.727 187.274 122.392 189.915 120.869C190.438 125.649 189.086 130 189.573 134.302C190.275 140.595 186.815 143.852 182.831 146.869L181.723 146.62Z" fill="#E9E9E9"/>
<path d="M89.9941 103.741C90.2104 110.094 87.065 114.576 81.5133 115.93C80.9095 116.079 80.1975 116.109 80.2155 115.462C80.2155 112.982 78.413 111.479 77.8903 109.278C77.3405 106.858 77.4577 104.717 79.9271 103.303C82.4823 101.733 84.915 99.9311 87.2002 97.916C89.4623 95.9244 89.8048 97.1094 89.7868 99.4893C89.7688 100.873 89.913 102.307 89.9941 103.741Z" fill="#FCFCFC"/>
<path d="M108.649 146.779C108.649 140.566 108.649 134.352 108.649 128.138C108.572 127.5 108.699 126.852 109.008 126.306C109.317 125.761 109.79 125.352 110.344 125.151C112.497 124.155 114.543 122.841 117.067 121.417C116.742 127.909 116.751 133.894 116.03 139.769C115.571 143.424 111.939 144.648 109.956 147.198L108.649 146.779Z" fill="#E9E9E9"/>
<path d="M162.724 118.668C163.779 119.176 165.302 119.664 164.707 121.018C163.436 123.916 164.797 126.654 164.626 129.463C164.5 131.454 160.922 136.433 159.164 136.433C158.741 136.433 158.218 135.925 157.893 135.517C155.776 132.798 153.712 130.03 151.585 127.302C150.855 126.366 150.837 125.679 151.954 125.111C155.276 123.376 158.481 121.379 161.544 119.136C161.92 118.932 162.316 118.775 162.724 118.668Z" fill="#FDFDFD"/>
<path d="M189.581 117.762C189.518 118.957 188.815 119.166 188.301 119.544C181.731 124.344 181.731 124.344 177.08 117.254C176.793 116.749 176.474 116.266 176.125 115.81C174.052 113.5 174.755 112.245 177.207 110.931C183.02 107.824 182.975 107.705 186.886 113.62C187.841 115.053 188.77 116.507 189.581 117.762Z" fill="#E9E9E9"/>
<path d="M109.866 108.76C111.848 111.598 113.84 114.436 115.805 117.284C116.066 117.662 116.49 118.28 116.373 118.519C115.102 121.098 112.443 121.506 110.451 123.04C109.712 123.587 108.703 124.743 107.928 123.408C105.936 119.963 102.728 117.354 102.016 113.032C102.97 111.74 104.165 110.689 105.52 109.952C106.874 109.215 108.356 108.809 109.866 108.76Z" fill="#E9E9E9"/>
<path d="M56.4585 105.554C56.3422 105.898 56.2005 106.231 56.0349 106.549C55.8939 106.729 55.7141 106.866 55.5121 106.948C53.0698 108.163 50.4381 111.658 48.4914 110.572C45.4632 108.899 44.0663 104.598 41.9934 101.411C41.8853 101.242 41.8132 100.844 41.9123 100.734C43.9221 98.4636 46.6439 97.5176 49.1223 96.2031C50.6274 95.4165 51.0239 97.3483 51.7089 98.2843C52.9977 100.047 54.1783 101.909 55.395 103.751C55.7915 104.319 56.098 104.956 56.4585 105.554Z" fill="#E9E9E9"/>
<path d="M65.9749 138.564C65.9749 134.212 65.9749 130.209 65.9749 126.196C65.9688 125.84 66.0492 125.489 66.2078 125.179C66.3663 124.869 66.5971 124.612 66.8762 124.434C70.4081 121.718 74.13 119.317 78.0066 117.254C76.5286 120.62 74.9874 123.956 73.6175 127.371C72.9236 129.104 71.4004 130.777 72.9326 132.958C73.3922 133.625 72.8154 134.312 72.2116 134.69C70.1657 135.975 68.0929 137.24 65.9749 138.564Z" fill="#FBFBFB"/>
<path d="M97.0331 114.346C96.4293 115.342 95.6993 116.458 94.9513 117.623C93.1488 120.401 90.7244 122.87 91.7338 126.873C91.8377 127.295 91.8044 127.743 91.6396 128.14C91.4749 128.536 91.1893 128.857 90.8326 129.044C89.9313 129.562 89.5077 128.536 89.0301 127.959C87.1194 125.519 85.2899 122.98 83.3612 120.58C82.3248 119.295 82.2707 118.519 83.8028 117.593C86.7769 115.89 89.6429 113.978 92.572 112.186C94.2753 111.24 96.934 112.355 97.0331 114.346Z" fill="#FCFCFC"/>
<path d="M171.583 91.3039C171.849 91.4757 172.097 91.6794 172.322 91.9114C178.126 100.804 178.306 97.5973 170.096 103.184C168.897 104 168.176 103.771 167.392 102.566C165.788 100.03 164.144 97.5177 162.462 95.0282C161.561 93.644 162.003 92.7877 163.219 92.2997C164.175 91.9114 165.103 90.3081 166.265 92.0806C169.086 96.3426 169.113 96.3227 171.583 91.3039Z" fill="#E8E8E8"/>
<path d="M159.381 91.3836C159.074 91.3238 158.534 91.2342 158.002 91.1147C153.793 90.2185 153.739 90.2085 154.766 85.6279C155.172 83.7957 154.181 81.0772 155.587 80.3204C156.731 79.703 158.75 81.2066 160.417 81.6249C162.265 82.0929 164.148 81.9634 164.653 84.9607C165.365 89.1829 163.626 91.6126 159.381 91.3836Z" fill="#FAFAFA"/>
<path d="M74.7977 106.32C74.3471 105.992 73.8964 105.683 73.4548 105.325C68.8584 101.74 68.8765 101.77 64.181 104.876C63.3518 105.424 62.4776 106.868 61.3871 105.813C60.2966 104.757 60.7202 103.492 61.3871 102.208C62.5587 99.9075 63.5952 97.5375 64.6676 95.1775C65.1363 94.1817 65.9024 92.9071 66.8216 94.0224C69.8949 97.7566 72.7338 101.72 75.6719 105.593L74.7977 106.32Z" fill="#F9F9F9"/>
<path d="M167.889 147.377L160.021 152.276C160.021 147.885 159.814 143.782 160.102 139.719C160.265 137.449 162.599 137.04 164.095 136.025C164.717 135.597 164.942 136.493 164.996 137.021C165.198 138.313 165.307 139.622 165.321 140.934C165.213 143.463 165.564 145.714 167.889 147.377Z" fill="#F9F9F9"/>
<path d="M169.358 113.032C167.618 106.311 168.88 104.359 176.721 101.76C178.821 109.079 174.306 111.28 169.358 113.032Z" fill="#E5E5E5"/>
<path d="M152.521 118.081C153.963 122.183 151.512 123.368 149.358 123.647C147.204 123.926 146.24 125.3 145.42 127.182C144.068 130.259 142.662 133.296 141.094 136.762C140.913 135.975 140.859 135.766 140.814 135.557C138.759 124.902 146.871 122.701 152.521 118.081Z" fill="#F4F4F4"/>
<path d="M58.3328 104.558C56.6385 102.566 54.3132 100.575 54.899 99.1009C55.8003 96.8703 58.8105 97.3981 61.7305 96.0438C60.4237 99.2901 59.4864 101.66 58.3328 104.558Z" fill="#EDEDED"/>
<path d="M52.8711 81.2565L57.0259 78.0699C59.2159 76.387 61.0725 76.9546 62.6857 79.0657L54.3582 81.9436L52.8711 81.2565Z" fill="#EAEAEA"/>
<path d="M92.1115 132.072C92.3909 135.497 92.6883 138.913 92.9226 142.338C93.0037 143.414 93.0217 144.847 91.7149 144.818C90.4081 144.788 91.0029 143.334 90.9849 142.507C90.9218 139.072 90.9849 135.626 90.9849 132.181L92.1115 132.072Z" fill="#BFBFBF"/>
<path d="M109.866 108.76L102.016 113.032L100.547 112.265C103.269 110.288 106.136 108.566 109.118 107.117L109.866 108.76Z" fill="#404040"/>
<path d="M49.0947 117.782C48.4098 114.964 47.86 112.156 51.8976 111.638C51.6182 114.117 50.3114 115.91 49.0947 117.782Z" fill="#CCCCCC"/>
<path d="M25.0956 122.562C26.3484 118.897 27.3487 115.083 30.0976 112.305C31.5576 111.429 31.4494 112.693 31.5305 113.619C31.9631 118.977 32.4949 124.334 32.7472 129.711C32.8824 132.49 33.9369 133.844 36.3522 134.302C39.777 134.939 43.1747 135.746 46.5904 136.483C47.4196 136.652 48.7985 136.483 48.8345 137.479C48.9697 141.462 51.7275 140.944 53.9266 141.512C59.7667 143.035 65.3184 143.603 70.4735 138.803C73.1232 136.343 73.4656 136.811 73.9794 140.795C74.8265 147.267 74.8175 147.327 80.6756 148.343C83.136 148.771 85.6325 148.92 88.12 149.159C88.7598 149.219 89.625 149.398 90.0396 149.05C94.6991 145.067 99.3856 148.054 103.964 149.05C107.848 149.916 111.174 149.836 113.76 145.993C114.402 145.016 115.271 144.248 116.275 143.772C118.077 142.975 118.077 141.531 118.159 139.789C118.312 133.316 118.573 126.844 118.907 120.401C119.016 119.587 118.842 118.758 118.42 118.081C117.843 117.204 117.239 116.358 116.672 115.472C115.491 113.619 113.202 111.568 113.409 109.905C113.76 107.127 115.698 104.578 117.014 101.939C117.78 100.395 119.159 100.943 120.249 101.063C126.342 101.59 132.407 101.65 138.419 100.186C142.727 99.1308 146.836 97.4578 150.036 94.0323C152.028 91.8914 154.046 92.8772 156.11 93.1361C156.903 93.2456 157.165 93.9128 156.741 94.7294C156.516 95.1404 156.27 95.5361 156.002 95.9144C153.497 99.7681 150.27 103.323 152.325 109.796C149.621 107.695 147.819 106.33 146.016 104.896C144.43 103.612 143.069 103.602 141.303 104.896C137.328 107.744 133.489 110.991 128.595 111.867C128.099 111.957 127.568 112.743 127.297 113.341C125.585 117.085 123.927 120.869 122.268 124.653C122.004 125.103 121.875 125.633 121.897 126.169C121.92 126.705 122.094 127.219 122.394 127.64C122.684 128.275 122.847 128.971 122.872 129.682C123.629 133.864 122.521 139.968 125.396 141.8C129.46 144.379 134.976 144.847 139.987 143.901C141.834 143.553 142.312 144.419 142.258 145.724C141.924 153.122 145.268 156.189 151.676 155.97C152.163 155.97 152.658 156.359 153.677 156.787C145.703 158.403 137.634 159.381 129.532 159.715C106.28 160.949 83.2442 159.167 60.6589 152.505C52.5259 150.264 44.7151 146.781 37.4517 142.159C33.5527 139.749 30.1709 136.438 27.538 132.45C25.6844 129.58 24.8184 126.074 25.0956 122.562Z" fill="#F8D208"/>
<path d="M191.465 141.223C190.915 134.252 191.735 127.332 191.834 120.391C191.834 119.604 192.438 118.778 191.906 118.001C189.293 114.177 186.742 110.294 183.975 106.599C182.885 105.145 181.578 106.49 180.47 107.137C179.073 107.944 178.622 107.545 178.505 105.803C178.108 99.5988 178.631 99.1109 183.804 101.401C189.78 104.05 195.52 107.117 200.414 111.877C209.066 120.341 209.039 129.492 200.333 137.817C198.074 140.071 195.526 141.943 192.772 143.374C190.546 143.981 191.095 142.537 191.465 141.223Z" fill="#F8D208"/>
<path d="M161.822 154.517C166.41 152.286 169.717 146.55 175.81 148.612C176.486 148.841 177.513 148.731 177.612 149.777C177.711 150.822 176.657 150.932 176.008 151.151C171.348 152.714 166.698 154.178 161.822 154.517Z" fill="#F8D208"/>
<path d="M191.465 141.223C191.455 141.687 191.575 142.143 191.809 142.528C192.043 142.913 192.379 143.209 192.772 143.374C191.033 144.778 189.266 146.092 186.725 146.252C187.761 143.663 190.663 143.623 191.465 141.223Z" fill="#F8D208"/>
<path d="M118.833 88.6253H104.512C103.088 88.6253 101.448 88.6253 100.907 86.8827C100.671 86.0149 100.644 85.0938 100.831 84.2114C101.018 83.3289 101.41 82.516 101.97 81.8539C104.566 78.5479 104.206 75.7199 100.799 73.3598C99.447 72.4238 98.9243 65.6923 100.132 64.6566C101.033 63.8799 101.61 64.5372 101.853 65.3736C102.349 67.0665 103.476 66.6582 104.557 66.4989C106.134 66.2599 105.846 64.8458 105.9 63.7106C105.908 61.1927 106.092 58.6792 106.45 56.1924C106.783 54.4299 107.612 53.2748 109.153 53.2051C110.174 53.0571 111.213 53.1775 112.184 53.5564C113.155 53.9354 114.031 54.5622 114.741 55.3858C115.206 56.0698 115.482 56.8875 115.537 57.7407C115.591 58.5939 115.421 59.4463 115.048 60.1955C114.146 61.9381 112.344 61.1913 110.884 61.1913C109.631 61.1913 108.378 60.9324 108.045 62.6949C107.856 63.6907 107.513 65.0848 108.387 65.6823C109.46 66.469 110.541 66.1105 111.461 64.8259C112.38 63.5414 113.092 64.4475 113.47 65.5927C113.786 66.5885 113.624 67.8432 115.075 67.8531C115.61 67.9457 116.158 67.8026 116.599 67.4545C117.041 67.1064 117.341 66.581 117.436 65.991C117.86 64.3579 118.481 64.5969 119.338 65.8914C120.807 68.112 123.114 68.2913 124.493 66.23C125.673 64.4674 126.052 64.9653 126.926 66.5088C128.107 68.59 129.81 68.5004 131.432 66.9768C131.892 66.5387 132.09 65.5628 132.874 65.8416C133.857 66.1902 133.956 67.2656 133.956 68.2216C133.956 71.9458 133.884 75.6601 133.884 79.3744C133.884 80.6291 133.758 81.6946 135.136 82.6506C136.515 83.6065 136.858 85.9964 136.434 87.8486C135.975 89.8402 134.163 89.2925 132.829 89.3024C128.161 89.3522 123.492 89.3024 118.833 89.3024C118.833 89.1132 118.833 88.8742 118.833 88.6253Z" fill="#2A2A2A"/>
<path d="M160.822 57.4471C159.407 56.6558 158.148 55.5626 157.118 54.2307C155.928 55.346 155.856 56.76 155.315 57.8952C154.775 59.0304 154.513 60.4444 153.053 59.7374C152.148 59.3184 151.359 58.6429 150.766 57.7792C150.172 56.9155 149.796 55.8942 149.674 54.8182C149.493 53.3245 150.746 52.6673 151.828 52.7171C154.829 52.8465 155.541 50.7255 156.262 48.1165C157.535 43.1532 159.679 38.5146 162.571 34.4643C165.689 30.2919 167.78 29.6845 172.043 31.6263C172.378 31.7948 172.748 31.8606 173.114 31.8168C173.481 31.773 173.83 31.6212 174.125 31.3773C176.495 29.8538 178.991 28.0713 181.533 30.7002C184.237 33.5083 183.173 36.8243 182.029 40.0208L181.65 41.0166C181.569 43.0081 180.406 44.2927 179.352 45.6769C179.208 45.876 179.226 45.8959 180.136 46.344C181.1 46.344 182.074 44.9698 183.029 46.344C183.592 48.5627 183.412 50.9311 182.524 53.0158C182.164 53.4838 181.506 54.0116 181.163 53.6631C178.64 51.1537 175.657 52.966 172.935 52.508C169.573 52.508 166.158 52.2391 164.283 56.4911C164.151 56.8456 163.945 57.1609 163.682 57.4115C163.42 57.6621 163.108 57.8411 162.771 57.9341C162.434 58.0271 162.082 58.0315 161.744 57.9469C161.406 57.8623 161.09 57.6911 160.822 57.4471Z" fill="#2D2D2D"/>
<path d="M182.552 46.1349C181.497 46.6727 181.11 47.7581 180.524 48.8833C180.461 48.1165 180.398 47.3597 180.344 46.593C179.298 43.6056 181.66 43.4065 183.156 42.5302C187.094 40.8174 191.204 41.8232 194.953 42.6795C199.171 43.6753 200.243 54.7883 196.656 57.6861C193.565 60.1955 190.104 61.5 186.283 59.7972C184.679 59.0802 184.129 59.2495 183.85 61.3705C183.138 66.7677 180.028 69.4563 175.099 69.3368C174.45 69.3368 173.711 69.0381 173.17 69.3368C169.141 71.2686 166.861 68.6597 164.842 65.4732C163.256 63.2127 163.599 60.4942 163.752 57.9848C163.78 56.7454 164.191 55.5538 164.915 54.6069C165.639 53.66 166.634 53.0144 167.735 52.7768C169.673 52.4582 171.385 51.5022 173.269 51.1338C176.108 51.6616 179.434 49.8791 181.66 53.2947C183.318 52.1395 184.553 53.3444 185.769 54.2904C186.62 55.0418 187.629 55.5436 188.702 55.749C189.775 55.9544 190.877 55.8569 191.907 55.4655C193.809 54.7385 195.187 53.4739 194.917 50.9944C194.647 48.5149 193.583 46.8121 191.312 46.583C189.185 46.354 187.013 45.7366 184.877 46.583C184.499 46.8017 184.066 46.8763 183.646 46.7953C183.225 46.7143 182.841 46.4821 182.552 46.1349Z" fill="#2C2C2C"/>
<path d="M173.269 51.094C172.551 51.9947 171.611 52.6451 170.565 52.9661C164.382 54.629 162.814 57.6961 164.608 64.3977C164.685 64.7457 164.745 65.098 164.788 65.4533C164.289 65.0131 163.895 64.444 163.642 63.7963C163.389 63.1486 163.284 62.4421 163.337 61.739C163.454 59.5183 162.381 58.3533 160.822 57.4272C162.039 57.4272 163.057 57.2479 163.67 55.6945C164.914 52.5279 169.835 50.2675 173.269 51.094Z" fill="#CACACA"/>
<path d="M183.11 42.5301C182.11 43.8247 180.623 44.7209 180.298 46.593C179.099 47.5888 180.55 50.6259 177.856 50.4367C177.135 50.4367 176.252 50.7155 175.81 49.7994C175.602 49.3753 175.54 48.882 175.636 48.4113C175.732 47.9406 175.98 47.5244 176.333 47.2402C178.135 45.2487 179.938 43.0878 181.659 41.0066C181.795 41.3558 181.994 41.671 182.243 41.9329C182.492 42.1947 182.787 42.3979 183.11 42.5301Z" fill="#E5E5E5"/>
<path d="M57.8543 59.9763C57.7912 68.8488 50.9417 76.367 43.0738 76.2077C39.2253 76.0702 35.569 74.3169 32.8497 71.3049C30.1303 68.2929 28.5524 64.2488 28.4375 59.9963C28.4375 55.6914 29.9852 51.5629 32.7402 48.5189C35.4952 45.475 39.2317 43.7649 43.1279 43.7649C47.024 43.7649 50.7605 45.475 53.5155 48.5189C56.2705 51.5629 57.8182 55.6914 57.8182 59.9963L57.8543 59.9763Z" fill="#FDFDFD"/>
<path d="M26.2489 52.3387C27.8853 47.5331 31.0947 43.5812 35.242 41.2651C39.3894 38.949 44.1725 38.4374 48.645 39.8316C53.1714 41.2679 57.0568 44.5039 59.5527 48.9164C62.0487 53.3288 62.9787 58.6057 62.1637 63.7306C61.9744 64.7761 61.9113 66.1802 60.6135 66.001C59.1175 65.7918 59.7123 64.4077 59.8835 63.4119C61.3976 52.1993 55.5125 43.2273 45.4636 41.405C42.1681 40.899 38.8112 41.5049 35.8328 43.1432C32.8544 44.7815 30.3934 47.3758 28.7724 50.5861C28.2046 51.7313 27.5828 52.8466 26.9699 53.9718C25.6541 54.0216 26.0326 53.1354 26.2489 52.3387Z" fill="#F1F1F1"/>
<path d="M28.5556 83.6463C27.8527 80.9178 26.5819 79.5735 23.8691 80.7186C25.0678 77.323 26.9604 75.192 28.7449 72.9714C30.0968 71.2985 30.7727 72.8619 31.6019 73.6485C34.7022 76.5762 34.6931 76.5762 31.8722 79.7328C30.8178 80.878 29.8084 82.1227 28.5556 83.6463Z" fill="#F7F7F7"/>
<path d="M55.3496 75.68C50.8434 81.0374 42.2365 82.3618 35.9277 78.4384C39.731 77.6019 42.8944 78.986 46.0397 78.528C49.1851 78.0699 51.6275 74.973 55.3496 75.68Z" fill="#EBEBEB"/>
<path d="M56.043 72.9614C56.9442 69.6056 58.8278 67.7833 62.1534 68.6397C63.1718 68.8986 63.5323 69.1476 63.4152 70.9499C63.0727 76.0982 60.8556 75.1721 58.0798 73.778C57.4219 73.4394 56.5567 73.6884 56.043 72.9614Z" fill="#F4F4F4"/>
<path d="M26.2482 52.3386C26.5006 52.8863 26.7439 53.434 26.9872 53.9717C25.9238 58.7515 25.9688 63.4218 27.8885 67.9128C28.258 68.7691 28.8618 69.9043 27.7894 70.3823C26.7169 70.8603 26.6087 69.3168 26.3474 68.5799C24.4547 63.2226 23.932 57.7557 26.2482 52.3386Z" fill="#E2E2E2"/>
<path d="M114.057 79.8922C111.237 75.7697 110.074 75.9091 107.749 80.2109C107.361 80.9279 106.721 81.595 106.316 80.9677C105.234 79.3246 105.793 77.2733 105.685 75.3913C105.613 74.266 106.586 74.2162 107.325 74.2063C110.029 74.2063 113.174 75.0427 114.012 70.5916C114.066 70.3127 115.166 70.1235 115.815 70.1235C120.258 70.1235 124.701 70.1833 129.144 70.1235C130.947 70.1235 131.704 70.9003 131.632 72.9018C131.542 75.2917 131.632 77.6915 131.542 80.0814C131.542 81.0175 131.542 82.073 130.289 82.1427C129.316 82.1427 129.081 81.4855 128.856 80.5793C127.955 77.0741 126.152 75.8294 123.034 77.7214C122.277 78.1894 121.691 78.299 121.231 77.2633C120.465 75.6601 119.564 73.7582 117.626 74.4154C115.689 75.0726 114.778 76.8352 114.472 79.006C114.366 79.3184 114.227 79.6159 114.057 79.8922Z" fill="#FAFAFA"/>
<path d="M118.302 86.3449C114.562 86.3449 110.191 86.3449 105.901 86.3449C104.946 86.3449 103.45 86.9125 103.387 85.0404C103.324 83.1683 104.784 83.6463 105.766 83.6463C114.436 83.6463 123.106 83.6463 131.722 84.9408C132.506 85.0603 133.831 84.7516 133.822 86.0063C133.822 87.6295 132.38 87.0021 131.56 87.0021C127.342 86.8826 123.124 86.6337 118.302 86.3449Z" fill="#ECECEC"/>
<path d="M107.035 72.2147C105.305 70.95 102.114 73.2105 102.105 70.2231C102.105 67.644 105.125 68.8887 106.747 68.7394C108.369 68.59 111.055 67.0366 111.136 70.2629C111.226 73.8876 108.198 70.9401 107.035 72.2147Z" fill="#E4E4E4"/>
<path d="M110.984 59.2396C109.65 58.9607 107.812 59.7474 107.839 57.248C107.807 56.9431 107.847 56.6344 107.954 56.3514C108.062 56.0684 108.233 55.8206 108.452 55.6317C108.671 55.4429 108.93 55.3192 109.204 55.2727C109.479 55.2261 109.76 55.2583 110.02 55.3659C111.444 55.7941 113.625 55.6647 113.462 58.2537C113.336 60.1258 111.876 59.2396 110.984 59.2396Z" fill="#E2E2E2"/>
<path d="M119.905 80.1511C119.905 81.7942 118.896 81.5253 118.103 81.5552C116.859 81.5552 116.3 80.8781 116.661 79.5636C116.94 78.5678 116.868 76.7953 118.31 77.114C119.572 77.3828 119.581 79.0856 119.905 80.1511Z" fill="#E2E2E2"/>
<path d="M125.251 79.1254C125.643 79.1322 126.017 79.3023 126.3 79.6015C126.582 79.9007 126.752 80.3069 126.775 80.7385C126.883 81.6447 126.369 82.0032 125.621 81.9534C124.873 81.9036 124.125 81.6447 124.17 80.5394C124.17 80.2005 124.278 79.8725 124.476 79.6137C124.674 79.3549 124.949 79.1818 125.251 79.1254Z" fill="#D0D0D0"/>
<path d="M182.553 46.1349C184.797 44.3326 192.854 43.6952 194.422 45.1989C195.99 46.7025 197.423 52.03 196.648 53.7926C195.467 56.4812 191.141 58.5624 188.185 57.6761C185.653 56.9193 183.679 55.1269 181.705 53.2548C181.453 50.7853 181.426 48.3954 182.553 46.1349Z" fill="#F9F9F9"/>
<path d="M164.707 49.8791C168.312 45.6868 171.611 42.1618 173.026 36.5156C174.422 38.4176 175.143 40.3295 176.721 41.3452C177.955 42.1319 177.207 42.9086 176.604 43.6056C173.539 47.1805 170.024 49.7895 164.707 49.8791Z" fill="#F7F7F7"/>
<path d="M158.219 50.7056C158.543 46.8021 160.174 43.8347 161.517 40.7477C162.013 39.6225 162.518 39.6125 163.473 40.5087C167.33 44.1235 167.357 44.701 163.031 48.0568C161.627 49.3267 159.982 50.2319 158.219 50.7056Z" fill="#EAEAEA"/>
<path d="M170.899 35.7787C170.313 37.601 170.655 40.7577 167.807 40.907C167.336 40.9347 166.864 40.8542 166.422 40.6708C165.98 40.4873 165.577 40.2048 165.238 39.8411C164.9 39.4773 164.633 39.0401 164.455 38.5569C164.276 38.0737 164.19 37.555 164.202 37.0334C164.373 34.6435 166.419 33.2892 168.546 32.861C170.214 32.5324 170.917 33.6975 170.899 35.7787Z" fill="#F3F3F3"/>
<path d="M181.209 35.3008C180.596 36.9438 181.02 40.1005 178.712 39.8615C176.405 39.6225 175.45 36.9339 175.279 34.3548C175.116 31.9251 176.775 31.706 178.334 31.6462C180.452 31.5666 181.101 33.12 181.209 35.3008Z" fill="#ECECEC"/>
<path d="M162.464 51.3927C162.536 52.8864 162.59 54.3801 161.139 54.639C160.67 54.7286 159.598 53.9917 159.598 53.6432C159.634 51.6914 161.454 52.1794 162.464 51.3927Z" fill="#CFCFCF"/>
<path d="M173.837 54.9377C177.208 52.0997 179.046 52.5876 180.525 56.4314C182.931 62.7148 180.29 66.9668 174.261 66.5884C173.508 66.4876 172.745 66.5553 172.017 66.7876C168.7 68.1419 167.565 65.7918 166.51 63.0633C165.311 60.076 166.159 57.6363 168.574 56.0032C169.376 55.4555 171.368 53.8125 170.71 57.3077C170.476 58.5723 171.827 58.9308 172.828 58.8711C173.545 58.9043 174.249 58.6553 174.815 58.1684C175.381 57.6815 175.772 56.9883 175.919 56.2123C176.244 54.5493 174.702 55.5153 173.837 54.9377Z" fill="#FBFBFB"/>
<path d="M40.6601 72.9515C38.6773 73.1607 38.3258 71.6968 38.0284 70.0538C37.5688 67.4647 37.6319 64.6566 34.5045 63.5911C33.2338 63.1629 32.8192 61.1216 32.9184 59.5482C33.1078 57.5381 33.4088 55.5428 33.8196 53.5735C33.8587 53.0327 34.0598 52.5217 34.3911 52.1214C34.7225 51.721 35.1651 51.4541 35.6491 51.3628C39.0288 50.5662 42.4085 49.7098 45.7611 48.7837C46.6968 48.418 47.7224 48.4522 48.6364 48.8797C49.5504 49.3072 50.2865 50.0971 50.7 51.094C51.9617 53.7428 55.2062 55.814 53.0072 59.6179C51.6012 62.0377 53.0072 64.2882 53.4578 66.4988C53.9355 68.9684 53.3407 70.0936 51.1596 70.5517C47.6357 71.2886 44.1479 72.1449 40.6601 72.9515Z" fill="#2C2C2C"/>
<path d="M188.861 51.9602C188.176 50.9644 186.158 52.8863 186.158 50.586C186.147 50.2815 186.198 49.9782 186.307 49.6982C186.416 49.4182 186.58 49.1685 186.787 48.9673C186.994 48.7661 187.239 48.6184 187.505 48.5349C187.77 48.4515 188.049 48.4344 188.321 48.4849C188.93 48.5006 189.51 48.7812 189.933 49.2659C190.357 49.7506 190.59 50.4003 190.583 51.074C190.565 52.2291 189.69 52.249 188.861 51.9602Z" fill="#5B5B5B"/>
<path d="M47.8328 58.9009C46.2376 58.0047 44.8046 58.6022 43.6149 60.3647C43.0832 61.1514 42.2991 60.9323 41.533 60.6336C40.9424 60.3247 40.2803 60.2231 39.6358 60.3424C38.9913 60.4616 38.3954 60.7961 37.9281 61.3008C37.6645 61.6077 37.3163 61.8094 36.938 61.8743C36.5596 61.9391 36.1725 61.8635 35.8372 61.6592C34.8007 61.0717 35.3054 60.0759 35.2694 59.1598C35.1252 55.1767 36.5582 52.8764 40.3434 52.6374C41.3142 52.5667 42.2662 52.3071 43.1553 51.8706C46.571 50.2475 48.9143 51.3329 50.3653 55.0771C50.7168 55.9932 51.8433 56.7201 51.0773 57.925C50.3112 59.1299 49.1666 58.9905 47.8328 58.9009Z" fill="#F7F7F7"/>
<path d="M40.9923 63.1629C41.8119 63.4688 42.6939 63.5075 43.533 63.2744C44.372 63.0413 45.1326 62.5463 45.7238 61.8485C46.2235 61.3861 46.8465 61.1173 47.4975 61.0832C48.1485 61.049 48.7917 61.2513 49.3288 61.6593C50.9601 62.7745 50.6807 65.0549 50.879 66.8473C51.0772 68.6397 49.4279 68.2016 48.4726 68.4705C47.1117 68.8489 45.7689 69.1576 44.3719 69.4662C40.3704 70.462 39.3069 69.4662 39.2619 64.7761C39.2528 63.382 39.6854 62.7347 40.9923 63.1629Z" fill="#F9F9F9"/>
<path d="M45.0565 53.7726C45.555 53.9885 45.9796 54.3718 46.2706 54.8684C46.5617 55.365 46.7044 55.9499 46.6788 56.5409C46.6788 57.2081 46.3723 57.8254 45.7775 57.6362C44.5788 57.2778 44.2274 56.0828 44.0651 54.8779C43.939 54.1809 44.3625 53.7726 45.0565 53.7726Z" fill="#3B3B3B"/>
<path d="M39.7044 59.0602C38.5779 58.7515 38.65 57.7557 38.686 56.76C38.7221 55.7642 38.6049 54.5792 39.8757 54.7684C40.9752 54.9775 40.7228 56.2322 40.7769 57.1384C40.831 58.0445 40.7318 58.9109 39.7044 59.0602Z" fill="#494949"/>
</g>
<defs>
<clipPath id="clip0_4501_1876">
<rect width="210" height="175" fill="white" transform="translate(0.5)"/>
</clipPath>
</defs>
</svg>
