<svg width="211" height="175" viewBox="0 0 211 175" fill="none" xmlns="http://www.w3.org/2000/svg">
<g clip-path="url(#clip0_4501_5102)">
<path d="M12.6005 102.049C16.5005 98.7126 21.1005 96.5916 25.6905 94.4606C26.4723 94.0813 27.1629 93.5386 27.7151 92.8694C28.2672 92.2003 28.668 91.4204 28.8901 90.5831C29.1122 89.7457 29.1504 88.8705 29.002 88.0171C28.8537 87.1637 28.5223 86.3522 28.0305 85.6379C27.2205 84.5724 27.1805 84.0048 27.9605 83.258C30.8905 80.4797 34.1305 78.0998 38.2005 77.2833C40.7005 76.8053 42.8805 77.4725 43.4605 80.3802C43.8005 82.1128 42.9005 84.0248 45.9905 84.7118C47.9905 85.1699 44.8005 86.106 45.1805 87.5698C47.5305 87.6295 49.7705 86.7632 52.0405 86.2155C54.3105 85.6678 52.8005 84.3235 52.5105 83.3775C50.4305 76.6559 52.3805 71.4977 58.1205 68.7493C66.3605 64.7662 73.1205 68.839 73.5305 77.9106C73.7305 82.7601 73.7305 82.7601 78.7305 82.3219C82.0005 82.0332 85.2605 81.7444 88.5205 81.4755C90.0905 81.3461 90.7205 80.9577 90.5205 79.006C90.1586 75.6393 90.0817 72.2483 90.2905 68.8688C90.4405 65.1247 90.6405 61.271 94.9105 59.4387C95.2905 59.2794 95.8205 58.5226 95.7405 58.3832C93.9405 55.5551 95.4705 51.8906 93.5605 49.2319C92.7305 48.0768 93.0005 47.4992 93.7205 46.8221C96.5905 44.1534 99.7205 41.8431 103.65 41.0266C107.27 40.2797 109.21 42.0224 109.27 45.6869C109.27 46.2744 108.94 47.0212 109.19 47.4295C109.968 48.7624 110.399 50.2674 110.444 51.808C110.489 53.3486 110.148 54.8762 109.45 56.2522C108.75 57.8056 109.04 58.4628 110.19 59.5582C115.64 64.7463 115.01 71.5973 114.92 78.1994C114.92 80.3802 112.32 79.4441 110.7 80.7785C115.93 81.1469 120.7 81.6349 125.52 81.7743C134.251 82.2408 142.938 83.3088 151.52 84.9708C153.93 85.3989 154.85 85.2396 155.39 82.5908C156.054 79.5475 157.867 76.8746 160.454 75.125C163.041 73.3753 166.205 72.6828 169.29 73.1906C171.171 73.4669 172.913 74.3383 174.258 75.676C175.603 77.0137 176.48 78.7467 176.76 80.6192C177.01 81.9137 176.96 83.268 177.1 84.6023C177.35 86.8229 175.57 89.4418 177.18 91.1247C178.56 92.5487 181.1 92.8574 183.12 93.6839C189.43 96.2829 195.51 99.2802 200.81 103.642C212.48 113.271 212.54 124.842 200.87 134.511C193.67 140.486 185.26 144.26 176.43 147.108C160.64 152.216 144.43 154.825 127.85 156.07C106.769 157.759 85.5621 157.021 64.6505 153.869C49.6505 151.579 35.1305 148.004 21.4705 141.332C15.8705 138.594 10.6605 135.288 6.47047 130.568C2.47047 126.057 0.470468 120.978 1.90047 114.864C2.81047 110.881 5.53047 108.322 8.35047 105.763C9.48047 105.514 10.3505 104.488 11.5905 104.618C14.1705 105.225 16.8505 105.265 19.3905 106.101C19.8888 106.351 20.4653 106.395 20.9963 106.226C21.5273 106.056 21.9704 105.686 22.2305 105.195C22.5394 104.671 22.7331 104.088 22.7986 103.483C22.8641 102.879 22.8 102.268 22.6105 101.69C22.0405 100.366 20.9605 101.332 20.1005 101.561C17.8405 102.168 16.1705 104.548 13.4305 103.761C12.7105 103.463 12.2405 102.935 12.6005 102.049Z" fill="#381805"/>
<path d="M128.94 26.6174C128.89 33.7871 126.21 38.9453 122.1 43.4861C120.83 44.8802 119.24 45.7864 117.68 44.3624C113.5 40.5186 109.29 36.5853 107.57 30.8694C106.18 26.2689 107.04 22.1264 110.79 19.0494C114.54 15.9724 119.02 14.6679 123.71 16.7989C128.4 18.9299 128.9 23.1122 128.94 26.6174Z" fill="#381805"/>
<path d="M12.5998 102.048L14.0398 102.984C15.1198 105.693 12.4098 104.976 11.4398 105.842C10.429 106.146 9.35071 106.146 8.33984 105.842C9.40188 104.228 10.8708 102.92 12.5998 102.048Z" fill="#464646"/>
<path d="M98.4204 154.586C89.4204 154.098 80.5104 153.78 71.6304 152.465C70.1704 152.256 69.3704 151.151 68.5404 150.095C66.6104 147.636 64.2204 146.978 61.5404 148.651C59.1904 150.095 56.8404 150.095 54.2104 149.538C47.512 148.201 40.9236 146.367 34.5004 144.051C37.2204 142.537 39.2104 141.462 41.1704 140.337C42.1445 139.854 43.0604 139.263 43.9004 138.574C47.3904 135.338 47.0304 133.485 42.5804 131.962C31.1004 127.979 19.5804 124.135 8.11042 120.222C3.79042 118.748 3.61042 118.419 4.92042 114.327C6.92042 108.192 7.67042 107.595 12.0904 108.889C14.8904 109.706 17.6804 110.562 20.4704 111.389C22.5504 112.006 24.7404 112.385 24.8904 115.312C24.9704 116.856 26.5604 116.906 27.7704 116.796C29.9504 116.607 31.0404 117.174 31.2904 119.644C31.4804 121.516 30.7204 124.324 33.1604 125.091C36.3099 126.107 39.7073 126.065 42.8304 124.971C44.3004 124.454 44.3504 123.159 44.1704 121.984C43.7204 118.937 45.1704 118.827 47.5404 119.554C52.1804 120.978 56.9204 122.104 61.5404 123.607C66.9304 125.38 71.7304 124.165 76.4204 121.417C80.1904 119.216 84.0604 117.174 87.9004 115.103C90.1804 113.878 91.9004 112.325 91.5804 109.457C91.2604 106.589 88.7204 106.529 86.6904 106.022C73.5704 102.745 60.5004 99.5789 47.3904 96.3625C45.8304 95.9841 43.3904 95.9841 43.4904 93.8929C43.487 92.8407 43.8937 91.8282 44.6248 91.0686C45.356 90.309 46.3546 89.8614 47.4104 89.8201C47.896 89.7666 48.371 89.6424 48.8204 89.4517C52.7504 87.8983 55.6204 88.6351 58.5704 92.1005C63.8604 98.3242 65.4504 98.0752 69.8304 90.7861C71.2404 88.4459 72.6404 88.0476 75.1204 88.6352C86.5004 91.3138 97.8404 93.8531 109.21 96.3824C114.85 97.6371 120.4 98.5632 125.62 94.6895C127.93 92.9768 128.3 95.9542 129.38 97.0097C129.62 97.2487 129.27 98.0055 129.38 98.4238C130.59 102.676 131.09 106.729 126.38 109.377C126.26 115.253 121.65 115.591 117.48 117.035C106.48 120.839 97.0704 127.62 87.1304 133.396C82.5204 136.075 82.5904 139.898 86.6104 143.354C90.6304 146.809 94.6804 150.215 98.7204 153.64L98.4204 154.586Z" fill="#ECECE7"/>
<path d="M140.5 86.3648C145.87 85.9068 150.3 87.1515 154.7 88.1672C156.44 88.5655 156.89 90.7264 157.22 92.3197C157.55 93.9129 155.85 94.1519 154.85 94.6498C152.673 95.7477 150.827 97.4003 149.5 99.4396C147.3 102.676 148.33 105.295 152.13 106.141L202.93 117.503C207.37 118.499 207.88 119.495 206.24 123.727C205.012 126.631 203.179 129.241 200.86 131.384C200.197 132.085 199.345 132.579 198.406 132.807C197.467 133.035 196.482 132.987 195.57 132.669C181.45 129.151 167.313 125.695 153.16 122.303C150.94 121.765 149.97 120.739 149.79 118.379C149.41 113.56 148.93 108.661 144.5 105.434C143.82 104.946 143.5 104.199 144.07 103.562C145.96 101.401 143.97 97.8861 146.77 96.0539C146.95 95.9443 146.86 95.4265 146.9 95.0581C142.99 94.6697 144.9 91.0152 143.53 89.2028C142.593 88.1823 141.58 87.2336 140.5 86.3648Z" fill="#ECECE7"/>
<path d="M26.5 107.744C26.58 106.062 26.58 104.359 26.77 102.686C26.8487 101.721 27.1499 100.787 27.65 99.9574C28.3374 98.806 29.3434 97.8763 30.5475 97.2793C31.7517 96.6824 33.1031 96.4437 34.44 96.5916C38.95 96.9401 44.49 94.9087 46.04 101.69C46.63 104.269 46.85 106.928 47.22 109.557C47.61 112.365 47.33 114.536 43.59 114.625C40.97 114.705 41.73 116.985 41.8 118.608C41.98 123.08 38.64 125.27 34.51 123.269C32.66 122.383 33.28 120.5 33.17 119.077C32.96 116.209 32.41 114.098 28.77 114.745C27.15 115.034 26.71 113.918 26.77 112.504C26.77 110.931 26.77 109.368 26.77 107.794L26.5 107.744Z" fill="#FEFEFE"/>
<path d="M127.25 118.061C127.25 116.736 127.25 115.402 127.25 114.078C127.246 112.618 127.625 111.183 128.35 109.915C131.64 104.657 137.25 107.485 141.69 106.549C144.13 106.042 146.13 109.537 146.77 112.405C147.31 114.864 147.49 117.384 147.82 119.923C148.17 122.602 147.82 124.653 144.34 124.743C141.73 124.822 142.34 126.973 142.34 128.586C142.52 133.237 139.6 135.228 135.19 133.446C133.34 132.699 133.86 131.006 133.76 129.692C133.53 126.704 133.26 124.085 129.1 124.852C127.67 125.111 127.28 123.996 127.28 122.771C127.28 121.198 127.28 119.634 127.28 118.061H127.25Z" fill="#FEFEFE"/>
<path d="M92.2493 71.7765C92.1643 70.3305 92.1643 68.8808 92.2493 67.4348C92.2961 66.1151 92.6377 64.8224 93.2493 63.6508C94.8893 61.1912 97.2493 60.305 100.359 60.295C105.229 60.295 110.249 59.2195 111.679 65.7918C112.133 68.1601 112.467 70.5497 112.679 72.9515C112.999 75.7198 113.129 78.2491 109.049 78.3686C106.449 78.4482 107.229 80.7883 107.279 82.3517C107.419 86.7133 103.919 88.9538 99.9393 86.9324C98.2593 86.0859 98.8493 84.4031 98.7193 83.0587C98.4693 80.2307 98.1593 77.6815 94.1993 78.4283C92.8693 78.6773 92.1993 77.8508 92.1993 76.4965C92.1993 74.9331 92.1993 73.3598 92.1993 71.7864L92.2493 71.7765Z" fill="#FDFDFD"/>
<path d="M174.5 85.6378C174.25 89.7504 172.27 94.0523 169.17 97.9458C168.05 99.3498 167.24 99.1407 165.93 98.1449C162.461 95.4617 159.817 91.8634 158.3 87.7589C157.671 86.2939 157.498 84.675 157.803 83.1112C158.108 81.5473 158.876 80.1104 160.01 78.986C161.117 77.7664 162.526 76.8571 164.097 76.3487C165.667 75.8403 167.344 75.7505 168.96 76.0882C172.63 76.7654 174.6 79.9419 174.5 85.6378Z" fill="#F8D208"/>
<path d="M71.0593 78.8168C70.774 83.3377 69.1489 87.6729 66.3893 91.2741C65.0593 93.1561 63.6793 93.3852 61.8693 91.8716C58.5842 89.156 56.1052 85.5995 54.6993 81.5851C54.0795 80.0379 53.9723 78.334 54.3932 76.7218C54.8141 75.1097 55.7412 73.6736 57.0393 72.623C59.8493 70.2132 63.2593 69.0879 66.8593 70.6314C70.4593 72.1749 70.9793 75.4908 71.0593 78.8168Z" fill="#F8D208"/>
<path d="M195.02 135.427C192.234 137.715 189.093 139.534 185.72 140.815C169.2 147.994 151.72 151.38 133.93 153.212C125.263 154.108 116.546 154.586 107.78 154.646C105.966 154.77 104.175 154.192 102.78 153.033C98.4996 149.368 94.1496 145.943 89.8896 142.398C86.2696 139.351 86.5096 136.573 90.6696 134.322C99.6696 129.443 108.21 123.558 117.79 119.644C118.875 119.122 120.006 118.702 121.17 118.389C123.91 117.832 125.63 118.529 125.24 121.845C124.85 125.161 125.24 127.82 129.7 127.033C131.76 126.684 131.4 128.377 131.78 129.602C132.38 131.594 131.16 134.581 133.78 135.338C136.938 136.329 140.334 136.277 143.46 135.188C145.15 134.581 144.73 133.117 144.77 131.813C144.77 130.199 143.64 127.67 145.32 127.192C147.78 126.495 149.87 124.334 152.7 125.031L195.02 135.427Z" fill="#4395B5"/>
<path d="M47.9303 116.806C50.6903 113.112 49.0003 109.447 49.0403 105.972C49.0403 103.871 46.9403 101.212 48.4803 99.9972C49.5503 99.1308 52.5303 100.495 54.6303 100.993C64.7503 103.453 74.8703 105.922 84.9703 108.481C86.2503 108.8 88.2403 108.591 88.3303 110.582C88.4104 112.166 86.8004 112.574 85.6604 113.221C81.0804 115.711 76.4404 118.101 71.9104 120.66C70.7669 121.343 69.4887 121.773 68.1632 121.919C66.8377 122.065 65.4962 121.924 64.2303 121.506C58.9103 119.873 53.5003 118.409 47.9303 116.806Z" fill="#4395B5"/>
<path d="M205.929 115.302L184.259 110.383C174.319 108.153 164.379 105.922 154.439 103.692C153.199 103.413 151.549 103.423 151.309 101.76C151.119 100.415 152.309 99.6685 153.309 98.9117C153.879 98.4636 154.539 98.1151 155.089 97.6471C157.889 95.2672 160.349 95.1975 162.539 98.4935C163.308 99.4289 164.158 100.295 165.079 101.083C166.799 102.855 168.439 102.666 170.079 100.973C171.682 99.3161 173.051 97.4502 174.149 95.4265C174.759 94.3012 175.339 93.3552 176.939 93.9527C186.449 97.4479 195.749 101.292 202.759 109.009C204.525 110.671 205.647 112.899 205.929 115.302Z" fill="#4395B5"/>
<path d="M75.8695 85.0902L94.1495 83.5467C95.8295 83.3974 97.1495 83.8654 97.1495 85.7773C97.1495 88.5456 98.6495 89.2327 101.07 89.2924C103.003 89.4186 104.944 89.3753 106.87 89.163C109.04 88.8543 110.17 87.8585 109.81 85.5383C109.6 84.2139 110.18 83.4272 111.61 83.497C119.61 83.9152 127.74 83.9052 135.9 86.0063C130.4 88.934 124.9 91.9313 119.35 94.7295C118.2 95.1463 116.948 95.195 115.77 94.8689C102.43 91.9711 89.1095 88.9838 75.7695 86.0163L75.8695 85.0902Z" fill="#4395B5"/>
<path d="M4.85938 122.681C6.41937 122.183 7.47937 122.92 8.57937 123.299C19.1327 126.883 29.676 130.488 40.2094 134.113C41.0694 134.412 42.3694 134.372 42.4794 135.527C42.5894 136.682 41.4194 137.09 40.6194 137.518C37.8894 139.102 35.1094 140.576 32.3594 142.099C31.9378 142.342 31.4648 142.483 30.9784 142.511C30.4921 142.539 30.006 142.452 29.5594 142.258C21.6294 139.112 14.0294 135.427 8.25938 128.855C6.56505 127.157 5.38653 125.017 4.85938 122.681Z" fill="#4395B5"/>
<path d="M11.4395 105.842C12.2995 104.847 13.1695 103.94 14.0395 102.984C18.1181 100.398 22.4796 98.2833 27.0395 96.6812C25.2154 99.9146 24.3713 103.605 24.6095 107.306C24.7195 109.059 24.1295 109.706 22.2495 109.089C18.6495 107.904 15.0295 106.918 11.4395 105.842Z" fill="#4395B5"/>
<path d="M36.9902 86.305C38.8502 86.9523 42.5902 84.7416 42.5502 89.392C42.5502 92.3793 39.6102 94.8589 36.4102 94.7493C34.9513 94.7034 33.5616 94.1198 32.5103 93.1116C31.459 92.1034 30.8211 90.7423 30.7202 89.2924C30.6802 86.6336 31.4402 86.2353 36.9902 86.305Z" fill="#FAFAFA"/>
<path d="M137.33 96.3724C139.33 97.189 142.89 94.8987 143.15 99.2304C143.33 102.218 140.57 104.857 137.35 104.906C134.13 104.956 131.25 102.397 131.35 99.4195C131.5 94.8489 135.15 97.1193 137.33 96.3724Z" fill="#FAFAFA"/>
<path d="M102.5 50.0185C104.32 50.7653 108.1 48.3356 108.18 53.0059C108.18 55.9932 105.37 58.5524 102.18 58.4927C100.648 58.4904 99.1781 57.8909 98.0847 56.8225C96.9913 55.7542 96.3614 54.3019 96.3301 52.7768C96.4301 50.2475 97.0501 49.9588 102.5 50.0185Z" fill="#FAFAFA"/>
<path d="M126.431 28.0514C126.288 30.8244 125.486 33.5241 124.091 35.9281C119.791 43.4463 119.881 43.3467 113.841 36.8043C112.702 35.3946 111.739 33.8533 110.971 32.2138C109.171 28.8579 108.971 25.4623 111.361 22.3156C113.751 19.1689 117.361 18.3325 121.121 18.8901C124.501 19.3979 126.501 22.6542 126.431 28.0514Z" fill="#F8D208"/>
<path d="M166.34 80.4996C166.979 80.4745 167.615 80.5867 168.206 80.8286C168.798 81.0704 169.33 81.4362 169.766 81.9011C170.203 82.3659 170.533 82.919 170.736 83.5225C170.939 84.1261 171.008 84.7661 170.94 85.3989C170.8 88.3364 169.01 89.7206 166.26 89.87C165.624 89.8933 164.99 89.788 164.396 89.5604C163.802 89.3329 163.26 88.9878 162.804 88.546C162.348 88.1042 161.986 87.5749 161.741 86.99C161.495 86.4052 161.372 85.7769 161.377 85.1431C161.383 84.5093 161.517 83.8832 161.772 83.3026C162.027 82.7219 162.398 82.1988 162.862 81.7648C163.326 81.3309 163.873 80.995 164.471 80.7775C165.069 80.5601 165.705 80.4655 166.34 80.4996Z" fill="#381805"/>
<path d="M67.4293 79.3046C67.469 79.9382 67.3727 80.5729 67.1469 81.1666C66.921 81.7602 66.5709 82.2992 66.1196 82.7476C65.6683 83.196 65.1264 83.5436 64.5298 83.7672C63.9331 83.9908 63.2955 84.0854 62.6593 84.0446C59.8993 83.9151 58.0893 82.5708 57.9693 79.6133C57.949 78.9948 58.0512 78.3783 58.2701 77.7991C58.489 77.2199 58.8203 76.6893 59.2451 76.2376C60.1031 75.3253 61.2899 74.7898 62.5443 74.7489C63.7988 74.7079 65.0182 75.1649 65.9343 76.0193C66.8505 76.8736 67.3882 78.0554 67.4293 79.3046Z" fill="#381805"/>
<path d="M122.829 27.8821C122.856 28.5164 122.747 29.149 122.508 29.7375C122.269 30.3259 121.906 30.8565 121.443 31.2934C120.981 31.7303 120.429 32.0635 119.827 32.2703C119.224 32.4772 118.584 32.553 117.949 32.4926C115.179 32.3134 113.429 30.9093 113.369 27.9519C113.36 26.7027 113.849 25.501 114.73 24.6111C115.61 23.7213 116.81 23.2162 118.064 23.2069C119.319 23.1977 120.526 23.685 121.419 24.5618C122.313 25.4386 122.82 26.633 122.829 27.8821Z" fill="#381805"/>
<path d="M168.589 85.14C168.199 86.6436 167.379 87.4801 165.969 87.3208C165.661 87.3183 165.357 87.2516 165.076 87.1252C164.796 86.9987 164.545 86.8152 164.339 86.5864C164.134 86.3576 163.979 86.0885 163.884 85.7966C163.79 85.5046 163.757 85.1962 163.789 84.891C163.806 84.5887 163.887 84.2933 164.026 84.0244C164.166 83.7555 164.361 83.5191 164.6 83.3309C164.838 83.1427 165.113 83.0069 165.408 82.9325C165.703 82.8582 166.01 82.8469 166.309 82.8994C166.888 82.9607 167.429 83.2157 167.843 83.6227C168.257 84.0297 168.52 84.5646 168.589 85.14Z" fill="white"/>
<path d="M65.05 79.2449C65.054 79.5456 64.9984 79.8442 64.8865 80.1236C64.7745 80.403 64.6084 80.6577 64.3976 80.8732C64.1868 81.0886 63.9355 81.2606 63.6579 81.3793C63.3804 81.498 63.082 81.5612 62.78 81.5651C62.4491 81.6041 62.1136 81.5698 61.7975 81.4647C61.4815 81.3595 61.1927 81.186 60.9519 80.9566C60.7111 80.7273 60.5242 80.4478 60.4045 80.1381C60.2849 79.8283 60.2356 79.4961 60.26 79.1652C60.2565 78.8636 60.3176 78.5647 60.4393 78.2885C60.561 78.0122 60.7404 77.765 60.9657 77.5634C61.1909 77.3617 61.4568 77.2102 61.7455 77.1189C62.0342 77.0277 62.3392 76.9988 62.64 77.0342C63.241 77.0541 63.8149 77.2882 64.2572 77.6939C64.6995 78.0996 64.9808 78.65 65.05 79.2449Z" fill="white"/>
<path d="M120.5 27.8821C120.459 28.4888 120.18 29.0552 119.724 29.4594C119.268 29.8635 118.67 30.0731 118.06 30.043C117.728 30.0615 117.396 30.006 117.087 29.8805C116.779 29.755 116.503 29.5627 116.279 29.3176C116.055 29.0725 115.888 28.7807 115.792 28.4635C115.695 28.1463 115.671 27.8116 115.72 27.4838C115.733 27.1793 115.812 26.8812 115.952 26.6099C116.091 26.3385 116.287 26.1002 116.527 25.9112C116.767 25.7222 117.046 25.587 117.343 25.5147C117.64 25.4424 117.95 25.4347 118.25 25.4922C118.853 25.55 119.414 25.8246 119.828 26.2645C120.242 26.7044 120.481 27.2794 120.5 27.8821Z" fill="white"/>
<g opacity="0.6">
<path d="M64.0293 96.0936V98.0852" stroke="#381805" stroke-width="1.5" stroke-miterlimit="10"/>
<path d="M64.0293 99.1906V115.153" stroke="#381805" stroke-width="1.5" stroke-miterlimit="10" stroke-dasharray="4.42 1.11"/>
<path d="M64.0293 115.701V117.692" stroke="#381805" stroke-width="1.5" stroke-miterlimit="10"/>
<path d="M119.6 43.7649V45.7565" stroke="#381805" stroke-width="1.5" stroke-miterlimit="10"/>
<path d="M119.6 46.7124V84.5723" stroke="#381805" stroke-width="1.5" stroke-miterlimit="10" stroke-dasharray="3.85 0.96"/>
<path d="M119.6 85.0603V87.0519" stroke="#381805" stroke-width="1.5" stroke-miterlimit="10"/>
<path d="M168.068 101.112V103.104" stroke="#381805" stroke-width="1.5" stroke-miterlimit="10"/>
<path d="M168.068 104.11V138.624" stroke="#381805" stroke-width="1.5" stroke-miterlimit="10" stroke-dasharray="4.02 1"/>
<path d="M168.068 139.122V141.113" stroke="#381805" stroke-width="1.5" stroke-miterlimit="10"/>
</g>
</g>
<defs>
<clipPath id="clip0_4501_5102">
<rect width="210" height="175" fill="white" transform="translate(0.5)"/>
</clipPath>
</defs>
</svg>
