<svg width="384" height="400" viewBox="0 0 384 400" fill="none" xmlns="http://www.w3.org/2000/svg">
<rect x="64.7969" y="156.75" width="285.66" height="148.107" stroke="#ECECEC"/>
<path d="M64.2969 205.357H350.957" stroke="#ECECEC"/>
<path d="M64.2969 181.25H350.957" stroke="#ECECEC"/>
<path d="M64.2969 229.464H350.957" stroke="#ECECEC"/>
<path d="M64.2969 253.571H350.957" stroke="#ECECEC"/>
<path d="M64.2969 277.679H350.957" stroke="#ECECEC"/>
<path d="M112.52 156.25L112.52 305.357" stroke="#ECECEC"/>
<path d="M159.85 156.25L159.85 305.357" stroke="#ECECEC"/>
<path d="M207.18 156.25L207.18 305.357" stroke="#ECECEC"/>
<path d="M254.512 156.25L254.512 305.357" stroke="#ECECEC"/>
<path d="M301.842 156.25L301.842 305.357" stroke="#ECECEC"/>
<path d="M36.9759 301.81V302.748H33.1577V301.81H36.9759ZM41.7966 297.916V306.643H40.7397V299.024H40.6886L38.5579 300.438V299.364L40.7397 297.916H41.7966ZM47.1531 306.762C46.511 306.762 45.9642 306.587 45.5125 306.238C45.0608 305.886 44.7156 305.376 44.477 304.708C44.2383 304.038 44.119 303.228 44.119 302.279C44.119 301.336 44.2383 300.531 44.477 299.863C44.7184 299.193 45.065 298.681 45.5167 298.329C45.9713 297.974 46.5167 297.796 47.1531 297.796C47.7895 297.796 48.3335 297.974 48.7852 298.329C49.2397 298.681 49.5863 299.193 49.825 299.863C50.0664 300.531 50.1872 301.336 50.1872 302.279C50.1872 303.228 50.0679 304.038 49.8292 304.708C49.5906 305.376 49.2454 305.886 48.7937 306.238C48.342 306.587 47.7951 306.762 47.1531 306.762ZM47.1531 305.825C47.7895 305.825 48.2838 305.518 48.636 304.904C48.9883 304.291 49.1645 303.416 49.1645 302.279C49.1645 301.524 49.0835 300.88 48.9216 300.349C48.7625 299.818 48.5323 299.413 48.2312 299.134C47.9329 298.856 47.5735 298.717 47.1531 298.717C46.5224 298.717 46.0295 299.028 45.6744 299.65C45.3193 300.269 45.1417 301.146 45.1417 302.279C45.1417 303.035 45.2213 303.677 45.3804 304.205C45.5395 304.734 45.7681 305.136 46.0664 305.411C46.3676 305.687 46.7298 305.825 47.1531 305.825ZM47.1531 321.762C46.511 321.762 45.9642 321.587 45.5125 321.238C45.0608 320.886 44.7156 320.376 44.477 319.708C44.2383 319.038 44.119 318.228 44.119 317.279C44.119 316.336 44.2383 315.531 44.477 314.863C44.7184 314.193 45.065 313.681 45.5167 313.329C45.9713 312.974 46.5167 312.796 47.1531 312.796C47.7895 312.796 48.3335 312.974 48.7852 313.329C49.2397 313.681 49.5863 314.193 49.825 314.863C50.0664 315.531 50.1872 316.336 50.1872 317.279C50.1872 318.228 50.0679 319.038 49.8292 319.708C49.5906 320.376 49.2454 320.886 48.7937 321.238C48.342 321.587 47.7951 321.762 47.1531 321.762ZM47.1531 320.825C47.7895 320.825 48.2838 320.518 48.636 319.904C48.9883 319.291 49.1645 318.416 49.1645 317.279C49.1645 316.524 49.0835 315.88 48.9216 315.349C48.7625 314.818 48.5323 314.413 48.2312 314.134C47.9329 313.856 47.5735 313.717 47.1531 313.717C46.5224 313.717 46.0295 314.028 45.6744 314.65C45.3193 315.269 45.1417 316.146 45.1417 317.279C45.1417 318.035 45.2213 318.677 45.3804 319.205C45.5395 319.734 45.7681 320.136 46.0664 320.411C46.3676 320.687 46.7298 320.825 47.1531 320.825Z" fill="#4F4F4F"/>
<path d="M35.0657 274.132V275.069H31.2475V274.132H35.0657ZM39.7159 279.084C39.358 279.078 39 279.01 38.6421 278.879C38.2841 278.748 37.9574 278.528 37.662 278.219C37.3665 277.906 37.1293 277.484 36.9503 276.953C36.7713 276.419 36.6819 275.748 36.6819 274.942C36.6819 274.169 36.7543 273.484 36.8992 272.888C37.0441 272.288 37.2543 271.784 37.5299 271.375C37.8054 270.963 38.1378 270.65 38.527 270.437C38.9191 270.224 39.3608 270.118 39.8523 270.118C40.3409 270.118 40.7756 270.216 41.1563 270.412C41.5398 270.605 41.8523 270.875 42.0938 271.221C42.3353 271.568 42.4915 271.967 42.5625 272.419H41.5228C41.4262 272.027 41.2387 271.702 40.9603 271.443C40.6819 271.185 40.3125 271.055 39.8523 271.055C39.1762 271.055 38.6435 271.349 38.2543 271.937C37.8679 272.525 37.6733 273.351 37.6705 274.413H37.7387C37.8978 274.172 38.0867 273.966 38.3054 273.795C38.527 273.622 38.7713 273.489 39.0384 273.395C39.3054 273.301 39.5881 273.254 39.8864 273.254C40.3864 273.254 40.8438 273.379 41.2586 273.629C41.6733 273.876 42.0057 274.219 42.2557 274.656C42.5057 275.091 42.6307 275.589 42.6307 276.152C42.6307 276.692 42.51 277.186 42.2685 277.635C42.027 278.081 41.6875 278.436 41.25 278.7C40.8154 278.962 40.304 279.089 39.7159 279.084ZM39.7159 278.146C40.0739 278.146 40.3949 278.057 40.679 277.878C40.9659 277.699 41.1918 277.459 41.3566 277.158C41.5242 276.856 41.608 276.521 41.608 276.152C41.608 275.791 41.527 275.463 41.3651 275.167C41.206 274.869 40.9858 274.632 40.7046 274.456C40.4262 274.28 40.108 274.192 39.75 274.192C39.4801 274.192 39.2287 274.246 38.9958 274.354C38.7628 274.459 38.5583 274.604 38.3821 274.788C38.2088 274.973 38.0725 275.185 37.973 275.423C37.8736 275.659 37.8239 275.908 37.8239 276.169C37.8239 276.515 37.9049 276.839 38.0668 277.14C38.2316 277.442 38.456 277.685 38.7401 277.869C39.027 278.054 39.3523 278.146 39.7159 278.146ZM47.1531 279.084C46.511 279.084 45.9642 278.909 45.5125 278.56C45.0608 278.207 44.7156 277.697 44.477 277.03C44.2383 276.359 44.119 275.55 44.119 274.601C44.119 273.658 44.2383 272.852 44.477 272.185C44.7184 271.514 45.065 271.003 45.5167 270.65C45.9713 270.295 46.5167 270.118 47.1531 270.118C47.7895 270.118 48.3335 270.295 48.7852 270.65C49.2397 271.003 49.5863 271.514 49.825 272.185C50.0664 272.852 50.1872 273.658 50.1872 274.601C50.1872 275.55 50.0679 276.359 49.8292 277.03C49.5906 277.697 49.2454 278.207 48.7937 278.56C48.342 278.909 47.7951 279.084 47.1531 279.084ZM47.1531 278.146C47.7895 278.146 48.2838 277.839 48.636 277.226C48.9883 276.612 49.1645 275.737 49.1645 274.601C49.1645 273.845 49.0835 273.202 48.9216 272.67C48.7625 272.139 48.5323 271.734 48.2312 271.456C47.9329 271.177 47.5735 271.038 47.1531 271.038C46.5224 271.038 46.0295 271.349 45.6744 271.971C45.3193 272.591 45.1417 273.467 45.1417 274.601C45.1417 275.356 45.2213 275.998 45.3804 276.527C45.5395 277.055 45.7681 277.457 46.0664 277.733C46.3676 278.008 46.7298 278.146 47.1531 278.146Z" fill="#4F4F4F"/>
<path d="M35.6985 250.025V250.962H31.8804V250.025H35.6985ZM37.0409 254.857V254.09L39.9216 250.937C40.2596 250.567 40.538 250.246 40.7568 249.974C40.9755 249.698 41.1375 249.44 41.2426 249.198C41.3505 248.954 41.4045 248.698 41.4045 248.431C41.4045 248.124 41.3306 247.859 41.1829 247.634C41.038 247.41 40.8392 247.236 40.5863 247.114C40.3335 246.992 40.0494 246.931 39.7341 246.931C39.3988 246.931 39.1062 247.001 38.8562 247.14C38.6091 247.276 38.4173 247.468 38.2809 247.715C38.1474 247.962 38.0806 248.252 38.0806 248.584H37.075C37.075 248.073 37.1929 247.624 37.4287 247.238C37.6645 246.851 37.9855 246.55 38.3917 246.334C38.8008 246.119 39.2596 246.011 39.7681 246.011C40.2795 246.011 40.7326 246.119 41.1275 246.334C41.5224 246.55 41.8321 246.842 42.0565 247.208C42.2809 247.575 42.3931 247.982 42.3931 248.431C42.3931 248.752 42.3349 249.066 42.2184 249.373C42.1048 249.677 41.9059 250.016 41.6218 250.391C41.3406 250.763 40.95 251.218 40.45 251.755L38.4897 253.851V253.92H42.5466V254.857H37.0409ZM47.1531 254.976C46.511 254.976 45.9642 254.802 45.5125 254.452C45.0608 254.1 44.7156 253.59 44.477 252.923C44.2383 252.252 44.119 251.442 44.119 250.494C44.119 249.55 44.2383 248.745 44.477 248.077C44.7184 247.407 45.065 246.896 45.5167 246.543C45.9713 246.188 46.5167 246.011 47.1531 246.011C47.7895 246.011 48.3335 246.188 48.7852 246.543C49.2397 246.896 49.5863 247.407 49.825 248.077C50.0664 248.745 50.1872 249.55 50.1872 250.494C50.1872 251.442 50.0679 252.252 49.8292 252.923C49.5906 253.59 49.2454 254.1 48.7937 254.452C48.342 254.802 47.7951 254.976 47.1531 254.976ZM47.1531 254.039C47.7895 254.039 48.2838 253.732 48.636 253.119C48.9883 252.505 49.1645 251.63 49.1645 250.494C49.1645 249.738 49.0835 249.094 48.9216 248.563C48.7625 248.032 48.5323 247.627 48.2312 247.349C47.9329 247.07 47.5735 246.931 47.1531 246.931C46.5224 246.931 46.0295 247.242 45.6744 247.864C45.3193 248.484 45.1417 249.36 45.1417 250.494C45.1417 251.249 45.2213 251.891 45.3804 252.42C45.5395 252.948 45.7681 253.35 46.0664 253.626C46.3676 253.901 46.7298 254.039 47.1531 254.039Z" fill="#4F4F4F"/>
<path d="M47.1531 231.762C46.511 231.762 45.9642 231.587 45.5125 231.238C45.0608 230.886 44.7156 230.376 44.477 229.708C44.2383 229.038 44.119 228.228 44.119 227.279C44.119 226.336 44.2383 225.531 44.477 224.863C44.7184 224.193 45.065 223.681 45.5167 223.329C45.9713 222.974 46.5167 222.796 47.1531 222.796C47.7895 222.796 48.3335 222.974 48.7852 223.329C49.2397 223.681 49.5863 224.193 49.825 224.863C50.0664 225.531 50.1872 226.336 50.1872 227.279C50.1872 228.228 50.0679 229.038 49.8292 229.708C49.5906 230.376 49.2454 230.886 48.7937 231.238C48.342 231.587 47.7951 231.762 47.1531 231.762ZM47.1531 230.825C47.7895 230.825 48.2838 230.518 48.636 229.904C48.9883 229.291 49.1645 228.416 49.1645 227.279C49.1645 226.524 49.0835 225.88 48.9216 225.349C48.7625 224.818 48.5323 224.413 48.2312 224.134C47.9329 223.856 47.5735 223.717 47.1531 223.717C46.5224 223.717 46.0295 224.028 45.6744 224.65C45.3193 225.269 45.1417 226.146 45.1417 227.279C45.1417 228.035 45.2213 228.677 45.3804 229.205C45.5395 229.734 45.7681 230.136 46.0664 230.411C46.3676 230.687 46.7298 230.825 47.1531 230.825Z" fill="#4F4F4F"/>
<path d="M37.0409 206.643V205.876L39.9216 202.722C40.2596 202.353 40.538 202.032 40.7568 201.759C40.9755 201.484 41.1375 201.225 41.2426 200.984C41.3505 200.739 41.4045 200.484 41.4045 200.217C41.4045 199.91 41.3306 199.644 41.1829 199.42C41.038 199.195 40.8392 199.022 40.5863 198.9C40.3335 198.778 40.0494 198.717 39.7341 198.717C39.3988 198.717 39.1062 198.786 38.8562 198.925C38.6091 199.062 38.4173 199.254 38.2809 199.501C38.1474 199.748 38.0806 200.038 38.0806 200.37H37.075C37.075 199.859 37.1929 199.41 37.4287 199.024C37.6645 198.637 37.9855 198.336 38.3917 198.12C38.8008 197.904 39.2596 197.796 39.7681 197.796C40.2795 197.796 40.7326 197.904 41.1275 198.12C41.5224 198.336 41.8321 198.627 42.0565 198.994C42.2809 199.36 42.3931 199.768 42.3931 200.217C42.3931 200.538 42.3349 200.852 42.2184 201.158C42.1048 201.462 41.9059 201.802 41.6218 202.177C41.3406 202.549 40.95 203.004 40.45 203.541L38.4897 205.637V205.705H42.5466V206.643H37.0409ZM47.1531 206.762C46.511 206.762 45.9642 206.587 45.5125 206.238C45.0608 205.886 44.7156 205.376 44.477 204.708C44.2383 204.038 44.119 203.228 44.119 202.279C44.119 201.336 44.2383 200.531 44.477 199.863C44.7184 199.193 45.065 198.681 45.5167 198.329C45.9713 197.974 46.5167 197.796 47.1531 197.796C47.7895 197.796 48.3335 197.974 48.7852 198.329C49.2397 198.681 49.5863 199.193 49.825 199.863C50.0664 200.531 50.1872 201.336 50.1872 202.279C50.1872 203.228 50.0679 204.038 49.8292 204.708C49.5906 205.376 49.2454 205.886 48.7937 206.238C48.342 206.587 47.7951 206.762 47.1531 206.762ZM47.1531 205.825C47.7895 205.825 48.2838 205.518 48.636 204.904C48.9883 204.291 49.1645 203.416 49.1645 202.279C49.1645 201.524 49.0835 200.88 48.9216 200.349C48.7625 199.818 48.5323 199.413 48.2312 199.134C47.9329 198.856 47.5735 198.717 47.1531 198.717C46.5224 198.717 46.0295 199.028 45.6744 199.65C45.3193 200.269 45.1417 201.146 45.1417 202.279C45.1417 203.035 45.2213 203.677 45.3804 204.205C45.5395 204.734 45.7681 205.136 46.0664 205.411C46.3676 205.687 46.7298 205.825 47.1531 205.825Z" fill="#4F4F4F"/>
<path d="M39.7159 182.655C39.358 182.649 39 182.581 38.6421 182.451C38.2841 182.32 37.9574 182.1 37.662 181.79C37.3665 181.478 37.1293 181.056 36.9503 180.524C36.7713 179.99 36.6819 179.32 36.6819 178.513C36.6819 177.74 36.7543 177.056 36.8992 176.459C37.0441 175.86 37.2543 175.355 37.5299 174.946C37.8054 174.534 38.1378 174.222 38.527 174.009C38.9191 173.796 39.3608 173.689 39.8523 173.689C40.3409 173.689 40.7756 173.787 41.1563 173.983C41.5398 174.176 41.8523 174.446 42.0938 174.793C42.3353 175.139 42.4915 175.539 42.5625 175.99H41.5228C41.4262 175.598 41.2387 175.273 40.9603 175.014C40.6819 174.756 40.3125 174.627 39.8523 174.627C39.1762 174.627 38.6435 174.921 38.2543 175.509C37.8679 176.097 37.6733 176.922 37.6705 177.985H37.7387C37.8978 177.743 38.0867 177.537 38.3054 177.367C38.527 177.193 38.7713 177.06 39.0384 176.966C39.3054 176.872 39.5881 176.826 39.8864 176.826C40.3864 176.826 40.8438 176.951 41.2586 177.201C41.6733 177.448 42.0057 177.79 42.2557 178.228C42.5057 178.662 42.6307 179.161 42.6307 179.723C42.6307 180.263 42.51 180.757 42.2685 181.206C42.027 181.652 41.6875 182.007 41.25 182.272C40.8154 182.533 40.304 182.661 39.7159 182.655ZM39.7159 181.718C40.0739 181.718 40.3949 181.628 40.679 181.449C40.9659 181.27 41.1918 181.03 41.3566 180.729C41.5242 180.428 41.608 180.093 41.608 179.723C41.608 179.362 41.527 179.034 41.3651 178.739C41.206 178.441 40.9858 178.203 40.7046 178.027C40.4262 177.851 40.108 177.763 39.75 177.763C39.4801 177.763 39.2287 177.817 38.9958 177.925C38.7628 178.03 38.5583 178.175 38.3821 178.36C38.2088 178.544 38.0725 178.756 37.973 178.995C37.8736 179.23 37.8239 179.479 37.8239 179.74C37.8239 180.087 37.9049 180.411 38.0668 180.712C38.2316 181.013 38.456 181.256 38.7401 181.441C39.027 181.625 39.3523 181.718 39.7159 181.718ZM47.1531 182.655C46.511 182.655 45.9642 182.48 45.5125 182.131C45.0608 181.779 44.7156 181.269 44.477 180.601C44.2383 179.931 44.119 179.121 44.119 178.172C44.119 177.229 44.2383 176.424 44.477 175.756C44.7184 175.085 45.065 174.574 45.5167 174.222C45.9713 173.867 46.5167 173.689 47.1531 173.689C47.7895 173.689 48.3335 173.867 48.7852 174.222C49.2397 174.574 49.5863 175.085 49.825 175.756C50.0664 176.424 50.1872 177.229 50.1872 178.172C50.1872 179.121 50.0679 179.931 49.8292 180.601C49.5906 181.269 49.2454 181.779 48.7937 182.131C48.342 182.48 47.7951 182.655 47.1531 182.655ZM47.1531 181.718C47.7895 181.718 48.2838 181.411 48.636 180.797C48.9883 180.183 49.1645 179.308 49.1645 178.172C49.1645 177.416 49.0835 176.773 48.9216 176.242C48.7625 175.71 48.5323 175.306 48.2312 175.027C47.9329 174.749 47.5735 174.61 47.1531 174.61C46.5224 174.61 46.0295 174.921 45.6744 175.543C45.3193 176.162 45.1417 177.039 45.1417 178.172C45.1417 178.928 45.2213 179.57 45.3804 180.098C45.5395 180.627 45.7681 181.029 46.0664 181.304C46.3676 181.58 46.7298 181.718 47.1531 181.718Z" fill="#4F4F4F"/>
<path d="M34.2966 149.701V158.429H33.2397V150.809H33.1886L31.0579 152.224V151.15L33.2397 149.701H34.2966ZM39.6531 158.548C39.011 158.548 38.4642 158.373 38.0125 158.024C37.5608 157.671 37.2156 157.162 36.977 156.494C36.7383 155.823 36.619 155.014 36.619 154.065C36.619 153.122 36.7383 152.316 36.977 151.649C37.2184 150.978 37.565 150.467 38.0167 150.115C38.4713 149.76 39.0167 149.582 39.6531 149.582C40.2895 149.582 40.8335 149.76 41.2852 150.115C41.7397 150.467 42.0863 150.978 42.325 151.649C42.5664 152.316 42.6872 153.122 42.6872 154.065C42.6872 155.014 42.5679 155.823 42.3292 156.494C42.0906 157.162 41.7454 157.671 41.2937 158.024C40.842 158.373 40.2951 158.548 39.6531 158.548ZM39.6531 157.61C40.2895 157.61 40.7838 157.304 41.136 156.69C41.4883 156.076 41.6645 155.201 41.6645 154.065C41.6645 153.309 41.5835 152.666 41.4216 152.135C41.2625 151.603 41.0323 151.198 40.7312 150.92C40.4329 150.642 40.0735 150.502 39.6531 150.502C39.0224 150.502 38.5295 150.814 38.1744 151.436C37.8193 152.055 37.6417 152.931 37.6417 154.065C37.6417 154.821 37.7213 155.463 37.8804 155.991C38.0395 156.519 38.2681 156.921 38.5664 157.197C38.8676 157.473 39.2298 157.61 39.6531 157.61ZM47.1531 158.548C46.511 158.548 45.9642 158.373 45.5125 158.024C45.0608 157.671 44.7156 157.162 44.477 156.494C44.2383 155.823 44.119 155.014 44.119 154.065C44.119 153.122 44.2383 152.316 44.477 151.649C44.7184 150.978 45.065 150.467 45.5167 150.115C45.9713 149.76 46.5167 149.582 47.1531 149.582C47.7895 149.582 48.3335 149.76 48.7852 150.115C49.2397 150.467 49.5863 150.978 49.825 151.649C50.0664 152.316 50.1872 153.122 50.1872 154.065C50.1872 155.014 50.0679 155.823 49.8292 156.494C49.5906 157.162 49.2454 157.671 48.7937 158.024C48.342 158.373 47.7951 158.548 47.1531 158.548ZM47.1531 157.61C47.7895 157.61 48.2838 157.304 48.636 156.69C48.9883 156.076 49.1645 155.201 49.1645 154.065C49.1645 153.309 49.0835 152.666 48.9216 152.135C48.7625 151.603 48.5323 151.198 48.2312 150.92C47.9329 150.642 47.5735 150.502 47.1531 150.502C46.5224 150.502 46.0295 150.814 45.6744 151.436C45.3193 152.055 45.1417 152.931 45.1417 154.065C45.1417 154.821 45.2213 155.463 45.3804 155.991C45.5395 156.519 45.7681 156.921 46.0664 157.197C46.3676 157.473 46.7298 157.61 47.1531 157.61Z" fill="#4F4F4F"/>
<path d="M78.2589 311.656H79.1396V316.855C79.1396 317.319 79.0544 317.713 78.8839 318.037C78.7134 318.362 78.4731 318.608 78.163 318.776C77.8529 318.944 77.4871 319.028 77.0657 319.028C76.668 319.028 76.3141 318.956 76.0039 318.811C75.6938 318.665 75.4499 318.456 75.2724 318.186C75.0948 317.917 75.0061 317.596 75.0061 317.224H75.8725C75.8725 317.43 75.9234 317.61 76.0252 317.764C76.1294 317.915 76.2714 318.034 76.4514 318.119C76.6313 318.204 76.8361 318.247 77.0657 318.247C77.319 318.247 77.5345 318.194 77.712 318.087C77.8896 317.98 78.0245 317.824 78.1169 317.618C78.2115 317.41 78.2589 317.155 78.2589 316.855V311.656ZM82.396 319.056C82.0503 319.056 81.7366 318.991 81.4549 318.861C81.1732 318.729 80.9495 318.538 80.7838 318.289C80.618 318.038 80.5352 317.735 80.5352 317.38C80.5352 317.068 80.5967 316.814 80.7198 316.62C80.8429 316.424 81.0075 316.27 81.2134 316.159C81.4194 316.047 81.6467 315.965 81.8953 315.91C82.1462 315.853 82.3983 315.808 82.6517 315.775C82.9831 315.733 83.2518 315.701 83.4578 315.679C83.6661 315.656 83.8176 315.617 83.9123 315.562C84.0094 315.508 84.0579 315.413 84.0579 315.278V315.25C84.0579 314.899 83.962 314.627 83.7703 314.433C83.5809 314.239 83.2932 314.142 82.9073 314.142C82.5072 314.142 82.1936 314.229 81.9663 314.404C81.739 314.58 81.5792 314.767 81.4869 314.966L80.6914 314.681C80.8335 314.35 81.0229 314.092 81.2596 313.907C81.4987 313.72 81.7591 313.59 82.0409 313.517C82.3249 313.441 82.6043 313.403 82.8789 313.403C83.0541 313.403 83.2553 313.424 83.4826 313.467C83.7123 313.507 83.9336 313.591 84.1467 313.719C84.3621 313.847 84.5409 314.04 84.6829 314.298C84.8249 314.556 84.896 314.902 84.896 315.335V318.929H84.0579V318.19H84.0153C83.9585 318.308 83.8638 318.435 83.7312 318.57C83.5986 318.705 83.4222 318.82 83.2021 318.914C82.9819 319.009 82.7132 319.056 82.396 319.056ZM82.5238 318.304C82.8553 318.304 83.1346 318.238 83.3619 318.108C83.5915 317.978 83.7643 317.81 83.8803 317.604C83.9987 317.398 84.0579 317.181 84.0579 316.954V316.187C84.0224 316.23 83.9443 316.269 83.8235 316.304C83.7052 316.337 83.5678 316.367 83.4116 316.393C83.2577 316.417 83.1074 316.438 82.9606 316.457C82.8162 316.474 82.699 316.488 82.609 316.5C82.3912 316.528 82.1876 316.574 81.9982 316.638C81.8112 316.7 81.6597 316.793 81.5437 316.919C81.4301 317.042 81.3732 317.21 81.3732 317.423C81.3732 317.714 81.481 317.934 81.6964 318.083C81.9142 318.23 82.19 318.304 82.5238 318.304ZM87.2637 315.647V318.929H86.4256V313.474H87.2353V314.326H87.3063C87.4341 314.049 87.6283 313.827 87.8887 313.659C88.1491 313.488 88.4853 313.403 88.8972 313.403C89.2665 313.403 89.5897 313.479 89.8667 313.63C90.1437 313.779 90.3591 314.007 90.513 314.312C90.6669 314.615 90.7438 314.999 90.7438 315.463V318.929H89.9057V315.519C89.9057 315.091 89.7945 314.757 89.5719 314.518C89.3494 314.277 89.044 314.156 88.6557 314.156C88.3882 314.156 88.1491 314.214 87.9384 314.33C87.7301 314.446 87.5655 314.615 87.4448 314.838C87.3241 315.06 87.2637 315.33 87.2637 315.647Z" fill="#4F4F4F"/>
<path d="M130.549 318.929V311.656H134.91V312.437H131.43V314.894H134.583V315.676H131.43V318.929H130.549ZM138.191 319.042C137.665 319.042 137.212 318.926 136.831 318.694C136.452 318.46 136.16 318.133 135.954 317.714C135.75 317.293 135.648 316.803 135.648 316.244C135.648 315.685 135.75 315.193 135.954 314.767C136.16 314.338 136.446 314.004 136.813 313.765C137.183 313.524 137.613 313.403 138.106 313.403C138.39 313.403 138.67 313.45 138.947 313.545C139.224 313.64 139.477 313.794 139.704 314.007C139.931 314.217 140.112 314.497 140.247 314.845C140.382 315.193 140.45 315.621 140.45 316.13V316.485H136.245V315.761H139.597C139.597 315.453 139.536 315.179 139.413 314.937C139.292 314.696 139.119 314.505 138.894 314.365C138.672 314.226 138.409 314.156 138.106 314.156C137.772 314.156 137.483 314.239 137.239 314.404C136.998 314.568 136.812 314.781 136.682 315.044C136.552 315.306 136.487 315.588 136.487 315.889V316.372C136.487 316.784 136.558 317.133 136.7 317.419C136.844 317.703 137.044 317.92 137.3 318.069C137.555 318.216 137.853 318.289 138.191 318.289C138.411 318.289 138.61 318.259 138.788 318.197C138.968 318.133 139.123 318.038 139.253 317.913C139.383 317.785 139.484 317.627 139.555 317.437L140.364 317.664C140.279 317.939 140.136 318.18 139.935 318.389C139.733 318.595 139.485 318.756 139.189 318.872C138.893 318.985 138.56 319.042 138.191 319.042ZM141.838 318.929V311.656H142.676V314.341H142.747C142.809 314.246 142.894 314.125 143.003 313.978C143.114 313.829 143.273 313.697 143.479 313.581C143.687 313.462 143.969 313.403 144.324 313.403C144.783 313.403 145.188 313.518 145.538 313.747C145.889 313.977 146.162 314.303 146.359 314.724C146.555 315.145 146.653 315.643 146.653 316.216C146.653 316.793 146.555 317.294 146.359 317.718C146.162 318.139 145.89 318.466 145.542 318.698C145.194 318.927 144.793 319.042 144.338 319.042C143.988 319.042 143.707 318.984 143.496 318.868C143.286 318.75 143.124 318.616 143.01 318.467C142.896 318.315 142.809 318.19 142.747 318.091H142.648V318.929H141.838ZM142.662 316.201C142.662 316.613 142.722 316.977 142.843 317.292C142.964 317.604 143.14 317.849 143.372 318.027C143.604 318.202 143.888 318.289 144.224 318.289C144.575 318.289 144.867 318.197 145.102 318.012C145.338 317.825 145.516 317.574 145.634 317.26C145.755 316.942 145.815 316.59 145.815 316.201C145.815 315.818 145.756 315.472 145.638 315.164C145.522 314.854 145.345 314.609 145.109 314.429C144.874 314.247 144.58 314.156 144.224 314.156C143.884 314.156 143.597 314.242 143.365 314.415C143.133 314.586 142.958 314.825 142.84 315.132C142.721 315.438 142.662 315.794 142.662 316.201Z" fill="#4F4F4F"/>
<path d="M177.503 311.656H178.554L181.026 317.693H181.111L183.583 311.656H184.634V318.929H183.81V313.403H183.739L181.466 318.929H180.671L178.398 313.403H178.327V318.929H177.503V311.656ZM187.891 319.056C187.545 319.056 187.232 318.991 186.95 318.861C186.668 318.729 186.445 318.538 186.279 318.289C186.113 318.038 186.03 317.735 186.03 317.38C186.03 317.068 186.092 316.814 186.215 316.62C186.338 316.424 186.503 316.27 186.709 316.159C186.915 316.047 187.142 315.965 187.39 315.91C187.641 315.853 187.893 315.808 188.147 315.775C188.478 315.733 188.747 315.701 188.953 315.679C189.161 315.656 189.313 315.617 189.407 315.562C189.504 315.508 189.553 315.413 189.553 315.278V315.25C189.553 314.899 189.457 314.627 189.265 314.433C189.076 314.239 188.788 314.142 188.402 314.142C188.002 314.142 187.689 314.229 187.461 314.404C187.234 314.58 187.074 314.767 186.982 314.966L186.187 314.681C186.329 314.35 186.518 314.092 186.755 313.907C186.994 313.72 187.254 313.59 187.536 313.517C187.82 313.441 188.099 313.403 188.374 313.403C188.549 313.403 188.75 313.424 188.978 313.467C189.207 313.507 189.429 313.591 189.642 313.719C189.857 313.847 190.036 314.04 190.178 314.298C190.32 314.556 190.391 314.902 190.391 315.335V318.929H189.553V318.19H189.51C189.454 318.308 189.359 318.435 189.226 318.57C189.094 318.705 188.917 318.82 188.697 318.914C188.477 319.009 188.208 319.056 187.891 319.056ZM188.019 318.304C188.35 318.304 188.63 318.238 188.857 318.108C189.087 317.978 189.259 317.81 189.375 317.604C189.494 317.398 189.553 317.181 189.553 316.954V316.187C189.518 316.23 189.439 316.269 189.319 316.304C189.2 316.337 189.063 316.367 188.907 316.393C188.753 316.417 188.602 316.438 188.456 316.457C188.311 316.474 188.194 316.488 188.104 316.5C187.886 316.528 187.683 316.574 187.493 316.638C187.306 316.7 187.155 316.793 187.039 316.919C186.925 317.042 186.868 317.21 186.868 317.423C186.868 317.714 186.976 317.934 187.192 318.083C187.409 318.23 187.685 318.304 188.019 318.304ZM191.921 318.929V313.474H192.73V314.298H192.787C192.887 314.028 193.067 313.809 193.327 313.641C193.587 313.473 193.881 313.389 194.208 313.389C194.269 313.389 194.346 313.39 194.438 313.392C194.531 313.395 194.601 313.398 194.648 313.403V314.255C194.62 314.248 194.554 314.238 194.453 314.223C194.353 314.207 194.248 314.198 194.137 314.198C193.871 314.198 193.635 314.254 193.426 314.365C193.22 314.474 193.057 314.626 192.936 314.82C192.818 315.012 192.759 315.231 192.759 315.477V318.929H191.921Z" fill="#4F4F4F"/>
<path d="M225.079 318.929H224.155L226.826 311.656H227.735L230.405 318.929H229.482L227.309 312.806H227.252L225.079 318.929ZM225.42 316.088H229.141V316.869H225.42V316.088ZM231.425 320.974V313.474H232.234V314.341H232.334C232.395 314.246 232.481 314.125 232.589 313.978C232.701 313.829 232.859 313.697 233.065 313.581C233.274 313.462 233.555 313.403 233.91 313.403C234.37 313.403 234.775 313.518 235.125 313.747C235.475 313.977 235.749 314.303 235.945 314.724C236.142 315.145 236.24 315.643 236.24 316.216C236.24 316.793 236.142 317.294 235.945 317.718C235.749 318.139 235.476 318.466 235.128 318.698C234.78 318.927 234.379 319.042 233.925 319.042C233.574 319.042 233.294 318.984 233.083 318.868C232.872 318.75 232.71 318.616 232.597 318.467C232.483 318.315 232.395 318.19 232.334 318.091H232.263V320.974H231.425ZM232.249 316.201C232.249 316.613 232.309 316.977 232.43 317.292C232.55 317.604 232.727 317.849 232.959 318.027C233.191 318.202 233.475 318.289 233.811 318.289C234.161 318.289 234.454 318.197 234.688 318.012C234.925 317.825 235.102 317.574 235.221 317.26C235.342 316.942 235.402 316.59 235.402 316.201C235.402 315.818 235.343 315.472 235.224 315.164C235.108 314.854 234.932 314.609 234.695 314.429C234.461 314.247 234.166 314.156 233.811 314.156C233.47 314.156 233.184 314.242 232.952 314.415C232.72 314.586 232.544 314.825 232.426 315.132C232.308 315.438 232.249 315.794 232.249 316.201ZM237.518 318.929V313.474H238.328V314.298H238.385C238.484 314.028 238.664 313.809 238.925 313.641C239.185 313.473 239.479 313.389 239.805 313.389C239.867 313.389 239.944 313.39 240.036 313.392C240.128 313.395 240.198 313.398 240.246 313.403V314.255C240.217 314.248 240.152 314.238 240.05 314.223C239.951 314.207 239.846 314.198 239.734 314.198C239.469 314.198 239.232 314.254 239.024 314.365C238.818 314.474 238.655 314.626 238.534 314.82C238.416 315.012 238.356 315.231 238.356 315.477V318.929H237.518Z" fill="#4F4F4F"/>
<path d="M271.052 311.656H272.103L274.575 317.693H274.66L277.131 311.656H278.183V318.929H277.359V313.403H277.288L275.015 318.929H274.22L271.947 313.403H271.876V318.929H271.052V311.656ZM281.44 319.056C281.094 319.056 280.781 318.991 280.499 318.861C280.217 318.729 279.993 318.538 279.828 318.289C279.662 318.038 279.579 317.735 279.579 317.38C279.579 317.068 279.641 316.814 279.764 316.62C279.887 316.424 280.051 316.27 280.257 316.159C280.463 316.047 280.691 315.965 280.939 315.91C281.19 315.853 281.442 315.808 281.696 315.775C282.027 315.733 282.296 315.701 282.502 315.679C282.71 315.656 282.862 315.617 282.956 315.562C283.053 315.508 283.102 315.413 283.102 315.278V315.25C283.102 314.899 283.006 314.627 282.814 314.433C282.625 314.239 282.337 314.142 281.951 314.142C281.551 314.142 281.237 314.229 281.01 314.404C280.783 314.58 280.623 314.767 280.531 314.966L279.735 314.681C279.877 314.35 280.067 314.092 280.304 313.907C280.543 313.72 280.803 313.59 281.085 313.517C281.369 313.441 281.648 313.403 281.923 313.403C282.098 313.403 282.299 313.424 282.527 313.467C282.756 313.507 282.978 313.591 283.191 313.719C283.406 313.847 283.585 314.04 283.727 314.298C283.869 314.556 283.94 314.902 283.94 315.335V318.929H283.102V318.19H283.059C283.002 318.308 282.908 318.435 282.775 318.57C282.643 318.705 282.466 318.82 282.246 318.914C282.026 319.009 281.757 319.056 281.44 319.056ZM281.568 318.304C281.899 318.304 282.179 318.238 282.406 318.108C282.635 317.978 282.808 317.81 282.924 317.604C283.043 317.398 283.102 317.181 283.102 316.954V316.187C283.066 316.23 282.988 316.269 282.867 316.304C282.749 316.337 282.612 316.367 282.456 316.393C282.302 316.417 282.151 316.438 282.005 316.457C281.86 316.474 281.743 316.488 281.653 316.5C281.435 316.528 281.232 316.574 281.042 316.638C280.855 316.7 280.704 316.793 280.588 316.919C280.474 317.042 280.417 317.21 280.417 317.423C280.417 317.714 280.525 317.934 280.74 318.083C280.958 318.23 281.234 318.304 281.568 318.304ZM285.47 318.929V313.474H286.308V318.929H285.47ZM285.896 312.565C285.732 312.565 285.591 312.509 285.473 312.398C285.357 312.287 285.299 312.153 285.299 311.997C285.299 311.841 285.357 311.707 285.473 311.595C285.591 311.484 285.732 311.429 285.896 311.429C286.059 311.429 286.199 311.484 286.315 311.595C286.433 311.707 286.492 311.841 286.492 311.997C286.492 312.153 286.433 312.287 286.315 312.398C286.199 312.509 286.059 312.565 285.896 312.565Z" fill="#4F4F4F"/>
<path d="M321.966 311.656H322.847V316.855C322.847 317.319 322.761 317.713 322.591 318.037C322.42 318.362 322.18 318.608 321.87 318.776C321.56 318.944 321.194 319.028 320.773 319.028C320.375 319.028 320.021 318.956 319.711 318.811C319.401 318.665 319.157 318.456 318.979 318.186C318.802 317.917 318.713 317.596 318.713 317.224H319.58C319.58 317.43 319.63 317.61 319.732 317.764C319.836 317.915 319.978 318.034 320.158 318.119C320.338 318.204 320.543 318.247 320.773 318.247C321.026 318.247 321.242 318.194 321.419 318.087C321.597 317.98 321.732 317.824 321.824 317.618C321.919 317.41 321.966 317.155 321.966 316.855V311.656ZM327.935 316.698V313.474H328.773V318.929H327.935V318.005H327.879C327.751 318.282 327.552 318.518 327.282 318.712C327.012 318.904 326.671 319 326.259 319C325.918 319 325.615 318.925 325.35 318.776C325.085 318.624 324.877 318.397 324.725 318.094C324.574 317.789 324.498 317.404 324.498 316.94V313.474H325.336V316.883C325.336 317.281 325.447 317.598 325.67 317.835C325.895 318.072 326.181 318.19 326.529 318.19C326.737 318.19 326.949 318.137 327.165 318.03C327.383 317.924 327.565 317.76 327.712 317.54C327.861 317.32 327.935 317.039 327.935 316.698ZM331.147 315.647V318.929H330.308V313.474H331.118V314.326H331.189C331.317 314.049 331.511 313.827 331.772 313.659C332.032 313.488 332.368 313.403 332.78 313.403C333.149 313.403 333.473 313.479 333.749 313.63C334.026 313.779 334.242 314.007 334.396 314.312C334.55 314.615 334.627 314.999 334.627 315.463V318.929H333.789V315.519C333.789 315.091 333.677 314.757 333.455 314.518C333.232 314.277 332.927 314.156 332.539 314.156C332.271 314.156 332.032 314.214 331.821 314.33C331.613 314.446 331.448 314.615 331.328 314.838C331.207 315.06 331.147 315.33 331.147 315.647Z" fill="#4F4F4F"/>
<path d="M125.417 181.25C125.417 187.877 120.043 193.25 113.414 193.25C106.786 193.25 101.412 187.877 101.412 181.25C101.412 174.623 106.786 169.25 113.414 169.25C120.043 169.25 125.417 174.623 125.417 181.25Z" fill="#4A4A4A" stroke="#4A4A4A"/>
<path d="M144.17 232.143C144.17 235.318 141.596 237.893 138.419 237.893C135.243 237.893 132.668 235.318 132.668 232.143C132.668 228.967 135.243 226.393 138.419 226.393C141.596 226.393 144.17 228.967 144.17 232.143Z" fill="#4A4A4A" stroke="#4A4A4A"/>
<path d="M254.012 249.107C254.012 252.283 251.437 254.857 248.261 254.857C245.085 254.857 242.51 252.283 242.51 249.107C242.51 245.932 245.085 243.357 248.261 243.357C251.437 243.357 254.012 245.932 254.012 249.107Z" fill="#4A4A4A" stroke="#4A4A4A"/>
<path d="M248.653 194.196C248.653 198.605 245.079 202.179 240.669 202.179C236.26 202.179 232.686 198.605 232.686 194.196C232.686 189.788 236.26 186.214 240.669 186.214C245.079 186.214 248.653 189.788 248.653 194.196Z" fill="#4A4A4A" stroke="#4A4A4A"/>
<path d="M189.714 278.125C189.714 282.533 186.139 286.107 181.73 286.107C177.32 286.107 173.746 282.533 173.746 278.125C173.746 273.717 177.32 270.143 181.73 270.143C186.139 270.143 189.714 273.717 189.714 278.125Z" fill="#4A4A4A" stroke="#4A4A4A"/>
<path d="M95.0534 278.125C95.0534 282.533 91.479 286.107 87.0697 286.107C82.6603 286.107 79.0859 282.533 79.0859 278.125C79.0859 273.717 82.6603 270.143 87.0697 270.143C91.479 270.143 95.0534 273.717 95.0534 278.125Z" fill="#4A4A4A" stroke="#4A4A4A"/>
<path d="M326.346 216.518C326.346 220.926 322.772 224.5 318.363 224.5C313.953 224.5 310.379 220.926 310.379 216.518C310.379 212.11 313.953 208.536 318.363 208.536C322.772 208.536 326.346 212.11 326.346 216.518Z" fill="#4A4A4A" stroke="#4A4A4A"/>
<path d="M185.248 175C185.248 179.162 181.874 182.536 177.711 182.536C173.548 182.536 170.174 179.162 170.174 175C170.174 170.838 173.548 167.464 177.711 167.464C181.874 167.464 185.248 170.838 185.248 175Z" fill="#BDBDBD" stroke="#BDBDBD"/>
<path d="M128.988 193.75C128.988 197.912 125.614 201.286 121.451 201.286C117.288 201.286 113.914 197.912 113.914 193.75C113.914 189.588 117.288 186.214 121.451 186.214C125.614 186.214 128.988 189.588 128.988 193.75Z" fill="#BDBDBD" stroke="#BDBDBD"/>
<path d="M155.78 266.964C155.78 275.564 148.807 282.536 140.205 282.536C131.604 282.536 124.631 275.564 124.631 266.964C124.631 258.364 131.604 251.393 140.205 251.393C148.807 251.393 155.78 258.364 155.78 266.964Z" fill="#BDBDBD" stroke="#BDBDBD"/>
<path d="M90.5883 231.25C90.5883 234.426 88.0135 237 84.8371 237C81.6607 237 79.0859 234.426 79.0859 231.25C79.0859 228.074 81.6607 225.5 84.8371 225.5C88.0135 225.5 90.5883 228.074 90.5883 231.25Z" fill="#BDBDBD" stroke="#BDBDBD"/>
<path d="M197.75 222.321C197.75 225.497 195.176 228.071 191.999 228.071C188.823 228.071 186.248 225.497 186.248 222.321C186.248 219.146 188.823 216.571 191.999 216.571C195.176 216.571 197.75 219.146 197.75 222.321Z" fill="#BDBDBD" stroke="#BDBDBD"/>
<path d="M204.002 244.643C204.002 247.818 201.428 250.393 198.251 250.393C195.075 250.393 192.5 247.818 192.5 244.643C192.5 241.467 195.075 238.893 198.251 238.893C201.428 238.893 204.002 241.467 204.002 244.643Z" fill="#BDBDBD" stroke="#BDBDBD"/>
<path d="M225.434 222.321C225.434 225.497 222.859 228.071 219.683 228.071C216.506 228.071 213.932 225.497 213.932 222.321C213.932 219.146 216.506 216.571 219.683 216.571C222.859 216.571 225.434 219.146 225.434 222.321Z" fill="#BDBDBD" stroke="#BDBDBD"/>
<path d="M278.123 263.393C278.123 266.568 275.549 269.143 272.372 269.143C269.196 269.143 266.621 266.568 266.621 263.393C266.621 260.217 269.196 257.643 272.372 257.643C275.549 257.643 278.123 260.217 278.123 263.393Z" fill="#BDBDBD" stroke="#BDBDBD"/>
<path d="M225.435 279.018C225.435 283.919 221.461 287.893 216.558 287.893C211.656 287.893 207.682 283.919 207.682 279.018C207.682 274.116 211.656 270.143 216.558 270.143C221.461 270.143 225.435 274.116 225.435 279.018Z" fill="#BDBDBD" stroke="#BDBDBD"/>
<path d="M296.877 184.375C296.877 189.276 292.902 193.25 288 193.25C283.097 193.25 279.123 189.276 279.123 184.375C279.123 179.474 283.097 175.5 288 175.5C292.902 175.5 296.877 179.474 296.877 184.375Z" fill="#BDBDBD" stroke="#BDBDBD"/>
<path d="M316.523 252.232C316.523 256.147 313.349 259.321 309.432 259.321C305.516 259.321 302.342 256.147 302.342 252.232C302.342 248.317 305.516 245.143 309.432 245.143C313.349 245.143 316.523 248.317 316.523 252.232Z" fill="#BDBDBD" stroke="#BDBDBD"/>
<path d="M326.347 277.232C326.347 281.147 323.173 284.321 319.257 284.321C315.341 284.321 312.166 281.147 312.166 277.232C312.166 273.317 315.341 270.143 319.257 270.143C323.173 270.143 326.347 273.317 326.347 277.232Z" fill="#BDBDBD" stroke="#BDBDBD"/>
<path d="M168.281 200.446C168.281 204.362 165.106 207.536 161.19 207.536C157.274 207.536 154.1 204.362 154.1 200.446C154.1 196.531 157.274 193.357 161.19 193.357C165.106 193.357 168.281 196.531 168.281 200.446Z" fill="#D9D9D9" stroke="#D9D9D9"/>
<path d="M115.594 238.839C115.594 242.755 112.419 245.929 108.503 245.929C104.587 245.929 101.412 242.755 101.412 238.839C101.412 234.924 104.587 231.75 108.503 231.75C112.419 231.75 115.594 234.924 115.594 238.839Z" fill="#D9D9D9" stroke="#D9D9D9"/>
<path d="M265.62 239.286C265.62 244.927 261.046 249.5 255.404 249.5C249.761 249.5 245.188 244.927 245.188 239.286C245.188 233.645 249.761 229.071 255.404 229.071C261.046 229.071 265.62 233.645 265.62 239.286Z" fill="#D9D9D9" stroke="#D9D9D9"/>
<path d="M263.835 283.929C263.835 289.57 259.261 294.143 253.619 294.143C247.976 294.143 243.402 289.57 243.402 283.929C243.402 278.288 247.976 273.714 253.619 273.714C259.261 273.714 263.835 278.288 263.835 283.929Z" fill="#D9D9D9" stroke="#D9D9D9"/>
<path d="M290.625 208.929C290.625 212.104 288.051 214.679 284.874 214.679C281.698 214.679 279.123 212.104 279.123 208.929C279.123 205.753 281.698 203.179 284.874 203.179C288.051 203.179 290.625 205.753 290.625 208.929Z" fill="#D9D9D9" stroke="#D9D9D9"/>
<path d="M326.346 175C326.346 178.176 323.771 180.75 320.595 180.75C317.419 180.75 314.844 178.176 314.844 175C314.844 171.824 317.419 169.25 320.595 169.25C323.771 169.25 326.346 171.824 326.346 175Z" fill="#D9D9D9" stroke="#D9D9D9"/>
</svg>
