<svg width="535" height="322" viewBox="0 0 535 322" fill="none" xmlns="http://www.w3.org/2000/svg">
<rect x="76" y="48" width="458" height="262" rx="131" stroke="#FBC917" stroke-width="2"/>
<rect width="264" height="63" rx="31.5" fill="#FBC917"/>
<path d="M51.648 49.16C50.604 49.556 48.804 49.592 46.284 49.592H45.816L45.708 46.748C47.184 46.856 48.84 46.856 49.38 46.928C49.848 46.928 50.028 46.604 50.028 46.172V41.636H41.136C42.576 42.824 44.34 44.948 45.132 46.1L42.612 47.828C41.784 46.604 39.84 44.264 38.328 42.896L40.164 41.636H35.196V39.044H50.028V36.92H49.812L49.236 36.956C44.34 37.1 39.696 37.244 36.132 37.316L35.88 34.832H36.168C38.616 34.832 41.784 34.796 45.132 34.724V32.744H37.212V23.276H45.132V21.548H36.06V19.424C35.736 20.18 35.34 21.008 34.944 21.8L34.8 22.124L34.62 22.448C34.584 22.484 34.548 22.52 34.548 22.592L34.368 22.916C33.972 23.636 33.576 24.356 33.18 25.04V49.484H30.084V29.936C29.112 31.196 27.924 32.6 27.276 33.32L24.9 30.62C28.392 27.164 31.884 21.728 33.684 16.796L36.744 17.696C36.564 18.164 36.348 18.668 36.132 19.136H45.132V16.94H48.048V19.136H57.696V21.548H48.048V23.276H56.4V32.744H54.24C55.716 34.004 57.516 35.732 58.344 36.776L56.004 38.216C55.716 37.82 55.248 37.244 54.816 36.776L53.232 36.812V39.044H58.056V41.636H53.232V46.28C53.232 47.792 52.8 48.8 51.648 49.16ZM48.048 27.056H53.232V25.184H48.048V27.056ZM40.164 27.056H45.132V25.184H40.164V27.056ZM48.048 30.872V30.836L53.232 30.872V28.892H48.048V30.872ZM40.164 30.872V30.836L45.132 30.872V28.892H40.164V30.872ZM48.048 32.744V34.688L52.548 34.544C52.008 34.04 51.324 33.428 50.784 32.996L51.216 32.744H48.048ZM70.404 34.544V49.592H67.488V34.724C67.164 34.724 66.876 34.76 66.552 34.76L66.192 34.796C64.68 34.868 63.204 34.94 62.016 35.048L61.728 32.204L64.212 32.132C64.824 31.304 65.688 30.188 66.336 29.252C65.292 27.74 63.384 25.652 61.908 24.284L63.456 22.16C63.78 22.412 64.104 22.7 64.392 22.952C65.436 21.116 66.804 18.488 67.38 16.652L70.26 17.768C69.828 18.632 69.324 19.568 68.784 20.468L68.604 20.828C67.776 22.232 66.912 23.636 66.192 24.716C66.804 25.364 67.56 26.084 67.992 26.66C69.216 24.68 70.548 22.376 71.376 20.648L74.076 21.872C73.212 23.276 72.168 24.896 71.052 26.516L70.836 26.84L70.656 27.128C70.62 27.2 70.584 27.236 70.548 27.308L70.332 27.596C69.252 29.144 68.172 30.656 67.2 31.916C68.568 31.88 70.26 31.808 71.7 31.7C71.556 31.376 71.412 31.052 71.232 30.728L71.088 30.404C70.836 29.864 70.548 29.324 70.296 28.856L72.456 27.956C73.824 30.152 74.976 33.392 75.372 35.264L72.996 36.308C72.888 35.768 72.96 35.084 72.708 34.4L70.404 34.544ZM94.164 32.924L91.392 34.4C91.104 33.68 90.564 32.672 89.988 31.736L74.976 32.924L74.724 29.936L77.64 29.72C78.432 28.136 79.332 25.724 79.872 23.888H74.58V20.972H82.032V16.652H85.164V20.972H93.516V23.888H83.256C82.968 24.536 82.68 25.292 82.392 26.048L82.248 26.408C81.852 27.488 81.42 28.604 80.988 29.504C81.924 29.468 82.932 29.396 83.94 29.324L84.3 29.288L84.696 29.252C85.848 29.18 87 29.108 88.116 29.036C87.504 28.064 86.676 26.984 85.992 26.156L88.512 24.86C90.564 27.2 93.192 30.764 94.164 32.924ZM94.488 42.716C94.236 47.684 93.336 49.304 90.384 49.304H89.124C85.812 49.304 85.092 48.116 85.092 45.236V34.148H88.116V45.236C88.116 46.136 88.296 46.46 89.448 46.46H90.312C91.464 46.46 91.68 45.488 91.716 42.32L94.488 42.716ZM81.96 34.184C81.672 41.456 80.376 47.18 74.112 49.844L72.816 47.144C77.784 45.164 78.684 40.376 78.864 34.184H81.96ZM75.372 43.184L72.888 44.012C72.672 43.148 72.384 41.96 72.06 40.7L71.952 40.34L71.844 39.944C71.592 39.08 71.34 38.216 71.124 37.46L73.32 36.704C73.536 37.388 73.824 38.18 74.076 38.972L74.184 39.332C74.652 40.772 75.084 42.212 75.372 43.184ZM66.372 37.46C65.904 40.628 65.004 44.552 63.96 46.712L61.476 45.452C62.484 43.436 63.276 39.908 63.6 36.992L66.372 37.46ZM129.66 29.792V32.492H98.412V29.792H104.64C104.208 28.28 103.056 26.048 102.048 24.572L104.748 23.528C105.936 25.076 107.088 27.452 107.52 28.856L105.396 29.792H109.212V23.348H100.428V20.72H106.764C106.296 19.712 105.468 18.524 104.712 17.624L107.556 16.58C108.6 17.624 109.392 19.172 109.788 20.252L108.996 20.72H119.004L117.816 20.252C118.572 19.244 119.436 17.624 119.94 16.544L123.18 17.516C122.388 18.704 121.524 19.856 120.804 20.72H127.896V23.348H118.464V29.792H122.496L120.192 28.928C121.128 27.524 122.388 24.968 123.036 23.384L126.024 24.32C125.016 26.156 123.72 28.424 122.748 29.792H129.66ZM111.984 29.792H115.62V23.348H111.984V29.792ZM124.548 34.508V48.62H103.632V34.508H124.548ZM106.908 40.124H121.092V36.956H106.908V40.124ZM106.908 46.064H121.092V42.536H106.908V46.064ZM148.308 24.032C145.248 27.848 140.316 31.592 135.492 33.5L134.196 30.692C137.76 29.504 142.188 26.552 144.96 23.636H134.664V20.828H148.308V16.652H151.476V20.828H165.372V23.636H154.752C157.56 26.48 162.096 29.288 165.732 30.404L164.436 33.32C159.504 31.52 154.572 27.848 151.476 24.104V30.692H148.308V24.032ZM165.552 45.956V48.872H134.484V45.956H140.496V31.808H159.612V45.956H165.552ZM143.664 36.632H156.264V34.508H143.664V36.632ZM143.664 41.24H156.264V39.008H143.664V41.24ZM143.664 45.956H156.264V43.58H143.664V45.956ZM202.092 46.244L200.328 49.376C191.796 45.272 187.62 36.092 185.856 29.576C184.236 36.02 180.276 44.66 172.068 49.376L170.124 46.424C183.264 39.44 183.516 22.052 183.732 17.588H187.368C187.332 18.056 187.332 18.668 187.26 19.28C187.584 23.78 189.816 40.592 202.092 46.244ZM235.14 20.144V46.424H208.968V20.144H235.14ZM212.316 43.004H231.612V23.384H212.316V43.004Z" fill="#381805"/>
<path d="M228.988 72.9649C215.891 72.9649 209.539 62.443 208 57.182C213.037 49.9829 223.111 39.4887 223.111 55.1054C223.111 74.6262 245.358 72.9649 228.988 72.9649Z" fill="#FBC917"/>
<g clip-path="url(#clip0_2604_5749)">
<rect x="165" y="123" width="280.835" height="50" rx="20" fill="#F8F8F8"/>
<rect width="65" height="50" transform="translate(165 123)" fill="#FBC917"/>
<path d="M192.924 137.004V138.334H191.93V136.094H197.054V135.114H198.104V136.094H203.312V138.334H202.276V137.004H192.924ZM201.436 139.566L201.366 140.784H193.498L193.722 139.566H191.594V138.712H193.82L193.932 137.536H201.66L201.506 138.712H203.648V139.566H201.436ZM197.936 138.782H200.526L200.582 138.222H197.978L197.936 138.782ZM194.73 138.782H197.096C197.11 138.586 197.138 138.404 197.152 138.222H194.814L194.73 138.782ZM194.576 140.098H196.942C196.97 139.902 196.998 139.706 197.026 139.482H194.66L194.576 140.098ZM197.81 140.098H200.442L200.484 139.482H197.88C197.866 139.706 197.838 139.902 197.81 140.098ZM196.69 146.384C195.682 147.028 193.624 147.77 191.902 148.064L191.636 147.21C192.924 147.028 195.024 146.37 195.85 145.852H193.288V141.302H202.01V145.852H195.948L196.69 146.384ZM194.338 142.576H200.932V142.002H194.338V142.576ZM194.338 143.864H200.932V143.248H194.338V143.864ZM194.338 145.166H200.932V144.522H194.338V145.166ZM203.704 147.336L202.766 147.994C201.828 147.63 200.05 146.916 198.44 146.468L199.154 145.852C199.546 145.964 199.952 146.09 200.358 146.216L200.512 146.258C200.652 146.3 200.806 146.356 200.946 146.398L201.086 146.44C202.108 146.776 203.074 147.112 203.704 147.336ZM212.468 140.924C212.006 141.414 211.544 141.96 210.984 142.296L210.48 141.47C211.054 141.176 211.642 140.588 212.16 139.958C211.852 139.678 211.446 139.258 211.026 138.936C210.9 139.09 210.774 139.286 210.606 139.44L209.976 138.768C210.914 137.984 211.754 136.542 212.174 135.156L213.028 135.366C212.986 135.66 212.79 136.01 212.664 136.276H214.078L214.218 136.192L214.666 136.486C214.288 138.166 213.574 139.678 212.678 140.7H216.934C215.828 139.482 214.89 137.578 214.456 135.562L215.338 135.408C215.632 136.71 216.122 138.04 216.766 139.006C217.172 138.446 217.62 137.662 217.872 137.004H215.982V136.178H218.32L218.474 136.122L219.118 136.472C218.74 137.592 217.97 138.908 217.312 139.72C217.844 140.364 218.656 140.994 219.314 141.302L218.796 142.226C218.124 141.862 217.48 141.288 217.018 140.784V141.624H212.468V140.924ZM208.254 136.696V147.98H207.288V135.688H209.976L210.074 135.66L210.774 136.052C210.634 136.486 210.494 136.976 210.34 137.48L210.298 137.62C210.284 137.69 210.27 137.76 210.242 137.83L210.2 137.97C210.018 138.6 209.822 139.23 209.654 139.734C210.438 140.826 210.634 142.03 210.62 142.842C210.62 143.556 210.466 144.27 210.172 144.508C210.032 144.634 209.752 144.732 209.5 144.746C209.332 144.802 208.996 144.802 208.674 144.802L208.66 143.85C208.758 143.864 209.038 143.864 209.206 143.85C209.332 143.85 209.416 143.794 209.5 143.724C209.64 143.556 209.696 143.15 209.696 142.758C209.696 142.03 209.486 140.896 208.744 139.832C208.87 139.454 208.996 139.006 209.122 138.558L209.164 138.404C209.178 138.39 209.178 138.362 209.192 138.334L209.234 138.194C209.374 137.648 209.514 137.116 209.626 136.696H208.254ZM212.146 137.382C212.538 137.606 213 137.9 213.294 138.138C213.49 137.774 213.616 137.382 213.728 137.018H212.3C212.244 137.158 212.174 137.27 212.146 137.382ZM211.488 138.474C211.908 138.768 212.314 139.132 212.608 139.426C212.748 139.23 212.888 138.992 213.028 138.768C212.678 138.502 212.188 138.166 211.768 137.914C211.642 138.11 211.614 138.292 211.488 138.474ZM214.834 147.798C214.498 147.938 213.826 147.966 213 147.938C212.916 147.714 212.79 147.238 212.664 147.014C213.182 147.028 213.7 147.028 213.952 147.028H214.092C214.26 147.014 214.246 146.958 214.246 146.818V143.682H211.208V142.758H218.404V143.682H215.226V146.832C215.226 147.294 215.198 147.658 214.834 147.798ZM219.034 146.916L218.138 147.434C217.844 146.79 216.976 145.474 216.332 144.746L217.158 144.27C217.844 144.97 218.712 146.272 219.034 146.916ZM212.888 144.592C212.51 145.544 211.754 146.804 211.124 147.476L210.41 146.804C210.998 146.286 211.586 145.166 211.95 144.312L212.888 144.592ZM182.144 154.608C181.57 157.212 180.016 161.062 176.6 162.924L175.97 161.93C181.234 159.298 181.234 152.242 181.444 150.52H182.69C182.676 150.688 182.676 150.996 182.662 151.22C182.774 152.928 183.74 159.69 188.514 161.874L187.94 162.91C184.454 161.272 182.76 157.212 182.144 154.608ZM202.696 151.486V161.692H192.56V151.486H202.696ZM193.68 160.572H201.52V152.62H193.68V160.572ZM211.054 161.776C210.242 162.308 208.898 162.798 207.414 163.064L207.204 162.14C208.254 162.014 209.416 161.678 210.144 161.3C209.71 161.104 209.192 160.866 208.744 160.698L208.548 161.104L207.638 160.838C207.89 160.376 208.24 159.816 208.534 159.312L206.77 159.368L206.742 158.486H207.092C207.4 158.486 207.736 158.486 208.086 158.486H208.226C208.478 158.472 208.73 158.472 208.968 158.472C209.15 158.206 209.29 157.87 209.416 157.632H207.344V155.238H209.99V154.692H207.722V153.222H206.728V152.382H207.722V150.954H209.99V150.128H210.9V150.954H213.196V152.382H214.162V153.222H213.196V154.692H210.9V155.238H213.504V155.98C214.134 154.832 214.54 153.054 214.834 151.304L214.848 151.15C214.862 151.052 214.89 150.954 214.904 150.856L214.918 150.716L214.946 150.562C214.96 150.422 214.988 150.268 215.002 150.128L216.052 150.31C215.94 151.08 215.8 151.934 215.632 152.62H219.286V153.614H218.432C218.404 153.796 218.39 153.964 218.362 154.146L218.334 154.3C218.04 156.176 217.592 157.968 216.878 159.256C217.494 160.362 218.404 161.552 219.286 162.07L218.642 163.036C217.676 162.434 216.864 161.314 216.304 160.306C215.688 161.356 214.82 162.364 213.798 163.008C213.714 162.826 213.462 162.294 213.294 162.084C214.386 161.356 215.128 160.376 215.744 159.228C215.534 158.668 215.324 158.01 215.142 157.31L215.1 157.17C215.1 157.156 215.086 157.128 215.086 157.1L215.044 156.96C215.002 156.806 214.96 156.638 214.918 156.47L214.89 156.33C214.82 156.05 214.764 155.77 214.708 155.504C214.484 156.022 214.33 156.61 214.064 157.03C213.966 156.904 213.672 156.61 213.504 156.442V157.632H210.41C210.284 157.87 210.158 158.206 210.004 158.486C210.55 158.486 211.152 158.472 211.754 158.458L211.908 158.444C211.95 158.444 211.992 158.444 212.048 158.444H212.188H212.258L212.468 158.43H212.552H212.692C213.21 158.416 213.742 158.402 214.246 158.388L214.204 159.228L212.776 159.256C212.538 159.97 212.188 160.698 211.698 161.16C212.244 161.426 212.776 161.79 213.182 162.056L212.496 162.742C212.104 162.476 211.628 162.084 211.054 161.776ZM210.9 152.41H212.258V151.738H210.9V152.41ZM208.618 152.41H209.99V151.738H208.618V152.41ZM210.9 153.894H212.258V153.18H210.9V153.894ZM208.618 153.894H209.99V153.18H208.618V153.894ZM215.352 153.782C215.366 153.88 215.38 153.964 215.394 154.062L215.408 154.202C215.422 154.286 215.45 154.384 215.464 154.482L215.478 154.622C215.492 154.65 215.492 154.664 215.492 154.692L215.52 154.832C215.73 155.966 215.996 157.114 216.346 158.024C216.878 156.834 217.2 155.238 217.396 153.614H215.352C215.38 153.642 215.366 153.712 215.352 153.782ZM208.268 156.876H209.99V156.008H208.268V156.876ZM210.9 156.876H212.594V156.008H210.9V156.876ZM209.15 160.012C209.752 160.194 210.396 160.474 210.928 160.726C211.348 160.362 211.572 159.802 211.768 159.256L209.528 159.326C209.416 159.536 209.29 159.802 209.15 160.012Z" fill="#381805"/>
<circle cx="261.55" cy="136.146" r="6.68705" fill="#FBC917"/>
<path d="M250 153.167C250 148.131 254.083 144.049 259.119 144.049H263.982C269.018 144.049 273.101 148.131 273.101 153.167V166.541H250V153.167Z" fill="#FBC917"/>
<circle cx="292.097" cy="136.146" r="6.68705" fill="#FBC917"/>
<path d="M280.547 153.167C280.547 148.131 284.629 144.049 289.666 144.049H294.529C299.565 144.049 303.648 148.131 303.648 153.167V166.541H280.547V153.167Z" fill="#FBC917"/>
<circle cx="322.644" cy="136.146" r="6.68705" fill="#FBC917"/>
<path d="M311.094 153.167C311.094 148.131 315.176 144.049 320.212 144.049H325.076C330.112 144.049 334.194 148.131 334.194 153.167V166.541H311.094V153.167Z" fill="#FBC917"/>
<circle cx="353.191" cy="136.146" r="6.68705" fill="#FBC917"/>
<path d="M341.641 153.167C341.641 148.131 345.723 144.049 350.759 144.049H355.623C360.659 144.049 364.741 148.131 364.741 153.167V166.541H341.641V153.167Z" fill="#FBC917"/>
<circle cx="383.738" cy="136.146" r="6.68705" fill="#FBC917"/>
<path d="M372.188 153.167C372.188 148.131 376.27 144.049 381.306 144.049H386.17C391.206 144.049 395.288 148.131 395.288 153.167V166.541H372.188V153.167Z" fill="#FBC917"/>
<circle cx="414.285" cy="136.146" r="6.68705" fill="#FBC917"/>
<path d="M402.734 153.167C402.734 148.131 406.817 144.049 411.853 144.049H416.716C421.753 144.049 425.835 148.131 425.835 153.167V166.541H402.734V153.167Z" fill="#FBC917"/>
</g>
<g clip-path="url(#clip1_2604_5749)">
<rect x="165" y="189" width="280.835" height="50" rx="20" fill="#F8F8F8"/>
<rect width="65" height="50" transform="translate(165 189)" fill="#FBC917"/>
<path d="M203.732 206.28V207.204H191.496V206.28H194.072C193.918 205.706 193.428 204.712 192.994 204.11L193.89 203.76C194.366 204.348 194.884 205.342 195.066 205.902L194.17 206.28H195.822V203.676H192.28V202.78H194.912C194.716 202.416 194.338 201.87 194.002 201.506L194.954 201.114C195.36 201.534 195.696 202.136 195.878 202.556L195.612 202.78H199.56L199.224 202.556C199.518 202.164 199.84 201.534 200.064 201.114L201.142 201.464C200.834 201.94 200.442 202.458 200.134 202.78H203.032V203.676H199.28V206.28H203.732ZM196.662 206.28H198.398V203.676H196.662V206.28ZM202.276 204.026C201.842 204.726 201.212 205.72 200.848 206.252L199.994 205.958C200.162 205.678 200.372 205.286 200.596 204.894L200.68 204.754C200.904 204.362 201.114 203.97 201.254 203.676L202.276 204.026ZM201.73 207.988V213.588H193.554V207.988H201.73ZM194.646 210.228H200.582V208.884H194.646V210.228ZM194.646 212.678H200.582V211.11H194.646V212.678ZM212.426 203.816C211.278 205.37 209.136 206.952 207.246 207.708L206.798 206.798C208.268 206.238 210.228 204.978 211.334 203.774H206.98V202.836H212.426V201.128H213.49V202.836H219.048V203.774H214.554C215.702 204.936 217.676 206.14 219.188 206.63L218.726 207.61C216.808 206.84 214.638 205.342 213.49 203.83V206.7H212.426V203.816ZM219.104 212.664V213.672H206.924V212.664H209.29V207.036H216.738V212.664H219.104ZM210.312 208.94H215.674V208.002H210.312V208.94ZM210.312 210.788H215.674V209.78H210.312V210.788ZM210.312 212.664H215.674V211.614H210.312V212.664ZM182.144 220.608C181.57 223.212 180.016 227.062 176.6 228.924L175.97 227.93C181.234 225.298 181.234 218.242 181.444 216.52H182.69C182.676 216.688 182.676 216.996 182.662 217.22C182.774 218.928 183.74 225.69 188.514 227.874L187.94 228.91C184.454 227.272 182.76 223.212 182.144 220.608ZM202.696 217.486V227.692H192.56V217.486H202.696ZM193.68 226.572H201.52V218.62H193.68V226.572ZM211.054 227.776C210.242 228.308 208.898 228.798 207.414 229.064L207.204 228.14C208.254 228.014 209.416 227.678 210.144 227.3C209.71 227.104 209.192 226.866 208.744 226.698L208.548 227.104L207.638 226.838C207.89 226.376 208.24 225.816 208.534 225.312L206.77 225.368L206.742 224.486H207.092C207.4 224.486 207.736 224.486 208.086 224.486H208.226C208.478 224.472 208.73 224.472 208.968 224.472C209.15 224.206 209.29 223.87 209.416 223.632H207.344V221.238H209.99V220.692H207.722V219.222H206.728V218.382H207.722V216.954H209.99V216.128H210.9V216.954H213.196V218.382H214.162V219.222H213.196V220.692H210.9V221.238H213.504V221.98C214.134 220.832 214.54 219.054 214.834 217.304L214.848 217.15C214.862 217.052 214.89 216.954 214.904 216.856L214.918 216.716L214.946 216.562C214.96 216.422 214.988 216.268 215.002 216.128L216.052 216.31C215.94 217.08 215.8 217.934 215.632 218.62H219.286V219.614H218.432C218.404 219.796 218.39 219.964 218.362 220.146L218.334 220.3C218.04 222.176 217.592 223.968 216.878 225.256C217.494 226.362 218.404 227.552 219.286 228.07L218.642 229.036C217.676 228.434 216.864 227.314 216.304 226.306C215.688 227.356 214.82 228.364 213.798 229.008C213.714 228.826 213.462 228.294 213.294 228.084C214.386 227.356 215.128 226.376 215.744 225.228C215.534 224.668 215.324 224.01 215.142 223.31L215.1 223.17C215.1 223.156 215.086 223.128 215.086 223.1L215.044 222.96C215.002 222.806 214.96 222.638 214.918 222.47L214.89 222.33C214.82 222.05 214.764 221.77 214.708 221.504C214.484 222.022 214.33 222.61 214.064 223.03C213.966 222.904 213.672 222.61 213.504 222.442V223.632H210.41C210.284 223.87 210.158 224.206 210.004 224.486C210.55 224.486 211.152 224.472 211.754 224.458L211.908 224.444C211.95 224.444 211.992 224.444 212.048 224.444H212.188H212.258L212.468 224.43H212.552H212.692C213.21 224.416 213.742 224.402 214.246 224.388L214.204 225.228L212.776 225.256C212.538 225.97 212.188 226.698 211.698 227.16C212.244 227.426 212.776 227.79 213.182 228.056L212.496 228.742C212.104 228.476 211.628 228.084 211.054 227.776ZM210.9 218.41H212.258V217.738H210.9V218.41ZM208.618 218.41H209.99V217.738H208.618V218.41ZM210.9 219.894H212.258V219.18H210.9V219.894ZM208.618 219.894H209.99V219.18H208.618V219.894ZM215.352 219.782C215.366 219.88 215.38 219.964 215.394 220.062L215.408 220.202C215.422 220.286 215.45 220.384 215.464 220.482L215.478 220.622C215.492 220.65 215.492 220.664 215.492 220.692L215.52 220.832C215.73 221.966 215.996 223.114 216.346 224.024C216.878 222.834 217.2 221.238 217.396 219.614H215.352C215.38 219.642 215.366 219.712 215.352 219.782ZM208.268 222.876H209.99V222.008H208.268V222.876ZM210.9 222.876H212.594V222.008H210.9V222.876ZM209.15 226.012C209.752 226.194 210.396 226.474 210.928 226.726C211.348 226.362 211.572 225.802 211.768 225.256L209.528 225.326C209.416 225.536 209.29 225.802 209.15 226.012Z" fill="#381805"/>
<circle cx="261.55" cy="202.146" r="6.68705" fill="#FBC917"/>
<path d="M250 219.167C250 214.131 254.083 210.048 259.119 210.048H263.982C269.018 210.048 273.101 214.131 273.101 219.167V232.541H250V219.167Z" fill="#FBC917"/>
<circle cx="292.097" cy="202.146" r="6.68705" fill="#FBC917"/>
<path d="M280.547 219.167C280.547 214.131 284.629 210.049 289.666 210.049H294.529C299.565 210.049 303.648 214.131 303.648 219.167V232.541H280.547V219.167Z" fill="#FBC917"/>
<circle cx="322.644" cy="202.146" r="6.68705" fill="#FBC917"/>
<path d="M311.094 219.167C311.094 214.131 315.176 210.049 320.212 210.049H325.076C330.112 210.049 334.194 214.131 334.194 219.167V232.541H311.094V219.167Z" fill="#FBC917"/>
<circle cx="353.191" cy="202.146" r="6.68705" fill="#FBC917"/>
<path d="M341.641 219.167C341.641 214.131 345.723 210.049 350.759 210.049H355.623C360.659 210.049 364.741 214.131 364.741 219.167V232.541H341.641V219.167Z" fill="#FBC917"/>
<circle cx="383.738" cy="202.146" r="6.38309" stroke="#FBC917" stroke-width="0.607914" stroke-dasharray="1.22 1.22"/>
<path d="M394.984 219.836H395.288V221.173H394.984V222.511H395.288V223.848H394.984V225.186H395.288V226.523H394.984V227.86H395.288V229.198H394.984V230.535H395.288V231.873H394.984V232.237H394.647V232.541H393.363V232.237H392.08V232.541H390.796V232.237H389.513V232.541H388.23V232.237H386.946V232.541H385.663V232.237H384.38V232.541H383.096V232.237H381.813V232.541H380.529V232.237H379.246V232.541H377.963V232.237H376.679V232.541H375.396V232.237H374.113V232.541H372.829V232.237H372.491V231.873H372.188V230.535H372.491V229.198H372.188V227.86H372.491V226.523H372.188V225.186H372.491V223.848H372.188V222.511H372.491V221.173H372.188V219.836H372.491V219.167C372.491 218.973 372.498 218.781 372.51 218.59L372.207 218.57C372.233 218.168 372.285 217.774 372.361 217.388L372.659 217.447C372.735 217.066 372.834 216.694 372.957 216.333L372.669 216.235C372.798 215.856 372.951 215.488 373.126 215.133L373.399 215.268C373.57 214.922 373.763 214.589 373.976 214.27L373.723 214.101C373.945 213.769 374.188 213.454 374.45 213.155L374.679 213.355C374.933 213.066 375.205 212.794 375.494 212.54L375.294 212.311C375.592 212.049 375.908 211.806 376.24 211.584L376.409 211.837C376.727 211.624 377.061 211.431 377.407 211.26L377.272 210.987C377.627 210.812 377.995 210.659 378.374 210.53L378.472 210.818C378.833 210.695 379.205 210.596 379.586 210.52L379.527 210.222C379.913 210.146 380.307 210.094 380.709 210.068L380.729 210.371C380.92 210.359 381.112 210.353 381.306 210.353H381.914V210.049H383.13V210.353H384.346V210.049H385.562V210.353H386.17C386.364 210.353 386.556 210.359 386.747 210.371L386.766 210.068C387.168 210.094 387.563 210.146 387.949 210.222L387.89 210.52C388.271 210.596 388.643 210.695 389.004 210.818L389.102 210.53C389.481 210.659 389.849 210.812 390.203 210.987L390.069 211.26C390.415 211.431 390.748 211.624 391.067 211.837L391.236 211.584C391.567 211.806 391.883 212.049 392.182 212.311L391.981 212.54C392.271 212.794 392.543 213.066 392.797 213.355L393.025 213.155C393.288 213.454 393.531 213.769 393.752 214.101L393.5 214.27C393.713 214.589 393.906 214.922 394.077 215.268L394.35 215.133C394.525 215.488 394.678 215.856 394.807 216.235L394.519 216.333C394.641 216.694 394.741 217.066 394.816 217.447L395.115 217.388C395.191 217.774 395.243 218.168 395.269 218.57L394.966 218.59C394.978 218.781 394.984 218.973 394.984 219.167V219.836Z" stroke="#FBC917" stroke-width="0.607914" stroke-dasharray="1.22 1.22"/>
<circle cx="414.285" cy="202.146" r="6.38309" stroke="#FBC917" stroke-width="0.607914" stroke-dasharray="1.22 1.22"/>
<path d="M425.531 219.836H425.835V221.173H425.531V222.511H425.835V223.848H425.531V225.186H425.835V226.523H425.531V227.86H425.835V229.198H425.531V230.535H425.835V231.873H425.531V232.237H425.193V232.541H423.91V232.237H422.627V232.541H421.343V232.237H420.06V232.541H418.777V232.237H417.493V232.541H416.21V232.237H414.926V232.541H413.643V232.237H412.36V232.541H411.076V232.237H409.793V232.541H408.51V232.237H407.226V232.541H405.943V232.237H404.659V232.541H403.376V232.237H403.038V231.873H402.734V230.535H403.038V229.198H402.734V227.86H403.038V226.523H402.734V225.186H403.038V223.848H402.734V222.511H403.038V221.173H402.734V219.836H403.038V219.167C403.038 218.973 403.045 218.781 403.057 218.59L402.754 218.57C402.78 218.168 402.832 217.774 402.908 217.388L403.206 217.447C403.281 217.066 403.381 216.694 403.504 216.333L403.216 216.235C403.345 215.856 403.498 215.488 403.673 215.133L403.945 215.268C404.116 214.922 404.31 214.589 404.523 214.27L404.27 214.101C404.492 213.769 404.735 213.454 404.997 213.155L405.226 213.355C405.479 213.066 405.752 212.794 406.041 212.54L405.841 212.311C406.139 212.049 406.455 211.806 406.787 211.584L406.956 211.837C407.274 211.624 407.608 211.431 407.954 211.26L407.819 210.987C408.174 210.812 408.542 210.659 408.921 210.53L409.019 210.818C409.38 210.695 409.752 210.596 410.132 210.52L410.073 210.222C410.459 210.146 410.854 210.094 411.256 210.068L411.276 210.371C411.467 210.359 411.659 210.353 411.853 210.353H412.461V210.049H413.677V210.353H414.893V210.049H416.108V210.353H416.716C416.91 210.353 417.103 210.359 417.294 210.371L417.313 210.068C417.715 210.094 418.11 210.146 418.496 210.222L418.437 210.52C418.818 210.596 419.19 210.695 419.551 210.818L419.649 210.53C420.028 210.659 420.396 210.812 420.75 210.987L420.616 211.26C420.962 211.431 421.295 211.624 421.614 211.837L421.783 211.584C422.114 211.806 422.43 212.049 422.729 212.311L422.528 212.54C422.818 212.794 423.09 213.066 423.344 213.355L423.572 213.155C423.834 213.454 424.077 213.769 424.299 214.101L424.047 214.27C424.26 214.589 424.453 214.922 424.624 215.268L424.897 215.133C425.072 215.488 425.225 215.856 425.353 216.235L425.066 216.333C425.188 216.694 425.288 217.066 425.363 217.447L425.662 217.388C425.738 217.774 425.79 218.168 425.816 218.57L425.513 218.59C425.525 218.781 425.531 218.973 425.531 219.167V219.836Z" stroke="#FBC917" stroke-width="0.607914" stroke-dasharray="1.22 1.22"/>
</g>
<rect x="420" y="241" width="81" height="81" rx="40.5" fill="white"/>
<g clip-path="url(#clip2_2604_5749)">
<path d="M435.734 301.975C435.307 301.975 434.889 301.784 434.608 301.423C429.837 295.273 427.465 287.582 427.928 279.772C428.155 275.922 429.058 272.183 430.612 268.667C432.218 265.027 434.475 261.742 437.314 258.903C439.927 256.29 442.926 254.168 446.233 252.592C449.429 251.07 452.838 250.091 456.367 249.677C459.861 249.272 463.381 249.432 466.817 250.162C470.315 250.901 473.64 252.209 476.697 254.047C477.369 254.452 477.592 255.329 477.182 256.001C476.777 256.673 475.9 256.896 475.228 256.486C463.653 249.53 448.89 251.35 439.326 260.915C428.88 271.36 427.817 288.027 436.856 299.679C437.336 300.302 437.225 301.196 436.602 301.677C436.348 301.877 436.041 301.975 435.734 301.975Z" fill="#FBC917"/>
<path d="M469.548 258.302C468.911 258.302 468.328 257.87 468.168 257.225C467.977 256.464 468.44 255.689 469.205 255.498L474.239 254.238L472.979 249.205C472.788 248.444 473.251 247.669 474.016 247.478C474.777 247.287 475.552 247.749 475.743 248.515L477.345 254.933C477.537 255.694 477.074 256.468 476.308 256.659L469.891 258.262C469.779 258.288 469.659 258.302 469.548 258.302Z" fill="#FBC917"/>
<path d="M460.103 313.934C458.069 313.934 456.04 313.743 454.033 313.36C450.597 312.706 447.317 311.504 444.281 309.79C443.596 309.403 443.356 308.535 443.739 307.85C444.126 307.165 444.994 306.924 445.679 307.307C457.112 313.756 471.59 311.766 480.887 302.474C491.333 292.028 492.396 275.361 483.357 263.709C482.877 263.086 482.988 262.192 483.611 261.711C484.234 261.231 485.129 261.342 485.609 261.965C490.38 268.116 492.752 275.806 492.29 283.617C492.063 287.471 491.159 291.209 489.606 294.725C487.999 298.366 485.743 301.65 482.903 304.49C480.344 307.049 477.411 309.141 474.185 310.707C471.065 312.22 467.731 313.217 464.278 313.662C462.889 313.845 461.496 313.934 460.103 313.934Z" fill="#FBC917"/>
<path d="M446.761 316.337C446.138 316.337 445.564 315.923 445.39 315.295L443.61 308.926C443.397 308.17 443.842 307.382 444.598 307.173L450.967 305.393C451.724 305.179 452.511 305.624 452.72 306.381C452.934 307.137 452.489 307.925 451.732 308.134L446.734 309.532L448.132 314.53C448.346 315.286 447.901 316.074 447.144 316.283C447.015 316.319 446.886 316.337 446.761 316.337Z" fill="#FBC917"/>
<path d="M444.133 269.935V279.974H442.745V271.407L440.412 272.837L439.815 271.865L442.911 269.935H444.133ZM449.962 269.796C452.212 269.796 453.322 271.657 453.322 274.961C453.322 278.294 452.212 280.155 449.962 280.155C447.713 280.155 446.602 278.294 446.602 274.961C446.602 271.643 447.713 269.796 449.962 269.796ZM449.962 270.893C448.712 270.893 448.046 272.031 448.046 274.961C448.046 277.919 448.712 279.058 449.962 279.058C451.212 279.058 451.892 277.919 451.892 274.961C451.892 272.031 451.212 270.893 449.962 270.893ZM462.453 277.808V280.96H461.148V277.808H455.024V276.6H457.273V272.92H461.148V271.004H458.134C457.565 271.976 456.801 272.948 456.079 273.67L455.121 272.712C456.232 271.768 457.454 269.949 458.051 268.213L459.315 268.546C459.162 268.949 458.954 269.407 458.787 269.81H466.466V271.004H462.453V272.92H466.146V274.087H462.453V276.6H467.16V277.808H462.453ZM458.523 276.6H461.148V274.087H458.523V276.6Z" fill="#381805"/>
<line x1="453.587" y1="298.55" x2="476.789" y2="270.838" stroke="#FBC917" stroke-width="0.771429"/>
<path d="M474.625 292.595C474.459 293.382 473.579 295.289 471.571 296.131L471.21 295.363C473.635 294.4 474.181 291.984 474.181 291.105V290.04H473.246C473.237 290.068 473.218 290.105 473.209 290.133L473.172 290.216C473.163 290.253 473.144 290.281 473.135 290.309L473.098 290.401C473.089 290.41 473.089 290.429 473.08 290.438L473.042 290.531C472.83 291.012 472.598 291.484 472.32 291.845L471.598 291.299C472.283 290.531 472.802 289.04 473.08 287.67L473.95 287.828C473.839 288.291 473.7 288.781 473.552 289.207H476.921L477.079 289.17L477.727 289.512C477.486 290.355 477.014 291.364 476.699 291.947C476.523 291.864 476.171 291.679 475.977 291.605C476.181 291.234 476.468 290.586 476.644 290.04H475.042V291.105C475.042 291.938 475.607 294.354 477.791 295.298L477.375 296.131C475.607 295.326 474.764 293.382 474.625 292.595ZM472.089 289.096V289.883H469.719V289.096H472.089ZM472.357 292.919C472.117 293.095 471.858 293.271 471.598 293.456L471.515 293.512L471.432 293.567C471.422 293.576 471.413 293.586 471.395 293.595L471.274 293.678C471.265 293.687 471.247 293.697 471.237 293.706L471.154 293.761C470.7 294.067 470.256 294.363 469.904 294.595L469.478 293.78C469.923 293.53 470.617 293.104 471.302 292.678L471.432 292.604C471.663 292.456 471.895 292.317 472.108 292.179L472.357 292.919Z" fill="#381805"/>
</g>
<defs>
<clipPath id="clip0_2604_5749">
<rect x="165" y="123" width="280.835" height="50" rx="20" fill="white"/>
</clipPath>
<clipPath id="clip1_2604_5749">
<rect x="165" y="189" width="280.835" height="50" rx="20" fill="white"/>
</clipPath>
<clipPath id="clip2_2604_5749">
<rect width="69.4286" height="69.4286" fill="white" transform="translate(425.402 247.171)"/>
</clipPath>
</defs>
</svg>
