<svg width="129" height="205" viewBox="0 0 129 205" fill="none" xmlns="http://www.w3.org/2000/svg">
<path d="M11.48 3.024V14.098H2.646V3.024H11.48ZM3.766 7.77H10.332V4.144H3.766V7.77ZM3.766 13.006H10.332V8.82H3.766V13.006ZM27.02 3.612V4.662H15.022V3.612H20.398V2.114H21.518V3.612H27.02ZM27.272 14L26.838 15.064C25.34 14.56 23.926 13.552 22.82 12.614C21.714 13.552 20.44 14.518 18.956 15.036L18.522 14.042C19.754 13.636 21.154 12.754 22.26 11.872C21.518 11.102 20.804 9.982 20.328 9.002C19.936 9.464 19.572 10.01 19.124 10.388L18.424 9.576C19.88 8.428 21.252 6.3 21.868 4.662L22.904 4.858C22.736 5.264 22.512 5.754 22.26 6.132H25.774L26.026 6.048L26.642 6.398C26.068 8.526 24.878 10.626 23.604 11.9C24.626 12.754 26.026 13.664 27.272 14ZM17.976 7.28V14.966H16.884V8.764C16.436 9.352 15.82 10.052 15.316 10.5L14.518 9.618C15.862 8.526 17.458 6.51 18.2 4.662L19.236 4.872C18.9 5.656 18.424 6.566 17.976 7.28ZM21 8.218C21.462 9.24 22.036 10.374 22.82 11.186C23.856 10.164 24.822 8.582 25.34 7.028H21.756C21.518 7.434 21.266 7.854 21 8.218ZM23.926 9.086L23.268 9.688C22.932 9.282 22.26 8.512 21.77 8.008L22.456 7.462C22.932 7.938 23.632 8.708 23.926 9.086ZM32.914 9.142C32.354 11.452 31.122 13.832 29.526 15.05L28.812 14.154C30.226 13.23 31.304 11.116 31.794 9.142H28.952V8.134H34.468V6.944H30.226V5.992H34.468V4.914H29.596V3.948H32.424C32.214 3.542 31.822 2.982 31.486 2.562L32.424 2.17C32.844 2.66 33.222 3.346 33.39 3.808L33.334 3.948H36.722L36.61 3.864C36.932 3.402 37.254 2.618 37.478 2.1L38.626 2.45C38.304 2.982 37.898 3.57 37.576 3.948H40.516V4.914H35.49V5.992H39.816V6.944H35.49V8.134H41.034V9.142H32.914ZM40.754 13.622V14.63H31.542V13.622H35.546V11.116H32.732V10.136H39.83V11.116H36.596V13.622H40.754ZM55.104 11.312V12.306H42.924V11.312H46.298V9.744H43.806V8.75H46.298V7.518H44.282V2.646H53.76V7.518H51.716V8.75H54.292V9.744H51.716V11.312H55.104ZM49.434 4.634H52.668V3.542H49.434V4.634ZM45.332 4.634H48.468V3.542H45.332V4.634ZM49.434 6.622H52.668V5.474H49.434V6.622ZM45.332 6.622H48.468V5.474H45.332V6.622ZM47.32 8.75H50.68V7.518H47.32V8.75ZM47.32 11.312H50.68V9.744H47.32V11.312ZM55.062 14.196L54.166 15.022C53.256 14.532 51.562 13.664 50.092 13.188L50.68 12.418C52.164 12.88 54.082 13.734 55.062 14.196ZM48.034 13.104C46.97 13.776 45.08 14.644 43.554 15.05L43.19 14.112C44.366 13.832 46.312 12.992 47.152 12.446L48.034 13.104ZM62.944 6.608C62.37 9.212 60.816 13.062 57.4 14.924L56.77 13.93C62.034 11.298 62.034 4.242 62.244 2.52H63.49C63.476 2.688 63.476 2.996 63.462 3.22C63.574 4.928 64.54 11.69 69.314 13.874L68.74 14.91C65.254 13.272 63.56 9.212 62.944 6.608ZM75.054 13.776C74.242 14.308 72.898 14.798 71.414 15.064L71.204 14.14C72.254 14.014 73.416 13.678 74.144 13.3C73.71 13.104 73.192 12.866 72.744 12.698L72.548 13.104L71.638 12.838C71.89 12.376 72.24 11.816 72.534 11.312L70.77 11.368L70.742 10.486H71.092C71.4 10.486 71.736 10.486 72.086 10.486H72.226C72.478 10.472 72.73 10.472 72.968 10.472C73.15 10.206 73.29 9.87 73.416 9.632H71.344V7.238H73.99V6.692H71.722V5.222H70.728V4.382H71.722V2.954H73.99V2.128H74.9V2.954H77.196V4.382H78.162V5.222H77.196V6.692H74.9V7.238H77.504V7.98C78.134 6.832 78.54 5.054 78.834 3.304L78.848 3.15C78.862 3.052 78.89 2.954 78.904 2.856L78.918 2.716L78.946 2.562C78.96 2.422 78.988 2.268 79.002 2.128L80.052 2.31C79.94 3.08 79.8 3.934 79.632 4.62H83.286V5.614H82.432C82.404 5.796 82.39 5.964 82.362 6.146L82.334 6.3C82.04 8.176 81.592 9.968 80.878 11.256C81.494 12.362 82.404 13.552 83.286 14.07L82.642 15.036C81.676 14.434 80.864 13.314 80.304 12.306C79.688 13.356 78.82 14.364 77.798 15.008C77.714 14.826 77.462 14.294 77.294 14.084C78.386 13.356 79.128 12.376 79.744 11.228C79.534 10.668 79.324 10.01 79.142 9.31L79.1 9.17C79.1 9.156 79.086 9.128 79.086 9.1L79.044 8.96C79.002 8.806 78.96 8.638 78.918 8.47L78.89 8.33C78.82 8.05 78.764 7.77 78.708 7.504C78.484 8.022 78.33 8.61 78.064 9.03C77.966 8.904 77.672 8.61 77.504 8.442V9.632H74.41C74.284 9.87 74.158 10.206 74.004 10.486C74.55 10.486 75.152 10.472 75.754 10.458L75.908 10.444C75.95 10.444 75.992 10.444 76.048 10.444H76.188H76.258L76.468 10.43H76.552H76.692C77.21 10.416 77.742 10.402 78.246 10.388L78.204 11.228L76.776 11.256C76.538 11.97 76.188 12.698 75.698 13.16C76.244 13.426 76.776 13.79 77.182 14.056L76.496 14.742C76.104 14.476 75.628 14.084 75.054 13.776ZM74.9 4.41H76.258V3.738H74.9V4.41ZM72.618 4.41H73.99V3.738H72.618V4.41ZM74.9 5.894H76.258V5.18H74.9V5.894ZM72.618 5.894H73.99V5.18H72.618V5.894ZM79.352 5.782C79.366 5.88 79.38 5.964 79.394 6.062L79.408 6.202C79.422 6.286 79.45 6.384 79.464 6.482L79.478 6.622C79.492 6.65 79.492 6.664 79.492 6.692L79.52 6.832C79.73 7.966 79.996 9.114 80.346 10.024C80.878 8.834 81.2 7.238 81.396 5.614H79.352C79.38 5.642 79.366 5.712 79.352 5.782ZM72.268 8.876H73.99V8.008H72.268V8.876ZM74.9 8.876H76.594V8.008H74.9V8.876ZM73.15 12.012C73.752 12.194 74.396 12.474 74.928 12.726C75.348 12.362 75.572 11.802 75.768 11.256L73.528 11.326C73.416 11.536 73.29 11.802 73.15 12.012ZM87.444 1.26L88.242 1.792C86.884 3.808 85.974 5.446 85.974 8.708C85.974 11.956 86.884 13.608 88.242 15.624L87.444 16.156C85.96 14.07 84.644 12.278 84.644 8.708C84.644 5.138 85.96 3.346 87.444 1.26ZM96.3985 8.554V15.008H95.3205V8.554H89.8045V7.448H95.3205V4.284C94.8865 4.354 94.4245 4.41 93.9485 4.466L93.8085 4.494C93.7245 4.494 93.6265 4.508 93.5285 4.522L93.3885 4.536C93.1785 4.564 92.9685 4.592 92.7585 4.606L92.6185 4.62C92.0025 4.69 91.4005 4.746 90.8545 4.802C90.8265 4.55 90.6585 4.088 90.5465 3.808C90.9525 3.78 91.3585 3.738 91.7785 3.696L91.9325 3.682C92.2825 3.64 92.6325 3.598 92.9825 3.556L93.2065 3.528C93.3885 3.5 93.5705 3.486 93.7385 3.458L93.8925 3.444C93.9205 3.43 93.9485 3.43 93.9765 3.43L94.2005 3.402C94.2845 3.388 94.3545 3.374 94.4245 3.36L94.5785 3.346C96.6225 3.052 98.5825 2.688 99.8145 2.296L100.641 3.206C99.8845 3.43 98.9045 3.668 97.8825 3.85L97.7285 3.878C97.2945 3.962 96.8465 4.032 96.3985 4.088V7.448H102.013V8.554H96.3985ZM109.839 6.608C109.265 9.212 107.711 13.062 104.295 14.924L103.665 13.93C108.929 11.298 108.929 4.242 109.139 2.52H110.385C110.371 2.688 110.371 2.996 110.357 3.22C110.469 4.928 111.435 11.69 116.209 13.874L115.635 14.91C112.149 13.272 110.455 9.212 109.839 6.608ZM118.351 1.26C119.835 3.346 121.137 5.138 121.137 8.708C121.137 12.278 119.835 14.07 118.351 16.156L117.539 15.624C118.911 13.608 119.807 11.956 119.807 8.708C119.807 5.446 118.911 3.808 117.539 1.792L118.351 1.26Z" fill="black"/>
<rect y="31" width="24" height="24" rx="12" fill="#007FB6"/>
<rect y="61" width="24" height="24" rx="12" fill="#6FC7E3"/>
<rect y="91" width="24" height="24" rx="12" fill="#CEF3FF"/>
<rect y="121" width="24" height="24" rx="12" fill="#FFDAC6"/>
<rect y="151" width="24" height="24" rx="12" fill="#FFA877"/>
<rect y="181" width="24" height="24" rx="12" fill="#FF650F"/>
<path d="M43.606 40.378C45.09 40.378 46.378 41.414 46.378 43.584C46.378 45.796 44.992 47.182 43.214 47.182C40.778 47.182 39.882 45.138 39.882 42.296C39.882 38.936 41.296 36.752 43.648 36.752C44.46 36.752 45.104 36.976 45.678 37.354L45.188 38.194C44.712 37.914 44.208 37.76 43.62 37.76C42.108 37.76 41.212 39.356 41.142 41.736C41.814 40.798 42.626 40.378 43.606 40.378ZM43.214 46.174C44.46 46.174 45.09 45.138 45.09 43.612C45.09 41.974 44.376 41.386 43.396 41.386C42.458 41.386 41.688 41.96 41.156 42.828C41.226 45.054 41.814 46.174 43.214 46.174ZM51.2254 36.752C53.4514 36.752 54.5574 38.6 54.5574 41.96C54.5574 45.32 53.4514 47.182 51.2254 47.182C48.9994 47.182 47.9074 45.32 47.9074 41.946C47.9074 38.572 48.9994 36.752 51.2254 36.752ZM51.2254 37.76C49.9094 37.76 49.2234 38.95 49.2234 41.946C49.2234 44.956 49.9094 46.174 51.2254 46.174C52.5274 46.174 53.2414 44.956 53.2414 41.96C53.2414 38.95 52.5274 37.76 51.2254 37.76Z" fill="black"/>
<path d="M75.938 42.814V41.722H80.152V42.814H75.938Z" fill="black"/>
<path d="M46.518 74.444V75.48H45.202V78H43.956V75.48H39.616V74.556L42.668 67.752L43.732 68.186L40.96 74.444H43.97L44.096 71.686H45.202V74.444H46.518ZM51.198 67.752C53.424 67.752 54.53 69.6 54.53 72.96C54.53 76.32 53.424 78.182 51.198 78.182C48.972 78.182 47.88 76.32 47.88 72.946C47.88 69.572 48.972 67.752 51.198 67.752ZM51.198 68.76C49.882 68.76 49.196 69.95 49.196 72.946C49.196 75.956 49.882 77.174 51.198 77.174C52.5 77.174 53.214 75.956 53.214 72.96C53.214 69.95 52.5 68.76 51.198 68.76Z" fill="black"/>
<path d="M75.938 73.814V72.722H80.152V73.814H75.938Z" fill="black"/>
<path d="M96.606 71.378C98.09 71.378 99.378 72.414 99.378 74.584C99.378 76.796 97.992 78.182 96.214 78.182C93.778 78.182 92.882 76.138 92.882 73.296C92.882 69.936 94.296 67.752 96.648 67.752C97.46 67.752 98.104 67.976 98.678 68.354L98.188 69.194C97.712 68.914 97.208 68.76 96.62 68.76C95.108 68.76 94.212 70.356 94.142 72.736C94.814 71.798 95.626 71.378 96.606 71.378ZM96.214 77.174C97.46 77.174 98.09 76.138 98.09 74.612C98.09 72.974 97.376 72.386 96.396 72.386C95.458 72.386 94.688 72.96 94.156 73.828C94.226 76.054 94.814 77.174 96.214 77.174ZM104.225 67.752C106.451 67.752 107.557 69.6 107.557 72.96C107.557 76.32 106.451 78.182 104.225 78.182C101.999 78.182 100.907 76.32 100.907 72.946C100.907 69.572 101.999 67.752 104.225 67.752ZM104.225 68.76C102.909 68.76 102.223 69.95 102.223 72.946C102.223 75.956 102.909 77.174 104.225 77.174C105.527 77.174 106.241 75.956 106.241 72.96C106.241 69.95 105.527 68.76 104.225 68.76Z" fill="black"/>
<path d="M42.43 98.752C44.264 98.752 45.412 99.928 45.412 101.482C45.412 103.4 44.222 104.716 41.058 107.922H45.65L45.496 109H39.602V107.992C43.2 104.212 44.082 103.218 44.082 101.552C44.082 100.446 43.382 99.788 42.374 99.788C41.492 99.788 40.904 100.152 40.246 100.908L39.406 100.25C40.218 99.242 41.184 98.752 42.43 98.752ZM50.6238 98.752C52.8498 98.752 53.9558 100.6 53.9558 103.96C53.9558 107.32 52.8498 109.182 50.6238 109.182C48.3978 109.182 47.3058 107.32 47.3058 103.946C47.3058 100.572 48.3978 98.752 50.6238 98.752ZM50.6238 99.76C49.3078 99.76 48.6218 100.95 48.6218 103.946C48.6218 106.956 49.3078 108.174 50.6238 108.174C51.9258 108.174 52.6398 106.956 52.6398 103.96C52.6398 100.95 51.9258 99.76 50.6238 99.76Z" fill="black"/>
<path d="M75.938 104.814V103.722H80.152V104.814H75.938Z" fill="black"/>
<path d="M99.518 105.444V106.48H98.202V109H96.956V106.48H92.616V105.556L95.668 98.752L96.732 99.186L93.96 105.444H96.97L97.096 102.686H98.202V105.444H99.518ZM104.198 98.752C106.424 98.752 107.53 100.6 107.53 103.96C107.53 107.32 106.424 109.182 104.198 109.182C101.972 109.182 100.88 107.32 100.88 103.946C100.88 100.572 101.972 98.752 104.198 98.752ZM104.198 99.76C102.882 99.76 102.196 100.95 102.196 103.946C102.196 106.956 102.882 108.174 104.198 108.174C105.5 108.174 106.214 106.956 106.214 103.96C106.214 100.95 105.5 99.76 104.198 99.76Z" fill="black"/>
<path d="M43.2 129.752C45.426 129.752 46.532 131.6 46.532 134.96C46.532 138.32 45.426 140.182 43.2 140.182C40.974 140.182 39.882 138.32 39.882 134.946C39.882 131.572 40.974 129.752 43.2 129.752ZM43.2 130.76C41.884 130.76 41.198 131.95 41.198 134.946C41.198 137.956 41.884 139.174 43.2 139.174C44.502 139.174 45.216 137.956 45.216 134.96C45.216 131.95 44.502 130.76 43.2 130.76Z" fill="black"/>
<path d="M75.938 135.814V134.722H80.152V135.814H75.938Z" fill="black"/>
<path d="M95.43 129.752C97.264 129.752 98.412 130.928 98.412 132.482C98.412 134.4 97.222 135.716 94.058 138.922H98.65L98.496 140H92.602V138.992C96.2 135.212 97.082 134.218 97.082 132.552C97.082 131.446 96.382 130.788 95.374 130.788C94.492 130.788 93.904 131.152 93.246 131.908L92.406 131.25C93.218 130.242 94.184 129.752 95.43 129.752ZM103.624 129.752C105.85 129.752 106.956 131.6 106.956 134.96C106.956 138.32 105.85 140.182 103.624 140.182C101.398 140.182 100.306 138.32 100.306 134.946C100.306 131.572 101.398 129.752 103.624 129.752ZM103.624 130.76C102.308 130.76 101.622 131.95 101.622 134.946C101.622 137.956 102.308 139.174 103.624 139.174C104.926 139.174 105.64 137.956 105.64 134.96C105.64 131.95 104.926 130.76 103.624 130.76Z" fill="black"/>
<path d="M39.938 166.814V165.722H44.152V166.814H39.938ZM47.5433 160.752C49.3773 160.752 50.5253 161.928 50.5253 163.482C50.5253 165.4 49.3353 166.716 46.1713 169.922H50.7633L50.6093 171H44.7153V169.992C48.3133 166.212 49.1953 165.218 49.1953 163.552C49.1953 162.446 48.4953 161.788 47.4873 161.788C46.6053 161.788 46.0173 162.152 45.3593 162.908L44.5193 162.25C45.3313 161.242 46.2973 160.752 47.5433 160.752ZM55.7371 160.752C57.9631 160.752 59.0691 162.6 59.0691 165.96C59.0691 169.32 57.9631 171.182 55.7371 171.182C53.5111 171.182 52.4191 169.32 52.4191 165.946C52.4191 162.572 53.5111 160.752 55.7371 160.752ZM55.7371 161.76C54.4211 161.76 53.7351 162.95 53.7351 165.946C53.7351 168.956 54.4211 170.174 55.7371 170.174C57.0391 170.174 57.7531 168.956 57.7531 165.96C57.7531 162.95 57.0391 161.76 55.7371 161.76Z" fill="black"/>
<path d="M75.938 166.814V165.722H80.152V166.814H75.938Z" fill="black"/>
<path d="M96.2 160.752C98.426 160.752 99.532 162.6 99.532 165.96C99.532 169.32 98.426 171.182 96.2 171.182C93.974 171.182 92.882 169.32 92.882 165.946C92.882 162.572 93.974 160.752 96.2 160.752ZM96.2 161.76C94.884 161.76 94.198 162.95 94.198 165.946C94.198 168.956 94.884 170.174 96.2 170.174C97.502 170.174 98.216 168.956 98.216 165.96C98.216 162.95 97.502 161.76 96.2 161.76Z" fill="black"/>
<path d="M39.938 197.814V196.722H44.152V197.814H39.938ZM52.4516 198.444V199.48H51.1356V202H49.8896V199.48H45.5496V198.556L48.6016 191.752L49.6656 192.186L46.8936 198.444H49.9036L50.0296 195.686H51.1356V198.444H52.4516ZM57.1316 191.752C59.3576 191.752 60.4636 193.6 60.4636 196.96C60.4636 200.32 59.3576 202.182 57.1316 202.182C54.9056 202.182 53.8136 200.32 53.8136 196.946C53.8136 193.572 54.9056 191.752 57.1316 191.752ZM57.1316 192.76C55.8156 192.76 55.1296 193.95 55.1296 196.946C55.1296 199.956 55.8156 201.174 57.1316 201.174C58.4336 201.174 59.1476 199.956 59.1476 196.96C59.1476 193.95 58.4336 192.76 57.1316 192.76Z" fill="black"/>
<path d="M75.938 197.814V196.722H80.152V197.814H75.938Z" fill="black"/>
<path d="M92.938 197.814V196.722H97.152V197.814H92.938ZM100.543 191.752C102.377 191.752 103.525 192.928 103.525 194.482C103.525 196.4 102.335 197.716 99.1713 200.922H103.763L103.609 202H97.7153V200.992C101.313 197.212 102.195 196.218 102.195 194.552C102.195 193.446 101.495 192.788 100.487 192.788C99.6053 192.788 99.0173 193.152 98.3593 193.908L97.5193 193.25C98.3313 192.242 99.2973 191.752 100.543 191.752ZM108.737 191.752C110.963 191.752 112.069 193.6 112.069 196.96C112.069 200.32 110.963 202.182 108.737 202.182C106.511 202.182 105.419 200.32 105.419 196.946C105.419 193.572 106.511 191.752 108.737 191.752ZM108.737 192.76C107.421 192.76 106.735 193.95 106.735 196.946C106.735 199.956 107.421 201.174 108.737 201.174C110.039 201.174 110.753 199.956 110.753 196.96C110.753 193.95 110.039 192.76 108.737 192.76Z" fill="black"/>
</svg>
