<svg width="410" height="500" viewBox="0 0 410 500" fill="none" xmlns="http://www.w3.org/2000/svg">
<g clip-path="url(#clip0_3390_7020)">
<path d="M206.001 466C205.191 461.95 203.701 454.63 203.531 450.45C203.201 442.57 205.131 435.08 207.021 427.53C208.711 420.78 211.411 414.53 214.131 408.16C217.011 401.45 218.941 394.37 221.311 387.47C225.501 375.26 230.861 363.609 238.451 353.079C241.002 349.595 243.197 345.863 245.001 341.94C248.711 333.78 253.811 326.43 258.361 318.75C266.101 305.69 271.361 291.58 275.551 277.04C278.051 268.32 280.661 259.63 282.871 250.84C285.411 240.73 286.501 230.33 288.121 220.04C289.911 208.64 291.121 197.04 296.311 186.5C298.519 182.203 301.092 178.105 304.001 174.25C306.463 170.932 308.559 167.358 310.251 163.59C312.111 159.162 314.301 154.88 316.801 150.78C318.653 147.947 319.811 144.718 320.181 141.354C320.551 137.99 320.123 134.587 318.931 131.42C317.02 126.081 316.095 120.439 316.201 114.77C316.347 109.014 317.4 103.317 319.321 97.8895C320.761 93.8195 324.091 90.9995 327.401 88.2895C330.241 85.9495 330.761 84.2895 328.981 80.9895C326.831 76.9895 326.571 72.7995 326.821 68.3995C327.051 64.5595 325.321 62.9095 321.421 62.3995C313.051 61.2895 304.911 59.5895 297.921 54.2895C295.481 52.4634 293.374 50.2308 291.691 47.6895C290.374 45.6818 288.732 43.9075 286.831 42.4395C282.311 38.9295 279.381 39.6195 274.831 41.9995C269.341 44.8495 265.131 49.3295 261.211 53.9995C254.841 61.5695 246.501 65.4995 237.211 67.8895C226.071 70.7395 216.641 75.8895 209.501 85.4795C205.091 91.5977 201.617 98.3382 199.191 105.48C196.381 113.17 192.931 120.63 186.521 126.3C182.955 129.546 179.583 132.998 176.421 136.64C172.351 141.18 170.141 146.64 168.121 152.4C164.536 162.48 159.622 172.037 153.511 180.82C146.431 191.06 139.441 201.44 134.221 212.75C128.741 224.61 122.291 236.03 118.011 248.43C114.852 257.989 112.763 267.869 111.781 277.89C111.051 284.41 110.781 290.97 110.331 297.52C109.331 313.66 112.401 329.22 116.331 344.71C118.991 355.16 124.261 364.19 130.511 372.82C136.761 381.45 144.311 389.09 150.691 397.64C158.301 407.85 166.301 417.81 171.211 429.78C173.704 435.817 175.414 442.148 176.301 448.62C177.301 455.45 179.941 460.689 186.991 462.799C188.731 463.319 190.451 463.88 192.171 464.43C195.303 465.293 198.387 466.322 201.411 467.51C203.671 468.51 204.971 468 206.081 466.07" stroke="#381805" stroke-width="2" stroke-linecap="round" stroke-linejoin="round"/>
<path d="M319.417 97.4493C317.546 102.89 316.491 108.579 316.287 114.329C316.17 120.005 317.088 125.653 318.997 130.999C320.189 134.168 320.617 137.574 320.247 140.939C319.876 144.304 318.719 147.535 316.867 150.369C314.364 154.468 312.175 158.75 310.317 163.179C308.624 166.945 306.529 170.515 304.067 173.829C301.173 177.691 298.614 181.793 296.417 186.089C291.247 196.659 290.017 208.229 288.227 219.629C286.607 229.919 285.517 240.309 282.977 250.429C280.767 259.219 278.157 267.909 275.657 276.619C271.487 291.169 266.207 305.279 258.467 318.339C253.917 326.019 248.817 333.339 245.107 341.529C243.308 345.466 241.117 349.212 238.567 352.709C230.977 363.239 225.677 374.909 221.407 387.089C219.157 393.519 217.227 400.089 214.787 406.419C212.917 411.289 210.327 415.889 208.907 420.919C207.977 424.209 206.737 427.399 205.907 430.719C203.037 428.389 200.297 424.429 198.267 421.429C195.177 416.859 192.347 412.099 189.197 407.569C188.437 406.416 187.936 405.111 187.731 403.745C187.525 402.379 187.62 400.985 188.007 399.659C189.735 392.582 192.686 385.861 196.727 379.799C200.838 373.879 202.79 366.727 202.257 359.539C201.737 351.706 201.014 343.879 200.087 336.059C199.187 328.539 200.597 321.169 206.627 315.279C211.357 310.649 215.437 305.369 219.787 300.349C223.177 296.419 223.007 291.559 222.397 287.009C221.487 280.099 224.017 274.639 230.727 272.639C235.317 271.269 237.357 268.059 237.967 264.069C240.186 250.757 243.378 237.625 247.517 224.779C249.657 217.829 251.727 210.709 251.117 203.269C250.651 199.139 251.015 194.957 252.187 190.969C253.427 187.079 256.277 184.349 258.507 181.169C260.507 178.279 262.637 175.429 264.507 172.419C266.377 169.409 265.757 167.229 262.917 165.079C261.113 163.903 259.612 162.316 258.537 160.449C257.187 157.749 256.757 155.259 258.177 152.219C260.627 146.979 262.727 141.599 265.867 136.689C267.115 134.955 268.496 133.32 269.997 131.799C274.577 126.639 278.427 120.799 283.367 115.999C289.917 109.569 297.247 104.359 305.987 101.219C308.764 100.078 311.011 97.937 312.287 95.2193C314.167 91.7793 317.617 90.1193 320.757 88.2193C321.118 88.0139 321.517 87.884 321.929 87.8375C322.342 87.7911 322.76 87.8292 323.157 87.9493C323.749 88.1915 324.4 88.2541 325.027 88.1293C324.867 89.9593 323.507 91.5793 322.337 92.7793C321.024 94.0961 320.026 95.6926 319.417 97.4493Z" stroke="#F3C10E" stroke-width="3" stroke-miterlimit="10"/>
<path opacity="0.2" d="M319.417 97.4493C317.546 102.89 316.491 108.579 316.287 114.329C316.17 120.005 317.088 125.653 318.997 130.999C320.189 134.168 320.617 137.574 320.247 140.939C319.876 144.304 318.719 147.535 316.867 150.369C314.364 154.468 312.175 158.75 310.317 163.179C308.624 166.945 306.529 170.515 304.067 173.829C301.173 177.691 298.614 181.793 296.417 186.089C291.247 196.659 290.017 208.229 288.227 219.629C286.607 229.919 285.517 240.309 282.977 250.429C280.767 259.219 278.157 267.909 275.657 276.619C271.487 291.169 266.207 305.279 258.467 318.339C253.917 326.019 248.817 333.339 245.107 341.529C243.308 345.466 241.117 349.212 238.567 352.709C230.977 363.239 225.677 374.909 221.407 387.089C219.157 393.519 217.227 400.089 214.787 406.419C212.917 411.289 210.327 415.889 208.907 420.919C207.977 424.209 206.737 427.399 205.907 430.719C203.037 428.389 200.297 424.429 198.267 421.429C195.177 416.859 192.347 412.099 189.197 407.569C188.437 406.416 187.936 405.111 187.731 403.745C187.525 402.379 187.62 400.985 188.007 399.659C189.735 392.582 192.686 385.861 196.727 379.799C200.838 373.879 202.79 366.727 202.257 359.539C201.737 351.706 201.014 343.879 200.087 336.059C199.187 328.539 200.597 321.169 206.627 315.279C211.357 310.649 215.437 305.369 219.787 300.349C223.177 296.419 223.007 291.559 222.397 287.009C221.487 280.099 224.017 274.639 230.727 272.639C235.317 271.269 237.357 268.059 237.967 264.069C240.186 250.757 243.378 237.625 247.517 224.779C249.657 217.829 251.727 210.709 251.117 203.269C250.651 199.139 251.015 194.957 252.187 190.969C253.427 187.079 256.277 184.349 258.507 181.169C260.507 178.279 262.637 175.429 264.507 172.419C266.377 169.409 265.757 167.229 262.917 165.079C261.113 163.903 259.612 162.316 258.537 160.449C257.187 157.749 256.757 155.259 258.177 152.219C260.627 146.979 262.727 141.599 265.867 136.689C267.115 134.955 268.496 133.32 269.997 131.799C274.577 126.639 278.427 120.799 283.367 115.999C289.917 109.569 297.247 104.359 305.987 101.219C308.764 100.078 311.011 97.937 312.287 95.2193C314.167 91.7793 317.617 90.1193 320.757 88.2193C321.118 88.0139 321.517 87.884 321.929 87.8375C322.342 87.7911 322.76 87.8292 323.157 87.9493C323.749 88.1915 324.4 88.2541 325.027 88.1293C324.867 89.9593 323.507 91.5793 322.337 92.7793C321.024 94.0961 320.026 95.6926 319.417 97.4493Z" fill="#F3C10E"/>
<path d="M242.003 78.8906H71.6325C68.8316 78.8985 66.1477 80.0147 64.1671 81.9953C62.1866 83.9758 61.0704 86.6597 61.0625 89.4606V231.601C61.073 234.401 62.19 237.083 64.17 239.063C66.15 241.043 68.8324 242.16 71.6325 242.171H180.863L224.243 311.001L205.243 242.201H242.003C244.803 242.19 247.485 241.073 249.465 239.093C251.445 237.113 252.562 234.431 252.573 231.631V89.4606C252.565 86.6597 251.448 83.9758 249.468 81.9953C247.487 80.0147 244.803 78.8985 242.003 78.8906Z" fill="white" stroke="#381805" stroke-width="0.5" stroke-miterlimit="10" stroke-dasharray="4 1"/>
<path d="M125.287 95.6193C125.766 95.6193 126.234 95.4774 126.632 95.2115C127.03 94.9455 127.34 94.5676 127.523 94.1254C127.706 93.6832 127.754 93.1966 127.661 92.7272C127.567 92.2577 127.337 91.8265 126.998 91.4881C126.66 91.1497 126.229 90.9192 125.759 90.8258C125.29 90.7324 124.803 90.7803 124.361 90.9635C123.919 91.1467 123.541 91.4569 123.275 91.8548C123.009 92.2528 122.867 92.7207 122.867 93.1993C122.867 93.8411 123.122 94.4567 123.576 94.9105C124.03 95.3643 124.645 95.6193 125.287 95.6193Z" fill="#F3C10E"/>
<path d="M133.362 105.269L128.682 97.2694C128.592 97.0594 128.302 96.9295 127.952 96.7895L126.372 96.1895H124.152L122.602 96.7895C122.262 96.9195 121.982 97.0294 121.882 97.2394L117.182 105.239C117.117 105.345 117.072 105.461 117.052 105.584C117.032 105.706 117.035 105.831 117.063 105.952C117.091 106.072 117.142 106.186 117.214 106.287C117.286 106.388 117.377 106.474 117.482 106.539C117.588 106.605 117.704 106.649 117.827 106.67C117.949 106.69 118.074 106.687 118.195 106.659C118.315 106.631 118.429 106.579 118.53 106.508C118.631 106.436 118.717 106.345 118.782 106.239L122.122 100.549L122.412 106.269V117.909C122.412 118.206 122.53 118.491 122.74 118.701C122.951 118.911 123.235 119.029 123.532 119.029C123.83 119.029 124.114 118.911 124.324 118.701C124.534 118.491 124.652 118.206 124.652 117.909V107.909H125.822V117.909C125.822 118.206 125.94 118.491 126.151 118.701C126.361 118.911 126.645 119.029 126.942 119.029C127.24 119.029 127.524 118.911 127.734 118.701C127.944 118.491 128.062 118.206 128.062 117.909V106.669L128.372 100.439L131.772 106.219C131.838 106.324 131.924 106.414 132.024 106.486C132.125 106.557 132.239 106.608 132.359 106.635C132.479 106.663 132.604 106.666 132.725 106.645C132.847 106.625 132.963 106.58 133.067 106.514C133.172 106.449 133.262 106.363 133.334 106.263C133.405 106.162 133.456 106.048 133.483 105.928C133.511 105.808 133.514 105.683 133.493 105.562C133.473 105.44 133.428 105.324 133.362 105.219V105.269Z" fill="#F3C10E"/>
<path d="M146.061 95.6193C146.539 95.6193 147.007 95.4774 147.405 95.2115C147.803 94.9455 148.113 94.5676 148.296 94.1254C148.48 93.6832 148.528 93.1966 148.434 92.7272C148.341 92.2577 148.11 91.8265 147.772 91.4881C147.433 91.1497 147.002 90.9192 146.533 90.8258C146.063 90.7324 145.577 90.7803 145.135 90.9635C144.692 91.1467 144.314 91.4569 144.048 91.8548C143.783 92.2528 143.641 92.7207 143.641 93.1993C143.641 93.8411 143.896 94.4567 144.349 94.9105C144.803 95.3643 145.419 95.6193 146.061 95.6193Z" fill="#F3C10E"/>
<path d="M154.128 105.269L149.448 97.2694C149.358 97.0594 149.068 96.9295 148.718 96.7895L147.138 96.1895H144.918L143.368 96.7895C143.028 96.9195 142.748 97.0294 142.648 97.2394L137.948 105.239C137.882 105.345 137.838 105.461 137.818 105.584C137.797 105.706 137.801 105.831 137.829 105.952C137.857 106.072 137.908 106.186 137.98 106.287C138.052 106.388 138.143 106.474 138.248 106.539C138.353 106.605 138.47 106.649 138.592 106.67C138.714 106.69 138.839 106.687 138.96 106.659C139.081 106.631 139.195 106.579 139.296 106.508C139.397 106.436 139.482 106.345 139.548 106.239L142.888 100.549L143.178 106.269V117.909C143.178 118.206 143.296 118.491 143.506 118.701C143.716 118.911 144.001 119.029 144.298 119.029C144.595 119.029 144.88 118.911 145.09 118.701C145.3 118.491 145.418 118.206 145.418 117.909V107.909H146.588V117.909C146.588 118.206 146.706 118.491 146.916 118.701C147.126 118.911 147.411 119.029 147.708 119.029C148.005 119.029 148.29 118.911 148.5 118.701C148.71 118.491 148.828 118.206 148.828 117.909V106.669L149.138 100.439L152.538 106.219C152.671 106.43 152.882 106.58 153.124 106.635C153.367 106.69 153.622 106.647 153.833 106.514C154.044 106.382 154.193 106.171 154.249 105.928C154.304 105.685 154.261 105.43 154.128 105.219V105.269Z" fill="#F3C10E"/>
<path d="M166.826 95.6193C167.305 95.6193 167.773 95.4774 168.171 95.2115C168.569 94.9455 168.879 94.5676 169.062 94.1254C169.245 93.6832 169.293 93.1966 169.2 92.7272C169.106 92.2577 168.876 91.8265 168.537 91.4881C168.199 91.1497 167.768 90.9192 167.298 90.8258C166.829 90.7324 166.342 90.7803 165.9 90.9635C165.458 91.1467 165.08 91.4569 164.814 91.8548C164.548 92.2528 164.406 92.7207 164.406 93.1993C164.406 93.8411 164.661 94.4567 165.115 94.9105C165.569 95.3643 166.184 95.6193 166.826 95.6193Z" fill="#F3C10E"/>
<path d="M174.912 105.269L170.222 97.2694C170.132 97.0594 169.852 96.9295 169.502 96.7895L167.912 96.1895H165.692L164.142 96.7895C163.802 96.9195 163.522 97.0294 163.422 97.2394L158.722 105.239C158.656 105.345 158.612 105.461 158.591 105.584C158.571 105.706 158.574 105.831 158.602 105.952C158.63 106.072 158.682 106.186 158.753 106.287C158.825 106.388 158.916 106.474 159.022 106.539C159.127 106.605 159.244 106.649 159.366 106.67C159.488 106.69 159.613 106.687 159.734 106.659C159.854 106.631 159.968 106.579 160.069 106.508C160.17 106.436 160.256 106.345 160.322 106.239L163.662 100.549L163.952 106.269V117.909C163.952 118.206 164.07 118.491 164.28 118.701C164.49 118.911 164.774 119.029 165.072 119.029C165.369 119.029 165.653 118.911 165.863 118.701C166.074 118.491 166.192 118.206 166.192 117.909V107.909H167.362V117.909C167.362 118.206 167.48 118.491 167.69 118.701C167.9 118.911 168.184 119.029 168.482 119.029C168.779 119.029 169.063 118.911 169.273 118.701C169.484 118.491 169.602 118.206 169.602 117.909V106.669L169.912 100.439L173.312 106.219C173.437 106.431 173.64 106.585 173.878 106.647C174.116 106.708 174.369 106.674 174.582 106.549C174.794 106.422 174.948 106.217 175.01 105.977C175.071 105.738 175.036 105.483 174.912 105.269Z" fill="#F3C10E"/>
<path d="M187.6 95.6193C188.078 95.6193 188.546 95.4774 188.944 95.2115C189.342 94.9455 189.652 94.5676 189.835 94.1254C190.019 93.6832 190.067 93.1966 189.973 92.7272C189.88 92.2577 189.649 91.8265 189.311 91.4881C188.972 91.1497 188.541 90.9192 188.072 90.8258C187.602 90.7324 187.116 90.7803 186.674 90.9635C186.231 91.1467 185.853 91.4569 185.588 91.8548C185.322 92.2528 185.18 92.7207 185.18 93.1993C185.18 93.8411 185.435 94.4567 185.889 94.9105C186.342 95.3643 186.958 95.6193 187.6 95.6193Z" fill="#F3C10E"/>
<path d="M195.677 105.269L190.997 97.2694C190.897 97.0594 190.617 96.9295 190.267 96.7895L188.677 96.1895H186.457L184.907 96.7895C184.567 96.9195 184.287 97.0294 184.187 97.2394L179.487 105.239C179.363 105.453 179.327 105.708 179.389 105.947C179.451 106.187 179.605 106.392 179.817 106.519C180.029 106.644 180.282 106.678 180.52 106.617C180.758 106.555 180.962 106.401 181.087 106.189L184.427 100.499L184.717 106.219V117.859C184.717 118.156 184.835 118.441 185.045 118.651C185.255 118.861 185.54 118.979 185.837 118.979C186.134 118.979 186.419 118.861 186.629 118.651C186.839 118.441 186.957 118.156 186.957 117.859V107.859H188.127V117.859C188.127 118.156 188.245 118.441 188.455 118.651C188.665 118.861 188.95 118.979 189.247 118.979C189.544 118.979 189.829 118.861 190.039 118.651C190.249 118.441 190.367 118.156 190.367 117.859V106.669L190.677 100.439L194.077 106.219C194.202 106.431 194.406 106.585 194.644 106.647C194.882 106.708 195.135 106.674 195.347 106.549C195.56 106.422 195.713 106.217 195.775 105.977C195.837 105.738 195.802 105.483 195.677 105.269Z" fill="#F3C10E"/>
<path d="M208.37 95.6207C208.851 95.6307 209.323 95.4972 209.728 95.2374C210.132 94.9776 210.45 94.6032 210.641 94.162C210.832 93.7208 210.887 93.2327 210.799 92.76C210.712 92.2873 210.485 91.8515 210.149 91.508C209.813 91.1645 209.382 90.929 208.911 90.8315C208.44 90.734 207.951 90.779 207.506 90.9606C207.061 91.1422 206.68 91.4522 206.412 91.8512C206.143 92.2502 206 92.72 206 93.2007C206 93.834 206.248 94.4421 206.691 94.8945C207.134 95.3469 207.737 95.6077 208.37 95.6207Z" fill="#F3C10E"/>
<path d="M216.451 105.269L211.771 97.2694C211.671 97.0594 211.391 96.9295 211.041 96.7895L209.461 96.1895H207.231L205.681 96.7895C205.341 96.9195 205.061 97.0294 204.961 97.2394L200.261 105.239C200.136 105.453 200.101 105.708 200.163 105.947C200.224 106.187 200.378 106.392 200.591 106.519C200.803 106.644 201.056 106.678 201.294 106.617C201.532 106.555 201.736 106.401 201.861 106.189L205.201 100.499L205.491 106.219V117.859C205.491 118.156 205.609 118.441 205.819 118.651C206.029 118.861 206.314 118.979 206.611 118.979C206.908 118.979 207.192 118.861 207.403 118.651C207.613 118.441 207.731 118.156 207.731 117.859V107.859H208.901V117.859C208.901 118.156 209.019 118.441 209.229 118.651C209.439 118.861 209.724 118.979 210.021 118.979C210.318 118.979 210.602 118.861 210.813 118.651C211.023 118.441 211.141 118.156 211.141 117.859V106.669L211.451 100.439L214.851 106.219C214.976 106.431 215.179 106.585 215.417 106.647C215.655 106.708 215.908 106.674 216.121 106.549C216.333 106.422 216.487 106.217 216.549 105.977C216.61 105.738 216.575 105.483 216.451 105.269Z" fill="#F3C10E"/>
<path d="M125.287 130.119C125.766 130.119 126.234 129.977 126.632 129.711C127.03 129.446 127.34 129.068 127.523 128.625C127.706 128.183 127.754 127.697 127.661 127.227C127.567 126.758 127.337 126.327 126.998 125.988C126.66 125.65 126.229 125.419 125.759 125.326C125.29 125.232 124.803 125.28 124.361 125.464C123.919 125.647 123.541 125.957 123.275 126.355C123.009 126.753 122.867 127.221 122.867 127.699C122.867 128.341 123.122 128.957 123.576 129.41C124.03 129.864 124.645 130.119 125.287 130.119Z" fill="#F3C10E"/>
<path d="M133.357 139.769L128.677 131.769C128.587 131.569 128.297 131.429 127.947 131.289L126.367 130.689H124.147L122.597 131.289C122.257 131.419 121.977 131.539 121.877 131.739L117.177 139.739C117.115 139.845 117.074 139.961 117.056 140.082C117.039 140.203 117.046 140.326 117.076 140.444C117.106 140.563 117.159 140.674 117.232 140.772C117.305 140.87 117.397 140.952 117.502 141.014C117.607 141.077 117.724 141.118 117.845 141.135C117.966 141.153 118.089 141.146 118.207 141.116C118.325 141.086 118.437 141.033 118.535 140.959C118.632 140.886 118.715 140.795 118.777 140.689L122.117 134.999L122.407 140.729V152.359C122.407 152.656 122.525 152.941 122.735 153.151C122.945 153.361 123.23 153.479 123.527 153.479C123.824 153.479 124.109 153.361 124.319 153.151C124.529 152.941 124.647 152.656 124.647 152.359V142.359H125.817V152.359C125.817 152.656 125.935 152.941 126.145 153.151C126.355 153.361 126.64 153.479 126.937 153.479C127.234 153.479 127.519 153.361 127.729 153.151C127.939 152.941 128.057 152.656 128.057 152.359V141.169L128.367 134.939L131.767 140.719C131.823 140.836 131.903 140.94 132.001 141.024C132.099 141.108 132.214 141.171 132.338 141.208C132.461 141.245 132.592 141.256 132.72 141.241C132.848 141.225 132.972 141.182 133.083 141.116C133.194 141.05 133.29 140.961 133.365 140.855C133.439 140.75 133.491 140.63 133.517 140.503C133.543 140.376 133.542 140.246 133.515 140.119C133.487 139.993 133.433 139.874 133.357 139.769Z" fill="#F3C10E"/>
<path d="M146.061 130.119C146.539 130.119 147.007 129.977 147.405 129.711C147.803 129.446 148.113 129.068 148.296 128.625C148.48 128.183 148.528 127.697 148.434 127.227C148.341 126.758 148.11 126.327 147.772 125.988C147.433 125.65 147.002 125.419 146.533 125.326C146.063 125.232 145.577 125.28 145.135 125.464C144.692 125.647 144.314 125.957 144.048 126.355C143.783 126.753 143.641 127.221 143.641 127.699C143.641 128.341 143.896 128.957 144.349 129.41C144.803 129.864 145.419 130.119 146.061 130.119Z" fill="#F3C10E"/>
<path d="M154.131 139.769L149.451 131.769C149.361 131.569 149.071 131.429 148.721 131.289L147.141 130.689H144.921L143.371 131.289C143.031 131.419 142.751 131.539 142.651 131.739L137.951 139.739C137.888 139.845 137.847 139.961 137.83 140.082C137.812 140.203 137.819 140.326 137.849 140.444C137.879 140.563 137.933 140.674 138.006 140.772C138.079 140.87 138.171 140.952 138.276 141.014C138.381 141.077 138.497 141.118 138.618 141.135C138.739 141.153 138.862 141.146 138.981 141.116C139.099 141.086 139.21 141.033 139.308 140.959C139.406 140.886 139.488 140.795 139.551 140.689L142.891 134.999L143.181 140.729V152.359C143.181 152.656 143.299 152.941 143.509 153.151C143.719 153.361 144.004 153.479 144.301 153.479C144.598 153.479 144.883 153.361 145.093 153.151C145.303 152.941 145.421 152.656 145.421 152.359V142.359H146.591V152.359C146.591 152.656 146.709 152.941 146.919 153.151C147.129 153.361 147.414 153.479 147.711 153.479C148.008 153.479 148.293 153.361 148.503 153.151C148.713 152.941 148.831 152.656 148.831 152.359V141.169L149.141 134.939L152.541 140.719C152.597 140.836 152.676 140.94 152.774 141.024C152.873 141.108 152.987 141.171 153.111 141.208C153.235 141.245 153.365 141.256 153.493 141.241C153.622 141.225 153.745 141.182 153.856 141.116C153.967 141.05 154.063 140.961 154.138 140.855C154.213 140.75 154.265 140.63 154.291 140.503C154.316 140.376 154.316 140.246 154.288 140.119C154.261 139.993 154.207 139.874 154.131 139.769Z" fill="#F3C10E"/>
<path d="M166.826 130.119C167.305 130.119 167.773 129.977 168.171 129.711C168.569 129.446 168.879 129.068 169.062 128.625C169.245 128.183 169.293 127.697 169.2 127.227C169.106 126.758 168.876 126.327 168.537 125.988C168.199 125.65 167.768 125.419 167.298 125.326C166.829 125.232 166.342 125.28 165.9 125.464C165.458 125.647 165.08 125.957 164.814 126.355C164.548 126.753 164.406 127.221 164.406 127.699C164.406 128.341 164.661 128.957 165.115 129.41C165.569 129.864 166.184 130.119 166.826 130.119Z" fill="#F3C10E"/>
<path d="M174.906 139.769L170.216 131.769C170.126 131.569 169.846 131.429 169.496 131.289L167.906 130.689H165.686L164.136 131.289C163.796 131.419 163.516 131.539 163.416 131.739L158.716 139.739C158.654 139.845 158.613 139.961 158.595 140.082C158.578 140.203 158.585 140.326 158.615 140.444C158.645 140.563 158.698 140.674 158.771 140.772C158.845 140.87 158.936 140.952 159.041 141.014C159.146 141.077 159.263 141.118 159.384 141.135C159.505 141.153 159.628 141.146 159.746 141.116C159.865 141.086 159.976 141.033 160.074 140.959C160.171 140.886 160.254 140.795 160.316 140.689L163.656 134.999L163.946 140.729V152.359C163.946 152.656 164.064 152.941 164.274 153.151C164.484 153.361 164.769 153.479 165.066 153.479C165.363 153.479 165.648 153.361 165.858 153.151C166.068 152.941 166.186 152.656 166.186 152.359V142.359H167.356V152.359C167.356 152.656 167.474 152.941 167.684 153.151C167.894 153.361 168.179 153.479 168.476 153.479C168.773 153.479 169.058 153.361 169.268 153.151C169.478 152.941 169.596 152.656 169.596 152.359V141.169L169.906 134.939L173.306 140.719C173.431 140.931 173.635 141.085 173.873 141.147C174.111 141.208 174.364 141.174 174.576 141.049C174.789 140.922 174.943 140.717 175.004 140.477C175.066 140.238 175.031 139.983 174.906 139.769Z" fill="#F3C10E"/>
<path d="M187.6 130.119C188.078 130.119 188.546 129.977 188.944 129.711C189.342 129.446 189.652 129.068 189.835 128.625C190.019 128.183 190.067 127.697 189.973 127.227C189.88 126.758 189.649 126.327 189.311 125.988C188.972 125.65 188.541 125.419 188.072 125.326C187.602 125.232 187.116 125.28 186.674 125.464C186.231 125.647 185.853 125.957 185.588 126.355C185.322 126.753 185.18 127.221 185.18 127.699C185.18 128.341 185.435 128.957 185.889 129.41C186.342 129.864 186.958 130.119 187.6 130.119Z" fill="#F3C10E"/>
<path d="M195.677 139.769L190.997 131.769C190.813 131.534 190.557 131.365 190.267 131.289L188.677 130.689H186.457L184.907 131.289C184.567 131.419 184.287 131.539 184.187 131.739L179.487 139.739C179.363 139.953 179.327 140.208 179.389 140.447C179.451 140.687 179.605 140.892 179.817 141.019C180.029 141.144 180.282 141.178 180.52 141.117C180.758 141.055 180.962 140.901 181.087 140.689L184.427 134.999L184.717 140.729V152.359C184.717 152.656 184.835 152.941 185.045 153.151C185.255 153.361 185.54 153.479 185.837 153.479C186.134 153.479 186.419 153.361 186.629 153.151C186.839 152.941 186.957 152.656 186.957 152.359V142.359H188.127V152.359C188.127 152.656 188.245 152.941 188.455 153.151C188.665 153.361 188.95 153.479 189.247 153.479C189.544 153.479 189.829 153.361 190.039 153.151C190.249 152.941 190.367 152.656 190.367 152.359V141.169L190.677 134.939L194.077 140.719C194.202 140.931 194.406 141.085 194.644 141.147C194.882 141.208 195.135 141.174 195.347 141.049C195.56 140.922 195.713 140.717 195.775 140.477C195.837 140.238 195.802 139.983 195.677 139.769Z" fill="#F3C10E"/>
<path d="M208.37 130.121C208.851 130.131 209.323 129.997 209.728 129.737C210.132 129.478 210.45 129.103 210.641 128.662C210.832 128.221 210.887 127.733 210.799 127.26C210.712 126.787 210.485 126.351 210.149 126.008C209.813 125.665 209.382 125.429 208.911 125.332C208.44 125.234 207.951 125.279 207.506 125.461C207.061 125.642 206.68 125.952 206.412 126.351C206.143 126.75 206 127.22 206 127.701C206 128.334 206.248 128.942 206.691 129.394C207.134 129.847 207.737 130.108 208.37 130.121Z" fill="#F3C10E"/>
<path d="M216.451 139.769L211.771 131.769C211.587 131.534 211.33 131.365 211.041 131.289L209.461 130.689H207.231L205.681 131.289C205.341 131.419 205.061 131.539 204.961 131.739L200.261 139.739C200.136 139.953 200.101 140.208 200.163 140.447C200.224 140.687 200.378 140.892 200.591 141.019C200.803 141.144 201.056 141.178 201.294 141.117C201.532 141.055 201.736 140.901 201.861 140.689L205.201 134.999L205.491 140.729V152.359C205.491 152.656 205.609 152.941 205.819 153.151C206.029 153.361 206.314 153.479 206.611 153.479C206.908 153.479 207.192 153.361 207.403 153.151C207.613 152.941 207.731 152.656 207.731 152.359V142.359H208.901V152.359C208.901 152.656 209.019 152.941 209.229 153.151C209.439 153.361 209.724 153.479 210.021 153.479C210.318 153.479 210.602 153.361 210.813 153.151C211.023 152.941 211.141 152.656 211.141 152.359V141.169L211.451 134.939L214.851 140.719C214.976 140.931 215.179 141.085 215.417 141.147C215.655 141.208 215.908 141.174 216.121 141.049C216.333 140.922 216.487 140.717 216.549 140.477C216.61 140.238 216.575 139.983 216.451 139.769Z" fill="#F3C10E"/>
<path d="M125.287 170.779C125.766 170.779 126.234 170.638 126.632 170.372C127.03 170.106 127.34 169.728 127.523 169.286C127.706 168.843 127.754 168.357 127.661 167.887C127.567 167.418 127.337 166.987 126.998 166.648C126.66 166.31 126.229 166.079 125.759 165.986C125.29 165.893 124.803 165.941 124.361 166.124C123.919 166.307 123.541 166.617 123.275 167.015C123.009 167.413 122.867 167.881 122.867 168.359C122.867 169.001 123.122 169.617 123.576 170.071C124.03 170.524 124.645 170.779 125.287 170.779Z" fill="#F3C10E"/>
<path d="M133.357 180.43L128.677 172.43C128.587 172.22 128.297 172.08 127.947 171.95L126.367 171.34H124.147L122.597 171.94C122.257 172.07 121.977 172.18 121.877 172.39L117.177 180.39C117.051 180.602 117.015 180.856 117.076 181.095C117.137 181.334 117.29 181.539 117.502 181.665C117.714 181.791 117.968 181.827 118.207 181.766C118.446 181.705 118.651 181.552 118.777 181.34L122.117 175.65L122.407 181.37V193C122.407 193.297 122.525 193.582 122.735 193.792C122.945 194.002 123.23 194.12 123.527 194.12C123.824 194.12 124.109 194.002 124.319 193.792C124.529 193.582 124.647 193.297 124.647 193V183H125.817V193C125.817 193.297 125.935 193.582 126.145 193.792C126.355 194.002 126.64 194.12 126.937 194.12C127.234 194.12 127.519 194.002 127.729 193.792C127.939 193.582 128.057 193.297 128.057 193V181.83L128.367 175.6L131.767 181.38C131.823 181.496 131.903 181.6 132.001 181.684C132.099 181.768 132.214 181.831 132.338 181.868C132.461 181.906 132.592 181.917 132.72 181.901C132.848 181.885 132.972 181.843 133.083 181.776C133.194 181.71 133.29 181.621 133.365 181.516C133.439 181.41 133.491 181.29 133.517 181.164C133.543 181.037 133.542 180.906 133.515 180.78C133.487 180.654 133.433 180.534 133.357 180.43Z" fill="#F3C10E"/>
<path d="M146.061 170.779C146.539 170.779 147.007 170.638 147.405 170.372C147.803 170.106 148.113 169.728 148.296 169.286C148.48 168.843 148.528 168.357 148.434 167.887C148.341 167.418 148.11 166.987 147.772 166.648C147.433 166.31 147.002 166.079 146.533 165.986C146.063 165.893 145.577 165.941 145.135 166.124C144.692 166.307 144.314 166.617 144.048 167.015C143.783 167.413 143.641 167.881 143.641 168.359C143.641 169.001 143.896 169.617 144.349 170.071C144.803 170.524 145.419 170.779 146.061 170.779Z" fill="#F3C10E"/>
<path d="M154.131 180.43L149.451 172.43C149.361 172.22 149.071 172.08 148.721 171.95L147.141 171.34H144.921L143.371 171.94C143.031 172.07 142.751 172.18 142.651 172.39L137.951 180.39C137.825 180.602 137.788 180.856 137.849 181.095C137.91 181.334 138.064 181.539 138.276 181.665C138.488 181.791 138.741 181.827 138.981 181.766C139.22 181.705 139.425 181.552 139.551 181.34L142.891 175.65L143.181 181.37V193C143.181 193.297 143.299 193.582 143.509 193.792C143.719 194.002 144.004 194.12 144.301 194.12C144.598 194.12 144.883 194.002 145.093 193.792C145.303 193.582 145.421 193.297 145.421 193V183H146.591V193C146.591 193.297 146.709 193.582 146.919 193.792C147.129 194.002 147.414 194.12 147.711 194.12C148.008 194.12 148.293 194.002 148.503 193.792C148.713 193.582 148.831 193.297 148.831 193V181.83L149.141 175.6L152.541 181.38C152.597 181.496 152.676 181.6 152.774 181.684C152.873 181.768 152.987 181.831 153.111 181.868C153.235 181.906 153.365 181.917 153.493 181.901C153.622 181.885 153.745 181.843 153.856 181.776C153.967 181.71 154.063 181.621 154.138 181.516C154.213 181.41 154.265 181.29 154.291 181.164C154.316 181.037 154.316 180.906 154.288 180.78C154.261 180.654 154.207 180.534 154.131 180.43Z" fill="#F3C10E"/>
<path d="M166.826 170.779C167.305 170.779 167.773 170.638 168.171 170.372C168.569 170.106 168.879 169.728 169.062 169.286C169.245 168.843 169.293 168.357 169.2 167.887C169.106 167.418 168.876 166.987 168.537 166.648C168.199 166.31 167.768 166.079 167.298 165.986C166.829 165.893 166.342 165.941 165.9 166.124C165.458 166.307 165.08 166.617 164.814 167.015C164.548 167.413 164.406 167.881 164.406 168.359C164.406 169.001 164.661 169.617 165.115 170.071C165.569 170.524 166.184 170.779 166.826 170.779Z" fill="#F3C10E"/>
<path d="M174.906 180.43L170.216 172.43C170.126 172.22 169.846 172.08 169.496 171.95L167.906 171.34H165.686L164.136 171.94C163.796 172.07 163.516 172.18 163.416 172.39L158.716 180.39C158.654 180.495 158.613 180.611 158.595 180.732C158.578 180.853 158.585 180.976 158.615 181.095C158.645 181.213 158.698 181.324 158.771 181.422C158.845 181.52 158.936 181.602 159.041 181.665C159.146 181.727 159.263 181.768 159.384 181.786C159.505 181.803 159.628 181.797 159.746 181.766C159.865 181.736 159.976 181.683 160.074 181.61C160.171 181.537 160.254 181.445 160.316 181.34L163.656 175.65L163.946 181.37V193C163.946 193.297 164.064 193.582 164.274 193.792C164.484 194.002 164.769 194.12 165.066 194.12C165.363 194.12 165.648 194.002 165.858 193.792C166.068 193.582 166.186 193.297 166.186 193V183H167.356V193C167.356 193.297 167.474 193.582 167.684 193.792C167.894 194.002 168.179 194.12 168.476 194.12C168.773 194.12 169.058 194.002 169.268 193.792C169.478 193.582 169.596 193.297 169.596 193V181.83L169.906 175.6L173.306 181.38C173.368 181.485 173.45 181.577 173.548 181.65C173.645 181.723 173.756 181.776 173.874 181.805C173.993 181.835 174.115 181.841 174.236 181.823C174.356 181.805 174.472 181.763 174.576 181.7C174.788 181.575 174.942 181.371 175.003 181.133C175.065 180.895 175.03 180.642 174.906 180.43Z" fill="#F3C10E"/>
<path d="M187.6 170.779C188.078 170.779 188.546 170.638 188.944 170.372C189.342 170.106 189.652 169.728 189.835 169.286C190.019 168.843 190.067 168.357 189.973 167.887C189.88 167.418 189.649 166.987 189.311 166.648C188.972 166.31 188.541 166.079 188.072 165.986C187.602 165.893 187.116 165.941 186.674 166.124C186.231 166.307 185.853 166.617 185.588 167.015C185.322 167.413 185.18 167.881 185.18 168.359C185.18 169.001 185.435 169.617 185.889 170.071C186.342 170.524 186.958 170.779 187.6 170.779Z" fill="#F3C10E"/>
<path d="M195.676 180.43L190.996 172.43C190.818 172.188 190.559 172.018 190.266 171.95L188.676 171.34H186.456L184.906 171.94C184.566 172.07 184.286 172.18 184.186 172.39L179.486 180.39C179.362 180.602 179.327 180.855 179.389 181.093C179.451 181.331 179.605 181.535 179.816 181.66C179.921 181.723 180.036 181.765 180.157 181.783C180.277 181.801 180.4 181.795 180.518 181.765C180.636 181.736 180.748 181.683 180.845 181.61C180.943 181.537 181.025 181.445 181.086 181.34L184.426 175.65L184.716 181.37V193C184.716 193.297 184.834 193.582 185.044 193.792C185.255 194.002 185.539 194.12 185.836 194.12C186.133 194.12 186.418 194.002 186.628 193.792C186.838 193.582 186.956 193.297 186.956 193V183H188.126V193C188.126 193.297 188.244 193.582 188.454 193.792C188.665 194.002 188.949 194.12 189.246 194.12C189.543 194.12 189.828 194.002 190.038 193.792C190.248 193.582 190.366 193.297 190.366 193V181.83L190.676 175.6L194.076 181.38C194.138 181.485 194.22 181.577 194.318 181.65C194.415 181.723 194.526 181.776 194.645 181.805C194.763 181.835 194.886 181.841 195.006 181.823C195.127 181.805 195.242 181.763 195.346 181.7C195.558 181.575 195.712 181.371 195.774 181.133C195.835 180.895 195.8 180.642 195.676 180.43Z" fill="#F3C10E"/>
<path d="M208.373 170.779C208.852 170.779 209.32 170.638 209.718 170.372C210.116 170.106 210.426 169.728 210.609 169.286C210.792 168.843 210.84 168.357 210.747 167.887C210.653 167.418 210.423 166.987 210.084 166.648C209.746 166.31 209.315 166.079 208.845 165.986C208.376 165.893 207.889 165.941 207.447 166.124C207.005 166.307 206.627 166.617 206.361 167.015C206.095 167.413 205.953 167.881 205.953 168.359C205.953 169.001 206.208 169.617 206.662 170.071C207.116 170.524 207.731 170.779 208.373 170.779Z" fill="#F3C10E"/>
<path d="M216.451 180.431L211.771 172.431C211.574 172.199 211.301 172.047 211.001 172.001L209.421 171.391H207.191L205.641 171.991C205.301 172.121 205.021 172.231 204.921 172.441L200.221 180.441C200.097 180.653 200.062 180.906 200.124 181.144C200.185 181.382 200.339 181.586 200.551 181.711C200.655 181.774 200.771 181.816 200.891 181.834C201.012 181.852 201.135 181.846 201.253 181.816C201.371 181.786 201.482 181.733 201.579 181.66C201.677 181.587 201.759 181.496 201.821 181.391L205.161 175.701L205.451 181.421V193.001C205.451 193.298 205.569 193.583 205.779 193.793C205.989 194.003 206.274 194.121 206.571 194.121C206.868 194.121 207.153 194.003 207.363 193.793C207.573 193.583 207.691 193.298 207.691 193.001V183.001H208.861V193.001C208.861 193.298 208.979 193.583 209.189 193.793C209.399 194.003 209.684 194.121 209.981 194.121C210.278 194.121 210.563 194.003 210.773 193.793C210.983 193.583 211.101 193.298 211.101 193.001V181.831L211.411 175.601L214.811 181.381C214.873 181.486 214.955 181.577 215.052 181.65C215.15 181.723 215.261 181.776 215.379 181.806C215.497 181.836 215.62 181.842 215.74 181.824C215.861 181.806 215.977 181.764 216.081 181.701C216.189 181.642 216.285 181.563 216.362 181.467C216.439 181.371 216.497 181.261 216.531 181.143C216.565 181.025 216.576 180.901 216.562 180.779C216.549 180.656 216.511 180.538 216.451 180.431Z" fill="#F3C10E"/>
<path d="M125.287 205.279C125.766 205.279 126.234 205.138 126.632 204.872C127.03 204.606 127.34 204.228 127.523 203.786C127.706 203.343 127.754 202.857 127.661 202.387C127.567 201.918 127.337 201.487 126.998 201.148C126.66 200.81 126.229 200.579 125.759 200.486C125.29 200.393 124.803 200.441 124.361 200.624C123.919 200.807 123.541 201.117 123.275 201.515C123.009 201.913 122.867 202.381 122.867 202.859C122.867 203.501 123.122 204.117 123.576 204.571C124.03 205.024 124.645 205.279 125.287 205.279Z" fill="#F3C10E"/>
<path d="M133.357 214.93L128.677 206.93C128.587 206.72 128.297 206.59 127.947 206.45L126.367 205.85H124.147L122.597 206.45C122.257 206.58 121.977 206.69 121.877 206.9L117.177 214.9C117.115 215.005 117.074 215.121 117.056 215.242C117.039 215.363 117.046 215.486 117.076 215.604C117.106 215.723 117.159 215.834 117.232 215.932C117.305 216.03 117.397 216.112 117.502 216.175C117.607 216.237 117.724 216.278 117.845 216.295C117.966 216.313 118.089 216.306 118.207 216.276C118.325 216.246 118.437 216.193 118.535 216.12C118.632 216.046 118.715 215.955 118.777 215.85L122.117 210.16L122.407 215.88V227.52C122.407 227.817 122.525 228.102 122.735 228.312C122.945 228.522 123.23 228.64 123.527 228.64C123.824 228.64 124.109 228.522 124.319 228.312C124.529 228.102 124.647 227.817 124.647 227.52V217.52H125.817V227.52C125.817 227.817 125.935 228.102 126.145 228.312C126.355 228.522 126.64 228.64 126.937 228.64C127.234 228.64 127.519 228.522 127.729 228.312C127.939 228.102 128.057 227.817 128.057 227.52V216.33L128.367 210.1L131.767 215.88C131.823 215.996 131.903 216.1 132.001 216.184C132.099 216.268 132.214 216.331 132.338 216.368C132.461 216.405 132.592 216.417 132.72 216.401C132.848 216.385 132.972 216.342 133.083 216.276C133.194 216.21 133.29 216.121 133.365 216.015C133.439 215.91 133.491 215.79 133.517 215.663C133.543 215.537 133.542 215.406 133.515 215.28C133.487 215.153 133.433 215.034 133.357 214.93Z" fill="#F3C10E"/>
<path d="M146.061 205.279C146.539 205.279 147.007 205.138 147.405 204.872C147.803 204.606 148.113 204.228 148.296 203.786C148.48 203.343 148.528 202.857 148.434 202.387C148.341 201.918 148.11 201.487 147.772 201.148C147.433 200.81 147.002 200.579 146.533 200.486C146.063 200.393 145.577 200.441 145.135 200.624C144.692 200.807 144.314 201.117 144.048 201.515C143.783 201.913 143.641 202.381 143.641 202.859C143.641 203.501 143.896 204.117 144.349 204.571C144.803 205.024 145.419 205.279 146.061 205.279Z" fill="#F3C10E"/>
<path d="M154.131 214.93L149.451 206.93C149.361 206.72 149.071 206.59 148.721 206.45L147.141 205.85H144.921L143.371 206.45C143.031 206.58 142.751 206.69 142.651 206.9L137.951 214.9C137.888 215.005 137.847 215.121 137.83 215.242C137.812 215.363 137.819 215.486 137.849 215.604C137.879 215.723 137.933 215.834 138.006 215.932C138.079 216.03 138.171 216.112 138.276 216.175C138.381 216.237 138.497 216.278 138.618 216.295C138.739 216.313 138.862 216.306 138.981 216.276C139.099 216.246 139.21 216.193 139.308 216.12C139.406 216.046 139.488 215.955 139.551 215.85L142.891 210.16L143.181 215.88V227.52C143.181 227.817 143.299 228.102 143.509 228.312C143.719 228.522 144.004 228.64 144.301 228.64C144.598 228.64 144.883 228.522 145.093 228.312C145.303 228.102 145.421 227.817 145.421 227.52V217.52H146.591V227.52C146.591 227.817 146.709 228.102 146.919 228.312C147.129 228.522 147.414 228.64 147.711 228.64C148.008 228.64 148.293 228.522 148.503 228.312C148.713 228.102 148.831 227.817 148.831 227.52V216.33L149.141 210.1L152.541 215.88C152.597 215.996 152.676 216.1 152.774 216.184C152.873 216.268 152.987 216.331 153.111 216.368C153.235 216.405 153.365 216.417 153.493 216.401C153.622 216.385 153.745 216.342 153.856 216.276C153.967 216.21 154.063 216.121 154.138 216.015C154.213 215.91 154.265 215.79 154.291 215.663C154.316 215.537 154.316 215.406 154.288 215.28C154.261 215.153 154.207 215.034 154.131 214.93Z" fill="#F3C10E"/>
<path d="M166.826 205.279C167.305 205.279 167.773 205.138 168.171 204.872C168.569 204.606 168.879 204.228 169.062 203.786C169.245 203.343 169.293 202.857 169.2 202.387C169.106 201.918 168.876 201.487 168.537 201.148C168.199 200.81 167.768 200.579 167.298 200.486C166.829 200.393 166.342 200.441 165.9 200.624C165.458 200.807 165.08 201.117 164.814 201.515C164.548 201.913 164.406 202.381 164.406 202.859C164.406 203.501 164.661 204.117 165.115 204.571C165.569 205.024 166.184 205.279 166.826 205.279Z" fill="#F3C10E"/>
<path d="M174.906 214.93L170.216 206.93C170.126 206.72 169.846 206.59 169.496 206.45L167.906 205.85H165.686L164.136 206.45C163.796 206.58 163.516 206.69 163.416 206.9L158.716 214.9C158.654 215.005 158.613 215.121 158.595 215.242C158.578 215.363 158.585 215.486 158.615 215.604C158.645 215.723 158.698 215.834 158.771 215.932C158.845 216.03 158.936 216.112 159.041 216.175C159.146 216.237 159.263 216.278 159.384 216.295C159.505 216.313 159.628 216.306 159.746 216.276C159.865 216.246 159.976 216.193 160.074 216.12C160.171 216.046 160.254 215.955 160.316 215.85L163.656 210.16L163.946 215.88V227.52C163.946 227.817 164.064 228.102 164.274 228.312C164.484 228.522 164.769 228.64 165.066 228.64C165.363 228.64 165.648 228.522 165.858 228.312C166.068 228.102 166.186 227.817 166.186 227.52V217.52H167.356V227.52C167.356 227.817 167.474 228.102 167.684 228.312C167.894 228.522 168.179 228.64 168.476 228.64C168.773 228.64 169.058 228.522 169.268 228.312C169.478 228.102 169.596 227.817 169.596 227.52V216.33L169.906 210.1L173.306 215.88C173.431 216.091 173.635 216.245 173.873 216.307C174.111 216.369 174.364 216.334 174.576 216.21C174.789 216.083 174.943 215.877 175.004 215.637C175.066 215.398 175.031 215.143 174.906 214.93Z" fill="#F3C10E"/>
<path d="M187.6 205.279C188.078 205.279 188.546 205.138 188.944 204.872C189.342 204.606 189.652 204.228 189.835 203.786C190.019 203.343 190.067 202.857 189.973 202.387C189.88 201.918 189.649 201.487 189.311 201.148C188.972 200.81 188.541 200.579 188.072 200.486C187.602 200.393 187.116 200.441 186.674 200.624C186.231 200.807 185.853 201.117 185.588 201.515C185.322 201.913 185.18 202.381 185.18 202.859C185.18 203.501 185.435 204.117 185.889 204.571C186.342 205.024 186.958 205.279 187.6 205.279Z" fill="#F3C10E"/>
<path d="M195.677 214.93L190.997 207C190.897 206.79 190.617 206.66 190.267 206.52L188.677 205.92H186.457L184.907 206.52C184.567 206.65 184.287 206.76 184.187 206.97L179.487 214.97C179.363 215.184 179.327 215.438 179.389 215.678C179.451 215.917 179.605 216.123 179.817 216.25C180.029 216.374 180.282 216.409 180.52 216.347C180.758 216.285 180.962 216.132 181.087 215.92L184.427 210.23L184.717 215.95V227.59C184.717 227.887 184.835 228.172 185.045 228.382C185.255 228.592 185.54 228.71 185.837 228.71C186.134 228.71 186.419 228.592 186.629 228.382C186.839 228.172 186.957 227.887 186.957 227.59V217.59H188.127V227.59C188.127 227.887 188.245 228.172 188.455 228.382C188.665 228.592 188.95 228.71 189.247 228.71C189.544 228.71 189.829 228.592 190.039 228.382C190.249 228.172 190.367 227.887 190.367 227.59V216.33L190.677 210.1L194.077 215.88C194.202 216.092 194.406 216.245 194.644 216.307C194.882 216.369 195.135 216.334 195.347 216.21C195.56 216.083 195.713 215.877 195.775 215.638C195.837 215.398 195.802 215.144 195.677 214.93Z" fill="#F3C10E"/>
<path d="M208.373 205.279C208.852 205.279 209.32 205.138 209.718 204.872C210.116 204.606 210.426 204.228 210.609 203.786C210.792 203.343 210.84 202.857 210.747 202.387C210.653 201.918 210.423 201.487 210.084 201.148C209.746 200.81 209.315 200.579 208.845 200.486C208.376 200.393 207.889 200.441 207.447 200.624C207.005 200.807 206.627 201.117 206.361 201.515C206.095 201.913 205.953 202.381 205.953 202.859C205.953 203.501 206.208 204.117 206.662 204.571C207.116 205.024 207.731 205.279 208.373 205.279Z" fill="#F3C10E"/>
<path d="M216.451 214.93L211.771 206.93C211.671 206.72 211.391 206.59 211.041 206.45L209.461 205.85H207.231L205.681 206.45C205.341 206.58 205.061 206.69 204.961 206.9L200.261 214.9C200.136 215.113 200.101 215.368 200.163 215.607C200.224 215.847 200.378 216.053 200.591 216.18C200.803 216.304 201.056 216.339 201.294 216.277C201.532 216.215 201.736 216.061 201.861 215.85L205.201 210.16L205.491 215.88V227.52C205.491 227.817 205.609 228.102 205.819 228.312C206.029 228.522 206.314 228.64 206.611 228.64C206.908 228.64 207.192 228.522 207.403 228.312C207.613 228.102 207.731 227.817 207.731 227.52V217.52H208.901V227.52C208.901 227.817 209.019 228.102 209.229 228.312C209.439 228.522 209.724 228.64 210.021 228.64C210.318 228.64 210.602 228.522 210.813 228.312C211.023 228.102 211.141 227.817 211.141 227.52V216.33L211.451 210.1L214.851 215.88C214.976 216.091 215.179 216.245 215.417 216.307C215.655 216.369 215.908 216.334 216.121 216.21C216.333 216.083 216.487 215.877 216.549 215.637C216.61 215.398 216.575 215.143 216.451 214.93Z" fill="#F3C10E"/>
<path d="M103.861 111.67H89.5706V121.11H87.2306V111.67H73.1406V109.91H87.2306V100.42H74.9406V98.6602H101.941V100.42H89.5706V109.91H103.861V111.67ZM79.4606 101.78C80.8581 103.655 81.9951 105.71 82.8406 107.89L80.6706 108.45C79.8321 106.261 78.7414 104.177 77.4206 102.24L79.4606 101.78ZM93.5406 108.07C95.0351 106.057 96.3186 103.896 97.3706 101.62L99.7906 102.18C98.5347 104.42 97.093 106.551 95.4806 108.55L93.5406 108.07Z" fill="#381805"/>
<path d="M99.6206 123.5V145.5H97.2406V143.9H79.7406V145.63H77.3906V123.5H99.6206ZM79.7406 125.28V132.72H97.2406V125.28H79.7406ZM97.2406 142.13V134.48H79.7406V142.13H97.2406Z" fill="#381805"/>
<path d="M80.7509 171.779C80.0898 173.746 79.298 175.667 78.3809 177.529V196.149H76.1809V181.309C75.4464 182.41 74.6201 183.447 73.7109 184.409C73.3776 183.752 72.9571 183.144 72.4609 182.599C75.3108 179.362 77.3927 175.523 78.5509 171.369L80.7509 171.779ZM84.2009 190.619V196.099H82.0009V172.469H91.4409V180.789H84.2009V183.889H90.6809V185.449H84.2009V189.059H91.0609V190.619H84.2009ZM84.2009 174.029V179.229H89.4309V173.999L84.2009 174.029ZM103.121 183.309C102.395 186.301 100.879 189.043 98.7309 191.249C100.377 192.835 102.369 194.017 104.551 194.699C104.024 195.111 103.544 195.581 103.121 196.099C100.982 195.327 99.0341 194.102 97.4109 192.509C95.2709 194.182 92.8352 195.437 90.2309 196.209C89.8945 195.7 89.4793 195.248 89.0009 194.869C91.6264 194.174 94.0672 192.911 96.1509 191.169C94.6085 189.303 93.4251 187.167 92.6609 184.869L94.2009 184.569H91.9009V182.999H101.341H101.721L103.121 183.309ZM102.631 180.769H92.9109V179.179H100.511V174.059H92.9109V172.469H102.631V180.769ZM94.5509 184.569C95.2005 186.525 96.2189 188.337 97.5509 189.909C98.9534 188.371 100.01 186.55 100.651 184.569H94.5509Z" fill="#381805"/>
<path d="M100.27 199.779V222.369H97.8603V220.729H80.1903V222.509H77.8203V199.779H100.27ZM80.1903 201.609V209.249H97.8603V201.609H80.1903ZM97.8603 218.919V211.059H80.1903V218.919H97.8603Z" fill="#381805"/>
<path d="M73.7969 160.039H241.267" stroke="#FFDA7C" stroke-width="0.5" stroke-miterlimit="10"/>
<path d="M229.522 95.5509C230 95.5509 230.468 95.409 230.866 95.1431C231.264 94.8772 231.574 94.4992 231.757 94.057C231.941 93.6148 231.988 93.1283 231.895 92.6588C231.802 92.1894 231.571 91.7582 231.233 91.4197C230.894 91.0813 230.463 90.8508 229.994 90.7574C229.524 90.6641 229.038 90.712 228.595 90.8951C228.153 91.0783 227.775 91.3885 227.509 91.7865C227.243 92.1844 227.102 92.6523 227.102 93.1309C227.102 93.7728 227.357 94.3883 227.81 94.8421C228.264 95.296 228.88 95.5509 229.522 95.5509Z" fill="#F3C10E"/>
<path d="M237.591 105.199L232.911 97.1994C232.821 96.9894 232.531 96.8494 232.181 96.7194L230.601 96.1094H228.371L226.831 96.7094C226.491 96.8394 226.211 96.9494 226.111 97.1594L221.411 105.159C221.286 105.37 221.25 105.622 221.309 105.86C221.369 106.098 221.521 106.303 221.731 106.429C221.944 106.555 222.197 106.592 222.436 106.532C222.676 106.472 222.882 106.32 223.011 106.109L226.351 100.419L226.631 106.139V117.769C226.631 118.066 226.749 118.351 226.959 118.561C227.169 118.771 227.454 118.889 227.751 118.889C228.048 118.889 228.333 118.771 228.543 118.561C228.753 118.351 228.871 118.066 228.871 117.769V107.769H230.001V117.769C230.001 118.066 230.119 118.351 230.329 118.561C230.539 118.771 230.824 118.889 231.121 118.889C231.418 118.889 231.703 118.771 231.913 118.561C232.123 118.351 232.241 118.066 232.241 117.769V106.589L232.561 100.369L235.951 106.149C236.079 106.36 236.286 106.512 236.525 106.572C236.765 106.632 237.018 106.595 237.231 106.469C237.338 106.41 237.433 106.33 237.509 106.234C237.585 106.138 237.642 106.027 237.675 105.909C237.709 105.791 237.719 105.668 237.704 105.546C237.69 105.424 237.651 105.306 237.591 105.199Z" fill="#F3C10E"/>
<path d="M229.522 130.051C230 130.051 230.468 129.909 230.866 129.643C231.264 129.377 231.574 128.999 231.757 128.557C231.941 128.115 231.988 127.628 231.895 127.159C231.802 126.689 231.571 126.258 231.233 125.92C230.894 125.581 230.463 125.351 229.994 125.257C229.524 125.164 229.038 125.212 228.595 125.395C228.153 125.578 227.775 125.888 227.509 126.286C227.243 126.684 227.102 127.152 227.102 127.631C227.102 128.273 227.357 128.888 227.81 129.342C228.264 129.796 228.88 130.051 229.522 130.051Z" fill="#ECECE7"/>
<path d="M237.589 139.699L232.909 131.699C232.819 131.489 232.529 131.349 232.179 131.219L230.599 130.609H228.369L226.829 131.209C226.489 131.339 226.209 131.449 226.109 131.659L221.409 139.659C221.276 139.872 221.234 140.128 221.29 140.372C221.346 140.615 221.497 140.827 221.709 140.959C221.921 141.092 222.177 141.135 222.421 141.079C222.665 141.022 222.876 140.872 223.009 140.659L226.349 134.969L226.629 140.689V152.319C226.629 152.616 226.747 152.901 226.957 153.111C227.167 153.321 227.452 153.439 227.749 153.439C228.046 153.439 228.331 153.321 228.541 153.111C228.751 152.901 228.869 152.616 228.869 152.319V142.319H229.999V152.319C229.999 152.616 230.117 152.901 230.327 153.111C230.537 153.321 230.822 153.439 231.119 153.439C231.416 153.439 231.701 153.321 231.911 153.111C232.121 152.901 232.239 152.616 232.239 152.319V141.099L232.559 134.869L235.949 140.649C236.015 140.754 236.1 140.846 236.201 140.917C236.302 140.989 236.416 141.041 236.537 141.069C236.658 141.096 236.783 141.1 236.905 141.08C237.027 141.059 237.144 141.015 237.249 140.949C237.354 140.884 237.445 140.798 237.517 140.697C237.589 140.596 237.64 140.482 237.668 140.362C237.696 140.241 237.7 140.116 237.679 139.994C237.659 139.871 237.615 139.754 237.549 139.649L237.589 139.699Z" fill="#ECECE7"/>
<path d="M229.522 170.699C230 170.699 230.468 170.557 230.866 170.292C231.264 170.026 231.574 169.648 231.757 169.205C231.941 168.763 231.988 168.277 231.895 167.807C231.802 167.338 231.571 166.907 231.233 166.568C230.894 166.23 230.463 165.999 229.994 165.906C229.524 165.812 229.038 165.86 228.595 166.044C228.153 166.227 227.775 166.537 227.509 166.935C227.243 167.333 227.102 167.801 227.102 168.279C227.102 168.921 227.357 169.537 227.81 169.991C228.264 170.444 228.88 170.699 229.522 170.699Z" fill="#F3C10E"/>
<path d="M237.591 180.36L232.911 172.36C232.821 172.15 232.531 172.01 232.181 171.88L230.601 171.27H228.371L226.831 171.87C226.491 172 226.211 172.11 226.111 172.32L221.411 180.32C221.286 180.531 221.25 180.783 221.309 181.02C221.369 181.258 221.521 181.463 221.731 181.59C221.944 181.715 222.197 181.752 222.436 181.692C222.676 181.632 222.882 181.48 223.011 181.27L226.351 175.58L226.631 181.3V193C226.631 193.297 226.749 193.581 226.959 193.791C227.169 194.002 227.454 194.12 227.751 194.12C228.048 194.12 228.333 194.002 228.543 193.791C228.753 193.581 228.871 193.297 228.871 193V183H230.001V193C230.001 193.297 230.119 193.581 230.329 193.791C230.539 194.002 230.824 194.12 231.121 194.12C231.418 194.12 231.703 194.002 231.913 193.791C232.123 193.581 232.241 193.297 232.241 193V181.75L232.561 175.53L235.951 181.31C236.079 181.52 236.286 181.672 236.525 181.732C236.765 181.792 237.018 181.755 237.231 181.63C237.338 181.57 237.433 181.49 237.509 181.394C237.585 181.298 237.642 181.188 237.675 181.069C237.709 180.951 237.719 180.828 237.704 180.706C237.69 180.584 237.651 180.466 237.591 180.36Z" fill="#F3C10E"/>
<path d="M229.522 205.209C230 205.209 230.468 205.067 230.866 204.801C231.264 204.535 231.574 204.157 231.757 203.715C231.941 203.273 231.988 202.786 231.895 202.317C231.802 201.848 231.571 201.416 231.233 201.078C230.894 200.739 230.463 200.509 229.994 200.416C229.524 200.322 229.038 200.37 228.595 200.553C228.153 200.737 227.775 201.047 227.509 201.445C227.243 201.843 227.102 202.311 227.102 202.789C227.102 203.431 227.357 204.047 227.81 204.5C228.264 204.954 228.88 205.209 229.522 205.209Z" fill="#F3C10E"/>
<path d="M237.591 214.86L232.911 206.86C232.821 206.65 232.531 206.51 232.181 206.38L230.601 205.77H228.371L226.831 206.37C226.491 206.5 226.211 206.61 226.111 206.82L221.411 214.82C221.286 215.031 221.25 215.283 221.309 215.52C221.369 215.758 221.521 215.963 221.731 216.09C221.944 216.215 222.197 216.252 222.436 216.192C222.676 216.132 222.882 215.98 223.011 215.77L226.351 210.08L226.631 215.8V227.43C226.631 227.727 226.749 228.011 226.959 228.221C227.169 228.432 227.454 228.55 227.751 228.55C228.048 228.55 228.333 228.432 228.543 228.221C228.753 228.011 228.871 227.727 228.871 227.43V217.43H230.001V227.43C230.001 227.727 230.119 228.011 230.329 228.221C230.539 228.432 230.824 228.55 231.121 228.55C231.418 228.55 231.703 228.432 231.913 228.221C232.123 228.011 232.241 227.727 232.241 227.43V216.25L232.561 210.03L235.951 215.81C236.079 216.02 236.286 216.172 236.525 216.232C236.765 216.292 237.018 216.255 237.231 216.13C237.338 216.07 237.433 215.99 237.509 215.894C237.585 215.798 237.642 215.688 237.675 215.569C237.709 215.451 237.719 215.328 237.704 215.206C237.69 215.084 237.651 214.966 237.591 214.86Z" fill="#F3C10E"/>
<path d="M227.102 127.631C227.104 128.268 227.358 128.878 227.807 129.329C228.256 129.78 228.865 130.036 229.502 130.041V125.211C228.863 125.216 228.253 125.474 227.803 125.927C227.354 126.38 227.102 126.993 227.102 127.631Z" fill="#F3C10E"/>
<path d="M228.371 130.65L226.831 131.25C226.491 131.38 226.211 131.49 226.111 131.7L221.411 139.7C221.286 139.911 221.25 140.163 221.309 140.401C221.369 140.639 221.521 140.844 221.731 140.97C221.944 141.096 222.197 141.133 222.436 141.073C222.676 141.013 222.882 140.861 223.011 140.65L226.351 134.96L226.631 140.68V152.31C226.631 152.607 226.749 152.892 226.959 153.102C227.169 153.312 227.454 153.43 227.751 153.43C228.048 153.43 228.333 153.312 228.543 153.102C228.753 152.892 228.871 152.607 228.871 152.31V142.31H229.501V130.65H228.371Z" fill="#F3C10E"/>
</g>
<defs>
<clipPath id="clip0_3390_7020">
<rect width="410" height="500" fill="white"/>
</clipPath>
</defs>
</svg>
