<svg width="127" height="482" viewBox="0 0 127 482" fill="none" xmlns="http://www.w3.org/2000/svg">
<path fill-rule="evenodd" clip-rule="evenodd" d="M0 1.11027e-05L2.94483e-06 33.6849L0.794742 33.6849C17.6825 33.6849 29.5037 36.0984 37.0986 41.5156C44.6323 46.8892 48.1615 55.3378 48.1615 67.8291L48.1615 188.635C48.1615 206.403 51.6329 217.975 58.3503 226.034C64.6231 233.56 73.638 237.912 84.9436 241.459C73.6437 244.99 64.6265 249.238 58.3521 256.71C51.6318 264.714 48.1615 276.288 48.1615 294.283L48.1615 414.171C48.1615 426.662 44.6323 435.111 37.0986 440.484C29.5038 445.902 17.6825 448.315 0.794778 448.315L3.9193e-05 448.315L4.21378e-05 482L0.794781 482C33.2735 482 55.6878 476.716 69.9759 464.994C84.2984 453.243 90.2829 435.172 90.2829 410.037L90.2829 296.121C90.2829 282.852 92.666 273.801 98.2353 268.049C103.791 262.311 112.693 259.68 126.205 259.68L127 259.68L127 223.239L126.205 223.239C112.693 223.239 103.796 220.608 98.2404 214.76C92.6679 208.894 90.2829 199.613 90.2829 185.879L90.2829 71.9631C90.2829 46.8276 84.2984 28.7566 69.9759 17.006C55.6877 5.28368 33.2735 8.19383e-06 0.794739 1.10332e-05L0 1.11027e-05ZM86.2458 241.861C86.6872 241.726 87.1322 241.592 87.5807 241.459C87.1322 241.326 86.6873 241.193 86.246 241.058C62.289 233.736 48.9562 223.365 48.9562 188.635L48.9562 67.8291C48.9562 42.5654 34.6508 32.9193 0.794742 32.9193L0.794739 0.765576C1.06034 0.765576 1.32525 0.765933 1.58949 0.766639C65.8407 0.93913 89.4881 22.1002 89.4881 71.9631L89.4881 185.879C89.4881 213.44 99.0251 224.004 126.205 224.004L126.205 258.914C99.0251 258.914 89.4881 269.479 89.4881 296.121L89.4881 410.037C89.4882 459.9 65.8407 481.061 1.58953 481.233C1.32529 481.234 1.06038 481.234 0.794781 481.234L0.794778 449.081C34.6508 449.081 48.9562 439.435 48.9562 414.171L48.9562 294.283C48.9562 259.103 62.2889 249.166 86.2458 241.861Z" fill="#FFD75F"/>
</svg>
