<svg width="117" height="441" viewBox="0 0 117 441" fill="none" xmlns="http://www.w3.org/2000/svg">
<path fill-rule="evenodd" clip-rule="evenodd" d="M117 0V30.8196H116.268C100.71 30.8196 89.8194 33.0278 82.8226 37.9842C75.8821 42.9007 72.6308 50.6307 72.6308 62.0594V172.59C72.6308 188.846 69.4327 199.434 63.2442 206.807C57.4653 213.693 49.1603 217.675 38.7449 220.92C49.155 224.15 57.4622 228.037 63.2426 234.874C69.4337 242.197 72.6308 252.786 72.6308 269.251V378.941C72.6308 390.369 75.8821 398.099 82.8226 403.016C89.8194 407.972 100.71 410.18 116.268 410.18H117V441H116.268C86.3465 441 65.6971 436.166 52.534 425.441C39.3393 414.69 33.826 398.156 33.826 375.158V270.932C33.826 258.792 31.6306 250.511 26.4998 245.248C21.3813 239.998 13.1806 237.591 0.732165 237.591H0V204.25H0.732165C13.1807 204.25 21.3773 201.842 26.4951 196.492C31.6288 191.125 33.826 182.633 33.826 170.068V65.8418C33.826 42.8443 39.3393 26.3105 52.534 15.5595C65.6971 4.83423 86.3465 0 116.268 0H117ZM37.5452 221.287C37.1386 221.164 36.7286 221.042 36.3154 220.92C36.7286 220.799 37.1385 220.676 37.545 220.553C59.6156 213.854 71.8986 204.365 71.8986 172.59V62.0594C71.8986 38.9447 85.0776 30.1191 116.268 30.1191V0.700445C116.023 0.700445 115.779 0.700771 115.536 0.701417C56.3436 0.859241 34.5582 20.2203 34.5582 65.8418V170.068C34.5582 195.284 25.7722 204.95 0.732165 204.95V236.89C25.7722 236.89 34.5582 246.557 34.5582 270.932V375.158C34.5582 420.78 56.3436 440.141 115.536 440.299C115.779 440.299 116.023 440.3 116.268 440.3V410.881C85.0776 410.881 71.8986 402.055 71.8986 378.941V269.251C71.8986 237.063 59.6157 227.972 37.5452 221.287Z" fill="#FFD75F"/>
</svg>
