<svg width="400" height="400" viewBox="0 0 400 400" fill="none" xmlns="http://www.w3.org/2000/svg">
<mask id="mask0_4539_6418" style="mask-type:luminance" maskUnits="userSpaceOnUse" x="0" y="0" width="400" height="400">
<path d="M400 0H0V400H400V0Z" fill="white"/>
</mask>
<g mask="url(#mask0_4539_6418)">
<path d="M981.561 -245.615H-284.727V940.593H981.561V-245.615Z" fill="#E7E7E7" stroke="#381805" stroke-width="0.5"/>
<path d="M235.771 196.545L238.042 232.355L247.829 230.503L248.005 236.425L216.379 242.697L196.805 243.2L197.53 208.097L209.286 194.4L235.771 196.545Z" fill="#E7E7E7" stroke="#381805" stroke-width="0.5"/>
<path d="M248.396 235.201L265.605 263.826L245.435 291.682L228.047 300.801L208.805 274.81L216.127 241.49L248.396 235.201Z" fill="#E7E7E7" stroke="#381805" stroke-width="0.5"/>
<path d="M196.372 243.249L216.186 242.753L208.925 275.362L228.005 300.8L186.724 295.878L164.805 269.671L180.77 242.4L196.372 243.249Z" fill="#E7E7E7" stroke="#381805" stroke-width="0.5"/>
<path d="M236.005 196.747L209.267 194.612L197.375 208.249L196.643 243.2L181.105 242.343L160.805 237.732L166.292 192.266L190.173 168.809L208.559 168L236.005 196.747Z" fill="#E7E7E7" stroke="#381805" stroke-width="0.5"/>
<path d="M160.36 237.602L181.122 242.185L164.845 269.582L187.203 295.909L179.534 300.002L151.185 279.464L139.203 266.687L146.881 237.738L160.36 237.602Z" fill="#E7E7E7" stroke="#381805" stroke-width="0.5"/>
<path d="M166.4 191.75L160.724 237.462L147.099 237.6L140 235.242L140.191 190.4L166.4 191.75Z" fill="#E7E7E7" stroke="#381805" stroke-width="0.5"/>
<path d="M147.74 236.768L140.131 266.16L152.005 279.133L125.485 299.2L117.698 287.876L112.805 251.251L140.808 234.4L147.74 236.768Z" fill="#E7E7E7" stroke="#381805" stroke-width="0.5"/>
<path d="M272.206 291.201L276.344 350.074L304.802 362.14L289.326 370.401L220.45 369.275L209.922 338.427L178.063 328.774L177.602 321.012L178.249 300.178L185.797 296.084L227.236 301.031L244.542 292.062L272.206 291.201Z" fill="#E7E7E7" stroke="#381805" stroke-width="0.5"/>
<path d="M299.649 212L312.3 253.866L348.679 269.99L371.205 266.267L368.533 277.092L334.737 276.594L272.511 291.143L244.805 292L264.935 264.193L247.76 235.619L247.582 229.667L299.649 212Z" fill="#E7E7E7" stroke="#381805" stroke-width="0.5"/>
<path d="M270.392 133.602L314.201 162.062L317.6 177.216L299.746 212.754L247.852 230.164L237.913 232.002L235.606 196.472L208 167.866L270.392 133.602Z" fill="#E7E7E7" stroke="#381805" stroke-width="0.5"/>
<path d="M261.599 55.4392L261.317 73.633L287.203 108.265L269.917 133.603L207.905 167.84L189.525 168.645L165.65 192.002L140.319 190.665L120.933 164.135L80.3272 150.902L75.2031 135.833L77.8576 130.381L117.917 131.662L129.782 158.682L157.936 156.661L178.424 97.0619L198.727 90.3369L242.02 5.60156L252.903 6.73717L245.953 52.4673L261.599 55.4392Z" fill="#E7E7E7" stroke="#381805" stroke-width="0.5"/>
<path d="M242.398 5.01675L198.929 89.8988L178.529 96.6442L157.909 156.352L129.62 158.402L117.69 131.339L77.4376 130.056L74.3984 119.357L137.08 39.841L162.137 45.9409L164.562 30.6105L194.702 15.0783L218.231 -18.3984L242.398 5.01675Z" fill="#E7E7E7" stroke="#381805" stroke-width="0.5"/>
<path d="M112.399 252.354L117.263 288.57L84.6787 311.034L86.5188 325.346L48.4227 326.546L31.7188 358.29L33.5507 321.802L69.2628 262.138L85.2628 253.418L112.399 252.354Z" fill="#E7E7E7" stroke="#381805" stroke-width="0.5"/>
<path d="M140.307 191.2L140.123 235.712L112.403 252.352L85.2033 253.416L84.1953 210.816L92.0033 198.272L120.803 164.672L140.307 191.2Z" fill="#E7E7E7" stroke="#381805" stroke-width="0.5"/>
<path d="M124.976 299.77L154.16 308.002L151.04 324.226L178.4 321.45L178.864 329.242L158.064 333.354L136.408 361.826L104.6 371.202L86.5197 325.37L84.6797 311.058L117.264 288.594L124.976 299.77Z" fill="#E7E7E7" stroke="#381805" stroke-width="0.5"/>
<path d="M151.203 280L179.205 300.486L178.585 321.257L151.05 324L154.183 307.894L124.805 299.73L151.203 280Z" fill="#E7E7E7" stroke="#381805" stroke-width="0.5"/>
<path d="M84.224 210.816L85.232 253.416L69.232 262.136L33.552 321.8L24.648 287.864L7.848 283.536L-12 266.6L-5.176 242.4L14.192 266.4L50.264 248.88L45.856 226.2L59.2 215.352L84.224 210.816Z" fill="#E7E7E7" stroke="#381805" stroke-width="0.5"/>
<path d="M289.734 371.034L273.598 401.706L262.862 449.082L228.462 466.354L246.366 479.242L241.958 511.306L218.094 486.81L190.558 481.786L116.958 531.618L93.19 508.258L122.19 445.058L111.662 428.002L76.326 418.162L72.75 399.322L104.598 371.202L136.358 361.85L158.014 333.378L178.814 329.266L210.566 338.97L221.03 369.93L289.734 371.034Z" fill="#E7E7E7" stroke="#381805" stroke-width="0.5"/>
<path d="M33.5529 321.801L31.7209 358.289L5.37687 369.553L1.37687 389.737L-18.6231 400.857L-64.7031 400.497L-34.8711 369.905L-54.1431 350.849L-30.0951 335.473L-31.9991 320.953L-4.91913 315.281L-21.9911 294.945L7.85687 283.537L24.6569 287.865L33.5529 321.801Z" fill="#E7E7E7" stroke="#381805" stroke-width="0.5"/>
<path d="M72.7522 399.298L76.3282 418.138L111.664 428.002L122.128 445.066L93.1282 508.266L116.896 531.626L129.472 553.562L107.352 604.642L62.5522 643.906L45.2082 636.97L42.6402 610.402L12.9042 573.682L-18.5758 560.314L-41.1598 575.282L-74.0158 560.346L-101.28 558.794L-69.7038 545.842L-86.8718 522.202L-74.7518 514.202L-92.2878 483.69L-123.488 471.69L-127.344 446.202L-95.5918 427.082L-64.7518 400.522L-18.6718 400.882L1.32824 389.762L15.5602 412.778L43.0002 415.89L72.7522 399.298Z" fill="#E7E7E7" stroke="#381805" stroke-width="0.5"/>
<path d="M314.878 93.7441L338.078 112.4L356.158 166.72L418.67 207.768L437.206 206.848L459.878 227.48L462.542 230.032L424.078 263.768L413.278 249.872L370.774 266.952L348.374 270.64L312.206 254.696L299.638 213.296L317.438 177.712L314.046 162.512L270.398 134.032L287.742 108.64L314.878 93.7441Z" fill="#E7E7E7" stroke="#381805" stroke-width="0.5"/>
<path d="M86.5199 325.346L104.6 371.202L72.7519 399.298L43.0079 415.866L15.5679 412.754L1.33594 389.738L5.37594 369.554L31.7199 358.29L48.4239 326.546L86.5199 325.346Z" fill="#E7E7E7" stroke="#381805" stroke-width="0.5"/>
<path d="M120.849 164.664L92.0492 198.264L68.6172 175.44L80.0892 151.4L120.849 164.664Z" fill="#E7E7E7" stroke="#381805" stroke-width="0.5"/>
<path d="M74.9546 136.296L80.0906 151.4L68.6186 175.44L92.0026 198.272L84.2026 210.816L59.2026 215.352L2.40256 194.512L7.54656 167.928L-6.77344 144.384L-2.64544 120.696L27.8346 109.496L74.9546 136.296Z" fill="#E7E7E7" stroke="#381805" stroke-width="0.5"/>
<path d="M2.34344 194.514L59.1434 215.354L45.8554 226.202L50.2634 248.882L14.1914 266.402L-5.17656 242.402L-37.9766 211.354L2.34344 194.514Z" fill="#E7E7E7" stroke="#381805" stroke-width="0.5"/>
<path d="M334.52 277.16L339.2 321.872L332.592 344.688L305.144 362.744L276.8 350.632L272.664 291.544L334.52 277.16Z" fill="#E7E7E7" stroke="#381805" stroke-width="0.5"/>
<path d="M424.102 263.769L439.07 304.801L449.718 300.337L457.886 331.369L445.598 353.825L372.262 389.313L385.598 435.553L346.494 479.553L352.734 518.625L340.398 533.881L326.902 539.121L266.23 525.385L241.91 511.305L246.318 479.241L228.414 466.353L262.814 449.081L273.598 401.705L289.758 371.033L305.174 362.745L332.622 344.689L339.198 321.873L334.51 277.161L368.11 277.657L370.766 266.953L413.27 249.873L424.102 263.769Z" fill="#E7E7E7" stroke="#381805" stroke-width="0.5"/>
<path d="M529.846 338.168L551.87 340.36L552.974 386.264L531.31 440.936L553.158 472.368L536.358 488.72L541.406 512.8L506.806 540.256L487.35 545L466.238 541.672L430.35 568.424L402.166 551.088L358.294 551.368L340.398 533.88L352.694 518.592L346.454 479.52L385.558 435.52L372.246 389.28L445.598 353.824L482.678 353.536L529.846 338.168Z" fill="#E7E7E7" stroke="#381805" stroke-width="0.5"/>
<path d="M164.628 31.3844L162.228 46.7124L137.172 40.6084L74.5724 120.128L62.5724 73.1044L15.3724 36.9924L-2.51562 14.4004L43.8364 -32.7036L56.1404 -67.7676L89.4604 -64.6476L130.116 -47.9596L131.404 -26.8076L112.404 -10.1996L164.628 31.3844Z" fill="#E7E7E7" stroke="#381805" stroke-width="0.5"/>
<path d="M-6.8338 144.385L7.4862 167.929L2.34219 194.513L-37.9458 211.385L-74.0178 211.033L-80.7218 186.145L-148.458 161.473L-177.258 140.481L-176.25 128.217L-76.0018 106.441L-58.4018 93.6406L-45.7378 120.945L-15.6258 157.473L-6.8338 144.385Z" fill="#E7E7E7" stroke="#381805" stroke-width="0.5"/>
<path d="M227.869 -25.3913L218.269 -17.6553L194.741 15.8407L164.629 31.3847L112.405 -10.2153L131.405 -26.8233L130.117 -47.9753L89.4606 -64.6473L56.1406 -67.7673L65.8686 -85.1593L92.8526 -90.1353L106.253 -113.703L144.533 -132.527L171.885 -98.0153L195.205 -109.303L205.605 -99.2953L213.133 -45.1913L227.869 -25.3913Z" fill="#E7E7E7" stroke="#381805" stroke-width="0.5"/>
<path d="M74.5856 120.128L77.6016 130.84L74.9376 136.296L27.7376 109.488L-2.74244 120.688L-6.87043 144.376L-15.6704 157.496L-45.7824 120.968L-58.3984 93.6722L-24.1584 80.9762L-21.3184 48.9762L-6.19044 63.5202L15.4096 36.9922L62.6096 73.1042L74.5856 120.128Z" fill="#E7E7E7" stroke="#381805" stroke-width="0.5"/>
<path d="M348.29 -37.5273L291.658 6.83273L286.402 33.9367L262.018 55.7207L246.322 52.7367L253.298 6.90474L242.402 5.76874L218.234 -17.6553L227.834 -25.3913L282.482 -85.5193L299.186 -86.0873L306.258 -121.447L325.346 -96.5193L324.978 -65.8473L348.29 -37.5273Z" fill="#E7E7E7" stroke="#381805" stroke-width="0.5"/>
<path d="M433.374 35.4247L432.918 36.3527L432.462 36.8487L387.574 68.3446L314.878 93.7446L287.678 108.641L261.734 73.9527L262.014 55.7206L286.398 33.9367L291.63 6.83265L348.262 -37.5273L377.478 -5.94335L409.054 -15.0953L399.326 14.9207L433.374 35.4247Z" fill="#E7E7E7" stroke="#381805" stroke-width="0.5"/>
</g>
</svg>
