<svg width="495" height="311" viewBox="0 0 495 311" fill="none" xmlns="http://www.w3.org/2000/svg">
<rect x="36" y="48" width="458" height="262" rx="131" stroke="#FBC917" stroke-width="2"/>
<rect width="264" height="63" rx="31.5" fill="#FBC917"/>
<path d="M43.476 24.464V32.24H40.308V24.464H30.084V29.108H27.168V22.268H40.308V20.468H29.364V17.984H54.564V20.468H43.476V22.268H56.868V29.108H53.844V24.464H43.476ZM38.688 26.12V27.956H31.848V26.12H38.688ZM52.044 26.12V27.956H45.132V26.12H52.044ZM38.724 29.684V31.52H31.128V29.684H38.724ZM52.944 29.684V31.52H45.132V29.684H52.944ZM58.2 43.544C57.768 47.936 56.58 49.34 51.108 49.34H47.724C41.496 49.34 40.128 48.224 40.128 45.2V44.444H33.468V46.172H30.372V33.428H53.808V44.444H43.26V45.2C43.26 46.424 43.764 46.856 47.832 46.856H51C54.672 46.856 55.212 45.92 55.392 43.076L58.2 43.544ZM43.26 37.928H50.496V35.66H43.26V37.928ZM33.468 37.928H40.128V35.66H33.468V37.928ZM43.26 42.14H50.496V39.908H43.26V42.14ZM33.468 42.14H40.128V39.908H33.468V42.14ZM69.72 24.608V49.448H66.66V29.36C65.508 30.8 64.176 32.348 63.348 33.176L61.044 30.44C64.644 27.056 68.28 21.692 70.188 16.724L73.212 17.696C72.744 18.884 72.168 20.144 71.52 21.368L71.34 21.692C70.836 22.7 70.26 23.672 69.72 24.608ZM90.816 18.128V20.72H74.976V18.128H90.816ZM94.092 22.988V25.652H71.952V22.988H94.092ZM91.464 27.956V30.548H74.508V27.956H91.464ZM91.356 32.996V35.552H74.508V32.996H91.356ZM91.824 38.072V48.332H74.076V38.072H91.824ZM77.172 45.74H88.584V40.556H77.172V45.74ZM105.72 24.608V49.448H102.66V29.36C101.508 30.8 100.176 32.348 99.348 33.176L97.044 30.44C100.644 27.056 104.28 21.692 106.188 16.724L109.212 17.696C108.744 18.884 108.168 20.144 107.52 21.368L107.34 21.692C106.836 22.7 106.26 23.672 105.72 24.608ZM126.816 18.128V20.72H110.976V18.128H126.816ZM130.092 22.988V25.652H107.952V22.988H130.092ZM127.464 27.956V30.548H110.508V27.956H127.464ZM127.356 32.996V35.552H110.508V32.996H127.356ZM127.824 38.072V48.332H110.076V38.072H127.824ZM113.172 45.74H124.584V40.556H113.172V45.74ZM142.98 27.308C140.892 29.036 138.156 30.8 135.672 32.276L133.944 29.432C139.452 26.48 145.464 20.864 148.056 16.616H151.332C154.932 21.584 161.16 26.66 166.128 29.036L164.364 32.132C161.988 30.8 159.216 29.036 157.056 27.272V29.864H142.98V27.308ZM143.376 26.948H156.66C153.924 24.716 151.512 22.016 149.856 19.82C148.344 22.016 146.076 24.68 143.376 26.948ZM149.244 36.704V49.556H145.86V36.704H137.292V33.788H161.736V43.4C161.736 44.984 161.34 45.992 160.116 46.532C158.928 47.036 156.912 47.072 153.888 47.072L153.708 43.94C154.932 44.012 156.804 44.012 157.488 44.012H157.632C158.208 43.976 158.424 43.724 158.424 43.328V36.704H149.244ZM202.092 46.244L200.328 49.376C191.796 45.272 187.62 36.092 185.856 29.576C184.236 36.02 180.276 44.66 172.068 49.376L170.124 46.424C183.264 39.44 183.516 22.052 183.732 17.588H187.368C187.332 18.056 187.332 18.668 187.26 19.28C187.584 23.78 189.816 40.592 202.092 46.244ZM235.14 20.144V46.424H208.968V20.144H235.14ZM212.316 43.004H231.612V23.384H212.316V43.004Z" fill="#381805"/>
<path d="M228.988 72.9649C215.891 72.9649 209.539 62.443 208 57.182C213.037 49.9829 223.111 39.4887 223.111 55.1054C223.111 74.6262 245.358 72.9649 228.988 72.9649Z" fill="#FBC917"/>
<rect x="123" y="83" width="147" height="147" rx="73.5" fill="#FFEAAD" fill-opacity="0.8"/>
<rect x="249" y="83" width="147" height="147" rx="73.5" fill="#FFEAAD" fill-opacity="0.8"/>
<path d="M184.233 127.157L191.259 129.502C191.905 129.718 192.608 129.358 192.828 128.699C193.048 128.04 192.702 127.33 192.056 127.114L185.03 124.769C184.384 124.554 183.681 124.914 183.461 125.573C183.241 126.232 183.587 126.941 184.233 127.157Z" fill="#381805"/>
<path d="M170.421 176.342L172.762 177.123C173.409 177.339 174.108 176.989 174.324 176.343C174.54 175.697 174.19 174.997 173.544 174.781L171.202 174C170.556 173.784 169.856 174.134 169.64 174.78C169.425 175.426 169.774 176.126 170.421 176.342Z" fill="#381805"/>
<rect x="171.628" y="115.633" width="38" height="60" rx="3.5" transform="rotate(18.4566 171.628 115.633)" stroke="#381805"/>
<rect x="173.209" y="120.376" width="32" height="50" rx="3.5" transform="rotate(18.4566 173.209 120.376)" stroke="#381805"/>
<path d="M171.432 140.544L172.53 140.058L173.004 139.854C173.39 139.69 173.688 139.556 173.897 139.452C174.111 139.349 174.296 139.233 174.451 139.105C174.611 138.979 174.718 138.837 174.77 138.68C174.927 138.21 174.74 137.886 174.209 137.709C173.951 137.623 173.68 137.583 173.397 137.59C173.118 137.598 172.846 137.647 172.579 137.738L173.007 136.456C173.287 136.375 173.594 136.342 173.926 136.358C174.26 136.368 174.599 136.43 174.943 136.545C175.337 136.677 175.654 136.864 175.894 137.107C176.133 137.35 176.286 137.626 176.351 137.935C176.417 138.243 176.396 138.56 176.288 138.883C176.158 139.273 175.953 139.584 175.673 139.817C175.399 140.046 175.002 140.276 174.481 140.507L173.6 140.896L175.581 141.557L175.214 142.657L171.177 141.31L171.432 140.544ZM177.194 143.445C176.891 143.344 176.601 143.21 176.324 143.045C176.048 142.88 175.833 142.707 175.679 142.526L176.072 141.35C176.251 141.573 176.467 141.774 176.722 141.955C176.983 142.132 177.24 142.263 177.493 142.347C177.847 142.465 178.133 142.485 178.351 142.406C178.569 142.327 178.717 142.168 178.796 141.93C178.872 141.703 178.843 141.496 178.708 141.31C178.578 141.127 178.357 140.982 178.043 140.878C177.866 140.818 177.673 140.774 177.464 140.743C177.261 140.709 177.079 140.699 176.917 140.713L176.5 140.245L177.629 137.568L181.029 138.703L180.662 139.803L178.56 139.102L178.213 139.914C178.466 139.931 178.724 139.983 178.987 140.071C179.538 140.255 179.919 140.545 180.13 140.942C180.347 141.335 180.365 141.804 180.183 142.351C179.985 142.943 179.631 143.339 179.12 143.539C178.61 143.735 177.968 143.703 177.194 143.445ZM180.567 143.921L181.948 144.382L180.617 145.717L179.403 145.312L180.567 143.921ZM184.579 145.91C184.089 145.746 183.695 145.494 183.398 145.153C183.103 144.807 182.924 144.393 182.86 143.911C182.801 143.43 182.867 142.904 183.058 142.332C183.249 141.76 183.512 141.3 183.848 140.951C184.183 140.602 184.571 140.377 185.009 140.276C185.453 140.177 185.925 140.211 186.426 140.378C186.927 140.545 187.322 140.801 187.612 141.145C187.907 141.491 188.084 141.904 188.143 142.385C188.202 142.865 188.136 143.391 187.945 143.963C187.754 144.535 187.488 144.994 187.147 145.342C186.812 145.691 186.422 145.915 185.978 146.014C185.537 146.108 185.07 146.074 184.579 145.91ZM185 144.65C185.339 144.763 185.646 144.72 185.921 144.519C186.196 144.318 186.411 143.985 186.566 143.52C186.723 143.049 186.753 142.649 186.655 142.318C186.564 141.984 186.347 141.76 186.003 141.645C185.659 141.53 185.348 141.578 185.069 141.789C184.798 141.996 184.583 142.335 184.426 142.806C184.271 143.271 184.243 143.667 184.342 143.992C184.442 144.318 184.661 144.537 185 144.65ZM190.092 146.409L187.656 145.596L187.934 144.761L191.573 142.222L192.901 142.666L191.85 145.815L192.601 146.065L192.247 147.128L191.496 146.877L191.131 147.97L189.727 147.501L190.092 146.409ZM190.651 145.415L191.158 143.897L189.536 145.042L190.651 145.415ZM192.558 147.923L193.939 148.384L192.608 149.719L191.393 149.314L192.558 147.923ZM170.043 148.294L168.705 148.716L169.145 147.396L170.77 146.875L171.885 147.248L170.115 152.552L168.772 152.104L170.043 148.294ZM170.899 151.962L171.997 151.477L172.471 151.272C172.857 151.109 173.155 150.975 173.364 150.87C173.578 150.767 173.763 150.652 173.918 150.524C174.078 150.397 174.185 150.256 174.237 150.099C174.394 149.628 174.207 149.305 173.676 149.127C173.418 149.041 173.147 149.001 172.864 149.008C172.585 149.016 172.313 149.066 172.046 149.157L172.474 147.875C172.754 147.794 173.061 147.761 173.393 147.776C173.727 147.787 174.066 147.849 174.41 147.964C174.804 148.096 175.121 148.283 175.361 148.526C175.6 148.769 175.753 149.045 175.818 149.353C175.884 149.662 175.863 149.978 175.755 150.302C175.625 150.691 175.42 151.003 175.14 151.235C174.866 151.464 174.469 151.695 173.948 151.925L173.067 152.315L175.048 152.976L174.681 154.076L170.644 152.729L170.899 151.962ZM177.409 150.753L176.071 151.175L176.512 149.855L178.136 149.334L179.251 149.706L177.481 155.011L176.138 154.562L177.409 150.753ZM178.797 154.927L180.178 155.388L178.847 156.723L177.632 156.318L178.797 154.927ZM182.004 156.647C181.701 156.546 181.411 156.412 181.134 156.247C180.858 156.081 180.643 155.909 180.489 155.728L180.882 154.552C181.061 154.774 181.277 154.976 181.532 155.157C181.793 155.334 182.05 155.465 182.303 155.549C182.658 155.667 182.943 155.687 183.161 155.608C183.379 155.528 183.527 155.37 183.606 155.132C183.682 154.904 183.653 154.698 183.518 154.512C183.388 154.328 183.167 154.184 182.853 154.079C182.676 154.02 182.483 153.976 182.274 153.945C182.071 153.911 181.889 153.901 181.727 153.915L181.31 153.446L182.439 150.77L185.839 151.905L185.472 153.005L183.37 152.304L183.023 153.116C183.276 153.133 183.534 153.185 183.797 153.273C184.348 153.457 184.729 153.747 184.94 154.143C185.157 154.537 185.175 155.006 184.993 155.553C184.795 156.145 184.441 156.541 183.93 156.741C183.42 156.937 182.779 156.905 182.004 156.647ZM185.039 156.681L186.137 156.196L186.61 155.991C186.996 155.828 187.294 155.694 187.503 155.589C187.718 155.487 187.902 155.371 188.057 155.243C188.218 155.117 188.324 154.975 188.376 154.818C188.533 154.348 188.346 154.024 187.815 153.846C187.557 153.76 187.286 153.721 187.003 153.727C186.725 153.736 186.452 153.785 186.186 153.876L186.614 152.594C186.894 152.513 187.2 152.48 187.532 152.495C187.866 152.506 188.205 152.568 188.549 152.683C188.944 152.815 189.261 153.002 189.5 153.245C189.74 153.488 189.892 153.764 189.958 154.072C190.023 154.381 190.002 154.697 189.894 155.021C189.764 155.411 189.559 155.722 189.279 155.954C189.006 156.184 188.609 156.414 188.087 156.645L187.207 157.034L189.187 157.695L188.82 158.795L184.783 157.448L185.039 156.681Z" fill="#381805"/>
<g clip-path="url(#clip0_2604_5699)">
<path d="M216.494 153.134C220.064 152.714 221.164 149.414 219.884 147.134C219.407 146.278 218.65 145.611 217.739 145.247C216.829 144.883 215.82 144.843 214.884 145.134C214.042 145.385 213.305 145.906 212.788 146.616C212.271 147.327 212.003 148.189 212.025 149.067C212.046 149.946 212.357 150.793 212.908 151.477C213.459 152.162 214.22 152.646 215.074 152.854C215.474 152.974 215.874 153.124 216.264 153.254" stroke="#381805" stroke-width="2" stroke-linecap="round" stroke-linejoin="round"/>
<path d="M216.895 169.194C218.054 167.954 219.404 166.908 220.895 166.094C222.142 167.805 223.049 169.741 223.565 171.794C224.745 175.234 226.435 178.444 227.565 181.884C228.135 183.564 228.825 185.214 229.565 186.834C230.065 187.964 229.145 189.124 229.745 190.214" stroke="#381805" stroke-width="2" stroke-linecap="round" stroke-linejoin="round"/>
<path d="M211.935 164.604C212.315 166.604 210.935 168.054 210.305 169.744C208.435 175.144 206.385 180.464 204.405 185.824C204.14 186.458 204.001 187.138 203.995 187.824C204.055 188.667 203.867 189.508 203.455 190.244" stroke="#381805" stroke-width="2" stroke-linecap="round" stroke-linejoin="round"/>
<path d="M216.493 157.695C214.753 158.465 212.923 158.055 211.143 158.055C209.653 158.055 209.043 158.585 209.143 160.055C209.051 161.441 209.276 162.829 209.803 164.115H223.273C223.883 162.395 223.553 160.815 223.623 159.265C223.673 158.155 222.913 158.115 222.043 158.045C220.263 157.925 218.423 158.515 216.693 157.675" stroke="#381805" stroke-width="2" stroke-linecap="round" stroke-linejoin="round"/>
<path d="M228.985 155.715C231.985 153.205 233.065 150.095 231.525 146.405C230.745 144.525 229.805 142.605 227.395 142.225" stroke="#F8D208" stroke-width="2" stroke-linecap="round" stroke-linejoin="round"/>
<path d="M204.404 142.604C202.803 143.534 201.574 144.99 200.927 146.724C200.28 148.458 200.254 150.363 200.854 152.114C201.405 153.774 202.519 155.189 204.004 156.114" stroke="#F8D208" stroke-width="2" stroke-linecap="round" stroke-linejoin="round"/>
<path d="M217.094 179.705C221.094 182.895 224.984 186.315 229.384 189.025" stroke="#381805" stroke-width="2" stroke-linecap="round" stroke-linejoin="round"/>
<path d="M216.095 179.905C212.865 182.605 209.655 185.345 206.365 188.015C205.742 188.382 205.068 188.655 204.365 188.825" stroke="#381805" stroke-width="2" stroke-linecap="round" stroke-linejoin="round"/>
<path d="M223.734 145.304C226.534 148.304 226.354 149.794 223.834 152.934" stroke="#F8D208" stroke-width="2" stroke-linecap="round" stroke-linejoin="round"/>
<path d="M209.164 145.405C206.234 147.705 206.004 149.725 208.364 152.535" stroke="#F8D208" stroke-width="2" stroke-linecap="round" stroke-linejoin="round"/>
<path d="M222.744 174.155C221.184 176.235 218.744 177.345 217.094 179.315" stroke="#381805" stroke-width="2" stroke-linecap="round" stroke-linejoin="round"/>
<path d="M223.655 173.755C223.432 173.891 223.17 173.951 222.909 173.924C222.649 173.897 222.405 173.784 222.215 173.605C220.33 172.224 218.527 170.735 216.815 169.145C214.675 170.925 212.295 172.235 210.545 174.365" stroke="#381805" stroke-width="2" stroke-linecap="round" stroke-linejoin="round"/>
<path d="M209.354 173.955C211.904 175.285 213.824 177.425 216.094 179.115" stroke="#381805" stroke-width="2" stroke-linecap="round" stroke-linejoin="round"/>
<path d="M212.135 166.425C213.779 166.924 215.195 167.986 216.135 169.425" stroke="#381805" stroke-width="2" stroke-linecap="round" stroke-linejoin="round"/>
<path d="M216.295 153.334V157.694" stroke="#381805" stroke-width="2" stroke-linecap="round" stroke-linejoin="round"/>
<path d="M197.564 190.155H236.304" stroke="#381805" stroke-width="3" stroke-linecap="round" stroke-linejoin="round"/>
</g>
<path d="M350.533 160.791H341.061C340.601 160.791 340.239 160.429 340.239 159.968C340.239 159.508 340.601 159.146 341.061 159.146H349.711V154.887H340.946C340.486 154.887 340.124 154.525 340.124 154.065C340.124 153.604 340.486 153.243 340.946 153.243H350.533C350.994 153.243 351.356 153.604 351.356 154.065V159.968C351.356 160.429 350.994 160.791 350.533 160.791ZM320.539 160.791H279.822C279.362 160.791 279 160.429 279 159.968V154.065C279 153.604 279.362 153.243 279.822 153.243H320.67C321.131 153.243 321.492 153.604 321.492 154.065C321.492 154.525 321.131 154.887 320.67 154.887H280.644V159.146H320.539C320.999 159.146 321.361 159.508 321.361 159.968C321.361 160.429 320.999 160.791 320.539 160.791ZM350.533 191.443H346.373C345.912 191.443 345.551 191.081 345.551 190.621V159.968C345.551 159.508 345.912 159.146 346.373 159.146C346.833 159.146 347.195 159.508 347.195 159.968V189.799H349.711V159.968C349.711 159.508 350.073 159.146 350.533 159.146C350.994 159.146 351.356 159.508 351.356 159.968V190.621C351.356 191.081 350.994 191.443 350.533 191.443ZM283.983 191.443H279.822C279.362 191.443 279 191.081 279 190.621V159.968C279 159.508 279.362 159.146 279.822 159.146C280.283 159.146 280.644 159.508 280.644 159.968V189.799H283.16V159.968C283.16 159.508 283.522 159.146 283.983 159.146C284.443 159.146 284.805 159.508 284.805 159.968V190.621C284.805 191.081 284.443 191.443 283.983 191.443ZM293.57 154.887C293.109 154.887 292.748 154.525 292.748 154.065V147.504C292.748 147.043 293.109 146.681 293.57 146.681C294.03 146.681 294.392 147.043 294.392 147.504V154.065C294.392 154.525 294.03 154.887 293.57 154.887ZM306.232 154.887C305.772 154.887 305.41 154.525 305.41 154.065V147.504C305.41 147.043 305.772 146.681 306.232 146.681C306.692 146.681 307.054 147.043 307.054 147.504V154.065C307.054 154.525 306.692 154.887 306.232 154.887ZM299.029 140.12C294.935 140.12 291.613 136.798 291.613 132.704C291.613 131.717 291.794 130.763 292.172 129.875C292.353 129.448 292.83 129.25 293.241 129.431C293.668 129.612 293.866 130.089 293.685 130.5C293.389 131.207 293.241 131.947 293.241 132.704C293.241 135.894 295.823 138.476 299.013 138.476C302.203 138.476 304.785 135.894 304.785 132.704C304.785 131.931 304.637 131.191 304.357 130.5C304.176 130.072 304.39 129.596 304.801 129.431C305.229 129.25 305.706 129.464 305.87 129.875C306.248 130.78 306.429 131.733 306.429 132.704C306.446 136.782 303.124 140.12 299.029 140.12ZM305.13 131.01H292.945C292.484 131.01 292.123 130.648 292.123 130.188C292.123 129.727 292.484 129.365 292.945 129.365H305.13C305.591 129.365 305.952 129.727 305.952 130.188C305.952 130.648 305.591 131.01 305.13 131.01ZM304.752 128.132H292.945C292.484 128.132 292.123 127.77 292.123 127.31V124.416C292.123 123.972 292.468 123.61 292.912 123.593L306.1 123.001C306.38 122.985 306.643 123.116 306.808 123.347C306.972 123.577 307.005 123.873 306.906 124.12L305.525 127.622C305.393 127.935 305.097 128.132 304.752 128.132ZM293.767 126.488H304.193L304.9 124.695L293.767 125.188V126.488ZM307.367 133.23C307.153 133.23 306.939 133.148 306.791 132.983L304.555 130.747C304.226 130.418 304.226 129.908 304.555 129.579C304.884 129.25 305.393 129.25 305.722 129.579L307.959 131.816C308.288 132.144 308.288 132.654 307.959 132.983C307.778 133.148 307.564 133.23 307.367 133.23ZM338.545 169.391C336.704 169.391 335.207 167.895 335.207 166.053V155.397C335.207 154.936 335.569 154.575 336.029 154.575C336.49 154.575 336.852 154.936 336.852 155.397V166.053C336.852 166.99 337.608 167.747 338.545 167.747C339.483 167.747 340.239 166.99 340.239 166.053V155.594C340.239 151.121 336.605 147.487 332.132 147.487H329.468C324.995 147.487 321.361 151.121 321.361 155.594V166.053C321.361 166.513 321.542 166.924 321.854 167.253C322.167 167.566 322.594 167.747 323.055 167.747C323.992 167.747 324.748 166.99 324.748 166.053V155.397C324.748 154.936 325.11 154.575 325.571 154.575C326.031 154.575 326.393 154.936 326.393 155.397V166.053C326.393 167.895 324.896 169.391 323.055 169.391C322.167 169.391 321.328 169.046 320.687 168.421C320.062 167.796 319.716 166.957 319.716 166.053V155.594C319.716 150.217 324.091 145.843 329.468 145.843H332.132C337.509 145.843 341.884 150.217 341.884 155.594V166.053C341.884 167.895 340.387 169.391 338.545 169.391ZM330.8 147.487C326.755 147.487 323.466 144.198 323.466 140.153C323.466 136.108 326.755 132.819 330.8 132.819C334.845 132.819 338.134 136.108 338.134 140.153C338.134 144.198 334.845 147.487 330.8 147.487ZM330.8 134.463C327.659 134.463 325.11 137.012 325.11 140.153C325.11 143.294 327.659 145.843 330.8 145.843C333.941 145.843 336.49 143.294 336.49 140.153C336.49 137.012 333.941 134.463 330.8 134.463ZM335.339 191.443C333.119 191.443 331.31 189.897 331.31 187.99V169.884C331.31 169.605 331.08 169.391 330.816 169.391C330.537 169.391 330.323 169.621 330.323 169.884V187.99C330.323 189.897 328.514 191.443 326.294 191.443C324.074 191.443 322.249 189.897 322.249 187.99V168.569C322.249 168.108 322.611 167.747 323.071 167.747C323.532 167.747 323.893 168.108 323.893 168.569V187.99C323.893 188.993 324.962 189.799 326.294 189.799C327.61 189.799 328.679 188.993 328.679 187.99V169.884C328.679 168.7 329.632 167.747 330.816 167.747C332 167.747 332.954 168.7 332.954 169.884V187.99C332.954 188.993 334.023 189.799 335.339 189.799C336.654 189.799 337.74 188.993 337.74 187.99V168.569C337.74 168.108 338.101 167.747 338.562 167.747C339.022 167.747 339.384 168.108 339.384 168.569V187.99C339.368 189.897 337.559 191.443 335.339 191.443ZM310.984 154.887H288.801C288.34 154.887 287.979 154.525 287.979 154.065V147.635C287.979 144.182 290.791 141.37 294.244 141.37H305.541C308.995 141.37 311.807 144.182 311.807 147.635V154.065C311.807 154.525 311.445 154.887 310.984 154.887ZM289.623 153.243H310.162V147.635C310.162 145.086 308.09 143.014 305.541 143.014H294.244C291.695 143.014 289.623 145.086 289.623 147.635V153.243ZM301.792 180.442C301.578 180.442 301.364 180.36 301.216 180.195L293.29 172.269C292.928 171.907 292.649 171.447 292.517 170.953L291.81 168.52C291.728 168.24 291.81 167.928 292.024 167.714C292.238 167.5 292.55 167.418 292.83 167.5L295.214 168.191C295.724 168.339 296.184 168.602 296.546 168.98L304.505 176.939C304.834 177.268 304.834 177.778 304.505 178.107C304.176 178.436 303.667 178.436 303.338 178.107L295.379 170.148C295.198 169.967 294.984 169.852 294.754 169.786L293.8 169.506L294.096 170.493C294.162 170.723 294.293 170.937 294.458 171.101L302.384 179.028C302.713 179.356 302.713 179.866 302.384 180.195C302.22 180.36 302.006 180.442 301.792 180.442ZM295.675 182.382C295.461 182.382 295.247 182.3 295.099 182.136L293.372 180.409C293.159 180.195 293.076 179.883 293.159 179.587L295 173.371C295.132 172.943 295.592 172.68 296.02 172.812C296.448 172.943 296.711 173.404 296.579 173.831L294.869 179.587L295.543 180.261L298.191 176.248C298.437 175.87 298.947 175.772 299.325 176.018C299.704 176.265 299.802 176.775 299.556 177.153L296.349 182.004C296.217 182.218 295.987 182.349 295.74 182.366C295.74 182.382 295.708 182.382 295.675 182.382ZM300.986 175.41C300.723 175.41 300.46 175.278 300.296 175.048C300.049 174.67 300.148 174.16 300.526 173.913L304.538 171.266L303.864 170.592L298.125 172.285C297.697 172.417 297.237 172.17 297.105 171.726C296.974 171.299 297.22 170.838 297.664 170.707L303.88 168.865C304.176 168.783 304.489 168.865 304.703 169.079L306.429 170.805C306.61 170.986 306.692 171.216 306.66 171.463C306.627 171.71 306.495 171.924 306.298 172.072L301.447 175.278C301.299 175.377 301.151 175.41 300.986 175.41ZM303.009 183.747C302.795 183.747 302.581 183.665 302.433 183.5L301.233 182.3C301.085 182.152 300.986 181.938 300.986 181.724V179.62C300.986 179.159 301.348 178.797 301.808 178.797C302.269 178.797 302.631 179.159 302.631 179.62V181.379L302.696 181.445L303.404 179.57C303.568 179.143 304.028 178.929 304.456 179.093C304.884 179.258 305.097 179.718 304.933 180.146L303.782 183.221C303.683 183.484 303.453 183.681 303.19 183.731C303.124 183.747 303.058 183.747 303.009 183.747ZM304.144 180.688C303.815 180.688 303.502 180.491 303.371 180.146C303.206 179.718 303.42 179.241 303.848 179.093L305.722 178.386L305.656 178.32H303.897C303.436 178.32 303.075 177.959 303.075 177.498C303.075 177.038 303.436 176.676 303.897 176.676H306.002C306.216 176.676 306.429 176.758 306.577 176.923L307.778 178.123C307.975 178.32 308.057 178.6 308.008 178.88C307.959 179.159 307.761 179.373 307.498 179.472L304.423 180.623C304.341 180.672 304.242 180.688 304.144 180.688ZM310.984 187.529H288.801C288.34 187.529 287.979 187.168 287.979 186.707V164.524C287.979 164.063 288.34 163.701 288.801 163.701H310.984C311.445 163.701 311.807 164.063 311.807 164.524V186.707C311.807 187.151 311.445 187.529 310.984 187.529ZM289.623 185.885H310.162V165.346H289.623V185.885Z" fill="#381805"/>
<rect x="342.178" y="133.222" width="9" height="58" fill="#FBC917"/>
<rect x="342.178" y="133.222" width="9" height="13" fill="#FFF0C9"/>
<rect x="354.178" y="156.222" width="9" height="35" fill="#FBC917"/>
<rect x="354.178" y="156.222" width="9" height="13" fill="#FFF0C9"/>
<rect x="365.178" y="164.222" width="9" height="27" fill="#FBC917"/>
<rect x="365.178" y="164.222" width="9" height="7" fill="#FFF0C9"/>
<path d="M158.462 254.124V257.26H157.454V254.124H153.24V256.042H152.246V253.298H157.454V252.584H153.058V251.702H162.942V252.584H158.462V253.298H163.768V256.042H162.746V254.124H158.462ZM156.796 254.782V255.468H153.926V254.782H156.796ZM162.06 254.782V255.468H159.148V254.782H162.06ZM156.796 256.168V256.882H153.66V256.168H156.796ZM162.396 256.168V256.882H159.148V256.168H162.396ZM164.314 261.502C164.174 263.168 163.684 263.854 161.696 263.854H160.156C157.93 263.854 157.412 263.42 157.412 262.37V261.922H154.486V262.678H153.436V257.652H162.62V261.922H158.406V262.37C158.406 262.818 158.602 262.972 160.17 262.972H161.654C163.082 262.972 163.278 262.538 163.334 261.348L164.314 261.502ZM158.406 259.402H161.57V258.478H158.406V259.402ZM154.486 259.402H157.412V258.478H154.486V259.402ZM158.406 261.096H161.57V260.158H158.406V261.096ZM154.486 261.096H157.412V260.158H154.486V261.096ZM170.054 254.264V263.938H169.018V255.762C168.584 256.406 167.968 257.106 167.548 257.526L166.764 256.602C168.15 255.3 169.676 253.13 170.432 251.156L171.454 251.492C171.09 252.402 170.558 253.424 170.054 254.264ZM178.37 251.772V252.696H172.07V251.772H178.37ZM179.686 253.606V254.544H170.88V253.606H179.686ZM178.608 255.496V256.42H171.902V255.496H178.608ZM178.58 257.414V258.324H171.902V257.414H178.58ZM178.748 259.346V263.462H171.748V259.346H178.748ZM172.798 262.538H177.656V260.27H172.798V262.538ZM185.454 254.264V263.938H184.418V255.762C183.984 256.406 183.368 257.106 182.948 257.526L182.164 256.602C183.55 255.3 185.076 253.13 185.832 251.156L186.854 251.492C186.49 252.402 185.958 253.424 185.454 254.264ZM193.77 251.772V252.696H187.47V251.772H193.77ZM195.086 253.606V254.544H186.28V253.606H195.086ZM194.008 255.496V256.42H187.302V255.496H194.008ZM193.98 257.414V258.324H187.302V257.414H193.98ZM194.148 259.346V263.462H187.148V259.346H194.148ZM188.198 262.538H193.056V260.27H188.198V262.538ZM204.13 252.206C203.066 253.774 200.742 255.86 198.502 257.134L197.914 256.182C200.084 255.02 202.534 252.766 203.542 251.1H204.634C205.95 252.976 208.568 255.076 210.514 256.028L209.926 257.064C207.728 255.916 205.334 253.816 204.13 252.206ZM207.042 255.132V256.14H201.386V255.132H207.042ZM203.878 258.786V263.98H202.744V258.786H199.174V257.75H208.792V261.698C208.792 262.216 208.61 262.622 208.204 262.776C207.798 262.944 206.986 262.972 205.824 262.972L205.754 261.908C206.356 261.936 207.21 261.922 207.406 261.922C207.63 261.908 207.728 261.838 207.728 261.684V258.786H203.878ZM224.57 253.858L223.744 254.376C223.52 254.124 223.114 253.774 222.764 253.48C222.344 253.494 221.924 253.508 221.49 253.536H221.266L221.112 253.55H220.958L220.734 253.564C220.552 253.564 220.37 253.578 220.188 253.578L219.964 253.592L219.81 253.606H219.586H219.516L219.362 253.62H219.208L219.054 253.634H218.984H218.83C217.164 253.704 215.61 253.774 214.462 253.816L214.392 252.864C214.952 252.85 215.736 252.836 216.506 252.822L216.646 252.808C216.674 252.808 216.702 252.808 216.73 252.808C217.108 252.29 217.43 251.59 217.682 251.114L218.788 251.352C218.48 251.842 218.158 252.402 217.822 252.836C218.368 252.822 218.942 252.808 219.516 252.794L219.712 252.78H219.852C219.88 252.78 219.908 252.78 219.922 252.78H220.062L220.202 252.766C220.23 252.766 220.258 252.766 220.272 252.766H220.412C220.482 252.766 220.552 252.752 220.622 252.752H220.776C221.028 252.738 221.294 252.738 221.56 252.724H221.7C221.728 252.724 221.742 252.71 221.77 252.71C221.406 252.458 221.042 252.164 220.72 251.94L221.392 251.492C222.442 252.122 223.912 253.186 224.57 253.858ZM219.516 255.566C218.41 256.994 215.988 258.618 213.706 259.528L213.342 258.674C214.686 258.24 216.296 257.344 217.388 256.49C216.114 256.616 214.602 256.784 213.622 256.854L213.524 256C213.846 255.986 214.308 255.958 214.7 255.93C215.022 255.37 215.414 254.488 215.624 253.956L216.632 254.222C216.338 254.74 215.946 255.426 215.652 255.916L217.262 255.79C217.108 255.566 216.912 255.23 216.744 255.048L217.542 254.754C217.78 255.034 217.906 255.454 218.088 255.804C218.438 255.454 218.774 255.034 219.012 254.698H219.95C220.272 255.09 220.692 255.566 221.098 255.888H221.28C221.574 255.314 221.784 254.446 221.952 253.9L222.946 254.18C222.68 254.698 222.344 255.37 222.064 255.888C222.498 255.86 222.988 255.818 223.492 255.79H223.646L223.786 255.776C223.814 255.776 223.828 255.776 223.856 255.776L223.996 255.762C224.024 255.762 224.052 255.762 224.08 255.762C223.912 255.51 223.576 255.202 223.366 254.978L224.164 254.628C224.738 255.23 225.522 256.154 225.802 256.728L224.948 257.12C224.864 256.938 224.696 256.644 224.57 256.42C224.248 256.448 223.912 256.476 223.576 256.504L223.436 256.518C222.904 256.56 222.386 256.602 221.938 256.644C223.114 257.442 224.738 258.184 225.872 258.492L225.522 259.416C223.408 258.73 220.804 257.134 219.516 255.566ZM220.72 257.61C219.698 258.478 217.808 259.388 216.24 259.906L215.89 259.136C217.136 258.8 219.026 257.946 219.964 257.204L220.72 257.61ZM222.19 258.996C220.846 260.13 218.466 261.264 216.282 261.782L216.016 260.914C217.822 260.55 220.16 259.528 221.364 258.618L222.19 258.996ZM223.884 260.452C222.274 262.16 218.998 263.532 215.596 264.008L215.372 263.056C218.382 262.706 221.518 261.474 222.988 259.99L223.884 260.452ZM233.054 262.776C232.242 263.308 230.898 263.798 229.414 264.064L229.204 263.14C230.254 263.014 231.416 262.678 232.144 262.3C231.71 262.104 231.192 261.866 230.744 261.698L230.548 262.104L229.638 261.838C229.89 261.376 230.24 260.816 230.534 260.312L228.77 260.368L228.742 259.486H229.092C229.4 259.486 229.736 259.486 230.086 259.486H230.226C230.478 259.472 230.73 259.472 230.968 259.472C231.15 259.206 231.29 258.87 231.416 258.632H229.344V256.238H231.99V255.692H229.722V254.222H228.728V253.382H229.722V251.954H231.99V251.128H232.9V251.954H235.196V253.382H236.162V254.222H235.196V255.692H232.9V256.238H235.504V256.98C236.134 255.832 236.54 254.054 236.834 252.304L236.848 252.15C236.862 252.052 236.89 251.954 236.904 251.856L236.918 251.716L236.946 251.562C236.96 251.422 236.988 251.268 237.002 251.128L238.052 251.31C237.94 252.08 237.8 252.934 237.632 253.62H241.286V254.614H240.432C240.404 254.796 240.39 254.964 240.362 255.146L240.334 255.3C240.04 257.176 239.592 258.968 238.878 260.256C239.494 261.362 240.404 262.552 241.286 263.07L240.642 264.036C239.676 263.434 238.864 262.314 238.304 261.306C237.688 262.356 236.82 263.364 235.798 264.008C235.714 263.826 235.462 263.294 235.294 263.084C236.386 262.356 237.128 261.376 237.744 260.228C237.534 259.668 237.324 259.01 237.142 258.31L237.1 258.17C237.1 258.156 237.086 258.128 237.086 258.1L237.044 257.96C237.002 257.806 236.96 257.638 236.918 257.47L236.89 257.33C236.82 257.05 236.764 256.77 236.708 256.504C236.484 257.022 236.33 257.61 236.064 258.03C235.966 257.904 235.672 257.61 235.504 257.442V258.632H232.41C232.284 258.87 232.158 259.206 232.004 259.486C232.55 259.486 233.152 259.472 233.754 259.458L233.908 259.444C233.95 259.444 233.992 259.444 234.048 259.444H234.188H234.258L234.468 259.43H234.552H234.692C235.21 259.416 235.742 259.402 236.246 259.388L236.204 260.228L234.776 260.256C234.538 260.97 234.188 261.698 233.698 262.16C234.244 262.426 234.776 262.79 235.182 263.056L234.496 263.742C234.104 263.476 233.628 263.084 233.054 262.776ZM232.9 253.41H234.258V252.738H232.9V253.41ZM230.618 253.41H231.99V252.738H230.618V253.41ZM232.9 254.894H234.258V254.18H232.9V254.894ZM230.618 254.894H231.99V254.18H230.618V254.894ZM237.352 254.782C237.366 254.88 237.38 254.964 237.394 255.062L237.408 255.202C237.422 255.286 237.45 255.384 237.464 255.482L237.478 255.622C237.492 255.65 237.492 255.664 237.492 255.692L237.52 255.832C237.73 256.966 237.996 258.114 238.346 259.024C238.878 257.834 239.2 256.238 239.396 254.614H237.352C237.38 254.642 237.366 254.712 237.352 254.782ZM230.268 257.876H231.99V257.008H230.268V257.876ZM232.9 257.876H234.594V257.008H232.9V257.876ZM231.15 261.012C231.752 261.194 232.396 261.474 232.928 261.726C233.348 261.362 233.572 260.802 233.768 260.256L231.528 260.326C231.416 260.536 231.29 260.802 231.15 261.012Z" fill="#381805"/>
<path d="M273.656 259.584C273.418 260.83 272.774 262.818 271.64 263.994L270.828 263.21C272.438 261.544 272.76 258.632 272.76 256.798V252.36L273.572 252.584C273.964 252.528 274.356 252.472 274.762 252.402L274.916 252.388C275.042 252.36 275.168 252.346 275.294 252.318L275.448 252.29C275.49 252.29 275.546 252.276 275.588 252.262L275.742 252.248C275.798 252.234 275.84 252.22 275.896 252.22L276.05 252.192C276.078 252.178 276.092 252.178 276.12 252.178L276.274 252.15C276.316 252.136 276.372 252.122 276.428 252.122L276.568 252.094C278.066 251.814 279.452 251.478 280.362 251.156L281.272 251.982C280.306 252.29 279.06 252.598 277.744 252.85L277.604 252.878L277.45 252.906C277.31 252.934 277.156 252.962 277.016 252.99L276.876 253.018C276.75 253.046 276.624 253.06 276.498 253.088L276.358 253.116C276.19 253.144 276.008 253.172 275.84 253.2L275.7 253.214C275.056 253.326 274.44 253.41 273.838 253.494V254.6H281.664V259.584H273.656ZM273.81 258.562H280.572V255.636H273.838V256.868C273.838 256.938 273.838 257.008 273.838 257.092V257.274C273.838 257.638 273.838 258.072 273.81 258.562ZM288.622 253.2C288.244 253.83 287.712 254.432 287.208 254.908L286.452 254.138C287.236 253.494 288.132 252.262 288.552 251.072L289.616 251.352C289.504 251.688 289.322 252.052 289.168 252.318H292.374V253.2H290.652C290.848 253.494 291.086 253.942 291.156 254.222L290.176 254.572C290.078 254.208 289.84 253.648 289.588 253.2H288.622ZM298.492 257.33V258.226H291.73V257.33H293.466V255.93H291.996V255.076H293.466V253.984H294.376V255.076H296.014V254.012L295.426 254.264C295.356 253.998 295.174 253.55 294.964 253.2H293.956C293.648 253.718 293.284 254.222 292.906 254.656L292.08 253.9C292.738 253.312 293.424 252.164 293.76 251.128L294.712 251.38C294.614 251.702 294.586 252.024 294.46 252.262H298.422V253.2H296.014C296.154 253.396 296.308 253.69 296.378 253.872L296.098 253.984H296.98V255.076H298.38V255.93H296.98V257.33H298.492ZM289.728 260.256V264.022H288.734V260.564C288.202 261.516 287.348 262.734 286.732 263.308L286.102 262.538C286.9 261.894 288.006 260.396 288.538 259.304H286.438V258.464H288.734V257.568H286.928V256.714H288.734V255.86H286.718V255.02H288.734V253.984H289.728V255.02H291.45V255.86H289.728V256.714H291.268V257.568H289.728V258.464H291.618V259.304H289.896C290.456 259.822 291.632 261.152 291.94 261.474L291.296 262.272C290.974 261.852 290.274 260.844 289.728 260.256ZM294.376 257.33H296V255.93H294.376V257.33ZM297.834 258.954V263.672H292.598V258.954H297.834ZM293.606 260.844H296.798V259.766H293.606V260.844ZM293.606 262.86H296.798V261.6H293.606V262.86ZM314.018 262.818L313.682 264.022C311.834 263.644 310.224 262.86 309.174 261.978C307.97 262.79 306.43 263.574 304.82 263.98L304.484 262.916C305.716 262.664 307.144 262.006 308.278 261.264C307.088 260.158 306.206 258.408 305.618 256.714H305.562C305.184 259.206 304.134 262.202 302.384 263.728L301.614 262.888C304.134 260.858 304.722 256.252 304.848 252.906H302.328V251.842H309.902L310.084 251.772L310.91 251.898C310.84 252.458 310.728 253.186 310.602 253.9L310.574 254.054C310.462 254.628 310.336 255.202 310.224 255.692H312.142L312.31 255.622L313.038 255.944C312.492 258.072 311.302 260.088 309.958 261.25C311.05 261.964 312.66 262.622 314.018 262.818ZM305.744 255.692H309.244C309.426 254.782 309.482 253.676 309.608 252.906H305.912C305.898 253.116 305.898 253.326 305.884 253.536V253.662C305.87 253.858 305.87 254.04 305.856 254.236L305.842 254.446C305.828 254.866 305.8 255.286 305.744 255.692ZM306.598 256.714C307.158 258.114 307.872 259.626 309.02 260.564C310.224 259.668 311.134 258.184 311.666 256.714H306.598ZM323.356 255.986C322.39 259.36 320.556 262.44 317.84 264.036L317.126 262.986C319.856 261.572 321.648 258.268 322.446 254.614L323.104 254.712C323.02 254.11 322.95 253.48 322.922 253.018H319.646V251.926H324.014C324.014 254.222 324.56 259.976 329.572 262.958L328.872 263.994C325.582 262.006 323.944 258.436 323.356 255.986ZM344.034 257.974V263.294H333.45V257.974H334.556V262.202H338.07V257.162H333.982V252.374H335.088V256.098H338.07V251.198H339.176V256.098H342.312V252.374H343.474V257.162H339.176V262.202H342.9V257.974H344.034ZM352.504 259.542L348.15 261.656L347.744 260.564C348.094 260.438 348.556 260.242 349.032 260.032L349.172 259.976C349.326 259.906 349.48 259.836 349.648 259.766V255.426H348.01V254.39H349.648V251.268H350.656V254.39H352.084V254.572H354.268C354.17 254.152 353.946 253.676 353.736 253.27L354.38 253.074H352.364V252.164H355.57V251.142H356.55V252.164H360.036V253.074H357.936L358.706 253.284C358.692 253.312 358.678 253.326 358.678 253.354L358.608 253.48C358.384 253.886 358.16 254.278 357.978 254.572H360.358V255.482H352.056V255.426H350.656V259.304C351.132 259.08 351.748 258.786 352.252 258.548L352.504 259.542ZM354.646 254.572H357.432L357.012 254.418C357.208 254.04 357.53 253.508 357.684 253.074H354.604C354.87 253.522 355.108 253.998 355.192 254.39L354.646 254.572ZM355.304 260.41C354.982 262.006 354.044 263.434 351.566 264.036L351.244 263.028C353.204 262.636 354.016 261.614 354.31 260.41H352.882V256.098H359.574V260.41H357.642V262.552C357.642 262.832 357.698 262.93 358.286 262.93H358.832C359.42 262.93 359.504 262.594 359.532 261.586L360.484 261.712C360.386 263.28 360.008 263.882 358.902 263.882H358.216C356.928 263.882 356.606 263.462 356.606 262.566V260.41H355.304ZM353.89 257.876H358.51V256.896H353.89V257.876ZM353.89 259.612H358.51V258.618H353.89V259.612ZM373.952 255.944V261.642H365.188V255.944H367.694L367.456 255.16C369.458 254.81 370.452 254.138 370.76 252.934H369.318C368.996 253.354 368.548 253.788 368.016 254.194L367.456 253.522C368.352 252.906 369.024 251.926 369.36 251.142L370.354 251.324C370.214 251.59 370.046 251.898 369.878 252.136H374.456L374.624 252.066L375.366 252.304C375.002 252.962 374.4 253.816 373.952 254.264L373.056 253.956C373.336 253.676 373.7 253.27 373.952 252.934H371.726C371.964 253.956 373.042 254.922 375.562 255.3L375.31 256.252C372.944 255.832 371.726 254.866 371.236 253.928C370.76 254.838 369.794 255.538 368.002 255.944H373.952ZM367.414 252.094V253.004H363.718V252.094H367.414ZM367.568 254.852C367.022 255.006 366.42 255.174 365.818 255.328L365.678 255.37L365.608 255.398L365.468 255.426C364.782 255.622 364.124 255.804 363.62 255.944L363.256 255.048C364.25 254.81 366.042 254.39 367.484 254.04L367.568 254.852ZM366.238 257.554H372.916V256.672H366.238V257.554ZM366.238 259.206H372.916V258.268H366.238V259.206ZM366.238 260.9H372.916V259.934H366.238V260.9ZM368.422 262.244C367.358 262.846 365.524 263.686 364.026 264.092L363.648 263.14C364.754 262.916 366.616 262.272 367.568 261.754L368.422 262.244ZM375.604 263.462L374.4 264.022C373.588 263.602 371.964 262.846 370.48 262.37L371.362 261.796C372.776 262.258 374.652 263.028 375.604 263.462ZM389.408 259.878V263.98H388.386V260.116L384.214 260.886L384.032 259.878L388.386 259.052V251.128H389.408V258.842L391.088 258.534L391.256 259.5L389.408 259.878ZM382.002 258.058V263.98H380.994V258.044C380.546 259.5 379.734 261.25 379.202 261.964L378.404 261.208C379.258 260.116 380.294 258.156 380.742 256.7H378.74V255.65H380.994V251.17H382.002V255.65H384.172V256.7H382.002V256.854C382.408 257.246 383.71 259.178 384.004 259.626L383.262 260.48C383.024 260.004 382.45 258.786 382.002 258.058ZM384.172 252.178C384.004 252.668 383.794 253.27 383.612 253.844L383.556 253.984C383.402 254.488 383.234 254.95 383.108 255.286L382.394 255.034C382.618 254.25 382.982 252.794 383.206 251.926L384.172 252.178ZM380.504 255.02L379.636 255.258C379.538 254.81 379.37 254.152 379.202 253.48L379.16 253.34C379.048 252.92 378.936 252.514 378.838 252.164L379.636 251.968C379.93 252.892 380.322 254.278 380.504 255.02ZM387.756 253.76L387.182 254.586C386.706 254.152 385.768 253.354 385.082 252.808L385.642 252.052C386.314 252.556 387.28 253.34 387.756 253.76ZM387.252 257.036L386.692 257.918C386.398 257.68 385.88 257.302 385.376 256.924L385.25 256.84C384.942 256.616 384.634 256.392 384.368 256.224L384.886 255.44C385.614 255.902 386.748 256.658 387.252 257.036ZM307.97 278.196V278.966H306.976V270.734C306.71 271.182 306.416 271.686 306.108 272.008L305.296 271.182C306.458 270.006 307.452 267.976 307.984 266.1L309.048 266.366C308.824 267.15 308.474 267.976 308.152 268.676H310.084C310.448 267.892 310.812 266.87 311.036 266.156L312.156 266.45C311.876 267.15 311.456 268.046 311.148 268.676H313.934V269.656H311.036V271.42H313.598V272.372H311.036V274.234H313.598V275.214H311.036V277.188H314.172V278.196H307.97ZM304.176 278.77C303.84 278.924 303.14 278.98 302.146 278.966L302.09 277.902C302.538 277.93 303.21 277.93 303.378 277.916C303.546 277.916 303.588 277.832 303.588 277.636V273.87L301.698 274.472L301.446 273.38C301.978 273.254 302.832 273.03 303.588 272.82V269.838H301.698V268.83H303.588V266.128H304.652V268.83H306.01V269.838H304.652V272.484L305.954 272.092L306.108 273.1L304.652 273.534V277.636C304.652 278.182 304.498 278.602 304.176 278.77ZM307.97 271.42H310.084V269.656H307.97V271.42ZM307.97 274.234H310.084V272.372H307.97V274.234ZM307.97 277.188H310.084V275.214H307.97V277.188ZM326.576 271.826V278.98H325.484V271.826H322.348V270.748H325.484V266.156H326.576V270.748H329.726V271.826H326.576ZM322.054 266.604V267.5H317.742V266.604H322.054ZM322.46 268.34V269.264H317.014V268.34H322.46ZM322.054 270.188V271.084H317.672V270.188H322.054ZM322.054 272.022V272.932H317.672V272.022H322.054ZM322.026 273.912V278.308H317.658V273.912H322.026ZM318.638 277.398H321.06V274.836H318.638V277.398ZM341.024 278.952C340.604 279.008 339.876 278.98 339.008 278.938L338.994 277.944C339.61 278 340.31 278.028 340.618 278.028C340.884 278.028 341.01 277.986 341.15 277.748C341.318 277.58 341.458 277.104 341.584 276.544H334.696C334.64 276.88 334.612 277.3 334.542 277.594L333.408 277.482C333.576 276.67 333.786 275.48 333.982 274.248L334.024 274.024C334.066 273.772 334.108 273.52 334.15 273.268L334.164 273.128C334.178 273.1 334.178 273.072 334.178 273.044L334.206 272.904C334.248 272.61 334.304 272.316 334.346 272.036H332.386V271.028H334.542C334.584 270.706 334.626 270.37 334.668 270.034L334.682 269.894C334.682 269.824 334.696 269.754 334.71 269.684L334.724 269.53C334.724 269.488 334.738 269.446 334.738 269.39L334.752 269.25C334.766 269.222 334.766 269.194 334.766 269.18L334.78 269.04L334.794 268.886C334.892 268.13 334.962 267.402 335.046 266.758H343.418C343.418 266.758 343.404 267.248 343.404 267.388C343.404 267.416 343.404 267.444 343.404 267.472L343.39 267.626C343.39 267.794 343.376 267.962 343.376 268.144L343.362 268.284L343.348 268.438C343.348 268.536 343.348 268.62 343.334 268.718L343.32 268.872C343.278 269.656 343.222 270.384 343.18 271.028H345.014V272.036H343.138C343.04 273.408 342.97 274.724 342.886 275.536H344.65V276.544H342.704C342.564 277.37 342.396 277.986 342.144 278.28C341.892 278.714 341.486 278.896 341.024 278.952ZM335.606 271.028H342.144C342.158 270.132 342.256 268.998 342.298 267.808H336.012C335.97 268.186 335.928 268.592 335.872 269.012L335.858 269.152C335.844 269.18 335.844 269.208 335.844 269.222L335.83 269.362C335.816 269.488 335.802 269.6 335.788 269.726L335.76 269.936C335.704 270.3 335.662 270.678 335.606 271.028ZM340.604 269.936L339.876 270.706C339.386 270.188 338.112 269.334 337.202 268.872L337.832 268.2C338.742 268.62 340.058 269.432 340.604 269.936ZM334.906 275.536H341.78C341.892 274.724 342.004 273.436 342.088 272.036H335.424C335.368 272.372 335.326 272.736 335.27 273.1L335.256 273.24L335.242 273.31L335.214 273.52C335.2 273.548 335.2 273.576 335.2 273.604L335.172 273.744C335.088 274.388 334.99 275.018 334.906 275.536ZM340.352 274.57L339.624 275.312C338.952 274.78 337.608 273.786 336.684 273.156L337.37 272.484C338.308 273.086 339.694 274.066 340.352 274.57ZM359.812 267.402V271.392H353.974V267.402H355.5V266.156H356.34V267.402H357.25V266.156H358.076V267.402H359.812ZM349.872 276.404V278.98H348.962V272.386H348.136V270.356H348.962V266.59H352.784V270.356H353.582V272.008H360.302V272.834H353.582V272.386H352.812V277.944C352.812 278.35 352.756 278.686 352.49 278.812C352.196 278.952 351.65 278.98 350.852 278.98L350.796 278.112C351.146 278.126 351.65 278.126 351.776 278.112C351.888 278.112 351.93 278.056 351.93 277.93V276.404H349.872ZM349.774 270.356H350.474V268.228H352.028V267.402H349.774V270.356ZM356.34 269.012H357.25V268.13H356.34V269.012ZM354.8 269.012H355.626V268.13H354.8V269.012ZM357.936 269.012H358.958V268.13H357.936V269.012ZM351.174 270.356H352.028V268.942H351.174V270.356ZM356.34 270.622H357.25V269.698H356.34V270.622ZM354.8 270.622H355.626V269.698H354.8V270.622ZM357.936 270.622H358.958V269.698H357.936V270.622ZM348.962 272.036H352.784V271.154H348.962V272.036ZM349.872 273.772H351.93V272.834H349.872V273.772ZM359.56 273.436V276.124H354.226V273.436H359.56ZM355.122 275.382H358.636V274.192H355.122V275.382ZM349.872 275.592H351.93V274.556H349.872V275.592ZM360.4 277.874V278.714H353.316V277.874H355.416C355.318 277.482 355.094 276.782 354.87 276.404L355.668 276.152C355.92 276.614 356.088 277.384 356.172 277.79L356.102 277.874H357.446L357.348 277.818C357.572 277.412 357.88 276.572 358.006 276.138L358.902 276.376C358.636 276.824 358.37 277.496 358.16 277.874H360.4Z" fill="#381805"/>
<path d="M195.5 243L189.005 231.75L201.995 231.75L195.5 243Z" fill="#FFEAAD" fill-opacity="0.8"/>
<path d="M323.5 243L317.005 231.75L329.995 231.75L323.5 243Z" fill="#FFEAAD" fill-opacity="0.8"/>
<defs>
<clipPath id="clip0_2604_5699">
<rect width="52" height="52" fill="white" transform="translate(190.654 140.604)"/>
</clipPath>
</defs>
</svg>
