<svg width="687" height="524" viewBox="0 0 687 524" fill="none" xmlns="http://www.w3.org/2000/svg">
<path d="M693.446 0.161454C693.446 0.161454 533.104 317.372 310.965 344.567C209.547 356.983 131.765 463.045 131.765 463.045" stroke="#E7F3FF" stroke-miterlimit="10" stroke-linecap="round"/>
<path d="M695.904 18.9456C695.904 18.9456 647.437 90.5119 579.901 167.096C524.561 229.849 447.657 295.086 360.223 330.538C342.314 337.849 323.679 343.243 304.632 346.63C207.031 363.975 137.04 464.393 127.078 467.656" stroke="#E7F3FF" stroke-miterlimit="10" stroke-linecap="round"/>
<path d="M698.362 37.7298C698.362 37.7298 641.851 100.848 575.205 170.903C520.339 228.589 441.018 289.054 352.441 329.969C335.074 338.032 316.931 344.306 298.292 348.694C204.509 370.967 142.318 465.741 122.378 472.273" stroke="#E7F3FF" stroke-miterlimit="10" stroke-linecap="round"/>
<path d="M700.811 56.5154C700.811 56.5154 636.242 111.183 570.515 174.729C516.097 227.347 434.379 282.932 344.662 329.424C327.805 338.169 310.163 345.314 291.969 350.763C201.936 377.749 147.61 467.092 117.711 476.887" stroke="#E7F3FF" stroke-miterlimit="10" stroke-linecap="round"/>
<path d="M703.276 75.2954C703.276 75.2954 630.584 121.501 565.818 178.547C511.831 226.098 427.692 276.714 336.88 328.861C320.501 338.27 303.359 346.284 285.635 352.82C199.387 384.689 152.889 468.434 113.023 481.496" stroke="#E7F3FF" stroke-miterlimit="10" stroke-linecap="round"/>
<path d="M705.742 94.0781C705.742 94.0781 624.911 131.821 561.135 182.364C507.543 224.832 420.983 270.4 329.112 328.297C313.175 338.341 296.534 347.225 279.319 354.88C196.86 391.652 158.185 469.779 108.355 486.104" stroke="#E7F3FF" stroke-miterlimit="10" stroke-linecap="round"/>
<path d="M708.208 112.861C708.208 112.861 619.199 142.12 556.449 186.18C503.221 223.556 414.228 264.004 321.328 327.737C305.789 338.393 289.647 348.144 272.983 356.943C194.308 398.635 163.466 471.126 103.665 490.719" stroke="#E7F3FF" stroke-miterlimit="10" stroke-linecap="round"/>
<path d="M710.651 131.647C710.651 131.647 613.423 152.388 551.744 190C498.848 222.258 407.41 257.54 313.533 327.181C296.398 339.893 280.797 350.193 266.637 359.01C191.755 405.628 168.733 472.479 98.9699 495.332" stroke="#E7F3FF" stroke-miterlimit="10" stroke-linecap="round"/>
<path d="M713.111 150.431C713.111 150.431 607.615 162.608 547.05 193.818C494.45 220.921 400.523 251.007 305.749 326.621C288.777 340.163 273.704 351.349 260.305 361.073C189.241 412.647 174.013 473.827 94.2801 499.947" stroke="#E7F3FF" stroke-miterlimit="10" stroke-linecap="round"/>
<path d="M715.567 169.204C715.567 169.204 601.778 172.76 542.356 197.625C490.024 219.533 393.588 244.425 297.98 326.069C281.156 340.431 266.624 352.516 253.984 363.142C186.73 419.7 179.305 475.18 89.6081 504.564" stroke="#E7F3FF" stroke-miterlimit="10" stroke-linecap="round"/>
<path d="M718.027 188.002C718.027 188.002 595.921 182.858 537.668 201.456C485.579 218.084 386.581 237.802 290.187 325.507C273.502 340.688 259.524 353.679 247.641 365.203C184.222 426.741 184.574 476.527 84.9103 509.178" stroke="#E7F3FF" stroke-miterlimit="10" stroke-linecap="round"/>
<path d="M720.484 206.781C720.484 206.781 590.057 192.856 532.97 205.269C481.136 216.54 379.53 231.128 282.402 324.941C265.849 340.933 252.46 354.858 241.305 367.266C181.889 433.887 189.856 477.868 80.2248 513.783" stroke="#E7F3FF" stroke-miterlimit="10" stroke-linecap="round"/>
<path d="M722.941 225.565C722.941 225.565 584.22 202.764 528.281 209.086C476.699 214.917 372.414 224.439 274.621 324.383C258.189 341.179 245.361 356.012 234.964 369.328C179.358 440.881 195.136 479.216 75.5378 518.398" stroke="#E7F3FF" stroke-miterlimit="10" stroke-linecap="round"/>
<path d="M725.402 244.349C725.402 244.349 578.44 212.595 523.587 212.905C472.321 213.204 365.232 217.709 266.839 323.822C162.775 436.048 224.516 472.669 70.8536 523.009" stroke="#E7F3FF" stroke-miterlimit="10" stroke-linecap="round"/>
</svg>
