<svg width="67" height="567" viewBox="0 0 67 567" fill="none" xmlns="http://www.w3.org/2000/svg">
<path opacity="0.5" d="M7 548.872C7 553.509 9.54748 558.156 14.6176 561.694C24.7745 568.769 41.2338 568.769 51.3824 561.694C56.4525 558.156 59 553.509 59 548.872V388H7V548.872Z" fill="url(#paint0_linear_986_5896)"/>
<path opacity="0.5" fill-rule="evenodd" clip-rule="evenodd" d="M58.2252 15.4831C59.5276 17.7801 59.9671 20.6298 59.6494 23.7912L59.0228 66.4172L59.0228 208.455H7.38282L7.38281 47.4747C7.38281 44.5995 8.35417 41.7205 10.291 39.1041C13.2266 32.7939 18.2603 26.2092 24.7913 20.7207C38.4082 9.2772 53.3771 6.93224 58.2252 15.4831Z" fill="url(#paint1_linear_986_5896)"/>
<path d="M56.5584 17.1062C58.4589 20.4581 58.2071 25.6977 55.4713 31.9358C52.77 38.0952 47.8254 44.7363 41.2258 50.2826C34.6262 55.8288 27.7725 59.1028 22.0842 59.9939C16.3232 60.8964 12.2099 59.3252 10.3094 55.9733C8.40894 52.6213 8.6607 47.3818 11.3965 41.1437C14.0978 34.9842 19.0424 28.3431 25.6421 22.7969C32.2417 17.2506 39.0953 13.9766 44.7837 13.0855C50.5447 12.183 54.6579 13.7542 56.5584 17.1062Z" stroke="#FFD75F" stroke-width="4"/>
<path d="M3.2 25.354H5.6L12.14 35.094V25.354H14.68V39.334H12.28L5.74 29.574V39.334H3.2V25.354ZM18.0867 25.354H27.5467V27.454H20.6267V31.294H25.7667V33.394H20.6267V37.234H27.5467V39.334H18.0867V25.354ZM29.6633 25.354H32.3033L35.0833 35.234L37.8233 25.354H39.7833L42.5233 35.234L45.3033 25.354H47.9433L43.9633 39.334H41.6033L38.8033 29.614L36.0033 39.334H33.6433L29.6633 25.354ZM54.0877 39.634C53.261 39.634 52.441 39.554 51.6277 39.394C50.8277 39.2473 50.1677 39.0473 49.6477 38.794V36.614C50.3143 36.934 51.0143 37.174 51.7477 37.334C52.481 37.494 53.201 37.574 53.9077 37.574C54.801 37.574 55.481 37.4073 55.9477 37.074C56.4143 36.7407 56.6477 36.2807 56.6477 35.694C56.6477 35.2807 56.541 34.9407 56.3277 34.674C56.1143 34.394 55.801 34.154 55.3877 33.954C54.9743 33.7407 54.341 33.4673 53.4877 33.134C52.181 32.6007 51.2343 32.0073 50.6477 31.354C50.061 30.7007 49.7677 29.8873 49.7677 28.914C49.7677 28.154 49.9743 27.4807 50.3877 26.894C50.801 26.3073 51.381 25.854 52.1277 25.534C52.8743 25.214 53.7343 25.054 54.7077 25.054C55.5077 25.054 56.2143 25.1207 56.8277 25.254C57.4543 25.374 58.0677 25.5673 58.6677 25.834V27.954C57.5077 27.394 56.3343 27.114 55.1477 27.114C54.2943 27.114 53.6343 27.274 53.1677 27.594C52.701 27.9007 52.4677 28.3407 52.4677 28.914C52.4677 29.3273 52.5743 29.6673 52.7877 29.934C53.001 30.1873 53.281 30.4073 53.6277 30.594C53.9877 30.7673 54.6277 31.0473 55.5477 31.434C56.481 31.8207 57.2143 32.2007 57.7477 32.574C58.2943 32.9473 58.701 33.3873 58.9677 33.894C59.2477 34.3873 59.3877 34.994 59.3877 35.714C59.3877 36.954 58.941 37.9207 58.0477 38.614C57.1543 39.294 55.8343 39.634 54.0877 39.634Z" fill="#381805"/>
<path d="M26.92 103.34C29.58 103.34 31.26 105.04 31.26 107.28C31.26 109.98 29.54 111.9 25.12 116.34H31.62L31.38 118H22.84V116.42C27.94 111.1 29.2 109.72 29.2 107.38C29.2 105.86 28.22 104.98 26.82 104.98C25.6 104.98 24.8 105.46 23.84 106.56L22.54 105.52C23.7 104.06 25.12 103.34 26.92 103.34ZM28.02 133.34C31.26 133.34 32.86 136.02 32.86 140.78C32.86 145.58 31.26 148.26 28.02 148.26C24.78 148.26 23.18 145.58 23.18 140.78C23.18 136 24.78 133.34 28.02 133.34ZM28.02 134.92C26.22 134.92 25.26 136.56 25.26 140.78C25.26 145.04 26.22 146.68 28.02 146.68C29.82 146.68 30.8 145.04 30.8 140.78C30.8 136.56 29.82 134.92 28.02 134.92ZM26.92 163.34C29.58 163.34 31.26 165.04 31.26 167.28C31.26 169.98 29.54 171.9 25.12 176.34H31.62L31.38 178H22.84V176.42C27.94 171.1 29.2 169.72 29.2 167.38C29.2 165.86 28.22 164.98 26.82 164.98C25.6 164.98 24.8 165.46 23.84 166.56L22.54 165.52C23.7 164.06 25.12 163.34 26.92 163.34ZM26.86 193.34C29.62 193.34 31.14 195.06 31.14 197C31.14 198.84 29.94 199.94 28.32 200.34C30.14 200.5 31.6 201.64 31.6 203.84C31.6 206.36 29.66 208.26 26.66 208.26C24.94 208.26 23.42 207.64 22.32 206.32L23.52 205.22C24.46 206.2 25.44 206.64 26.6 206.64C28.42 206.64 29.52 205.52 29.52 203.8C29.52 201.82 28.4 201.22 26.64 201.22H25.56L25.8 199.68H26.54C27.96 199.68 29.14 198.82 29.14 197.14C29.14 195.78 28.2 194.94 26.76 194.94C25.6 194.94 24.74 195.32 23.78 196.22L22.74 195.04C23.96 193.9 25.3 193.34 26.86 193.34ZM38.36 228.14V236.08H25.92V228.06H29.68C29.52 227.68 29.16 227.1 28.9 226.84C31.92 226.34 33.16 225.32 33.6 223.78H31.82C31.36 224.34 30.78 224.9 30.02 225.48L29.12 224.4C30.34 223.58 31.24 222.24 31.7 221.14L33.32 221.4C33.16 221.76 32.94 222.12 32.72 222.48H38.92L39.2 222.42L40.4 222.74C39.92 223.72 39.1 224.88 38.46 225.54L37.04 225.1C37.4 224.76 37.74 224.24 38.04 223.78H35.34C35.7 225.12 37.06 226.46 40.6 226.94L40.18 228.48C39.42 228.34 38.82 228.26 38.36 228.14ZM28.98 222.5V223.88H23.82V222.5H28.98ZM29.18 226.56C28.62 226.72 28.02 226.9 27.42 227.06L27.1 227.14L26.9 227.2L26.7 227.26C25.6 227.56 24.5 227.86 23.64 228.08L23.08 226.6C24.28 226.36 26.18 225.94 27.98 225.5L28.18 225.46C28.46 225.38 28.74 225.32 29.02 225.24L29.18 226.56ZM30.26 228.06H38.08C36.2 227.46 35.06 226.44 34.48 225.44C33.76 226.6 32.5 227.52 30.26 228.06ZM27.66 230.36H36.54V229.18H27.66V230.36ZM27.66 232.62H36.54V231.42H27.66V232.62ZM27.66 234.96H36.54V233.72H27.66V234.96ZM30.6 236.92C29.06 237.9 26.6 238.98 24.36 239.58L23.74 238.06C25.28 237.76 27.8 236.92 29.1 236.14L30.6 236.92ZM40.66 238.62L38.54 239.48C37.4 238.86 35.34 237.86 33.44 237.18L34.74 236.28C36.76 236.96 39.3 237.98 40.66 238.62ZM38.54 263.82V269.42H36.84V264.1L31.18 265.18L30.9 263.52L36.84 262.36V251.16H38.54V262.08L40.78 261.66L41.02 263.32L38.54 263.82ZM28.04 261.66V269.4H26.34V261.62C25.68 263.5 24.64 265.78 23.98 266.68L22.7 265.38C23.92 263.88 25.14 261.22 25.76 259.3H23.24V257.62H26.34V251.24H28.04V257.62H30.92V259.3H28.04V259.52C28.6 260.12 30.34 262.68 30.74 263.24L29.6 264.68C29.3 264 28.68 262.64 28.04 261.66ZM31.08 252.6C30.92 253.1 30.76 253.64 30.6 254.2L30.54 254.4L30.48 254.6C30.2 255.52 29.92 256.42 29.64 257.02L28.5 256.68C28.9 255.54 29.3 253.54 29.52 252.26L31.08 252.6ZM25.68 256.66L24.32 257.02C24.2 256.44 24.02 255.62 23.84 254.78L23.78 254.58L23.74 254.36C23.6 253.76 23.44 253.18 23.32 252.66L24.58 252.34C24.72 252.78 24.86 253.3 24.98 253.8L25.04 254.02L25.1 254.22C25.32 255.12 25.54 256.02 25.68 256.66ZM36.04 254.72L35.1 256.08C34.42 255.46 33.18 254.36 32.2 253.58L33.12 252.38C34.1 253.1 35.34 254.1 36.04 254.72ZM35.36 259.42L34.46 260.86C33.76 260.28 32.3 259.2 31.28 258.48L32.12 257.2C32.54 257.46 33.02 257.78 33.5 258.1L33.68 258.22C34.34 258.68 34.96 259.1 35.36 259.42ZM26.88 285.32C26.12 286.04 25.06 286.8 23.96 287.5L23.04 286.12C25.18 284.84 27.14 282.88 28.04 281.36H29.66C31.02 282.36 32.72 283.92 33.68 284.88L32.5 286.24C32.2 285.9 31.78 285.48 31.34 285.02V286.08H26.88V285.32ZM39.16 299.06C38.52 299.34 37.32 299.42 35.42 299.4L35.32 297.56C36.26 297.62 37.46 297.62 37.84 297.62C38.14 297.62 38.36 297.4 38.36 297.08V281.52H40.1V297.08C40.1 298.12 39.82 298.76 39.16 299.06ZM27.36 284.84H27.38H31.14C30.96 284.66 30.76 284.46 30.58 284.28L30.44 284.14L30.3 284C29.92 283.6 29.52 283.22 29.12 282.88C28.66 283.48 28.02 284.2 27.36 284.84ZM35.68 283.44V294.36H34.02V283.44H35.68ZM26.04 295.1C25.68 296.4 25 297.98 24.18 298.98C23.94 298.66 23.26 298.06 22.94 297.86C24.66 295.74 25 292.28 25 290.14V287.04H32.72V292.76H26.44C26.4 293.08 26.32 293.54 26.26 293.88H33.02V298.84H26.04V295.1ZM26.6 289.32H31.1V288.32H26.6V289.32ZM26.56 291.48H31.1V290.42H26.6C26.6 290.72 26.58 291.16 26.56 291.48ZM27.6 297.48H31.44V295.2H27.6V297.48ZM28.78 324.54V329.38H27.02V324.6C26.16 325.86 24.98 327.24 23.98 328.02L22.94 326.64C24.12 325.86 25.74 323.92 26.66 322.38H23.34V320.86H27.02V318.98H23.28V317.46H25.32C25.26 316.8 24.92 315.64 24.6 314.9L25.98 314.56H23.54V313.08H27.02V311.26H28.78V313.08H32.04V314.56H29.68L31.04 314.9C30.96 315.12 30.86 315.34 30.78 315.58L30.7 315.78C30.44 316.4 30.2 317.04 29.98 317.46H32.26V318.98H28.78V320.86H32.08V322.38H28.78V322.7C29.46 323.18 31.14 324.82 31.58 325.18L30.52 326.5C30.16 326.06 29.48 325.2 28.78 324.54ZM34.54 319.26V319.54C34.54 322.34 34.16 326.9 31.58 329.5C31.38 329.12 30.72 328.46 30.32 328.22C32.6 325.92 32.92 322.04 32.92 319.44V312.66L34.12 313C35.96 312.58 38.06 311.96 39.22 311.36L40.7 312.64C39.84 313.04 38.68 313.4 37.5 313.7L37.3 313.76C36.36 314 35.4 314.22 34.54 314.4V317.6H40.9V319.26H38.8V329.3H37.04V319.26H34.54ZM25.74 317.46H29.88L28.7 317.16C29 316.44 29.38 315.32 29.56 314.56H26.06C26.44 315.36 26.78 316.5 26.86 317.16L25.74 317.46ZM26.14 348.98C26.12 350.08 26.06 351.42 25.9 352.82L25.88 353.04C25.62 355.36 25.12 357.8 24.28 359.46C24 359.16 23.24 358.54 22.88 358.36C24.22 355.68 24.46 351.16 24.46 348.4V342.54H31.64V341.14H33.52V342.54H40.72V344.04H32.82L34.2 344.42C34.02 344.86 33.78 345.36 33.52 345.8H35.26C35.54 345.3 35.86 344.6 36.02 344.16L37.66 344.58C37.6 344.66 37.54 344.74 37.5 344.82L37.38 345C37.22 345.28 37.04 345.56 36.88 345.8H40.1V346.92H36.64V347.84H39.6V348.8H36.64V349.76H39.6V350.72H36.64V351.76H40.42V352.92H32.56C33.62 353.38 34.86 354.3 35.5 354.92L34.4 355.98C33.76 355.34 32.44 354.4 31.34 353.86L32.3 352.92H31.64V348.6C31.38 348.88 31.12 349.16 30.82 349.44L29.74 348.34C30.82 347.36 32 345.58 32.66 344.04H26.14V348.26C27.34 347.22 28.64 345.52 29.34 344.06L30.66 344.5C30.34 345.16 30.08 345.88 29.66 346.5V353.28H28.1V348.56C27.72 348.98 27.28 349.42 26.88 349.76C26.72 349.58 26.4 349.26 26.14 348.98ZM33.18 347.84H35.12V346.92H33.18V347.84ZM33.18 349.76H35.12V348.8H33.18V349.76ZM33.18 351.76H35.12V350.72H33.18V351.76ZM40.94 358.28L39.38 359.1C38.96 358.04 37.7 356.16 36.64 355.04L38.06 354.36C39.12 355.44 40.42 357.22 40.94 358.28ZM29.48 355.12C28.88 356.32 28.02 357.94 27.26 359L25.9 358.12C26.26 357.66 26.64 357.04 27.02 356.4L27.12 356.22C27.44 355.66 27.76 355.08 28.02 354.58L29.48 355.12ZM37.42 356.62C37.24 358.68 36.68 359.3 34.56 359.3H33.36C30.8 359.3 30.3 358.74 30.3 357.24V354.74H31.92V357.24C31.92 357.7 32.1 357.86 33.46 357.86H34.52C35.74 357.86 35.88 357.52 35.94 356.4L37.42 356.62ZM26.88 383.34C26.58 385.42 25.74 388.04 24.36 389.56C24.1 389.22 23.32 388.56 22.94 388.34C24.96 386.1 25.32 382.16 25.34 379.52V372.44H39.48V387.06C39.48 388.08 39.2 388.74 38.52 389C37.82 389.28 36.58 389.32 34.62 389.3L34.5 387.58C35.34 387.62 36.52 387.62 37.02 387.62H37.16C37.5 387.62 37.68 387.4 37.68 387.04V383.34H33.06V389.18H31.24V383.34H26.88ZM33.06 376.94H37.68V374.16H33.06V376.94ZM27.12 376.94H31.24V374.16H27.12V376.94ZM27.02 381.62H31.24V378.62H27.12V379.44C27.12 380.08 27.08 380.92 27.02 381.62ZM33.06 381.62H37.68V378.62H33.06V381.62ZM31.6 405.84V407.26H23.2V405.84H25.24C25.16 405.28 24.9 404.52 24.7 403.98L25.04 403.94H23.6V402.52H26.84V401.18H28.46V402.52H31.46V403.94H30.26L30.48 404C30.2 404.64 30.1 405.34 29.9 405.84H31.6ZM40.84 405.84V407.26H32.08V405.84H33.76C33.66 405.28 33.56 404.52 33.34 403.98L33.6 403.94H32.3V402.52H35.22V401.18H36.94V402.52H40.52V403.94H39.2L39.4 403.96C39.22 404.36 39 404.78 38.8 405.18L38.72 405.34C38.64 405.52 38.56 405.68 38.48 405.84H40.84ZM26.38 405.84H28.74L28.4 405.76C28.58 405.28 28.86 404.5 29 403.94H26.18C26.44 404.52 26.68 405.28 26.76 405.76L26.38 405.84ZM34.96 405.84H37.34L36.92 405.74C37.14 405.26 37.46 404.5 37.64 403.94H34.86C35.14 404.52 35.22 405.28 35.26 405.76L34.96 405.84ZM35.18 413.16C34.96 416 34.26 418.38 31.28 419.5L30.64 418.02C32.9 417.24 33.54 415.4 33.7 413.16H32.7V408.22H39.88V413.16H38V417.06C38 417.24 38.06 417.3 38.1 417.36C38.16 417.44 38.34 417.54 38.64 417.54H38.92C39.22 417.54 39.46 417.44 39.56 417.38C39.62 417.3 39.74 417.16 39.76 417C39.8 416.7 39.84 415.88 39.84 415.36L41.2 415.58C41.14 416.72 41.04 417.78 40.96 418.18C40.84 418.52 40.6 418.78 40.3 418.96C40.06 419.12 39.62 419.2 38.88 419.2H38.36C37.64 419.2 37.12 419.08 36.82 418.82C36.5 418.52 36.38 418.1 36.38 417.16V413.16H35.18ZM26.84 413.14C26.66 415.78 25.96 418.18 23.78 419.48L22.9 418.06C24.56 417.2 25.1 415.24 25.24 413.14H24.06V408.24H30.92V413.14H29.58V416.22C30.2 416.02 30.88 415.74 31.52 415.5L31.8 416.98C31.56 417.08 31.32 417.18 31.08 417.28L30.88 417.36C30.56 417.52 30.22 417.68 29.88 417.82L29.7 417.9C29.12 418.16 28.56 418.4 28.04 418.6L27.58 417L28.14 416.76V413.14H26.84ZM34.34 411.8H38.1V409.56H34.34V411.8ZM25.68 411.76H29.44V409.58H25.68V411.76ZM25.4 433.62V435.34H23.74V432.26H31.08V431.12H32.9V432.26H40.32V435.34H38.6V433.62H25.4ZM30.8 447.42C29.26 448.22 26.56 449.08 24.18 449.46L23.76 448.18C25.1 447.98 27.42 447.3 28.76 446.78H26.66V441.92C25.82 442.38 24.84 442.84 23.82 443.18L23.2 441.7C24.52 441.36 26.48 440.44 27.68 439.52H23.56V438.26H28.34V437.44H25.9V436.46H28.34V435.72H25.62V434.66H28.34V433.92H29.86V434.66H34.12V433.92H35.66V434.66H38.4V435.72H35.66V436.46H38.2V437.44H35.66V438.26H40.5V439.52H36.62C37.8 440.4 39.62 441.24 40.84 441.52L40.24 443.04C39.18 442.7 38.2 442.26 37.4 441.78V446.78H35.3C35.7 446.88 36.12 447.02 36.54 447.14L36.74 447.22C36.78 447.22 36.82 447.24 36.84 447.24L37.06 447.32C38.28 447.72 39.48 448.16 40.28 448.42L38.72 449.44C37.4 448.94 35.28 448.08 33.14 447.46L33.9 446.78H29.94L30.8 447.42ZM29.86 436.46H34.12V435.72H29.86V436.46ZM29.86 438.26H34.12V437.44H29.86V438.26ZM28.84 440.38H35.42C35.12 440.12 34.84 439.76 34.6 439.52H29.54C29.28 439.76 29.14 440.12 28.84 440.38ZM28.32 442.2H35.62V441.34H28.32V442.2ZM28.32 443.98H35.62V443.12H28.32V443.98ZM28.32 445.8H35.62V444.9H28.32V445.8ZM26.32 473.36V479.42H24.48V465.44H31.36C31.3 464.84 31.24 464.14 31.18 463.52H27.94V461.94H32.72C32.78 463.16 32.9 464.4 33.1 465.44H39.64V477.12C39.64 478.12 39.4 478.8 38.7 479.08C38 479.36 36.74 479.4 34.9 479.4L34.78 477.56C35.64 477.6 36.98 477.62 37.32 477.62C37.66 477.6 37.84 477.4 37.84 477.12V473.06C37.44 473.4 36.74 474.18 36.48 474.64C34.26 473.44 32.9 471.14 32.08 468.66C31.24 471.26 29.78 473.56 27.46 474.76C27.26 474.4 26.72 473.72 26.32 473.36ZM26.32 467.18V473.26C28.62 472.1 30.04 469.84 30.7 467.18H26.32ZM33.48 467.18C34.2 469.74 35.58 471.98 37.84 473.04V467.18H33.48ZM36 505.96C34.96 507.24 33.62 508.62 31.9 509.52L31 507.8C32.66 507.04 34.02 505.66 35.02 504.26C34.4 503.12 33.96 501.62 33.58 500.16L33.54 499.96C33.52 499.86 33.48 499.76 33.46 499.66L33.42 499.46C33.38 499.36 33.36 499.26 33.34 499.16C33.02 499.74 32.66 500.28 32.32 500.76C32.1 500.5 31.6 500.04 31.22 499.74H29.2V504.44L32.1 503.78L32.28 505.4C31.38 505.6 30.44 505.84 29.52 506.08L29.3 506.12C29.24 506.14 29.16 506.16 29.1 506.18L28.88 506.24C28.58 506.3 28.26 506.38 27.96 506.46L27.76 506.52C26.08 506.94 24.5 507.34 23.28 507.6L22.94 505.76L24.08 505.5V496.82H25.72V505.22L27.42 504.8V494.12H23.36V492.4H32.14V494.12H29.2V498.04H31.48V498.64C32.28 497.44 32.88 495.78 33.34 494.02L33.38 493.82C33.6 492.92 33.8 492.02 33.96 491.12L35.72 491.44C35.68 491.66 35.64 491.88 35.6 492.1L35.56 492.3C35.54 492.4 35.54 492.5 35.52 492.6L35.48 492.8C35.44 492.96 35.42 493.12 35.38 493.28L35.36 493.46C35.28 493.88 35.2 494.28 35.1 494.68H40.9V496.36H39.62C39.14 499.34 38.24 502.3 37.08 504.3C38.04 505.72 39.54 507.12 40.92 507.78L39.94 509.48C38.36 508.64 36.96 507.26 36 505.96ZM34.42 496.7C34.5 497.12 34.58 497.54 34.68 497.98L34.74 498.18C34.76 498.34 34.8 498.5 34.84 498.68L34.9 498.88C35.22 500.16 35.6 501.42 36.08 502.44C36.86 500.86 37.44 498.6 37.78 496.36H34.4L34.42 496.7ZM40.56 533.14V534.72H23.46V533.14H31.06V531.6H25.06V530.18H31.06V528.78H25.4V521.84H38.58V528.78H32.88V530.18H38.92V531.6H32.88V533.14H40.56ZM32.88 527.3H36.74V523.3H32.88V527.3ZM27.12 527.3H31.06V523.3H27.12V527.3ZM36.08 524.18C35.6 525.16 35.08 526.3 34.68 527.04L33.56 526.6C33.72 526.26 33.9 525.8 34.08 525.34L34.14 525.16C34.36 524.62 34.56 524.1 34.7 523.68L36.08 524.18ZM30.28 526.44L29.06 526.9C28.86 526.2 28.46 524.96 27.94 524.12L29.1 523.72C29.62 524.54 30.12 525.72 30.28 526.44ZM40.72 538.82L38.92 539.5C38.48 538.62 37.36 536.94 36.5 535.92L38.16 535.38C39.02 536.36 40.24 537.92 40.72 538.82ZM27.32 535.82C26.7 536.94 25.78 538.52 25.12 539.5L23.4 538.74C24.02 537.92 24.96 536.44 25.56 535.38L27.32 535.82ZM35.34 538.9L33.72 539.34C33.56 538.54 33.14 537.02 32.74 536.04L34.44 535.7C34.84 536.64 35.18 538.12 35.34 538.9ZM30.86 539.08L29.1 539.32C29.1 538.54 28.98 537.02 28.86 536L30.46 535.86C30.68 536.84 30.86 538.32 30.86 539.08Z" fill="#381805" fill-opacity="0.7"/>
<path d="M27.488 80.72L27.488 76.4L43.352 76.4L43.352 85.232L39.392 85.232L39.392 80.72L27.488 80.72ZM28.376 77.288L28.376 79.808L40.304 79.808L40.304 84.344L42.464 84.344L42.464 77.288L28.376 77.288Z" fill="#FFFEF9"/>
<path d="M27.488 80.72L26.988 80.72L26.988 81.22L27.488 81.22L27.488 80.72ZM27.488 76.4L27.488 75.9L26.988 75.9L26.988 76.4L27.488 76.4ZM43.352 76.4L43.852 76.4L43.852 75.9L43.352 75.9L43.352 76.4ZM43.352 85.232L43.352 85.732L43.852 85.732L43.852 85.232L43.352 85.232ZM39.392 85.232L38.892 85.232L38.892 85.732L39.392 85.732L39.392 85.232ZM39.392 80.72L39.892 80.72L39.892 80.22L39.392 80.22L39.392 80.72ZM28.376 77.288L28.376 76.788L27.876 76.788L27.876 77.288L28.376 77.288ZM28.376 79.808L27.876 79.808L27.876 80.308L28.376 80.308L28.376 79.808ZM40.304 79.808L40.804 79.808L40.804 79.308L40.304 79.308L40.304 79.808ZM40.304 84.344L39.804 84.344L39.804 84.844L40.304 84.844L40.304 84.344ZM42.464 84.344L42.464 84.844L42.964 84.844L42.964 84.344L42.464 84.344ZM42.464 77.288L42.964 77.288L42.964 76.788L42.464 76.788L42.464 77.288ZM27.988 80.72L27.988 76.4L26.988 76.4L26.988 80.72L27.988 80.72ZM27.488 76.9L43.352 76.9L43.352 75.9L27.488 75.9L27.488 76.9ZM42.852 76.4L42.852 85.232L43.852 85.232L43.852 76.4L42.852 76.4ZM43.352 84.732L39.392 84.732L39.392 85.732L43.352 85.732L43.352 84.732ZM39.892 85.232L39.892 80.72L38.892 80.72L38.892 85.232L39.892 85.232ZM39.392 80.22L27.488 80.22L27.488 81.22L39.392 81.22L39.392 80.22ZM27.876 77.288L27.876 79.808L28.876 79.808L28.876 77.288L27.876 77.288ZM28.376 80.308L40.304 80.308L40.304 79.308L28.376 79.308L28.376 80.308ZM39.804 79.808L39.804 84.344L40.804 84.344L40.804 79.808L39.804 79.808ZM40.304 84.844L42.464 84.844L42.464 83.844L40.304 83.844L40.304 84.844ZM42.964 84.344L42.964 77.288L41.964 77.288L41.964 84.344L42.964 84.344ZM42.464 76.788L28.376 76.788L28.376 77.788L42.464 77.788L42.464 76.788Z" fill="#381805"/>
<defs>
<linearGradient id="paint0_linear_986_5896" x1="32.9956" y1="566.638" x2="32.9956" y2="386.919" gradientUnits="userSpaceOnUse">
<stop stop-color="#FFD75F" stop-opacity="0.7"/>
<stop offset="1" stop-color="#FFD75F" stop-opacity="0"/>
</linearGradient>
<linearGradient id="paint1_linear_986_5896" x1="33.207" y1="29.6983" x2="33.207" y2="209.536" gradientUnits="userSpaceOnUse">
<stop stop-color="#FFD75F" stop-opacity="0.7"/>
<stop offset="1" stop-color="#FFD75F" stop-opacity="0"/>
</linearGradient>
</defs>
</svg>
