<svg width="736" height="469" viewBox="0 0 736 469" fill="none" xmlns="http://www.w3.org/2000/svg">
<g clip-path="url(#clip0_4169_28794)">
<path d="M-99.7432 468.743C-99.7432 468.743 -46.4438 394.222 53.0452 351.64C152.534 309.057 277.933 326.996 347.816 261.921C417.7 196.847 429.688 120.98 429.688 120.98" stroke="#E7F3FF" stroke-miterlimit="10" stroke-linecap="round"/>
<path d="M-99.5479 462.582C-99.5479 462.582 -39.0771 398.54 65.383 352.24C168.229 306.891 286.538 320.845 359.069 253.938C429.739 188.581 444.246 115.23 444.246 115.23" stroke="#E7F3FF" stroke-miterlimit="10" stroke-linecap="round"/>
<path d="M-99.3472 456.421C-99.3472 456.421 -31.7051 402.852 77.7159 352.836C183.924 304.729 295.139 314.72 370.379 245.954C441.836 180.294 458.862 109.485 458.862 109.485" stroke="#E7F3FF" stroke-miterlimit="10" stroke-linecap="round"/>
<path d="M-99.1519 450.261C-99.1519 450.261 -24.431 406.913 90.0537 353.437C199.5 302.321 303.745 308.585 381.622 237.971C453.87 171.992 473.41 103.734 473.41 103.734" stroke="#E7F3FF" stroke-miterlimit="10" stroke-linecap="round"/>
<path d="M-98.9722 444.069C-98.9722 444.069 -17.1313 411.175 102.371 354.037C215.169 300.109 312.499 302.619 392.895 230.008C466.069 163.901 487.999 98.0049 487.999 98.0049" stroke="#E7F3FF" stroke-miterlimit="10" stroke-linecap="round"/>
<path d="M-98.7563 437.898C-98.7563 437.898 -9.76473 415.451 114.724 354.633C230.843 297.911 321.125 296.52 404.148 222.009C478.129 155.62 502.542 92.2393 502.542 92.2393" stroke="#E7F3FF" stroke-miterlimit="10" stroke-linecap="round"/>
<path d="M-98.5605 431.732C-98.5605 431.732 -2.42841 419.733 127.062 355.233C246.523 295.719 329.747 290.41 415.458 214.046C490.22 147.349 517.132 86.489 517.132 86.489" stroke="#E7F3FF" stroke-miterlimit="10" stroke-linecap="round"/>
<path d="M-98.3652 425.56C-98.3652 425.56 4.96396 424.02 139.395 355.829C262.207 293.542 338.368 284.296 426.706 206.042C502.276 139.083 531.706 80.7389 531.706 80.7389" stroke="#E7F3FF" stroke-miterlimit="10" stroke-linecap="round"/>
<path d="M-98.165 419.389C-98.165 419.389 12.2995 428.333 151.732 356.43C277.892 291.37 346.978 278.181 437.975 198.058C514.351 130.801 546.28 74.9886 546.28 74.9886" stroke="#E7F3FF" stroke-miterlimit="10" stroke-linecap="round"/>
<path d="M-97.9438 413.223C-97.9438 413.223 19.6921 432.645 164.096 357.03C293.607 289.209 355.615 272.056 449.269 190.075C526.437 122.525 560.88 69.2437 560.88 69.2437" stroke="#E7F3FF" stroke-miterlimit="10" stroke-linecap="round"/>
<path d="M-97.7744 407.052C-97.7744 407.052 27.038 436.963 176.403 357.626C309.276 287.053 364.21 265.946 460.512 182.096C538.471 114.244 575.428 63.4985 575.428 63.4985" stroke="#E7F3FF" stroke-miterlimit="10" stroke-linecap="round"/>
<path d="M-97.5737 400.881C-97.5737 400.881 34.41 441.291 188.741 358.227C324.971 284.902 372.78 259.796 471.786 174.113C550.527 105.958 590.023 57.7433 590.023 57.7433" stroke="#E7F3FF" stroke-miterlimit="10" stroke-linecap="round"/>
<path d="M-97.3784 394.715C-97.3784 394.715 41.787 445.64 201.073 358.822C340.676 282.755 381.39 253.66 483.054 166.129C562.576 97.666 604.576 51.993 604.576 51.993" stroke="#E7F3FF" stroke-miterlimit="10" stroke-linecap="round"/>
<path d="M-97.1831 388.544C-97.1831 388.544 49.1691 449.963 213.411 359.423C356.381 280.609 389.981 247.5 494.323 158.166C574.621 89.3693 619.15 46.2686 619.15 46.2686" stroke="#E7F3FF" stroke-miterlimit="10" stroke-linecap="round"/>
<path d="M-96.9824 382.378C-96.9824 382.378 56.7262 454.625 225.749 360.024C372.261 278.751 398.571 241.369 505.591 150.162C586.666 81.0726 633.725 40.4978 633.725 40.4978" stroke="#E7F3FF" stroke-miterlimit="10" stroke-linecap="round"/>
<path d="M-96.7871 376.206C-96.7871 376.206 64.1186 458.937 238.082 360.619C387.935 276.584 406.976 235.008 516.891 142.184C598.629 72.6167 648.324 34.7476 648.324 34.7476" stroke="#E7F3FF" stroke-miterlimit="10" stroke-linecap="round"/>
<path d="M-96.5918 370.035C-96.5918 370.035 71.4698 463.255 250.409 361.22C403.604 274.418 415.571 228.878 528.123 134.2C610.637 64.3303 662.888 29.0026 662.888 29.0026" stroke="#E7F3FF" stroke-miterlimit="10" stroke-linecap="round"/>
<path d="M-96.4019 363.869C-96.4019 363.869 78.8311 467.578 262.747 361.815C419.308 272.256 424.167 222.743 539.391 126.217C622.672 56.0489 677.436 23.2523 677.436 23.2523" stroke="#E7F3FF" stroke-miterlimit="10" stroke-linecap="round"/>
<path d="M-96.1958 357.698C-96.1958 357.698 86.2085 471.88 275.09 362.416C435.014 270.09 432.788 216.608 550.676 118.233C634.753 47.7626 692.047 17.5022 692.047 17.5022" stroke="#E7F3FF" stroke-miterlimit="10" stroke-linecap="round"/>
<path d="M-96.0005 351.527C-96.0005 351.527 93.5803 476.198 287.428 363.017C450.709 267.928 441.388 210.483 561.944 110.25C646.813 39.4812 706.585 11.752 706.585 11.752" stroke="#E7F3FF" stroke-miterlimit="10" stroke-linecap="round"/>
<path d="M-95.8003 345.361C-95.8003 345.361 100.947 480.511 299.76 363.612C466.403 265.762 449.994 204.353 573.213 102.287C658.873 31.2 721.169 6.00696 721.169 6.00696" stroke="#E7F3FF" stroke-miterlimit="10" stroke-linecap="round"/>
<path d="M-95.605 339.189C-95.605 339.189 108.319 484.823 312.098 364.213C482.093 263.585 458.61 198.217 584.481 94.2877C670.933 22.9135 735.743 0.256714 735.743 0.256714" stroke="#E7F3FF" stroke-miterlimit="10" stroke-linecap="round"/>
</g>
<defs>
<clipPath id="clip0_4169_28794">
<rect width="836" height="469" fill="white" transform="translate(-100)"/>
</clipPath>
</defs>
</svg>
