<svg width="229" height="228" viewBox="0 0 229 228" fill="none" xmlns="http://www.w3.org/2000/svg">
<g clip-path="url(#clip0_4669_5028)">
<path d="M202.17 199.16C199.02 199.49 198.95 197.74 198.98 195.36C199.053 190.587 199.11 185.813 199.15 181.04H191.59C193.59 181.19 194.34 182.15 194.15 184.67C193.869 188.33 193.816 192.004 193.99 195.67C194.11 198.35 193.32 199.35 190.49 199.27C184.02 199.08 177.49 199.21 171.06 199.21V199.77C164.47 199.77 157.89 199.69 151.31 199.77C149.08 199.77 148.39 199.06 148.49 196.89C148.69 192.89 148.71 188.96 148.71 185C148.664 184.366 148.778 183.73 149.04 183.15H143.6C143.48 187.89 143.4 192.64 143.45 197.38C143.45 199.38 142.6 199.82 140.81 199.83C133.91 199.87 127.01 199.977 120.11 200.15C118.26 200.15 117.48 199.63 117.52 197.67C117.64 192.563 117.66 187.447 117.58 182.32C117.58 180.52 118.23 179.91 119.95 179.94C123.5 180 127.05 179.94 130.61 179.94V179.64C134.16 179.64 137.72 179.7 141.27 179.64C143.05 179.64 143.66 180.29 143.62 182.04C143.62 182.41 143.62 182.79 143.62 183.16H149.06C149.4 182.57 150.06 182.26 151.34 182.24C164.4 181.967 177.453 181.57 190.5 181.05C190.869 181.03 191.24 181.03 191.61 181.05H199.17C199.25 173.29 199.313 165.523 199.36 157.75C199.407 156.074 199.276 154.398 198.97 152.75C198.16 148.98 196.97 148.1 193.11 148.16C184.95 148.3 176.79 148.41 168.64 148.65C166.75 148.7 165.95 148.21 165.46 146.24C163.15 137.08 157.85 130.36 148.91 126.74C143.47 124.54 138 122.46 132.11 121.74C131.45 121.66 130.43 121.74 130.44 120.74C130.396 120.269 130.497 119.795 130.729 119.382C130.961 118.97 131.314 118.637 131.74 118.43C132.456 118.339 133.183 118.39 133.88 118.58C135.98 118.817 138.098 118.336 139.89 117.216C141.682 116.096 143.043 114.402 143.75 112.41C145.45 107.69 144.04 102.56 140.2 100.19C139.684 99.969 139.252 99.5887 138.968 99.1047C138.683 98.6207 138.561 98.0584 138.62 97.5001C139.08 88.8801 135.87 81.3201 131.62 74.1301C127.71 67.5701 122.19 64.9601 114.62 66.1301C110.47 66.8101 106.44 68.0201 103.2 70.9201C102.807 71.2548 102.345 71.4998 101.848 71.638C101.35 71.7762 100.829 71.8042 100.32 71.7201C89.8695 71.1901 84.8495 75.4401 81.3895 85.9101C79.9095 90.3901 79.5095 95.1401 82.3895 99.5701C82.0395 99.7901 81.6995 100.02 81.3895 100.23C74.6895 104.09 74.2495 111.55 80.4995 116.04C82.4652 117.635 84.8746 118.584 87.3995 118.76C89.4995 118.76 89.7995 120.68 90.2395 122.04C90.7495 123.65 88.9395 123.28 88.1595 123.63C85.4895 124.83 82.6995 125.77 80.0395 126.98C75.0395 129.24 69.5695 131.68 66.9495 136.32C64.5795 140.53 61.6895 140.07 58.3095 140.17L54.5395 140.24C46.2495 140.43 45.7195 140.9 45.7595 149.3C45.8195 161.52 45.9495 173.74 46.0595 185.95C46.0595 186.37 46.0595 186.79 46.0595 187.21H51.2395C51.4395 186.01 52.2395 185.67 53.7595 185.69C60.3495 185.8 66.9295 183.05 73.5195 183.05C79.9995 183.05 86.6395 183.82 93.1195 183.69C95.3095 183.69 96.1195 184.35 96.0195 186.54C95.9395 189.77 95.9195 194.43 96.0895 197.66C96.1895 199.46 95.7495 200.3 93.7195 200.31C80.4395 200.43 67.1695 200.64 53.8895 200.87C52.1095 200.87 51.1695 200.48 51.2295 198.46C51.3395 195.01 51.3095 191.56 51.1795 188.12C51.1711 187.816 51.1912 187.511 51.2395 187.21H45.9995L46.0595 193.83C46.0595 195.91 46.6495 198.34 45.7795 200C44.6595 202.14 41.7795 200.68 39.7295 201.28C38.3295 201.7 36.5295 201.66 36.5195 203.6C36.5195 205.73 38.3695 205.92 39.9395 205.95C44.5395 206.03 49.1395 206.03 53.7395 205.95C96.6262 205.443 139.52 204.92 182.42 204.38C188.9 204.3 195.42 204.16 201.88 204.02C203.57 204.02 205.13 203.5 205.15 201.45C205.16 199.78 203.74 199 202.17 199.16ZM187.73 176.85C177.08 177.14 166.42 176.9 155.79 177.67C155.17 177.72 154.54 177.73 153.91 177.8C148.91 178.37 148.91 178.37 148.99 173.12C149.08 167.03 149.08 167.12 155.2 167.27C160.62 167.4 166.05 167.27 171.48 167.27V167.49C178.06 167.49 184.64 167.59 191.21 167.43C193.47 167.37 194.41 167.78 194.3 170.27C194 177.54 195.33 176.64 187.73 176.85ZM191.22 153.28C193.72 153.21 194.73 153.67 194.52 156.5C194.02 163.18 194.17 163.19 187.52 163.11C185.22 163.11 182.92 163.09 180.62 163.05C178.53 163.05 176.44 163.05 174.35 163.05C166.72 163.29 159.08 163.19 151.48 164.05C149.74 164.25 149.11 163.84 149.02 161.97C148.65 154.11 148.59 154.16 156.39 154.03C168.02 153.81 179.63 153.61 191.22 153.28ZM138.79 105.86C139.031 106.585 139.218 107.327 139.35 108.08C139.35 111.45 137.67 113.37 135.05 113.83C133.59 114.08 133.23 113.64 133.46 112.2C133.9 109.49 136.21 107.89 137.24 105.53C137.7 104.49 138.5 105.13 138.79 105.86ZM81.2795 106.75C81.8395 105.43 82.7795 104.21 84.2795 104.37C85.7795 104.53 85.1595 106.05 85.3595 106.98C85.8095 108.98 86.0895 111.05 86.5095 113.47C81.8495 112 80.0795 109.56 81.2795 106.75ZM87.4295 94.5301C86.1495 94.3301 85.6895 93.8601 85.5695 92.5301C85.3914 90.5128 85.639 88.4806 86.2963 86.565C86.9537 84.6495 88.006 82.8934 89.3852 81.4105C90.7644 79.9276 92.4398 78.7509 94.3027 77.9567C96.1656 77.1625 98.1746 76.7685 100.2 76.8001C102.14 77.1801 104.01 76.3901 105.91 75.0301C108.863 73.0171 112.26 71.7477 115.81 71.3301C120.06 70.7301 123.81 71.8901 126.21 75.6201C129.905 80.9643 132.362 87.0659 133.4 93.4801C133.49 94.0901 133.4 94.7401 133.53 95.3501C133.654 96.0756 133.551 96.822 133.234 97.4864C132.917 98.1508 132.402 98.7006 131.76 99.0601C130.76 99.6701 129.76 98.3901 128.89 97.6501C125.286 94.4397 121.028 92.0512 116.41 90.6501C112.16 89.3201 108.04 89.2801 104.06 91.7901C98.9395 95.0001 93.2895 95.4501 87.4295 94.5301ZM89.7695 101.82C89.6395 100.36 90.4195 99.9701 91.6595 100.06C97.7495 100.47 103.2 98.6301 108.26 95.4001C108.948 94.9062 109.799 94.6918 110.64 94.8001C118.27 96.0701 124.85 98.9801 128.55 106.36C129.034 107.172 129.191 108.137 128.99 109.06C127.32 115.77 124.55 121.89 119.11 126.45C116.506 128.665 113.235 129.943 109.82 130.08C105.843 129.93 102.078 128.25 99.3095 125.39C92.8095 118.89 90.4995 110.65 89.7695 101.82ZM53.3195 145.54C66.3195 145.54 79.2495 145.39 92.2095 145.09C95.4995 145.01 95.0595 146.91 95.0195 148.88C94.9795 150.85 95.6395 152.88 92.2595 152.75C85.7895 152.52 79.2595 152.68 72.8195 152.68V152.76C66.3395 152.76 59.8195 152.61 53.3795 152.82C49.5995 152.94 50.9895 150.29 50.6795 148.54C50.2995 146.48 50.9895 145.55 53.3195 145.54ZM57.4995 157.71C68.9795 157.61 80.4995 157.5 91.9495 157.24C94.3495 157.19 95.2895 157.69 95.2295 160.24C95.0995 166.48 95.8895 165.61 89.9995 165.67C84.1095 165.73 78.3095 165.67 72.5795 165.67C65.9895 165.98 59.5195 166.22 53.0695 166.67C51.5095 166.77 51.0695 166.34 50.9895 164.87C50.2895 157.7 50.2495 157.76 57.4995 157.71ZM89.0895 180.28C77.3895 180.47 65.6795 180.66 53.9795 180.99C51.7595 181.05 51.1195 180.42 51.0995 178.24C50.9995 170.97 50.9195 170.97 58.2795 170.99C63.2795 170.99 68.2795 170.99 73.3295 170.99V170.4C79.6995 170.4 86.0795 170.51 92.4395 170.34C94.7995 170.28 95.4395 171.03 95.5595 173.34C95.7495 180.22 95.8395 180.17 89.0395 180.28H89.0895ZM112.95 179.91C112.77 185.76 112.61 191.61 112.61 197.46C112.61 199.64 111.85 200.3 109.69 200.35C101.3 200.52 101.25 200.59 101.03 192.14L100.88 185.24C100.62 174.493 100.376 163.737 100.15 152.97C100.131 149.833 99.8572 146.703 99.3295 143.61C98.8495 141.02 97.4295 139.94 94.7695 139.99C87.6595 140.14 80.5395 140.13 73.4295 140.16C72.4295 140.16 71.4295 140.05 69.5395 139.95C72.8542 136.884 76.5883 134.305 80.6295 132.29C84.3995 130.5 88.3395 129.08 92.1395 127.29C93.4795 126.68 94.0095 127.39 94.7795 128.12C105.06 137.81 115.78 137.6 125.52 127.44C125.93 126.938 126.476 126.564 127.093 126.364C127.71 126.163 128.372 126.145 129 126.31C135.3 127.328 141.455 129.104 147.33 131.6C153.69 134.2 157.53 139.05 159.94 145.2C161.18 148.38 160.78 148.77 157.45 148.88C153.79 149.01 152.12 148.76 148.45 149.04C146.04 149.23 144.57 150.31 146.1 152.97C146.49 153.65 144.49 154.66 144.46 155.4C144.25 160.72 143.95 166.05 143.94 171.4C143.94 173.91 143.01 174.6 140.62 174.6C133.09 174.6 125.56 174.7 118.04 174.89C113.37 175 113.04 175.39 112.9 179.91H112.95Z" fill="#381805"/>
<path d="M173.659 40.1999C173.169 43.3299 172.659 47.1999 171.949 50.9499C171.579 52.8899 171.949 53.8399 174.049 54.1899C176.098 54.5464 178.107 55.0989 180.049 55.8399C182.349 56.7199 183.289 58.2299 181.959 60.7599C180.868 62.8926 179.525 64.8868 177.959 66.6999C171.459 74.0333 164.976 81.4033 158.509 88.8099C157.419 90.0499 156.329 91.2199 154.509 90.4699C152.509 89.6499 152.509 87.8499 152.939 86.1999C154.149 81.2999 156.579 76.8699 158.669 72.3299C160.549 68.2199 160.669 68.2499 156.179 66.8099C155.289 66.5199 154.389 66.2399 153.509 65.8999C149.419 64.3499 148.429 61.1399 150.939 57.4899C156.069 50.0599 162.269 43.5699 168.619 37.1999C169.619 36.1999 170.689 35.3199 172.209 35.9799C173.729 36.6399 173.599 38.1499 173.659 40.1999ZM167.029 46.1299C162.844 50.387 158.99 54.9569 155.499 59.7999C154.499 61.1799 155.739 61.3699 156.589 61.6299C158.779 62.3199 160.989 62.9099 163.179 63.6299C165.369 64.3499 166.379 65.7599 165.429 68.1599C164.479 70.5599 163.729 72.7899 162.889 75.1099C167.889 70.7199 171.989 65.6799 176.889 61.4199C177.809 60.6299 177.099 60.1699 176.309 59.9299C174.819 59.4699 173.309 59.0699 171.809 58.6099C166.949 57.1199 166.039 55.6099 166.899 50.5299C167.139 49.1999 167.689 47.9099 167.029 46.1299Z" fill="#F3C10E"/>
<path d="M27.8594 55.46C27.8594 54.37 27.8594 53.46 28.8594 52.91C29.3364 52.6761 29.8843 52.6317 30.3927 52.7857C30.9012 52.9398 31.3323 53.2808 31.5994 53.74C35.1794 58.07 40.4794 60.36 44.2494 64.47C45.2494 65.57 45.8694 64.69 46.5494 64.07C49.1459 61.6194 52.2058 59.7121 55.5494 58.46C58.6794 57.35 60.5494 58.09 61.2094 61.32C63.3394 71.01 65.2694 80.74 67.2094 90.48C67.6794 92.84 66.2094 94.32 64.2094 94.98C62.2094 95.64 61.3794 93.98 60.6894 92.59C58.7627 88.53 56.886 84.4467 55.0594 80.34C54.3494 78.72 53.6594 78.61 52.3894 79.83C50.7162 81.4111 48.9639 82.9063 47.1394 84.31C43.8894 86.82 40.1394 86.08 38.1394 82.52C33.6994 74.29 30.8894 65.41 28.0194 56.57C27.9369 56.2048 27.8834 55.8337 27.8594 55.46ZM59.3894 77.36C58.7194 73.06 58.0794 68.9 57.3894 64.74C57.1594 63.24 56.2894 63.54 55.3894 64C53.1848 65.1876 51.0928 66.5733 49.1394 68.14C45.7294 70.63 43.0494 70.38 40.1394 67.39C39.0722 66.1316 37.6927 65.1763 36.1394 64.62C37.8312 69.7328 39.9071 74.7103 42.3494 79.51C43.1094 81.05 43.8194 80.86 44.9194 79.88C46.6994 78.29 48.5694 76.77 50.4194 75.26C52.8094 73.26 55.0494 74.03 57.2294 75.68C57.8394 76.17 58.0794 77.11 59.3894 77.36Z" fill="#F3C10E"/>
<path d="M82.8204 39.1699C84.6104 30.6499 85.6104 21.3799 88.1404 12.4099C88.4904 11.1699 89.0304 9.88992 90.5304 9.83992C92.0304 9.78992 92.4404 11.1999 92.7904 12.4099C94.1504 17.0199 95.5904 21.5999 96.7904 26.2499C97.2204 27.8899 97.9304 28.5299 99.5504 28.4999C101.96 28.4999 104.37 28.4999 106.77 28.5699C111.27 28.7199 113.23 31.2899 111.62 35.4199C108.47 43.4999 105.18 51.5199 103.43 60.0699C103.12 61.5599 102.26 62.9399 100.43 62.7099C98.6004 62.4799 98.6604 60.8099 98.4904 59.3099C98.0204 55.3699 97.3604 51.4599 96.8304 47.5299C96.6604 46.2899 96.0004 46.0299 94.8304 46.1399C93.0644 46.3478 91.2885 46.4613 89.5104 46.4799C83.6904 46.4199 82.8104 45.5099 82.8204 39.1699ZM101.35 47.6099C102.84 44.0999 103.79 41.8199 104.77 39.5499C105.55 37.7399 107.47 35.3399 106.9 34.2899C105.9 32.5499 103.17 33.6899 101.18 33.5299C94.3104 32.9999 93.5004 32.4099 91.7104 26.0899C91.5704 25.5999 91.6504 24.8199 90.5404 24.7199C89.7404 29.0099 88.9804 33.2899 88.1404 37.5599C87.3004 41.8299 87.2804 41.6799 91.6304 41.5599C95.7804 41.4399 100.44 40.2599 101.35 47.6099Z" fill="#F3C10E"/>
<path d="M71.0491 139.69C79.1691 139.69 87.2791 139.25 95.3991 139.19C97.6791 139.19 99.0191 139.95 99.1591 142.37C99.5091 148.88 100.009 155.37 100.239 161.89C100.449 167.99 100.369 174.11 100.429 180.22C100.429 182.95 99.6091 184.39 96.4291 184.46C84.6291 184.72 72.8291 185.29 61.0291 185.7C57.1291 185.83 53.2191 185.98 49.3291 185.81C44.9391 185.62 44.1191 184.55 43.8691 180.22C43.1891 167.92 44.4391 155.61 43.5491 143.32C43.3491 140.65 44.1991 139.47 47.3591 139.59C55.2491 139.9 63.159 139.69 71.059 139.69H71.0491Z" fill="#F3C10E"/>
<path d="M173.499 182C165.189 182.31 154.899 182.12 146.599 182.49C144.849 182.57 143.979 181.82 143.869 180.21C143.259 170.87 144.419 160.14 144.589 150.78C144.639 148.03 146.469 146.37 149.369 146.38C164.839 146.38 180.309 146.49 195.789 146.52C198.599 146.52 199.349 148.28 199.559 150.58C200.064 156.663 200.194 162.771 199.949 168.87C199.849 171.39 200.029 175.78 199.899 178.3C199.799 180.21 199.109 181.46 196.899 181.44C189.119 181.38 181.329 182 173.549 182H173.499Z" fill="#F3C10E"/>
<path d="M94.4997 175.77C94.6197 180 94.6197 180.01 90.2197 180.19C77.2197 180.74 64.1197 181.24 51.0797 181.89C49.0797 181.99 48.4097 181.56 48.2197 179.45C47.5097 171.45 47.4197 171.45 55.3597 171.38C66.7397 171.28 78.1197 171.13 89.4997 171.03C95.1597 171 94.2597 170.3 94.4997 175.77Z" fill="#FDFDFC"/>
<path d="M71.2799 153.94C64.4399 153.94 57.6099 153.86 50.7699 153.94C48.6299 153.94 47.8499 153.44 47.7699 151.17C47.6499 144.12 47.5599 144.17 54.6399 144.08C66.9499 143.92 79.2599 143.76 91.5599 143.48C93.9699 143.42 94.8299 143.96 94.7499 146.57C94.5699 152.74 94.7499 152.8 88.5799 152.88C82.7999 152.96 77.0199 153.88 71.2399 153.88C71.2799 154.27 71.2699 153.6 71.2799 153.94Z" fill="#FDFDFC"/>
<path d="M71.779 167.28C64.779 167.28 57.8791 167.22 50.9291 167.28C49.0191 167.28 48.4191 166.75 48.3391 164.82C48.0591 158.08 47.989 158.11 54.6191 157.99C67.049 157.76 79.4691 157.55 91.8991 157.2C94.2091 157.14 95.259 157.52 95.349 160.2C95.569 166.68 95.7091 166.69 89.1591 166.71C83.3691 166.71 77.579 167.28 71.779 167.28Z" fill="#FDFDFC"/>
<path d="M172.341 176.65C165.611 176.65 158.891 176.57 152.171 176.65C150.221 176.65 149.541 176.16 149.551 174.23C149.551 171.92 149.361 169.61 149.161 167.31C149.031 165.76 149.441 165.04 151.161 165C165.248 164.66 179.334 164.26 193.421 163.8C195.051 163.8 195.581 164.26 195.661 165.93C196.071 174.62 196.381 176.35 187.661 176.8C182.661 177.05 177.311 176.6 172.271 176.6C172.331 177.11 172.341 176.19 172.341 176.65Z" fill="#FDFDFD"/>
<path d="M172.171 150.54C179.171 150.54 186.071 151.03 193.021 150.92C195.021 150.92 195.791 151.46 195.731 153.58C195.501 160.85 196.731 159.47 189.801 159.71C177.281 160.14 164.751 160.5 152.221 161.01C149.921 161.11 148.581 160.81 148.861 158.1C149.111 155.64 147.281 152.42 149.041 150.92C150.451 149.71 153.651 150.55 156.041 150.54C161.411 150.54 166.781 150.54 172.161 150.54H172.171Z" fill="#FDFDFC"/>
</g>
<defs>
<clipPath id="clip0_4669_5028">
<rect width="228" height="228" fill="white" transform="translate(0.5)"/>
</clipPath>
</defs>
</svg>
