<svg width="229" height="228" viewBox="0 0 229 228" fill="none" xmlns="http://www.w3.org/2000/svg">
<g clip-path="url(#clip0_2_955)">
<path d="M202.17 199.16C199.02 199.49 198.95 197.74 198.98 195.36C199.053 190.587 199.11 185.813 199.15 181.04H191.59C193.59 181.19 194.34 182.15 194.15 184.67C193.87 188.33 193.816 192.004 193.99 195.67C194.11 198.35 193.32 199.35 190.49 199.27C184.02 199.08 177.49 199.21 171.06 199.21V199.77C164.47 199.77 157.89 199.69 151.31 199.77C149.08 199.77 148.39 199.06 148.49 196.89C148.69 192.89 148.71 188.96 148.71 185C148.665 184.365 148.778 183.73 149.04 183.15H143.6C143.48 187.89 143.4 192.64 143.45 197.38C143.45 199.38 142.6 199.82 140.81 199.83C133.91 199.87 127.01 199.977 120.11 200.15C118.26 200.15 117.48 199.63 117.52 197.67C117.64 192.563 117.66 187.447 117.58 182.32C117.58 180.52 118.23 179.91 119.95 179.94C123.5 180 127.05 179.94 130.61 179.94V179.64C134.16 179.64 137.72 179.7 141.27 179.64C143.05 179.64 143.66 180.29 143.62 182.04C143.62 182.41 143.62 182.79 143.62 183.16H149.06C149.4 182.57 150.06 182.26 151.34 182.24C164.4 181.967 177.453 181.57 190.5 181.05C190.87 181.03 191.24 181.03 191.61 181.05H199.17C199.25 173.29 199.313 165.523 199.36 157.75C199.408 156.074 199.277 154.398 198.97 152.75C198.16 148.98 196.97 148.1 193.11 148.16C184.95 148.3 176.79 148.41 168.64 148.65C166.75 148.7 165.95 148.21 165.46 146.24C163.15 137.08 157.85 130.36 148.91 126.74C143.47 124.54 138 122.46 132.11 121.74C131.45 121.66 130.43 121.74 130.44 120.74C130.396 120.268 130.497 119.795 130.73 119.382C130.962 118.969 131.314 118.637 131.74 118.43C132.456 118.339 133.184 118.389 133.88 118.58C135.98 118.817 138.099 118.336 139.891 117.216C141.683 116.096 143.043 114.402 143.75 112.41C145.45 107.69 144.04 102.56 140.2 100.19C139.684 99.9689 139.252 99.5886 138.968 99.1046C138.684 98.6205 138.562 98.0583 138.62 97.5C139.08 88.88 135.87 81.32 131.62 74.13C127.71 67.57 122.19 64.96 114.62 66.13C110.47 66.81 106.44 68.02 103.2 70.92C102.807 71.2547 102.346 71.4997 101.848 71.6379C101.351 71.776 100.829 71.8041 100.32 71.72C89.87 71.19 84.85 75.44 81.39 85.91C79.91 90.39 79.51 95.14 82.39 99.57C82.04 99.79 81.7 100.02 81.39 100.23C74.69 104.09 74.25 111.55 80.5 116.04C82.4657 117.634 84.8751 118.584 87.4 118.76C89.5 118.76 89.8 120.68 90.24 122.04C90.75 123.65 88.94 123.28 88.16 123.63C85.49 124.83 82.7 125.77 80.04 126.98C75.04 129.24 69.57 131.68 66.95 136.32C64.58 140.53 61.69 140.07 58.31 140.17L54.54 140.24C46.25 140.43 45.72 140.9 45.76 149.3C45.82 161.52 45.95 173.74 46.06 185.95C46.06 186.37 46.06 186.79 46.06 187.21H51.24C51.44 186.01 52.24 185.67 53.76 185.69C60.35 185.8 66.93 183.05 73.52 183.05C80 183.05 86.64 183.82 93.12 183.69C95.31 183.69 96.12 184.35 96.02 186.54C95.94 189.77 95.92 194.43 96.09 197.66C96.19 199.46 95.75 200.3 93.72 200.31C80.44 200.43 67.17 200.64 53.89 200.87C52.11 200.87 51.17 200.48 51.23 198.46C51.34 195.01 51.31 191.56 51.18 188.12C51.1716 187.815 51.1917 187.511 51.24 187.21H46L46.06 193.83C46.06 195.91 46.65 198.34 45.78 200C44.66 202.14 41.78 200.68 39.73 201.28C38.33 201.7 36.53 201.66 36.52 203.6C36.52 205.73 38.37 205.92 39.94 205.95C44.54 206.03 49.14 206.03 53.74 205.95C96.6267 205.443 139.52 204.92 182.42 204.38C188.9 204.3 195.42 204.16 201.88 204.02C203.57 204.02 205.13 203.5 205.15 201.45C205.16 199.78 203.74 199 202.17 199.16ZM187.73 176.85C177.08 177.14 166.42 176.9 155.79 177.67C155.17 177.72 154.54 177.73 153.91 177.8C148.91 178.37 148.91 178.37 148.99 173.12C149.08 167.03 149.08 167.12 155.2 167.27C160.62 167.4 166.05 167.27 171.48 167.27V167.49C178.06 167.49 184.64 167.59 191.21 167.43C193.47 167.37 194.41 167.78 194.3 170.27C194 177.54 195.33 176.64 187.73 176.85ZM191.22 153.28C193.72 153.21 194.73 153.67 194.52 156.5C194.02 163.18 194.17 163.19 187.52 163.11C185.22 163.11 182.92 163.09 180.62 163.05C178.53 163.05 176.44 163.05 174.35 163.05C166.72 163.29 159.08 163.19 151.48 164.05C149.74 164.25 149.11 163.84 149.02 161.97C148.65 154.11 148.59 154.16 156.39 154.03C168.02 153.81 179.63 153.61 191.22 153.28ZM138.79 105.86C139.031 106.585 139.218 107.327 139.35 108.08C139.35 111.45 137.67 113.37 135.05 113.83C133.59 114.08 133.23 113.64 133.46 112.2C133.9 109.49 136.21 107.89 137.24 105.53C137.7 104.49 138.5 105.13 138.79 105.86ZM81.28 106.75C81.84 105.43 82.78 104.21 84.28 104.37C85.78 104.53 85.16 106.05 85.36 106.98C85.81 108.98 86.09 111.05 86.51 113.47C81.85 112 80.08 109.56 81.28 106.75ZM87.43 94.53C86.15 94.33 85.69 93.86 85.57 92.53C85.3919 90.5127 85.6395 88.4804 86.2968 86.5649C86.9541 84.6494 88.0065 82.8933 89.3857 81.4104C90.7649 79.9275 92.4403 78.7508 94.3032 77.9566C96.1661 77.1624 98.1751 76.7683 100.2 76.8C102.14 77.18 104.01 76.39 105.91 75.03C108.864 73.017 112.26 71.7476 115.81 71.33C120.06 70.73 123.81 71.89 126.21 75.62C129.906 80.9641 132.362 87.0658 133.4 93.48C133.49 94.09 133.4 94.74 133.53 95.35C133.655 96.0755 133.552 96.8218 133.235 97.4863C132.918 98.1507 132.402 98.7005 131.76 99.06C130.76 99.67 129.76 98.39 128.89 97.65C125.287 94.4396 121.028 92.0511 116.41 90.65C112.16 89.32 108.04 89.28 104.06 91.79C98.94 95 93.29 95.45 87.43 94.53ZM89.77 101.82C89.64 100.36 90.42 99.97 91.66 100.06C97.75 100.47 103.2 98.63 108.26 95.4C108.949 94.9061 109.799 94.6917 110.64 94.8C118.27 96.07 124.85 98.98 128.55 106.36C129.034 107.171 129.192 108.137 128.99 109.06C127.32 115.77 124.55 121.89 119.11 126.45C116.506 128.664 113.235 129.942 109.82 130.08C105.843 129.93 102.078 128.249 99.31 125.39C92.81 118.89 90.5 110.65 89.77 101.82ZM53.32 145.54C66.32 145.54 79.25 145.39 92.21 145.09C95.5 145.01 95.06 146.91 95.02 148.88C94.98 150.85 95.64 152.88 92.26 152.75C85.79 152.52 79.26 152.68 72.82 152.68V152.76C66.34 152.76 59.82 152.61 53.38 152.82C49.6 152.94 50.99 150.29 50.68 148.54C50.3 146.48 50.99 145.55 53.32 145.54ZM57.5 157.71C68.98 157.61 80.5 157.5 91.95 157.24C94.35 157.19 95.29 157.69 95.23 160.24C95.1 166.48 95.89 165.61 90 165.67C84.11 165.73 78.31 165.67 72.58 165.67C65.99 165.98 59.52 166.22 53.07 166.67C51.51 166.77 51.07 166.34 50.99 164.87C50.29 157.7 50.25 157.76 57.5 157.71ZM89.09 180.28C77.39 180.47 65.68 180.66 53.98 180.99C51.76 181.05 51.12 180.42 51.1 178.24C51 170.97 50.92 170.97 58.28 170.99C63.28 170.99 68.28 170.99 73.33 170.99V170.4C79.7 170.4 86.08 170.51 92.44 170.34C94.8 170.28 95.44 171.03 95.56 173.34C95.75 180.22 95.84 180.17 89.04 180.28H89.09ZM112.95 179.91C112.77 185.76 112.61 191.61 112.61 197.46C112.61 199.64 111.85 200.3 109.69 200.35C101.3 200.52 101.25 200.59 101.03 192.14L100.88 185.24C100.62 174.493 100.377 163.737 100.15 152.97C100.132 149.833 99.8577 146.702 99.33 143.61C98.85 141.02 97.43 139.94 94.77 139.99C87.66 140.14 80.54 140.13 73.43 140.16C72.43 140.16 71.43 140.05 69.54 139.95C72.8547 136.884 76.5888 134.304 80.63 132.29C84.4 130.5 88.34 129.08 92.14 127.29C93.48 126.68 94.01 127.39 94.78 128.12C105.06 137.81 115.78 137.6 125.52 127.44C125.93 126.938 126.477 126.564 127.094 126.363C127.711 126.163 128.373 126.144 129 126.31C135.301 127.328 141.456 129.104 147.33 131.6C153.69 134.2 157.53 139.05 159.94 145.2C161.18 148.38 160.78 148.77 157.45 148.88C153.79 149.01 152.12 148.76 148.45 149.04C146.04 149.23 144.57 150.31 146.1 152.97C146.49 153.65 144.49 154.66 144.46 155.4C144.25 160.72 143.95 166.05 143.94 171.4C143.94 173.91 143.01 174.6 140.62 174.6C133.09 174.6 125.56 174.7 118.04 174.89C113.37 175 113.04 175.39 112.9 179.91H112.95Z" fill="#381805"/>
<path d="M173.66 40.2C173.17 43.33 172.66 47.2 171.95 50.95C171.58 52.89 171.95 53.84 174.05 54.19C176.098 54.5465 178.107 55.099 180.05 55.84C182.35 56.72 183.29 58.23 181.96 60.76C180.869 62.8926 179.526 64.8868 177.96 66.7C171.46 74.0333 164.977 81.4033 158.51 88.81C157.42 90.05 156.33 91.22 154.51 90.47C152.51 89.65 152.51 87.85 152.94 86.2C154.15 81.3 156.58 76.87 158.67 72.33C160.55 68.22 160.67 68.25 156.18 66.81C155.29 66.52 154.39 66.24 153.51 65.9C149.42 64.35 148.43 61.14 150.94 57.49C156.07 50.06 162.27 43.57 168.62 37.2C169.62 36.2 170.69 35.32 172.21 35.98C173.73 36.64 173.6 38.15 173.66 40.2ZM167.03 46.13C162.845 50.387 158.99 54.9569 155.5 59.8C154.5 61.18 155.74 61.37 156.59 61.63C158.78 62.32 160.99 62.91 163.18 63.63C165.37 64.35 166.38 65.76 165.43 68.16C164.48 70.56 163.73 72.79 162.89 75.11C167.89 70.72 171.99 65.68 176.89 61.42C177.81 60.63 177.1 60.17 176.31 59.93C174.82 59.47 173.31 59.07 171.81 58.61C166.95 57.12 166.04 55.61 166.9 50.53C167.14 49.2 167.69 47.91 167.03 46.13Z" fill="#F3C10E"/>
<path d="M27.86 55.46C27.86 54.37 27.86 53.46 28.86 52.91C29.337 52.6761 29.8849 52.6317 30.3933 52.7857C30.9018 52.9397 31.333 53.2807 31.6 53.74C35.18 58.07 40.48 60.36 44.25 64.47C45.25 65.57 45.87 64.69 46.55 64.07C49.1465 61.6194 52.2064 59.7121 55.55 58.46C58.68 57.35 60.55 58.09 61.21 61.32C63.34 71.01 65.27 80.74 67.21 90.48C67.68 92.84 66.21 94.32 64.21 94.98C62.21 95.64 61.38 93.98 60.69 92.59C58.7633 88.53 56.8867 84.4467 55.06 80.34C54.35 78.72 53.66 78.61 52.39 79.83C50.7168 81.4111 48.9645 82.9063 47.14 84.31C43.89 86.82 40.14 86.08 38.14 82.52C33.7 74.29 30.89 65.41 28.02 56.57C27.9376 56.2048 27.8841 55.8336 27.86 55.46ZM59.39 77.36C58.72 73.06 58.08 68.9 57.39 64.74C57.16 63.24 56.29 63.54 55.39 64C53.1854 65.1875 51.0934 66.5732 49.14 68.14C45.73 70.63 43.05 70.38 40.14 67.39C39.0729 66.1316 37.6933 65.1763 36.14 64.62C37.8318 69.7327 39.9077 74.7102 42.35 79.51C43.11 81.05 43.82 80.86 44.92 79.88C46.7 78.29 48.57 76.77 50.42 75.26C52.81 73.26 55.05 74.03 57.23 75.68C57.84 76.17 58.08 77.11 59.39 77.36Z" fill="#F3C10E"/>
<path d="M82.82 39.17C84.61 30.65 85.61 21.38 88.14 12.41C88.49 11.17 89.03 9.89001 90.53 9.84001C92.03 9.79001 92.44 11.2 92.79 12.41C94.15 17.02 95.59 21.6 96.79 26.25C97.22 27.89 97.93 28.53 99.55 28.5C101.96 28.5 104.37 28.5 106.77 28.57C111.27 28.72 113.23 31.29 111.62 35.42C108.47 43.5 105.18 51.52 103.43 60.07C103.12 61.56 102.26 62.94 100.43 62.71C98.6 62.48 98.66 60.81 98.49 59.31C98.02 55.37 97.36 51.46 96.83 47.53C96.66 46.29 96 46.03 94.83 46.14C93.064 46.3479 91.2881 46.4614 89.51 46.48C83.69 46.42 82.81 45.51 82.82 39.17ZM101.35 47.61C102.84 44.1 103.79 41.82 104.77 39.55C105.55 37.74 107.47 35.34 106.9 34.29C105.9 32.55 103.17 33.69 101.18 33.53C94.31 33 93.5 32.41 91.71 26.09C91.57 25.6 91.65 24.82 90.54 24.72C89.74 29.01 88.98 33.29 88.14 37.56C87.3 41.83 87.28 41.68 91.63 41.56C95.78 41.44 100.44 40.26 101.35 47.61Z" fill="#F3C10E"/>
<path d="M71.05 139.69C79.17 139.69 87.28 139.25 95.4 139.19C97.68 139.19 99.02 139.95 99.16 142.37C99.51 148.88 100.01 155.37 100.24 161.89C100.45 167.99 100.37 174.11 100.43 180.22C100.43 182.95 99.61 184.39 96.43 184.46C84.63 184.72 72.83 185.29 61.03 185.7C57.13 185.83 53.22 185.98 49.33 185.81C44.94 185.62 44.12 184.55 43.87 180.22C43.19 167.92 44.44 155.61 43.55 143.32C43.35 140.65 44.2 139.47 47.36 139.59C55.25 139.9 63.16 139.69 71.06 139.69H71.05Z" fill="#F3C10E"/>
<path d="M173.5 182C165.19 182.31 154.9 182.12 146.6 182.49C144.85 182.57 143.98 181.82 143.87 180.21C143.26 170.87 144.42 160.14 144.59 150.78C144.64 148.03 146.47 146.37 149.37 146.38C164.84 146.38 180.31 146.49 195.79 146.52C198.6 146.52 199.35 148.28 199.56 150.58C200.065 156.663 200.195 162.771 199.95 168.87C199.85 171.39 200.03 175.78 199.9 178.3C199.8 180.21 199.11 181.46 196.9 181.44C189.12 181.38 181.33 182 173.55 182H173.5Z" fill="#F3C10E"/>
<path d="M94.5 175.77C94.62 180 94.62 180.01 90.22 180.19C77.22 180.74 64.12 181.24 51.08 181.89C49.08 181.99 48.41 181.56 48.22 179.45C47.51 171.45 47.42 171.45 55.36 171.38C66.74 171.28 78.12 171.13 89.5 171.03C95.16 171 94.26 170.3 94.5 175.77Z" fill="#FDFDFC"/>
<path d="M71.28 153.94C64.44 153.94 57.61 153.86 50.77 153.94C48.63 153.94 47.85 153.44 47.77 151.17C47.65 144.12 47.56 144.17 54.64 144.08C66.95 143.92 79.26 143.76 91.56 143.48C93.97 143.42 94.83 143.96 94.75 146.57C94.57 152.74 94.75 152.8 88.58 152.88C82.8 152.96 77.02 153.88 71.24 153.88C71.28 154.27 71.27 153.6 71.28 153.94Z" fill="#FDFDFC"/>
<path d="M71.78 167.28C64.78 167.28 57.88 167.22 50.93 167.28C49.02 167.28 48.42 166.75 48.34 164.82C48.06 158.08 47.99 158.11 54.62 157.99C67.05 157.76 79.47 157.55 91.9 157.2C94.21 157.14 95.26 157.52 95.35 160.2C95.57 166.68 95.71 166.69 89.16 166.71C83.37 166.71 77.58 167.28 71.78 167.28Z" fill="#FDFDFC"/>
<path d="M172.34 176.65C165.61 176.65 158.89 176.57 152.17 176.65C150.22 176.65 149.54 176.16 149.55 174.23C149.55 171.92 149.36 169.61 149.16 167.31C149.03 165.76 149.44 165.04 151.16 165C165.247 164.66 179.333 164.26 193.42 163.8C195.05 163.8 195.58 164.26 195.66 165.93C196.07 174.62 196.38 176.35 187.66 176.8C182.66 177.05 177.31 176.6 172.27 176.6C172.33 177.11 172.34 176.19 172.34 176.65Z" fill="#FDFDFD"/>
<path d="M172.17 150.54C179.17 150.54 186.07 151.03 193.02 150.92C195.02 150.92 195.79 151.46 195.73 153.58C195.5 160.85 196.73 159.47 189.8 159.71C177.28 160.14 164.75 160.5 152.22 161.01C149.92 161.11 148.58 160.81 148.86 158.1C149.11 155.64 147.28 152.42 149.04 150.92C150.45 149.71 153.65 150.55 156.04 150.54C161.41 150.54 166.78 150.54 172.16 150.54H172.17Z" fill="#FDFDFC"/>
</g>
<defs>
<clipPath id="clip0_2_955">
<rect width="228" height="228" fill="white" transform="translate(0.5)"/>
</clipPath>
</defs>
</svg>
