<svg width="224" height="223" viewBox="0 0 224 223" fill="none" xmlns="http://www.w3.org/2000/svg">
<path d="M82.6904 59.4701C80.38 57.0595 77.4265 55.3623 74.1804 54.5801C72.5904 54.1801 71.1804 53.5801 71.5404 51.6901C71.9004 49.6301 73.6504 49.4501 75.2704 49.7901C79.2206 50.7471 82.8811 52.6442 85.9404 55.3201C86.4236 55.8201 86.9452 56.2815 87.5004 56.7001C88.4304 57.2401 89.6304 57.8601 90.5004 57.1201C91.3704 56.3801 90.3704 55.4801 90.0704 54.7001C87.5404 48.0601 84.9704 41.4401 82.4104 34.8101C81.8804 33.4301 81.0704 31.9001 82.4104 30.6801C83.0314 30.1663 83.801 29.8656 84.6058 29.8224C85.4106 29.7792 86.208 29.9957 86.8804 30.4401C91.1104 32.8101 94.4104 31.6401 97.8204 28.5501C104.93 22.1201 110.54 22.2301 117.73 28.4501C122.84 32.8701 127.33 33.1301 134.04 29.4501C135.8 28.4501 137.61 26.5101 139.65 28.2101C141.69 29.9101 140.94 32.3701 140.36 34.5901C138.56 41.5701 136.754 48.5434 134.94 55.5101C134.56 57.0001 133.83 58.5101 135.42 59.8501C135.699 60.1344 135.861 60.5121 135.876 60.9096C135.891 61.3071 135.757 61.6959 135.5 62.0001C132.75 65.2101 134.5 68.2001 136.2 70.8801C139.346 75.9193 142.855 80.7221 146.7 85.2501C150.04 89.1501 153.3 93.1201 156.51 97.1201C164.3 106.87 167.8 118.25 169.06 130.46C169.281 132.525 169.142 134.612 168.65 136.63C168.34 137.89 168.8 138.3 170.03 137.92C170.88 137.65 171.72 137.36 172.58 137.14C174.067 136.737 175.627 136.689 177.135 137.001C178.643 137.313 180.056 137.976 181.26 138.937C182.464 139.897 183.425 141.128 184.064 142.528C184.703 143.929 185.004 145.461 184.94 147C184.871 147.793 184.63 148.561 184.235 149.252C183.839 149.942 183.299 150.539 182.65 151C178.07 155.07 173.55 159.2 168.78 163C159.84 170.16 150.78 177.19 141.69 184.16C136.2 188.37 130.49 192.27 123.58 193.9C121.156 194.454 118.625 194.308 116.28 193.48C101.342 188.611 85.956 185.238 70.3504 183.41C69.4704 183.3 68.5704 183.29 67.7004 183.13C65.9904 182.84 65.5004 183.55 65.4404 185.22C65.3004 189.22 64.3804 190.04 60.4404 190.05C57.4404 190.05 54.5104 190.05 51.5704 189.75C45.9804 189.25 44.0004 187 44.0804 181.39C44.2671 169.15 44.4904 156.91 44.7504 144.67C44.7504 143.59 44.8804 142.5 44.9904 141.43C45.1904 139.33 46.1704 138.31 48.4604 138.37C51.9104 138.47 55.3804 138.37 58.8304 138.18C62.1104 137.98 64.1604 139.18 64.8304 142.47C65.0004 143.29 65.1704 144.18 66.2904 143.71C67.4104 143.24 66.6504 142.57 66.4304 141.96C61.9704 129.38 63.5004 116.96 68.2604 104.96C73.1604 92.5801 79.8504 81.2101 89.5004 71.7701C91.1264 70.1698 92.4509 68.2898 93.4104 66.2201C93.6904 65.6101 94.1404 64.9801 93.2804 64.4301C92.9575 64.2025 92.5594 64.1078 92.1685 64.1655C91.7776 64.2232 91.4239 64.4289 91.1804 64.7401C87.6304 67.8701 87.7604 67.5701 83.1804 65.2801C80.0604 63.7301 76.5904 64.2801 73.5804 66.2801C72.1104 67.2801 70.5804 68.4001 69.2304 66.4801C67.8804 64.5601 69.3604 63.1901 70.8804 62.0901C74.3704 59.4901 78.5004 59.7001 82.6904 59.4701ZM68.6904 126.68C68.5264 130.74 69.0574 134.799 70.2604 138.68C71.6004 142.62 72.9204 143.48 76.9804 143.22C79.2504 143.07 81.5204 142.99 83.7804 142.76C98.3644 141.255 113.027 144.753 125.36 152.68C127.13 153.78 129.06 154.68 129.88 156.78C130.58 158.52 131.39 157.99 132.56 157.31C142.04 151.8 151.48 146.24 161.22 141.2C161.91 140.84 162.8 140.64 162.95 139.73C163.48 136.56 164.63 133.54 164.26 130.14C162.877 116.766 157.213 104.196 148.11 94.3001C142.663 88.3077 137.688 81.9018 133.23 75.1401C131.65 72.7201 130.23 70.2401 130.02 67.2801C129.93 65.9601 129.56 65.2801 128.02 65.6601C118.843 67.7573 109.337 67.9818 100.07 66.3201C98.7004 66.0901 97.8704 66.3201 97.4404 67.8201C96.4531 70.7372 94.7555 73.3627 92.5004 75.4601C89.4301 78.5402 86.6392 81.8866 84.1604 85.4601C75.7804 98.0001 68.8704 111.07 68.7104 126.68H68.6904ZM65.3204 163.31H65.5004C65.5004 167.65 65.5004 171.99 65.5004 176.31C65.5004 177.67 65.7204 178.31 67.4304 178.48C83.8857 179.729 100.126 182.987 115.79 188.18C117.781 188.882 119.898 189.156 122.002 188.983C124.106 188.811 126.15 188.197 128 187.18C134 184.18 139.15 180.07 144.32 175.94C155.58 166.94 167.18 158.37 177.94 148.77C178.94 147.83 180.48 147 179.84 145.12C179.565 144.268 179.07 143.504 178.404 142.905C177.739 142.306 176.927 141.894 176.05 141.71C174.873 141.535 173.669 141.698 172.58 142.18C158.08 146.74 145.82 155.61 132.71 162.85C132.276 163.092 131.917 163.448 131.672 163.88C131.427 164.312 131.305 164.804 131.32 165.3C131.18 167.96 129.63 168.74 127.32 168.09C117.62 165.39 107.927 162.653 98.2404 159.88C96.7404 159.45 95.3404 158.6 95.9104 156.74C96.4204 155.05 97.9804 155.15 99.3904 155.35C100.171 155.47 100.942 155.64 101.7 155.86C108.92 157.86 116.14 159.98 123.36 162C124.26 162.26 125.49 163 126.1 162.09C126.71 161.18 126.02 159.82 125.41 158.81C125.086 158.319 124.647 157.914 124.13 157.63C117.25 153.71 110.34 150.03 102.4 148.51C90.6404 146.25 78.9604 148.38 67.2504 148.51C65.5604 148.51 65.4004 149.51 65.4104 150.85C65.3604 155 65.3404 159.16 65.3404 163.31H65.3204ZM135.26 34.7501C134.85 34.741 134.441 34.7813 134.04 34.8701C126.32 38.3801 119.58 37.1101 113.4 31.2301C109.65 27.6601 106.97 27.8101 102.52 30.9201C101.31 31.7701 100.24 32.8001 99.1104 33.7501C98.0111 34.7567 96.7144 35.5236 95.3027 36.0022C93.8911 36.4808 92.3953 36.6605 90.9104 36.5301C88.5204 36.2801 88.5604 36.9501 89.2204 38.8701C91.5004 45.5801 94.7904 52.0001 96.5004 58.8901C96.8704 60.4001 97.8804 60.8901 99.2404 61.1501C108.263 62.9488 117.558 62.8978 126.56 61.0001C127.237 60.8953 127.861 60.5716 128.336 60.0785C128.811 59.5854 129.111 58.9502 129.19 58.2701C130.4 53.3801 131.73 48.5301 132.99 43.6601C133.75 40.7701 134.5 37.8401 135.26 34.7501ZM60.6704 164.11C60.6704 158 60.5804 151.89 60.7204 145.79C60.7204 143.67 60.0504 142.98 58.0204 143.11C56.0494 143.245 54.0715 143.245 52.1004 143.11C50.0204 142.96 49.4104 143.78 49.4004 145.82C49.3204 155.96 49.0704 166.11 48.9304 176.25C48.8104 185.4 48.8404 185.35 58.0304 185.18C60.1104 185.18 60.7604 184.46 60.7304 182.43C60.6104 176.32 60.6704 170.21 60.6704 164.11Z" fill="#381805"/>
<path d="M143.439 120.25C143.389 127.87 140.019 132.25 131.759 134.45C128.809 135.24 127.979 136.45 128.449 139.33C128.749 141.18 129.189 143.95 126.639 144.26C123.719 144.6 123.819 141.58 123.759 139.7C123.659 136.7 122.449 136.25 119.709 136.48C109.109 137.36 101.339 132.96 96.9492 123.91C96.3992 122.78 95.4392 121.4 96.7192 120.42C98.2592 119.23 99.1892 120.85 100.089 121.8C101.519 123.3 102.799 124.95 104.229 126.45C108.819 131.25 114.649 132.08 120.899 131.53C122.299 131.41 122.439 130.59 122.209 129.47C120.679 121.83 119.119 114.19 117.629 106.53C117.339 105.06 116.449 104.68 115.159 104.53C112.901 104.286 110.663 103.888 108.459 103.34C103.199 101.8 99.4592 98.5301 98.9092 92.8701C98.3592 87.2101 100.369 82.3501 105.499 79.2201C106.404 78.615 107.386 78.134 108.419 77.7901C110.109 77.3001 110.569 76.4601 110.039 74.7401C109.579 73.2501 109.189 71.3501 111.249 70.7401C113.309 70.1301 113.989 72.0001 114.439 73.4801C114.979 75.2801 115.949 75.9101 117.839 75.9801C120.93 76.0624 123.916 77.1116 126.379 78.9801C127.64 79.7949 128.563 81.038 128.979 82.4801C129.259 83.6601 129.429 84.9501 128.149 85.6401C126.869 86.3301 126.149 85.3701 125.429 84.5001C123.76 82.5066 121.392 81.226 118.809 80.9201C117.609 80.7001 117.179 81.0501 117.469 82.3401C118.679 87.6301 119.869 92.9301 120.969 98.2401C121.269 99.6901 122.079 100.11 123.419 100.24C127.854 100.744 132.104 102.297 135.819 104.77C141.389 108.48 143.499 113.82 143.439 120.25ZM138.489 120.25C138.458 116.414 136.958 112.737 134.298 109.973C131.638 107.209 128.021 105.569 124.189 105.39C122.759 105.39 122.499 105.82 122.759 107.12C124.239 114.373 125.686 121.63 127.099 128.89C127.299 129.89 127.699 130.38 128.869 130.28C134.589 129.77 138.499 125.77 138.499 120.23L138.489 120.25ZM114.089 99.5301C115.569 99.7301 116.089 99.1101 115.819 97.6701L112.699 83.5301C112.379 82.0801 111.699 81.6501 110.179 82.2301C108.196 82.8859 106.485 84.1789 105.313 85.908C104.141 87.637 103.574 89.7051 103.699 91.7901C103.929 95.3501 106.459 97.8601 110.899 98.8901C111.959 99.1401 113.029 99.3101 114.089 99.5101V99.5301Z" fill="#F3C10E"/>
</svg>
