<svg width="223" height="223" viewBox="0 0 223 223" fill="none" xmlns="http://www.w3.org/2000/svg">
<path d="M82.19 59.47C79.8796 57.0594 76.926 55.3623 73.68 54.58C72.09 54.18 70.68 53.58 71.04 51.69C71.4 49.63 73.15 49.45 74.77 49.79C78.7201 50.747 82.3806 52.6441 85.44 55.32C85.9231 55.82 86.4447 56.2814 87 56.7C87.93 57.24 89.13 57.86 90 57.12C90.87 56.38 89.87 55.48 89.57 54.7C87.04 48.06 84.47 41.44 81.91 34.81C81.38 33.43 80.57 31.9 81.91 30.68C82.5309 30.1662 83.3005 29.8655 84.1053 29.8223C84.9102 29.7791 85.7075 29.9956 86.38 30.44C90.61 32.81 93.91 31.64 97.32 28.55C104.43 22.12 110.04 22.23 117.23 28.45C122.34 32.87 126.83 33.13 133.54 29.45C135.3 28.45 137.11 26.51 139.15 28.21C141.19 29.91 140.44 32.37 139.86 34.59C138.06 41.57 136.253 48.5433 134.44 55.51C134.06 57 133.33 58.51 134.92 59.85C135.198 60.1343 135.36 60.5121 135.375 60.9096C135.39 61.3071 135.256 61.6958 135 62C132.25 65.21 134 68.2 135.7 70.88C138.845 75.9192 142.355 80.722 146.2 85.25C149.54 89.15 152.8 93.12 156.01 97.12C163.8 106.87 167.3 118.25 168.56 130.46C168.78 132.525 168.642 134.612 168.15 136.63C167.84 137.89 168.3 138.3 169.53 137.92C170.38 137.65 171.22 137.36 172.08 137.14C173.566 136.736 175.126 136.689 176.635 137.001C178.143 137.313 179.556 137.976 180.76 138.937C181.964 139.897 182.924 141.127 183.564 142.528C184.203 143.929 184.503 145.461 184.44 147C184.37 147.793 184.13 148.561 183.734 149.251C183.339 149.942 182.798 150.539 182.15 151C177.57 155.07 173.05 159.2 168.28 163C159.34 170.16 150.28 177.19 141.19 184.16C135.7 188.37 129.99 192.27 123.08 193.9C120.656 194.453 118.125 194.308 115.78 193.48C100.841 188.611 85.4555 185.238 69.85 183.41C68.97 183.3 68.07 183.29 67.2 183.13C65.49 182.84 65 183.55 64.94 185.22C64.8 189.22 63.88 190.04 59.94 190.05C56.94 190.05 54.01 190.05 51.07 189.75C45.48 189.25 43.5 187 43.58 181.39C43.7666 169.15 43.99 156.91 44.25 144.67C44.25 143.59 44.38 142.5 44.49 141.43C44.69 139.33 45.67 138.31 47.96 138.37C51.41 138.47 54.88 138.37 58.33 138.18C61.61 137.98 63.66 139.18 64.33 142.47C64.5 143.29 64.67 144.18 65.79 143.71C66.91 143.24 66.15 142.57 65.93 141.96C61.47 129.38 63 116.96 67.76 104.96C72.66 92.58 79.35 81.21 89 71.77C90.6259 70.1697 91.9504 68.2897 92.91 66.22C93.19 65.61 93.64 64.98 92.78 64.43C92.457 64.2024 92.0589 64.1077 91.668 64.1654C91.2771 64.2231 90.9234 64.4288 90.68 64.74C87.13 67.87 87.26 67.57 82.68 65.28C79.56 63.73 76.09 64.28 73.08 66.28C71.61 67.28 70.08 68.4 68.73 66.48C67.38 64.56 68.86 63.19 70.38 62.09C73.87 59.49 78 59.7 82.19 59.47ZM68.19 126.68C68.0259 130.74 68.5569 134.799 69.76 138.68C71.1 142.62 72.42 143.48 76.48 143.22C78.75 143.07 81.02 142.99 83.28 142.76C97.8639 141.255 112.526 144.753 124.86 152.68C126.63 153.78 128.56 154.68 129.38 156.78C130.08 158.52 130.89 157.99 132.06 157.31C141.54 151.8 150.98 146.24 160.72 141.2C161.41 140.84 162.3 140.64 162.45 139.73C162.98 136.56 164.13 133.54 163.76 130.14C162.376 116.766 156.712 104.196 147.61 94.3C142.162 88.3076 137.187 81.9017 132.73 75.14C131.15 72.72 129.73 70.24 129.52 67.28C129.43 65.96 129.06 65.28 127.52 65.66C118.342 67.7572 108.836 67.9817 99.57 66.32C98.2 66.09 97.37 66.32 96.94 67.82C95.9526 70.7371 94.255 73.3626 92 75.46C88.9296 78.5401 86.1387 81.8865 83.66 85.46C75.28 98 68.37 111.07 68.21 126.68H68.19ZM64.82 163.31H65C65 167.65 65 171.99 65 176.31C65 177.67 65.22 178.31 66.93 178.48C83.3852 179.729 99.6258 182.987 115.29 188.18C117.281 188.882 119.398 189.156 121.502 188.983C123.606 188.811 125.65 188.197 127.5 187.18C133.5 184.18 138.65 180.07 143.82 175.94C155.08 166.94 166.68 158.37 177.44 148.77C178.44 147.83 179.98 147 179.34 145.12C179.065 144.268 178.569 143.504 177.904 142.905C177.238 142.306 176.426 141.894 175.55 141.71C174.372 141.535 173.169 141.698 172.08 142.18C157.58 146.74 145.32 155.61 132.21 162.85C131.776 163.092 131.417 163.448 131.172 163.88C130.926 164.312 130.805 164.803 130.82 165.3C130.68 167.96 129.13 168.74 126.82 168.09C117.12 165.39 107.427 162.653 97.74 159.88C96.24 159.45 94.84 158.6 95.41 156.74C95.92 155.05 97.48 155.15 98.89 155.35C99.6701 155.47 100.442 155.64 101.2 155.86C108.42 157.86 115.64 159.98 122.86 162C123.76 162.26 124.99 163 125.6 162.09C126.21 161.18 125.52 159.82 124.91 158.81C124.585 158.319 124.146 157.914 123.63 157.63C116.75 153.71 109.84 150.03 101.9 148.51C90.14 146.25 78.46 148.38 66.75 148.51C65.06 148.51 64.9 149.51 64.91 150.85C64.86 155 64.84 159.16 64.84 163.31H64.82ZM134.76 34.75C134.35 34.7409 133.94 34.7812 133.54 34.87C125.82 38.38 119.08 37.11 112.9 31.23C109.15 27.66 106.47 27.81 102.02 30.92C100.81 31.77 99.74 32.8 98.61 33.75C97.5106 34.7566 96.2139 35.5235 94.8022 36.0021C93.3906 36.4807 91.8948 36.6604 90.41 36.53C88.02 36.28 88.06 36.95 88.72 38.87C91 45.58 94.29 52 96 58.89C96.37 60.4 97.38 60.89 98.74 61.15C107.763 62.9488 117.057 62.8977 126.06 61C126.737 60.8953 127.36 60.5715 127.835 60.0784C128.31 59.5853 128.611 58.9501 128.69 58.27C129.9 53.38 131.23 48.53 132.49 43.66C133.25 40.77 134 37.84 134.76 34.75ZM60.17 164.11C60.17 158 60.08 151.89 60.22 145.79C60.22 143.67 59.55 142.98 57.52 143.11C55.5489 143.245 53.571 143.245 51.6 143.11C49.52 142.96 48.91 143.78 48.9 145.82C48.82 155.96 48.57 166.11 48.43 176.25C48.31 185.4 48.34 185.35 57.53 185.18C59.61 185.18 60.26 184.46 60.23 182.43C60.11 176.32 60.17 170.21 60.17 164.11Z" fill="#381805"/>
<path d="M142.94 120.25C142.89 127.87 139.52 132.25 131.26 134.45C128.31 135.24 127.48 136.45 127.95 139.33C128.25 141.18 128.69 143.95 126.14 144.26C123.22 144.6 123.32 141.58 123.26 139.7C123.16 136.7 121.95 136.25 119.21 136.48C108.61 137.36 100.84 132.96 96.4499 123.91C95.8999 122.78 94.9399 121.4 96.2199 120.42C97.7599 119.23 98.6899 120.85 99.5899 121.8C101.02 123.3 102.3 124.95 103.73 126.45C108.32 131.25 114.15 132.08 120.4 131.53C121.8 131.41 121.94 130.59 121.71 129.47C120.18 121.83 118.62 114.19 117.13 106.53C116.84 105.06 115.95 104.68 114.66 104.53C112.402 104.286 110.164 103.888 107.96 103.34C102.7 101.8 98.9599 98.53 98.4099 92.87C97.8599 87.21 99.8699 82.35 105 79.22C105.905 78.6149 106.887 78.1339 107.92 77.79C109.61 77.3 110.07 76.46 109.54 74.74C109.08 73.25 108.69 71.35 110.75 70.74C112.81 70.13 113.49 72 113.94 73.48C114.48 75.28 115.45 75.91 117.34 75.98C120.43 76.0623 123.417 77.1115 125.88 78.98C127.14 79.7948 128.064 81.0378 128.48 82.48C128.76 83.66 128.93 84.95 127.65 85.64C126.37 86.33 125.65 85.37 124.93 84.5C123.26 82.5064 120.892 81.2259 118.31 80.92C117.11 80.7 116.68 81.05 116.97 82.34C118.18 87.63 119.37 92.93 120.47 98.24C120.77 99.69 121.58 100.11 122.92 100.24C127.354 100.744 131.605 102.297 135.32 104.77C140.89 108.48 143 113.82 142.94 120.25ZM137.99 120.25C137.958 116.414 136.458 112.737 133.799 109.973C131.139 107.209 127.522 105.569 123.69 105.39C122.26 105.39 122 105.82 122.26 107.12C123.74 114.373 125.187 121.63 126.6 128.89C126.8 129.89 127.2 130.38 128.37 130.28C134.09 129.77 138 125.77 138 120.23L137.99 120.25ZM113.59 99.53C115.07 99.73 115.59 99.11 115.32 97.67L112.2 83.53C111.88 82.08 111.2 81.65 109.68 82.23C107.697 82.8857 105.986 84.1788 104.814 85.9079C103.642 87.6369 103.074 89.7049 103.2 91.79C103.43 95.35 105.96 97.86 110.4 98.89C111.46 99.14 112.53 99.31 113.59 99.51V99.53Z" fill="#F3C10E"/>
</svg>
