<svg width="229" height="228" viewBox="0 0 229 228" fill="none" xmlns="http://www.w3.org/2000/svg">
<g clip-path="url(#clip0_46_7921)">
<path d="M90.3083 198.592V185.374C90.3083 182.738 87.864 180.594 84.8592 180.594C84.0201 180.594 83.2338 180.775 82.5239 181.073V173.081C82.5239 170.445 80.0796 168.301 77.0748 168.301C76.2356 168.301 75.4494 168.482 74.7395 168.78V164.886C74.7395 162.25 72.2952 160.105 69.2904 160.105C66.7605 160.105 64.6446 161.635 64.0359 163.689C63.0738 163.157 61.945 162.837 60.7275 162.837C57.293 162.837 54.5 165.287 54.5 168.301L54.5 191.521C54.5 191.749 54.5654 191.974 54.6899 192.175L64.0312 207.2C64.1029 207.313 64.1932 207.42 64.2975 207.511L76.4863 218.205C77.355 218.967 77.8532 220.023 77.8532 221.102V227.034C77.8532 227.788 78.5507 228.4 79.4101 228.4H98.0927C98.9521 228.4 99.6496 227.788 99.6496 227.034V210.065C99.6496 208.329 98.9054 206.674 97.5556 205.405L90.3083 198.592ZM84.8592 183.325C86.1468 183.325 87.1945 184.245 87.1945 185.374V195.665L82.5239 191.275V185.374C82.5239 184.245 83.5717 183.325 84.8592 183.325ZM77.0748 171.032C78.3623 171.032 79.4101 171.952 79.4101 173.081V185.374V188.348L78.3577 187.359C77.478 186.532 76.2341 186.057 74.9434 186.057H74.7395V173.081C74.7395 171.952 75.7873 171.032 77.0748 171.032ZM66.9551 164.886C66.9551 163.756 68.0028 162.837 69.2904 162.837C70.5779 162.837 71.6257 163.756 71.6257 164.886V173.081V187.12C70.9345 187.666 70.4191 188.383 70.1965 189.204L66.9551 185.585V168.301V164.886ZM96.5358 225.668H80.967V221.102C80.967 219.278 80.1574 217.563 78.6877 216.273L66.6577 205.719L57.6138 191.172L57.6138 168.301C57.6138 166.794 59.0103 165.569 60.7275 165.569C62.4448 165.569 63.8413 166.794 63.8413 168.301L63.8413 186.057C63.8413 186.363 63.9581 186.66 64.1745 186.901L81.3002 206.024L83.7476 204.337L73.1826 192.538V190.155C73.1826 189.402 73.8816 188.789 74.7395 188.789H74.9434C75.3731 188.789 75.7873 188.947 76.0815 189.222L95.281 207.268C96.089 208.03 96.5358 209.023 96.5358 210.065V225.668Z" fill="black"/>
<path d="M169.327 162.837C168.11 162.837 166.981 163.157 166.019 163.689C165.41 161.635 163.294 160.105 160.764 160.105C157.759 160.105 155.315 162.25 155.315 164.886V168.78C154.605 168.482 153.819 168.301 152.98 168.301C149.975 168.301 147.531 170.445 147.531 173.081V181.073C146.821 180.775 146.035 180.594 145.195 180.594C142.191 180.594 139.746 182.738 139.746 185.374V198.592L132.499 205.405C131.149 206.674 130.405 208.329 130.405 210.065L130.405 227.034C130.405 227.788 131.103 228.4 131.962 228.4H150.645C151.504 228.4 152.201 227.788 152.201 227.034V221.102C152.201 220.023 152.7 218.968 153.568 218.205L165.757 207.511C165.861 207.42 165.952 207.313 166.023 207.2L175.365 192.175C175.489 191.974 175.555 191.749 175.555 191.521V168.301C175.555 165.287 172.762 162.837 169.327 162.837ZM158.429 164.886C158.429 163.756 159.477 162.837 160.764 162.837C162.052 162.837 163.1 163.756 163.1 164.886V168.301V185.585L159.858 189.203C159.636 188.382 159.12 187.666 158.429 187.118V173.081V164.886ZM150.645 173.081C150.645 171.952 151.692 171.032 152.98 171.032C154.267 171.032 155.315 171.952 155.315 173.081V186.057H155.111C153.821 186.057 152.577 186.532 151.697 187.359L150.645 188.349V185.374V173.081ZM142.86 185.374C142.86 184.245 143.908 183.325 145.195 183.325C146.483 183.325 147.531 184.245 147.531 185.374V191.275L142.86 195.665V185.374ZM172.441 191.172L163.397 205.718L151.367 216.272C149.897 217.563 149.088 219.277 149.088 221.102V225.668H133.519L133.519 210.065C133.519 209.023 133.966 208.03 134.775 207.269L153.975 189.223C154.267 188.947 154.682 188.789 155.111 188.789H155.315C156.173 188.789 156.872 189.402 156.872 190.155V192.538L146.307 204.336L148.754 206.022L165.88 186.9C166.097 186.66 166.213 186.363 166.213 186.057V168.301C166.213 166.794 167.61 165.569 169.327 165.569C171.044 165.569 172.441 166.794 172.441 168.301V191.172Z" fill="black"/>
<path d="M76.0093 136C76.6143 122.012 83.3976 108.351 95.4701 103.149C107.854 97.8038 122.292 102.34 130.817 113.523C135.067 119.234 137.648 126.264 138.214 133.664C138.779 141.064 137.301 148.481 133.979 154.914C130.849 160.978 126.112 165.808 120.422 168.739C114.405 171.71 107.699 172.466 101.273 170.9C94.9952 169.356 89.2746 165.75 84.8462 160.546C80.4177 155.341 77.4839 148.776 76.4218 141.694C76.1563 139.821 76.0184 137.928 76.0093 136.031C76.0093 134.311 72.5168 135.478 72.526 136.953C72.5831 144.727 74.7953 152.29 78.8581 158.602C82.9209 164.914 88.6347 169.665 95.2135 172.2C102.042 174.731 109.393 174.913 116.315 172.722C123.236 170.531 129.41 166.068 134.034 159.912C143.201 147.521 144.475 129.191 136.638 115.643C132.907 109.174 127.495 104.136 121.128 101.204C114.26 98.1453 106.717 97.5232 99.5218 99.4218C92.7397 101.173 86.5872 105.166 81.8668 110.881C77.3039 116.56 74.2694 123.564 73.1126 131.085C72.8071 133.022 72.6111 134.978 72.526 136.943C72.416 138.591 75.9451 137.506 76.0093 136Z" fill="#381805"/>
<path d="M174.937 71.4041C174.845 85.116 167.457 97.8755 155.815 102.688C144.173 107.501 130.653 103.119 122.623 92.5607C114.272 81.5933 112.75 65.475 119.488 53.0943C122.738 47.1276 127.532 42.4033 133.238 39.5463C138.938 36.7542 145.299 36.1213 151.351 37.744C157.291 39.3805 162.666 42.9394 166.803 47.9746C170.941 53.0097 173.655 59.297 174.607 66.0484C174.839 67.8218 174.952 69.612 174.946 71.4041C174.946 73.104 178.429 71.9469 178.429 70.4723C178.419 63.0934 176.396 55.8934 172.629 49.832C168.862 43.7706 163.531 39.136 157.346 36.5459C143.917 31.0058 128.709 36.1772 119.497 48.1994C114.939 54.0322 112.221 61.3748 111.76 69.1C111.426 76.5477 113.147 83.9304 116.692 90.2492C120.237 96.5681 125.433 101.518 131.578 104.429C138.048 107.389 145.178 108.044 151.993 106.303C165.156 103.026 175.826 91.0759 178.008 76.1045C178.278 74.2422 178.416 72.3589 178.42 70.4723C178.429 68.7724 174.955 69.9193 174.937 71.4041Z" fill="#381805"/>
<path d="M76.1472 48.3528C80.3642 48.462 84.4556 49.9781 87.895 52.7061C91.3344 55.4341 93.9646 59.2492 95.4472 63.6608C96.9298 68.0724 97.197 72.8786 96.2145 77.4612C95.232 82.0438 93.0447 86.1933 89.9339 89.3758C86.7602 92.3979 82.8176 94.2311 78.6617 94.6169C74.5058 95.0027 70.3464 93.9217 66.7697 91.5263C63.1532 89.1049 60.2633 85.5364 58.4677 81.2747C56.6721 77.0131 56.052 72.251 56.6864 67.5945C58.1897 57.4258 66.0639 47.9125 75.7255 48.3221C76.1735 48.3579 76.6228 48.2787 77.0391 48.0905C77.4554 47.9024 77.8276 47.6103 78.1272 47.2366C78.5489 46.612 78.4114 45.7927 77.5955 45.762C67.4755 45.3422 58.208 52.7869 54.5414 63.2321C52.8397 68.1304 52.5605 73.5026 53.7433 78.5879C54.9262 83.6733 57.5112 88.2141 61.1322 91.5672C68.8597 98.5921 80.0614 99.0325 88.5589 93.4719C92.7174 90.7807 96.0364 86.7285 98.0675 81.8627C100.099 76.9969 100.744 71.5519 99.9164 66.2633C98.9361 60.4905 96.1719 55.2858 92.1064 51.5581C87.8883 47.7868 82.6406 45.7447 77.238 45.7723C76.794 45.7784 76.3589 45.9127 75.9751 46.1621C75.5912 46.4115 75.2716 46.7676 75.0472 47.1957C74.6989 48.1071 75.5055 48.3426 76.1472 48.3528Z" fill="#381805"/>
<path d="M167.264 152.324C174.368 152.272 181.234 147.275 183.645 139.707C184.785 136.009 184.868 132.006 183.883 128.253C182.897 124.499 180.892 121.181 178.145 118.756C172.425 113.635 164.331 112.826 158.217 117.506C152.524 121.869 149.224 129.487 150.59 137.137C151.381 141.417 153.467 145.263 156.497 148.028C159.526 150.794 163.315 152.31 167.228 152.324C167.671 152.314 168.105 152.179 168.489 151.93C168.872 151.681 169.192 151.326 169.418 150.9C169.739 149.978 168.923 149.753 168.291 149.743C162.305 149.651 157.071 145.012 154.88 138.939C153.802 135.957 153.515 132.69 154.055 129.53C154.594 126.37 155.937 123.451 157.923 121.121C159.723 118.801 162.248 117.336 164.982 117.025C167.98 116.885 170.944 117.771 173.479 119.565C176.058 121.319 178.136 123.857 179.472 126.881C180.808 129.906 181.346 133.292 181.023 136.646C180.217 144.019 175.047 149.753 168.328 149.804C167.885 149.815 167.451 149.952 167.068 150.201C166.685 150.45 166.364 150.803 166.137 151.228C165.825 152.078 166.623 152.324 167.264 152.324Z" fill="#381805"/>
<path d="M67.4299 112.929C67.3747 109.816 66.4398 106.803 64.7587 104.32C63.0777 101.837 60.7367 100.011 58.0707 99.1043C55.2761 98.1238 52.2784 98.1328 49.4886 99.1302C46.6988 100.127 44.2533 102.064 42.4874 104.675C39.2791 109.355 38.3624 115.448 40.9291 120.763C42.3205 123.574 44.4762 125.819 47.0847 127.172C49.6932 128.525 52.6193 128.916 55.4399 128.289C62.0491 126.958 67.3566 120.558 67.4299 112.929C67.4299 111.229 63.9649 112.376 63.9557 113.85C63.9099 118.827 61.3891 123.896 56.9707 125.473C52.5524 127.05 47.4557 124.531 44.9074 120.23C43.7076 118.236 43.0344 115.905 42.9647 113.504C42.895 111.103 43.4316 108.728 44.5132 106.651C45.4425 104.732 46.8125 103.124 48.4824 101.992C50.378 100.876 52.5793 100.595 54.6516 101.204C57.2418 101.853 59.5639 103.45 61.2494 105.741C62.9349 108.032 63.8874 110.886 63.9557 113.85C63.9741 115.581 67.4574 114.414 67.4299 112.929Z" fill="#381805"/>
<path d="M113.712 34.0778C113.602 38.3071 111.586 42.5671 107.836 43.9803C105.937 44.6224 103.908 44.6071 102.017 43.9363C100.125 43.2654 98.4597 41.9706 97.2397 40.2221C95.9491 38.4185 95.172 36.2243 95.0086 33.9226C94.8452 31.6208 95.303 29.3172 96.323 27.309C97.2905 25.4245 98.7888 23.9506 100.585 23.117C102.38 22.2835 104.373 22.1371 106.251 22.7008C108.432 23.4331 110.341 24.9399 111.688 26.9928C113.034 29.0458 113.745 31.5331 113.712 34.0778C113.712 35.7778 117.186 34.6206 117.186 33.146C117.23 30.4085 116.51 27.7237 115.128 25.4633C113.745 23.2029 111.767 21.4788 109.468 20.5298C106.842 19.5763 104.022 19.5067 101.36 20.3297C98.6989 21.1528 96.3127 22.832 94.4989 25.1585C92.7918 27.2852 91.7534 29.9767 91.5416 32.8235C91.3298 35.6702 91.9562 38.5163 93.3255 40.9287C94.7532 43.2865 96.7896 45.103 99.1639 46.1366C101.538 47.1701 104.138 47.3717 106.617 46.7145C109.487 46.1084 112.091 44.4401 114.009 41.9784C115.926 39.5168 117.046 36.4054 117.186 33.146C117.232 31.5075 113.749 32.634 113.712 34.0778Z" fill="#381805"/>
<path d="M201.383 90.4921C201.3 93.8816 199.723 97.3839 196.735 98.5205C195.185 99.0237 193.535 98.9908 192.001 98.4259C190.468 97.8611 189.124 96.7909 188.146 95.3563C187.078 93.8717 186.432 92.0634 186.293 90.1649C186.154 88.2663 186.528 86.3649 187.367 84.7063C188.126 83.2165 189.307 82.0509 190.724 81.3928C192.141 80.7348 193.714 80.6215 195.195 81.0709C197.007 81.6688 198.593 82.9141 199.711 84.6158C200.829 86.3176 201.416 88.3818 201.383 90.4921C201.383 92.2022 204.857 91.0451 204.866 89.5705C204.901 87.2544 204.291 84.9834 203.12 83.0717C201.949 81.16 200.275 79.7022 198.33 78.9C196.052 78.082 193.609 78.0283 191.303 78.7454C188.998 79.4625 186.931 80.919 185.359 82.9347C183.917 84.7286 183.038 86.9984 182.855 89.4005C182.671 91.8027 183.193 94.2062 184.342 96.2472C185.563 98.2648 187.307 99.817 189.34 100.696C191.374 101.574 193.599 101.737 195.718 101.163C198.19 100.655 200.437 99.2342 202.1 97.1283C203.762 95.0223 204.743 92.3534 204.884 89.55C204.903 87.8808 201.419 89.0175 201.383 90.4921Z" fill="#381805"/>
<path d="M125.95 136.973V152.334C125.95 156.655 124.951 157.812 121.092 157.792C112.594 157.73 104.097 157.72 95.6086 157.526C91.4469 157.433 91.1444 156.901 91.0253 152.262C90.8511 147.357 90.6402 142.462 90.4294 137.332C88.5227 137.106 86.7627 136.953 84.9294 136.666C83.0961 136.379 82.3811 134.864 83.4536 133.102C84.2363 131.898 85.1203 130.78 86.0936 129.764C91.9694 123.302 97.9002 116.912 103.739 110.41C105.481 108.464 106.966 108.228 108.854 110.164C115.904 117.394 123.035 124.5 130.112 131.74C130.623 132.219 131.031 132.822 131.304 133.502C131.606 134.382 132.064 135.662 131.725 136.226C131.386 136.789 130.167 137.004 129.314 137.086C128.192 137.13 127.068 137.093 125.95 136.973ZM93.8669 154.382C103.208 154.382 112.274 154.382 121.367 154.382C122.806 154.382 122.953 153.491 122.953 152.231C122.953 148.135 123.035 144.039 122.953 139.943C122.879 136.871 123.594 134.321 126.619 133.061L105.985 111.72L87.6519 133.696C87.8998 133.76 88.1507 133.808 88.4036 133.84C92.5744 134.423 92.7302 134.587 93.0694 139.226C93.0694 139.963 93.1336 140.711 93.1702 141.448C93.3994 145.626 93.6286 149.794 93.8944 154.361L93.8669 154.382Z" fill="#F3C10E"/>
<path d="M136.665 85.7917C130.735 86.4266 130.698 86.4368 130.074 79.7806C129.561 74.3327 129.158 68.8746 128.699 63.396C128.635 62.6536 128.635 61.906 128.699 61.1636C128.929 58.7878 129.46 57.4566 132.275 57.3542C139.095 57.0981 145.878 56.0741 152.68 55.3061C153.257 55.2446 153.835 55.1525 154.421 55.1013C160.407 54.6609 161.195 55.388 161.645 61.9418C162.075 68.2397 162.46 74.5477 162.864 80.8456C163.065 83.9177 162.68 84.3785 159.61 84.5423L136.665 85.7917ZM159.28 61.2148C158.125 62.6075 157.446 63.4881 156.676 64.2869C154.073 67.2976 151.479 70.3185 148.839 73.2882C147.262 75.07 145.64 75.2339 143.779 73.5442C140.36 70.4721 136.84 67.4 133.347 64.4405C132.87 64.0309 132.339 63.7134 131.514 63.099C131.963 70.1546 132.375 76.688 132.797 83.2213L160.361 80.9992C159.985 74.5785 159.655 68.3011 159.28 61.1841V61.2148ZM157.996 58.1427L133.512 60.7028L146.575 71.9672C150.333 67.4409 153.862 63.1195 157.996 58.1324V58.1427Z" fill="#F3C10E"/>
<path d="M76.4139 88.2289C67.6597 88.0445 62.3339 79.7908 65.1755 70.554C67.0481 64.4499 70.3683 59.0278 74.7822 54.8657C75.2772 54.3947 76.918 54.364 77.1655 54.7736C81.263 61.6449 85.7455 68.4342 86.2314 77.0464C86.6164 83.9074 82.5005 88.3518 76.4139 88.2289ZM75.4972 56.8319C71.913 61.5425 68.9981 66.1199 67.4856 71.6395C65.5147 78.8692 69.4931 84.952 76.3222 85.2489C80.9056 85.4333 84.3247 81.8491 83.793 76.7699C83.0597 69.2535 79.0997 63.3243 75.5431 56.8319H75.4972Z" fill="#F3C10E"/>
<path d="M106.783 131.249C107.572 130.389 108.397 129.559 109.148 128.658C110.468 127.061 111.449 127.122 111.99 129.109C112.421 130.686 112.907 131.157 114.456 130.727C114.941 130.68 115.429 130.771 115.874 130.992C116.32 131.212 116.708 131.554 117.004 131.986C118.938 136.943 119.507 142.063 116.802 146.906C114.291 151.392 110.386 152.836 105.802 152.385C98.4691 151.668 94.4541 145.585 96.095 137.321C97.2199 131.828 100.122 126.992 104.244 123.743C104.991 123.152 105.836 122.731 106.728 122.504C107.349 122.47 107.971 122.564 108.562 122.78C108.532 123.476 108.421 124.164 108.232 124.828C107.434 126.753 106.536 128.617 105.674 130.501L106.783 131.249ZM102.402 129.651C101.146 132.928 99.725 135.499 99.1841 138.284C97.965 144.428 101.375 148.78 107.067 148.842C108.517 148.895 109.955 148.524 111.236 147.764C112.518 147.005 113.599 145.884 114.373 144.513C115.147 143.143 115.586 141.57 115.647 139.95C115.709 138.331 115.389 136.722 114.722 135.284C114.511 134.815 114.151 134.45 113.713 134.26C112.421 133.778 111.092 133.43 109.487 132.949C105.839 135.458 104.217 134.946 102.402 129.651Z" fill="#F3C10E"/>
<ellipse cx="77" cy="71.5" rx="20.5" ry="23.5" fill="#F8F8F8"/>
<ellipse cx="145" cy="71" rx="30.5" ry="34" fill="#F8F8F8"/>
<ellipse cx="107.5" cy="136" rx="32" ry="36" fill="white"/>
</g>
<defs>
<clipPath id="clip0_46_7921">
<rect width="198" height="215" fill="white" transform="translate(16.5 13)"/>
</clipPath>
</defs>
</svg>
