<svg width="243" height="228" viewBox="0 0 243 228" fill="none" xmlns="http://www.w3.org/2000/svg">
<g clip-path="url(#clip0_19_3758)">
<path d="M96.8083 198.592V185.374C96.8083 182.738 94.364 180.594 91.3592 180.594C90.5201 180.594 89.7338 180.775 89.0239 181.073V173.081C89.0239 170.445 86.5796 168.301 83.5748 168.301C82.7356 168.301 81.9494 168.482 81.2395 168.78V164.886C81.2395 162.25 78.7952 160.105 75.7904 160.105C73.2605 160.105 71.1446 161.635 70.5359 163.689C69.5738 163.157 68.445 162.837 67.2275 162.837C63.793 162.837 61 165.287 61 168.301L61 191.521C61 191.749 61.0654 191.974 61.1899 192.175L70.5312 207.2C70.6029 207.313 70.6932 207.42 70.7975 207.511L82.9863 218.205C83.855 218.967 84.3532 220.023 84.3532 221.102V227.034C84.3532 227.788 85.0507 228.4 85.9101 228.4H104.593C105.452 228.4 106.15 227.788 106.15 227.034V210.065C106.15 208.329 105.405 206.674 104.056 205.405L96.8083 198.592ZM91.3592 183.325C92.6468 183.325 93.6945 184.245 93.6945 185.374V195.665L89.0239 191.275V185.374C89.0239 184.245 90.0717 183.325 91.3592 183.325ZM83.5748 171.032C84.8623 171.032 85.9101 171.952 85.9101 173.081V185.374V188.348L84.8577 187.359C83.978 186.533 82.7341 186.057 81.4434 186.057H81.2395L81.2395 173.081C81.2395 171.952 82.2873 171.032 83.5748 171.032ZM73.4551 164.886C73.4551 163.756 74.5028 162.837 75.7904 162.837C77.0779 162.837 78.1257 163.756 78.1257 164.886V173.081L78.1257 187.12C77.4345 187.666 76.9191 188.383 76.6965 189.204L73.4551 185.585V168.301V164.886ZM103.036 225.668H87.467V221.102C87.467 219.278 86.6574 217.563 85.1877 216.273L73.1577 205.719L64.1138 191.172L64.1138 168.301C64.1138 166.794 65.5103 165.569 67.2275 165.569C68.9448 165.569 70.3413 166.794 70.3413 168.301V186.057C70.3413 186.363 70.4581 186.66 70.6745 186.901L87.8002 206.024L90.2476 204.337L79.6826 192.538V190.155C79.6826 189.402 80.3816 188.789 81.2395 188.789H81.4434C81.8731 188.789 82.2873 188.947 82.5815 189.222L101.781 207.268C102.589 208.03 103.036 209.023 103.036 210.065V225.668Z" fill="black"/>
<path d="M175.827 162.837C174.61 162.837 173.481 163.157 172.519 163.689C171.91 161.635 169.794 160.105 167.264 160.105C164.259 160.105 161.815 162.25 161.815 164.886V168.78C161.105 168.482 160.319 168.301 159.48 168.301C156.475 168.301 154.031 170.445 154.031 173.081V181.073C153.321 180.775 152.535 180.594 151.695 180.594C148.691 180.594 146.246 182.738 146.246 185.374V198.592L138.999 205.405C137.649 206.674 136.905 208.329 136.905 210.065L136.905 227.034C136.905 227.788 137.603 228.4 138.462 228.4H157.145C158.004 228.4 158.701 227.788 158.701 227.034V221.102C158.701 220.023 159.2 218.968 160.068 218.205L172.257 207.511C172.361 207.42 172.452 207.313 172.523 207.2L181.865 192.175C181.989 191.974 182.055 191.749 182.055 191.521L182.055 168.301C182.055 165.287 179.262 162.837 175.827 162.837ZM164.929 164.886C164.929 163.756 165.977 162.837 167.264 162.837C168.552 162.837 169.6 163.756 169.6 164.886V168.301L169.6 185.585L166.358 189.203C166.136 188.382 165.62 187.666 164.929 187.119V173.081V164.886ZM157.145 173.081C157.145 171.952 158.192 171.032 159.48 171.032C160.767 171.032 161.815 171.952 161.815 173.081V186.057H161.611C160.321 186.057 159.077 186.533 158.197 187.359L157.145 188.349V185.374V173.081ZM149.36 185.374C149.36 184.245 150.408 183.325 151.695 183.325C152.983 183.325 154.031 184.245 154.031 185.374V191.275L149.36 195.665V185.374ZM178.941 191.172L169.897 205.718L157.867 216.272C156.397 217.563 155.588 219.277 155.588 221.102V225.668H140.019L140.019 210.065C140.019 209.023 140.466 208.03 141.275 207.27L160.475 189.223C160.767 188.947 161.182 188.789 161.611 188.789H161.815C162.673 188.789 163.372 189.402 163.372 190.155V192.538L152.807 204.336L155.254 206.022L172.38 186.9C172.597 186.66 172.713 186.363 172.713 186.057V168.301C172.713 166.794 174.11 165.569 175.827 165.569C177.544 165.569 178.941 166.794 178.941 168.301V191.172Z" fill="black"/>
<path d="M82.5093 136C83.1143 122.012 89.8976 108.351 101.97 103.149C114.354 97.8037 128.792 102.34 137.317 113.523C141.567 119.234 144.148 126.263 144.714 133.664C145.279 141.064 143.801 148.481 140.479 154.914C137.349 160.978 132.612 165.808 126.922 168.739C120.905 171.71 114.199 172.466 107.773 170.899C101.495 169.356 95.7746 165.75 91.3462 160.545C86.9177 155.341 83.9839 148.776 82.9218 141.694C82.6563 139.821 82.5184 137.928 82.5093 136.031C82.5093 134.311 79.0168 135.478 79.026 136.953C79.0831 144.727 81.2953 152.29 85.3581 158.602C89.4209 164.914 95.1347 169.665 101.713 172.2C108.542 174.731 115.893 174.913 122.815 172.722C129.736 170.531 135.91 166.068 140.534 159.912C149.701 147.521 150.975 129.19 143.138 115.642C139.407 109.174 133.995 104.136 127.628 101.203C120.76 98.1451 113.217 97.523 106.022 99.4216C99.2397 101.172 93.0872 105.166 88.3668 110.881C83.8039 116.56 80.7694 123.564 79.6126 131.085C79.3071 133.022 79.1111 134.978 79.026 136.942C78.916 138.591 82.4451 137.506 82.5093 136Z" fill="#381805"/>
<path d="M181.437 71.4041C181.345 85.1159 173.957 97.8754 162.315 102.688C150.673 107.501 137.153 103.119 129.123 92.5607C120.772 81.5932 119.25 65.4749 125.988 53.0943C129.238 47.1275 134.032 42.4033 139.738 39.5463C145.438 36.7541 151.799 36.1212 157.851 37.744C163.791 39.3805 169.166 42.9394 173.303 47.9745C177.441 53.0096 180.155 59.297 181.107 66.0484C181.339 67.8217 181.452 69.6119 181.446 71.4041C181.446 73.104 184.929 71.9468 184.929 70.4722C184.919 63.0934 182.896 55.8933 179.129 49.8319C175.362 43.7706 170.031 39.1359 163.846 36.5458C150.417 31.0058 135.209 36.1772 125.997 48.1994C121.439 54.0322 118.721 61.3748 118.26 69.1C117.926 76.5477 119.647 83.9304 123.192 90.2492C126.737 96.568 131.933 101.518 138.078 104.429C144.548 107.389 151.678 108.044 158.493 106.303C171.656 103.026 182.326 91.0758 184.508 76.1044C184.778 74.2421 184.916 72.3588 184.92 70.4722C184.929 68.7723 181.455 69.9192 181.437 71.4041Z" fill="#381805"/>
<path d="M82.6472 48.3528C86.8642 48.462 90.9556 49.9781 94.395 52.7061C97.8344 55.4341 100.465 59.2492 101.947 63.6608C103.43 68.0724 103.697 72.8786 102.715 77.4612C101.732 82.0438 99.5447 86.1933 96.4339 89.3758C93.2602 92.3979 89.3176 94.2311 85.1617 94.6169C81.0058 95.0027 76.8464 93.9217 73.2697 91.5263C69.6532 89.1049 66.7633 85.5364 64.9677 81.2747C63.1721 77.0131 62.552 72.251 63.1864 67.5945C64.6897 57.4258 72.5639 47.9125 82.2255 48.3221C82.6735 48.3579 83.1228 48.2787 83.5391 48.0905C83.9554 47.9024 84.3276 47.6103 84.6272 47.2366C85.0489 46.612 84.9114 45.7927 84.0955 45.762C73.9755 45.3422 64.708 52.7869 61.0414 63.2321C59.3397 68.1304 59.0605 73.5026 60.2433 78.5879C61.4262 83.6733 64.0112 88.2141 67.6322 91.5672C75.3597 98.5921 86.5614 99.0325 95.0589 93.4719C99.2174 90.7807 102.536 86.7285 104.567 81.8627C106.599 76.9969 107.244 71.5519 106.416 66.2633C105.436 60.4905 102.672 55.2858 98.6064 51.5581C94.3883 47.7868 89.1406 45.7447 83.738 45.7723C83.294 45.7784 82.8589 45.9127 82.4751 46.1621C82.0912 46.4115 81.7716 46.7676 81.5472 47.1957C81.1989 48.1071 82.0055 48.3426 82.6472 48.3528Z" fill="#381805"/>
<path d="M173.764 152.323C180.868 152.272 187.734 147.275 190.145 139.707C191.285 136.009 191.368 132.006 190.383 128.253C189.397 124.499 187.392 121.18 184.645 118.755C178.925 113.635 170.831 112.826 164.717 117.506C159.024 121.869 155.724 129.487 157.09 137.137C157.881 141.417 159.967 145.263 162.997 148.028C166.026 150.794 169.815 152.31 173.728 152.323C174.171 152.314 174.605 152.179 174.989 151.93C175.372 151.681 175.692 151.326 175.918 150.9C176.239 149.978 175.423 149.753 174.791 149.743C168.805 149.651 163.571 145.012 161.38 138.939C160.302 135.956 160.015 132.69 160.555 129.53C161.094 126.37 162.437 123.45 164.423 121.121C166.223 118.801 168.748 117.336 171.482 117.025C174.48 116.885 177.444 117.771 179.979 119.564C182.558 121.319 184.636 123.856 185.972 126.881C187.308 129.905 187.846 133.292 187.523 136.645C186.717 144.018 181.547 149.753 174.828 149.804C174.385 149.815 173.951 149.952 173.568 150.201C173.185 150.449 172.864 150.803 172.637 151.228C172.325 152.078 173.123 152.323 173.764 152.323Z" fill="#381805"/>
<path d="M73.9299 112.929C73.8747 109.816 72.9398 106.803 71.2587 104.32C69.5777 101.837 67.2367 100.011 64.5707 99.1043C61.7761 98.1238 58.7784 98.1328 55.9886 99.1301C53.1988 100.127 50.7533 102.064 48.9874 104.675C45.7791 109.355 44.8624 115.448 47.4291 120.763C48.8205 123.574 50.9762 125.819 53.5847 127.172C56.1932 128.525 59.1193 128.916 61.9399 128.289C68.5491 126.958 73.8566 120.558 73.9299 112.929C73.9299 111.229 70.4649 112.376 70.4557 113.85C70.4099 118.827 67.8891 123.896 63.4707 125.473C59.0524 127.05 53.9557 124.531 51.4074 120.23C50.2076 118.236 49.5344 115.905 49.4647 113.504C49.395 111.103 49.9316 108.728 51.0132 106.651C51.9425 104.732 53.3125 103.124 54.9824 101.992C56.878 100.876 59.0793 100.595 61.1516 101.204C63.7418 101.853 66.0639 103.449 67.7494 105.741C69.4349 108.032 70.3874 110.886 70.4557 113.85C70.4741 115.581 73.9574 114.414 73.9299 112.929Z" fill="#381805"/>
<path d="M120.212 34.0778C120.102 38.3071 118.086 42.5671 114.336 43.9802C112.437 44.6224 110.408 44.607 108.517 43.9362C106.625 43.2654 104.96 41.9705 103.74 40.222C102.449 38.4185 101.672 36.2243 101.509 33.9225C101.345 31.6208 101.803 29.3171 102.823 27.3089C103.79 25.4244 105.289 23.9505 107.085 23.1169C108.88 22.2834 110.873 22.137 112.751 22.7007C114.932 23.433 116.841 24.9398 118.188 26.9928C119.534 29.0457 120.245 31.533 120.212 34.0778C120.212 35.7777 123.686 34.6205 123.686 33.1459C123.73 30.4085 123.01 27.7236 121.628 25.4633C120.245 23.2029 118.267 21.4788 115.968 20.5298C113.342 19.5763 110.522 19.5067 107.86 20.3297C105.199 21.1527 102.813 22.8319 100.999 25.1584C99.2918 27.2852 98.2534 29.9767 98.0416 32.8234C97.8298 35.6701 98.4562 38.5162 99.8255 40.9286C101.253 43.2865 103.29 45.103 105.664 46.1365C108.038 47.17 110.638 47.3716 113.117 46.7144C115.987 46.1084 118.591 44.44 120.509 41.9783C122.426 39.5167 123.546 36.4053 123.686 33.1459C123.732 31.5075 120.249 32.6339 120.212 34.0778Z" fill="#381805"/>
<path d="M207.883 90.4921C207.8 93.8817 206.223 97.3839 203.235 98.5206C201.685 99.0238 200.035 98.9908 198.501 98.426C196.968 97.8612 195.624 96.791 194.646 95.3563C193.578 93.8717 192.932 92.0634 192.793 90.1649C192.654 88.2664 193.028 86.365 193.867 84.7063C194.626 83.2165 195.807 82.0509 197.224 81.3929C198.641 80.7348 200.214 80.6216 201.695 81.071C203.507 81.6689 205.093 82.9141 206.211 84.6159C207.329 86.3176 207.916 88.3818 207.883 90.4921C207.883 92.2023 211.357 91.0451 211.366 89.5705C211.401 87.2544 210.791 84.9834 209.62 83.0717C208.449 81.1601 206.775 79.7022 204.83 78.9C202.552 78.0821 200.109 78.0283 197.803 78.7454C195.498 79.4625 193.431 80.9191 191.859 82.9347C190.417 84.7286 189.538 86.9985 189.355 89.4006C189.171 91.8027 189.693 94.2062 190.842 96.2472C192.063 98.2648 193.807 99.817 195.84 100.696C197.874 101.574 200.099 101.737 202.218 101.163C204.69 100.655 206.937 99.2343 208.6 97.1283C210.262 95.0223 211.243 92.3534 211.384 89.55C211.403 87.8808 207.919 89.0175 207.883 90.4921Z" fill="#381805"/>
<path d="M132.45 136.973V152.334C132.45 156.655 131.451 157.812 127.592 157.792C119.094 157.73 110.597 157.72 102.109 157.525C97.9469 157.433 97.6444 156.901 97.5253 152.262C97.3511 147.357 97.1402 142.462 96.9294 137.331C95.0227 137.106 93.2627 136.953 91.4294 136.666C89.5961 136.379 88.8811 134.864 89.9536 133.102C90.7363 131.898 91.6203 130.78 92.5936 129.764C98.4694 123.302 104.4 116.912 110.239 110.41C111.981 108.464 113.466 108.228 115.354 110.164C122.404 117.393 129.535 124.5 136.612 131.74C137.123 132.219 137.531 132.821 137.804 133.502C138.106 134.382 138.564 135.662 138.225 136.225C137.886 136.789 136.667 137.004 135.814 137.086C134.692 137.13 133.568 137.093 132.45 136.973ZM100.367 154.382C109.708 154.382 118.774 154.382 127.867 154.382C129.306 154.382 129.453 153.491 129.453 152.231C129.453 148.135 129.535 144.039 129.453 139.943C129.379 136.871 130.094 134.321 133.119 133.061L112.485 111.72L94.1519 133.696C94.3998 133.76 94.6507 133.808 94.9036 133.839C99.0744 134.423 99.2302 134.587 99.5694 139.226C99.5694 139.963 99.6336 140.711 99.6702 141.448C99.8994 145.626 100.129 149.794 100.394 154.361L100.367 154.382Z" fill="#F3C10E"/>
<path d="M143.165 85.7916C137.235 86.4265 137.198 86.4368 136.574 79.7805C136.061 74.3326 135.658 68.8745 135.199 63.3959C135.135 62.6535 135.135 61.9059 135.199 61.1635C135.429 58.7877 135.96 57.4565 138.775 57.3541C145.595 57.0981 152.378 56.074 159.18 55.306C159.757 55.2446 160.335 55.1524 160.921 55.1012C166.907 54.6609 167.695 55.3879 168.145 61.9418C168.575 68.2396 168.96 74.5477 169.364 80.8455C169.565 83.9176 169.18 84.3784 166.11 84.5423L143.165 85.7916ZM165.78 61.2147C164.625 62.6074 163.946 63.4881 163.176 64.2868C160.573 67.2975 157.979 70.3184 155.339 73.2881C153.762 75.0699 152.14 75.2338 150.279 73.5441C146.86 70.472 143.34 67.3999 139.847 64.4404C139.37 64.0308 138.839 63.7134 138.014 63.0989C138.463 70.1546 138.875 76.6879 139.297 83.2213L166.861 80.9991C166.485 74.5784 166.155 68.3011 165.78 61.184V61.2147ZM164.496 58.1426L140.012 60.7027L153.075 71.9671C156.833 67.4409 160.362 63.1194 164.496 58.1324V58.1426Z" fill="#F3C10E"/>
<path d="M82.9139 88.2289C74.1597 88.0446 68.8339 79.7908 71.6755 70.554C73.5481 64.4499 76.8683 59.0278 81.2822 54.8658C81.7772 54.3947 83.418 54.364 83.6655 54.7736C87.763 61.6449 92.2455 68.4343 92.7314 77.0464C93.1164 83.9075 89.0005 88.3518 82.9139 88.2289ZM81.9972 56.8319C78.413 61.5425 75.4981 66.1199 73.9856 71.6395C72.0147 78.8692 75.9931 84.952 82.8222 85.249C87.4055 85.4333 90.8247 81.8492 90.293 76.7699C89.5597 69.2535 85.5997 63.3243 82.0431 56.8319H81.9972Z" fill="#F3C10E"/>
<path d="M113.283 131.249C114.072 130.389 114.897 129.559 115.648 128.658C116.968 127.06 117.949 127.122 118.49 129.109C118.921 130.686 119.407 131.157 120.956 130.727C121.441 130.68 121.929 130.771 122.374 130.992C122.82 131.212 123.208 131.554 123.504 131.986C125.438 136.942 126.007 142.063 123.302 146.906C120.791 151.392 116.886 152.836 112.302 152.385C104.969 151.668 100.954 145.585 102.595 137.321C103.72 131.828 106.622 126.992 110.744 123.743C111.491 123.152 112.336 122.731 113.228 122.504C113.849 122.47 114.471 122.564 115.062 122.78C115.032 123.476 114.921 124.164 114.732 124.828C113.934 126.753 113.036 128.617 112.174 130.501L113.283 131.249ZM108.902 129.651C107.646 132.928 106.225 135.499 105.684 138.284C104.465 144.428 107.875 148.78 113.567 148.842C115.017 148.895 116.455 148.524 117.736 147.764C119.018 147.005 120.099 145.884 120.873 144.513C121.647 143.143 122.086 141.569 122.147 139.95C122.209 138.331 121.889 136.722 121.222 135.284C121.011 134.814 120.651 134.45 120.213 134.259C118.921 133.778 117.592 133.43 115.987 132.949C112.339 135.458 110.717 134.946 108.902 129.651Z" fill="#F3C10E"/>
<ellipse cx="82.5" cy="72" rx="13.5" ry="18" fill="#F8F8F8"/>
<circle cx="152.5" cy="69.5" r="23.5" fill="#F8F8F8"/>
<circle cx="113.5" cy="135.5" r="28.5" fill="#F8F8F8"/>
</g>
<defs>
<clipPath id="clip0_19_3758">
<rect width="198" height="215" fill="white" transform="translate(23 13)"/>
</clipPath>
</defs>
</svg>
