<svg width="228" height="228" viewBox="0 0 228 228" fill="none" xmlns="http://www.w3.org/2000/svg">
<g clip-path="url(#clip0_26_3809)">
<path d="M87.19 59.47C84.8796 57.0594 81.926 55.3623 78.68 54.58C77.09 54.18 75.68 53.58 76.04 51.69C76.4 49.63 78.15 49.45 79.77 49.79C83.7201 50.747 87.3806 52.6441 90.44 55.32C90.9231 55.82 91.4447 56.2814 92 56.7C92.93 57.24 94.13 57.86 95 57.12C95.87 56.38 94.87 55.48 94.57 54.7C92.04 48.06 89.47 41.44 86.91 34.81C86.38 33.43 85.57 31.9 86.91 30.68C87.5309 30.1662 88.3005 29.8655 89.1053 29.8223C89.9102 29.7791 90.7075 29.9956 91.38 30.44C95.61 32.81 98.91 31.64 102.32 28.55C109.43 22.12 115.04 22.23 122.23 28.45C127.34 32.87 131.83 33.13 138.54 29.45C140.3 28.45 142.11 26.51 144.15 28.21C146.19 29.91 145.44 32.37 144.86 34.59C143.06 41.57 141.253 48.5433 139.44 55.51C139.06 57 138.33 58.51 139.92 59.85C140.198 60.1343 140.36 60.5121 140.375 60.9096C140.39 61.3071 140.256 61.6958 140 62C137.25 65.21 139 68.2 140.7 70.88C143.845 75.9192 147.355 80.722 151.2 85.25C154.54 89.15 157.8 93.12 161.01 97.12C168.8 106.87 172.3 118.25 173.56 130.46C173.78 132.525 173.642 134.612 173.15 136.63C172.84 137.89 173.3 138.3 174.53 137.92C175.38 137.65 176.22 137.36 177.08 137.14C178.566 136.736 180.126 136.689 181.635 137.001C183.143 137.313 184.556 137.976 185.76 138.937C186.964 139.897 187.924 141.127 188.564 142.528C189.203 143.929 189.503 145.461 189.44 147C189.37 147.793 189.13 148.561 188.734 149.251C188.339 149.942 187.798 150.539 187.15 151C182.57 155.07 178.05 159.2 173.28 163C164.34 170.16 155.28 177.19 146.19 184.16C140.7 188.37 134.99 192.27 128.08 193.9C125.656 194.453 123.125 194.308 120.78 193.48C105.841 188.611 90.4555 185.238 74.85 183.41C73.97 183.3 73.07 183.29 72.2 183.13C70.49 182.84 70 183.55 69.94 185.22C69.8 189.22 68.88 190.04 64.94 190.05C61.94 190.05 59.01 190.05 56.07 189.75C50.48 189.25 48.5 187 48.58 181.39C48.7666 169.15 48.99 156.91 49.25 144.67C49.25 143.59 49.38 142.5 49.49 141.43C49.69 139.33 50.67 138.31 52.96 138.37C56.41 138.47 59.88 138.37 63.33 138.18C66.61 137.98 68.66 139.18 69.33 142.47C69.5 143.29 69.67 144.18 70.79 143.71C71.91 143.24 71.15 142.57 70.93 141.96C66.47 129.38 68 116.96 72.76 104.96C77.66 92.58 84.35 81.21 94 71.77C95.6259 70.1697 96.9504 68.2897 97.91 66.22C98.19 65.61 98.64 64.98 97.78 64.43C97.457 64.2024 97.0589 64.1077 96.668 64.1654C96.2771 64.2231 95.9234 64.4288 95.68 64.74C92.13 67.87 92.26 67.57 87.68 65.28C84.56 63.73 81.09 64.28 78.08 66.28C76.61 67.28 75.08 68.4 73.73 66.48C72.38 64.56 73.86 63.19 75.38 62.09C78.87 59.49 83 59.7 87.19 59.47ZM73.19 126.68C73.0259 130.74 73.5569 134.799 74.76 138.68C76.1 142.62 77.42 143.48 81.48 143.22C83.75 143.07 86.02 142.99 88.28 142.76C102.864 141.255 117.526 144.753 129.86 152.68C131.63 153.78 133.56 154.68 134.38 156.78C135.08 158.52 135.89 157.99 137.06 157.31C146.54 151.8 155.98 146.24 165.72 141.2C166.41 140.84 167.3 140.64 167.45 139.73C167.98 136.56 169.13 133.54 168.76 130.14C167.376 116.766 161.712 104.196 152.61 94.3C147.162 88.3076 142.187 81.9017 137.73 75.14C136.15 72.72 134.73 70.24 134.52 67.28C134.43 65.96 134.06 65.28 132.52 65.66C123.342 67.7572 113.836 67.9817 104.57 66.32C103.2 66.09 102.37 66.32 101.94 67.82C100.953 70.7371 99.255 73.3626 97 75.46C93.9296 78.5401 91.1387 81.8865 88.66 85.46C80.28 98 73.37 111.07 73.21 126.68H73.19ZM69.82 163.31H70C70 167.65 70 171.99 70 176.31C70 177.67 70.22 178.31 71.93 178.48C88.3852 179.729 104.626 182.987 120.29 188.18C122.281 188.882 124.398 189.156 126.502 188.983C128.606 188.811 130.65 188.197 132.5 187.18C138.5 184.18 143.65 180.07 148.82 175.94C160.08 166.94 171.68 158.37 182.44 148.77C183.44 147.83 184.98 147 184.34 145.12C184.065 144.268 183.569 143.504 182.904 142.905C182.238 142.306 181.426 141.894 180.55 141.71C179.372 141.535 178.169 141.698 177.08 142.18C162.58 146.74 150.32 155.61 137.21 162.85C136.776 163.092 136.417 163.448 136.172 163.88C135.926 164.312 135.805 164.803 135.82 165.3C135.68 167.96 134.13 168.74 131.82 168.09C122.12 165.39 112.427 162.653 102.74 159.88C101.24 159.45 99.84 158.6 100.41 156.74C100.92 155.05 102.48 155.15 103.89 155.35C104.67 155.47 105.442 155.64 106.2 155.86C113.42 157.86 120.64 159.98 127.86 162C128.76 162.26 129.99 163 130.6 162.09C131.21 161.18 130.52 159.82 129.91 158.81C129.585 158.319 129.146 157.914 128.63 157.63C121.75 153.71 114.84 150.03 106.9 148.51C95.14 146.25 83.46 148.38 71.75 148.51C70.06 148.51 69.9 149.51 69.91 150.85C69.86 155 69.84 159.16 69.84 163.31H69.82ZM139.76 34.75C139.35 34.7409 138.94 34.7812 138.54 34.87C130.82 38.38 124.08 37.11 117.9 31.23C114.15 27.66 111.47 27.81 107.02 30.92C105.81 31.77 104.74 32.8 103.61 33.75C102.511 34.7566 101.214 35.5235 99.8022 36.0021C98.3906 36.4807 96.8948 36.6604 95.41 36.53C93.02 36.28 93.06 36.95 93.72 38.87C96 45.58 99.29 52 101 58.89C101.37 60.4 102.38 60.89 103.74 61.15C112.763 62.9488 122.057 62.8977 131.06 61C131.737 60.8953 132.36 60.5715 132.835 60.0784C133.31 59.5853 133.611 58.9501 133.69 58.27C134.9 53.38 136.23 48.53 137.49 43.66C138.25 40.77 139 37.84 139.76 34.75ZM65.17 164.11C65.17 158 65.08 151.89 65.22 145.79C65.22 143.67 64.55 142.98 62.52 143.11C60.5489 143.245 58.571 143.245 56.6 143.11C54.52 142.96 53.91 143.78 53.9 145.82C53.82 155.96 53.57 166.11 53.43 176.25C53.31 185.4 53.34 185.35 62.53 185.18C64.61 185.18 65.26 184.46 65.23 182.43C65.11 176.32 65.17 170.21 65.17 164.11Z" fill="#381805"/>
<path d="M147.94 120.25C147.89 127.87 144.52 132.25 136.26 134.45C133.31 135.24 132.48 136.45 132.95 139.33C133.25 141.18 133.69 143.95 131.14 144.26C128.22 144.6 128.32 141.58 128.26 139.7C128.16 136.7 126.95 136.25 124.21 136.48C113.61 137.36 105.84 132.96 101.45 123.91C100.9 122.78 99.9402 121.4 101.22 120.42C102.76 119.23 103.69 120.85 104.59 121.8C106.02 123.3 107.3 124.95 108.73 126.45C113.32 131.25 119.15 132.08 125.4 131.53C126.8 131.41 126.94 130.59 126.71 129.47C125.18 121.83 123.62 114.19 122.13 106.53C121.84 105.06 120.95 104.68 119.66 104.53C117.402 104.286 115.164 103.888 112.96 103.34C107.7 101.8 103.96 98.53 103.41 92.87C102.86 87.21 104.87 82.35 110 79.22C110.905 78.6149 111.887 78.1339 112.92 77.79C114.61 77.3 115.07 76.46 114.54 74.74C114.08 73.25 113.69 71.35 115.75 70.74C117.81 70.13 118.49 72 118.94 73.48C119.48 75.28 120.45 75.91 122.34 75.98C125.431 76.0623 128.417 77.1115 130.88 78.98C132.141 79.7948 133.064 81.0378 133.48 82.48C133.76 83.66 133.93 84.95 132.65 85.64C131.37 86.33 130.65 85.37 129.93 84.5C128.261 82.5064 125.892 81.2259 123.31 80.92C122.11 80.7 121.68 81.05 121.97 82.34C123.18 87.63 124.37 92.93 125.47 98.24C125.77 99.69 126.58 100.11 127.92 100.24C132.355 100.744 136.605 102.297 140.32 104.77C145.89 108.48 148 113.82 147.94 120.25ZM142.99 120.25C142.959 116.414 141.459 112.737 138.799 109.973C136.139 107.209 132.522 105.569 128.69 105.39C127.26 105.39 127 105.82 127.26 107.12C128.74 114.373 130.187 121.63 131.6 128.89C131.8 129.89 132.2 130.38 133.37 130.28C139.09 129.77 143 125.77 143 120.23L142.99 120.25ZM118.59 99.53C120.07 99.73 120.59 99.11 120.32 97.67L117.2 83.53C116.88 82.08 116.2 81.65 114.68 82.23C112.697 82.8857 110.986 84.1788 109.814 85.9079C108.642 87.6369 108.075 89.7049 108.2 91.79C108.43 95.35 110.96 97.86 115.4 98.89C116.46 99.14 117.53 99.31 118.59 99.51V99.53Z" fill="#F3C10E"/>
<g clip-path="url(#clip1_26_3809)">
<path d="M27.1878 52.6793L27.2478 52.6481C27.2478 52.6481 27.1401 52.555 27.1878 52.6793Z" fill="black"/>
<path d="M12.7015 60.2204L12.7614 60.1891C12.687 60.0788 12.7015 60.2204 12.7015 60.2204Z" fill="black"/>
<path d="M43.5791 48.8407C42.9627 48.4786 42.2423 48.3781 41.5504 48.5578L37.9064 49.5042L39.1902 48.3012C40.2539 47.3046 40.3118 45.5842 39.3134 44.5185C38.3166 43.4548 36.5965 43.397 35.5305 44.3953L29.5444 50.0041C29.1892 49.7671 28.7819 49.618 28.3594 49.5693C28.4038 46.1826 28.1147 40.6252 27.109 38.6931C26.8637 38.2219 26.2284 38.0892 25.8148 38.423C23.3264 40.4323 20.8687 42.0412 18.3046 43.3406C15.669 44.6761 12.238 46.0484 9.96118 46.678C9.25726 46.8726 9.11791 47.8462 9.74196 48.2292C10.6746 48.8016 11.4387 49.5224 12.0686 50.3218C9.53757 51.7395 6.70805 52.8163 4.16376 52.8577C3.47838 52.8689 3.0842 53.6788 3.49516 54.2254C6.11308 57.7041 8.55665 59.2707 10.7193 60.2895L10.6908 60.3043C9.38189 60.9857 8.87132 62.605 9.5527 63.914C10.1794 65.1178 11.5992 65.6454 12.8414 65.1926C12.7328 67.0536 12.2235 69.0308 11.6874 71.1064C10.5474 75.5204 9.25521 80.5233 11.0875 86.5614C11.9641 89.4505 13.2627 91.9049 14.9473 93.8563C16.5199 95.6782 18.4344 97.0717 20.6371 97.9982C23.5611 99.228 26.9044 99.6228 30.5741 99.172C33.8797 98.7659 37.3334 97.6629 40.5619 95.9822C43.7904 94.3016 46.675 92.1051 48.9036 89.6303C51.3777 86.8828 52.9718 83.9176 53.6416 80.8171C54.1462 78.4813 54.1028 76.1139 53.5124 73.7806C52.88 71.2814 51.6144 68.8098 49.7506 66.4346C45.8555 61.4705 41.0163 59.6594 36.7467 58.0615C35.2972 57.519 33.9171 57.0008 32.6706 56.3945L42.8961 53.7385C43.9794 53.4571 44.7901 52.4971 44.8894 51.3828C44.98 50.3626 44.4612 49.3588 43.5791 48.8407ZM19.0767 44.8644C21.4227 43.6755 23.6775 42.2425 25.9399 40.4999C26.4558 42.6074 26.7184 46.6968 26.6442 49.9547C25.7168 50.5298 25.2506 51.6012 25.4122 52.6407L23.3088 53.7357C23.2079 53.6581 23.0969 53.5733 22.9733 53.4792C21.6032 52.4351 18.752 50.2628 17.4779 47.8152C17.2329 47.3447 16.5987 47.2112 16.185 47.5441C15.3951 48.1794 14.4994 48.827 13.5367 49.4419C13.1018 48.8648 12.6081 48.3171 12.0453 47.8186C14.2449 47.074 16.922 45.9561 19.0767 44.8644ZM28.9144 51.7804L30.5972 55.0129C30.8436 55.4863 30.659 56.0721 30.1855 56.3186C29.712 56.5651 29.1263 56.3804 28.8798 55.9069L27.1971 52.6744C26.9506 52.2008 27.1352 51.6152 27.6087 51.3687C28.0823 51.1222 28.668 51.3069 28.9144 51.7804ZM5.8423 54.4222C8.07288 54.0827 10.5521 53.1565 13.0223 51.7582L14.4745 50.8817C15.1489 50.448 15.8188 49.9804 16.4789 49.4811C17.9354 51.702 20.2599 53.5531 21.6353 54.6068L16.5907 57.2329L14.9969 58.0626L12.6528 59.2829C12.622 59.2651 12.5902 59.2485 12.5567 59.2344C10.4959 58.3695 8.29205 57.2755 5.8423 54.4222ZM36.1478 59.6612C40.207 61.1802 44.8075 62.902 48.4067 67.4888C51.7192 71.7103 52.9186 76.0731 51.9717 80.456C50.8042 85.8604 46.244 91.0981 39.7731 94.4667C33.3022 97.8352 26.396 98.5666 21.2993 96.4231C17.166 94.6849 14.2802 91.1999 12.722 86.0652C11.029 80.486 12.2574 75.7297 13.3414 71.5335C13.9894 69.0242 14.6006 66.6518 14.5697 64.3193L16.42 63.3561C16.8385 63.1382 17.001 62.6225 16.7832 62.2041C16.5654 61.7857 16.0497 61.6231 15.6312 61.8409L12.3734 63.5368C11.8999 63.7833 11.3142 63.5987 11.0677 63.1251C10.8212 62.6516 11.0059 62.066 11.4794 61.8195L26.0762 54.2209L26.9702 55.9381L19.2424 59.9609C18.8238 60.1788 18.6614 60.6946 18.8792 61.1129C19.0969 61.5313 19.6127 61.694 20.0311 61.4761L27.8836 57.3884C28.689 58.1618 29.9301 58.3773 30.9742 57.8338C31.0948 57.771 31.2083 57.7002 31.3152 57.6225C32.7974 58.4054 34.4256 59.0168 36.1478 59.6612ZM30.613 51.3437L36.6984 45.642C37.0837 45.2807 37.7065 45.3019 38.0667 45.6865C38.4277 46.072 38.407 46.6943 38.0222 47.0547L34.5444 50.3132C34.5161 50.3398 34.4907 50.3684 34.4668 50.3977L30.6383 51.3922L30.613 51.3437ZM43.1601 50.9046C43.2942 51.4213 42.9839 51.9505 42.4665 52.0849L32.3114 54.7226C32.2628 54.5533 32.1968 54.3863 32.1123 54.224L31.4474 52.9467L41.9797 50.211C42.4902 50.0785 43.0273 50.3937 43.1601 50.9046Z" fill="black"/>
<path d="M34.8937 73.2547C35.9798 72.6893 36.4035 71.3456 35.8381 70.2594L35.2071 69.0472C33.7314 66.2126 30.3939 64.9633 27.4663 66.016L26.7824 64.7023C26.217 63.6162 24.8733 63.1924 23.7871 63.7578C22.701 64.3232 22.2773 65.6669 22.8427 66.7531L23.5788 68.1671C21.0973 70.2549 20.3552 73.8133 21.8852 76.7525C23.6685 80.178 27.9062 81.5142 31.3317 79.7309L32.5439 79.0999C33.7971 78.4476 35.3475 78.9362 36 80.1896C36.6524 81.443 36.1635 82.9933 34.9103 83.6457L33.0919 84.5923C32.1728 85.0707 31.0359 84.7122 30.5574 83.7931C29.9921 82.707 28.6484 82.2833 27.5622 82.8487C26.4761 83.4141 26.0523 84.7578 26.6177 85.844C28.0934 88.6787 31.4309 89.9279 34.3585 88.8752L35.0424 90.189C35.6078 91.2751 36.9515 91.6988 38.0377 91.1334C39.1238 90.568 39.5475 89.2243 38.9821 88.1381L38.246 86.7241C40.7275 84.6364 41.4696 81.0779 39.9396 78.1388C38.1563 74.7132 33.9186 73.3771 30.4931 75.1603L29.2809 75.7913C28.0277 76.4437 26.4773 75.955 25.8248 74.7016C25.1724 73.4483 25.6613 71.898 26.9145 71.2455L28.7329 70.299C29.652 69.8205 30.7889 70.1791 31.2674 71.0981L31.8984 72.3103C32.4638 73.3964 33.8076 73.8201 34.8937 73.2547ZM27.9442 68.7837L26.1259 69.7303C24.0371 70.8177 23.2224 73.4016 24.3097 75.4903C25.3971 77.5791 27.981 78.3938 30.0698 77.3065L31.2819 76.6755C33.8721 75.3271 37.0762 76.3374 38.4245 78.9275C39.672 81.324 38.9217 84.2648 36.6794 85.7681C36.318 86.0105 36.1965 86.4859 36.3974 86.872L37.4671 88.9268C37.5976 89.1774 37.4998 89.4875 37.2492 89.6179C36.9986 89.7484 36.6884 89.6506 36.558 89.4L35.5063 87.3797C35.2885 86.9613 34.7728 86.7987 34.3543 87.0165C32.0984 88.1909 29.3078 87.3109 28.1335 85.0551C28.003 84.8045 28.1008 84.4944 28.3514 84.3639C28.602 84.2335 28.9122 84.3312 29.0426 84.5818C29.956 86.3364 32.1265 87.0208 33.8811 86.1074L35.6994 85.1608C37.7882 84.0735 38.6029 81.4896 37.5155 79.4008C36.4282 77.312 33.8443 76.4973 31.7555 77.5847L30.5433 78.2157C27.9532 79.564 24.7491 78.5537 23.4008 75.9636C22.1532 73.5671 22.9036 70.6263 25.1458 69.123C25.5073 68.8806 25.6288 68.4052 25.4278 68.0192L24.3582 65.9644C24.2277 65.7138 24.3255 65.4036 24.5761 65.2732C24.8267 65.1427 25.1368 65.2405 25.2673 65.4911L26.319 67.5114C26.5368 67.9299 27.0525 68.0925 27.471 67.8746C29.7269 66.7003 32.5175 67.5802 33.6918 69.836L34.3228 71.0482C34.4532 71.2988 34.3554 71.6089 34.1049 71.7394C33.8543 71.8698 33.5441 71.772 33.4137 71.5215L32.7827 70.3093C31.8693 68.5547 29.6988 67.8704 27.9442 68.7837Z" fill="#F3C10E"/>
</g>
<g clip-path="url(#clip2_26_3809)">
<path d="M208.879 33.7657L208.951 33.7881C208.951 33.7881 208.939 33.6312 208.879 33.7657Z" fill="black"/>
<path d="M191.657 28.3356L191.729 28.3581C191.757 28.2136 191.657 28.3356 191.657 28.3356Z" fill="black"/>
<path d="M224.696 43.5801C224.497 42.815 224.012 42.1732 223.331 41.7728L219.742 39.6637L221.686 39.7269C223.297 39.7793 224.687 38.4795 224.74 36.8656C224.792 35.2547 223.493 33.8646 221.879 33.8117L212.813 33.5167C212.721 33.0537 212.519 32.6187 212.227 32.2503C214.909 29.6371 219.028 25.0661 219.753 22.7692C219.929 22.209 219.536 21.6085 218.952 21.546C215.435 21.1715 212.256 20.5079 209.235 19.5191C206.131 18.5026 202.375 16.8931 200.103 15.6051C199.4 15.207 198.53 15.8592 198.719 16.6466C199 17.8233 199.034 18.9842 198.902 20.1017C195.814 19.2313 192.76 17.8609 190.738 15.9041C190.194 15.3769 189.252 15.702 189.146 16.4506C188.473 21.2173 189.159 24.3526 190.053 26.84L190.02 26.8293C188.463 26.3387 186.798 27.2055 186.308 28.7617C185.856 30.1928 186.554 31.7154 187.879 32.3326C186.339 33.7028 184.395 34.8504 182.353 36.0541C178.011 38.6138 173.089 41.5151 169.801 47.6684C168.227 50.6127 167.324 53.5469 167.115 56.3897C166.92 59.0437 167.327 61.63 168.325 64.0766C169.65 67.3242 171.955 70.2468 175.177 72.7635C178.079 75.0305 181.641 76.8684 185.479 78.0785C189.318 79.2887 193.29 79.8267 196.968 79.6342C201.05 79.4205 204.615 78.3485 207.563 76.4481C209.783 75.0164 211.6 73.1315 212.963 70.8456C214.423 68.3972 215.366 65.4752 215.765 62.1611C216.601 55.2345 214.234 50.0349 212.145 45.4475C211.436 43.89 210.762 42.4058 210.261 40.9573L220.333 46.8754C221.4 47.5024 222.784 47.3857 223.733 46.592C224.601 45.8653 224.98 44.6749 224.696 43.5801ZM208.648 21.3141C211.411 22.2188 214.295 22.8613 217.426 23.2677C216.182 25.3189 213.19 28.7214 210.584 31.2106C209.41 30.9352 208.208 31.4084 207.521 32.3474L205.02 31.559C205.002 31.4194 204.982 31.2663 204.959 31.0961C204.704 29.2086 204.173 25.281 205.091 22.3712C205.267 21.8118 204.875 21.2115 204.292 21.1483C203.177 21.0275 201.971 20.8336 200.737 20.5616C200.849 19.7704 200.891 18.9562 200.84 18.1264C203.142 19.264 206.109 20.483 208.648 21.3141ZM210.932 34.4129L209.72 38.256C209.543 38.8188 208.941 39.1324 208.378 38.9549C207.815 38.7774 207.501 38.1752 207.679 37.6122L208.89 33.7692C209.068 33.2063 209.67 32.8927 210.233 33.0702C210.796 33.2477 211.109 33.8501 210.932 34.4129ZM190.828 18.4396C192.837 19.9182 195.5 21.1324 198.524 21.9704L200.345 22.4205C201.211 22.6087 202.101 22.7669 203.007 22.8926C202.409 25.7677 202.78 29.0324 203.031 30.9317L197.034 29.0407L195.139 28.4433L192.352 27.5646C192.342 27.5267 192.33 27.4889 192.315 27.4516C191.38 25.1642 190.512 22.5858 190.828 18.4396ZM210.426 46.2299C212.412 50.5913 214.663 55.5343 213.89 61.9345C213.18 67.8249 210.706 72.1737 206.539 74.8601C201.401 78.1727 193.741 78.7025 186.048 76.2769C178.355 73.8513 172.383 69.0236 170.074 63.3629C168.202 58.7722 168.67 53.7913 171.466 48.5584C174.505 42.8727 179.184 40.1144 183.312 37.6811C185.781 36.2259 188.114 34.8489 189.913 33.0011L192.113 33.6947C192.61 33.8516 193.141 33.5753 193.297 33.078C193.454 32.5805 193.178 32.0502 192.681 31.8933L188.808 30.6722C188.245 30.4947 187.931 29.8924 188.109 29.3295C188.286 28.7665 188.889 28.453 189.451 28.6305L206.805 34.102L206.161 36.1436L196.974 33.2468C196.476 33.09 195.946 33.3662 195.789 33.8635C195.633 34.3609 195.909 34.8913 196.406 35.0482L205.741 37.9916C205.766 39.226 206.568 40.3649 207.81 40.7562C207.953 40.8014 208.097 40.8348 208.241 40.8577C208.788 42.6287 209.583 44.3796 210.426 46.2299ZM212.601 35.3996L221.817 35.6996C222.401 35.7183 222.871 36.2218 222.852 36.8042C222.833 37.3878 222.33 37.8582 221.748 37.8391L216.481 37.6677C216.438 37.6663 216.396 37.6687 216.354 37.6731L212.583 35.4572L212.601 35.3996ZM222.755 44.8661C222.456 45.375 221.799 45.5462 221.29 45.2467L211.288 39.3693C211.382 39.1989 211.461 39.0167 211.522 38.8238L212 37.3052L222.374 43.401C222.877 43.6965 223.05 44.3629 222.755 44.8661Z" fill="black"/>
<path d="M198.817 55.8773C200.109 56.2844 201.49 55.5651 201.898 54.2738L202.352 52.8327C203.414 49.4628 201.782 45.8766 198.67 44.4107L199.162 42.8489C199.569 41.5576 198.85 40.1758 197.559 39.7686C196.268 39.3615 194.886 40.0808 194.479 41.3721L193.948 43.0531C190.376 42.7453 187.014 44.9472 185.912 48.4414C184.628 52.5139 186.896 56.8718 190.969 58.1558L192.41 58.6102C193.9 59.08 194.73 60.6742 194.26 62.1643C193.79 63.6544 192.196 64.4842 190.706 64.0145L188.544 63.3329C187.452 62.9883 186.843 61.8191 187.188 60.7265C187.595 59.4353 186.875 58.0534 185.584 57.6462C184.293 57.2391 182.911 57.9584 182.504 59.2497C181.441 62.6197 183.074 66.2059 186.186 67.6718L185.694 69.2336C185.286 70.5248 186.006 71.9067 187.297 72.3138C188.588 72.721 189.97 72.0017 190.377 70.7104L190.907 69.0293C194.48 69.3372 197.842 67.1352 198.944 63.641C200.228 59.5685 197.959 55.2107 193.887 53.9266L192.446 53.4723C190.956 53.0025 190.126 51.4082 190.596 49.9182C191.065 48.4281 192.66 47.5982 194.15 48.068L196.311 48.7496C197.404 49.0941 198.013 50.2634 197.668 51.356L197.214 52.797C196.807 54.0883 197.526 55.4702 198.817 55.8773ZM196.879 46.9483L194.718 46.2667C192.235 45.4837 189.577 46.867 188.794 49.3502C188.011 51.8335 189.395 54.4907 191.878 55.2736L193.319 55.728C196.398 56.6989 198.113 59.9939 197.143 63.0731C196.244 65.9222 193.358 67.6348 190.43 67.0571C189.958 66.964 189.491 67.2407 189.346 67.6997L188.576 70.1425C188.482 70.4404 188.163 70.6064 187.865 70.5125C187.567 70.4186 187.401 70.0996 187.495 69.8017L188.253 67.3999C188.41 66.9024 188.133 66.3721 187.636 66.2152C184.954 65.3696 183.46 62.4998 184.306 59.818C184.4 59.5201 184.719 59.354 185.017 59.448C185.314 59.5419 185.481 59.8608 185.387 60.1588C184.729 62.2447 185.891 64.4768 187.977 65.1344L190.138 65.816C192.622 66.599 195.279 65.2157 196.062 62.7325C196.845 60.2493 195.462 57.5921 192.978 56.8091L191.537 56.3547C188.458 55.3838 186.743 52.0888 187.714 49.0096C188.612 46.1605 191.498 44.4479 194.426 45.0256C194.898 45.1188 195.365 44.8421 195.51 44.3831L196.28 41.9402C196.374 41.6423 196.693 41.4763 196.991 41.5702C197.289 41.6642 197.455 41.9831 197.361 42.281L196.604 44.6828C196.447 45.1803 196.723 45.7106 197.22 45.8675C199.902 46.7131 201.396 49.5829 200.55 52.2647L200.096 53.7058C200.002 54.0037 199.683 54.1698 199.385 54.0758C199.087 53.9819 198.921 53.663 199.015 53.365L199.47 51.924C200.127 49.8381 198.965 47.606 196.879 46.9483Z" fill="#F3C10E"/>
</g>
</g>
<defs>
<clipPath id="clip0_26_3809">
<rect width="228" height="228" fill="white"/>
</clipPath>
<clipPath id="clip1_26_3809">
<rect width="57.882" height="57.882" fill="white" transform="translate(-10.6606 57.3916) rotate(-27.5)"/>
</clipPath>
<clipPath id="clip2_26_3809">
<rect width="64" height="64" fill="white" transform="translate(175.604 7.85846) rotate(17.5)"/>
</clipPath>
</defs>
</svg>
