<svg width="229" height="228" viewBox="0 0 229 228" fill="none" xmlns="http://www.w3.org/2000/svg">
<g clip-path="url(#clip0_5126_3936)">
<path d="M79.4199 133.53C80.0799 119.87 87.4799 106.53 100.65 101.45C114.16 96.2301 129.91 100.66 139.21 111.58C143.846 117.158 146.663 124.022 147.279 131.249C147.896 138.475 146.284 145.717 142.66 152C139.245 157.921 134.077 162.638 127.87 165.5C121.307 168.401 113.991 169.14 106.98 167.61C100.132 166.103 93.8912 162.581 89.0602 157.499C84.2291 152.417 81.0286 146.006 79.8699 139.09C79.5803 137.261 79.4298 135.412 79.4199 133.56C79.4199 131.88 75.6099 133.02 75.6199 134.46C75.6823 142.052 78.0956 149.438 82.5277 155.601C86.9599 161.765 93.1931 166.404 100.37 168.88C107.819 171.352 115.838 171.529 123.389 169.389C130.94 167.25 137.675 162.892 142.72 156.88C152.72 144.78 154.11 126.88 145.56 113.65C141.491 107.334 135.586 102.414 128.64 99.5501C121.148 96.5636 112.919 95.956 105.07 97.8101C97.6713 99.5198 90.9595 103.419 85.8099 109C80.8322 114.546 77.5218 121.385 76.2599 128.73C75.9266 130.621 75.7129 132.532 75.6199 134.45C75.4999 136.06 79.3499 135 79.4199 133.53Z" fill="#381805"/>
<path d="M187.34 70.45C187.24 83.84 179.18 96.3 166.48 101C153.78 105.7 139.03 101.42 130.27 91.11C121.16 80.4 119.5 64.66 126.85 52.57C130.395 46.7433 135.626 42.1299 141.85 39.34C148.068 36.6134 155.007 35.9953 161.61 37.58C168.09 39.1781 173.954 42.6535 178.467 47.5704C182.98 52.4874 185.941 58.6271 186.98 65.22C187.233 66.9517 187.357 68.6999 187.35 70.45C187.35 72.11 191.15 70.98 191.15 69.54C191.138 62.3344 188.931 55.3033 184.822 49.3843C180.713 43.4652 174.897 38.9393 168.15 36.41C153.5 31 136.91 36.05 126.86 47.79C121.888 53.4859 118.923 60.6562 118.42 68.2C118.055 75.4729 119.933 82.6823 123.8 88.8528C127.667 95.0233 133.336 99.857 140.04 102.7C147.097 105.591 154.875 106.23 162.31 104.53C176.67 101.33 188.31 89.66 190.69 75.04C190.985 73.2214 191.135 71.3824 191.14 69.54C191.15 67.88 187.36 69 187.34 70.45Z" fill="#381805"/>
<path d="M79.5702 47.9401C84.1706 48.0466 88.6339 49.5271 92.386 52.1911C96.1381 54.8551 99.0074 58.5807 100.625 62.8887C102.242 67.1967 102.534 71.8901 101.462 76.3652C100.39 80.8402 98.0038 84.8922 94.6102 88.0001C91.148 90.9513 86.847 92.7414 82.3133 93.1182C77.7796 93.4949 73.242 92.4393 69.3402 90.1001C65.3949 87.7356 62.2423 84.2508 60.2835 80.0892C58.3247 75.9276 57.6482 71.2773 58.3402 66.7301C59.9802 56.8001 68.5702 47.5101 79.1102 47.9101C79.5989 47.945 80.089 47.8677 80.5431 47.6839C80.9973 47.5002 81.4033 47.215 81.7302 46.8501C82.1902 46.2401 82.0402 45.4401 81.1502 45.4101C70.1102 45.0001 60.0002 52.2701 56.0002 62.4701C54.1438 67.2534 53.8392 72.4995 55.1296 77.4654C56.42 82.4314 59.24 86.8656 63.1902 90.1401C71.6202 97.0001 83.8402 97.4301 93.1102 92.0001C97.6468 89.372 101.267 85.4149 103.483 80.6633C105.699 75.9117 106.403 70.5946 105.5 65.4301C104.431 59.7928 101.415 54.7103 96.9802 51.0701C92.3787 47.3873 86.6539 45.3932 80.7602 45.4201C80.2758 45.4261 79.8012 45.5572 79.3824 45.8008C78.9637 46.0443 78.615 46.392 78.3702 46.8101C77.9902 47.7001 78.8702 47.9301 79.5702 47.9401Z" fill="#381805"/>
<path d="M178.971 149.47C186.721 149.42 194.211 144.54 196.841 137.15C198.084 133.538 198.175 129.63 197.1 125.964C196.025 122.299 193.838 119.058 190.841 116.69C184.601 111.69 175.771 110.9 169.101 115.47C162.891 119.73 159.291 127.17 160.781 134.64C161.644 138.82 163.919 142.575 167.224 145.276C170.529 147.976 174.663 149.457 178.931 149.47C179.414 149.461 179.888 149.329 180.306 149.086C180.725 148.842 181.074 148.496 181.321 148.08C181.671 147.18 180.781 146.96 180.091 146.95C173.561 146.86 167.851 142.33 165.461 136.4C164.284 133.487 163.971 130.297 164.56 127.212C165.149 124.126 166.614 121.275 168.781 119C170.744 116.735 173.498 115.304 176.481 115C179.751 114.863 182.985 115.729 185.751 117.48C188.563 119.193 190.831 121.671 192.288 124.625C193.745 127.578 194.332 130.885 193.981 134.16C193.101 141.36 187.461 146.96 180.131 147.01C179.647 147.021 179.175 147.154 178.757 147.397C178.339 147.64 177.989 147.985 177.741 148.4C177.401 149.23 178.271 149.47 178.971 149.47Z" fill="#381805"/>
<path d="M70.0607 111C70.0005 107.96 68.9805 105.018 67.1467 102.593C65.3128 100.168 62.759 98.3855 59.8507 97.5C56.802 96.5426 53.5318 96.5514 50.4884 97.5253C47.4449 98.4992 44.7771 100.391 42.8507 102.94C39.3507 107.51 38.3507 113.46 41.1507 118.65C42.6686 121.396 45.0203 123.588 47.866 124.909C50.7116 126.23 53.9036 126.612 56.9807 126C64.1907 124.7 69.9807 118.45 70.0607 111C70.0607 109.34 66.2807 110.46 66.2707 111.9C66.2207 116.76 63.4707 121.71 58.6507 123.25C53.8307 124.79 48.2707 122.33 45.4907 118.13C44.1818 116.183 43.4474 113.907 43.3713 111.562C43.2953 109.217 43.8807 106.898 45.0607 104.87C46.0745 102.996 47.569 101.425 49.3907 100.32C51.4586 99.2303 53.86 98.9555 56.1207 99.55C58.9464 100.184 61.4795 101.743 63.3183 103.981C65.1571 106.218 66.1961 109.005 66.2707 111.9C66.2907 113.59 70.0907 112.45 70.0607 111Z" fill="#381805"/>
<path d="M120.55 34.0001C120.43 38.1301 118.23 42.2901 114.14 43.6701C112.068 44.2971 109.855 44.2822 107.792 43.6271C105.728 42.972 103.911 41.7075 102.58 40.0001C101.173 38.2389 100.325 36.0961 100.147 33.8484C99.9683 31.6007 100.468 29.3511 101.58 27.3901C102.636 25.5498 104.27 24.1105 106.229 23.2965C108.188 22.4825 110.362 22.3396 112.41 22.8901C114.791 23.6052 116.873 25.0766 118.342 27.0814C119.811 29.0861 120.586 31.515 120.55 34.0001C120.55 35.6601 124.34 34.5301 124.34 33.0901C124.388 30.4169 123.603 27.7951 122.095 25.5877C120.586 23.3804 118.428 21.6968 115.92 20.7701C113.055 19.8389 109.979 19.771 107.076 20.5747C104.172 21.3784 101.569 23.0182 99.5905 25.2901C97.7282 27.3669 96.5954 29.9952 96.3643 32.7751C96.1333 35.555 96.8166 38.3343 98.3105 40.6901C99.8679 42.9926 102.089 44.7665 104.68 45.7757C107.27 46.785 110.106 46.9818 112.81 46.3401C115.942 45.7482 118.782 44.119 120.874 41.7152C122.966 39.3113 124.187 36.2729 124.34 33.0901C124.39 31.4901 120.59 32.5901 120.55 34.0001Z" fill="#381805"/>
<path d="M216.189 89.0901C216.099 92.4001 214.379 95.8201 211.119 96.9301C209.428 97.4215 207.628 97.3893 205.955 96.8377C204.283 96.2862 202.816 95.2411 201.749 93.8401C200.584 92.3904 199.88 90.6245 199.728 88.7705C199.577 86.9166 199.985 85.0598 200.899 83.4401C201.728 81.9853 203.016 80.847 204.562 80.2044C206.108 79.5618 207.824 79.4512 209.439 79.8901C211.416 80.474 213.146 81.69 214.366 83.3518C215.585 85.0135 216.225 87.0293 216.189 89.0901C216.189 90.7601 219.979 89.6301 219.989 88.1901C220.028 85.9284 219.362 83.7107 218.085 81.8439C216.807 79.9771 214.981 78.5535 212.859 77.7701C210.374 76.9713 207.709 76.9189 205.194 77.6191C202.679 78.3194 200.424 79.7417 198.709 81.7101C197.136 83.4618 196.177 85.6784 195.977 88.0242C195.776 90.3699 196.346 92.717 197.599 94.7101C198.931 96.6803 200.834 98.1961 203.052 99.0541C205.27 99.912 207.698 100.071 210.009 99.5101C212.706 99.0145 215.158 97.627 216.971 95.5705C218.785 93.514 219.855 90.9077 220.009 88.1701C220.029 86.5401 216.229 87.6501 216.189 89.0901Z" fill="#381805"/>
<path d="M133.9 134.48V149.48C133.9 153.7 132.81 154.83 128.6 154.81C119.33 154.75 110.06 154.74 100.8 154.55C96.2603 154.46 95.9303 153.94 95.8003 149.41C95.6103 144.62 95.3803 139.84 95.1503 134.83C93.0703 134.61 91.1503 134.46 89.1503 134.18C87.1503 133.9 86.3703 132.42 87.5403 130.7C88.3941 129.524 89.3585 128.432 90.4203 127.44C96.8303 121.13 103.3 114.89 109.67 108.54C111.57 106.64 113.19 106.41 115.25 108.3C122.94 115.36 130.72 122.3 138.44 129.37C138.998 129.838 139.442 130.426 139.74 131.09C140.07 131.95 140.57 133.2 140.2 133.75C139.83 134.3 138.5 134.51 137.57 134.59C136.346 134.634 135.12 134.597 133.9 134.48ZM98.9003 151.48C109.09 151.48 118.98 151.48 128.9 151.48C130.47 151.48 130.63 150.61 130.63 149.38C130.63 145.38 130.72 141.38 130.63 137.38C130.55 134.38 131.33 131.89 134.63 130.66L112.12 109.82L92.1203 131.28C92.3907 131.343 92.6644 131.389 92.9403 131.42C97.4903 131.99 97.6603 132.15 98.0303 136.68C98.0303 137.4 98.1003 138.13 98.1403 138.85C98.3903 142.93 98.6403 147 98.9303 151.46L98.9003 151.48Z" fill="#F3C10E"/>
<path d="M145.59 84.5C139.12 85.12 139.08 85.13 138.4 78.63C137.84 73.31 137.4 67.98 136.9 62.63C136.83 61.905 136.83 61.175 136.9 60.45C137.15 58.13 137.73 56.83 140.8 56.73C148.24 56.48 155.64 55.48 163.06 54.73C163.69 54.67 164.32 54.58 164.96 54.53C171.49 54.1 172.35 54.81 172.84 61.21C173.31 67.36 173.73 73.52 174.17 79.67C174.39 82.67 173.97 83.12 170.62 83.28L145.59 84.5ZM170.26 60.5C169 61.86 168.26 62.72 167.42 63.5C164.58 66.44 161.75 69.39 158.87 72.29C157.15 74.03 155.38 74.19 153.35 72.54C149.62 69.54 145.78 66.54 141.97 63.65C141.45 63.25 140.87 62.94 139.97 62.34C140.46 69.23 140.91 75.61 141.37 81.99L171.44 79.82C171.03 73.55 170.67 67.42 170.26 60.47V60.5ZM168.86 57.5L142.15 60L156.4 71C160.5 66.58 164.35 62.36 168.86 57.49V57.5Z" fill="#F3C10E"/>
<path d="M79.8602 86.88C70.3102 86.7 64.5002 78.64 67.6002 69.62C69.643 63.6591 73.265 58.3643 78.0802 54.3C78.6202 53.84 80.4102 53.81 80.6802 54.21C85.1502 60.92 90.0402 67.55 90.5702 75.96C90.9902 82.66 86.5002 87 79.8602 86.88ZM78.8602 56.22C74.9502 60.82 71.7702 65.29 70.1202 70.68C67.9702 77.74 72.3102 83.68 79.7602 83.97C84.7602 84.15 88.4902 80.65 87.9102 75.69C87.1102 68.35 82.7902 62.56 78.9102 56.22H78.8602Z" fill="#F3C10E"/>
<path d="M112.989 128.89C113.849 128.05 114.749 127.24 115.569 126.36C117.009 124.8 118.079 124.86 118.669 126.8C119.139 128.34 119.669 128.8 121.359 128.38C121.889 128.335 122.421 128.424 122.907 128.639C123.393 128.854 123.817 129.188 124.139 129.61C126.249 134.45 126.869 139.45 123.919 144.18C121.179 148.56 116.919 149.97 111.919 149.53C103.919 148.83 99.5393 142.89 101.329 134.82C102.557 129.455 105.723 124.733 110.219 121.56C111.035 120.983 111.955 120.572 112.929 120.35C113.607 120.317 114.285 120.409 114.929 120.62C114.897 121.299 114.776 121.972 114.569 122.62C113.699 124.5 112.719 126.32 111.779 128.16L112.989 128.89ZM108.209 127.33C106.839 130.53 105.289 133.04 104.699 135.76C103.369 141.76 107.089 146.01 113.299 146.07C114.881 146.122 116.449 145.759 117.847 145.018C119.245 144.276 120.425 143.182 121.269 141.843C122.113 140.505 122.592 138.968 122.659 137.387C122.726 135.806 122.378 134.235 121.649 132.83C121.419 132.372 121.027 132.016 120.549 131.83C119.139 131.36 117.689 131.02 115.939 130.55C111.959 133 110.189 132.5 108.209 127.33Z" fill="#F3C10E"/>
<path d="M90.1997 193.06C90.0797 186.97 88.3297 181.06 87.7197 175.06C86.7897 165.82 82.3097 162.47 75.2597 157.47C71.1197 154.54 63.6497 149.76 59.0497 147.71C55.9897 146.35 47.9597 149.1 51.4197 159.71" fill="white"/>
<path d="M90.1997 193.06C90.0797 186.97 88.3297 181.06 87.7197 175.06C86.7897 165.82 82.3097 162.47 75.2597 157.47C71.1197 154.54 63.6497 149.76 59.0497 147.71C55.9897 146.35 47.9597 149.1 51.4197 159.71" stroke="#381805" stroke-width="5" stroke-linecap="round" stroke-linejoin="round"/>
<path d="M71.2605 172.9C70.7005 171.81 67.6505 169.71 66.1605 168.9C51.4005 160.9 45.6205 150.13 38.5805 136.32C36.7805 132.8 35.4805 127.82 31.2905 124C29.4805 122.35 24.0205 121.32 21.6705 123.29C19.7705 124.89 20.6705 128.87 21.5805 131.59C25.8005 144.59 28.3905 158.03 33.7105 170.69C36.0505 176.25 40.3205 178.16 45.3605 180.83C55.7705 186.34 60.7005 192.37 63.5005 199.57" fill="white"/>
<path d="M71.2605 172.9C70.7005 171.81 67.6505 169.71 66.1605 168.9C51.4005 160.9 45.6205 150.13 38.5805 136.32C36.7805 132.8 35.4805 127.82 31.2905 124C29.4805 122.35 24.0205 121.32 21.6705 123.29C19.7705 124.89 20.6705 128.87 21.5805 131.59C25.8005 144.59 28.3905 158.03 33.7105 170.69C36.0505 176.25 40.3205 178.16 45.3605 180.83C55.7705 186.34 60.7005 192.37 63.5005 199.57" stroke="#381805" stroke-width="5" stroke-linecap="round" stroke-linejoin="round"/>
<path d="M91.9993 192.74C96.3693 194.74 97.6393 201.65 98.2793 204.86C89.5793 209.15 79.1593 211.59 72.1693 213.66C61.0493 216.74 60.4893 214.88 58.2793 202.58C72.8893 198.74 81.6993 196.07 91.9993 192.74Z" fill="white" stroke="#381805" stroke-width="5" stroke-linecap="round" stroke-linejoin="round"/>
<path d="M139.08 193.06C139.2 186.97 140.94 181.06 141.55 175.06C142.49 165.82 146.96 162.47 154.02 157.47C158.16 154.54 165.63 149.76 170.23 147.71C173.29 146.35 181.31 149.1 177.86 159.71" fill="white"/>
<path d="M139.08 193.06C139.2 186.97 140.94 181.06 141.55 175.06C142.49 165.82 146.96 162.47 154.02 157.47C158.16 154.54 165.63 149.76 170.23 147.71C173.29 146.35 181.31 149.1 177.86 159.71" stroke="#381805" stroke-width="5" stroke-linecap="round" stroke-linejoin="round"/>
<path d="M158.02 172.9C158.57 171.81 161.63 169.71 163.12 168.9C177.87 160.9 183.66 150.13 190.7 136.32C192.5 132.8 193.8 127.82 197.99 124C199.8 122.35 205.26 121.32 207.6 123.29C209.51 124.89 208.6 128.87 207.7 131.59C203.47 144.59 200.89 158.03 195.56 170.69C193.23 176.25 188.96 178.16 183.91 180.83C173.51 186.34 168.58 192.37 165.82 199.57" fill="white"/>
<path d="M158.02 172.9C158.57 171.81 161.63 169.71 163.12 168.9C177.87 160.9 183.66 150.13 190.7 136.32C192.5 132.8 193.8 127.82 197.99 124C199.8 122.35 205.26 121.32 207.6 123.29C209.51 124.89 208.6 128.87 207.7 131.59C203.47 144.59 200.89 158.03 195.56 170.69C193.23 176.25 188.96 178.16 183.91 180.83C173.51 186.34 168.58 192.37 165.82 199.57" stroke="#381805" stroke-width="5" stroke-linecap="round" stroke-linejoin="round"/>
<path d="M137.28 192.74C132.91 194.74 131.64 201.65 131 204.86C139.7 209.15 150.12 211.59 157.11 213.66C168.22 216.74 168.78 214.88 170.99 202.58C156.38 198.74 147.58 196.07 137.28 192.74Z" fill="white" stroke="#381805" stroke-width="5" stroke-linecap="round" stroke-linejoin="round"/>
</g>
<defs>
<clipPath id="clip0_5126_3936">
<rect width="228" height="228" fill="white" transform="translate(0.5)"/>
</clipPath>
</defs>
</svg>
