<svg width="217" height="211" viewBox="0 0 217 211" fill="none" xmlns="http://www.w3.org/2000/svg">
<path opacity="0.2" fill-rule="evenodd" clip-rule="evenodd" d="M47.3948 38.728C47.7826 38.7286 48.1619 38.8417 48.4867 39.0536C48.8114 39.2655 49.0677 39.5672 49.2244 39.9219L50.4076 42.5928C50.5251 42.8599 50.5812 43.1323 50.5812 43.3994C51.7451 43.7384 52.8682 44.2041 53.9305 44.7883C54.0999 44.6201 54.298 44.4835 54.5154 44.3849L57.1061 43.2017C57.4777 43.0311 57.8927 42.9783 58.2951 43.0504C58.6976 43.1225 59.0684 43.3161 59.3577 43.6051L61.5932 45.8433C61.8676 46.1173 62.0565 46.465 62.1371 46.8443C62.2177 47.2236 62.1865 47.6181 62.0473 47.98L60.9923 50.7043C60.8928 50.9645 60.7399 51.201 60.5436 51.3987C61.1258 52.4617 61.5932 53.5835 61.9324 54.7507C62.1706 54.7516 62.4066 54.795 62.6295 54.8789L65.3004 55.8751C65.6832 56.0178 66.0132 56.2742 66.2462 56.6098C66.4792 56.9454 66.6039 57.3442 66.6038 57.7527V60.9151C66.6038 61.3033 66.4909 61.6832 66.279 62.0085C66.067 62.3338 65.7651 62.5904 65.4099 62.7473L62.739 63.9305C62.4852 64.0439 62.2104 64.103 61.9324 64.1041C61.5929 65.2678 61.1272 66.3909 60.5436 67.4534C60.7038 67.6163 60.8427 67.8113 60.9469 68.0383L62.1327 70.6291C62.303 71.0009 62.3554 71.416 62.2828 71.8185C62.2102 72.221 62.0162 72.5917 61.7268 72.8806L59.4886 75.1162C59.2146 75.3905 58.8668 75.5795 58.4876 75.6601C58.1083 75.7407 57.7138 75.7095 57.3519 75.5702L54.6276 74.5152C54.3674 74.4156 54.1308 74.2628 53.9331 74.0665C52.8698 74.6504 51.7458 75.1161 50.5812 75.4554C50.5802 75.6935 50.5368 75.9296 50.453 76.1525L49.4567 78.8234C49.314 79.2062 49.0577 79.5362 48.722 79.7691C48.3864 80.0021 47.9876 80.1269 47.5791 80.1267H44.4168C44.0285 80.1267 43.6486 80.0139 43.3234 79.8019C42.9981 79.5899 42.7414 79.288 42.5845 78.9329L41.4013 76.262C41.288 76.0081 41.2288 75.7334 41.2277 75.4554C40.064 75.1159 38.9409 74.6502 37.8784 74.0665C37.709 74.2346 37.5109 74.3712 37.2935 74.4698L34.7027 75.653C34.3311 75.8236 33.9162 75.8764 33.5137 75.8043C33.1113 75.7322 32.7405 75.5387 32.4512 75.2497L30.2157 73.0115C29.9413 72.7375 29.7524 72.3898 29.6718 72.0105C29.5912 71.6312 29.6224 71.2367 29.7616 70.8748L30.8166 68.1505C30.9163 67.8903 31.0691 67.6538 31.2653 67.4561C30.6813 66.3919 30.2155 65.267 29.8765 64.1014C29.6383 64.1004 29.4023 64.0569 29.1794 63.9732L26.5085 62.977C26.1257 62.8343 25.7957 62.5779 25.5627 62.2423C25.3297 61.9067 25.2049 61.5079 25.2051 61.0994V57.937C25.2051 57.5488 25.318 57.1689 25.5299 56.8436C25.7419 56.5183 26.0438 56.2616 26.399 56.1048L29.0699 54.9216C29.3237 54.8082 29.5984 54.7491 29.8765 54.748C30.2154 53.5841 30.6812 52.4609 31.2653 51.3987C31.0981 51.2291 30.9624 51.031 30.8647 50.8138L29.6788 48.223C29.5085 47.8511 29.4562 47.4361 29.5287 47.0336C29.6013 46.6311 29.7954 46.2604 30.0848 45.9715L32.3203 43.7359C32.5945 43.461 32.9428 43.2718 33.3226 43.1912C33.7024 43.1106 34.0975 43.1421 34.4597 43.2819L37.184 44.3369C37.4564 44.4437 37.6888 44.5959 37.8784 44.7856C38.9409 44.2019 40.064 43.7362 41.2277 43.3967C41.2287 43.1586 41.2721 42.9225 41.3559 42.6996L42.3522 40.0287C42.4949 39.6459 42.7512 39.3159 43.0868 39.083C43.4224 38.85 43.8213 38.7252 44.2298 38.7253L47.3948 38.728Z" fill="#381805"/>
<path fill-rule="evenodd" clip-rule="evenodd" d="M38.5117 60.811C39.1313 61.4318 39.8674 61.9241 40.6777 62.2596C41.4881 62.5951 42.3568 62.7672 43.2339 62.7661C45.0287 62.7661 46.7114 62.0529 47.956 60.811C48.5768 60.1914 49.0691 59.4553 49.4046 58.645C49.7402 57.8346 49.9123 56.9659 49.9111 56.0888C49.9111 54.294 49.198 52.6113 47.956 51.3667C47.3364 50.7459 46.6003 50.2536 45.79 49.9181C44.9796 49.5826 44.1109 49.4104 43.2339 49.4116C41.439 49.4116 39.7564 50.1248 38.5117 51.3667C37.8909 51.9863 37.3986 52.7224 37.0631 53.5327C36.7276 54.3431 36.5555 55.2118 36.5566 56.0888C36.5566 57.8837 37.2698 59.5663 38.5117 60.811ZM46.0677 58.9227C45.3198 59.6705 44.3129 60.0952 43.2339 60.0952C42.1548 60.0952 41.1506 59.6678 40.4027 58.92C39.6549 58.1721 39.2275 57.1706 39.2275 56.0888C39.2275 55.0071 39.6549 54.0056 40.4027 53.2577C41.1506 52.5099 42.1548 52.0825 43.2339 52.0825C44.3129 52.0825 45.3172 52.5099 46.065 53.2577C46.8129 54.0056 47.2402 55.0098 47.2402 56.0888C47.2402 57.1679 46.8129 58.1721 46.065 58.92L46.0677 58.9227Z" fill="#381805"/>
<path fill-rule="evenodd" clip-rule="evenodd" d="M54.495 39.4572L51.103 41.3642C50.111 40.8323 49.0676 40.4028 47.9887 40.0822L46.7334 36.3055C46.6453 36.0392 46.4756 35.8074 46.2484 35.643C46.0211 35.4785 45.7479 35.3898 45.4674 35.3894H40.7239C40.4328 35.3897 40.1497 35.485 39.9178 35.661C39.6859 35.837 39.5178 36.084 39.4392 36.3643L38.3922 40.1115C37.3146 40.4376 36.2729 40.8726 35.2833 41.4096L31.723 39.6228C31.472 39.497 31.1877 39.4536 30.9105 39.4986C30.6334 39.5437 30.3775 39.675 30.1792 39.8738L26.8219 43.2285C26.6158 43.4347 26.4828 43.7027 26.4432 43.9915C26.4037 44.2804 26.4598 44.5743 26.6029 44.8283L28.5099 48.2203C27.9784 49.2086 27.5484 50.2502 27.2279 51.3346L23.4513 52.5899C23.185 52.678 22.9531 52.8477 22.7887 53.0749C22.6243 53.3022 22.5356 53.5754 22.5352 53.8559V58.6021C22.5354 58.8932 22.6308 59.1763 22.8068 59.4082C22.9828 59.6401 23.2297 59.8082 23.51 59.8868L27.2573 60.9338C27.5831 62.0155 28.0185 63.0544 28.5553 64.0427L26.7685 67.603C26.6428 67.854 26.5993 68.1383 26.6444 68.4154C26.6895 68.6926 26.8207 68.9485 27.0196 69.1467L30.3742 72.5014C30.5804 72.7075 30.8484 72.8405 31.1373 72.8801C31.4262 72.9196 31.7201 72.8635 31.9741 72.7204L35.3661 70.8134C36.3543 71.3449 37.396 71.7749 38.4803 72.0954L39.7357 75.872C39.8237 76.1383 39.9934 76.3702 40.2207 76.5346C40.4479 76.699 40.7212 76.7877 41.0017 76.7881H45.7478C46.039 76.7879 46.322 76.6925 46.5539 76.5165C46.7859 76.3405 46.9539 76.0936 47.0325 75.8133L48.0795 72.066C49.1572 71.74 50.1989 71.305 51.1884 70.768L54.7487 72.5548C54.9995 72.6809 55.2836 72.7247 55.5608 72.6802C55.8379 72.6356 56.0939 72.5048 56.2925 72.3064L59.6471 68.9491C59.8533 68.7429 59.9863 68.4749 60.0258 68.186C60.0654 67.8971 60.0093 67.6032 59.8661 67.3492L57.9591 63.9572C58.4906 62.969 58.9206 61.9273 59.2411 60.8429L63.0178 59.5876C63.2841 59.4996 63.5159 59.3299 63.6803 59.1026C63.8448 58.8754 63.9335 58.6021 63.9339 58.3216V53.5781C63.9336 53.287 63.8383 53.0039 63.6623 52.772C63.4863 52.5401 63.2393 52.372 62.959 52.2934L59.2118 51.2465C58.8858 50.1688 58.4508 49.1271 57.9137 48.1375L59.7005 44.5773C59.8266 44.3265 59.8705 44.0423 59.8259 43.7652C59.7813 43.4881 59.6505 43.232 59.4521 43.0335L56.0948 39.6788C55.8886 39.4727 55.6206 39.3397 55.3318 39.3001C55.0429 39.2606 54.749 39.314 54.495 39.4572ZM51.76 44.0618L54.9223 42.2803L56.8801 44.2381L55.2054 47.5767C55.1046 47.7781 55.0564 48.0018 55.0653 48.2269C55.0742 48.452 55.1398 48.6711 55.2562 48.864C55.964 50.0392 56.4955 51.3159 56.832 52.6513C56.8892 52.8798 57.0058 53.0891 57.17 53.2579C57.3341 53.4268 57.5401 53.5493 57.7668 53.6129L61.263 54.5904V57.3601L57.7187 58.5353C57.5048 58.6062 57.3123 58.73 57.1591 58.8954C57.0059 59.0607 56.8971 59.2621 56.8427 59.4808C56.5119 60.8152 55.9853 62.0933 55.2802 63.2735C55.1592 63.4754 55.0937 63.7059 55.0904 63.9413C55.0871 64.1768 55.1461 64.4089 55.2615 64.6142L57.043 67.7766L55.0852 69.7343L51.7466 68.0597C51.5452 67.9589 51.3215 67.9107 51.0964 67.9195C50.8713 67.9284 50.6522 67.9941 50.4593 68.1104C49.2841 68.8182 48.0074 69.3497 46.672 69.6863C46.4435 69.7434 46.2342 69.86 46.0653 70.0242C45.8965 70.1884 45.774 70.3943 45.7104 70.6211L44.7329 74.1173H41.9659L40.7907 70.573C40.7196 70.3587 40.5953 70.166 40.4295 70.0128C40.2637 69.8596 40.0617 69.7509 39.8425 69.6969C38.5081 69.3661 37.2301 68.8395 36.0498 68.1345C35.8478 68.0134 35.6174 67.9479 35.382 67.9446C35.1465 67.9414 34.9143 68.0004 34.7091 68.1158L31.5467 69.8973L29.589 67.9395L31.2636 64.6009C31.3644 64.3994 31.4126 64.1758 31.4038 63.9507C31.3949 63.7256 31.3292 63.5064 31.2129 63.3135C30.5036 62.1358 29.9726 60.8595 29.637 59.5262C29.5798 59.2977 29.4633 59.0885 29.2991 58.9196C29.1349 58.7507 28.929 58.6283 28.7022 58.5647L25.206 57.5871V54.8201L28.7503 53.6449C28.9641 53.5734 29.1563 53.449 29.309 53.2832C29.4617 53.1174 29.57 52.9157 29.6237 52.6967C29.9575 51.3613 30.4864 50.0819 31.1888 48.9041C31.3099 48.7021 31.3754 48.4717 31.3787 48.2362C31.3819 48.0007 31.3229 47.7686 31.2075 47.5633L29.426 44.401L31.3838 42.4432L34.7224 44.1179C34.9239 44.2187 35.1475 44.2669 35.3726 44.258C35.5977 44.2491 35.8169 44.1835 36.0098 44.0671C37.185 43.3593 38.4617 42.8278 39.7971 42.4913C40.0256 42.4341 40.2348 42.3175 40.4037 42.1533C40.5726 41.9892 40.695 41.7832 40.7586 41.5565L41.7362 38.0603H44.5059L45.6811 41.6046C45.7523 41.818 45.8763 42.01 46.0416 42.1627C46.2069 42.3154 46.4081 42.4238 46.6265 42.4779C47.962 42.8118 49.2413 43.3406 50.4192 44.0431C50.6212 44.1641 50.8516 44.2296 51.0871 44.2329C51.3225 44.2362 51.5547 44.1771 51.76 44.0618Z" fill="#381805"/>
<line x1="59.2598" y1="52.0823" x2="142.057" y2="52.0823" stroke="#381805" stroke-width="2.67089"/>
<line x1="41.8989" y1="136.215" x2="41.8989" y2="74.7847" stroke="#381805" stroke-width="2.67089"/>
<line x1="120.689" y1="166.93" x2="53.9173" y2="166.93" stroke="#381805" stroke-width="2.67089"/>
<line x1="156.748" y1="66.7722" x2="156.748" y2="144.228" stroke="#381805" stroke-width="2.67089"/>
<mask id="mask0_2959_6771" style="mask-type:luminance" maskUnits="userSpaceOnUse" x="142" y="12" width="70" height="57">
<path d="M205.157 13.3545H148.4C145.635 13.3545 143.393 15.5966 143.393 18.3624V61.7643C143.393 64.5301 145.635 66.7722 148.4 66.7722H205.157C207.923 66.7722 210.165 64.5301 210.165 61.7643V18.3624C210.165 15.5966 207.923 13.3545 205.157 13.3545Z" stroke="white" stroke-width="2.67089" stroke-linejoin="round"/>
<path d="M143.393 18.3624C143.393 17.0342 143.92 15.7604 144.859 14.8213C145.799 13.8821 147.072 13.3545 148.4 13.3545H205.157C206.485 13.3545 207.759 13.8821 208.698 14.8213C209.637 15.7604 210.165 17.0342 210.165 18.3624V33.3861H143.393V18.3624Z" fill="#555555" stroke="white" stroke-width="2.67089"/>
<path d="M150.069 23.3701C150.069 21.5263 151.564 20.0315 153.407 20.0315C155.251 20.0315 156.746 21.5263 156.746 23.3701C156.746 25.214 155.251 26.7087 153.407 26.7087C151.564 26.7087 150.069 25.214 150.069 23.3701Z" fill="white"/>
<path d="M160.085 23.3701C160.085 21.5263 161.579 20.0315 163.423 20.0315C165.267 20.0315 166.762 21.5263 166.762 23.3701C166.762 25.214 165.267 26.7087 163.423 26.7087C161.579 26.7087 160.085 25.214 160.085 23.3701Z" fill="white"/>
</mask>
<g mask="url(#mask0_2959_6771)">
<path d="M136.715 0H216.841V80.1266H136.715V0Z" fill="#381805"/>
</g>
<rect x="150.07" y="40.0632" width="21.3671" height="21.3671" fill="#FFD75F"/>
<line x1="176.779" y1="41.3987" x2="203.488" y2="41.3987" stroke="#381805" stroke-width="2.67089"/>
<line x1="176.779" y1="49.4114" x2="203.488" y2="49.4114" stroke="#381805" stroke-width="2.67089"/>
<mask id="mask1_2959_6771" style="mask-type:luminance" maskUnits="userSpaceOnUse" x="118" y="142" width="70" height="57">
<path d="M181.12 144.228H124.363C121.598 144.228 119.355 146.47 119.355 149.236V192.638C119.355 195.403 121.598 197.646 124.363 197.646H181.12C183.885 197.646 186.128 195.403 186.128 192.638V149.236C186.128 146.47 183.885 144.228 181.12 144.228Z" stroke="white" stroke-width="2.67089" stroke-linejoin="round"/>
<path d="M119.355 149.236C119.355 147.908 119.883 146.634 120.822 145.695C121.761 144.755 123.035 144.228 124.363 144.228H181.12C182.448 144.228 183.722 144.755 184.661 145.695C185.6 146.634 186.128 147.908 186.128 149.236V164.259H119.355V149.236Z" fill="#555555" stroke="white" stroke-width="2.67089"/>
<path d="M126.032 154.244C126.032 152.4 127.527 150.905 129.37 150.905C131.214 150.905 132.709 152.4 132.709 154.244C132.709 156.088 131.214 157.582 129.37 157.582C127.527 157.582 126.032 156.088 126.032 154.244Z" fill="white"/>
<path d="M136.049 154.244C136.049 152.4 137.544 150.905 139.388 150.905C141.232 150.905 142.727 152.4 142.727 154.244C142.727 156.088 141.232 157.582 139.388 157.582C137.544 157.582 136.049 156.088 136.049 154.244Z" fill="white"/>
</mask>
<g mask="url(#mask1_2959_6771)">
<path d="M112.676 130.873H192.802V211H112.676V130.873Z" fill="#381805"/>
</g>
<rect x="158.08" y="170.937" width="21.3671" height="21.3671" fill="#FFD75F"/>
<line x1="126.029" y1="172.272" x2="152.738" y2="172.272" stroke="#381805" stroke-width="2.67089"/>
<line x1="126.029" y1="180.285" x2="152.738" y2="180.285" stroke="#381805" stroke-width="2.67089"/>
<path d="M11.1836 178.949V146.899M53.9178 146.899V178.949" stroke="#381805" stroke-width="2.67089" stroke-linecap="round"/>
<path d="M32.5507 157.582C44.3507 157.582 53.9178 152.801 53.9178 146.899C53.9178 140.996 44.3507 136.215 32.5507 136.215C20.7507 136.215 11.1836 140.996 11.1836 146.899C11.1836 152.801 20.7507 157.582 32.5507 157.582Z" stroke="#381805" stroke-width="2.67089"/>
<path opacity="0.5" d="M53.9178 162.924C53.9178 168.827 44.3507 173.608 32.5507 173.608C20.7507 173.608 11.1836 168.827 11.1836 162.924" stroke="#381805" stroke-width="2.67089"/>
<path d="M53.9178 178.949C53.9178 184.852 44.3507 189.633 32.5507 189.633C20.7507 189.633 11.1836 184.852 11.1836 178.949" stroke="#381805" stroke-width="2.67089"/>
</svg>
