<svg width="277" height="233" viewBox="0 0 277 233" fill="none" xmlns="http://www.w3.org/2000/svg">
<path d="M116.78 39.8801L40.4805 166.51L218.9 181.68L116.78 39.8801Z" stroke="#381805" stroke-width="2.6" stroke-miterlimit="10"/>
<path d="M142.261 17.1301H132.781C131.413 17.1344 130.091 16.6322 129.071 15.7201C128.57 15.2774 128.168 14.7343 127.891 14.1262C127.613 13.5181 127.467 12.8585 127.461 12.1901V2.32012C127.46 2.05796 127.538 1.80156 127.683 1.58357C127.829 1.36559 128.036 1.1959 128.279 1.09614C128.521 0.996379 128.788 0.971064 129.045 1.02342C129.301 1.07578 129.537 1.20343 129.721 1.39012L143.201 14.8701C143.383 15.0566 143.507 15.2926 143.556 15.5488C143.606 15.805 143.578 16.07 143.478 16.3109C143.378 16.5518 143.209 16.7579 142.993 16.9036C142.776 17.0492 142.522 17.128 142.261 17.1301ZM132.781 14.4801H139.071L130.071 5.48012V12.1501C130.077 12.4506 130.146 12.7464 130.273 13.0186C130.401 13.2907 130.584 13.5331 130.811 13.7301C131.349 14.1969 132.039 14.4496 132.751 14.4401L132.781 14.4801Z" fill="#381805"/>
<path d="M143.201 14.87L129.721 1.39003C129.598 1.26605 129.451 1.16774 129.29 1.1008C129.128 1.03385 128.955 0.999598 128.781 1.00003H106.221C104.852 0.995717 103.531 1.49798 102.511 2.41003C102.007 2.85066 101.602 3.39304 101.322 4.00148C101.043 4.60992 100.896 5.2706 100.891 5.94003V49.7C100.896 50.3695 101.043 51.0301 101.322 51.6386C101.602 52.247 102.007 52.7894 102.511 53.23C103.531 54.1421 104.852 54.6443 106.221 54.64H138.221C139.613 54.6618 140.963 54.1584 142.001 53.23C142.505 52.7894 142.91 52.247 143.189 51.6386C143.468 51.0301 143.615 50.3695 143.621 49.7V15.8C143.616 15.6249 143.576 15.4525 143.504 15.2928C143.432 15.1331 143.329 14.9894 143.201 14.87ZM140.941 49.7C140.936 50.0008 140.868 50.2973 140.741 50.5697C140.613 50.8421 140.429 51.0842 140.201 51.28C139.664 51.7485 138.973 52.0014 138.261 51.99H106.261C105.549 51.9995 104.858 51.7468 104.321 51.28C104.092 51.0842 103.908 50.8421 103.781 50.5697C103.653 50.2973 103.585 50.0008 103.581 49.7V5.94003C103.585 5.63924 103.653 5.34279 103.781 5.07037C103.908 4.79796 104.092 4.55581 104.321 4.36003C104.857 3.89045 105.548 3.63423 106.261 3.64003H128.261L140.971 16.35L140.941 49.7Z" fill="#381805"/>
<path d="M140.94 16.3502V49.7002C140.936 50.001 140.868 50.2975 140.74 50.5699C140.613 50.8423 140.428 51.0844 140.2 51.2802C139.663 51.7487 138.972 52.0016 138.26 51.9902H106.26C105.548 51.9997 104.858 51.747 104.32 51.2802C104.092 51.0844 103.908 50.8423 103.78 50.5699C103.652 50.2975 103.584 50.001 103.58 49.7002V5.94023C103.584 5.63945 103.652 5.343 103.78 5.07058C103.908 4.79816 104.092 4.55602 104.32 4.36023C104.857 3.89065 105.547 3.63444 106.26 3.64023H128.26L140.94 16.3502Z" fill="white"/>
<path d="M133 40.4001C133.19 40.3667 133.385 40.3752 133.571 40.4251C133.757 40.4751 133.93 40.5651 134.078 40.689C134.226 40.8129 134.344 40.9676 134.426 41.1423C134.507 41.317 134.549 41.5074 134.549 41.7001C134.549 41.8928 134.507 42.0832 134.426 42.2579C134.344 42.4326 134.226 42.5873 134.078 42.7112C133.93 42.8351 133.757 42.9252 133.571 42.9751C133.385 43.025 133.19 43.0335 133 43.0001H111.47C111.12 43.0001 110.785 42.861 110.537 42.6135C110.289 42.3659 110.15 42.0302 110.15 41.6801C110.15 41.33 110.289 40.9943 110.537 40.7467C110.785 40.4992 111.12 40.3601 111.47 40.3601L133 40.4001Z" fill="#381805"/>
<path d="M133.001 31.13C133.184 31.114 133.369 31.1364 133.544 31.1958C133.718 31.2551 133.879 31.3501 134.015 31.4747C134.151 31.5993 134.259 31.7507 134.333 31.9195C134.408 32.0883 134.446 32.2706 134.446 32.455C134.446 32.6394 134.408 32.8217 134.333 32.9905C134.259 33.1593 134.151 33.3107 134.015 33.4353C133.879 33.5599 133.718 33.6549 133.544 33.7142C133.369 33.7736 133.184 33.796 133.001 33.78H111.471C111.139 33.7512 110.83 33.5991 110.606 33.3538C110.381 33.1085 110.256 32.7878 110.256 32.455C110.256 32.1222 110.381 31.8015 110.606 31.5562C110.83 31.3109 111.139 31.1588 111.471 31.13H133.001Z" fill="#381805"/>
<path d="M133.001 21.8602C133.184 21.8443 133.369 21.8666 133.544 21.926C133.718 21.9853 133.879 22.0803 134.015 22.2049C134.151 22.3295 134.259 22.481 134.333 22.6497C134.408 22.8185 134.446 23.0009 134.446 23.1852C134.446 23.3696 134.408 23.5519 134.333 23.7207C134.259 23.8895 134.151 24.041 134.015 24.1656C133.879 24.2902 133.718 24.3851 133.544 24.4445C133.369 24.5038 133.184 24.5262 133.001 24.5102H111.471C111.139 24.4814 110.83 24.3293 110.606 24.084C110.381 23.8387 110.256 23.518 110.256 23.1852C110.256 22.8524 110.381 22.5317 110.606 22.2864C110.83 22.0411 111.139 21.8891 111.471 21.8602H133.001Z" fill="#FFD85F"/>
<path d="M123.001 12.6001C123.332 12.6289 123.641 12.781 123.866 13.0263C124.091 13.2716 124.215 13.5923 124.215 13.9251C124.215 14.2579 124.091 14.5786 123.866 14.8239C123.641 15.0692 123.332 15.2213 123.001 15.2501H111.471C111.139 15.2213 110.83 15.0692 110.606 14.8239C110.381 14.5786 110.256 14.2579 110.256 13.9251C110.256 13.5923 110.381 13.2716 110.606 13.0263C110.83 12.781 111.139 12.6289 111.471 12.6001H123.001Z" fill="#381805"/>
<path d="M136.211 52.0002H106.211C105.499 52.0097 104.808 51.757 104.271 51.2902C104.042 51.0944 103.858 50.8523 103.731 50.5799C103.603 50.3074 103.535 50.011 103.531 49.7102V8.2502C103.531 7.89919 103.392 7.56241 103.145 7.31327C102.898 7.06413 102.562 6.92284 102.211 6.9202H100.211C98.8394 6.91531 97.5145 7.41749 96.4909 8.3302C95.9902 8.77296 95.5881 9.316 95.3107 9.92412C95.0334 10.5322 94.8869 11.1918 94.8809 11.8602V55.6202C94.8855 56.2902 95.0313 56.9518 95.3087 57.5617C95.5861 58.1717 95.9889 58.7163 96.4909 59.1602C97.5145 60.0729 98.8394 60.5751 100.211 60.5702H132.211C133.58 60.5764 134.902 60.0739 135.921 59.1602C136.426 58.718 136.831 58.174 137.11 57.5638C137.389 56.9536 137.536 56.2912 137.541 55.6202V53.3202C137.538 52.9692 137.397 52.6335 137.148 52.3862C136.899 52.1389 136.562 52.0002 136.211 52.0002ZM134.881 55.6302C134.877 55.93 134.809 56.2256 134.684 56.4978C134.558 56.77 134.376 57.0127 134.151 57.2102C133.598 57.693 132.884 57.95 132.151 57.9302H100.151C99.4174 57.95 98.7034 57.693 98.1509 57.2102C97.9239 57.0132 97.7408 56.7708 97.6134 56.4986C97.4859 56.2265 97.4169 55.9307 97.4109 55.6302V11.8602C97.4183 11.5614 97.488 11.2675 97.6154 10.9972C97.7428 10.7269 97.9252 10.4861 98.1509 10.2902C98.7008 9.80307 99.4166 9.54537 100.151 9.5702H100.871V49.7002C100.876 50.3696 101.023 51.0303 101.303 51.6387C101.582 52.2472 101.987 52.7896 102.491 53.2302C103.511 54.1423 104.832 54.6445 106.201 54.6402H134.861L134.881 55.6302Z" fill="#381805"/>
<path d="M134.88 54.64V55.64C134.876 55.9398 134.809 56.2354 134.683 56.5076C134.557 56.7798 134.376 57.0225 134.15 57.22C133.598 57.7028 132.884 57.9598 132.15 57.94H100.15C99.4167 57.9598 98.7027 57.7028 98.1502 57.22C97.9232 57.023 97.7401 56.7806 97.6127 56.5084C97.4852 56.2363 97.4162 55.9405 97.4102 55.64V11.86C97.4176 11.5612 97.4873 11.2673 97.6147 10.997C97.7421 10.7267 97.9245 10.4859 98.1502 10.29C98.7001 9.80287 99.4159 9.54517 100.15 9.57H100.87V49.7C100.876 50.3694 101.023 51.0301 101.302 51.6385C101.581 52.247 101.986 52.7894 102.49 53.23C103.51 54.1421 104.832 54.6443 106.2 54.64H134.88Z" fill="#D6D1CE"/>
<path d="M62.21 140.15H37.44C36.9419 140.149 36.4601 139.972 36.08 139.65L31.54 135.73C30.6653 134.972 29.5475 134.553 28.39 134.55H12.11C11.195 134.55 10.3175 134.914 9.6705 135.561C9.0235 136.208 8.66001 137.085 8.66001 138V142.62H3.45001C2.99658 142.619 2.54737 142.707 2.1282 142.88C1.70903 143.053 1.32818 143.307 1.00755 143.628C0.686927 143.948 0.432853 144.329 0.259942 144.748C0.0870304 145.167 -0.00130546 145.617 1.45786e-05 146.07V187.41C1.45786e-05 188.325 0.363496 189.203 1.0105 189.85C1.6575 190.497 2.53502 190.86 3.45001 190.86H53.55C54.4642 190.857 55.3402 190.493 55.9866 189.847C56.633 189.2 56.9974 188.324 57 187.41V182.8H62.21C63.1242 182.797 64.0002 182.433 64.6466 181.787C65.2931 181.14 65.6574 180.264 65.66 179.35V143.6C65.6574 142.686 65.2931 141.81 64.6466 141.163C64.0002 140.517 63.1242 140.153 62.21 140.15ZM54.21 187.41C54.21 187.593 54.1373 187.769 54.0079 187.898C53.8785 188.027 53.703 188.1 53.52 188.1H3.45001C3.26702 188.1 3.09151 188.027 2.96211 187.898C2.83271 187.769 2.76001 187.593 2.76001 187.41V159H54.24L54.21 187.41ZM54.21 156.28H2.76001V146.07C2.76001 145.887 2.83271 145.712 2.96211 145.582C3.09151 145.453 3.26702 145.38 3.45001 145.38H19.73C20.2257 145.378 20.7053 145.556 21.08 145.88L25.62 149.8C26.4968 150.564 27.6174 150.989 28.78 151H53.55C53.733 151 53.9085 151.073 54.0379 151.202C54.1673 151.332 54.24 151.507 54.24 151.69L54.21 156.28ZM62.87 179.35C62.87 179.533 62.7973 179.709 62.6679 179.838C62.5385 179.967 62.363 180.04 62.18 180.04H57V151.66C56.9974 150.746 56.633 149.87 55.9866 149.223C55.3402 148.577 54.4642 148.213 53.55 148.21H28.78C28.2819 148.209 27.8001 148.032 27.42 147.71L22.88 143.79C22.0044 143.035 20.8864 142.62 19.73 142.62H11.42V138C11.42 137.817 11.4927 137.642 11.6221 137.512C11.7515 137.383 11.927 137.31 12.11 137.31H28.39C28.8868 137.312 29.3662 137.493 29.74 137.82L34.28 141.74C35.161 142.493 36.2812 142.908 37.44 142.91H62.21C62.393 142.91 62.5685 142.983 62.6979 143.112C62.8273 143.242 62.9 143.417 62.9 143.6L62.87 179.35Z" fill="#381805"/>
<path d="M62.8999 143.6V179.35C62.8999 179.533 62.8272 179.709 62.6978 179.838C62.5684 179.967 62.3929 180.04 62.2099 180.04H56.9999V151.66C56.9973 150.746 56.633 149.87 55.9865 149.223C55.3401 148.577 54.4641 148.213 53.5499 148.21H28.7799C28.2818 148.209 27.8 148.032 27.4199 147.71L22.8799 143.79C22.0043 143.035 20.8863 142.62 19.7299 142.62H11.4199V138C11.4199 137.817 11.4926 137.642 11.622 137.512C11.7514 137.383 11.9269 137.31 12.1099 137.31H28.3899C28.8867 137.312 29.3661 137.493 29.7399 137.82L34.2799 141.74C35.1609 142.493 36.2811 142.908 37.4399 142.91H62.2099C62.3929 142.91 62.5684 142.983 62.6978 143.112C62.8272 143.242 62.8999 143.417 62.8999 143.6Z" fill="#D6D1CE"/>
<path d="M54.2398 151.66V156.28H2.75977V146.07C2.75977 145.887 2.83246 145.712 2.96186 145.582C3.09126 145.453 3.26677 145.38 3.44977 145.38H19.7298C20.2254 145.378 20.705 145.556 21.0798 145.88L25.6198 149.8C26.4965 150.564 27.6171 150.989 28.7798 151H53.5498C53.7277 151 53.8988 151.069 54.0274 151.192C54.1559 151.314 54.232 151.482 54.2398 151.66Z" fill="white"/>
<path d="M54.2398 159V187.37C54.2398 187.553 54.1671 187.729 54.0377 187.858C53.9083 187.987 53.7328 188.06 53.5498 188.06H3.44977C3.26677 188.06 3.09126 187.987 2.96186 187.858C2.83246 187.729 2.75977 187.553 2.75977 187.37V159H54.2398Z" fill="white"/>
<path d="M48.7496 163.75H40.4796C40.1136 163.75 39.7626 163.895 39.5038 164.154C39.245 164.413 39.0996 164.764 39.0996 165.13C39.0996 165.496 39.245 165.847 39.5038 166.106C39.7626 166.365 40.1136 166.51 40.4796 166.51H48.7496C49.1156 166.51 49.4666 166.365 49.7254 166.106C49.9842 165.847 50.1296 165.496 50.1296 165.13C50.1296 164.764 49.9842 164.413 49.7254 164.154C49.4666 163.895 49.1156 163.75 48.7496 163.75Z" fill="#381805"/>
<path d="M48.7496 170.37H40.4796C40.1136 170.37 39.7626 170.516 39.5038 170.774C39.245 171.033 39.0996 171.384 39.0996 171.75C39.0996 172.116 39.245 172.467 39.5038 172.726C39.7626 172.985 40.1136 173.13 40.4796 173.13H48.7496C49.1156 173.13 49.4666 172.985 49.7254 172.726C49.9842 172.467 50.1296 172.116 50.1296 171.75C50.1296 171.384 49.9842 171.033 49.7254 170.774C49.4666 170.516 49.1156 170.37 48.7496 170.37Z" fill="#F8D208"/>
<path d="M245.921 212.53C252.018 212.53 256.961 207.587 256.961 201.49C256.961 195.393 252.018 190.45 245.921 190.45C239.824 190.45 234.881 195.393 234.881 201.49C234.881 207.587 239.824 212.53 245.921 212.53Z" fill="#FFD85F"/>
<path d="M231.911 200.62C231.91 202.616 232.39 204.583 233.309 206.354C234.228 208.126 235.559 209.651 237.191 210.8H193.471V145.22H228.521V158.78C228.519 158.929 228.548 159.077 228.604 159.214C228.66 159.352 228.743 159.477 228.849 159.582C228.954 159.687 229.079 159.771 229.217 159.827C229.354 159.883 229.502 159.912 229.651 159.91H243.221V188.23C240.13 188.512 237.256 189.939 235.163 192.232C233.07 194.524 231.91 197.516 231.911 200.62Z" fill="white"/>
<path d="M245.481 158.78V189.31C245.481 189.61 245.362 189.897 245.15 190.109C244.938 190.321 244.65 190.44 244.351 190.44C244.051 190.44 243.764 190.321 243.552 190.109C243.34 189.897 243.221 189.61 243.221 189.31V159.25L241.621 157.65L230.781 146.82L229.181 145.23H193.471V210.8H244.351C244.65 210.8 244.938 210.919 245.15 211.131C245.362 211.343 245.481 211.631 245.481 211.93C245.481 212.23 245.362 212.517 245.15 212.729C244.938 212.941 244.65 213.06 244.351 213.06H192.351C192.052 213.058 191.766 212.938 191.555 212.726C191.343 212.515 191.223 212.229 191.221 211.93V144.08C191.223 143.781 191.343 143.495 191.555 143.284C191.766 143.073 192.052 142.953 192.351 142.95H229.671C229.82 142.95 229.968 142.979 230.106 143.038C230.243 143.096 230.367 143.182 230.471 143.29L245.151 158C245.257 158.104 245.339 158.231 245.391 158.37C245.412 158.419 245.429 158.469 245.441 158.52C245.467 158.604 245.48 158.692 245.481 158.78Z" fill="#381805"/>
<path d="M245.442 158.5C245.429 158.449 245.413 158.399 245.392 158.35C245.34 158.211 245.258 158.084 245.152 157.98L230.452 143.29C230.348 143.182 230.224 143.096 230.087 143.038C229.949 142.979 229.801 142.95 229.652 142.95C229.352 142.95 229.064 143.069 228.852 143.281C228.641 143.493 228.522 143.781 228.522 144.08V158.78C228.52 158.929 228.549 159.077 228.605 159.214C228.661 159.352 228.744 159.477 228.85 159.582C228.955 159.687 229.08 159.771 229.218 159.827C229.355 159.883 229.503 159.912 229.652 159.91H244.352C244.5 159.912 244.648 159.883 244.785 159.826C244.922 159.77 245.047 159.686 245.152 159.58C245.256 159.475 245.34 159.35 245.396 159.213C245.453 159.076 245.482 158.929 245.482 158.78C245.483 158.685 245.47 158.591 245.442 158.5ZM230.782 157.65V146.82L241.622 157.65H230.782Z" fill="#381805"/>
<path d="M241.621 157.65H230.781V146.82L241.621 157.65Z" fill="#D6D1CE"/>
<path d="M233.002 166.7H211.562C211.262 166.7 210.975 166.581 210.763 166.369C210.551 166.157 210.432 165.87 210.432 165.57C210.432 165.27 210.551 164.983 210.763 164.771C210.975 164.559 211.262 164.44 211.562 164.44H233.002C233.301 164.44 233.589 164.559 233.801 164.771C234.013 164.983 234.132 165.27 234.132 165.57C234.132 165.87 234.013 166.157 233.801 166.369C233.589 166.581 233.301 166.7 233.002 166.7Z" fill="#381805"/>
<path d="M233.002 176.88H211.562C211.262 176.88 210.975 176.761 210.763 176.549C210.551 176.337 210.432 176.05 210.432 175.75C210.432 175.45 210.551 175.163 210.763 174.951C210.975 174.739 211.262 174.62 211.562 174.62H233.002C233.301 174.62 233.589 174.739 233.801 174.951C234.013 175.163 234.132 175.45 234.132 175.75C234.132 176.05 234.013 176.337 233.801 176.549C233.589 176.761 233.301 176.88 233.002 176.88Z" fill="#381805"/>
<path d="M233.002 187.05H211.562C211.413 187.05 211.266 187.021 211.129 186.964C210.992 186.907 210.868 186.824 210.763 186.719C210.658 186.614 210.574 186.49 210.518 186.353C210.461 186.216 210.432 186.069 210.432 185.92C210.432 185.772 210.461 185.625 210.518 185.488C210.574 185.351 210.658 185.226 210.763 185.121C210.868 185.016 210.992 184.933 211.129 184.876C211.266 184.82 211.413 184.79 211.562 184.79H233.002C233.15 184.79 233.297 184.82 233.434 184.876C233.571 184.933 233.696 185.016 233.801 185.121C233.906 185.226 233.989 185.351 234.046 185.488C234.102 185.625 234.132 185.772 234.132 185.92C234.132 186.069 234.102 186.216 234.046 186.353C233.989 186.49 233.906 186.614 233.801 186.719C233.696 186.824 233.571 186.907 233.434 186.964C233.297 187.021 233.15 187.05 233.002 187.05Z" fill="#381805"/>
<path d="M225.132 197.23H211.562C211.262 197.23 210.975 197.111 210.763 196.899C210.551 196.687 210.432 196.4 210.432 196.1C210.432 195.801 210.551 195.513 210.763 195.301C210.975 195.089 211.262 194.97 211.562 194.97H225.132C225.431 194.97 225.719 195.089 225.931 195.301C226.143 195.513 226.262 195.801 226.262 196.1C226.262 196.4 226.143 196.687 225.931 196.899C225.719 197.111 225.431 197.23 225.132 197.23Z" fill="#381805"/>
<path d="M207.002 169H202.482C202.182 169 201.894 168.881 201.683 168.669C201.471 168.457 201.352 168.17 201.352 167.87V163.35C201.352 163.051 201.471 162.763 201.683 162.551C201.894 162.339 202.182 162.22 202.482 162.22H207.002C207.15 162.219 207.298 162.247 207.436 162.304C207.573 162.36 207.698 162.443 207.804 162.548C207.909 162.653 207.992 162.779 208.048 162.916C208.105 163.054 208.133 163.201 208.132 163.35V167.87C208.133 168.019 208.105 168.167 208.048 168.304C207.992 168.442 207.909 168.567 207.804 168.672C207.698 168.777 207.573 168.861 207.436 168.917C207.298 168.973 207.15 169.002 207.002 169ZM203.612 166.74H205.872V164.48H203.612V166.74Z" fill="#FFD85F"/>
<path d="M207.002 179.14H202.482C202.183 179.137 201.897 179.018 201.685 178.806C201.474 178.595 201.354 178.309 201.352 178.01V173.49C201.352 173.189 201.47 172.901 201.682 172.688C201.894 172.474 202.181 172.353 202.482 172.35H207.002C207.151 172.35 207.299 172.38 207.436 172.437C207.574 172.494 207.699 172.579 207.804 172.685C207.909 172.791 207.992 172.916 208.048 173.055C208.105 173.193 208.133 173.341 208.132 173.49V178C208.133 178.149 208.105 178.297 208.048 178.436C207.992 178.574 207.909 178.7 207.804 178.806C207.699 178.912 207.574 178.996 207.436 179.053C207.299 179.111 207.151 179.14 207.002 179.14ZM203.612 176.88H205.872V174.62H203.612V176.88Z" fill="#381805"/>
<path d="M207.002 189.32H202.482C202.181 189.318 201.894 189.196 201.682 188.983C201.47 188.769 201.352 188.481 201.352 188.18V183.66C201.354 183.361 201.474 183.075 201.685 182.864C201.897 182.653 202.183 182.533 202.482 182.53H207.002C207.301 182.53 207.589 182.649 207.801 182.861C208.012 183.073 208.132 183.361 208.132 183.66V188.18C208.133 188.33 208.105 188.478 208.048 188.616C207.992 188.754 207.909 188.88 207.804 188.986C207.699 189.092 207.574 189.176 207.436 189.233C207.299 189.291 207.151 189.32 207.002 189.32ZM203.612 187.05H205.872V184.79H203.612V187.05Z" fill="#381805"/>
<path d="M207.002 199.49H202.482C202.182 199.49 201.894 199.371 201.683 199.159C201.471 198.947 201.352 198.66 201.352 198.36V193.84C201.352 193.541 201.471 193.253 201.683 193.041C201.894 192.829 202.182 192.71 202.482 192.71H207.002C207.15 192.709 207.298 192.737 207.436 192.794C207.573 192.85 207.698 192.933 207.804 193.038C207.909 193.143 207.992 193.269 208.048 193.406C208.105 193.544 208.133 193.691 208.132 193.84V198.36C208.133 198.509 208.105 198.657 208.048 198.794C207.992 198.932 207.909 199.057 207.804 199.162C207.698 199.267 207.573 199.351 207.436 199.407C207.298 199.463 207.15 199.492 207.002 199.49ZM203.612 197.23H205.872V195H203.612V197.23Z" fill="#381805"/>
<path d="M243.22 205.15C243.071 205.151 242.923 205.121 242.785 205.062C242.647 205.004 242.523 204.918 242.42 204.81L237.89 200.29C237.678 200.078 237.559 199.79 237.559 199.49C237.559 199.19 237.678 198.902 237.89 198.69C238.102 198.478 238.39 198.359 238.69 198.359C238.99 198.359 239.278 198.478 239.49 198.69L243.22 202.42L250.33 195.3C250.542 195.088 250.83 194.969 251.13 194.969C251.43 194.969 251.718 195.088 251.93 195.3C252.142 195.512 252.261 195.8 252.261 196.1C252.261 196.4 252.142 196.688 251.93 196.9L244 204.81C243.795 205.022 243.515 205.144 243.22 205.15Z" fill="#381805"/>
<path d="M245.48 188.23C245.11 188.23 244.73 188.23 244.35 188.23C243.97 188.23 243.59 188.23 243.22 188.23C240.034 188.521 237.084 190.029 234.981 192.44C232.879 194.85 231.787 197.979 231.933 201.174C232.078 204.37 233.45 207.386 235.763 209.596C238.076 211.806 241.151 213.039 244.35 213.039C247.549 213.039 250.624 211.806 252.937 209.596C255.25 207.386 256.622 204.37 256.767 201.174C256.913 197.979 255.821 194.85 253.718 192.44C251.616 190.029 248.665 188.521 245.48 188.23ZM244.35 210.8C242.336 210.802 240.367 210.207 238.692 209.089C237.016 207.972 235.71 206.383 234.938 204.523C234.166 202.663 233.963 200.616 234.354 198.64C234.746 196.665 235.715 194.85 237.138 193.425C238.561 192.001 240.375 191.03 242.35 190.637C244.325 190.243 246.373 190.444 248.233 191.214C250.094 191.984 251.685 193.289 252.804 194.963C253.923 196.638 254.52 198.606 254.52 200.62C254.52 203.318 253.449 205.906 251.542 207.815C249.635 209.724 247.048 210.798 244.35 210.8Z" fill="#381805"/>
<path d="M275.1 223.81L267.83 216.54C267.739 216.456 267.632 216.391 267.515 216.35C267.398 216.309 267.274 216.292 267.15 216.3C267.026 216.317 266.907 216.359 266.8 216.425C266.693 216.49 266.601 216.577 266.53 216.68C266.38 216.93 266.18 217.17 266.01 217.41L263.06 214.46C266.488 209.773 268.02 203.966 267.351 198.198C266.682 192.43 263.86 187.128 259.451 183.35C255.042 179.572 249.369 177.598 243.567 177.821C237.765 178.045 232.261 180.45 228.155 184.555C224.05 188.661 221.645 194.165 221.421 199.967C221.198 205.769 223.172 211.442 226.95 215.851C230.728 220.26 236.03 223.082 241.798 223.751C247.566 224.42 253.373 222.888 258.06 219.46L261.06 222.46C260.82 222.63 260.58 222.82 260.33 222.98C260.226 223.047 260.139 223.136 260.074 223.242C260.01 223.348 259.971 223.467 259.96 223.59C259.947 223.713 259.96 223.838 260 223.956C260.04 224.073 260.105 224.18 260.19 224.27L267.47 231.55C268.345 232.422 269.53 232.911 270.765 232.911C272 232.911 273.185 232.422 274.06 231.55L275.18 230.43C275.611 229.991 275.951 229.471 276.18 228.9C276.409 228.329 276.523 227.719 276.516 227.104C276.509 226.488 276.38 225.881 276.137 225.316C275.894 224.75 275.542 224.239 275.1 223.81ZM244.5 222.24C240.284 222.24 236.162 220.99 232.655 218.647C229.149 216.304 226.417 212.975 224.803 209.079C223.189 205.183 222.767 200.897 223.59 196.761C224.413 192.625 226.443 188.826 229.425 185.845C232.406 182.863 236.205 180.832 240.341 180.01C244.477 179.187 248.763 179.609 252.659 181.223C256.555 182.837 259.885 185.569 262.227 189.075C264.57 192.581 265.82 196.703 265.82 200.92C265.812 206.572 263.564 211.99 259.567 215.987C255.57 219.983 250.152 222.232 244.5 222.24ZM259.35 218.44C260.306 217.625 261.195 216.735 262.01 215.78L265.01 218.78C264.205 219.754 263.311 220.651 262.34 221.46L259.35 218.44ZM273.92 229.23L272.8 230.35C272.238 230.909 271.478 231.223 270.685 231.223C269.893 231.223 269.132 230.909 268.57 230.35L262 223.78C264.066 222.307 265.874 220.503 267.35 218.44L273.91 225C274.47 225.561 274.786 226.321 274.788 227.113C274.79 227.906 274.478 228.667 273.92 229.23Z" fill="#381805"/>
<path d="M244.5 179.6C240.283 179.6 236.161 180.85 232.655 183.193C229.149 185.536 226.416 188.866 224.803 192.761C223.189 196.657 222.767 200.944 223.589 205.079C224.412 209.215 226.443 213.014 229.424 215.996C232.406 218.977 236.205 221.008 240.34 221.83C244.476 222.653 248.763 222.231 252.659 220.617C256.554 219.004 259.884 216.271 262.227 212.765C264.569 209.259 265.82 205.137 265.82 200.92C265.812 195.268 263.563 189.85 259.566 185.853C255.57 181.857 250.152 179.608 244.5 179.6ZM244.5 219.22C240.88 219.22 237.342 218.147 234.333 216.136C231.323 214.125 228.978 211.267 227.593 207.923C226.208 204.579 225.845 200.9 226.551 197.35C227.257 193.8 229 190.539 231.56 187.98C234.119 185.421 237.38 183.678 240.93 182.972C244.479 182.266 248.159 182.628 251.503 184.013C254.847 185.398 257.705 187.744 259.716 190.753C261.726 193.763 262.8 197.301 262.8 200.92C262.794 205.772 260.865 210.424 257.434 213.854C254.003 217.285 249.352 219.215 244.5 219.22Z" fill="white"/>
<path d="M244.499 182.62C240.88 182.62 237.342 183.693 234.332 185.704C231.323 187.715 228.977 190.573 227.592 193.917C226.207 197.261 225.845 200.94 226.551 204.49C227.257 208.04 229 211.301 231.559 213.86C234.118 216.419 237.379 218.162 240.929 218.868C244.479 219.575 248.158 219.212 251.502 217.827C254.846 216.442 257.704 214.096 259.715 211.087C261.726 208.078 262.799 204.54 262.799 200.92C262.794 196.068 260.864 191.417 257.433 187.986C254.003 184.555 249.351 182.625 244.499 182.62ZM244.499 217.55C241.21 217.55 237.995 216.575 235.26 214.747C232.525 212.92 230.394 210.323 229.135 207.284C227.876 204.245 227.547 200.902 228.189 197.676C228.83 194.45 230.414 191.487 232.74 189.161C235.066 186.835 238.029 185.251 241.255 184.61C244.481 183.968 247.825 184.297 250.863 185.556C253.902 186.815 256.499 188.946 258.327 191.681C260.154 194.416 261.129 197.631 261.129 200.92C261.127 205.33 259.374 209.558 256.255 212.676C253.137 215.795 248.909 217.547 244.499 217.55Z" fill="#381805"/>
</svg>
