<svg width="225" height="252" viewBox="0 0 225 252" fill="none" xmlns="http://www.w3.org/2000/svg">
<path d="M70.6305 49.9001L26.9805 172.75L186.61 128.48L70.6305 49.9001Z" stroke="#381805" stroke-width="2.6" stroke-miterlimit="10"/>
<path d="M191.429 147.39C200.255 147.39 207.409 140.236 207.409 131.41C207.409 122.585 200.255 115.43 191.429 115.43C182.604 115.43 175.449 122.585 175.449 131.41C175.449 140.236 182.604 147.39 191.429 147.39Z" fill="#FFD85F"/>
<path d="M189.839 146.1C198.665 146.1 205.819 138.946 205.819 130.12C205.819 121.295 198.665 114.14 189.839 114.14C181.014 114.14 173.859 121.295 173.859 130.12C173.859 138.946 181.014 146.1 189.839 146.1Z" stroke="#381805" stroke-width="2" stroke-linecap="round" stroke-linejoin="round"/>
<path d="M184.52 137.23H191.62C192.086 137.23 192.547 137.138 192.978 136.96C193.409 136.781 193.8 136.52 194.13 136.19C194.459 135.861 194.721 135.469 194.899 135.039C195.078 134.608 195.17 134.146 195.17 133.68C195.171 133.213 195.08 132.75 194.902 132.318C194.724 131.887 194.463 131.494 194.133 131.163C193.804 130.833 193.412 130.57 192.98 130.391C192.549 130.212 192.087 130.12 191.62 130.12H188.07C187.603 130.121 187.141 130.03 186.709 129.852C186.278 129.675 185.886 129.413 185.556 129.083C185.226 128.753 184.965 128.361 184.787 127.93C184.609 127.499 184.518 127.037 184.52 126.57C184.518 126.103 184.609 125.641 184.787 125.21C184.965 124.779 185.226 124.387 185.556 124.057C185.886 123.727 186.278 123.466 186.709 123.288C187.141 123.11 187.603 123.019 188.07 123.02H195.17" stroke="#381805" stroke-width="2" stroke-linecap="round" stroke-linejoin="round"/>
<path d="M189.84 119.47V141" stroke="#381805" stroke-width="2" stroke-linecap="round" stroke-linejoin="round"/>
<path d="M184.519 167.41V156.75L171.939 144.17C171.272 143.515 170.374 143.149 169.439 143.149C168.504 143.149 167.607 143.515 166.939 144.17L166.639 144.48C165.977 145.144 165.605 146.043 165.605 146.98C165.605 147.917 165.977 148.817 166.639 149.48L174.779 157.62" stroke="#381805" stroke-width="2" stroke-linecap="round" stroke-linejoin="round"/>
<path d="M170.309 167.41V165.63L160.799 156.12C159.312 154.634 158.133 152.869 157.328 150.927C156.523 148.984 156.109 146.902 156.109 144.8V124.8C156.109 123.858 156.483 122.956 157.149 122.29C157.815 121.624 158.718 121.25 159.659 121.25C160.601 121.25 161.504 121.624 162.17 122.29C162.835 122.956 163.209 123.858 163.209 124.8V143.5C163.213 145.053 163.765 146.555 164.769 147.74L167.919 150.88" fill="white"/>
<path d="M170.309 167.41V165.63L160.799 156.12C159.312 154.634 158.133 152.869 157.328 150.927C156.523 148.984 156.109 146.902 156.109 144.8V124.8C156.109 123.858 156.483 122.956 157.149 122.29C157.815 121.624 158.718 121.25 159.659 121.25C160.601 121.25 161.504 121.624 162.17 122.29C162.835 122.956 163.209 123.858 163.209 124.8V143.5C163.213 145.053 163.765 146.555 164.769 147.74L167.919 150.88" stroke="#381805" stroke-width="2" stroke-linecap="round" stroke-linejoin="round"/>
<path d="M168.539 172.42V168.87H186.289V172.42" stroke="#381805" stroke-width="2" stroke-linecap="round" stroke-linejoin="round"/>
<path d="M195.17 167.41V156.75L207.75 144.17C208.416 143.513 209.314 143.145 210.25 143.145C211.186 143.145 212.084 143.513 212.75 144.17L213.05 144.48C213.712 145.144 214.084 146.043 214.084 146.98C214.084 147.917 213.712 148.816 213.05 149.48L204.91 157.62" stroke="#381805" stroke-width="2" stroke-linecap="round" stroke-linejoin="round"/>
<path d="M209.369 167.41V165.63L218.879 156.12C220.366 154.634 221.546 152.869 222.351 150.927C223.155 148.984 223.569 146.902 223.569 144.8V124.8C223.569 123.858 223.195 122.956 222.529 122.29C221.864 121.624 220.961 121.25 220.019 121.25C219.078 121.25 218.175 121.624 217.509 122.29C216.843 122.956 216.469 123.858 216.469 124.8V143.5C216.47 145.054 215.917 146.557 214.909 147.74L211.759 150.88" fill="white"/>
<path d="M209.369 167.41V165.63L218.879 156.12C220.366 154.634 221.546 152.869 222.351 150.927C223.155 148.984 223.569 146.902 223.569 144.8V124.8C223.569 123.858 223.195 122.956 222.529 122.29C221.864 121.624 220.961 121.25 220.019 121.25C219.078 121.25 218.175 121.624 217.509 122.29C216.843 122.956 216.469 123.858 216.469 124.8V143.5C216.47 145.054 215.917 146.557 214.909 147.74L211.759 150.88" stroke="#381805" stroke-width="2" stroke-linecap="round" stroke-linejoin="round"/>
<path d="M211.141 172.42V168.87H193.391V172.42" stroke="#381805" stroke-width="2" stroke-linecap="round" stroke-linejoin="round"/>
<path d="M43.6091 182.49C43.6091 182.787 43.4911 183.072 43.2811 183.282C43.0711 183.492 42.7862 183.61 42.4891 183.61H32.4891C32.1921 183.61 31.9072 183.492 31.6972 183.282C31.4871 183.072 31.3691 182.787 31.3691 182.49C31.3691 182.193 31.4871 181.908 31.6972 181.698C31.9072 181.488 32.1921 181.37 32.4891 181.37H42.4891C42.7862 181.37 43.0711 181.488 43.2811 181.698C43.4911 181.908 43.6091 182.193 43.6091 182.49Z" fill="#FFD85F"/>
<path d="M26.8797 182.49C26.8797 182.785 26.7631 183.069 26.5552 183.279C26.3473 183.488 26.065 183.607 25.7697 183.61H9.04969C8.75265 183.61 8.46777 183.492 8.25773 183.282C8.04769 183.072 7.92969 182.787 7.92969 182.49C7.92969 182.193 8.04769 181.908 8.25773 181.698C8.46777 181.488 8.75265 181.37 9.04969 181.37H25.7697C25.9163 181.37 26.0615 181.399 26.1968 181.456C26.3321 181.512 26.4549 181.595 26.5581 181.699C26.6613 181.803 26.7429 181.926 26.7981 182.062C26.8533 182.198 26.881 182.344 26.8797 182.49Z" fill="#381805"/>
<path d="M27.9997 200.12C27.9997 200.267 27.9707 200.413 27.9144 200.549C27.8581 200.684 27.7756 200.808 27.6716 200.912C27.5676 201.016 27.4442 201.098 27.3083 201.155C27.1724 201.211 27.0268 201.24 26.8797 201.24H9.04969C8.75265 201.24 8.46777 201.122 8.25773 200.912C8.04769 200.702 7.92969 200.417 7.92969 200.12C7.92969 199.823 8.04769 199.538 8.25773 199.328C8.46777 199.118 8.75265 199 9.04969 199H26.8797C27.0268 199 27.1724 199.029 27.3083 199.085C27.4442 199.142 27.5676 199.224 27.6716 199.328C27.7756 199.432 27.8581 199.556 27.9144 199.691C27.9707 199.827 27.9997 199.973 27.9997 200.12Z" fill="#FFD85F"/>
<path d="M33.4791 217.76C33.4792 217.907 33.4501 218.052 33.3937 218.187C33.3373 218.322 33.2546 218.445 33.1505 218.548C33.0464 218.652 32.9228 218.733 32.787 218.788C32.6512 218.844 32.5058 218.871 32.3591 218.87H8.99915C8.84385 218.885 8.68719 218.867 8.53921 218.818C8.39122 218.768 8.25517 218.688 8.13978 218.584C8.02439 218.479 7.93219 218.351 7.86911 218.208C7.80602 218.065 7.77344 217.911 7.77344 217.755C7.77344 217.599 7.80602 217.445 7.86911 217.302C7.93219 217.159 8.02439 217.031 8.13978 216.927C8.25517 216.822 8.39122 216.742 8.53921 216.693C8.68719 216.643 8.84385 216.625 8.99915 216.64H32.3992C32.6892 216.65 32.9639 216.773 33.1654 216.982C33.3668 217.191 33.4793 217.47 33.4791 217.76Z" fill="#381805"/>
<path d="M17.9995 209.61C17.9968 209.905 17.8777 210.188 17.6679 210.396C17.4581 210.604 17.1748 210.72 16.8795 210.72H9.04945C8.75506 210.72 8.47273 210.603 8.26456 210.395C8.0564 210.187 7.93945 209.905 7.93945 209.61C7.93945 209.316 8.0564 209.033 8.26456 208.825C8.47273 208.617 8.75506 208.5 9.04945 208.5H16.8495C16.9982 208.496 17.1463 208.522 17.285 208.576C17.4237 208.63 17.5503 208.711 17.6573 208.814C17.7644 208.917 17.8498 209.041 17.9085 209.178C17.9673 209.314 17.9982 209.461 17.9995 209.61Z" fill="#381805"/>
<path d="M73.24 170.84L68.62 166.21C68.4043 166.013 68.1225 165.903 67.83 165.903C67.5376 165.903 67.2558 166.013 67.04 166.21L63.12 170.14L56 177.25V155.25C56.0001 154.955 55.8834 154.671 55.6755 154.462C55.4677 154.252 55.1854 154.133 54.89 154.13H1.11005C0.81738 154.13 0.536552 154.246 0.328672 154.452C0.120792 154.658 0.00268251 154.937 4.58773e-05 155.23V226.57C-0.00128881 226.716 0.0265108 226.861 0.0818209 226.996C0.137131 227.132 0.218843 227.255 0.322183 227.358C0.425523 227.461 0.548419 227.543 0.683693 227.598C0.818967 227.654 0.963907 227.681 1.11005 227.68H54.9C55.1927 227.677 55.4725 227.559 55.6785 227.352C55.8845 227.144 56.0001 226.863 56 226.57V189.65L73.23 172.42C73.3353 172.318 73.4192 172.195 73.4767 172.06C73.5343 171.925 73.5644 171.779 73.5653 171.632C73.5662 171.485 73.538 171.34 73.4821 171.204C73.4263 171.068 73.344 170.944 73.24 170.84ZM2.24005 156.35H53.78V163.74H2.23005L2.24005 156.35ZM53.79 225.45H2.23005V166H53.78V179.52L32.3 201C32.2176 201.087 32.1531 201.189 32.11 201.3V201.36L29.54 208.55C29.4815 208.719 29.4639 208.899 29.4885 209.076C29.5132 209.253 29.5795 209.422 29.682 209.568C29.7845 209.715 29.9202 209.835 30.078 209.918C30.2359 210.002 30.4114 210.047 30.59 210.05C30.7195 210.046 30.8477 210.023 30.97 209.98L38.16 207.41H38.22C38.326 207.362 38.4238 207.298 38.51 207.22L53.79 191.95V225.45ZM33.92 204.14L35.68 205.91L32.36 207.1L33.55 203.78L33.92 204.14ZM37.72 204.79L34.72 201.79L63.97 172.54L66.97 175.54L37.72 204.79ZM68.54 174L65.49 170.95L67.82 168.61L70.88 171.61L68.54 174Z" fill="#381805"/>
<path d="M53.7905 156.35H2.23047V163.74H53.7905V156.35Z" fill="#D6D1CE"/>
<path d="M32.0005 201.37V201.31C32.0435 201.198 32.108 201.097 32.1905 201.01L53.6705 179.53V166H2.23047V225.49H53.7805V191.88L38.5005 207.15C38.4142 207.228 38.3164 207.292 38.2105 207.34H38.1505L30.9005 210C30.7781 210.043 30.65 210.066 30.5205 210.07C30.3418 210.067 30.1663 210.022 30.0085 209.938C29.8506 209.855 29.7149 209.735 29.6124 209.588C29.5099 209.442 29.4436 209.273 29.419 209.096C29.3943 208.919 29.4119 208.739 29.4705 208.57L32.0005 201.37ZM32.4205 181.37H42.4205C42.7175 181.37 43.0024 181.488 43.2124 181.698C43.4225 181.908 43.5405 182.193 43.5405 182.49C43.5405 182.787 43.4225 183.072 43.2124 183.282C43.0024 183.492 42.7175 183.61 42.4205 183.61H32.4205C32.1234 183.61 31.8386 183.492 31.6285 183.282C31.4185 183.072 31.3005 182.787 31.3005 182.49C31.3005 182.193 31.4185 181.908 31.6285 181.698C31.8386 181.488 32.1234 181.37 32.4205 181.37ZM9.01047 181.37H25.7705C26.0675 181.37 26.3524 181.488 26.5624 181.698C26.7725 181.908 26.8905 182.193 26.8905 182.49C26.8905 182.787 26.7725 183.072 26.5624 183.282C26.3524 183.492 26.0675 183.61 25.7705 183.61H9.05047C8.75343 183.61 8.46855 183.492 8.25851 183.282C8.04847 183.072 7.93047 182.787 7.93047 182.49C7.93047 182.193 8.04847 181.908 8.25851 181.698C8.46855 181.488 8.75343 181.37 9.05047 181.37H9.01047ZM9.01047 199H26.8805C27.1775 199 27.4624 199.118 27.6724 199.328C27.8825 199.538 28.0005 199.823 28.0005 200.12C28.0005 200.417 27.8825 200.702 27.6724 200.912C27.4624 201.122 27.1775 201.24 26.8805 201.24H9.05047C8.75343 201.24 8.46855 201.122 8.25851 200.912C8.04847 200.702 7.93047 200.417 7.93047 200.12C7.93047 199.823 8.04847 199.538 8.25851 199.328C8.46855 199.118 8.75343 199 9.05047 199H9.01047ZM9.01047 208.5H16.8105C17.1049 208.5 17.3872 208.617 17.5954 208.825C17.8035 209.033 17.9205 209.316 17.9205 209.61C17.9205 209.904 17.8035 210.187 17.5954 210.395C17.3872 210.603 17.1049 210.72 16.8105 210.72H9.05047C8.75608 210.72 8.47375 210.603 8.26558 210.395C8.05742 210.187 7.94047 209.904 7.94047 209.61C7.94047 209.316 8.05742 209.033 8.26558 208.825C8.47375 208.617 8.75608 208.5 9.05047 208.5H9.01047ZM32.3205 216.64C32.4758 216.625 32.6324 216.643 32.7804 216.692C32.9284 216.742 33.0644 216.822 33.1798 216.927C33.2952 217.031 33.3874 217.159 33.4505 217.302C33.5136 217.445 33.5462 217.599 33.5462 217.755C33.5462 217.911 33.5136 218.065 33.4505 218.208C33.3874 218.351 33.2952 218.479 33.1798 218.583C33.0644 218.688 32.9284 218.768 32.7804 218.818C32.6324 218.867 32.4758 218.885 32.3205 218.87H9.00047C8.84517 218.885 8.68851 218.867 8.54052 218.818C8.39254 218.768 8.25649 218.688 8.1411 218.583C8.02571 218.479 7.93351 218.351 7.87043 218.208C7.80734 218.065 7.77476 217.911 7.77476 217.755C7.77476 217.599 7.80734 217.445 7.87043 217.302C7.93351 217.159 8.02571 217.031 8.1411 216.927C8.25649 216.822 8.39254 216.742 8.54052 216.692C8.68851 216.643 8.84517 216.625 9.00047 216.64H32.3205Z" fill="white"/>
<path d="M86.8791 225.51C87.3906 224.599 87.5253 223.524 87.2543 222.515C86.9833 221.505 86.3282 220.642 85.4291 220.11C84.5534 219.603 83.8275 218.874 83.3251 217.996C82.8228 217.117 82.5619 216.122 82.5691 215.11C82.5691 214.049 82.1477 213.032 81.3975 212.282C80.6474 211.532 79.6299 211.11 78.5691 211.11C77.556 211.118 76.5589 210.857 75.6803 210.352C74.8016 209.848 74.073 209.119 73.5691 208.24C73.035 207.34 72.1694 206.685 71.158 206.416C70.1466 206.147 69.07 206.285 68.1591 206.8C67.2839 207.296 66.2951 207.557 65.2891 207.557C64.2831 207.557 63.2943 207.296 62.4191 206.8C61.9704 206.538 61.4743 206.368 60.9596 206.299C60.4448 206.23 59.9214 206.263 59.4196 206.397C58.9177 206.531 58.4473 206.763 58.0353 207.079C57.6233 207.395 57.278 207.79 57.0191 208.24C56.5128 209.117 55.7837 209.844 54.9055 210.348C54.0274 210.852 53.0316 211.115 52.0191 211.11C50.9582 211.11 49.9408 211.532 49.1907 212.282C48.4405 213.032 48.0191 214.049 48.0191 215.11C48.0262 216.121 47.7664 217.115 47.266 217.993C46.7656 218.871 46.0422 219.601 45.1691 220.11C44.27 220.642 43.6149 221.505 43.3439 222.515C43.0729 223.524 43.2076 224.599 43.7191 225.51C44.2152 226.383 44.4761 227.371 44.4761 228.375C44.4761 229.38 44.2152 230.367 43.7191 231.24C43.2076 232.151 43.0729 233.226 43.3439 234.236C43.6149 235.245 44.27 236.108 45.1691 236.64C46.0422 237.149 46.7656 237.879 47.266 238.757C47.7664 239.635 48.0262 240.63 48.0191 241.64C48.0191 242.701 48.4405 243.718 49.1907 244.469C49.9408 245.219 50.9582 245.64 52.0191 245.64C53.032 245.633 54.0286 245.895 54.9071 246.399C55.7856 246.903 56.5144 247.632 57.0191 248.51C57.5514 249.409 58.4145 250.064 59.4237 250.335C60.4328 250.606 61.5079 250.472 62.4191 249.96C63.2933 249.461 64.2825 249.199 65.2891 249.199C66.2957 249.199 67.2849 249.461 68.1591 249.96C69.0688 250.476 70.1445 250.616 71.1558 250.349C72.167 250.081 73.0333 249.428 73.5691 248.53C74.0714 247.65 74.7997 246.92 75.6787 246.415C76.5577 245.91 77.5556 245.65 78.5691 245.66C79.6299 245.66 80.6474 245.239 81.3975 244.489C82.1477 243.738 82.5691 242.721 82.5691 241.66C82.5619 240.648 82.8228 239.653 83.3251 238.775C83.8275 237.896 84.5534 237.167 85.4291 236.66C86.3282 236.128 86.9833 235.265 87.2543 234.255C87.5253 233.246 87.3906 232.171 86.8791 231.26C86.3744 230.386 86.1087 229.394 86.1087 228.385C86.1087 227.376 86.3744 226.384 86.8791 225.51ZM65.3791 245.57C61.9768 245.572 58.6504 244.565 55.8205 242.676C52.9907 240.787 50.7846 238.102 49.4812 234.959C48.1779 231.816 47.8358 228.358 48.4984 225.021C49.1609 221.684 50.7982 218.618 53.2033 216.211C55.6084 213.805 58.6731 212.166 62.0098 211.501C65.3466 210.837 68.8055 211.177 71.9489 212.478C75.0924 213.78 77.7793 215.984 79.6697 218.813C81.5601 221.642 82.5691 224.968 82.5691 228.37C82.5638 232.928 80.7513 237.299 77.529 240.523C74.3067 243.747 69.9374 245.562 65.3791 245.57Z" fill="#D6D1CE"/>
<path d="M87.311 225.67C88.0688 224.353 88.2733 222.789 87.8796 221.321C87.4859 219.853 86.5263 218.601 85.211 217.84C84.6094 217.493 84.1085 216.995 83.7578 216.395C83.4072 215.795 83.2187 215.115 83.211 214.42C83.211 212.902 82.6087 211.446 81.5363 210.372C80.4638 209.298 79.009 208.693 77.491 208.69C76.7947 208.684 76.1119 208.496 75.5103 208.146C74.9088 207.795 74.4092 207.293 74.061 206.69C73.2978 205.377 72.0461 204.419 70.579 204.025C69.112 203.632 67.5489 203.835 66.231 204.59C65.6253 204.948 64.9346 205.137 64.231 205.137C63.5274 205.137 62.8367 204.948 62.231 204.59C60.9153 203.833 59.3528 203.629 57.8866 204.022C56.4204 204.416 55.1704 205.375 54.411 206.69C54.0628 207.293 53.5633 207.795 52.9617 208.146C52.3601 208.496 51.6774 208.684 50.981 208.69C49.4631 208.693 48.0082 209.298 46.9358 210.372C45.8633 211.446 45.261 212.902 45.261 214.42C45.2533 215.115 45.0649 215.795 44.7142 216.395C44.3635 216.995 43.8627 217.493 43.261 217.84C41.9458 218.601 40.9861 219.853 40.5924 221.321C40.1988 222.789 40.4032 224.353 41.161 225.67C41.5121 226.278 41.6969 226.968 41.6969 227.67C41.6969 228.372 41.5121 229.062 41.161 229.67C40.4042 230.984 40.2002 232.545 40.594 234.01C40.9878 235.474 41.9471 236.723 43.261 237.48C43.8641 237.828 44.3659 238.328 44.7166 238.929C45.0674 239.531 45.2551 240.214 45.261 240.91C45.2637 242.426 45.8671 243.88 46.9393 244.952C48.0114 246.024 49.4648 246.627 50.981 246.63C51.6774 246.636 52.3601 246.824 52.9617 247.174C53.5633 247.525 54.0628 248.027 54.411 248.63C55.1721 249.943 56.4228 250.9 57.8888 251.292C59.3549 251.684 60.9165 251.478 62.231 250.72C62.8367 250.362 63.5274 250.173 64.231 250.173C64.9346 250.173 65.6253 250.362 66.231 250.72C66.8824 251.097 67.6016 251.342 68.3476 251.441C69.0936 251.54 69.8518 251.491 70.5789 251.297C71.306 251.103 71.9878 250.767 72.5852 250.31C73.1827 249.852 73.6842 249.281 74.061 248.63C74.4092 248.027 74.9088 247.525 75.5103 247.174C76.1119 246.824 76.7947 246.636 77.491 246.63C79.0072 246.627 80.4606 246.024 81.5327 244.952C82.6049 243.88 83.2084 242.426 83.211 240.91C83.217 240.214 83.4046 239.531 83.7554 238.929C84.1062 238.328 84.6079 237.828 85.211 237.48C86.5249 236.723 87.4842 235.474 87.878 234.01C88.2718 232.545 88.0678 230.984 87.311 229.67C86.9599 229.062 86.7751 228.372 86.7751 227.67C86.7751 226.968 86.9599 226.278 87.311 225.67ZM85.781 230.51C86.2956 231.422 86.432 232.5 86.1609 233.511C85.8898 234.523 85.2328 235.388 84.331 235.92C83.4532 236.424 82.7256 237.153 82.2229 238.032C81.7203 238.911 81.4608 239.908 81.471 240.92C81.471 241.981 81.0496 242.998 80.2994 243.748C79.5493 244.499 78.5319 244.92 77.471 244.92C76.4581 244.913 75.4615 245.175 74.583 245.679C73.7045 246.183 72.9757 246.912 72.471 247.79C72.2121 248.24 71.8668 248.635 71.4548 248.951C71.0428 249.268 70.5724 249.499 70.0705 249.633C69.5687 249.767 69.0453 249.8 68.5305 249.731C68.0157 249.662 67.5197 249.492 67.071 249.23C66.1974 248.729 65.208 248.466 64.201 248.466C63.194 248.466 62.2046 248.729 61.331 249.23C60.4171 249.713 59.3515 249.824 58.3579 249.539C57.3642 249.253 56.5195 248.594 56.001 247.7C55.4963 246.822 54.7675 246.093 53.889 245.589C53.0105 245.085 52.0139 244.823 51.001 244.83C49.9401 244.83 48.9227 244.409 48.1726 243.658C47.4224 242.908 47.001 241.891 47.001 240.83C47.0102 239.819 46.7513 238.824 46.2507 237.945C45.75 237.067 45.0255 236.337 44.151 235.83C43.2492 235.298 42.5922 234.433 42.3211 233.421C42.05 232.41 42.1864 231.332 42.701 230.42C43.1972 229.547 43.458 228.559 43.458 227.555C43.458 226.551 43.1972 225.563 42.701 224.69C42.1895 223.779 42.0548 222.704 42.3258 221.695C42.5968 220.685 43.2519 219.822 44.151 219.29C45.0242 218.781 45.7475 218.051 46.2479 217.173C46.7484 216.295 47.0081 215.301 47.001 214.29C47.001 213.229 47.4224 212.212 48.1726 211.462C48.9227 210.711 49.9401 210.29 51.001 210.29C52.0123 210.295 53.0071 210.033 53.885 209.531C54.7628 209.029 55.4927 208.304 56.001 207.43C56.5334 206.531 57.3964 205.876 58.4056 205.605C59.4147 205.334 60.4899 205.469 61.401 205.98C62.2762 206.476 63.265 206.737 64.271 206.737C65.277 206.737 66.2658 206.476 67.141 205.98C68.0522 205.469 69.1273 205.334 70.1364 205.605C71.1456 205.876 72.0086 206.531 72.541 207.43C73.0493 208.304 73.7792 209.029 74.6571 209.531C75.5349 210.033 76.5297 210.295 77.541 210.29C78.6019 210.29 79.6193 210.711 80.3694 211.462C81.1196 212.212 81.541 213.229 81.541 214.29C81.5339 215.302 81.7947 216.297 82.2971 217.176C82.7994 218.054 83.5253 218.783 84.401 219.29C85.3001 219.822 85.9552 220.685 86.2262 221.695C86.4972 222.704 86.3625 223.779 85.851 224.69C85.3226 225.566 85.0375 226.567 85.0252 227.591C85.0129 228.614 85.2738 229.621 85.781 230.51Z" fill="#381805"/>
<path d="M63.4805 210.47C60.0858 210.634 56.8159 211.8 54.0839 213.822C51.3519 215.844 49.2805 218.63 48.1314 221.828C46.9824 225.027 46.8072 228.494 47.6281 231.792C48.449 235.09 50.2291 238.071 52.7434 240.357C55.2578 242.644 58.3935 244.134 61.7544 244.639C65.1153 245.144 68.5505 244.642 71.6259 243.195C74.7013 241.748 77.2789 239.423 79.0329 236.512C80.7869 233.601 81.6387 230.235 81.4805 226.84C81.2629 222.283 79.2446 217.998 75.8693 214.929C72.494 211.859 68.0379 210.255 63.4805 210.47ZM65.0005 243.06C61.9523 243.203 58.9301 242.439 56.3161 240.864C53.7021 239.29 51.6137 236.975 50.3149 234.214C49.0161 231.453 48.5653 228.368 49.0195 225.35C49.4737 222.333 50.8124 219.518 52.8665 217.261C54.9205 215.004 57.5976 213.407 60.5593 212.672C63.5209 211.936 66.6341 212.096 69.5053 213.129C72.3764 214.163 74.8765 216.025 76.6894 218.48C78.5024 220.935 79.5467 223.872 79.6905 226.92C79.8753 231.006 78.4331 234.999 75.6797 238.025C72.9263 241.05 69.0862 242.86 65.0005 243.06Z" fill="#381805"/>
<path d="M64.2796 212.22C61.2274 212.22 58.2438 213.125 55.7061 214.821C53.1685 216.517 51.1908 218.928 50.0232 221.748C48.8556 224.568 48.5507 227.671 49.1468 230.664C49.743 233.658 51.2136 236.407 53.3725 238.564C55.5314 240.722 58.2817 242.191 61.2755 242.785C64.2693 243.379 67.3721 243.072 70.1913 241.903C73.0106 240.733 75.4198 238.754 77.1141 236.215C78.8083 233.677 79.7116 230.692 79.7096 227.64C79.7043 223.55 78.0766 219.63 75.1838 216.739C72.291 213.848 68.3694 212.223 64.2796 212.22ZM61.2796 237.27C61.1102 237.432 60.8842 237.522 60.6496 237.52C60.5348 237.522 60.4208 237.501 60.3143 237.458C60.2078 237.415 60.111 237.351 60.0296 237.27L53.0796 230.27C52.9971 230.188 52.9316 230.091 52.8868 229.984C52.8421 229.876 52.8191 229.761 52.8191 229.645C52.8191 229.529 52.8421 229.414 52.8868 229.307C52.9316 229.199 52.9971 229.102 53.0796 229.02L56.8096 225.27C56.9786 225.111 57.2022 225.022 57.4346 225.022C57.667 225.022 57.8907 225.111 58.0596 225.27L60.6496 227.85L70.5196 218C70.6845 217.837 70.9073 217.745 71.1396 217.745C71.3719 217.745 71.5948 217.837 71.7596 218L75.5096 221.74C75.6739 221.907 75.766 222.131 75.766 222.365C75.766 222.599 75.6739 222.824 75.5096 222.99L61.2796 237.27Z" fill="white"/>
<path d="M75.5103 221.76L71.7603 218C71.5954 217.836 71.3726 217.745 71.1403 217.745C70.908 217.745 70.6851 217.836 70.5203 218L60.6303 227.88L58.0003 225.32C57.8313 225.16 57.6077 225.072 57.3753 225.072C57.1428 225.072 56.9192 225.16 56.7503 225.32L53.0203 229.07C52.9377 229.152 52.8722 229.249 52.8275 229.357C52.7828 229.464 52.7598 229.579 52.7598 229.695C52.7598 229.811 52.7828 229.926 52.8275 230.034C52.8722 230.141 52.9377 230.238 53.0203 230.32L59.9703 237.32C60.0517 237.401 60.1485 237.465 60.255 237.508C60.3615 237.551 60.4755 237.572 60.5903 237.57C60.8248 237.572 61.0509 237.482 61.2203 237.32L75.5103 223C75.6715 222.834 75.7618 222.612 75.7618 222.38C75.7618 222.149 75.6715 221.926 75.5103 221.76ZM60.6303 235.39L54.9203 229.69L57.4203 227.2L60.0003 229.77C60.0821 229.853 60.1794 229.918 60.2867 229.963C60.394 230.008 60.5091 230.031 60.6253 230.031C60.7415 230.031 60.8566 230.008 60.9638 229.963C61.0711 229.918 61.1685 229.853 61.2503 229.77L71.1303 219.89L73.6303 222.39L60.6303 235.39Z" fill="#381805"/>
<path d="M82.9999 22.1402L86.8799 12.1402L85.1999 6.31021L79.1999 2.43021L76.5099 2.11021C76.5099 2.11021 69.9999 1.80021 67.7499 7.00021C65.8299 11.3302 65.4799 12.0002 69.6799 20.6102C71.9881 25.1024 73.3495 30.0206 73.6799 35.0602H79.6799L82.9999 22.1402Z" fill="#D6D1CE"/>
<path d="M93.3805 41.2101L88.1005 40.6701L87.7805 38.0001L84.4405 35.0901H79.7005H73.7005C73.7005 35.4101 73.7005 35.5901 73.7005 35.5901L66.5905 35.9601L64.2105 41.0001L54.2105 41.3701L52.0005 44.2801L51.4805 55.1001H56.5405V61.1601H96.4005V54.9101H100.92L101.24 43.1701L93.3805 41.2101Z" fill="white"/>
<path d="M96.7302 39.7701H89.7302C89.5232 38.1707 88.7393 36.7018 87.5259 35.6394C86.3125 34.577 84.753 33.9941 83.1402 34.0001H80.7802L81.6302 30.2601C84.0002 20.0001 87.6902 17.8201 87.6902 12.3501C87.6911 9.46331 86.592 6.68465 84.6165 4.57963C82.641 2.47462 79.9377 1.20145 77.0566 1.01923C74.1756 0.837016 71.3334 1.75945 69.1085 3.59881C66.8835 5.43816 65.4431 8.0562 65.0802 10.9201C64.3002 17.2501 68.5502 19.3101 70.8902 29.5401L71.8902 33.9901H69.5402C67.9346 33.9965 66.3859 34.5863 65.1828 35.6497C63.9796 36.713 63.204 38.1774 63.0002 39.7701H56.0002C54.4726 39.7701 53.0075 40.377 51.9273 41.4572C50.8471 42.5374 50.2402 44.0025 50.2402 45.5301V54.9301C50.2402 55.2351 50.3614 55.5276 50.5771 55.7433C50.7927 55.9589 51.0852 56.0801 51.3902 56.0801H55.0002V61.1401C54.9989 61.2915 55.0277 61.4416 55.0851 61.5818C55.1424 61.7219 55.227 61.8492 55.3341 61.9562C55.4411 62.0633 55.5684 62.148 55.7086 62.2053C55.8487 62.2626 55.9988 62.2914 56.1502 62.2901H96.4502C96.6016 62.2914 96.7518 62.2626 96.8919 62.2053C97.032 62.148 97.1593 62.0633 97.2664 61.9562C97.3734 61.8492 97.4581 61.7219 97.5154 61.5818C97.5727 61.4416 97.6016 61.2915 97.6002 61.1401V56.0801H101.3C101.606 56.0801 101.9 55.9593 102.117 55.7439C102.334 55.5285 102.458 55.236 102.46 54.9301V45.5301C102.458 44.0084 101.854 42.5494 100.781 41.4706C99.7077 40.3918 98.2519 39.7807 96.7302 39.7701ZM73.1302 29.0001C70.7202 18.4701 66.7002 16.6601 67.3602 11.2001C67.6937 8.95543 68.8582 6.91794 70.6231 5.49143C72.388 4.06492 74.6244 3.35351 76.889 3.4982C79.1537 3.64289 81.2814 4.63311 82.8504 6.27262C84.4194 7.91212 85.3152 10.0813 85.3602 12.3501C85.3602 16.8601 81.6602 19.6501 79.3602 29.7401L78.3602 33.9901H74.2702L73.1302 29.0001ZM69.5402 36.2701H83.1402C84.1377 36.2723 85.1035 36.6203 85.873 37.2549C86.6425 37.8895 87.1682 38.7713 87.3602 39.7501H65.3602C65.555 38.7817 66.0765 37.9096 66.8374 37.2797C67.5983 36.6499 68.5525 36.3005 69.5402 36.2901V36.2701ZM95.3402 60.0001H57.3402V56.0801H95.3402V60.0001ZM100.19 53.7801H52.4902V45.5301C52.4902 45.0715 52.5813 44.6174 52.7583 44.1944C52.9353 43.7713 53.1947 43.3876 53.5213 43.0657C53.8479 42.7437 54.2352 42.4899 54.6608 42.319C55.0864 42.1481 55.5417 42.0635 56.0002 42.0701H96.7302C97.6479 42.0701 98.5279 42.4346 99.1768 43.0835C99.8257 43.7324 100.19 44.6125 100.19 45.5301V53.7801Z" fill="#381805"/>
<path d="M96.4996 56V60.84C96.4847 60.9453 96.4294 61.0407 96.3454 61.106C96.2614 61.1713 96.1554 61.2014 96.0496 61.19H56.5496C56.4439 61.2014 56.3378 61.1713 56.2538 61.106C56.1699 61.0407 56.1146 60.9453 56.0996 60.84V56" stroke="#B7AFAB" stroke-width="2.5" stroke-miterlimit="10"/>
</svg>
