<svg width="623" height="134" viewBox="0 0 623 134" fill="none" xmlns="http://www.w3.org/2000/svg">
<rect x="151" width="348" height="89" rx="20" fill="#FBC917"/>
<path d="M177.704 25.652H195.54C198.972 25.652 201.659 26.5013 203.6 28.2C205.541 29.8987 206.512 32.36 206.512 35.584C206.512 37.2133 206.131 38.704 205.368 40.056C204.605 41.3733 203.565 42.396 202.248 43.124C204.051 43.7827 205.403 44.788 206.304 46.14C207.205 47.4573 207.656 49.1907 207.656 51.34C207.656 53.524 207.153 55.4307 206.148 57.06C205.177 58.6547 203.825 59.8853 202.092 60.752C200.393 61.584 198.504 62 196.424 62H177.704V25.652ZM194.032 40.42C195.419 40.42 196.511 40.0733 197.308 39.38C198.105 38.6867 198.504 37.5773 198.504 36.052C198.504 34.388 198.105 33.244 197.308 32.62C196.545 31.996 195.367 31.684 193.772 31.684H185.608V40.42H194.032ZM194.5 55.968C196.199 55.968 197.481 55.6387 198.348 54.98C199.249 54.2867 199.7 53.0907 199.7 51.392C199.7 49.6587 199.232 48.4107 198.296 47.648C197.395 46.8853 196.043 46.504 194.24 46.504H185.608V55.968H194.5ZM217.283 25.652H225.187V40.212H241.047V25.652H248.951V62H241.047V46.764H225.187V62H217.283V25.652ZM257.193 56.748L274.977 32.256H257.661V25.652H284.753V30.956L267.073 55.396H285.793V62H257.193V56.748ZM305.253 62.78C303.242 62.78 301.249 62.5547 299.273 62.104C297.332 61.688 295.702 61.0987 294.385 60.336V53.524C295.91 54.4947 297.609 55.2573 299.481 55.812C301.388 56.332 303.19 56.592 304.889 56.592C307.593 56.592 309.621 56.072 310.973 55.032C312.325 53.9573 313.001 52.4147 313.001 50.404C313.001 48.4627 312.325 46.972 310.973 45.932C309.656 44.892 307.784 44.372 305.357 44.372C304.144 44.372 302.861 44.4933 301.509 44.736C300.192 44.9787 299.03 45.308 298.025 45.724L294.853 43.904L296.309 25.652H318.617V32.152H303.745L303.173 39.172C305.08 38.756 306.986 38.548 308.893 38.548C312.706 38.548 315.67 39.588 317.785 41.668C319.934 43.7133 321.009 46.5733 321.009 50.248C321.009 54.2347 319.674 57.32 317.005 59.504C314.37 61.688 310.453 62.78 305.253 62.78ZM337.137 34.284L329.597 39.744V32.152L338.437 25.652H345.041V62H337.137V34.284ZM362.142 34.284L354.602 39.744V32.152L363.442 25.652H370.046V62H362.142V34.284ZM390.63 62.78C388.204 62.78 386.158 62.52 384.494 62V55.448C386.054 56.176 387.892 56.54 390.006 56.54C392.988 56.54 395.397 55.6907 397.234 53.992C399.072 52.2587 400.181 49.7453 400.562 46.452C399.557 47.492 398.292 48.2893 396.766 48.844C395.276 49.364 393.612 49.624 391.774 49.624C389.382 49.624 387.268 49.1387 385.43 48.168C383.593 47.1973 382.154 45.8107 381.114 44.008C380.109 42.1707 379.606 40.0213 379.606 37.56C379.606 35.1333 380.161 32.9667 381.27 31.06C382.38 29.1187 384.009 27.6107 386.158 26.536C388.308 25.4267 390.908 24.872 393.958 24.872C396.905 24.872 399.488 25.5307 401.706 26.848C403.925 28.1307 405.641 30.0027 406.854 32.464C408.068 34.8907 408.674 37.8027 408.674 41.2C408.674 45.776 407.929 49.6933 406.438 52.952C404.948 56.176 402.85 58.62 400.146 60.284C397.442 61.948 394.27 62.78 390.63 62.78ZM393.958 43.696C395.761 43.696 397.269 43.0893 398.482 41.876C399.696 40.6627 400.302 39.1373 400.302 37.3C400.302 35.532 399.696 34.024 398.482 32.776C397.304 31.528 395.796 30.904 393.958 30.904C392.121 30.904 390.596 31.5107 389.382 32.724C388.204 33.9027 387.614 35.428 387.614 37.3C387.614 39.1373 388.204 40.6627 389.382 41.876C390.596 43.0893 392.121 43.696 393.958 43.696ZM417.205 43.228H435.093V49.468H417.205V43.228Z" fill="#381805"/>
<path d="M458.398 62.78C455.555 62.78 453.025 62.1387 450.806 60.856C448.587 59.5387 446.837 57.6667 445.554 55.24C444.306 52.7787 443.682 49.8667 443.682 46.504C443.682 41.9627 444.427 38.0627 445.918 34.804C447.409 31.5453 449.506 29.084 452.21 27.42C454.914 25.7213 458.086 24.872 461.726 24.872C464.014 24.872 466.059 25.1493 467.862 25.704V32.256C466.406 31.528 464.569 31.164 462.35 31.164C459.369 31.164 456.977 32.0307 455.174 33.764C453.371 35.4627 452.279 37.9587 451.898 41.252C452.903 40.212 454.203 39.4147 455.798 38.86C457.393 38.3053 459.109 38.028 460.946 38.028C463.269 38.028 465.314 38.5133 467.082 39.484C468.885 40.42 470.271 41.8067 471.242 43.644C472.247 45.4467 472.75 47.5787 472.75 50.04C472.75 52.4667 472.195 54.6507 471.086 56.592C469.977 58.4987 468.33 60.0067 466.146 61.116C463.997 62.2253 461.414 62.78 458.398 62.78ZM458.45 56.8C460.322 56.8 461.847 56.2107 463.026 55.032C464.239 53.8533 464.846 52.328 464.846 50.456C464.846 48.584 464.239 47.0413 463.026 45.828C461.847 44.6147 460.322 44.008 458.45 44.008C456.682 44.008 455.191 44.632 453.978 45.88C452.765 47.0933 452.158 48.6187 452.158 50.456C452.158 52.1893 452.747 53.68 453.926 54.928C455.139 56.176 456.647 56.8 458.45 56.8Z" fill="#381805" fill-opacity="0.7"/>
<path d="M175 67.2H415.538V69.8H175V67.2Z" fill="#381805"/>
<path d="M22.896 115.328C22.608 118.592 21.768 120.128 18.024 120.128H15.192C11.256 120.128 10.272 119.096 10.272 116.72V109.088L8.616 109.88L7.848 108.248L10.272 107.216V100.76H12.072V106.424L14.928 105.152V98.648H16.704V104.408L19.752 103.04L20.16 102.68L20.52 102.416L21.864 102.92L21.744 103.28C21.744 107.456 21.672 111.44 21.504 112.28C21.384 113.24 20.808 113.768 20.184 113.912C19.56 114.08 18.48 114.08 17.688 114.08L17.592 112.448C17.88 112.472 18.456 112.472 18.816 112.472H19.056C19.392 112.472 19.632 112.352 19.752 111.872C19.848 111.32 19.968 108.488 19.968 104.936L16.704 106.232V115.16H14.928V107.024L12.072 108.296V116.744C12.072 117.92 12.384 118.376 15.216 118.376H17.976C20.664 118.376 21 117.368 21.12 115.04L22.896 115.328ZM9.24 113.24C8.4 113.672 7.44 114.128 6.48 114.584L6.24 114.68C4.632 115.448 3 116.168 1.824 116.696L1.08 114.824C1.92 114.536 3.216 114.08 4.392 113.528V105.968H1.296V104.168H4.392V98.912H6.144V104.168H8.976V105.968H6.144V112.784C6.552 112.592 7.032 112.376 7.512 112.16L7.752 112.064C8.112 111.896 8.496 111.752 8.832 111.608L9.24 113.24ZM48.936 117.968V119.792H33.84V117.968H36.552V103.64H38.4V117.968H41.544V98.792H43.392V106.64H48.6V108.488H43.392V117.968H48.936ZM35.904 113.048C35.136 113.384 34.32 113.744 33.456 114.128L33.216 114.224L32.88 114.368C31.08 115.16 29.28 115.928 27.984 116.48L27.264 114.632C28.152 114.296 29.568 113.792 30.792 113.312V105.968H27.528V104.192H30.792V98.936H32.568V104.192H35.688V105.968H32.568V112.616L35.544 111.392L35.904 113.048ZM74.976 108.968L73.416 109.88C73.2 109.472 72.816 108.968 72.408 108.44L72.264 108.224C72 108.248 71.76 108.248 71.496 108.272H71.256C71.088 108.296 70.92 108.296 70.728 108.296L70.488 108.32H70.224C70.104 108.344 69.96 108.344 69.84 108.344L69.072 108.392C68.688 108.416 68.304 108.44 67.92 108.464H67.656L67.536 108.488H67.272L67.008 108.512H66.768C66.504 108.536 66.264 108.536 66 108.56L65.76 108.584C63.816 108.68 62.016 108.776 60.576 108.824L60.36 107.048C61.128 107.024 62.04 107 62.976 106.952C63.624 105.896 64.32 104.456 64.8 103.328H60.096V101.624H66.144V98.672H67.92V101.624H74.856V103.328H66.888C66.576 103.88 66.264 104.48 65.904 105.104L65.784 105.32C65.472 105.896 65.136 106.472 64.824 106.976C65.592 106.928 66.408 106.904 67.224 106.88L67.464 106.856C67.752 106.856 68.04 106.832 68.304 106.832L68.544 106.808C68.808 106.808 69.048 106.808 69.288 106.784H69.648C69.72 106.76 69.816 106.76 69.888 106.76H70.128H70.368C70.56 106.736 70.776 106.736 70.968 106.736C70.392 106.088 69.6 105.344 69 104.816L70.464 103.952C72.024 105.32 74.16 107.6 74.976 108.968ZM60.168 101.384L59.064 102.824C58.56 102.464 57.672 101.912 56.76 101.36L56.544 101.216C55.92 100.856 55.32 100.496 54.816 100.208L55.824 98.816C57.168 99.56 59.232 100.76 60.168 101.384ZM59.064 107.408L57.984 108.992C57.024 108.368 54.888 107.144 53.52 106.424L54.552 104.984C55.08 105.248 55.752 105.608 56.424 105.944L56.664 106.088C57.6 106.592 58.512 107.096 59.064 107.408ZM74.28 120.008C74.064 120.176 73.536 120.296 72.84 120.296H72.24C71.496 120.296 70.896 120.128 70.584 119.864C70.272 119.504 70.104 119.024 70.104 117.608V109.616H71.88V117.944C71.88 118.304 71.904 118.544 71.952 118.64C72.048 118.712 72.216 118.736 72.528 118.736H72.864C73.224 118.736 73.416 118.712 73.512 118.616C73.608 118.592 73.728 118.304 73.776 118.112C73.824 117.584 73.848 116.48 73.872 115.448C74.136 115.664 74.808 116 75.216 116.12C75.192 117.296 75.096 118.592 74.976 119.024C74.856 119.504 74.592 119.84 74.28 120.008ZM63.792 112.232C63.792 114.704 63.312 118.496 60.36 120.632C60.096 120.32 59.4 119.648 59.064 119.36C61.752 117.296 62.04 114.248 62.04 112.184V109.616H63.792V112.232ZM67.824 109.784V119.6H66.144V109.784H67.824ZM59.976 112.232C59.52 113.216 58.944 114.416 58.32 115.64L58.128 115.976C58.008 116.264 57.864 116.528 57.72 116.792L57.6 117.008C56.976 118.232 56.352 119.384 55.824 120.32L54.216 119.024C54.888 118.016 55.896 116.264 56.856 114.44L56.976 114.224C57.552 113.12 58.104 112.016 58.56 111.08L59.976 112.232ZM90.36 120.32C89.616 120.608 88.176 120.728 85.848 120.728L85.68 118.64C86.424 118.664 87.24 118.664 87.912 118.664H88.128C88.512 118.664 88.824 118.664 88.968 118.664C89.424 118.64 89.52 118.448 89.52 117.992V98.696H91.488V102.944C91.56 103.136 91.608 103.328 91.656 103.52L91.704 103.76L91.776 103.976C91.776 104.024 91.8 104.048 91.8 104.096L91.896 104.432C92.256 105.752 92.664 107.072 93.216 108.224C95.016 106.664 97.536 104.096 98.856 102.368L100.536 103.544C98.76 105.488 95.952 108.176 94.032 109.664C95.736 112.688 98.568 115.76 101.304 116.936L100.272 118.832C96.24 116.864 93.192 112.136 91.488 107.576V117.992C91.488 119.192 91.104 120.008 90.36 120.32ZM88.44 104.936C87.312 110.792 84.264 116.048 80.88 118.352L79.656 116.648C82.416 114.944 85.224 110.768 86.304 106.376H80.088V104.504H87.048L87.168 104.456L88.44 104.936ZM117 109.28C117 112.352 116.496 117.872 114.456 120.848C114.192 120.488 113.352 119.936 112.992 119.792C114.912 116.984 115.272 112.136 115.272 109.28V103.16H119.736V98.648H121.464V100.256H126.288V101.816H121.464V103.16H126.072L126.36 103.088L127.536 103.4C127.44 103.928 127.32 104.504 127.176 105.104L127.104 105.344C126.912 106.232 126.696 107.096 126.528 107.672L125.064 107.312C125.208 106.664 125.448 105.584 125.568 104.72H117V109.28ZM113.976 99.512V106.088H107.016V99.512H113.976ZM108.672 104.456H112.248V101.12H108.672V104.456ZM126.528 108.464C126.384 110.336 125.784 111.008 123.936 111.008H122.616C120.36 111.008 119.808 110.48 119.808 109.088V108.128L117.552 108.416L117.384 107.072L119.808 106.808V104.792H121.488V106.64L124.32 106.352L124.488 107.624L121.488 108.008V109.04C121.488 109.496 121.56 109.568 122.712 109.568H123.816C124.872 109.568 125.016 109.304 125.064 108.296L126.528 108.464ZM110.928 120.68C110.472 120.728 109.344 120.728 108.192 120.656V119.024C108.792 119.096 109.68 119.096 110.136 119.096H110.256C110.592 119.072 110.808 119.048 111 118.856C111.408 118.448 111.816 116.48 112.08 112.928H108.84C108.816 113.072 108.768 113.216 108.72 113.384L108.672 113.624C108.6 113.936 108.528 114.248 108.432 114.464L106.776 114.152C107.112 112.952 107.688 110.768 108 109.28H105.912V107.624H114.792V109.28H109.68C109.56 109.928 109.416 110.696 109.248 111.296H113.88C113.88 111.296 113.856 111.848 113.832 112.064C113.472 116.696 113.04 119.36 112.44 120.008C112.08 120.488 111.528 120.632 110.928 120.68ZM126.648 120.056C126.36 120.2 125.76 120.296 124.992 120.296H124.32C123.504 120.296 122.832 120.2 122.52 119.888C122.16 119.528 122.016 119.072 122.016 118.088V111.944H123.696V118.016C123.696 118.184 123.696 118.376 123.816 118.448C123.936 118.496 124.128 118.568 124.536 118.568H124.968C125.4 118.568 125.712 118.496 125.832 118.448C125.952 118.376 126.12 118.136 126.168 117.92C126.288 117.56 126.264 116.408 126.264 115.688L127.704 115.904C127.656 117.224 127.536 118.664 127.44 119.192C127.296 119.528 126.984 119.84 126.648 120.056ZM120.432 111.944C120.264 115.736 119.352 119.192 116.544 120.824L115.632 119.336C117.96 118.088 118.608 115.208 118.752 111.944H120.432Z" fill="#381805"/>
<path d="M552.672 115.92V127.656H550.968V116.088C550.296 118.536 549.072 121.488 548.208 122.712L546.912 121.536C548.448 119.472 550.152 115.56 550.8 112.392H547.56V110.616H550.968V105.648H552.672V110.616H555.216V111.456C557.496 110.04 559.56 107.592 560.64 105.696H562.344C563.928 107.88 566.832 110.328 569.016 111.432L568.056 113.088C567.24 112.608 566.328 111.96 565.44 111.264V112.752H558.048V111.24C557.28 111.912 556.32 112.704 555.456 113.208C555.336 112.992 555.336 112.632 555.144 112.392H552.672V113.784C552.96 114.168 553.488 114.912 553.992 115.68L554.16 115.944C554.76 116.832 555.336 117.72 555.528 118.032L554.472 119.424C554.16 118.704 553.296 117.024 552.672 115.92ZM558.096 111.216H565.368C563.88 110.016 562.416 108.624 561.552 107.424C560.76 108.648 559.512 109.992 558.096 111.216ZM561.264 114.144V119.832H555.696V114.144H561.264ZM567.912 114.144V119.832H562.128V114.144H567.912ZM557.136 118.416H559.776V115.56H557.136V118.416ZM563.592 118.416H566.4V115.56H563.592V118.416ZM558.24 124.128C557.52 125.424 556.344 126.96 555.048 127.8L554.208 126.504C556.128 125.328 557.376 122.544 557.856 120.144L559.584 120.552C559.44 121.248 559.176 122.136 558.936 122.76C559.776 123.432 560.904 124.536 561.384 125.136L560.232 126.288C559.824 125.784 558.984 124.776 558.24 124.128ZM569.016 126.456L567.792 127.728C567.12 126.96 565.56 125.376 564.336 124.368C563.688 125.592 562.56 126.96 561.192 127.704L560.376 126.336C562.272 125.352 563.592 122.688 563.976 120.144L565.68 120.504C565.56 121.272 565.296 122.232 565.056 122.88C566.4 123.936 568.248 125.616 569.016 126.456ZM595.08 126.672L593.64 127.776C592.752 126.672 590.952 124.608 589.488 123.288C587.304 124.92 584.616 126.672 581.736 127.728L581.064 126.072C585.816 124.56 590.688 120.576 592.944 116.712L594.648 117.504C593.64 119.112 592.224 120.936 590.784 122.184C592.224 123.456 594.192 125.52 595.08 126.672ZM577.224 127.656V116.184L577.2 116.304C576.48 118.704 575.28 121.56 574.392 122.76L573.048 121.536C574.632 119.448 576.408 115.416 577.104 112.344H573.696V110.616H577.224V105.648H579V110.616H581.496V109.128H587.208V105.696H589.056V109.128H594.84V110.832H588.48L588.576 110.904C588.192 111.456 587.76 112.056 587.328 112.656L587.184 112.872C587.16 112.896 587.136 112.92 587.112 112.968L586.968 113.16C586.44 113.904 585.888 114.6 585.384 115.176C586.104 115.776 586.704 116.424 587.304 117C588.672 115.68 590.088 113.904 590.952 112.392L592.608 113.088C590.496 116.616 586.488 120.384 582.408 122.424L581.592 120.888C582.912 120.384 584.688 119.112 586.104 118.08C585 117 583.2 115.488 581.88 114.552L582.984 113.28C583.344 113.544 583.824 113.928 584.184 114.216C585 113.232 585.768 111.84 586.416 110.832H581.592V112.344H579V114.072C579.696 114.888 581.664 117.792 582.096 118.44L580.872 119.88C580.632 119.112 579.672 117.336 579 116.184V127.656H577.224ZM618.024 127.68C617.52 127.728 616.344 127.728 615.12 127.656V126.024C615.816 126.096 616.92 126.144 617.256 126.144C617.616 126.144 617.784 126.048 618 125.856C618.336 125.424 618.744 123.264 618.936 119.232H609.264V106.632H620.208V108.312H615.576V110.232H619.656V111.768H615.576V113.832H619.656V115.368H615.576V117.552H620.688C620.688 117.552 620.688 118.104 620.664 118.344C620.424 123.504 620.04 126.312 619.488 126.96C619.128 127.392 618.624 127.632 618.024 127.68ZM603.192 114H607.728V124.464C607.968 123.816 608.184 123.096 608.4 122.376L608.472 122.112C608.664 121.488 608.832 120.888 609 120.336L610.416 120.672C609.912 122.664 609.168 125.184 608.568 126.552L607.224 125.76C607.32 125.568 607.416 125.328 607.512 125.064L607.536 125.016H601.512V118.344C601.224 119.064 600.72 119.904 600.312 120.48C600.168 120.144 599.496 119.184 599.184 118.848C600.816 116.472 602.04 112.248 602.592 108.48H599.784V106.752H608.448V108.48H604.344C604.32 108.624 604.296 108.792 604.272 108.96L604.224 109.2C604.176 109.536 604.128 109.848 604.056 110.184L604.008 110.424C604.008 110.472 604.008 110.496 603.984 110.544L603.96 110.784C603.912 110.952 603.888 111.096 603.864 111.264L603.816 111.504C603.624 112.368 603.432 113.208 603.192 114ZM610.944 110.232H613.992V108.312H610.944V110.232ZM610.944 113.832H613.992V111.768H610.944V113.832ZM610.944 117.552H613.992V115.368H610.944V117.552ZM603.12 123.264H606.048V115.584H603.12V123.264ZM618.624 122.76L617.52 123.432C617.16 122.688 616.392 121.248 615.888 120.384L616.92 119.928C617.472 120.792 618.288 122.16 618.624 122.76ZM615.912 124.392L614.592 124.776C614.472 123.84 613.968 121.992 613.536 120.888L614.76 120.552C615.24 121.608 615.768 123.432 615.912 124.392ZM613.008 125.496L611.592 125.736C611.64 124.512 611.472 122.376 611.232 121.104L612.552 120.888C612.816 122.184 613.032 124.392 613.008 125.496Z" fill="#381805" fill-opacity="0.7"/>
<path d="M0 133H157L192 70" stroke="#381805"/>
<path d="M622 133H494.993L456 70" stroke="#381805" stroke-opacity="0.7" stroke-dasharray="2 2"/>
</svg>
