<svg width="114" height="114" viewBox="0 0 114 114" fill="none" xmlns="http://www.w3.org/2000/svg">
<g clip-path="url(#clip0_4692_3087)">
<path d="M28.1091 79.9222C28.4918 76.6 28.9234 73.2777 29.2491 69.9472C29.335 69.5413 29.2667 69.1179 29.0574 68.7596C28.8482 68.4013 28.513 68.1338 28.1172 68.0092C26.4432 67.1865 24.7125 66.4845 22.9384 65.9084C21.4157 65.4524 20.9027 64.5648 21.0167 62.9444C21.1551 61.0227 21.2447 59.0928 21.4401 57.1792C21.4848 57.0123 21.4923 56.8376 21.4621 56.6675C21.4319 56.4974 21.3647 56.336 21.2653 56.1946C21.1659 56.0533 21.0367 55.9355 20.8868 55.8496C20.7369 55.7636 20.57 55.7116 20.3978 55.6972C18.4958 55.209 16.6403 54.5551 14.8525 53.743C13.1344 53.0671 12.8819 52.7332 12.9064 50.8522C12.9634 46.5854 13.0611 42.3185 13.1262 38.0598C13.1262 37.4002 13.0529 36.7488 13.0041 36.0892C13.0041 35.5925 13.1995 34.8189 12.1898 35.4215C11.9455 35.5681 11.6361 35.1854 11.5384 34.9085C11.4558 34.6672 11.4498 34.4062 11.5212 34.1613C11.5927 33.9165 11.738 33.6996 11.9374 33.5405C13.0367 32.4901 14.0952 31.4152 15.1945 30.3567C19.5428 26.1142 23.9237 21.9858 28.1417 17.7027C31.1545 14.6247 34.4605 11.8642 37.4652 8.74552C38.5075 7.68695 38.5401 7.93123 39.6231 8.87581C40.9131 9.90599 42.2735 10.8447 43.6945 11.6851C46.8621 13.8592 50.0296 16.0171 53.1809 18.1994C54.3616 19.0137 54.4024 19.8768 53.7346 21.1389C52.3015 23.8179 50.0785 25.9025 48.4825 28.4675C47.9614 29.2818 47.3181 29.7948 48.7187 30.5684C49.7993 31.2176 50.8406 31.93 51.8374 32.7018C54.6467 34.7294 54.7607 35.6495 52.9204 38.6705C50.8521 42.058 48.4092 45.25 47.0087 49.0201C46.8946 49.3051 46.7725 49.582 46.6667 49.8344C46.6338 49.9293 46.6338 50.0326 46.6667 50.1275C46.7969 50.3392 46.9191 50.1275 47.0087 50.0705C47.2202 49.9302 47.4215 49.7751 47.6112 49.6064C51.1452 46.6342 54.6548 43.6295 58.1969 40.7062C59.0112 40.0304 58.9542 39.5907 58.3761 38.8171C57.4671 37.5921 56.6192 36.323 55.8355 35.0144C54.9317 33.5242 55.1596 32.6448 56.4381 31.4315C57.7165 30.2182 59.1252 28.7281 60.5095 27.3601C61.5681 26.2934 61.7961 26.383 62.9524 27.295C64.9474 28.8177 66.4294 30.886 68.4325 32.3517C69.3282 33.0031 70.2321 33.5079 70.5334 34.6968C70.7219 35.4981 70.7441 36.3295 70.5985 37.1397C70.1018 40.6248 70.4845 44.1425 70.2239 47.6358C70.1588 48.5315 70.6229 49.4598 70.5985 50.4207C70.5985 51.0477 71.1441 50.9988 71.5919 51.1128C76.2517 52.2106 80.3104 55.0593 82.9268 59.0684C84.4655 61.3176 85.5106 63.867 85.9933 66.549C86.4761 69.231 86.3857 71.9848 85.7279 74.6294C85.312 76.4015 84.6254 78.0988 83.6922 79.6617C83.5131 79.963 83.1955 80.4027 83.4398 80.6388C84.6612 81.8358 84.9055 83.9774 87.0227 84.3275C87.5066 84.4658 87.936 84.7502 88.2522 85.1418C92.7796 89.8077 97.3478 94.4247 101.883 99.0824C102.315 99.5465 102.629 100.108 102.796 100.72C102.964 101.331 102.98 101.974 102.845 102.594C102.71 103.213 102.427 103.791 102.019 104.277C101.612 104.763 101.093 105.143 100.507 105.385C98.7809 106.036 97.3396 105.133 96.2241 104.025C93.1379 100.963 90.0355 97.9017 87.0959 94.6934C85.5569 93.016 83.8388 91.5095 82.2102 89.9217C81.9252 89.6448 81.4774 89.4168 81.5832 88.9527C81.9985 87.145 80.3374 86.5668 79.5312 85.492C79.1566 84.979 78.7169 85.492 78.4075 85.7444C76.7826 87.0112 74.9389 87.969 72.9681 88.5699C72.0317 88.8387 71.1685 89.4331 70.1588 89.4738C69.5237 89.4738 69.6458 89.9217 69.7109 90.1904C70.8428 94.6445 70.1262 99.2697 71.0056 103.748C71.0383 104.155 70.9574 104.563 70.7719 104.927C70.5865 105.291 70.3037 105.596 69.9552 105.808C69.4178 106.264 68.9618 105.808 68.5628 105.336C68.1638 104.864 67.5857 105.043 67.1297 105.043L18.9891 104.497C17.7677 104.497 16.5462 104.497 15.3329 104.408C13.5985 104.229 13.0285 103.366 13.0285 101.68C13.0937 98.2762 12.6947 94.897 12.4911 91.5014C12.0351 83.6435 11.5302 75.7938 11.0579 67.936C11.0475 67.5421 11.0998 67.149 11.2127 66.7715C11.3185 66.3969 11.4081 65.9572 11.9455 65.9572C12.4829 65.9572 12.5562 66.2504 12.7598 66.568C14.0708 68.8479 16.1309 70.5742 17.4827 72.8298C17.5568 72.96 17.6562 73.074 17.775 73.1652C17.8938 73.2564 18.0297 73.3229 18.1746 73.3608C18.3195 73.3988 18.4705 73.4074 18.6188 73.3861C18.767 73.3648 18.9095 73.3141 19.0379 73.237C20.4955 72.6588 22.0182 72.2435 23.5247 71.812C25.1532 71.3478 25.6174 71.584 26.1059 73.2858C26.7411 75.517 27.2704 77.7807 27.8485 80.0362L28.1091 79.9222ZM14.3232 86.5017C14.6327 91.3874 14.9828 96.2731 15.2189 101.102C15.2759 102.217 15.6994 102.397 16.6928 102.397C21.3668 102.397 26.0408 102.445 30.7066 102.478H31.7571C32.1398 102.478 32.3352 102.348 32.1887 101.932C31.1545 98.9032 31.4558 95.809 31.8548 92.7391C32.2945 89.3761 33.1902 86.1515 35.4539 83.497C37.8968 80.6714 41.0481 80.5411 43.6864 83.098C45.1202 84.5499 46.2036 86.3101 46.8539 88.2442C48.3387 92.4168 48.8945 96.8632 48.4825 101.273C48.4011 102.307 48.6209 102.69 49.7365 102.69C55.6319 102.69 61.5247 102.741 67.4146 102.844C68.3592 102.844 68.6361 102.584 68.5709 101.639C68.3348 97.9912 68.3429 94.3107 68.0172 90.679C67.9277 89.6692 67.6345 89.4738 66.6818 89.4331C58.2132 89.0748 52.0247 85.093 48.7675 77.2188C45.5104 69.3447 47.3751 62.2685 53.0751 56.1777C56.7638 52.2284 61.5029 50.4777 66.9179 50.4288C67.7892 50.4288 68.0091 50.3067 68.0742 49.3051C68.3429 44.8998 67.9277 40.4538 68.7419 36.0811C68.8152 35.6821 68.9292 35.2668 68.4651 35.0062C66.2258 33.5487 64.5402 31.4804 62.6429 29.6482C61.9915 29.0212 61.6251 29.1597 61.0795 29.7785C60.2169 30.7755 59.2835 31.7089 58.2865 32.5715C57.6107 33.1497 57.6839 33.5975 58.0911 34.2001C58.9731 35.7693 59.9692 37.2716 61.0714 38.695C62.1055 39.9164 62.0729 40.4619 60.8352 41.4798C56.1938 45.3124 51.5307 49.1504 46.8458 52.9938C46.3311 53.4003 45.7867 53.7678 45.2172 54.0931C44.9914 54.3053 44.6951 54.4264 44.3853 54.4331C44.0756 54.4397 43.7743 54.3315 43.5396 54.1292C43.3049 53.9268 43.1534 53.6448 43.1144 53.3374C43.0753 53.0301 43.1515 52.7191 43.3281 52.4645C44.6472 49.3947 45.6814 46.1864 47.4728 43.3282C48.8082 41.1704 50.1274 38.9962 51.5442 36.8872C51.6893 36.7468 51.7973 36.5727 51.8586 36.3803C51.9199 36.188 51.9326 35.9834 51.8955 35.785C51.8584 35.5865 51.7727 35.4004 51.646 35.2431C51.5193 35.0859 51.3557 34.9626 51.1697 34.8841C49.7039 33.8907 48.2301 32.8972 46.8051 31.8387C45.1277 30.5847 45.0218 29.8844 46.1781 28.1337C47.7667 25.7109 49.5827 23.4451 51.6012 21.367C52.3097 20.6341 52.3015 20.2839 51.4465 19.6814C47.3751 16.8232 43.2467 14.0384 39.3462 10.9522C38.5319 10.3415 38.2795 10.8952 37.8724 11.2779C30.5058 18.3351 23.1365 25.3922 15.7645 32.4494C15.5495 32.6204 15.3767 32.8387 15.2595 33.0872C15.1423 33.3357 15.0839 33.6078 15.0887 33.8825C15.2597 39.265 15.0887 44.6474 14.9584 50.0298C14.912 50.3992 15.0072 50.7724 15.2247 51.0745C15.4422 51.3766 15.7659 51.5852 16.1309 51.6584C17.9476 52.4449 19.8202 53.0954 21.7332 53.6045C22.0104 53.6384 22.2779 53.7275 22.5199 53.8667C22.7619 54.0059 22.9735 54.1923 23.1421 54.4148C23.3107 54.6374 23.4329 54.8915 23.5014 55.1621C23.5699 55.4328 23.5833 55.7144 23.5409 55.9904C23.5409 58.0736 23.4349 60.1554 23.2234 62.2278C23.1338 62.9281 23.1745 63.5307 24.0377 63.7424C25.8289 64.3043 27.5586 65.0464 29.2002 65.9572C31.2522 66.91 31.5047 67.252 31.3906 69.5482C31.3906 70.0531 31.3092 70.5579 31.2522 71.0628C30.7474 75.5577 30.2344 80.02 29.4689 84.4985C29.3142 85.378 29.6318 86.7052 28.2475 86.7704C26.8632 86.8355 26.8714 85.492 26.6189 84.5555C25.8752 81.3852 25.1451 78.1715 24.4285 74.9144C24.2331 74.0512 23.9318 73.7174 22.9709 74.1001C21.5622 74.6619 20.0721 75.0121 18.6471 75.5414C18.2136 75.7479 17.717 75.7784 17.2615 75.6266C16.8061 75.4747 16.4271 75.1524 16.2042 74.7271C15.5935 73.7988 14.9339 72.895 14.2662 71.9992C14.0708 71.7305 13.8835 71.185 13.5171 71.3804C13.1507 71.5758 13.4194 72.0074 13.4438 72.3412C13.7098 77.0695 14.0029 81.7897 14.3232 86.5017ZM66.7306 87.316C69.0389 87.373 71.3353 86.9686 73.4852 86.1264C75.635 85.2843 77.5951 84.0213 79.2505 82.4117C80.9059 80.802 82.2232 78.878 83.1252 76.7525C84.0272 74.6271 84.4957 72.3429 84.5033 70.034C84.5109 67.725 84.0574 65.4378 83.1694 63.3065C82.2814 61.1751 80.9767 59.2425 79.332 57.622C77.6872 56.0015 75.7355 54.7257 73.5912 53.8694C71.4469 53.0132 69.1532 52.5937 66.8446 52.6355C57.4071 52.6844 49.5574 59.5651 49.4352 69.9391C49.4277 72.2186 49.8709 74.4771 50.7392 76.5847C51.6076 78.6923 52.884 80.6075 54.4951 82.2201C56.1062 83.8327 58.0202 85.1109 60.127 85.9813C62.2338 86.8516 64.4919 87.2969 66.7714 87.2915L66.7306 87.316ZM40.0302 102.511V102.6C41.7484 102.6 43.4747 102.6 45.2009 102.6C45.9175 102.6 46.3328 102.454 46.3979 101.639C46.7725 96.493 46.3002 91.5014 43.9062 86.8355C43.4037 85.7785 42.6722 84.8467 41.7647 84.1077C41.1939 83.5842 40.4439 83.2999 39.6695 83.3136C38.8952 83.3272 38.1556 83.6377 37.6037 84.1809C36.7254 84.9547 36.0348 85.9181 35.5842 86.9984C33.4997 91.6317 33.2635 96.493 33.7114 101.46C33.7765 102.274 34.0941 102.486 34.8514 102.47C36.5777 102.478 38.2714 102.511 40.0302 102.511ZM99.4161 103.325C99.7194 103.36 100.025 103.285 100.279 103.115C100.532 102.945 100.717 102.69 100.8 102.397C100.978 102.067 101.038 101.687 100.968 101.319C100.898 100.951 100.704 100.618 100.418 100.377C96.4277 96.3057 92.4865 92.2342 88.5372 88.1628C86.6399 86.2085 86.6318 86.2085 84.8729 88.2931C84.4495 88.7898 84.4414 89.0504 84.8729 89.5145C89.1832 93.8574 93.4745 98.2301 97.7468 102.633C97.9556 102.866 98.2137 103.05 98.5025 103.171C98.7912 103.292 99.1033 103.347 99.4161 103.333V103.325Z" fill="#381805"/>
<path d="M67.0897 84.6858C58.5723 84.6858 51.3007 77.8458 51.5368 69.6134C51.773 61.3809 57.0007 55.2005 66.2754 55.0132C68.2999 54.9874 70.3096 55.3613 72.1893 56.1135C74.069 56.8657 75.7818 57.9814 77.2297 59.3967C78.6775 60.812 79.8318 62.499 80.6265 64.3611C81.4212 66.2233 81.8407 68.224 81.8608 70.2485C81.8536 72.1706 81.4642 74.0721 80.7152 75.8423C79.9661 77.6125 78.8725 79.2161 77.4979 80.5596C76.1232 81.9032 74.4951 82.9599 72.7083 83.6683C70.9214 84.3766 69.0115 84.7225 67.0897 84.6858ZM79.7356 70.2159C79.6746 67.1464 78.5656 64.1901 76.5926 61.8379C74.6196 59.4857 71.9014 57.8792 68.8893 57.2851C61.0721 55.5832 52.7176 61.9591 53.6051 70.0938C54.1751 75.3459 56.7646 79.1568 61.52 81.3391C70.1188 85.2965 79.7356 79.3766 79.7356 70.2159Z" fill="#381805"/>
<path d="M63.0669 66.6655C62.9911 64.958 63.2683 63.2532 63.8812 61.6576C64.1353 60.9316 64.6053 60.3006 65.2283 59.8494C65.8512 59.3982 66.5973 59.1483 67.3664 59.1334C68.1346 59.1075 68.8905 59.3317 69.5204 59.7722C70.1504 60.2127 70.6203 60.8457 70.8597 61.5762C72.0837 64.4172 72.1941 67.6147 71.1691 70.5334C70.6206 72.0324 69.5069 73.2571 68.0667 73.9452C66.5602 74.7595 65.4528 74.4419 64.5327 73.0332C63.2461 71.0789 63.2054 68.8152 63.0669 66.6655ZM65.1434 66.6085C65.1348 67.7239 65.2412 68.8372 65.4609 69.9308C65.6564 70.7451 65.6401 71.9258 66.5684 72.1049C67.4967 72.2841 68.2458 71.3395 68.8158 70.5496C69.0212 70.2611 69.1805 69.9425 69.2881 69.6051C69.9704 67.2964 69.876 64.8276 69.0194 62.5778C68.9399 62.1998 68.7365 61.8592 68.4415 61.6099C68.1465 61.3606 67.7767 61.217 67.3908 61.2016C66.5195 61.2016 66.0635 61.8286 65.7622 62.5696C65.2808 63.8592 65.0702 65.234 65.1434 66.6085Z" fill="#381805"/>
<path d="M71.0132 78.5543C71.0132 80.4841 69.3846 81.8114 67.1372 81.7218C66.3646 81.6921 65.6352 81.3576 65.1087 80.7914C64.5822 80.2252 64.3015 79.4735 64.3279 78.7008C64.3279 77.1781 66.4369 75.4437 68.1713 75.4437C68.5686 75.4406 68.9621 75.5212 69.3263 75.6801C69.6904 75.839 70.0171 76.0727 70.2851 76.366C70.5531 76.6593 70.7564 77.0057 70.8818 77.3827C71.0072 77.7597 71.052 78.1588 71.0132 78.5543ZM68.9775 78.5543C68.9888 78.4115 68.9702 78.2678 68.9227 78.1327C68.8753 77.9975 68.8 77.8738 68.7018 77.7695C68.6036 77.6651 68.4847 77.5825 68.3527 77.527C68.2206 77.4714 68.0784 77.4441 67.9352 77.4468C67.5584 77.4573 67.1985 77.6057 66.9238 77.8638C66.6492 78.122 66.4788 78.472 66.445 78.8474C66.441 78.9738 66.4665 79.0995 66.5194 79.2144C66.5724 79.3292 66.6514 79.4302 66.7502 79.5092C66.849 79.5882 66.9648 79.6432 67.0885 79.6696C67.2122 79.6961 67.3404 79.6934 67.4629 79.6617C68.1713 79.5395 68.896 79.4093 68.9775 78.5135V78.5543Z" fill="#381805"/>
</g>
<defs>
<clipPath id="clip0_4692_3087">
<rect width="114" height="114" fill="white"/>
</clipPath>
</defs>
</svg>
