<svg width="114" height="114" viewBox="0 0 114 114" fill="none" xmlns="http://www.w3.org/2000/svg">
<g clip-path="url(#clip0_4692_3044)">
<path d="M99.7345 68.7175C99.7345 75.2318 99.7345 81.8276 99.7345 88.3826C99.7345 89.5796 99.995 90.06 101.282 89.9704C102.983 89.8564 104.71 89.9216 106.428 89.9053H107.364C108.179 89.9053 108.993 90.06 108.944 90.9801C108.895 91.9003 108.13 91.9573 107.429 91.9654C105.801 91.9654 104.107 92.0631 102.438 92.0875C99.1075 92.1364 95.7852 92.2097 92.4548 92.1853C91.3717 92.1853 90.9972 92.4703 91.0623 93.5858C91.2822 97.2746 91.4206 100.963 91.5916 104.652C91.5916 105.23 91.6975 105.922 91.0786 106.15C90.8056 106.237 90.511 106.225 90.246 106.116C89.9811 106.007 89.7628 105.809 89.6292 105.556C88.0006 103.113 85.3786 102.006 82.7485 101.224C78.9376 100.092 74.9965 99.123 70.982 99.7826C67.9122 100.287 64.712 100.54 62.0249 102.372C61.3816 102.804 60.608 103.129 61.2106 104.155C61.3735 104.44 61.2106 104.766 60.9663 104.97C60.5592 105.409 57.9616 105.499 57.758 104.97C57.0822 103.268 55.4129 103.235 54.1182 102.861C47.897 101.037 41.5863 100.581 35.2675 102.445C33.2399 103.04 31.196 103.634 29.5105 105.027C29.3069 105.189 29.144 105.401 28.9405 105.564C28.4275 105.955 28.3379 107.193 27.4096 106.688C26.9837 106.458 26.6256 106.121 26.3712 105.709C26.1168 105.297 25.975 104.826 25.9602 104.343C25.8869 101.639 25.7566 98.9357 25.7647 96.1997C25.7647 94.9864 25.4797 94.4816 24.1362 94.4653C18.884 94.4001 13.6319 94.2128 8.37975 94.0581C7.65503 94.0581 6.93032 93.9604 6.2056 93.9116C5.61932 93.8708 5.1796 93.651 5.15518 92.9995C5.13075 92.3481 5.61932 92.112 6.17303 92.0875C7.46775 92.0305 8.7706 91.9491 10.0653 92.0143C11.1157 92.0631 11.3845 91.6886 11.3519 90.6788C11.1646 83.3014 11.018 75.9158 10.8633 68.5303C10.7347 66.359 10.7755 64.1809 10.9855 62.016C11.0913 61.2506 10.9855 60.135 12.4512 61.0226C12.899 61.2913 13.7296 60.9004 14.3892 60.8841C17.3532 60.8271 20.3172 60.7945 23.2812 60.7538C25.724 60.7538 25.6833 60.7538 25.724 58.3843C25.8136 49.647 25.8462 40.9097 26.0172 32.1724C26.1067 27.5798 25.724 28.0358 30.284 27.7834C35.1697 27.5228 40.0555 27.5065 44.9412 27.3844C46.5697 27.3844 46.5697 27.3844 46.5697 25.6337V11.5873C46.5697 10.8544 46.5697 10.1215 46.6349 9.40498C46.8466 7.2064 48.1413 6.53055 50.12 7.57283C53.9309 9.58412 57.7173 11.6443 61.5689 13.5904C65.7299 15.6831 69.7769 17.9957 73.9379 20.1047C76.4459 21.375 78.9783 22.6697 81.4049 24.1273C81.8769 24.4079 82.264 24.8114 82.525 25.2946C82.786 25.7778 82.911 26.3227 82.8869 26.8714C82.8543 32.0177 82.6752 37.1613 82.3495 42.3021C82.3495 42.5627 82.2762 42.8151 82.2355 43.0675C82.0726 44.1017 82.4065 44.5251 83.5546 44.5088C88.0332 44.4437 92.5117 44.5088 96.9822 44.5088C99.6042 44.5088 99.8566 44.9893 100.101 47.196C100.402 49.8994 100.223 52.5865 100.256 55.2737C100.304 59.7523 100.256 64.2308 100.256 68.6931L99.7345 68.7175ZM97.5033 68.2371H97.772C97.9349 61.4704 98.0652 54.7118 98.285 47.9533C98.285 46.8295 97.9186 46.6667 96.974 46.6748C90.6796 46.6748 84.3852 46.7318 78.0908 46.6748C76.9833 46.6748 76.8205 47.0575 76.8612 48.0184C76.9263 50.046 76.91 52.0898 76.8612 54.1011C76.8612 54.8503 76.6902 55.6645 75.7049 55.632C74.7196 55.5994 74.6463 54.891 74.6463 54.1744C74.6463 51.7804 74.7033 49.3946 74.7033 47.0005C74.7033 45.6163 75.8433 44.802 77.1055 44.6065C77.619 44.517 78.1426 44.5006 78.6607 44.5577C79.817 44.7043 80.159 44.2483 80.1916 43.1001C80.3382 37.8453 80.5445 32.5958 80.8105 27.3518C80.8593 26.3747 80.3219 26.0978 79.6786 25.7233C69.6846 20.4141 59.6825 15.0968 49.6722 9.7714C48.9393 9.38055 48.5973 9.26655 48.6136 10.3333C48.6706 15.5854 48.7113 20.8457 48.6787 26.0978C48.6787 27.189 49.0777 27.417 50.0467 27.3437C51.3903 27.2378 52.7502 27.2378 54.1182 27.2053C54.9325 27.2053 55.6002 27.3925 55.6246 28.3615C55.6246 30.2833 55.7142 32.1968 55.6979 34.1104C55.649 42.8558 55.649 51.5931 55.4699 60.3304C55.4292 62.1788 56.7076 62.9361 57.701 63.7993C58.271 64.296 58.898 62.985 59.5332 62.5453C60.5009 61.8458 61.5128 61.2093 62.5623 60.6398C67.1286 58.3009 72.2358 57.2216 77.3579 57.513C80.9688 57.5793 84.4967 58.6081 87.5772 60.4933C88.2576 60.8765 88.8242 61.4335 89.219 62.1073C89.6138 62.7811 89.8228 63.5476 89.8246 64.3285C89.8246 66.2991 90.0282 68.2697 90.1096 70.2484C90.362 76.3311 90.5982 82.4138 90.8506 88.4884C90.9157 90.117 90.932 90.117 92.6339 90.117L95.5979 90.06C97.4707 90.06 97.4952 90.06 97.5033 88.2278C97.5142 81.5561 97.5142 74.8926 97.5033 68.2371ZM27.605 82.9594V83.8714C27.7353 90.0003 27.8656 96.1346 27.9959 102.274C27.9959 102.608 27.8167 103.089 28.2239 103.243C28.631 103.398 28.745 102.983 29.0382 102.812C30.1255 102.099 31.2959 101.522 32.5233 101.094C40.1464 98.4043 48.4554 98.3756 56.0969 101.012C57.6522 101.525 57.644 101.558 57.644 99.9291L57.6929 71.2174C57.8004 69.6781 57.4791 68.1391 56.7646 66.7714C55.5816 64.5785 53.6857 62.855 51.3903 61.8857C47.2584 60.1024 42.7635 59.3211 38.2722 59.6057C34.6694 59.6881 31.1327 60.5904 27.9307 62.244C27.605 62.3811 27.3326 62.6205 27.1549 62.9261C26.9771 63.2316 26.9036 63.5867 26.9455 63.9377C27.2305 70.281 27.4096 76.6243 27.605 82.9594ZM88.4566 82.6418C88.253 77.0314 87.8459 71.4128 87.9192 65.8106C87.9192 63.3677 86.8525 62.3661 85.0366 61.503C83.9984 60.9909 82.9058 60.5975 81.7795 60.3304C75.2409 58.767 68.3521 59.7603 62.5216 63.1071C61.3487 63.7982 60.2563 64.6175 59.2645 65.55C58.9632 65.8268 58.5397 66.0956 58.9387 66.5678C59.753 67.545 59.5902 68.742 59.6227 69.825C59.8589 79.6534 59.7042 89.4818 59.7367 99.3103C59.7367 99.6685 59.7367 100.035 59.7367 100.401C59.7367 101.094 59.8263 101.46 60.551 100.857C61.4772 100.095 62.5377 99.5123 63.6779 99.1393C67.6136 97.7546 71.794 97.2025 75.9542 97.5179C80.1145 97.8333 84.1639 99.0093 87.8459 100.971C88.2449 101.175 88.6032 101.786 89.0592 101.452C89.3849 101.24 89.1732 100.638 89.1569 100.263C88.9289 94.3893 88.6955 88.5155 88.4566 82.6418ZM53.369 44.973H53.6459C53.6459 40.299 53.6459 35.625 53.6459 30.9428C53.6459 29.7784 53.426 29.3143 52.115 29.3794C44.4282 29.64 36.7413 29.811 29.0463 29.9657C28.232 29.9657 27.8982 30.1367 27.8982 31.065C27.8982 40.2935 27.871 49.4923 27.8167 58.6611C27.8167 59.5487 27.89 59.8418 28.916 59.4754C36.3654 56.5768 44.6504 56.6907 52.0173 59.793C53.3202 60.3141 53.3365 60.3385 53.3365 58.881C53.3636 54.2341 53.3745 49.5981 53.369 44.973ZM25.5937 77.7805H25.1459C25.1459 73.2613 25.1459 68.742 25.1459 64.2227C25.1459 63.1804 24.8039 62.8791 23.786 62.9117C20.3606 63.0257 16.9325 63.0881 13.5016 63.099C12.6873 63.099 12.6873 63.498 12.728 64.0598C12.9805 73.017 13.2329 82.0311 13.4365 91.0127C13.4365 91.884 13.7052 92.169 14.5765 92.1853C17.8336 92.1853 21.0175 92.283 24.2339 92.4296C25.382 92.4865 25.61 92.0875 25.5937 91.029C25.5612 86.6155 25.5937 82.2428 25.5937 77.7805Z" fill="#381805"/>
<path d="M74.8077 37.6771V40.4864C74.8077 41.1785 74.6041 41.773 73.798 41.773C73.6527 41.7767 73.5082 41.7501 73.3738 41.6947C73.2394 41.6393 73.1181 41.5564 73.0176 41.4514C72.9172 41.3463 72.8398 41.2214 72.7905 41.0847C72.7411 40.9479 72.721 40.8024 72.7312 40.6574C72.6417 37.8563 72.5602 35.0551 72.5195 32.254C72.5195 31.6758 72.7475 31.0407 73.456 31.0325C74.1644 31.0244 74.3435 31.6758 74.4168 32.2458C74.665 34.0458 74.7956 35.8601 74.8077 37.6771Z" fill="#381805"/>
<path d="M67.1301 31.1709C67.1301 32.0992 67.1301 33.0356 67.1301 33.9639C67.0894 34.5746 67.0161 35.3075 66.1692 35.3156C65.8805 35.3051 65.6071 35.1829 65.4066 34.9748C65.2061 34.7667 65.0942 34.489 65.0944 34.2C64.8675 32.1401 64.9141 30.0592 65.2328 28.0115C65.2376 27.8804 65.2694 27.7517 65.3262 27.6335C65.383 27.5153 65.4637 27.4101 65.563 27.3244C65.6624 27.2388 65.7784 27.1746 65.9037 27.1359C66.0291 27.0972 66.161 27.0848 66.2914 27.0995C66.8777 27.1565 67.0568 27.6288 67.1057 28.101C67.1464 29.1352 67.1057 30.1775 67.1057 31.2116L67.1301 31.1709Z" fill="#381805"/>
<path d="M41.1792 79.2218C44.8435 79.1811 47.5388 79.6045 50.0712 80.8504C51.077 81.284 51.9445 81.9853 52.5792 82.8779C52.6783 82.9832 52.7556 83.107 52.8067 83.2421C52.8579 83.3773 52.8819 83.5213 52.8773 83.6657C52.8728 83.8102 52.8398 83.9523 52.7803 84.084C52.7207 84.2157 52.6358 84.3344 52.5304 84.4332C52.4285 84.537 52.3045 84.6165 52.1677 84.6659C52.0308 84.7152 51.8846 84.7331 51.7399 84.7183C51.5952 84.7034 51.4557 84.6562 51.3318 84.58C51.2079 84.5039 51.1026 84.4009 51.0239 84.2785C48.9475 81.8845 46.0731 81.6321 43.2231 81.3715C40.3108 81.1735 37.3903 81.6125 34.6649 82.6581C34.1194 82.8535 33.3051 83.3665 32.9712 82.7639C32.5478 81.9497 33.3784 81.4448 33.9728 81.0702C36.1613 79.808 38.6534 79.1688 41.1792 79.2218Z" fill="#381805"/>
<path d="M39.835 67.9114C43.3905 68.0807 46.815 69.3054 49.6715 71.4292C50.3392 71.9096 51.3001 72.4552 50.6242 73.3997C49.9484 74.3443 49.1748 73.644 48.4908 73.1636C45.8466 71.2153 42.6702 70.1214 39.3871 70.0286C38.374 69.9439 37.3545 70.0751 36.3959 70.4133C35.4372 70.7516 34.5611 71.2893 33.8255 71.991C33.451 72.3656 33.0112 72.8053 32.482 72.3819C31.9527 71.9584 32.254 71.4292 32.482 70.9569C32.9982 69.982 33.8394 69.2185 34.8597 68.799C36.4264 68.1199 38.1301 67.816 39.835 67.9114Z" fill="#381805"/>
<path d="M83.2454 81.8031C83.2619 81.9837 83.2252 82.1653 83.1397 82.3252C83.0542 82.4852 82.9236 82.6167 82.7643 82.7033C82.6049 82.7899 82.4236 82.828 82.2428 82.8127C82.062 82.7974 81.8897 82.7295 81.7471 82.6173C76.2344 78.5459 71.0963 80.6061 65.9907 83.4968C65.8115 83.5945 65.6405 83.7248 65.4614 83.8225C65.0461 84.0668 64.5575 84.3111 64.1993 83.8713C63.841 83.4316 64.1423 82.9838 64.411 82.5929C64.8926 81.9233 65.5152 81.3674 66.235 80.9643C70.066 78.5727 74.6797 77.7721 79.0925 78.7332C80.3761 78.9811 81.564 79.5849 82.5207 80.4758C82.7267 80.6348 82.8976 80.8349 83.0223 81.0634C83.147 81.2918 83.223 81.5437 83.2454 81.8031Z" fill="#381805"/>
<path d="M76.8938 68.0825C78.3502 67.9865 79.8116 68.166 81.2014 68.6118C81.8854 68.8724 82.4635 69.2877 82.1785 70.1182C81.8935 70.9488 81.2258 70.7208 80.5988 70.615C78.0476 70.1099 75.4213 70.119 72.8737 70.642C70.326 71.1649 67.9085 72.1911 65.7625 73.6604C65.4124 73.8965 65.0867 74.2467 64.6551 73.9291C64.4715 73.7779 64.3471 73.5668 64.3039 73.3329C64.2607 73.0991 64.3015 72.8574 64.419 72.6507C64.8601 71.7523 65.6167 71.0479 66.5442 70.672C69.7671 69.0729 73.2976 68.1896 76.8938 68.0825Z" fill="#381805"/>
<path d="M34.6406 38.4994C34.7139 37.8561 34.5022 36.9197 35.6666 36.8708C36.3995 36.8708 37.1893 37.962 37.0998 38.988C37.0265 39.8023 36.9939 40.7468 35.9191 40.926C35.1455 41.0318 34.6651 40.1117 34.6406 38.4994Z" fill="#381805"/>
<path d="M35.3809 49.7285C35.4623 48.9142 35.3809 48.0185 36.3499 47.9534C37.3189 47.8882 37.3107 48.7677 37.4329 49.4028C37.498 49.7611 37.5469 50.1194 37.5876 50.4777C37.6446 51.0558 37.7341 51.7154 36.985 51.8701C36.2359 52.0248 35.845 51.4874 35.6333 50.8604C35.5212 50.4899 35.4368 50.1115 35.3809 49.7285Z" fill="#381805"/>
<path d="M45.8192 38.6378C45.5016 39.452 45.8762 40.7956 44.6141 40.8526C43.3519 40.9096 43.4822 39.737 43.4415 38.8739C43.4008 38.0108 43.5473 37.0499 44.5733 36.9766C45.5993 36.9033 45.6645 37.8642 45.8192 38.6378Z" fill="#381805"/>
<path d="M44.5254 49.8098C44.6394 49.2154 44.4277 48.4825 45.2257 48.3929C46.0237 48.3034 46.1702 48.9059 46.3412 49.4678C46.5872 50.0971 46.6493 50.7833 46.5204 51.4465C46.4064 51.8944 46.3005 52.4074 45.7061 52.4562C45.1117 52.5051 44.8918 52.0165 44.7778 51.5849C44.657 50.999 44.5727 50.4062 44.5254 49.8098Z" fill="#381805"/>
</g>
<defs>
<clipPath id="clip0_4692_3044">
<rect width="114" height="114" fill="white"/>
</clipPath>
</defs>
</svg>
