<svg width="114" height="114" viewBox="0 0 114 114" fill="none" xmlns="http://www.w3.org/2000/svg">
<g clip-path="url(#clip0_4692_3072)">
<path d="M99.0995 81.0134C98.3557 78.4858 97.2912 76.064 95.9319 73.8069C94.3034 71.1361 91.7628 69.6541 89.2059 68.2209C86.9937 67.1001 84.6107 66.3544 82.1542 66.0142C80.2637 65.6097 78.3149 65.5572 76.4054 65.8595C70.4448 66.9588 65.3881 69.5075 61.8867 74.6864C61.2678 75.5984 60.6326 76.5185 60.0301 77.4386C59.8927 77.6486 59.6996 77.8162 59.4723 77.9226C59.2451 78.029 58.9928 78.0701 58.7435 78.0412C58.2712 77.9109 58.3364 77.2269 58.4422 76.7709C58.7423 75.5998 59.2588 74.4951 59.9649 73.5138C63.9631 67.5858 69.6549 64.4019 76.6822 63.5144C77.8629 63.3678 78.1886 63.0746 78.1886 61.8858C78.1886 56.7314 78.2782 51.5769 78.4166 46.4144C78.4166 45.3476 78.1642 45.0952 77.0894 45.0138C69.6631 44.4926 62.2368 45.0138 54.8105 45.0952C53.0354 45.0952 53.0435 45.1604 53.1005 46.9111L54.1021 79.1161C54.1021 79.8571 54.0451 80.5329 54.9164 81.0866C55.7877 81.6404 55.4619 82.4546 54.5499 82.8129C54.1435 82.9524 53.7175 83.0266 53.2878 83.0328C43.4268 83.5051 33.5577 83.9366 23.7048 84.4659C19.9754 84.6614 16.2297 84.5881 12.5084 85.0278C11.4905 85.1499 11.2055 84.4415 11.1567 83.6028C11.0508 81.7055 10.9612 79.8082 10.8717 77.9028C10.0628 61.2534 9.26208 44.5714 8.46951 27.8568C8.46951 27.4659 8.66494 27.0425 8.14379 26.7005C7.04451 26.0328 7.40279 25.3651 8.14379 24.6078C11.8651 20.7481 15.3909 16.6685 19.3321 13.0368C22.1821 10.4066 24.5516 7.33678 27.6134 4.89392C28.6394 4.07964 29.0384 4.29135 29.9585 5.04864C36.5135 10.5288 42.3438 16.8151 48.8092 22.3278C51.5859 24.6811 52.5468 27.3845 52.5794 30.7719C52.6201 34.4036 52.8318 38.0354 52.9051 41.6671C52.9051 42.6849 53.1575 43.0432 54.2975 42.9862C59.0611 42.7745 63.8409 42.7256 68.6045 42.5465C71.7639 42.4162 74.8745 42.9129 77.9932 43.1084C80.4361 43.2631 80.4361 43.5644 80.4361 45.8444C80.5257 50.9906 80.4361 56.1451 80.4361 61.3158C80.4361 63.2782 80.4361 63.2538 82.3171 63.5144C86.6735 64.0255 90.8014 65.7398 94.2382 68.4652C97.9241 71.4035 100.451 75.5516 101.371 80.1746C101.453 80.5899 101.371 81.2821 101.77 81.3146C102.169 81.3472 102.406 80.6062 102.495 80.1991C102.863 78.6539 103.482 77.1795 104.327 75.8345C104.653 75.2726 105.036 74.8166 105.736 75.0202C105.898 75.0607 106.048 75.1372 106.176 75.244C106.304 75.3508 106.407 75.4852 106.476 75.637C106.545 75.7889 106.578 75.9544 106.574 76.1211C106.57 76.2879 106.529 76.4515 106.452 76.5999C105.369 79.0428 104.588 81.6566 103.195 83.9855C102.951 84.4586 102.532 84.8174 102.026 84.9848C101.521 85.1522 100.97 85.115 100.492 84.8812C97.6256 83.8959 94.7919 82.9106 91.8524 82.0638C91.1521 81.8602 91.1846 81.4531 91.1358 81.0378C91.0625 80.4678 91.4208 80.1421 91.9501 80.0281C92.9169 79.878 93.906 79.976 94.8245 80.3131C96.0194 80.8187 97.2639 81.1981 98.5377 81.4449C99.0588 81.6729 99.2298 81.5264 99.0995 81.0134ZM51.0566 53.8651H50.9752C50.7798 45.4128 50.5599 36.9524 50.4134 28.4919C50.4367 27.9908 50.3463 27.4909 50.1488 27.0298C49.9514 26.5686 49.6521 26.1582 49.2734 25.8292C42.5881 19.6406 35.8295 13.5091 29.3641 7.10064C28.8511 6.59578 28.5498 6.39221 27.9879 7.04364C22.4834 13.0286 16.7101 18.7775 11.0345 24.5996C10.815 24.7923 10.6449 25.0349 10.5386 25.3069C10.4324 25.579 10.393 25.8726 10.4238 26.1631C11.1729 35.1202 11.4417 44.1343 11.8977 53.1241C12.3781 62.4965 12.8097 71.8526 13.2657 81.2413C13.3064 82.0556 13.1272 82.7804 14.5034 82.7071C26.4137 82.0556 38.3294 81.4666 50.2505 80.9401C51.5208 80.8831 51.8791 80.5166 51.8221 79.2382C51.5126 70.7778 51.3009 62.3255 51.0322 53.8651H51.0566Z" fill="#381805"/>
<path d="M78.7416 109.619C76.8844 109.589 75.0393 109.315 73.2533 108.805C69.3773 107.795 65.6804 106.427 62.7083 103.577C59.5896 100.572 56.4301 97.6165 54.9237 93.3822C54.826 93.1135 54.9237 92.5679 54.6306 92.5679C54.3374 92.5679 53.9791 92.9751 53.8163 93.2845C52.9597 94.8252 52.2978 96.4664 51.8457 98.1702C51.6666 98.9845 51.4386 99.5464 50.5591 99.3917C49.6797 99.2369 49.6146 98.5285 49.7448 97.8608C49.8512 96.7035 50.1255 95.5679 50.5591 94.4897C51.5267 92.2986 52.7455 90.2273 54.1908 88.3174C54.7934 87.5845 55.5426 87.2751 56.2998 87.8125C58.246 89.1805 60.5504 89.6365 62.6757 90.5485C63.3528 90.8077 64.0044 91.1294 64.6218 91.5094C64.8124 91.6091 64.9636 91.7705 65.0509 91.9671C65.1381 92.1637 65.1562 92.3841 65.1023 92.5924C64.9883 92.9669 64.5893 93.0565 64.1903 93.1461C62.7083 93.5044 61.4787 92.7227 60.1677 92.3318C59.4152 92.0832 58.6783 91.7895 57.961 91.4524C57.5701 91.2569 57.1467 90.9475 56.8047 91.3058C56.4627 91.6641 56.9106 92.0142 57.049 92.3155C58.2072 95.122 59.9218 97.6648 62.0894 99.7907C65.1097 102.696 68.7201 104.918 72.6751 106.305C78.8393 108.357 84.3764 107.119 89.881 104.139C94.5468 101.574 97.1526 97.5107 99.0336 92.7959C99.1507 92.508 99.301 92.2347 99.4814 91.9817C99.856 91.3954 100.434 91.5094 100.939 91.5989C101.566 91.6967 101.281 92.2911 101.305 92.6575C101.452 94.4815 100.442 95.9879 99.6036 97.4048C98.7648 98.8217 97.7796 100.32 96.7943 101.737C96.0015 102.866 94.9944 103.829 93.8303 104.571C91.2146 106.391 88.3371 107.802 85.2966 108.756C83.1623 109.347 80.956 109.637 78.7416 109.619Z" fill="#381805"/>
<path d="M83.5373 92.4296C81.3795 92.4296 79.2135 92.3645 77.0231 92.4296C75.7691 92.4785 75.5492 91.8515 75.6143 90.8499C75.8586 87.2264 75.6876 83.6028 75.6143 79.9792C75.6143 78.8962 75.5411 77.8214 75.5329 76.7221C75.5042 76.5482 75.5113 76.3702 75.5538 76.1991C75.5963 76.0281 75.6732 75.8675 75.78 75.7272C75.8867 75.5869 76.0209 75.4699 76.1745 75.3834C76.328 75.2968 76.4976 75.2425 76.6729 75.2238C77.7233 75.0772 77.5768 76.0381 77.6989 76.5429C77.8489 77.3946 77.9008 78.2607 77.8536 79.1242C77.8536 82.3813 77.9513 85.6385 77.8536 88.8956C77.8536 90.0763 78.1875 90.3614 79.3031 90.3125C82.0635 90.1985 84.8239 90.2148 87.5843 90.1822C88.2881 90.17 88.9921 90.1945 89.6933 90.2555C90.4425 90.3369 91.3219 90.4102 91.3219 91.4444C91.3219 92.4785 90.4262 92.5192 89.6282 92.5192H84.5959H83.4559L83.5373 92.4296Z" fill="#381805"/>
<path d="M41.6429 55.5262C40.4052 55.4204 39.2 55.3796 37.9297 55.2086C35.9185 54.9236 35.1937 53.8814 35.1937 52.4156C35.1937 51.2838 35.0879 50.1438 35.0879 49.0119C35.0879 48.4745 35.1612 47.9615 35.9022 47.8312C38.567 47.3824 41.2736 47.2321 43.9717 47.3833C45.9749 47.4811 46.6752 48.0674 46.9683 50.0542C47.1245 51.1324 47.1736 52.2235 47.1149 53.3114C47.1215 53.6521 47.0543 53.9903 46.9179 54.3026C46.7814 54.615 46.579 54.8941 46.3244 55.1208C46.0699 55.3474 45.7693 55.5163 45.4433 55.6158C45.1173 55.7154 44.7736 55.7431 44.4359 55.6972C43.5157 55.6972 42.6037 55.5588 41.6917 55.4936L41.6429 55.5262ZM41.0322 49.5656V49.5168C40.2191 49.5792 39.4024 49.5792 38.5893 49.5168C37.3679 49.3214 37.0503 49.8018 37.2865 50.9011C37.3592 51.216 37.392 51.5388 37.3842 51.8619C37.3842 52.7821 37.661 53.2055 38.6952 53.1648C39.9817 53.1159 41.2765 53.2869 42.5712 53.3521C44.9733 53.4661 44.9 53.4579 44.9652 51.1128C44.9652 49.9076 44.6557 49.4353 43.4343 49.5656C42.6342 49.6096 41.8323 49.6096 41.0322 49.5656Z" fill="#381805"/>
<path d="M40.3483 39.2892C39.0455 39.2892 37.7507 39.2892 36.456 39.2892C35.6906 39.2892 35.031 38.9309 34.9496 38.0922C34.7867 36.3741 34.4203 34.6803 34.4285 32.9378C34.3935 32.7348 34.4039 32.5266 34.4591 32.3282C34.5143 32.1297 34.6128 31.946 34.7475 31.7902C34.8823 31.6344 35.0499 31.5105 35.2383 31.4273C35.4267 31.3441 35.6313 31.3038 35.8372 31.3092C38.3146 31.0867 40.8052 31.0513 43.2879 31.2033C43.811 31.1952 44.3177 31.3856 44.706 31.7361C45.0943 32.0867 45.3354 32.5713 45.3806 33.0925C45.5597 34.2081 45.8285 35.3236 45.9017 36.4473C45.955 36.7934 45.9309 37.147 45.8312 37.4827C45.7314 37.8183 45.5586 38.1277 45.325 38.3886C45.0914 38.6494 44.8029 38.8553 44.4802 38.9913C44.1575 39.1273 43.8087 39.1901 43.4589 39.1752C42.9133 39.1752 42.3759 39.1752 41.8303 39.2241C41.2847 39.2729 40.8532 39.2241 40.3727 39.2241L40.3483 39.2892ZM40.0389 33.3042C36.4235 33.3042 36.4235 33.3042 36.8957 36.2438C36.9038 36.295 36.9038 36.3472 36.8957 36.3985C36.8957 37.0011 37.2052 37.1232 37.71 37.1151C39.4445 37.1151 41.1707 37.0336 42.9052 37.0255C43.6217 37.0255 43.7765 36.7405 43.7195 36.0321C43.5403 33.3123 43.5729 33.3123 40.8287 33.3123L40.0389 33.3042Z" fill="#381805"/>
<path d="M24.1589 39.8185C23.1899 39.8185 22.2128 39.8185 21.2356 39.8185C19.5338 39.7696 19.0371 39.2566 18.8824 37.6036C18.7439 36.2193 19.0371 34.8188 18.4426 33.4426C18.1169 32.7016 18.9719 32.3596 19.6234 32.2293C22.408 31.7656 25.2411 31.6671 28.0512 31.9362C28.7596 31.985 29.0446 32.4655 29.1831 33.1169C29.4934 34.7704 29.5566 36.4608 29.3704 38.1329C29.3633 38.3369 29.315 38.5374 29.2285 38.7223C29.1419 38.9072 29.0189 39.0727 28.8668 39.2088C28.7147 39.345 28.5366 39.449 28.3433 39.5146C28.1499 39.5801 27.9453 39.606 27.7418 39.5905C26.5448 39.6393 25.3559 39.7208 24.1671 39.7859L24.1589 39.8185ZM23.8739 37.6118L25.1279 37.5466C27.5219 37.4 27.5138 37.3756 27.3346 35.0305C27.2776 34.2162 27.0415 33.8498 26.1865 33.8905C24.9478 33.9732 23.7054 33.9868 22.4652 33.9312C21.1216 33.8416 20.7145 34.2976 20.8855 35.6656C21.1379 37.6036 21.0484 37.6199 23.0271 37.6118H23.8739Z" fill="#381805"/>
<path d="M25.0552 54.5571H20.9837C20.7526 54.5935 20.5163 54.5781 20.2918 54.512C20.0674 54.446 19.8604 54.3308 19.6859 54.175C19.5113 54.0192 19.3736 53.8265 19.2826 53.6109C19.1916 53.3954 19.1497 53.1623 19.1597 52.9285C19.0539 51.528 18.8666 50.1274 18.777 48.7268C18.7378 48.515 18.7486 48.297 18.8085 48.0901C18.8684 47.8831 18.9757 47.693 19.122 47.5349C19.2683 47.3768 19.4494 47.255 19.6511 47.1792C19.8527 47.1034 20.0692 47.0757 20.2835 47.0983C22.9787 46.968 25.6659 46.5283 28.3693 47.1715C28.8075 47.2188 29.2177 47.4098 29.5359 47.7147C29.8541 48.0196 30.0623 48.4213 30.1282 48.8571C30.3806 50.1274 30.6819 51.3977 30.9425 52.6761C31.203 53.9545 30.7796 54.3943 29.5175 54.4513C28.0599 54.5164 26.5942 54.4513 25.1285 54.4513L25.0552 54.5571ZM24.9167 52.326C25.8287 52.326 26.7489 52.326 27.6609 52.326C27.9215 52.326 28.3612 52.326 28.4019 52.1631C28.6869 51.3488 28.2797 50.5345 28.2472 49.647C28.2472 49.0688 27.669 49.0525 27.2619 49.0444C25.3809 49.0444 23.4917 49.0444 21.6026 48.9874C21.3339 48.9874 21.0163 48.9874 20.9919 49.3538C20.9093 50.2691 21.0374 51.1911 21.3665 52.0491C21.6433 52.7168 22.425 52.3015 22.995 52.3504C23.565 52.3993 24.2735 52.3504 24.9167 52.3504V52.326Z" fill="#381805"/>
</g>
<defs>
<clipPath id="clip0_4692_3072">
<rect width="114" height="114" fill="white"/>
</clipPath>
</defs>
</svg>
