<svg width="114" height="114" viewBox="0 0 114 114" fill="none" xmlns="http://www.w3.org/2000/svg">
<path d="M71.3892 26.9936C71.4154 32.7279 70.9111 38.4523 69.8827 44.0936C68.7084 50.095 66.6676 55.8937 63.8244 61.3076C62.9335 62.9733 61.7848 64.4876 60.4207 65.7944C57.4567 68.6525 54.9162 72.0236 50.8203 73.4731C50.7299 73.5229 50.6476 73.586 50.576 73.6604C49.151 74.8085 48.1332 76.3312 45.7962 74.4746C43.8989 72.9764 41.0407 72.6832 38.6142 71.8364C28.0773 68.1151 21.05 60.8761 17.1007 50.4858C15.9119 47.3834 15.692 44.0774 14.9673 40.8772C13.7377 35.4704 14.267 29.9414 13.7214 24.4856C13.5016 22.4174 13.0293 20.3572 13.0293 18.2156C13.0293 17.0838 13.3632 16.5301 14.4706 16.7011C14.7822 16.7411 15.0819 16.8466 15.35 17.0105C18.9084 19.4534 22.7274 19.0869 26.5953 18.0284C30.426 17.0158 33.9403 15.0556 36.8146 12.3284C37.8813 11.3105 38.4432 9.93436 39.3796 8.81879C40.1939 7.85793 41.399 7.57293 42.2947 8.42793C43.7523 9.8285 45.0959 11.3186 46.4232 12.8576C49.1103 15.9845 52.2534 18.3541 56.5936 19.0299C60.9337 19.7058 64.2804 18.0528 67.6679 15.9438C67.7079 15.9107 67.7459 15.8754 67.7819 15.8379C69.4593 14.6735 70.4527 15.1214 70.7784 17.1815C71.1996 20.435 71.4036 23.713 71.3892 26.9936ZM69.0033 27.6858C69.0033 24.9172 69.0033 22.1568 69.0033 19.3882C69.0033 17.9306 68.9056 17.8981 67.733 18.6635C64.4534 20.7689 60.5468 21.6758 56.675 21.2306C52.8033 20.7854 49.2045 19.0155 46.4883 16.2206C45.0226 14.6572 43.736 13.0286 42.3436 11.4652C41.228 10.2275 41.1954 10.2194 40.2509 11.5304C37.7708 15.0621 34.2577 17.7389 30.1944 19.1928C25.6019 20.8214 20.9604 21.8962 16.1562 19.9419C15.1872 19.5429 15.4722 20.3572 15.4722 20.8132C15.6594 23.5736 15.8549 26.3259 16.091 29.0864C16.5714 34.7864 16.6854 40.5678 18.2082 46.1864C20.366 54.0686 24.356 60.7051 31.2367 65.4686C35.7479 68.5874 40.943 69.9798 45.8939 71.9829C46.5316 72.2816 47.2373 72.4051 47.9386 72.3407C48.6398 72.2763 49.3112 72.0263 49.8839 71.6165C56.1562 68.1794 61.0873 62.729 63.8814 56.1451C67.7982 46.9925 69.1662 37.4572 69.0033 27.6858Z" fill="#381805"/>
<path d="M86.1028 105.548C82.2919 105.727 78.4892 105.931 74.7028 106.077C72.3088 106.167 72.0971 105.922 71.9342 103.594C71.8594 100.726 71.6365 97.8639 71.2665 95.0191C70.2568 89.2621 70.7128 83.4318 70.1428 77.6585C70.0669 76.4084 70.1132 75.1539 70.2812 73.9128C70.3789 73.009 70.7291 72.5855 71.6166 72.5285C77.1864 72.1865 82.7534 71.8445 88.3177 71.5025C88.649 71.4341 88.9938 71.4767 89.2985 71.6239C89.6032 71.7711 89.8509 72.0147 90.0032 72.3168C90.5162 73.2777 91.5911 73.7093 92.3565 74.4584C93.9281 75.9811 95.6136 77.4142 97.2422 78.8555C97.6633 79.208 97.997 79.6531 98.2174 80.156C98.4378 80.6589 98.5388 81.2059 98.5125 81.7544C98.4067 88.2687 98.9197 94.783 99.1151 101.297C99.1151 102.112 99.0174 102.926 100.223 102.926C100.43 102.938 100.625 103.03 100.767 103.181C100.909 103.332 100.988 103.532 100.988 103.74C101.001 103.977 100.924 104.211 100.773 104.395C100.623 104.578 100.409 104.699 100.174 104.734C99.4158 104.931 98.6361 105.032 97.8529 105.035L86.1028 105.548ZM86.4122 82.9921C86.2657 85.5897 86.1354 88.1872 85.9725 90.7848C85.9237 91.6398 85.8504 92.5355 84.6859 92.5763C84.2013 92.5203 83.7446 92.3205 83.3745 92.0027C83.0044 91.6849 82.738 91.2636 82.6095 90.793C82.3183 87.8163 82.2612 84.8214 82.4385 81.8358C82.4668 81.3116 82.6173 80.8013 82.8782 80.3457C83.2355 79.8584 83.7683 79.5291 84.3639 79.4273C84.9595 79.3255 85.5713 79.4592 86.0702 79.8001C86.2005 79.906 86.2005 80.2317 86.4692 80.0851C86.5588 80.0362 86.5751 79.8001 86.5832 79.6535C86.6565 78.139 86.5832 76.6162 86.8112 75.118C86.9578 74.0187 86.6809 73.7581 85.6224 73.8314C82.0314 74.0757 78.4322 74.2467 74.8331 74.4502C73.8967 74.4991 72.7078 74.206 72.0889 74.6701C71.2747 75.2971 72.0889 76.4778 72.1378 77.4061C72.7241 85.7932 73.3837 94.1723 73.9862 102.551C74.0514 103.488 74.2142 103.919 75.3298 103.862C81.8929 103.52 88.4642 103.276 95.0355 102.983C97.0305 102.893 97.0305 102.877 96.9409 100.817C96.6804 94.8807 96.1267 88.9364 96.5012 82.984C96.5582 82.0475 96.2732 82.0231 95.5648 82.4058C93.5372 83.4888 91.5585 84.6451 89.1808 84.8487C87.1288 85.0115 87.0148 85.0197 86.4122 82.9921ZM88.8551 78.8474H88.7574C88.7574 79.8327 88.7574 80.818 88.7574 81.8032C88.7085 82.5198 88.9039 82.699 89.6205 82.6175C91.4527 82.2837 92.9917 81.2984 94.6121 80.4841C95.0437 80.2642 95.1007 80.02 94.7261 79.6698L89.5228 74.7841C89.1157 74.3932 88.9039 74.4747 88.8958 75.0202C88.8388 76.2498 88.8469 77.5527 88.8469 78.8474H88.8551Z" fill="#381805"/>
<path d="M78.8154 46.0641C83.8387 46.9452 88.3295 49.7272 91.3555 53.8324C94.6212 57.915 96.1508 63.118 95.6142 68.3185C95.5409 69.1328 95.3373 70.0041 94.3032 69.882C93.269 69.7598 93.326 68.9211 93.4237 68.1557C94.523 59.7034 87.4876 50.103 78.5305 48.3685C78.479 48.3639 78.4272 48.3639 78.3757 48.3685H76.2016C76.2016 49.1014 76.9426 49.4027 77.252 49.9971C77.4836 50.499 77.7559 50.9811 78.0663 51.4384C78.5142 52.0165 78.1966 52.4725 77.7324 52.8553C77.6389 52.9442 77.5278 53.0126 77.4063 53.0561C77.2848 53.0997 77.1556 53.1174 77.0269 53.1082C76.8982 53.099 76.7728 53.0631 76.6587 53.0027C76.5446 52.9423 76.4444 52.8588 76.3644 52.7575C75.2407 51.2918 73.8646 49.9727 73.1887 48.2057C72.7816 47.1553 73.2702 46.1293 74.7277 45.3475C76.6494 44.3134 78.6444 43.4177 80.6476 42.5301C81.1362 42.3103 81.8853 42.1637 82.2762 42.6848C82.667 43.206 82.1296 43.8004 81.6817 44.2483C80.8593 45.0218 79.703 45.2173 78.8154 46.0641Z" fill="#381805"/>
<path d="M66.3159 98.8055C66.3596 99.1876 66.2845 99.5739 66.1009 99.9119C65.9174 100.25 65.6342 100.523 65.2899 100.695C63.9704 101.46 62.7028 102.311 61.4953 103.243C61.363 103.382 61.2026 103.49 61.025 103.561C60.8473 103.632 60.6565 103.665 60.4653 103.656C60.2741 103.648 60.0869 103.599 59.9163 103.512C59.7457 103.425 59.5955 103.303 59.4759 103.154C58.743 102.339 59.4189 101.761 59.9808 101.354C60.8222 100.789 61.6919 100.267 62.5865 99.7908C62.8063 99.6686 63.1402 99.5302 63.0669 99.2615C63.0669 99.1231 62.6435 99.0579 62.4073 99.0091C59.5899 98.4228 56.7562 97.9586 54.1342 96.6639C48.7843 94.0175 44.2243 90.4916 41.244 85.1988C40.5189 83.8044 40.0422 82.2944 39.8353 80.7365C39.8226 80.2302 39.8998 79.7257 40.0633 79.2463C40.0794 79.0936 40.1259 78.9457 40.2002 78.8113C40.2744 78.6769 40.3749 78.5587 40.4956 78.4638C40.6163 78.3689 40.7548 78.2992 40.903 78.2588C41.0511 78.2183 41.2059 78.208 41.358 78.2285C41.7896 78.2285 41.9036 78.8881 41.9443 79.3278C42.4573 84.3763 45.4458 87.7801 49.2729 90.7278C51.9724 92.8498 54.9971 94.5216 58.23 95.6786C59.3404 96.0552 60.4714 96.3679 61.6175 96.6151C62.5132 96.8105 62.7656 96.3056 62.3829 95.5646C61.8627 94.6189 61.6519 93.5339 61.7803 92.4622C61.8618 91.8678 62.0735 91.2978 62.7982 91.2815C63.5229 91.2652 63.5636 91.8026 63.7021 92.3401C64.2486 94.2109 65.0053 96.0138 65.9576 97.7143C66.1612 98.0726 66.4869 98.3902 66.3159 98.8055Z" fill="#381805"/>
<path d="M29.9336 42.7174V30.5032C29.9336 28.8746 30.2837 28.6873 31.8879 28.7932C32.9381 28.8184 33.9876 28.72 35.0147 28.5C39.4526 27.759 43.9719 27.8486 48.426 27.588C48.8144 27.5619 49.2038 27.6213 49.5668 27.762C49.9298 27.9027 50.2575 28.1213 50.5269 28.4023C52.4942 30.3475 54.2669 32.4802 55.8197 34.77C56.3498 35.7304 56.6087 36.8169 56.5689 37.9132C56.9435 43.5317 56.9272 49.1666 57.0249 54.7933C56.9844 55.5032 56.6794 56.1722 56.1698 56.6681C55.6603 57.1641 54.9833 57.451 54.2726 57.4723C47.4489 57.6922 40.6577 58.5634 33.834 58.8077C31.3423 58.8973 30.9922 58.5553 30.7072 56.0147C30.1779 51.585 30.3245 47.1472 29.9336 42.7174ZM54.8182 45.9257H54.6227C54.6227 43.1572 54.6227 40.3967 54.6227 37.6363C54.6227 36.822 54.411 36.6185 53.6375 36.7732C51.6995 37.1559 49.7452 37.4734 47.799 37.8643C45.8529 38.2552 45.2829 37.6282 45.5923 35.7146C45.8777 34.0604 46.3929 32.4543 47.1232 30.9429C47.5466 30.0227 47.3919 29.8436 46.374 29.8517C41.9402 29.9317 37.5144 30.2607 33.1175 30.837C32.1159 30.9673 31.9449 31.3419 32.0019 32.2295C32.1077 34.1023 32.0915 35.9833 32.1729 37.8562C32.3927 43.5562 32.3113 49.2562 32.7429 54.8992C32.8813 56.6906 32.9383 56.658 34.7297 56.5277C41.0893 56.1776 47.4163 55.4447 53.7759 55.2737C54.5902 55.2737 54.8426 54.9643 54.8263 54.1663C54.7937 51.4547 54.8182 48.6862 54.8182 45.9257ZM52.7662 34.4687C52.7327 34.3721 52.689 34.2793 52.6359 34.1919C51.7239 33.0682 50.8282 31.9282 49.8836 30.8289C49.4439 30.324 49.3055 30.78 49.1915 31.1302C48.8006 32.3109 48.3772 33.4916 48.027 34.6723C47.8479 35.2179 47.8886 35.5925 48.6377 35.4866C49.8592 35.2423 51.0806 35.0387 52.302 34.827C52.5137 34.7537 52.701 34.7049 52.7662 34.4687Z" fill="#381805"/>
<path d="M85.2642 96.558C85.2808 96.7007 85.2651 96.8452 85.2184 96.9811C85.1717 97.1169 85.0952 97.2405 84.9944 97.3429C84.8936 97.4452 84.7712 97.5236 84.6361 97.5724C84.501 97.6212 84.3567 97.6391 84.2138 97.6247C83.2204 97.6247 82.2107 96.9081 82.2188 96.0776C82.2269 95.247 82.6178 94.6851 83.5298 94.677C83.9954 94.7329 84.4259 94.953 84.7438 95.2977C85.0617 95.6425 85.2462 96.0894 85.2642 96.558Z" fill="#381805"/>
<path d="M40.8766 39.5907C40.8733 38.1827 40.9905 36.777 41.2267 35.3889C41.3488 34.8678 41.471 34.3385 42.041 34.1838C42.611 34.0291 43.0507 34.5828 43.3846 34.9981C43.8635 35.7487 44.1281 36.616 44.15 37.5061C44.4431 39.9489 44.5408 42.3918 44.5897 44.8347C44.5897 45.8118 44.321 46.4632 43.2868 46.6098C42.2527 46.7564 41.8456 46.2027 41.5524 45.4209C40.9857 43.5324 40.7569 41.5587 40.8766 39.5907Z" fill="#381805"/>
<path d="M41.6498 50.4369C41.6508 50.2409 41.6907 50.0471 41.7672 49.8666C41.8437 49.6861 41.9552 49.5226 42.0953 49.3856C42.2354 49.2485 42.4013 49.1406 42.5834 49.0681C42.7655 48.9955 42.9602 48.9599 43.1562 48.9631C43.6767 49.0228 44.1572 49.2713 44.5068 49.6614C44.8564 50.0516 45.0509 50.5564 45.0535 51.0802C45.0624 51.2923 45.0279 51.504 44.9523 51.7024C44.8767 51.9008 44.7615 52.0816 44.6136 52.234C44.4658 52.3864 44.2885 52.5071 44.0926 52.5887C43.8966 52.6703 43.6861 52.7112 43.4738 52.7088C43.2044 52.6804 42.9434 52.599 42.7056 52.4693C42.4679 52.3395 42.2582 52.164 42.0886 51.9528C41.9191 51.7416 41.793 51.4989 41.7177 51.2387C41.6423 50.9786 41.6193 50.7061 41.6498 50.4369Z" fill="#381805"/>
</svg>
