<svg width="229" height="228" viewBox="0 0 229 228" fill="none" xmlns="http://www.w3.org/2000/svg">
<g clip-path="url(#clip0_4501_2748)">
<path d="M68.8193 126.71C68.5059 126.702 68.2045 126.588 67.9645 126.387C67.7246 126.185 67.5605 125.907 67.4993 125.6C65.109 113.923 66.7667 101.779 72.1993 91.17C72.2818 91.0083 72.3955 90.8644 72.5337 90.7467C72.6719 90.629 72.832 90.5397 73.0048 90.484C73.1776 90.4283 73.3597 90.4072 73.5406 90.4219C73.7216 90.4367 73.8978 90.487 74.0593 90.57C74.3866 90.7387 74.6336 91.0303 74.7461 91.3809C74.8586 91.7315 74.8274 92.1124 74.6593 92.44C69.5122 102.488 67.9324 113.986 70.1793 125.05C70.2502 125.412 70.1754 125.787 69.9714 126.094C69.7673 126.401 69.4503 126.615 69.0893 126.69L68.8193 126.71Z" fill="#381805"/>
<path d="M77.6806 86.29C77.4241 86.2896 77.1728 86.2182 76.9544 86.0838C76.736 85.9493 76.559 85.7571 76.4431 85.5284C76.3272 85.2996 76.2768 85.0432 76.2975 84.7876C76.3183 84.532 76.4093 84.2871 76.5606 84.08C83.8692 74.0724 94.4689 66.9586 106.5 63.9871C118.53 61.0156 131.223 62.3761 142.351 67.83C142.514 67.9099 142.659 68.0212 142.779 68.1575C142.899 68.2938 142.991 68.4524 143.05 68.6243C143.108 68.7961 143.132 68.9778 143.12 69.159C143.108 69.3402 143.061 69.5172 142.981 69.68C142.817 70.0098 142.53 70.2619 142.182 70.3817C141.834 70.5015 141.453 70.4793 141.121 70.32C130.577 65.1647 118.556 63.8826 107.163 66.6981C95.7693 69.5135 85.7292 76.2472 78.8006 85.72C78.6724 85.8969 78.504 86.0408 78.3093 86.1399C78.1145 86.239 77.8991 86.2904 77.6806 86.29Z" fill="#381805"/>
<path d="M169.499 106.42C169.18 106.42 168.87 106.309 168.622 106.107C168.374 105.905 168.204 105.623 168.139 105.31C165.627 92.7545 158.37 81.6511 147.879 74.31C147.573 74.1031 147.361 73.7831 147.291 73.4202C147.221 73.0573 147.297 72.6813 147.504 72.375C147.711 72.0687 148.031 71.8571 148.394 71.7868C148.757 71.7164 149.133 71.7931 149.439 72C160.519 79.7521 168.181 91.4796 170.829 104.74C170.866 104.918 170.867 105.101 170.832 105.28C170.798 105.458 170.728 105.628 170.628 105.779C170.527 105.931 170.398 106.061 170.247 106.162C170.097 106.264 169.927 106.334 169.749 106.37L169.499 106.42Z" fill="#381805"/>
<path d="M170.501 117.6C170.318 117.597 170.139 117.559 169.972 117.486C169.804 117.414 169.653 117.309 169.527 117.178C169.401 117.047 169.301 116.892 169.235 116.723C169.169 116.553 169.137 116.372 169.141 116.19C169.202 112.534 168.867 108.883 168.141 105.3C168.091 104.949 168.178 104.593 168.382 104.303C168.587 104.014 168.894 103.814 169.241 103.744C169.589 103.674 169.95 103.739 170.251 103.926C170.552 104.113 170.77 104.408 170.861 104.75C171.607 108.533 171.942 112.385 171.861 116.24C171.853 116.598 171.707 116.94 171.454 117.193C171.2 117.447 170.859 117.592 170.501 117.6Z" fill="#381805"/>
<path d="M69.3301 128.9C69.0197 128.901 68.718 128.797 68.4746 128.604C68.2311 128.412 68.0603 128.142 67.9901 127.84C67.8001 127.08 67.6301 126.33 67.4801 125.6C67.4207 125.244 67.5009 124.879 67.7039 124.581C67.907 124.283 68.2173 124.075 68.5701 124C68.9307 123.929 69.3046 124.004 69.61 124.209C69.9155 124.413 70.1276 124.73 70.2001 125.09C70.3401 125.78 70.5001 126.5 70.6801 127.22C70.7682 127.575 70.7126 127.951 70.5253 128.266C70.3381 128.58 70.0344 128.808 69.6801 128.9C69.5639 128.916 69.4462 128.916 69.3301 128.9Z" fill="#381805"/>
<path d="M105.891 166.17C105.627 166.165 105.37 166.084 105.151 165.936C104.931 165.789 104.759 165.583 104.654 165.341C104.548 165.098 104.515 164.831 104.557 164.57C104.599 164.31 104.715 164.067 104.891 163.87C110.508 157.439 114.609 149.828 116.891 141.6C119.261 133.078 119.573 124.116 117.801 115.45C117.764 115.272 117.763 115.089 117.798 114.91C117.832 114.732 117.902 114.562 118.002 114.411C118.103 114.259 118.232 114.129 118.383 114.028C118.533 113.926 118.703 113.856 118.881 113.82C119.238 113.755 119.607 113.831 119.909 114.032C120.212 114.234 120.424 114.545 120.501 114.9C122.343 123.997 122.001 133.401 119.501 142.34C117.1 150.977 112.783 158.961 106.871 165.7C106.747 165.84 106.597 165.954 106.429 166.035C106.26 166.115 106.077 166.161 105.891 166.17Z" fill="#381805"/>
<path d="M99.2507 163.9C99.0656 163.905 98.8814 163.872 98.7094 163.803C98.5375 163.734 98.3814 163.631 98.2507 163.5C98.1164 163.37 98.0096 163.215 97.9367 163.043C97.8638 162.871 97.8262 162.687 97.8262 162.5C97.8262 162.313 97.8638 162.129 97.9367 161.957C98.0096 161.785 98.1164 161.63 98.2507 161.5C102.959 156.684 106.646 150.966 109.091 144.69C109.143 144.503 109.234 144.33 109.357 144.18C109.481 144.031 109.634 143.909 109.807 143.822C109.981 143.735 110.17 143.686 110.364 143.676C110.557 143.667 110.751 143.699 110.932 143.769C111.112 143.839 111.276 143.946 111.413 144.083C111.55 144.22 111.657 144.385 111.726 144.566C111.796 144.747 111.827 144.94 111.817 145.134C111.808 145.327 111.758 145.517 111.671 145.69C109.091 152.313 105.2 158.348 100.231 163.43C100.108 163.571 99.9579 163.686 99.7893 163.766C99.6208 163.847 99.4375 163.893 99.2507 163.9Z" fill="#381805"/>
<path d="M113.08 167.56C112.768 167.558 112.465 167.452 112.22 167.26C112.076 167.149 111.956 167.01 111.867 166.852C111.777 166.694 111.719 166.52 111.697 166.34C111.675 166.16 111.688 165.977 111.737 165.802C111.785 165.627 111.868 165.463 111.98 165.32C117.572 158.176 121.551 149.906 123.641 141.078C125.732 132.249 125.885 123.073 124.09 114.18L124 113.72C123.637 112.535 122.853 111.524 121.795 110.877C120.738 110.231 119.48 109.995 118.26 110.213C117.04 110.43 115.942 111.088 115.174 112.06C114.405 113.032 114.02 114.253 114.09 115.49L114.23 116.17C115.67 123.255 115.629 130.562 114.11 137.63C114.084 137.82 114.02 138.003 113.921 138.167C113.822 138.331 113.689 138.473 113.533 138.583C113.376 138.694 113.198 138.77 113.01 138.809C112.822 138.847 112.628 138.846 112.441 138.806C112.253 138.766 112.076 138.688 111.92 138.576C111.765 138.464 111.634 138.321 111.536 138.156C111.438 137.991 111.376 137.808 111.352 137.617C111.329 137.427 111.345 137.234 111.4 137.05C112.74 130.799 112.862 124.348 111.76 118.05L111.49 116.72C111.097 114.689 111.523 112.585 112.674 110.867C113.825 109.148 115.609 107.955 117.637 107.546C119.665 107.137 121.772 107.546 123.499 108.684C125.227 109.821 126.435 111.596 126.86 113.62L127.1 114.83C128.755 123.946 128.458 133.309 126.23 142.302C124.001 151.294 119.89 159.712 114.17 167C114.043 167.171 113.879 167.31 113.69 167.408C113.501 167.505 113.292 167.557 113.08 167.56Z" fill="#381805"/>
<path d="M93.1896 160.86C93.0021 160.856 92.8172 160.816 92.6456 160.74C92.474 160.665 92.319 160.556 92.1896 160.42C92.0598 160.286 91.9583 160.127 91.8913 159.952C91.8243 159.778 91.7931 159.592 91.7997 159.405C91.8062 159.218 91.8503 159.035 91.9293 158.866C92.0083 158.696 92.1207 158.545 92.2596 158.42C97.3409 153.667 101.213 147.768 103.552 141.216C105.892 134.663 106.631 127.646 105.71 120.75C105.673 120.564 105.675 120.372 105.715 120.187C105.755 120.001 105.832 119.826 105.943 119.672C106.053 119.518 106.194 119.388 106.356 119.29C106.519 119.192 106.7 119.128 106.888 119.103C107.076 119.078 107.267 119.091 107.45 119.143C107.632 119.194 107.803 119.282 107.95 119.402C108.097 119.521 108.218 119.67 108.306 119.838C108.394 120.006 108.446 120.191 108.46 120.38C109.442 127.715 108.655 135.178 106.166 142.147C103.677 149.115 99.5565 155.388 94.1496 160.44C94.0253 160.57 93.8765 160.674 93.7117 160.746C93.5469 160.818 93.3694 160.857 93.1896 160.86Z" fill="#381805"/>
<path d="M133.15 127.86C132.968 127.861 132.788 127.827 132.619 127.758C132.451 127.689 132.297 127.588 132.168 127.459C132.039 127.331 131.936 127.179 131.866 127.01C131.796 126.842 131.76 126.662 131.76 126.48C131.749 121.922 131.287 117.377 130.38 112.91L130.27 112.38C129.554 109.519 127.763 107.045 125.269 105.471C122.775 103.897 119.771 103.345 116.88 103.93C114.671 104.368 112.64 105.446 111.039 107.03C109.439 108.615 108.34 110.635 107.88 112.84C107.843 113.018 107.771 113.187 107.668 113.337C107.565 113.487 107.434 113.615 107.282 113.715C107.13 113.814 106.959 113.882 106.781 113.916C106.602 113.949 106.418 113.947 106.24 113.91C106.062 113.873 105.894 113.8 105.743 113.698C105.593 113.595 105.465 113.464 105.366 113.312C105.266 113.159 105.198 112.989 105.164 112.81C105.131 112.632 105.133 112.448 105.17 112.27C105.74 109.538 107.1 107.034 109.08 105.068C111.06 103.102 113.574 101.76 116.31 101.21C120.014 100.465 123.862 101.22 127.009 103.311C130.155 105.402 132.343 108.657 133.09 112.36L133.32 113.47C134.111 117.758 134.516 122.109 134.53 126.47C134.532 126.652 134.497 126.833 134.428 127.001C134.359 127.17 134.258 127.323 134.13 127.452C134.001 127.582 133.849 127.684 133.681 127.754C133.513 127.824 133.332 127.86 133.15 127.86Z" fill="#381805"/>
<path d="M120.779 167.88C120.526 167.882 120.278 167.814 120.061 167.683C119.844 167.553 119.667 167.366 119.549 167.142C119.431 166.918 119.377 166.666 119.393 166.413C119.409 166.161 119.494 165.917 119.639 165.71C126.011 156.396 130.02 145.67 131.319 134.46C131.36 134.095 131.545 133.762 131.831 133.533C132.118 133.304 132.484 133.199 132.849 133.24C133.214 133.281 133.547 133.465 133.776 133.752C134.005 134.039 134.11 134.405 134.069 134.77C132.721 146.431 128.554 157.589 121.929 167.28C121.801 167.466 121.629 167.618 121.428 167.722C121.228 167.827 121.005 167.881 120.779 167.88Z" fill="#381805"/>
<path d="M87.7095 157.16C87.4262 157.16 87.1498 157.073 86.9172 156.912C86.6846 156.75 86.5069 156.521 86.4079 156.256C86.309 155.99 86.2934 155.701 86.3634 155.427C86.4334 155.152 86.5855 154.906 86.7995 154.72C91.6119 150.565 95.2767 145.243 97.4426 139.265C99.6086 133.287 100.203 126.854 99.1695 120.58L98.8995 119.26C98.2703 116.127 98.3758 112.89 99.2078 109.805C100.04 106.719 101.575 103.868 103.694 101.476C105.813 99.084 108.458 97.2155 111.421 96.0172C114.383 94.8189 117.583 94.3236 120.769 94.57C121.136 94.6007 121.475 94.7741 121.715 95.0529C121.954 95.3316 122.074 95.6934 122.049 96.06C122.021 96.4272 121.849 96.7683 121.569 97.0083C121.29 97.2483 120.927 97.3676 120.559 97.34C117.896 97.1304 115.219 97.52 112.726 98.4803C110.232 99.4406 107.986 100.947 106.151 102.889C104.316 104.832 102.94 107.16 102.123 109.704C101.306 112.248 101.069 114.943 101.429 117.59L101.649 118.71C103.055 125.644 102.592 132.828 100.308 139.525C98.0237 146.221 94.0001 152.19 88.6495 156.82C88.3887 157.045 88.054 157.166 87.7095 157.16Z" fill="#381805"/>
<path d="M128.97 167C128.723 167.001 128.482 166.935 128.27 166.81C127.954 166.622 127.724 166.318 127.63 165.962C127.537 165.607 127.587 165.229 127.77 164.91C137.197 148.874 140.367 129.921 136.67 111.69L136.55 111.09C135.976 108.676 134.906 106.408 133.409 104.43C131.911 102.451 130.018 100.807 127.85 99.6C127.532 99.4187 127.298 99.1193 127.2 98.7669C127.101 98.4145 127.146 98.0375 127.323 97.7176C127.501 97.3978 127.798 97.1609 128.149 97.0584C128.5 96.9558 128.878 96.996 129.2 97.17C131.812 98.6263 134.077 100.632 135.838 103.049C137.599 105.467 138.814 108.237 139.4 111.17L139.64 112.35C143.099 130.901 139.743 150.077 130.19 166.35C130.061 166.555 129.88 166.723 129.666 166.837C129.452 166.951 129.212 167.007 128.97 167Z" fill="#381805"/>
<path d="M82.831 152.86C82.6257 152.861 82.4228 152.816 82.2375 152.728C82.0522 152.639 81.8893 152.51 81.761 152.35C81.6447 152.21 81.5574 152.048 81.504 151.874C81.4506 151.7 81.4322 151.517 81.4499 151.335C81.4675 151.154 81.5209 150.978 81.6069 150.818C81.6929 150.657 81.8098 150.515 81.951 150.4C86.0704 147.031 89.2469 142.652 91.171 137.69C91.2232 137.503 91.314 137.33 91.4374 137.18C91.5608 137.031 91.7141 136.909 91.8874 136.822C92.0608 136.735 92.2504 136.686 92.444 136.676C92.6376 136.667 92.831 136.699 93.0118 136.769C93.1925 136.839 93.3566 136.946 93.4935 137.083C93.6304 137.22 93.7371 137.385 93.8067 137.566C93.8763 137.747 93.9073 137.94 93.8977 138.134C93.8881 138.327 93.8381 138.517 93.751 138.69C91.6633 144.089 88.2192 148.859 83.751 152.54C83.4929 152.754 83.1662 152.868 82.831 152.86Z" fill="#381805"/>
<path d="M144.889 141.53H144.659C144.479 141.502 144.307 141.439 144.151 141.343C143.996 141.248 143.862 141.122 143.755 140.974C143.649 140.826 143.574 140.659 143.533 140.481C143.493 140.303 143.488 140.119 143.519 139.94C145.126 130.141 144.94 120.132 142.969 110.4L142.889 110.02C141.521 103.884 137.83 98.5168 132.589 95.0445C127.349 91.5721 120.967 90.2649 114.783 91.3971C108.6 92.5292 103.095 96.0128 99.425 101.117C95.7548 106.22 94.2044 112.548 95.0992 118.77L95.3492 120C96.0271 123.352 96.189 126.789 95.8293 130.19C95.7724 130.542 95.5828 130.858 95.2996 131.074C95.0163 131.29 94.6609 131.389 94.3068 131.35C93.9528 131.312 93.627 131.139 93.3967 130.867C93.1664 130.595 93.0492 130.246 93.0693 129.89C93.3578 127.227 93.2939 124.537 92.8792 121.89L92.5992 120.53C91.256 113.52 92.7344 106.264 96.713 100.338C100.692 94.4127 106.849 90.2974 113.845 88.8873C120.842 87.4772 128.112 88.8862 134.075 92.808C140.039 96.7298 144.212 102.847 145.689 109.83L145.819 110.47C147.739 120.328 147.888 130.45 146.259 140.36C146.209 140.687 146.043 140.985 145.792 141.199C145.54 141.414 145.22 141.531 144.889 141.53Z" fill="#381805"/>
<path d="M137.56 164.49C137.352 164.492 137.146 164.444 136.96 164.35C136.796 164.271 136.65 164.16 136.529 164.024C136.408 163.889 136.315 163.73 136.256 163.558C136.196 163.386 136.171 163.204 136.182 163.023C136.193 162.841 136.24 162.663 136.32 162.5C138.622 157.778 140.464 152.845 141.82 147.77C141.933 147.434 142.169 147.153 142.481 146.986C142.793 146.818 143.157 146.776 143.499 146.868C143.842 146.96 144.136 147.179 144.322 147.48C144.508 147.782 144.572 148.143 144.5 148.49C143.094 153.733 141.188 158.83 138.81 163.71C138.696 163.944 138.518 164.141 138.297 164.279C138.076 164.417 137.821 164.49 137.56 164.49Z" fill="#381805"/>
<path d="M146.5 160C146.332 160.001 146.165 159.967 146.01 159.9C145.839 159.837 145.682 159.74 145.549 159.615C145.415 159.49 145.308 159.34 145.233 159.174C145.159 159.007 145.118 158.827 145.114 158.644C145.111 158.461 145.143 158.28 145.21 158.11C151.143 142.596 152.574 125.722 149.34 109.43L149.26 109.08C148.397 104.746 146.603 100.652 144 97.08C143.875 96.9345 143.78 96.7644 143.724 96.5807C143.667 96.3969 143.649 96.2033 143.671 96.0123C143.693 95.8212 143.755 95.6368 143.851 95.4707C143.948 95.3046 144.079 95.1604 144.234 95.0472C144.39 94.934 144.567 94.8544 144.755 94.8133C144.943 94.7722 145.137 94.7705 145.326 94.8083C145.514 94.8462 145.693 94.9228 145.85 95.0332C146.008 95.1437 146.141 95.2856 146.24 95.45C148.965 99.1966 150.876 103.471 151.85 108L151.96 108.57C155.392 125.485 153.942 143.028 147.78 159.15C147.674 159.402 147.496 159.617 147.269 159.768C147.041 159.919 146.774 160 146.5 160Z" fill="#381805"/>
<path d="M139.5 91.74C139.18 91.7412 138.869 91.6316 138.62 91.43C135.103 88.5363 130.984 86.4638 126.564 85.3636C122.144 84.2633 117.534 84.163 113.07 85.07C110.744 85.5405 108.479 86.2753 106.32 87.26C106.153 87.3545 105.967 87.4131 105.776 87.4321C105.584 87.4511 105.391 87.4302 105.208 87.3706C105.025 87.311 104.856 87.214 104.712 87.0859C104.569 86.9577 104.453 86.8011 104.374 86.626C104.294 86.4509 104.251 86.2611 104.248 86.0687C104.245 85.8762 104.283 85.6853 104.358 85.508C104.433 85.3307 104.543 85.1709 104.683 85.0387C104.823 84.9065 104.989 84.8048 105.17 84.74C110.876 82.1256 117.201 81.1651 123.425 81.9677C129.65 82.7703 135.524 85.3038 140.38 89.28C140.529 89.3955 140.652 89.5401 140.743 89.7051C140.833 89.87 140.889 90.0517 140.907 90.239C140.925 90.4263 140.904 90.6153 140.846 90.7943C140.788 90.9733 140.694 91.1386 140.57 91.28C140.437 91.4311 140.272 91.5508 140.087 91.6304C139.902 91.7099 139.701 91.7474 139.5 91.74Z" fill="#381805"/>
<path d="M78.5803 148.05C78.2934 148.049 78.0139 147.959 77.7801 147.793C77.5462 147.627 77.3696 147.392 77.2743 147.122C77.179 146.851 77.1697 146.558 77.2478 146.282C77.3258 146.006 77.4874 145.761 77.7103 145.58C81.047 142.907 83.6176 139.4 85.1614 135.413C86.7051 131.427 87.167 127.103 86.5003 122.88L86.2903 121.8C85.0742 115.804 85.5277 109.59 87.6014 103.834C89.6752 98.0782 93.2895 93.0024 98.0503 89.16C98.1892 89.0284 98.3538 88.927 98.5337 88.862C98.7136 88.797 98.905 88.7698 99.0959 88.7821C99.2869 88.7945 99.4732 88.8462 99.6432 88.9339C99.8132 89.0215 99.9633 89.1434 100.084 89.2918C100.205 89.4401 100.294 89.6119 100.345 89.7962C100.396 89.9804 100.409 90.1734 100.383 90.3628C100.356 90.5523 100.29 90.7342 100.19 90.8971C100.09 91.0601 99.9573 91.2007 99.8003 91.31C95.5982 94.7029 92.3677 99.1463 90.4359 104.19C88.5042 109.234 87.9399 114.698 88.8003 120.03L89.0503 121.25C90.0497 126.117 89.687 131.165 88.0021 135.839C86.3171 140.512 83.3752 144.631 79.5003 147.74C79.2413 147.951 78.9144 148.062 78.5803 148.05Z" fill="#381805"/>
<path d="M74.9605 142.72C74.7584 142.723 74.5583 142.68 74.3748 142.596C74.1913 142.511 74.0293 142.386 73.9005 142.23C73.7813 142.092 73.6907 141.932 73.6341 141.759C73.5776 141.586 73.5561 141.403 73.571 141.221C73.5859 141.04 73.6369 140.863 73.7209 140.701C73.805 140.54 73.9204 140.396 74.0605 140.28C76.3983 138.3 78.19 135.754 79.2649 132.885C80.3397 130.015 80.6618 126.919 80.2005 123.89L80.0305 123.07C79.612 120.99 79.3578 118.88 79.2705 116.76C79.2829 116.41 79.4272 116.077 79.6746 115.828C79.922 115.58 80.2542 115.434 80.6045 115.42C80.9548 115.406 81.2975 115.525 81.5638 115.753C81.8301 115.981 82.0004 116.302 82.0405 116.65C82.1037 118.212 82.2674 119.769 82.5305 121.31L82.7705 122.51C83.5025 126.14 83.2465 129.899 82.0292 133.396C80.8119 136.893 78.6781 139.999 75.8505 142.39C75.6022 142.602 75.2869 142.719 74.9605 142.72Z" fill="#381805"/>
<path d="M157.781 113.94C157.449 113.939 157.129 113.82 156.878 113.603C156.627 113.387 156.461 113.088 156.411 112.76C156.201 111.33 155.951 109.9 155.681 108.51L155.541 107.84C153.828 99.3489 149.2 91.7237 142.459 86.2837C135.718 80.8437 127.288 77.9311 118.626 78.0497C109.965 78.1684 101.617 81.3109 95.0275 86.9335C88.438 92.5561 84.0211 100.305 82.541 108.84C82.5223 109.031 82.4645 109.215 82.3711 109.382C82.2777 109.55 82.1508 109.696 81.9983 109.812C81.8458 109.927 81.6711 110.01 81.485 110.056C81.2989 110.101 81.1055 110.107 80.9169 110.074C80.7283 110.04 80.5486 109.969 80.389 109.863C80.2295 109.757 80.0935 109.619 79.9897 109.458C79.8859 109.297 79.8164 109.117 79.7856 108.928C79.7549 108.739 79.7635 108.546 79.811 108.36C81.3828 99.2725 86.0542 91.01 93.0305 84.978C100.007 78.946 108.857 75.517 118.077 75.2742C127.296 75.0314 136.315 77.9898 143.599 83.6462C150.883 89.3027 155.983 97.3078 158.031 106.3L158.241 107.3C158.571 108.96 158.871 110.66 159.121 112.36C159.148 112.54 159.139 112.724 159.095 112.9C159.05 113.077 158.971 113.243 158.863 113.388C158.754 113.534 158.617 113.657 158.461 113.75C158.304 113.843 158.131 113.904 157.951 113.93L157.781 113.94Z" fill="#381805"/>
<path d="M155.589 152.73C155.47 152.749 155.349 152.749 155.229 152.73C155.051 152.687 154.884 152.609 154.737 152.5C154.59 152.391 154.466 152.254 154.373 152.096C154.279 151.939 154.219 151.764 154.194 151.583C154.169 151.401 154.181 151.217 154.229 151.04C156.858 141.182 157.871 130.963 157.229 120.78C157.207 120.592 157.223 120.402 157.276 120.221C157.33 120.04 157.419 119.871 157.54 119.726C157.661 119.581 157.81 119.461 157.978 119.376C158.147 119.29 158.331 119.239 158.519 119.227C158.708 119.215 158.897 119.241 159.075 119.304C159.253 119.368 159.416 119.467 159.555 119.595C159.693 119.724 159.804 119.879 159.881 120.052C159.957 120.225 159.997 120.411 159.999 120.6C160.663 131.082 159.619 141.602 156.909 151.75C156.821 152.032 156.645 152.278 156.408 152.454C156.171 152.63 155.885 152.727 155.589 152.73Z" fill="#381805"/>
<path d="M71.9301 136.75C71.5807 136.753 71.2438 136.62 70.9901 136.38C70.8493 136.257 70.735 136.106 70.6543 135.937C70.5736 135.768 70.5281 135.584 70.5206 135.397C70.5131 135.21 70.5438 135.023 70.6108 134.849C70.6777 134.674 70.7796 134.514 70.9101 134.38C72.0919 133.103 72.97 131.575 73.4791 129.911C73.9881 128.247 74.115 126.49 73.8501 124.77L73.7401 124.29C72.2872 117.052 72.5843 109.571 74.6066 102.471C76.629 95.3709 80.3181 88.8565 85.3669 83.4702C90.4157 78.0839 96.6781 73.9815 103.633 71.5046C110.587 69.0277 118.033 68.2478 125.35 69.23C125.697 69.2986 126.005 69.4971 126.211 69.7849C126.417 70.0727 126.506 70.4283 126.458 70.779C126.411 71.1298 126.232 71.4493 125.957 71.6725C125.683 71.8957 125.333 72.0057 124.98 71.98C118.165 71.0614 111.23 71.7691 104.741 74.0453C98.2525 76.3215 92.3949 80.1016 87.6475 85.0762C82.9001 90.0509 79.3979 96.0788 77.4274 102.667C75.4569 109.255 75.074 116.216 76.3101 122.98L76.4801 123.75C76.9223 125.97 76.8319 128.263 76.2166 130.441C75.6012 132.619 74.4784 134.62 72.9401 136.28C72.8137 136.424 72.6586 136.541 72.4847 136.621C72.3108 136.702 72.1219 136.746 71.9301 136.75Z" fill="#381805"/>
<path d="M164.5 140.7H164.33C163.965 140.652 163.634 140.463 163.407 140.173C163.181 139.883 163.077 139.516 163.12 139.15C164.439 128.6 164.078 117.907 162.05 107.47L161.87 106.58C160.328 98.9717 156.784 91.9126 151.604 86.1311C146.423 80.3495 139.794 76.0547 132.4 73.69C132.06 73.5794 131.777 73.3416 131.609 73.0265C131.441 72.7113 131.402 72.3434 131.5 72C131.615 71.6499 131.863 71.3591 132.19 71.1906C132.518 71.0222 132.899 70.9896 133.25 71.1C140.888 73.5548 147.759 77.9482 153.192 83.8512C158.626 89.7541 162.435 96.9651 164.25 104.78L164.53 106.07C166.757 117.081 167.189 128.381 165.81 139.53C165.758 139.845 165.6 140.133 165.361 140.346C165.123 140.559 164.819 140.684 164.5 140.7Z" fill="#381805"/>
<path d="M70.2396 200.34H47.8496V177.95" stroke="#F3C10E" stroke-width="7" stroke-linecap="round" stroke-linejoin="round"/>
<path d="M70.2396 31.66H47.8496V54.05" stroke="#F3C10E" stroke-width="7" stroke-linecap="round" stroke-linejoin="round"/>
<path d="M166.76 200.34H189.15V177.95" stroke="#F3C10E" stroke-width="7" stroke-linecap="round" stroke-linejoin="round"/>
<path d="M166.76 31.66H189.15V54.05" stroke="#F3C10E" stroke-width="7" stroke-linecap="round" stroke-linejoin="round"/>
</g>
<defs>
<clipPath id="clip0_4501_2748">
<rect width="228" height="228" fill="white" transform="translate(0.5)"/>
</clipPath>
</defs>
</svg>
