<svg width="229" height="228" viewBox="0 0 229 228" fill="none" xmlns="http://www.w3.org/2000/svg">
<g clip-path="url(#clip0_4501_4631)">
<path fill-rule="evenodd" clip-rule="evenodd" d="M99.55 163.32C99.55 144.79 84.16 128.93 65.5 129C46.84 129.07 31.5 144.79 31.5 163.32C31.5 185.69 57.55 214.78 65.55 214.78C73.55 214.78 99.55 185.69 99.55 163.32ZM65.5 143.52C69.4161 143.52 73.2442 144.681 76.5003 146.857C79.7564 149.033 82.2942 152.125 83.7928 155.743C85.2914 159.361 85.6835 163.342 84.9195 167.183C84.1556 171.024 82.2698 174.552 79.5007 177.321C76.7316 180.09 73.2036 181.976 69.3628 182.74C65.522 183.504 61.5408 183.112 57.9229 181.613C54.3049 180.114 51.2126 177.577 49.0369 174.321C46.8613 171.064 45.7 167.236 45.7 163.32C45.7 158.069 47.7861 153.033 51.4993 149.32C55.2125 145.606 60.2487 143.52 65.5 143.52Z" fill="white"/>
<path d="M67.29 183.58C78.2197 183.58 87.08 174.72 87.08 163.79C87.08 152.86 78.2197 144 67.29 144C56.3603 144 47.5 152.86 47.5 163.79C47.5 174.72 56.3603 183.58 67.29 183.58Z" fill="white"/>
<path d="M65.7495 126.25H65.4995C60.6602 126.263 55.8714 127.234 51.409 129.106C46.9466 130.979 42.899 133.716 39.4995 137.16C32.382 144.235 28.346 153.834 28.2695 163.87C28.2695 174.3 33.6195 187.46 42.9495 199.96C49.3695 208.57 59.1695 218.62 65.6195 218.62C72.0695 218.62 81.8395 208.57 88.2695 200C97.5995 187.5 102.95 174.34 102.95 163.91C102.881 153.873 98.8435 144.271 91.7195 137.2C88.3204 133.755 84.2728 131.018 79.8104 129.145C75.3479 127.273 70.5589 126.302 65.7195 126.29L65.7495 126.25ZM82.9795 196C74.9795 206.66 67.5495 212 65.5995 212C63.6495 212 56.1695 206.65 48.2195 196C39.7195 184.61 34.8495 172.89 34.8495 163.85C34.9268 155.579 38.2653 147.673 44.1395 141.85C46.9294 139.014 50.2533 136.759 53.9195 135.214C57.5856 133.669 61.5213 132.866 65.4995 132.85H65.7295C69.7029 132.869 73.6332 133.673 77.2941 135.218C80.9549 136.763 84.2738 139.017 87.0595 141.85C92.9337 147.673 96.2723 155.579 96.3495 163.85C96.3495 172.91 91.4995 184.63 82.9795 196Z" fill="#381805"/>
<path d="M65.6002 140.77C61.0311 140.768 56.5639 142.121 52.7638 144.658C48.9638 147.195 46.0014 150.802 44.2515 155.023C42.5016 159.244 42.0427 163.889 42.9329 168.37C43.8231 172.852 46.0223 176.969 49.2525 180.201C52.4827 183.432 56.5987 185.633 61.08 186.525C65.5612 187.418 70.2064 186.961 74.4279 185.213C78.6495 183.465 82.2578 180.504 84.7965 176.705C87.3352 172.906 88.6902 168.439 88.6902 163.87C88.685 157.747 86.2509 151.876 81.9221 147.545C77.5933 143.215 71.7234 140.778 65.6002 140.77ZM65.6002 180.36C62.3364 180.36 59.1459 179.392 56.4323 177.579C53.7187 175.765 51.6038 173.188 50.3553 170.172C49.1067 167.156 48.7806 163.838 49.418 160.637C50.0555 157.436 51.628 154.496 53.9365 152.189C56.2451 149.882 59.186 148.311 62.3874 147.676C65.5887 147.04 68.9067 147.369 71.9215 148.619C74.9363 149.869 77.5125 151.986 79.3244 154.7C81.1362 157.415 82.1022 160.606 82.1002 163.87C82.0949 168.244 80.3545 172.436 77.261 175.528C74.1676 178.62 69.9738 180.357 65.6002 180.36Z" fill="#381805"/>
<path opacity="0.37" fill-rule="evenodd" clip-rule="evenodd" d="M209.87 71.42C209.87 52.89 194.5 37 175.82 37.1C157.14 37.2 141.82 52.89 141.82 71.42C141.82 93.79 167.82 122.88 175.82 122.88C183.82 122.88 209.87 93.79 209.87 71.42ZM175.82 51.62C179.736 51.62 183.565 52.7813 186.821 54.9569C190.077 57.1326 192.614 60.2249 194.113 63.8429C195.612 67.4609 196.004 71.442 195.24 75.2828C194.476 79.1236 192.59 82.6517 189.821 85.4207C187.052 88.1898 183.524 90.0756 179.683 90.8396C175.842 91.6036 171.861 91.2114 168.243 89.7128C164.625 88.2142 161.533 85.6764 159.357 82.4203C157.182 79.1642 156.02 75.3361 156.02 71.42C156.02 66.1687 158.106 61.1325 161.82 57.4193C165.533 53.7061 170.569 51.62 175.82 51.62Z" fill="#381805"/>
<path d="M175.819 91.21C186.749 91.21 195.609 82.3497 195.609 71.42C195.609 60.4903 186.749 51.63 175.819 51.63C164.89 51.63 156.029 60.4903 156.029 71.42C156.029 82.3497 164.89 91.21 175.819 91.21Z" fill="white"/>
<path d="M175.97 33.8H175.69C170.851 33.813 166.062 34.7837 161.599 36.6561C157.137 38.5286 153.09 41.2658 149.69 44.71C142.581 51.7873 138.558 61.3887 138.5 71.42C138.5 81.85 143.85 95.01 153.18 107.51C159.6 116.12 169.39 126.18 175.85 126.18C182.31 126.18 192.06 116.12 198.5 107.51C207.82 95.01 213.17 81.85 213.17 71.42C213.101 61.3829 209.064 51.7808 201.94 44.71C198.541 41.2645 194.494 38.5264 190.031 36.6538C185.569 34.7813 180.78 33.8113 175.94 33.8H175.97ZM193.2 103.57C185.2 114.23 177.77 119.57 175.82 119.57C173.87 119.57 166.39 114.22 158.44 103.57C149.94 92.18 145.07 80.46 145.07 71.42C145.143 63.1482 148.482 55.2405 154.36 49.42C157.15 46.584 160.474 44.3285 164.14 42.7838C167.806 41.2391 171.742 40.4357 175.72 40.42H175.94C179.915 40.4383 183.847 41.243 187.509 42.7877C191.172 44.3323 194.492 46.5864 197.28 49.42C203.154 55.243 206.493 63.1491 206.57 71.42C206.57 80.46 201.69 92.18 193.2 103.57Z" fill="#381805"/>
<path d="M175.821 48.32C171.252 48.318 166.785 49.6711 162.985 52.2082C159.184 54.7453 156.222 58.3523 154.472 62.5731C152.722 66.7939 152.263 71.4388 153.154 75.9205C154.044 80.4021 156.243 84.519 159.473 87.7506C162.703 90.9822 166.819 93.1833 171.301 94.0754C175.782 94.9675 180.427 94.5107 184.649 92.7626C188.87 91.0145 192.478 88.0537 195.017 84.2547C197.556 80.4557 198.911 75.9892 198.911 71.42C198.906 65.2969 196.472 59.4259 192.143 55.0952C187.814 50.7646 181.944 48.328 175.821 48.32ZM175.821 87.91C172.557 87.912 169.365 86.9457 166.65 85.1334C163.935 83.3211 161.819 80.7443 160.569 77.7289C159.319 74.7135 158.991 71.3951 159.627 68.1935C160.264 64.9919 161.836 62.0509 164.144 59.7428C166.452 57.4346 169.393 55.8629 172.594 55.2266C175.796 54.5902 179.114 54.9178 182.13 56.1679C185.145 57.418 187.722 59.5344 189.534 62.2493C191.347 64.9643 192.313 68.1558 192.311 71.42C192.306 75.7918 190.567 79.983 187.475 83.0744C184.384 86.1657 180.193 87.9047 175.821 87.91Z" fill="#381805"/>
<path d="M131.91 101.19H97.4001C96.3868 101.19 95.4146 101.59 94.6953 102.304C93.9761 103.018 93.568 103.987 93.5601 105V124.78C93.5587 125.269 93.6468 125.753 93.8201 126.21L67.5801 158.06L70.3201 160.32L96.5001 128.62C96.8488 128.716 97.2084 128.766 97.5701 128.77H131.96C133.021 128.77 134.038 128.349 134.788 127.598C135.539 126.848 135.96 125.831 135.96 124.77V105.15C135.955 104.624 135.846 104.104 135.639 103.62C135.433 103.136 135.133 102.698 134.757 102.33C134.381 101.962 133.935 101.672 133.447 101.476C132.958 101.281 132.436 101.183 131.91 101.19ZM132.91 124.8C132.91 125.065 132.805 125.32 132.617 125.507C132.43 125.695 132.175 125.8 131.91 125.8H97.5001C97.3717 125.808 97.243 125.79 97.1219 125.746C97.0008 125.703 96.89 125.635 96.7963 125.547C96.7025 125.459 96.6279 125.352 96.5769 125.234C96.526 125.116 96.4998 124.989 96.5001 124.86V105C96.5001 104.78 96.5875 104.569 96.7432 104.413C96.8988 104.257 97.1099 104.17 97.3301 104.17H131.84C132.105 104.17 132.36 104.275 132.547 104.463C132.735 104.65 132.84 104.905 132.84 105.17L132.91 124.8Z" fill="#F3C10E"/>
<path d="M129.449 117.43H124.539V122.34H129.449V117.43Z" fill="#F3C10E"/>
<path d="M119.621 117.43H99.9707V122.34H119.621V117.43Z" fill="#F3C10E"/>
<path d="M129.451 107.61H99.9707V112.52H129.451V107.61Z" fill="#F3C10E"/>
<path d="M67.0898 164.92C69.0669 164.92 70.6698 163.317 70.6698 161.34C70.6698 159.363 69.0669 157.76 67.0898 157.76C65.1126 157.76 63.5098 159.363 63.5098 161.34C63.5098 163.317 65.1126 164.92 67.0898 164.92Z" fill="#F3C10E"/>
<path d="M67.0907 167C65.9792 167 64.8926 166.67 63.9684 166.053C63.0442 165.435 62.3239 164.558 61.8985 163.531C61.4731 162.504 61.3618 161.374 61.5787 160.284C61.7955 159.193 62.3308 158.192 63.1168 157.406C63.9027 156.62 64.9041 156.085 65.9943 155.868C67.0845 155.651 68.2145 155.762 69.2414 156.188C70.2683 156.613 71.146 157.334 71.7636 158.258C72.3811 159.182 72.7107 160.268 72.7107 161.38C72.7107 162.118 72.5653 162.849 72.2829 163.531C72.0005 164.213 71.5865 164.832 71.0646 165.354C70.5428 165.876 69.9232 166.29 69.2414 166.572C68.5595 166.855 67.8287 167 67.0907 167ZM67.0907 159.84C66.7861 159.84 66.4884 159.93 66.2351 160.1C65.9819 160.269 65.7845 160.509 65.6679 160.791C65.5514 161.072 65.5209 161.382 65.5803 161.68C65.6397 161.979 65.7864 162.254 66.0018 162.469C66.2171 162.684 66.4915 162.831 66.7903 162.89C67.089 162.95 67.3986 162.919 67.68 162.803C67.9614 162.686 68.202 162.489 68.3712 162.236C68.5404 161.982 68.6307 161.685 68.6307 161.38C68.636 161.174 68.6002 160.97 68.5252 160.778C68.4502 160.587 68.3376 160.412 68.194 160.265C68.0505 160.118 67.8789 160.001 67.6894 159.921C67.4999 159.841 67.2964 159.8 67.0907 159.8V159.84Z" fill="#F3C10E"/>
<path d="M123.189 58.94H71.3092C69.4314 58.9373 67.6289 59.6787 66.2964 61.0019C64.9639 62.325 64.2098 64.1222 64.1992 66V108" stroke="#381805" stroke-width="5" stroke-linecap="round" stroke-linejoin="round"/>
<path d="M72.4409 104.45L64.2009 112.7L55.9609 104.45" stroke="#381805" stroke-width="5" stroke-linecap="round" stroke-linejoin="round"/>
<path d="M118.24 189.7H170.13C172.013 189.7 173.819 188.952 175.151 187.62C176.482 186.289 177.23 184.483 177.23 182.6V140.6" stroke="#381805" stroke-width="5" stroke-linecap="round" stroke-linejoin="round"/>
<path d="M168.99 144.18L177.23 135.94L185.47 144.18" stroke="#381805" stroke-width="5" stroke-linecap="round" stroke-linejoin="round"/>
</g>
<defs>
<clipPath id="clip0_4501_4631">
<rect width="228" height="228" fill="white" transform="translate(0.5)"/>
</clipPath>
</defs>
</svg>
