<svg width="52" height="52" viewBox="0 0 52 52" fill="none" xmlns="http://www.w3.org/2000/svg">
<g id="icon">
<path id="Vector" d="M6.5 16.7333V7.1C6.5 6.76863 6.76863 6.5 7.1 6.5H21.0667C21.398 6.5 21.6667 6.76863 21.6667 7.1V16.7333C21.6667 17.0647 21.398 17.3333 21.0667 17.3333H7.1C6.76863 17.3333 6.5 17.0647 6.5 16.7333Z" stroke="#381805" stroke-width="1.5"/>
<path id="Vector_2" d="M30.333 44.9001V35.2667C30.333 34.9354 30.6016 34.6667 30.933 34.6667H44.8997C45.231 34.6667 45.4997 34.9354 45.4997 35.2667V44.9001C45.4997 45.2315 45.231 45.5001 44.8997 45.5001H30.933C30.6016 45.5001 30.333 45.2315 30.333 44.9001Z" stroke="#381805" stroke-width="1.5"/>
<path id="Vector_3" d="M30.333 27.5667V7.1C30.333 6.76863 30.6016 6.5 30.933 6.5H44.8997C45.231 6.5 45.4997 6.76863 45.4997 7.1V27.5667C45.4997 27.898 45.231 28.1667 44.8997 28.1667H30.933C30.6016 28.1667 30.333 27.898 30.333 27.5667Z" stroke="#381805" stroke-width="1.5"/>
<path id="Vector_4" d="M6.5 44.8999V24.4333C6.5 24.1019 6.76863 23.8333 7.1 23.8333H21.0667C21.398 23.8333 21.6667 24.1019 21.6667 24.4333V44.8999C21.6667 45.2313 21.398 45.4999 21.0667 45.4999H7.1C6.76863 45.4999 6.5 45.2313 6.5 44.8999Z" stroke="#381805" stroke-width="1.5"/>
</g>
</svg>
