<svg width="52" height="52" viewBox="0 0 52 52" fill="none" xmlns="http://www.w3.org/2000/svg">
<g id="icon">
<path id="Vector" d="M13 39L23.8333 39" stroke="#F3C10E" stroke-width="1.5" stroke-linecap="round" stroke-linejoin="round"/>
<path id="Vector_2" d="M13 32.5L15.1667 32.5" stroke="#FFD75F" stroke-width="1.5" stroke-linecap="round" stroke-linejoin="round"/>
<path id="Vector_3" d="M13 43.3333L19.5 43.3333" stroke="#FFD75F" stroke-width="1.5" stroke-linecap="round" stroke-linejoin="round"/>
<path id="Vector_4" d="M30.3333 27.0834V47.8334C30.3333 48.938 29.4379 49.8334 28.3333 49.8334H8.5C7.39543 49.8334 6.5 48.938 6.5 47.8334V24.389C6.5 23.2844 7.39543 22.389 8.5 22.389H15.4375M15.4375 22.389V22.389C15.4375 21.9901 15.7609 21.6667 16.1597 21.6667H20.9444C21.9416 21.6667 22.75 22.4751 22.75 23.4723V23.4723C22.75 24.4695 21.9416 25.2779 20.9444 25.2779H17.4375C16.3329 25.2779 15.4375 24.3824 15.4375 23.2779V22.389Z" stroke="#381805" stroke-width="1.5" stroke-linecap="round" stroke-linejoin="round"/>
<path id="Vector_5" d="M35.5635 14.7986L45.6708 24.9059L43.144 27.4327L33.0366 17.3254" stroke="#381805" stroke-width="1.5" stroke-linecap="round" stroke-linejoin="round"/>
<path id="Vector_6" d="M35.5601 14.8009L33.8755 13.1163C33.8755 13.1163 33.4544 9.32609 37.6657 5.11471L36.4023 3.8513L26.295 10.5895L27.5584 11.8529L25.8739 13.5375L24.6105 12.2741L21.6625 15.222L27.5584 21.118L30.5064 18.17L29.243 16.9066L30.9275 15.222L33.0332 17.3277L35.5601 14.8009Z" stroke="#FFD75F" stroke-width="1.5" stroke-linecap="round" stroke-linejoin="round"/>
</g>
</svg>
