<svg width="52" height="52" viewBox="0 0 52 52" fill="none" xmlns="http://www.w3.org/2000/svg">
<path d="M18.7924 13.9151C18.3256 12.9837 16.9769 12.9837 16.5101 13.9151L15.8164 15.2991" stroke="#381805" stroke-width="1.5" stroke-linecap="round" stroke-linejoin="round"/>
<path d="M16.1696 34.4912L13.9688 35.6311" stroke="#381805" stroke-linecap="round" stroke-linejoin="round"/>
<path d="M7.29783 35.4509L7.03884 36.9381C6.86053 37.9619 7.95183 38.7427 8.88544 38.2591L10.0716 37.6448" stroke="#381805" stroke-linecap="round" stroke-linejoin="round"/>
<path d="M8.12075 30.7777L8.43668 28.9637L7.46387 28.0305" stroke="#381805" stroke-linecap="round" stroke-linejoin="round"/>
<path d="M4.54521 25.2294L2.55304 23.3185C1.79764 22.5939 2.2135 21.3308 3.25691 21.1806L4.81193 20.9568" stroke="#381805" stroke-linecap="round" stroke-linejoin="round"/>
<path d="M9.16992 20.3301L11.3922 20.0102L12.5167 17.7666" stroke="#381805" stroke-linecap="round" stroke-linejoin="round"/>
<path d="M22.75 20.7713L19.2044 13.88C18.9768 13.4377 18.5343 13.2166 18.0918 13.2166V34.5244L25.1822 38.1018C26.0925 38.5611 27.1565 37.8195 26.9827 36.847L25.6289 29.2742L31.3652 23.9138C32.1017 23.2256 31.6963 22.0259 30.679 21.8832L22.75 20.7713Z" stroke="#381805" stroke-width="1.5" stroke-linecap="round" stroke-linejoin="round"/>
<path d="M46.6624 40.0707C47.6096 39.1301 48.1952 37.8321 48.1952 36.3987C48.1952 33.5268 45.8447 31.1987 42.9452 31.1987C40.0458 31.1987 37.6953 33.5268 37.6953 36.3987C37.6953 39.2705 40.0458 41.5986 42.9452 41.5986C44.3975 41.5986 45.712 41.0146 46.6624 40.0707ZM46.6624 40.0707L49.9452 43.3319" stroke="#381805" stroke-width="1.5" stroke-linecap="round" stroke-linejoin="round"/>
<path d="M45.4997 26.0001V8.66675H17.333V43.3334H33.7636" stroke="#381805" stroke-width="1.5" stroke-linecap="round" stroke-linejoin="round"/>
</svg>
