<svg xmlns="http://www.w3.org/2000/svg" version="1.1" viewBox="0.00 0.00 900.00 900.00">
  <path fill="#fff" d="
  M 233.86 398.36
  C 227.79 406.70 221.72 415.66 216.66 424.36
  C 134.67 565.38 191.94 744.38 339.82 812.95
  Q 350.37 817.85 361.15 821.46
  A 0.19 0.19 0.0 0 1 361.04 821.83
  Q 234.60 786.92 157.68 683.55
  C 116.89 628.75 93.72 562.50 89.00 494.25
  C 84.37 427.38 99.73 358.67 131.54 300.05
  C 181.02 208.85 267.14 143.25 368.51 118.97
  Q 383.41 115.40 387.82 113.83
  C 419.48 102.56 442.91 76.81 453.02 44.76
  Q 453.22 44.12 453.42 44.76
  C 465.80 83.61 494.56 109.35 534.37 118.07
  C 676.59 149.22 787.10 264.36 813.24 407.05
  C 834.82 524.88 795.27 644.89 710.95 728.21
  Q 642.83 795.51 547.74 821.16
  Q 547.26 821.29 547.72 821.12
  C 720.73 756.01 783.40 546.88 672.74 397.46
  A 0.39 0.38 17.4 0 0 672.06 397.81
  C 702.78 487.23 677.62 585.29 607.20 647.97
  Q 560.87 689.21 498.31 702.12
  Q 497.82 702.22 498.29 702.07
  C 596.35 669.85 631.20 550.69 566.80 470.81
  C 534.15 430.31 482.75 410.89 431.58 418.46
  C 364.03 428.46 310.94 486.60 307.75 554.96
  C 304.62 621.88 345.43 681.18 409.25 702.11
  Q 409.38 702.15 409.24 702.12
  C 309.22 681.38 232.70 599.89 223.20 497.26
  Q 218.63 447.87 234.60 398.73
  A 0.42 0.42 0.0 0 0 233.86 398.36
  Z" />
</svg>