<svg width="329" height="49" viewBox="0 0 329 49" fill="none" xmlns="http://www.w3.org/2000/svg">
<g clip-path="url(#clip0_986_5926)">
<path opacity="0.5" d="M317.961 42.8887C320.785 42.8887 323.615 41.0268 325.769 37.3211C330.077 29.8976 330.077 17.8677 325.769 10.4502C323.615 6.74454 320.785 4.88262 317.961 4.88263L220 4.88263L220 42.8887L317.961 42.8887Z" fill="url(#paint0_linear_986_5926)"/>
</g>
<path opacity="0.5" fill-rule="evenodd" clip-rule="evenodd" d="M18.6558 6.42546C20.0258 5.47983 21.7253 5.16065 23.6107 5.39125L49.0369 5.84632L133.75 5.84631L133.75 43.3437L37.7372 43.3437C36.0228 43.3437 34.3061 42.6388 32.7459 41.233C28.9818 39.1016 25.0538 35.446 21.7797 30.7029C14.9545 20.8152 13.5559 9.94584 18.6558 6.42546Z" fill="url(#paint1_linear_986_5926)"/>
<path d="M19.4303 8.06351C21.0654 6.93486 23.8701 6.94719 27.5713 8.92339C31.1706 10.8452 35.0964 14.3916 38.3894 19.1621C41.6823 23.9326 43.6064 28.8608 44.1271 32.9077C44.6626 37.0691 43.6796 39.696 42.0445 40.8246C40.4095 41.9533 37.6047 41.9409 33.9036 39.9647C30.3043 38.043 26.3785 34.4965 23.0855 29.726C19.7925 24.9555 17.8685 20.0273 17.3478 15.9804C16.8123 11.819 17.7953 9.19216 19.4303 8.06351Z" stroke="#FFD75F" stroke-width="4"/>
<path d="M9.002 21.7158V32.1738H6.132L2.814 23.8718C2.94 24.8098 3.108 26.1678 3.108 28.0998V32.1738H1.106V21.7158H3.906L7.294 30.0318C7.182 29.3178 6.986 27.8618 6.986 26.3078V21.7158H9.002ZM17.4398 21.7158L17.2018 23.3258H13.4218V26.0558H16.7118V27.6518H13.4218V30.5358H17.4678V32.1738H11.1958V21.7158H17.4398ZM30.5902 21.7158L28.7702 32.1738H25.8722L24.4302 23.9978L22.9042 32.1738H20.0902L18.2702 21.7158H20.4962L21.6862 30.4518L23.2822 21.7158H25.6202L27.1462 30.4518L28.4902 21.7158H30.5902ZM35.0597 21.4638C36.6137 21.4638 37.6777 21.9398 38.5737 22.7798L37.5237 24.0118C36.7817 23.4098 36.0537 23.1298 35.2137 23.1298C34.3037 23.1298 33.6737 23.5218 33.6737 24.2638C33.6737 24.9918 34.0797 25.2998 35.7877 25.8178C37.6777 26.4338 38.8817 27.2178 38.8817 29.1498C38.8817 31.0678 37.3697 32.4118 34.8357 32.4118C33.0857 32.4118 31.8257 31.7958 30.9577 30.9558L32.0917 29.6958C32.8617 30.3398 33.7017 30.7318 34.7657 30.7318C35.8437 30.7318 36.5717 30.2278 36.5717 29.3038C36.5717 28.4638 36.1657 28.0998 34.5697 27.6238C32.3017 26.9098 31.3917 25.9998 31.3917 24.4178C31.3917 22.6398 32.9457 21.4638 35.0597 21.4638Z" fill="#381805"/>
<path d="M56.48 28.008H53.6V17.432H59.488V20.072H56.48V28.008ZM54.192 27.416H55.872V19.464H58.896V18.024H54.192V27.416ZM63.936 19.272C66.064 19.272 67.408 20.632 67.408 22.424C67.408 24.584 66.032 26.12 62.496 29.672H67.696L67.504 31H60.672V29.736C64.752 25.48 65.76 24.376 65.76 22.504C65.76 21.288 64.976 20.584 63.856 20.584C62.88 20.584 62.24 20.968 61.472 21.848L60.432 21.016C61.36 19.848 62.496 19.272 63.936 19.272ZM73.3785 19.272C75.9705 19.272 77.2505 21.416 77.2505 25.224C77.2505 29.064 75.9705 31.208 73.3785 31.208C70.7865 31.208 69.5065 29.064 69.5065 25.224C69.5065 21.4 70.7865 19.272 73.3785 19.272ZM73.3785 20.536C71.9385 20.536 71.1705 21.848 71.1705 25.224C71.1705 28.632 71.9385 29.944 73.3785 29.944C74.8185 29.944 75.6025 28.632 75.6025 25.224C75.6025 21.848 74.8185 20.536 73.3785 20.536ZM82.1391 19.272C84.2671 19.272 85.6111 20.632 85.6111 22.424C85.6111 24.584 84.2351 26.12 80.6991 29.672H85.8991L85.7071 31H78.8751V29.736C82.9551 25.48 83.9631 24.376 83.9631 22.504C83.9631 21.288 83.1791 20.584 82.0591 20.584C81.0831 20.584 80.4431 20.968 79.6751 21.848L78.6351 21.016C79.5631 19.848 80.6991 19.272 82.1391 19.272ZM90.6536 19.272C92.8616 19.272 94.0776 20.648 94.0776 22.2C94.0776 23.672 93.1176 24.552 91.8216 24.872C93.2776 25 94.4456 25.912 94.4456 27.672C94.4456 29.688 92.8936 31.208 90.4936 31.208C89.1176 31.208 87.9016 30.712 87.0216 29.656L87.9816 28.776C88.7336 29.56 89.5176 29.912 90.4456 29.912C91.9016 29.912 92.7816 29.016 92.7816 27.64C92.7816 26.056 91.8856 25.576 90.4776 25.576H89.6136L89.8056 24.344H90.3976C91.5336 24.344 92.4776 23.656 92.4776 22.312C92.4776 21.224 91.7256 20.552 90.5736 20.552C89.6456 20.552 88.9576 20.856 88.1896 21.576L87.3576 20.632C88.3336 19.72 89.4056 19.272 90.6536 19.272ZM108.479 23.112V29.464H98.5266V23.048H101.535C101.407 22.744 101.119 22.28 100.911 22.072C103.327 21.672 104.319 20.856 104.671 19.624H103.247C102.879 20.072 102.415 20.52 101.807 20.984L101.087 20.12C102.063 19.464 102.783 18.392 103.151 17.512L104.447 17.72C104.319 18.008 104.143 18.296 103.967 18.584H108.927L109.151 18.536L110.111 18.792C109.727 19.576 109.071 20.504 108.559 21.032L107.423 20.68C107.711 20.408 107.983 19.992 108.223 19.624H106.063C106.351 20.696 107.439 21.768 110.271 22.152L109.935 23.384C109.327 23.272 108.847 23.208 108.479 23.112ZM100.975 18.6V19.704H96.8466V18.6H100.975ZM101.135 21.848C100.687 21.976 100.207 22.12 99.7266 22.248L99.4706 22.312L99.3106 22.36L99.1506 22.408C98.2706 22.648 97.3906 22.888 96.7026 23.064L96.2546 21.88C97.2146 21.688 98.7346 21.352 100.175 21L100.335 20.968C100.559 20.904 100.783 20.856 101.007 20.792L101.135 21.848ZM101.999 23.048H108.255C106.751 22.568 105.839 21.752 105.375 20.952C104.799 21.88 103.791 22.616 101.999 23.048ZM99.9186 24.888H107.023V23.944H99.9186V24.888ZM99.9186 26.696H107.023V25.736H99.9186V26.696ZM99.9186 28.568H107.023V27.576H99.9186V28.568ZM102.271 30.136C101.039 30.92 99.0706 31.784 97.2786 32.264L96.7826 31.048C98.0146 30.808 100.031 30.136 101.071 29.512L102.271 30.136ZM110.319 31.496L108.623 32.184C107.711 31.688 106.063 30.888 104.543 30.344L105.583 29.624C107.199 30.168 109.231 30.984 110.319 31.496ZM124.623 27.656V32.136H123.263V27.88L118.735 28.744L118.511 27.416L123.263 26.488V17.528H124.623V26.264L126.415 25.928L126.607 27.256L124.623 27.656ZM116.223 25.928V32.12H114.863V25.896C114.335 27.4 113.503 29.224 112.975 29.944L111.951 28.904C112.927 27.704 113.903 25.576 114.399 24.04H112.383V22.696H114.863V17.592H116.223V22.696H118.527V24.04H116.223V24.216C116.671 24.696 118.063 26.744 118.383 27.192L117.471 28.344C117.231 27.8 116.735 26.712 116.223 25.928ZM118.655 18.68C118.527 19.08 118.399 19.512 118.271 19.96L118.223 20.12L118.175 20.28C117.951 21.016 117.727 21.736 117.503 22.216L116.591 21.944C116.911 21.032 117.231 19.432 117.407 18.408L118.655 18.68ZM114.335 21.928L113.247 22.216C113.151 21.752 113.007 21.096 112.863 20.424L112.815 20.264L112.783 20.088C112.671 19.608 112.543 19.144 112.447 18.728L113.455 18.472C113.567 18.824 113.679 19.24 113.775 19.64L113.823 19.816L113.871 19.976C114.047 20.696 114.223 21.416 114.335 21.928ZM122.623 20.376L121.871 21.464C121.327 20.968 120.335 20.088 119.551 19.464L120.287 18.504C121.071 19.08 122.063 19.88 122.623 20.376ZM122.079 24.136L121.359 25.288C120.799 24.824 119.631 23.96 118.815 23.384L119.487 22.36C119.823 22.568 120.207 22.824 120.591 23.08L120.735 23.176C121.263 23.544 121.759 23.88 122.079 24.136ZM131.295 20.856C130.687 21.432 129.839 22.04 128.959 22.6L128.223 21.496C129.935 20.472 131.503 18.904 132.223 17.688H133.519C134.607 18.488 135.967 19.736 136.735 20.504L135.791 21.592C135.551 21.32 135.215 20.984 134.863 20.616V21.464H131.295V20.856ZM141.119 31.848C140.607 32.072 139.647 32.136 138.127 32.12L138.047 30.648C138.799 30.696 139.759 30.696 140.063 30.696C140.303 30.696 140.479 30.52 140.479 30.264V17.816H141.871V30.264C141.871 31.096 141.647 31.608 141.119 31.848ZM131.679 20.472H131.695H134.703C134.559 20.328 134.399 20.168 134.255 20.024L134.143 19.912L134.031 19.8C133.727 19.48 133.407 19.176 133.087 18.904C132.719 19.384 132.207 19.96 131.679 20.472ZM138.335 19.352V28.088H137.007V19.352H138.335ZM130.623 28.68C130.335 29.72 129.791 30.984 129.135 31.784C128.943 31.528 128.399 31.048 128.143 30.888C129.519 29.192 129.791 26.424 129.791 24.712V22.232H135.967V26.808H130.943C130.911 27.064 130.847 27.432 130.799 27.704H136.207V31.672H130.623V28.68ZM131.071 24.056H134.671V23.256H131.071V24.056ZM131.039 25.784H134.671V24.936H131.071C131.071 25.176 131.055 25.528 131.039 25.784ZM131.871 30.584H134.943V28.76H131.871V30.584ZM148.815 28.232V32.104H147.407V28.28C146.719 29.288 145.775 30.392 144.975 31.016L144.143 29.912C145.087 29.288 146.383 27.736 147.119 26.504H144.463V25.288H147.407V23.784H144.415V22.568H146.047C145.999 22.04 145.727 21.112 145.471 20.52L146.575 20.248H144.623V19.064H147.407V17.608H148.815V19.064H151.423V20.248H149.535L150.623 20.52C150.559 20.696 150.479 20.872 150.415 21.064L150.351 21.224C150.143 21.72 149.951 22.232 149.775 22.568H151.599V23.784H148.815V25.288H151.455V26.504H148.815V26.76C149.359 27.144 150.703 28.456 151.055 28.744L150.207 29.8C149.919 29.448 149.375 28.76 148.815 28.232ZM153.423 24.008V24.232C153.423 26.472 153.119 30.12 151.055 32.2C150.895 31.896 150.367 31.368 150.047 31.176C151.871 29.336 152.127 26.232 152.127 24.152V18.728L153.087 19C154.559 18.664 156.239 18.168 157.167 17.688L158.351 18.712C157.663 19.032 156.735 19.32 155.791 19.56L155.631 19.608C154.879 19.8 154.111 19.976 153.423 20.12V22.68H158.511V24.008H156.831V32.04H155.423V24.008H153.423ZM146.383 22.568H149.695L148.751 22.328C148.991 21.752 149.295 20.856 149.439 20.248H146.639C146.943 20.888 147.215 21.8 147.279 22.328L146.383 22.568ZM162.703 23.784C162.687 24.664 162.639 25.736 162.511 26.856L162.495 27.032C162.287 28.888 161.887 30.84 161.215 32.168C160.991 31.928 160.383 31.432 160.095 31.288C161.167 29.144 161.359 25.528 161.359 23.32V18.632H167.103V17.512H168.607V18.632H174.367V19.832H168.047L169.151 20.136C169.007 20.488 168.815 20.888 168.607 21.24H169.999C170.223 20.84 170.479 20.28 170.607 19.928L171.919 20.264C171.871 20.328 171.823 20.392 171.791 20.456L171.695 20.6C171.567 20.824 171.423 21.048 171.295 21.24H173.871V22.136H171.103V22.872H173.471V23.64H171.103V24.408H173.471V25.176H171.103V26.008H174.127V26.936H167.839C168.687 27.304 169.679 28.04 170.191 28.536L169.311 29.384C168.799 28.872 167.743 28.12 166.863 27.688L167.631 26.936H167.103V23.48C166.895 23.704 166.687 23.928 166.447 24.152L165.583 23.272C166.447 22.488 167.391 21.064 167.919 19.832H162.703V23.208C163.663 22.376 164.703 21.016 165.263 19.848L166.319 20.2C166.063 20.728 165.855 21.304 165.519 21.8V27.224H164.271V23.448C163.967 23.784 163.615 24.136 163.295 24.408C163.167 24.264 162.911 24.008 162.703 23.784ZM168.335 22.872H169.887V22.136H168.335V22.872ZM168.335 24.408H169.887V23.64H168.335V24.408ZM168.335 26.008H169.887V25.176H168.335V26.008ZM174.543 31.224L173.295 31.88C172.959 31.032 171.951 29.528 171.103 28.632L172.239 28.088C173.087 28.952 174.127 30.376 174.543 31.224ZM165.375 28.696C164.895 29.656 164.207 30.952 163.599 31.8L162.511 31.096C162.799 30.728 163.103 30.232 163.407 29.72L163.487 29.576C163.743 29.128 163.999 28.664 164.207 28.264L165.375 28.696ZM171.727 29.896C171.583 31.544 171.135 32.04 169.439 32.04H168.479C166.431 32.04 166.031 31.592 166.031 30.392V28.392H167.327V30.392C167.327 30.76 167.471 30.888 168.559 30.888H169.407C170.383 30.888 170.495 30.616 170.543 29.72L171.727 29.896ZM179.295 27.272C179.055 28.936 178.383 31.032 177.279 32.248C177.071 31.976 176.447 31.448 176.143 31.272C177.759 29.48 178.047 26.328 178.063 24.216V18.552H189.375V30.248C189.375 31.064 189.151 31.592 188.607 31.8C188.047 32.024 187.055 32.056 185.487 32.04L185.391 30.664C186.063 30.696 187.007 30.696 187.407 30.696H187.519C187.791 30.696 187.935 30.52 187.935 30.232V27.272H184.239V31.944H182.783V27.272H179.295ZM184.239 22.152H187.935V19.928H184.239V22.152ZM179.487 22.152H182.783V19.928H179.487V22.152ZM179.407 25.896H182.783V23.496H179.487V24.152C179.487 24.664 179.455 25.336 179.407 25.896ZM184.239 25.896H187.935V23.496H184.239V25.896ZM199.071 21.272V22.408H192.351V21.272H193.983C193.919 20.824 193.711 20.216 193.551 19.784L193.823 19.752H192.671V18.616H195.263V17.544H196.559V18.616H198.959V19.752H197.999L198.175 19.8C197.951 20.312 197.871 20.872 197.711 21.272H199.071ZM206.463 21.272V22.408H199.455V21.272H200.799C200.719 20.824 200.639 20.216 200.463 19.784L200.671 19.752H199.631V18.616H201.967V17.544H203.343V18.616H206.207V19.752H205.151L205.311 19.768C205.167 20.088 204.991 20.424 204.831 20.744L204.767 20.872C204.703 21.016 204.639 21.144 204.575 21.272H206.463ZM194.895 21.272H196.783L196.511 21.208C196.655 20.824 196.879 20.2 196.991 19.752H194.735C194.943 20.216 195.135 20.824 195.199 21.208L194.895 21.272ZM201.759 21.272H203.663L203.327 21.192C203.503 20.808 203.759 20.2 203.903 19.752H201.679C201.903 20.216 201.967 20.824 201.999 21.208L201.759 21.272ZM201.935 27.128C201.759 29.4 201.199 31.304 198.815 32.2L198.303 31.016C200.111 30.392 200.623 28.92 200.751 27.128H199.951V23.176H205.695V27.128H204.191V30.248C204.191 30.392 204.239 30.44 204.271 30.488C204.319 30.552 204.463 30.632 204.703 30.632H204.927C205.167 30.632 205.359 30.552 205.439 30.504C205.487 30.44 205.583 30.328 205.599 30.2C205.631 29.96 205.663 29.304 205.663 28.888L206.751 29.064C206.703 29.976 206.623 30.824 206.559 31.144C206.463 31.416 206.271 31.624 206.031 31.768C205.839 31.896 205.487 31.96 204.895 31.96H204.479C203.903 31.96 203.487 31.864 203.247 31.656C202.991 31.416 202.895 31.08 202.895 30.328V27.128H201.935ZM195.263 27.112C195.119 29.224 194.559 31.144 192.815 32.184L192.111 31.048C193.439 30.36 193.871 28.792 193.983 27.112H193.039V23.192H198.527V27.112H197.455V29.576C197.951 29.416 198.495 29.192 199.007 29L199.231 30.184C199.039 30.264 198.847 30.344 198.655 30.424L198.495 30.488C198.239 30.616 197.967 30.744 197.695 30.856L197.551 30.92C197.087 31.128 196.639 31.32 196.223 31.48L195.855 30.2L196.303 30.008V27.112H195.263ZM201.263 26.04H204.271V24.248H201.263V26.04ZM194.335 26.008H197.343V24.264H194.335V26.008ZM210.111 19.496V20.872H208.783V18.408H214.655V17.496H216.111V18.408H222.047V20.872H220.671V19.496H210.111ZM214.431 30.536C213.199 31.176 211.039 31.864 209.135 32.168L208.799 31.144C209.871 30.984 211.727 30.44 212.799 30.024H211.119V26.136C210.447 26.504 209.663 26.872 208.847 27.144L208.351 25.96C209.407 25.688 210.975 24.952 211.935 24.216H208.639V23.208H212.463V22.552H210.511V21.768H212.463V21.176H210.287V20.328H212.463V19.736H213.679V20.328H217.087V19.736H218.319V20.328H220.511V21.176H218.319V21.768H220.351V22.552H218.319V23.208H222.191V24.216H219.087C220.031 24.92 221.487 25.592 222.463 25.816L221.983 27.032C221.135 26.76 220.351 26.408 219.711 26.024V30.024H218.031C218.351 30.104 218.687 30.216 219.023 30.312L219.183 30.376C219.215 30.376 219.247 30.392 219.263 30.392L219.439 30.456C220.415 30.776 221.375 31.128 222.015 31.336L220.767 32.152C219.711 31.752 218.015 31.064 216.303 30.568L216.911 30.024H213.743L214.431 30.536ZM213.679 21.768H217.087V21.176H213.679V21.768ZM213.679 23.208H217.087V22.552H213.679V23.208ZM212.863 24.904H218.127C217.887 24.696 217.663 24.408 217.471 24.216H213.423C213.215 24.408 213.103 24.696 212.863 24.904ZM212.447 26.36H218.287V25.672H212.447V26.36ZM212.447 27.784H218.287V27.096H212.447V27.784ZM212.447 29.24H218.287V28.52H212.447V29.24ZM226.847 27.288V32.136H225.375V20.952H230.879C230.831 20.472 230.783 19.912 230.735 19.416H228.143V18.152H231.967C232.015 19.128 232.111 20.12 232.271 20.952H237.503V30.296C237.503 31.096 237.311 31.64 236.751 31.864C236.191 32.088 235.183 32.12 233.711 32.12L233.615 30.648C234.303 30.68 235.375 30.696 235.647 30.696C235.919 30.68 236.063 30.52 236.063 30.296V27.048C235.743 27.32 235.183 27.944 234.975 28.312C233.199 27.352 232.111 25.512 231.455 23.528C230.783 25.608 229.615 27.448 227.759 28.408C227.599 28.12 227.167 27.576 226.847 27.288ZM226.847 22.344V27.208C228.687 26.28 229.823 24.472 230.351 22.344H226.847ZM232.575 22.344C233.151 24.392 234.255 26.184 236.063 27.032V22.344H232.575ZM250.591 29.368C249.759 30.392 248.687 31.496 247.311 32.216L246.591 30.84C247.919 30.232 249.007 29.128 249.807 28.008C249.311 27.096 248.959 25.896 248.655 24.728L248.623 24.568C248.607 24.488 248.575 24.408 248.559 24.328L248.527 24.168C248.495 24.088 248.479 24.008 248.463 23.928C248.207 24.392 247.919 24.824 247.647 25.208C247.471 25 247.071 24.632 246.767 24.392H245.151V28.152L247.471 27.624L247.615 28.92C246.895 29.08 246.143 29.272 245.407 29.464L245.231 29.496C245.183 29.512 245.119 29.528 245.071 29.544L244.895 29.592C244.655 29.64 244.399 29.704 244.159 29.768L243.999 29.816C242.655 30.152 241.391 30.472 240.415 30.68L240.143 29.208L241.055 29V22.056H242.367V28.776L243.727 28.44V19.896H240.479V18.52H247.503V19.896H245.151V23.032H246.975V23.512C247.615 22.552 248.095 21.224 248.463 19.816L248.495 19.656C248.671 18.936 248.831 18.216 248.959 17.496L250.367 17.752C250.335 17.928 250.303 18.104 250.271 18.28L250.239 18.44C250.223 18.52 250.223 18.6 250.207 18.68L250.175 18.84C250.143 18.968 250.127 19.096 250.095 19.224L250.079 19.368C250.015 19.704 249.951 20.024 249.871 20.344H254.511V21.688H253.487C253.103 24.072 252.383 26.44 251.455 28.04C252.223 29.176 253.423 30.296 254.527 30.824L253.743 32.184C252.479 31.512 251.359 30.408 250.591 29.368ZM249.327 21.96C249.391 22.296 249.455 22.632 249.535 22.984L249.583 23.144C249.599 23.272 249.631 23.4 249.663 23.544L249.711 23.704C249.967 24.728 250.271 25.736 250.655 26.552C251.279 25.288 251.743 23.48 252.015 21.688H249.311L249.327 21.96ZM270.239 27.112V28.376H256.559V27.112H262.639V25.88H257.839V24.744H262.639V23.624H258.111V18.072H268.655V23.624H264.095V24.744H268.927V25.88H264.095V27.112H270.239ZM264.095 22.44H267.183V19.24H264.095V22.44ZM259.487 22.44H262.639V19.24H259.487V22.44ZM266.655 19.944C266.271 20.728 265.855 21.64 265.535 22.232L264.639 21.88C264.767 21.608 264.911 21.24 265.055 20.872L265.103 20.728C265.279 20.296 265.439 19.88 265.551 19.544L266.655 19.944ZM262.015 21.752L261.039 22.12C260.879 21.56 260.559 20.568 260.143 19.896L261.071 19.576C261.487 20.232 261.887 21.176 262.015 21.752ZM270.367 31.656L268.927 32.2C268.575 31.496 267.679 30.152 266.991 29.336L268.319 28.904C269.007 29.688 269.983 30.936 270.367 31.656ZM259.647 29.256C259.151 30.152 258.415 31.416 257.887 32.2L256.511 31.592C257.007 30.936 257.759 29.752 258.239 28.904L259.647 29.256ZM266.063 31.72L264.767 32.072C264.639 31.432 264.303 30.216 263.983 29.432L265.343 29.16C265.663 29.912 265.935 31.096 266.063 31.72ZM262.479 31.864L261.071 32.056C261.071 31.432 260.975 30.216 260.879 29.4L262.159 29.288C262.335 30.072 262.479 31.256 262.479 31.864ZM274.303 20.12V21.928H272.879V18.84H278.607V17.512H280.095V18.84H285.887V21.928H284.447V20.12H274.303ZM283.679 27.432V31.72H275.199V27.576C274.639 27.752 273.999 27.896 273.327 28.056L273.167 28.088C273.135 28.088 273.119 28.088 273.087 28.104L272.927 28.136C272.879 28.152 272.815 28.152 272.767 28.168L272.383 26.84C274.143 26.536 276.303 25.8 278.015 24.984C277.391 24.536 276.847 23.96 276.335 23.416C275.711 23.88 274.895 24.36 273.951 24.792L273.295 23.592C275.199 22.808 276.719 21.432 277.471 20.28L278.991 20.6C278.799 20.856 278.607 21.128 278.383 21.4H282.335L282.607 21.336L283.551 21.928C282.879 23.016 281.919 24.12 280.783 24.92C282.415 25.592 284.447 26.184 286.255 26.376L285.887 27.832C284.991 27.704 284.287 27.576 283.679 27.432ZM277.359 22.584C277.919 23.16 278.575 23.816 279.391 24.264C280.191 23.768 280.847 23.112 281.391 22.504H277.455L277.359 22.584ZM276.591 27.144H282.479C281.375 26.808 280.319 26.28 279.375 25.784C278.495 26.264 277.551 26.792 276.591 27.144ZM276.639 30.52H282.191V28.36H276.639V30.52ZM292.127 25.112V32.12H290.751V25.16C290.239 26.632 289.487 28.248 288.847 29.192C288.703 28.808 288.351 28.248 288.127 28.024C289.071 26.632 290.127 24.008 290.591 22.024H288.399V20.712H290.751V17.512H292.127V20.712H294.063V22.024H292.127V23.352C292.559 23.832 293.935 25.544 294.223 25.912L293.439 27.24C293.183 26.728 292.607 25.8 292.127 25.112ZM302.687 23.848L301.439 24.84C300.447 23.56 299.487 21.4 298.991 19.432H296.239V18.104H300.143C300.575 20.216 301.663 22.648 302.687 23.848ZM296.703 19.832C296.255 21.704 295.391 23.784 294.463 25L293.279 24.104C294.143 23.08 294.895 21.224 295.263 19.512L296.703 19.832ZM302.559 31.48L301.119 32.12C301.023 31.8 300.831 31.272 300.671 30.84C300.607 30.84 300.559 30.84 300.495 30.856L300.319 30.872H300.159C300.127 30.888 300.095 30.888 300.063 30.888L299.903 30.904C299.871 30.904 299.839 30.904 299.807 30.904L299.647 30.92C299.471 30.936 299.295 30.952 299.119 30.968L298.959 30.984C298.927 30.984 298.895 30.984 298.863 30.984L298.687 31C298.639 31.016 298.575 31.016 298.527 31.016L298.351 31.032C296.671 31.176 295.039 31.304 293.823 31.4L293.583 29.928C294.031 29.896 294.623 29.912 295.183 29.864C295.439 29.112 295.711 28.216 295.967 27.272L296.015 27.112C296.047 27 296.063 26.888 296.095 26.776L296.143 26.616C296.447 25.448 296.703 24.28 296.879 23.368L298.415 23.752C298.159 24.68 297.871 25.784 297.551 26.872L297.503 27.048C297.231 28.024 296.943 28.968 296.655 29.72L300.079 29.512C299.695 28.744 299.167 27.768 298.735 27.096L300.015 26.536C300.975 27.976 302.175 30.232 302.559 31.48Z" fill="#381805"/>
<defs>
<linearGradient id="paint0_linear_986_5926" x1="328.779" y1="23.8889" x2="219.342" y2="23.8889" gradientUnits="userSpaceOnUse">
<stop stop-color="#FFD75F" stop-opacity="0.7"/>
<stop offset="1" stop-color="#FFD75F" stop-opacity="0"/>
</linearGradient>
<linearGradient id="paint1_linear_986_5926" x1="27.1343" y1="24.592" x2="134.395" y2="24.592" gradientUnits="userSpaceOnUse">
<stop stop-color="#FFD75F" stop-opacity="0.7"/>
<stop offset="1" stop-color="#FFD75F" stop-opacity="0"/>
</linearGradient>
<clipPath id="clip0_986_5926">
<rect width="38" height="109" fill="white" transform="translate(220 42.8887) rotate(-90)"/>
</clipPath>
</defs>
</svg>
