<svg width="52" height="52" viewBox="0 0 52 52" fill="none" xmlns="http://www.w3.org/2000/svg">
<g id="icon">
<path id="Vector" d="M8.66699 30.3334V40.5667C8.66699 40.8981 8.93562 41.1667 9.26699 41.1667H21.667" stroke="#381805" stroke-width="1.5" stroke-linecap="round" stroke-linejoin="round"/>
<path id="Vector_2" d="M41.1663 30.3334V40.5667C41.1663 40.8981 40.8977 41.1667 40.5663 41.1667H30.333" stroke="#381805" stroke-width="1.5" stroke-linecap="round" stroke-linejoin="round"/>
<path id="Vector_3" d="M30.333 10.8334H40.5663C40.8977 10.8334 41.1663 11.102 41.1663 11.4334V21.6667" stroke="#381805" stroke-width="1.5" stroke-linecap="round" stroke-linejoin="round"/>
<path id="Vector_4" d="M8.66699 21.6667V11.4334C8.66699 11.102 8.93562 10.8334 9.26699 10.8334H21.667" stroke="#381805" stroke-width="1.5" stroke-linecap="round" stroke-linejoin="round"/>
<path id="Vector_5" d="M30.3337 41.1667V43.3334C30.3337 45.7266 28.3936 47.6667 26.0003 47.6667C23.6071 47.6667 21.667 45.7266 21.667 43.3334V41.1667" stroke="#381805" stroke-width="1.5" stroke-linecap="round" stroke-linejoin="round"/>
<path id="Vector_6" d="M8.66699 21.6667H10.8337C13.2269 21.6667 15.167 23.6068 15.167 26.0001C15.167 28.3933 13.2269 30.3334 10.8337 30.3334H8.66699" stroke="#381805" stroke-width="1.5" stroke-linecap="round" stroke-linejoin="round"/>
<path id="Vector_7" d="M41.167 21.6667H43.3337C45.7269 21.6667 47.667 23.6068 47.667 26.0001C47.667 28.3933 45.7269 30.3334 43.3337 30.3334H41.167" stroke="#381805" stroke-width="1.5" stroke-linecap="round" stroke-linejoin="round"/>
<path id="Vector_8" d="M30.3337 10.8333V8.66659C30.3337 6.27335 28.3936 4.33325 26.0003 4.33325C23.6071 4.33325 21.667 6.27335 21.667 8.66659V10.8333" stroke="#381805" stroke-width="1.5" stroke-linecap="round" stroke-linejoin="round"/>
</g>
</svg>
