<svg width="38" height="44" viewBox="0 0 38 44" fill="none" xmlns="http://www.w3.org/2000/svg">
<path d="M22.7402 21.6802L18.7402 25.3902L14.7402 21.6802" stroke="#381805" stroke-width="1.5" stroke-linecap="round" stroke-linejoin="round"/>
<path d="M18.75 25.75V28.75" stroke="#381805" stroke-width="1.5" stroke-linecap="round" stroke-linejoin="round"/>
<path d="M13.75 31.75H23.75" stroke="#381805" stroke-width="1.5" stroke-linecap="round" stroke-linejoin="round"/>
<path d="M13.75 34.75H23.75" stroke="#381805" stroke-width="1.5" stroke-linecap="round" stroke-linejoin="round"/>
<path d="M13.75 37.75H23.75" stroke="#381805" stroke-width="1.5" stroke-linecap="round" stroke-linejoin="round"/>
<path d="M7.88998 18C7.65052 19.4974 7.72322 21.0281 8.10354 22.496C8.48385 23.9639 9.16356 25.3373 10.1 26.53C12.5363 29.7456 13.8217 33.6864 13.75 37.72C13.75 39.0461 14.2768 40.3179 15.2144 41.2556C16.1521 42.1932 17.4239 42.72 18.75 42.72C20.0761 42.72 21.3478 42.1932 22.2855 41.2556C23.2232 40.3179 23.75 39.0461 23.75 37.72V37.22C23.8176 33.2332 25.1715 29.3749 27.61 26.22C28.6005 24.8781 29.2728 23.3285 29.5762 21.6885C29.8796 20.0484 29.8061 18.3609 29.3612 16.7534C28.9164 15.146 28.1118 13.6607 27.0083 12.4101C25.9049 11.1594 24.5315 10.176 22.992 9.53427C21.4525 8.89255 19.7873 8.60932 18.1222 8.70599C16.4571 8.80267 14.8358 9.27671 13.381 10.0923C11.9261 10.9078 10.6757 12.0436 9.72443 13.4135C8.77314 14.7835 8.14584 16.3519 7.88998 18Z" stroke="#381805" stroke-width="1.5" stroke-linecap="round" stroke-linejoin="round"/>
<path d="M18.75 0.75V3.75" stroke="#381805" stroke-width="1.5" stroke-linecap="round" stroke-linejoin="round"/>
<path d="M0.75 19.75H3.75" stroke="#381805" stroke-width="1.5" stroke-linecap="round" stroke-linejoin="round"/>
<path d="M33.75 19.75H36.75" stroke="#381805" stroke-width="1.5" stroke-linecap="round" stroke-linejoin="round"/>
<path d="M7.75 29.75L5.75 31.75" stroke="#381805" stroke-width="1.5" stroke-linecap="round" stroke-linejoin="round"/>
<path d="M30.75 6.75L28.75 8.75" stroke="#381805" stroke-width="1.5" stroke-linecap="round" stroke-linejoin="round"/>
<path d="M29.75 30.75L31.75 32.75" stroke="#381805" stroke-width="1.5" stroke-linecap="round" stroke-linejoin="round"/>
<path d="M5.75 6.75L7.75 8.75" stroke="#381805" stroke-width="1.5" stroke-linecap="round" stroke-linejoin="round"/>
</svg>
