<svg width="40" height="40" viewBox="0 0 40 40" fill="none" xmlns="http://www.w3.org/2000/svg">
<path d="M15.68 33.25L6.25 23.82L19.25 9.75C22.5767 6.12641 26.9251 3.59824 31.72 2.5L38.72 0.75L37 7.78C35.9112 12.5929 33.3823 16.96 29.75 20.3L15.68 33.25Z" stroke="#381805" stroke-width="1.5" stroke-linecap="round" stroke-linejoin="round"/>
<path d="M7.82537 25.3924L5.4707 27.7471L11.7569 34.0332L14.1115 31.6786L7.82537 25.3924Z" stroke="#381805" stroke-width="1.5" stroke-linecap="round" stroke-linejoin="round"/>
<path d="M6.25 23.75L0.75 21.39L9.39 12.75H15.75" stroke="#381805" stroke-width="1.5" stroke-linecap="round" stroke-linejoin="round"/>
<path d="M26.75 23.75V30.11L18.11 38.75L15.75 33.25" stroke="#381805" stroke-width="1.5" stroke-linecap="round" stroke-linejoin="round"/>
<path d="M25.7193 18.7198C25.2309 19.2072 24.6091 19.539 23.9323 19.6732C23.2554 19.8073 22.554 19.7378 21.9167 19.4735C21.2793 19.2092 20.7346 18.7619 20.3514 18.1881C19.9682 17.6143 19.7637 16.9398 19.7637 16.2498C19.7637 15.5598 19.9682 14.8853 20.3514 14.3115C20.7346 13.7377 21.2793 13.2904 21.9167 13.026C22.554 12.7617 23.2554 12.6922 23.9323 12.8264C24.6091 12.9605 25.2309 13.2923 25.7193 13.7798C26.0452 14.1033 26.3039 14.488 26.4804 14.912C26.657 15.3359 26.7478 15.7906 26.7478 16.2498C26.7478 16.709 26.657 17.1636 26.4804 17.5876C26.3039 18.0115 26.0452 18.3963 25.7193 18.7198Z" stroke="#381805" stroke-width="1.5" stroke-linecap="round" stroke-linejoin="round"/>
<path d="M9.39062 20.6699L18.8306 30.1099" stroke="#381805" stroke-width="1.5" stroke-linecap="round" stroke-linejoin="round"/>
<path d="M30.1504 3.06006L36.4404 9.35006" stroke="#381805" stroke-width="1.5" stroke-linecap="round" stroke-linejoin="round"/>
</svg>
