<svg width="48" height="48" viewBox="0 0 48 48" fill="none" xmlns="http://www.w3.org/2000/svg">
<path d="M39.4902 26.9102C38.4364 28.2225 37.0574 29.2362 35.4902 29.8502" stroke="#381805" stroke-width="1.5" stroke-linecap="round" stroke-linejoin="round"/>
<path d="M21.8805 14.3601L21.3805 14.0001C19.9224 13.0192 18.2332 12.4366 16.4805 12.3101" stroke="#381805" stroke-width="1.5" stroke-linecap="round" stroke-linejoin="round"/>
<path d="M34.6193 30.2202C34.8955 30.1894 35.1618 30.0992 35.4 29.956C35.6382 29.8127 35.8426 29.6197 35.9993 29.3902V29.3202C36.1393 29.1134 36.2372 28.881 36.2874 28.6364C36.3375 28.3918 36.3389 28.1396 36.2916 27.8945C36.2442 27.6493 36.149 27.4158 36.0113 27.2075C35.8736 26.9991 35.6963 26.8199 35.4893 26.6802L31.2793 22.6802" stroke="#381805" stroke-width="1.5" stroke-linecap="round" stroke-linejoin="round"/>
<path d="M7.07031 26.2798C7.58561 27.336 8.29066 28.2885 9.15031 29.0898" stroke="#381805" stroke-width="1.5" stroke-linecap="round" stroke-linejoin="round"/>
<path d="M25.4593 24.5601L34.0593 30.3601C34.4768 30.6425 34.7657 31.0784 34.8631 31.573C34.9605 32.0675 34.8585 32.5804 34.5793 33.0001V33.0701C34.4396 33.277 34.2604 33.4544 34.052 33.5921C33.8437 33.7297 33.6102 33.825 33.365 33.8723C33.1198 33.9197 32.8677 33.9183 32.6231 33.8681C32.3784 33.818 32.1461 33.7201 31.9393 33.5801L23.2793 27.7401" stroke="#381805" stroke-width="1.5" stroke-linecap="round" stroke-linejoin="round"/>
<path d="M23.2192 27.75L31.2192 33.13C31.6379 33.4141 31.9267 33.8527 32.0223 34.3495C32.1179 34.8463 32.0125 35.3608 31.7292 35.78V35.84C31.4468 36.2575 31.0108 36.5464 30.5163 36.6438C30.0218 36.7412 29.5088 36.6392 29.0892 36.36L21.9492 31.56" stroke="#381805" stroke-width="1.5" stroke-linecap="round" stroke-linejoin="round"/>
<path d="M22.9999 36.9999L24.4799 37.9999C24.6867 38.1399 24.9191 38.2378 25.1637 38.2879C25.4083 38.3381 25.6605 38.3395 25.9056 38.2921C26.1508 38.2448 26.3843 38.1495 26.5926 38.0119C26.801 37.8742 26.9802 37.6968 27.1199 37.4899L27.1699 37.4199C27.3099 37.2131 27.4078 36.9807 27.458 36.7361C27.5081 36.4915 27.5096 36.2393 27.4622 35.9941C27.4148 35.7489 27.3196 35.5155 27.1819 35.3071C27.0443 35.0988 26.8669 34.9196 26.6599 34.7799L21.9199 31.6099" stroke="#381805" stroke-width="1.5" stroke-linecap="round" stroke-linejoin="round"/>
<path d="M33 11.2301C31.3052 11.0188 29.5845 11.2425 28 11.8801L26.43 12.5101L17 16.3101C17.3827 17.2547 18.1217 18.0107 19.0573 18.4149C19.9929 18.819 21.0499 18.8389 22 18.4701L25.11 17.2501L26.88 20.1201C27.6178 21.2997 28.7938 22.1381 30.1494 22.4513C31.5051 22.7644 32.9296 22.5266 34.11 21.7901" stroke="#381805" stroke-width="1.5" stroke-linecap="round" stroke-linejoin="round"/>
<path d="M12.5802 31.09L15.2302 27.45C15.3799 27.2438 15.4876 27.0102 15.547 26.7624C15.6065 26.5147 15.6165 26.2576 15.5766 26.0059C15.5366 25.7543 15.4475 25.513 15.3143 25.2958C15.1811 25.0785 15.0064 24.8897 14.8002 24.74C14.3851 24.4366 13.8664 24.3104 13.3583 24.3891C12.8501 24.4679 12.394 24.7451 12.0902 25.16L9.44021 28.8C9.13676 29.2152 9.01055 29.7338 9.0893 30.2419C9.16806 30.7501 9.44534 31.2062 9.86021 31.51C10.2812 31.8015 10.7979 31.9204 11.3039 31.8423C11.81 31.7641 12.2668 31.4949 12.5802 31.09Z" stroke="#381805" stroke-width="1.5" stroke-linecap="round" stroke-linejoin="round"/>
<path d="M15.7191 33.3798L19.4492 28.2598C19.7374 27.8352 19.8515 27.3161 19.7677 26.8098C19.6839 26.3036 19.4088 25.8488 18.9991 25.5398C18.793 25.39 18.5593 25.2824 18.3116 25.2229C18.0638 25.1635 17.8067 25.1535 17.5551 25.1934C17.3034 25.2333 17.0621 25.3224 16.8449 25.4557C16.6277 25.5889 16.4388 25.7636 16.2891 25.9698L12.5591 31.0898C12.2728 31.5123 12.1589 32.0284 12.2407 32.5322C12.3225 33.036 12.5938 33.4895 12.9991 33.7998C13.4201 34.0912 13.9368 34.2102 14.4429 34.132C14.9489 34.0539 15.4057 33.7846 15.7191 33.3798Z" stroke="#381805" stroke-width="1.5" stroke-linecap="round" stroke-linejoin="round"/>
<path d="M18.8599 35.66L21.5099 32C21.8003 31.5778 21.9176 31.0603 21.8376 30.5542C21.7576 30.0481 21.4864 29.592 21.0799 29.28C20.8738 29.1303 20.6401 29.0226 20.3924 28.9632C20.1446 28.9037 19.8875 28.8937 19.6359 28.9336C19.3842 28.9736 19.1429 29.0627 18.9257 29.1959C18.7085 29.3291 18.5196 29.5038 18.3699 29.71L15.7199 33.35C15.5702 33.5562 15.4625 33.7898 15.4031 34.0376C15.3437 34.2854 15.3336 34.5424 15.3736 34.7941C15.4135 35.0457 15.5026 35.287 15.6358 35.5043C15.769 35.7215 15.9437 35.9103 16.1499 36.06C16.5626 36.3655 17.0796 36.495 17.5876 36.42C18.0956 36.3451 18.5531 36.0717 18.8599 35.66Z" stroke="#381805" stroke-width="1.5" stroke-linecap="round" stroke-linejoin="round"/>
<path d="M22 38.0001L23.59 35.8201C23.7398 35.614 23.8474 35.3803 23.9069 35.1325C23.9663 34.8848 23.9763 34.6277 23.9364 34.3761C23.8965 34.1244 23.8073 33.8831 23.6741 33.6659C23.5409 33.4487 23.3662 33.2598 23.16 33.1101C22.7449 32.8067 22.2263 32.6805 21.7181 32.7592C21.21 32.838 20.7539 33.1153 20.45 33.5301L18.86 35.7101C18.5696 36.1323 18.4523 36.6498 18.5324 37.1559C18.6124 37.662 18.8836 38.1181 19.29 38.4301C19.4962 38.5799 19.7298 38.6875 19.9776 38.7469C20.2254 38.8064 20.4825 38.8164 20.7341 38.7765C20.9858 38.7366 21.2271 38.6474 21.4443 38.5142C21.6615 38.381 21.8503 38.2063 22 38.0001Z" stroke="#381805" stroke-width="1.5" stroke-linecap="round" stroke-linejoin="round"/>
<path d="M11.75 8.75L16.61 12.14L6.79 26.7L1.75 22.75" stroke="#381805" stroke-width="1.5" stroke-linecap="round" stroke-linejoin="round"/>
<path d="M38.7601 8.75L33.0801 10.91L39.6101 27.22L45.7501 24.75" stroke="#381805" stroke-width="1.5" stroke-linecap="round" stroke-linejoin="round"/>
</svg>
