<svg width="38" height="40" viewBox="0 0 38 40" fill="none" xmlns="http://www.w3.org/2000/svg">
<path d="M28.7502 14.75H16.6602C15.5993 14.75 14.5819 14.3286 13.8317 13.5784C13.0816 12.8283 12.6602 11.8109 12.6602 10.75" stroke="#381805" stroke-width="1.5" stroke-linecap="round" stroke-linejoin="round"/>
<path d="M11.9297 32.15C13.7713 33.8239 16.171 34.751 18.6597 34.75C21.2344 34.7584 23.7131 33.7733 25.5797 32" stroke="#381805" stroke-width="1.5" stroke-linecap="round" stroke-linejoin="round"/>
<path d="M23.3999 22.8699C22.8034 23.5043 22.0828 24.0092 21.2828 24.3533C20.4829 24.6973 19.6207 24.8732 18.7499 24.8699C17.8327 24.8682 16.9265 24.6691 16.0931 24.286C15.2597 23.9029 14.5185 23.3449 13.9199 22.6499" stroke="#381805" stroke-width="1.5" stroke-linecap="round" stroke-linejoin="round"/>
<path d="M12.75 27.75V29.87C12.75 30.6338 12.4466 31.3664 11.9065 31.9065C11.3664 32.4466 10.6338 32.75 9.87 32.75H6.75C5.1587 32.75 3.63258 33.3821 2.50736 34.5074C1.38214 35.6326 0.75 37.1587 0.75 38.75" stroke="#381805" stroke-width="1.5" stroke-linecap="round" stroke-linejoin="round"/>
<path d="M36.75 38.75C36.75 37.1587 36.1179 35.6326 34.9926 34.5074C33.8674 33.3821 32.3413 32.75 30.75 32.75H27.63C26.8662 32.75 26.1336 32.4466 25.5935 31.9065C25.0534 31.3664 24.75 30.6338 24.75 29.87V27.75" stroke="#381805" stroke-width="1.5" stroke-linecap="round" stroke-linejoin="round"/>
<path d="M5.75 21.75V13.75C5.75 10.3022 7.11964 6.99558 9.55761 4.55761C11.9956 2.11964 15.3022 0.75 18.75 0.75C20.4572 0.75 22.1477 1.08625 23.7249 1.73957C25.3021 2.39288 26.7352 3.35045 27.9424 4.55761C29.1496 5.76477 30.1071 7.19788 30.7604 8.77512C31.4137 10.3523 31.75 12.0428 31.75 13.75V21.75" stroke="#381805" stroke-width="1.5" stroke-linecap="round" stroke-linejoin="round"/>
<path d="M28.75 19.75C28.75 22.4022 27.6964 24.9457 25.8211 26.8211C23.9457 28.6964 21.4022 29.75 18.75 29.75C16.0978 29.75 13.5543 28.6964 11.6789 26.8211C9.80357 24.9457 8.75 22.4022 8.75 19.75V14.75C8.75 12.0978 9.80357 9.5543 11.6789 7.67893C13.5543 5.80357 16.0978 4.75 18.75 4.75C21.4022 4.75 23.9457 5.80357 25.8211 7.67893C27.6964 9.5543 28.75 12.0978 28.75 14.75V19.75Z" stroke="#381805" stroke-width="1.5" stroke-linecap="round" stroke-linejoin="round"/>
<path d="M31.75 21.75H32.25C33.1783 21.75 34.0685 21.3813 34.7249 20.7249C35.3812 20.0685 35.75 19.1783 35.75 18.25C35.75 17.3217 35.3812 16.4315 34.7249 15.7751C34.0685 15.1187 33.1783 14.75 32.25 14.75H31.75" stroke="#381805" stroke-width="1.5" stroke-linecap="round" stroke-linejoin="round"/>
</svg>
