<svg width="400" height="400" viewBox="0 0 400 400" fill="none" xmlns="http://www.w3.org/2000/svg">
<mask id="mask0_17_3641" style="mask-type:luminance" maskUnits="userSpaceOnUse" x="0" y="0" width="400" height="400">
<path d="M400 0H0V400H400V0Z" fill="white"/>
</mask>
<g mask="url(#mask0_17_3641)">
<path d="M910.48 -173.568H-389.632V1043.67H910.48V-173.568Z" fill="white" stroke="#381805" stroke-width="0.5"/>
<path d="M198.4 323.824L178.688 306.728L193.392 258.264L222.912 249.168L278.4 265.736L292 260.264L293.104 334.304L306.704 335.104L294.896 366.224L310.704 380.24L301.496 403.496L273.784 379.496L247.064 374.104H246.968V373.408L198.4 323.824Z" fill="#FFDAC6" stroke="#381805" stroke-width="0.5"/>
<path d="M330.096 130.152L400.736 223.352L387.432 276.288L398.44 288.928L389.536 321.288L417.248 332.608L432.36 358.024L385.032 379.28L366.816 318.896L380.8 300.8L362.792 255.8L344.584 250.56L342.68 225.76L310.864 184.16L288.152 195.872L275.24 179.688L285.352 172.136L267.24 103.44L330.096 130.152Z" fill="#FF650F" stroke="#381805" stroke-width="0.5"/>
<path d="M480.888 -22.488L485.792 4.592L468.08 30.744L468.8 43.2L397.936 50.4L411.048 96.8L404.04 120L367.24 122L347.632 90.8L325.696 81.6L277.064 52.576L255.464 19.864L300.8 18.632L317.6 5.44L395.84 -11.92L424.552 -30.976L476.984 -31.776L480.888 -22.488Z" fill="#FFDAC6" stroke="#381805" stroke-width="0.5"/>
<path d="M613.264 92H613.36L639.76 138.032L691.2 166.4L648.472 179.12L571.128 215.424L551.928 235.072L541.12 204.24L522.72 211.48L502.104 188.36L472.8 179.264L456.888 166.232L418.864 163.072L404.04 120L411.048 96.864L397.936 50.4L468.8 43.2L468.104 30.784L554.952 84.544L579.664 107.832L613.264 92Z" fill="#FFDAC6" stroke="#381805" stroke-width="0.5"/>
<path d="M325.192 -128.224L324 -74.888L376.536 -53.432L404.352 -60.992L403.752 -40.704L424.552 -30.976L395.84 -11.92L317.6 5.44002L300.8 18.632L255.472 19.864L222.736 -4.27998L263.864 -45.328L277.768 -94.4L306.4 -137.8L325.192 -128.224Z" fill="#FFDAC6" stroke="#381805" stroke-width="0.5"/>
<path d="M325.696 81.6L347.608 90.776L367.216 121.976L404.016 119.976L418.824 163.072L456.848 166.232L472.8 179.264L457.168 223.2L400.736 223.352L330.096 130.152L325.696 81.6Z" fill="#FFDAC6" stroke="#381805" stroke-width="0.5"/>
<path d="M551.928 235.064L528.8 281.688L495.08 289.392L471.08 326.832L432.36 358.032L417.248 332.616L389.536 321.296L398.44 288.936L387.432 276.296L400.736 223.36L457.168 223.208L472.8 179.264L502.112 188.36L522.728 211.48L541.128 204.24L551.928 235.064Z" fill="#FFDAC6" stroke="#381805" stroke-width="0.5"/>
<path d="M385.032 379.28L345.832 426.256L317.216 423.792L301.504 403.464L310.712 380.208L294.88 366.192L306.688 335.072L293.088 334.272L292 260.264L325.72 226.896L342.728 225.744L344.632 250.544L362.84 255.784L380.8 300.8L366.792 318.904L385.032 379.28Z" fill="#FFDAC6" stroke="#381805" stroke-width="0.5"/>
<path d="M275.264 179.648L288.176 195.832L310.888 184.12L342.704 225.72L325.696 226.872L292 260.264L278.4 265.736L222.968 249.168L193.448 258.264L163.736 271.128L133.6 257.032L150.312 200.92L173.12 191.32L187.2 166.776L216.12 161.76L227.92 141.336L275.264 179.648Z" fill="#6FC7E3" stroke="#381805" stroke-width="0.5"/>
<path d="M471.08 326.832L518.28 347.088L523.688 391.76L565.008 426.568L577.92 450.744L543.12 482.608L535.2 524.64L547.608 545.496L551.008 600.2L498.28 617.128L460.36 601.128L427.136 604.328L386.616 627.792L346.288 624.336L338.688 582.176L359.296 550.544L324.976 522.304L344.288 512.992L363.704 467.728L345.792 426.232L384.992 379.256L432.32 358L471.08 326.832Z" fill="#FFDAC6" stroke="#381805" stroke-width="0.5"/>
<path d="M222.736 -4.27997L255.456 19.864L277.056 52.576L325.696 81.6L330.096 130.176L267.264 103.424L220.232 65.688L205.328 53.264L164.528 47.944L141.392 21.104L117.672 12.8L151.2 -30.824H176L209.432 1.35202L222.736 -4.27997Z" fill="#FFDAC6" stroke="#381805" stroke-width="0.5"/>
<path d="M306.4 -137.8L277.768 -94.4L263.864 -45.328L222.736 -4.28L209.432 1.31999L176 -30.824H151.2L186.92 -113.792L206.224 -133.6L207.928 -133.208L208.024 -133.136L222.936 -125.184L245.248 -144.328L264.448 -134.368L306.4 -137.8Z" fill="#FFDAC6" stroke="#381805" stroke-width="0.5"/>
<path d="M266.784 103.544L284.88 172.184L274.784 179.728L227.496 141.448L215.696 161.864L186.808 166.872L172.712 191.36L164.712 133.664L187.912 100.232L179.616 88.368L219.808 65.864L266.784 103.544Z" fill="#007FB6" stroke="black" stroke-width="0.5"/>
<path d="M222 66.2631L180.462 88.0823L189.036 99.5853L165.059 132L162.992 103.844L124.042 65.8365L82 62.827L116.088 15L140.578 23.0746L164.447 49.0746L206.613 54.2327L222 66.2631Z" fill="#FF650F" stroke="black" stroke-width="0.5"/>
<path d="M164.712 133.664L172.712 191.36L149.912 200.96L133.216 257.016L131.416 256.088L99.416 248.544L87.112 208.808L73.736 221.392L38.344 212.928L74.536 167.712L65.736 120.96L84.336 62.32L125.024 65.4L162.712 104.6L164.712 133.664Z" fill="#FFDAC6" stroke="black" stroke-width="0.5"/>
<path d="M194.928 479.424L154.928 448.424L122.48 437.128L108 448.576L95.0478 401.6L72.8398 406.784L98.0638 378.712L94.7438 358.136L123.544 342.664L140.424 351.56L157.312 314.656L198.712 323.712L247.44 373.448V374.144H247.544L215.2 384.544L153.728 370.4L173.424 421.6L202.168 414.944L209.504 440L194.928 479.424Z" fill="#FFDAC6" stroke="#381805" stroke-width="0.5"/>
<path d="M247.584 374.104L274.4 379.52L302.232 403.648L318.008 424.064L346.744 426.536L364.736 468.216L345.24 513.664L325.848 523.016L360.312 551.384L339.616 583.144L347.248 625.48L276.608 635.296L253.712 604.16L232.312 619.848L180.96 611.424L154.84 572.48L166.4 534.304L194.936 479.424L209.504 440L202.168 414.944L173.424 421.6L153.728 370.4L215.2 384.544L247.584 374.104Z" fill="#FFDAC6" stroke="#381805" stroke-width="0.5"/>
<path d="M42.0881 368.072L44.2001 392.36L72.84 406.76L95.048 401.6L108 448.576L122.472 437.128L154.928 448.424L135.84 468.52L85.6961 459.48L65.6001 444.632L1.09605 450.584L-16.1919 444.944L-48.6479 382.304L-15.5839 337.288L23.5041 336.488L42.0881 368.072Z" fill="#FFDAC6" stroke="#381805" stroke-width="0.5"/>
<path d="M131.824 255.656L116.152 270.28L56.1518 274.232L42.0878 368.072L23.5038 336.512L-15.5842 337.312L-40.3042 323.768L9.5358 274.024L17.5358 240.976L38.2718 212.24L73.8478 220.752L87.3118 208.136L99.6718 248.072L131.824 255.656Z" fill="#CEF3FF" stroke="#381805" stroke-width="0.5"/>
<path d="M133.6 256.584L163.848 270.744L193.696 257.824L178.92 306.496L198.72 323.672L157.32 314.616L140.464 351.52L123.584 342.624L94.7839 358.096L98.1039 378.672L72.8399 406.744L44.1999 392.344L42.0879 368.056L56.1599 274.232L116.16 270.28L131.832 255.656L133.6 256.584Z" fill="#FF650F" stroke="#381805" stroke-width="0.5"/>
<g filter="url(#filter0_d_17_3641)">
<path d="M266.441 102.55L219.451 64.8704L204.551 52.4704L163.761 47.1504L140.671 20.3304L116.971 12.0004L83.9807 61.3304L65.3907 119.97L74.1907 166.73L38.0007 211.94L73.3907 220.41L86.7807 207.85L99.0807 247.59L131.071 255.13L132.871 256.06L149.571 200L172.361 190.37L186.461 165.88L215.351 160.87L227.151 140.46L274.431 178.74L284.531 171.19L266.441 102.55Z" stroke="#61AAC9" stroke-width="8" stroke-miterlimit="10" shape-rendering="crispEdges"/>
</g>
</g>
<defs>
<filter id="filter0_d_17_3641" x="26.9377" y="3.19797" width="266.148" height="262.633" filterUnits="userSpaceOnUse" color-interpolation-filters="sRGB">
<feFlood flood-opacity="0" result="BackgroundImageFix"/>
<feColorMatrix in="SourceAlpha" type="matrix" values="0 0 0 0 0 0 0 0 0 0 0 0 0 0 0 0 0 0 127 0" result="hardAlpha"/>
<feOffset/>
<feGaussianBlur stdDeviation="2"/>
<feComposite in2="hardAlpha" operator="out"/>
<feColorMatrix type="matrix" values="0 0 0 0 0 0 0 0 0 0 0 0 0 0 0 0 0 0 0.25 0"/>
<feBlend mode="normal" in2="BackgroundImageFix" result="effect1_dropShadow_17_3641"/>
<feBlend mode="normal" in="SourceGraphic" in2="effect1_dropShadow_17_3641" result="shape"/>
</filter>
</defs>
</svg>
