<svg width="410" height="500" viewBox="0 0 410 500" fill="none" xmlns="http://www.w3.org/2000/svg">
<g clip-path="url(#clip0_451_5174)">
<path d="M206 466C205.19 461.95 203.7 454.63 203.53 450.45C203.2 442.57 205.13 435.08 207.02 427.53C208.71 420.78 211.41 414.53 214.13 408.16C217.01 401.45 218.94 394.37 221.31 387.47C225.5 375.26 230.86 363.61 238.45 353.08C241.001 349.595 243.195 345.863 245 341.94C248.71 333.78 253.81 326.43 258.36 318.75C266.1 305.69 271.36 291.58 275.55 277.04C278.05 268.32 280.66 259.63 282.87 250.84C285.41 240.73 286.5 230.33 288.12 220.04C289.91 208.64 291.12 197.04 296.31 186.5C298.517 182.204 301.09 178.105 304 174.25C306.462 170.933 308.557 167.358 310.25 163.59C312.11 159.162 314.299 154.88 316.8 150.78C318.651 147.947 319.809 144.718 320.179 141.355C320.549 137.991 320.121 134.587 318.93 131.42C317.018 126.081 316.093 120.44 316.2 114.77C316.346 109.014 317.399 103.318 319.32 97.89C320.76 93.82 324.09 91 327.4 88.29C330.24 85.95 330.76 84.29 328.98 80.99C326.83 76.99 326.57 72.8 326.82 68.4C327.05 64.56 325.32 62.91 321.42 62.4C313.05 61.29 304.91 59.59 297.92 54.29C295.48 52.4639 293.372 50.2313 291.69 47.69C290.373 45.6822 288.73 43.908 286.83 42.44C282.31 38.93 279.38 39.62 274.83 42C269.34 44.85 265.13 49.33 261.21 54C254.84 61.57 246.5 65.5 237.21 67.89C226.07 70.74 216.64 75.89 209.5 85.48C205.09 91.5982 201.615 98.3387 199.19 105.48C196.38 113.17 192.93 120.63 186.52 126.3C182.954 129.546 179.581 132.999 176.42 136.64C172.35 141.18 170.14 146.64 168.12 152.4C164.534 162.48 159.621 172.038 153.51 180.82C146.43 191.06 139.44 201.44 134.22 212.75C128.74 224.61 122.29 236.03 118.01 248.43C114.851 257.99 112.761 267.87 111.78 277.89C111.05 284.41 110.78 290.97 110.33 297.52C109.33 313.66 112.4 329.22 116.33 344.71C118.99 355.16 124.26 364.19 130.51 372.82C136.76 381.45 144.31 389.09 150.69 397.64C158.3 407.85 166.3 417.81 171.21 429.78C173.702 435.817 175.413 442.149 176.3 448.62C177.3 455.45 179.94 460.69 186.99 462.8C188.73 463.32 190.45 463.88 192.17 464.43C195.302 465.294 198.386 466.322 201.41 467.51C203.67 468.51 204.97 468 206.08 466.07" stroke="#381805" stroke-width="2" stroke-linecap="round" stroke-linejoin="round"/>
<path d="M319.42 97.4498C317.549 102.891 316.494 108.579 316.29 114.33C316.173 120.005 317.091 125.654 319 131C320.191 134.169 320.619 137.574 320.249 140.939C319.879 144.305 318.722 147.535 316.87 150.37C314.367 154.469 312.178 158.751 310.32 163.18C308.627 166.945 306.532 170.516 304.07 173.83C301.176 177.692 298.617 181.793 296.42 186.09C291.25 196.66 290.02 208.23 288.23 219.63C286.61 229.92 285.52 240.31 282.98 250.43C280.77 259.22 278.16 267.91 275.66 276.62C271.49 291.17 266.21 305.28 258.47 318.34C253.92 326.02 248.82 333.34 245.11 341.53C243.311 345.467 241.12 349.212 238.57 352.71C230.98 363.24 225.68 374.91 221.41 387.09C219.16 393.52 217.23 400.09 214.79 406.42C212.92 411.29 210.33 415.89 208.91 420.92C207.98 424.21 206.74 427.4 205.91 430.72C203.04 428.39 200.3 424.43 198.27 421.43C195.18 416.86 192.35 412.1 189.2 407.57C188.44 406.417 187.939 405.112 187.734 403.746C187.528 402.38 187.623 400.986 188.01 399.66C189.737 392.582 192.689 385.861 196.73 379.8C200.841 373.88 202.793 366.727 202.26 359.54C201.74 351.706 201.017 343.88 200.09 336.06C199.19 328.54 200.6 321.17 206.63 315.28C211.36 310.65 215.44 305.37 219.79 300.35C223.18 296.42 223.01 291.56 222.4 287.01C221.49 280.1 224.02 274.64 230.73 272.64C235.32 271.27 237.36 268.06 237.97 264.07C240.189 250.757 243.381 237.625 247.52 224.78C249.66 217.83 251.73 210.71 251.12 203.27C250.654 199.139 251.018 194.958 252.19 190.97C253.43 187.08 256.28 184.35 258.51 181.17C260.51 178.28 262.64 175.43 264.51 172.42C266.38 169.41 265.76 167.23 262.92 165.08C261.116 163.903 259.615 162.317 258.54 160.45C257.19 157.75 256.76 155.26 258.18 152.22C260.63 146.98 262.73 141.6 265.87 136.69C267.118 134.955 268.499 133.32 270 131.8C274.58 126.64 278.43 120.8 283.37 116C289.92 109.57 297.25 104.36 305.99 101.22C308.767 100.078 311.014 97.9375 312.29 95.2198C314.17 91.7798 317.62 90.1198 320.76 88.2198C321.121 88.0144 321.52 87.8844 321.932 87.838C322.345 87.7916 322.763 87.8296 323.16 87.9498C323.752 88.192 324.402 88.2546 325.03 88.1298C324.87 89.9598 323.51 91.5798 322.34 92.7798C321.027 94.0966 320.029 95.693 319.42 97.4498Z" stroke="#F3C10E" stroke-width="3" stroke-miterlimit="10"/>
<path opacity="0.2" d="M319.42 97.4498C317.549 102.891 316.494 108.579 316.29 114.33C316.173 120.005 317.091 125.654 319 131C320.191 134.169 320.619 137.574 320.249 140.939C319.879 144.305 318.722 147.535 316.87 150.37C314.367 154.469 312.178 158.751 310.32 163.18C308.627 166.945 306.532 170.516 304.07 173.83C301.176 177.692 298.617 181.793 296.42 186.09C291.25 196.66 290.02 208.23 288.23 219.63C286.61 229.92 285.52 240.31 282.98 250.43C280.77 259.22 278.16 267.91 275.66 276.62C271.49 291.17 266.21 305.28 258.47 318.34C253.92 326.02 248.82 333.34 245.11 341.53C243.311 345.467 241.12 349.212 238.57 352.71C230.98 363.24 225.68 374.91 221.41 387.09C219.16 393.52 217.23 400.09 214.79 406.42C212.92 411.29 210.33 415.89 208.91 420.92C207.98 424.21 206.74 427.4 205.91 430.72C203.04 428.39 200.3 424.43 198.27 421.43C195.18 416.86 192.35 412.1 189.2 407.57C188.44 406.417 187.939 405.112 187.734 403.746C187.528 402.38 187.623 400.986 188.01 399.66C189.737 392.582 192.689 385.861 196.73 379.8C200.841 373.88 202.793 366.727 202.26 359.54C201.74 351.706 201.017 343.88 200.09 336.06C199.19 328.54 200.6 321.17 206.63 315.28C211.36 310.65 215.44 305.37 219.79 300.35C223.18 296.42 223.01 291.56 222.4 287.01C221.49 280.1 224.02 274.64 230.73 272.64C235.32 271.27 237.36 268.06 237.97 264.07C240.189 250.757 243.381 237.625 247.52 224.78C249.66 217.83 251.73 210.71 251.12 203.27C250.654 199.139 251.018 194.958 252.19 190.97C253.43 187.08 256.28 184.35 258.51 181.17C260.51 178.28 262.64 175.43 264.51 172.42C266.38 169.41 265.76 167.23 262.92 165.08C261.116 163.903 259.615 162.317 258.54 160.45C257.19 157.75 256.76 155.26 258.18 152.22C260.63 146.98 262.73 141.6 265.87 136.69C267.118 134.955 268.499 133.32 270 131.8C274.58 126.64 278.43 120.8 283.37 116C289.92 109.57 297.25 104.36 305.99 101.22C308.767 100.078 311.014 97.9375 312.29 95.2198C314.17 91.7798 317.62 90.1198 320.76 88.2198C321.121 88.0144 321.52 87.8844 321.932 87.838C322.345 87.7916 322.763 87.8296 323.16 87.9498C323.752 88.192 324.402 88.2546 325.03 88.1298C324.87 89.9598 323.51 91.5798 322.34 92.7798C321.027 94.0966 320.029 95.693 319.42 97.4498Z" fill="#F3C10E"/>
<path d="M242 78.8901H71.6301C68.8292 78.8981 66.1452 80.0142 64.1647 81.9948C62.1841 83.9753 61.068 86.6592 61.0601 89.4601V231.6C61.0706 234.4 62.1876 237.083 64.1676 239.063C66.1476 241.043 68.83 242.16 71.6301 242.17H180.86L224.24 311L205.24 242.2H242C244.8 242.19 247.483 241.073 249.463 239.093C251.443 237.113 252.56 234.43 252.57 231.63V89.4601C252.562 86.6592 251.446 83.9753 249.465 81.9948C247.485 80.0142 244.801 78.8981 242 78.8901Z" fill="white" stroke="#381805" stroke-width="0.5" stroke-miterlimit="10" stroke-dasharray="4 1"/>
<path d="M131.24 171.84C131.719 171.84 132.187 171.698 132.585 171.432C132.983 171.166 133.293 170.788 133.476 170.346C133.659 169.904 133.707 169.417 133.614 168.948C133.52 168.478 133.29 168.047 132.952 167.709C132.613 167.37 132.182 167.14 131.712 167.047C131.243 166.953 130.756 167.001 130.314 167.184C129.872 167.367 129.494 167.678 129.228 168.076C128.962 168.473 128.82 168.941 128.82 169.42C128.82 170.062 129.075 170.677 129.529 171.131C129.983 171.585 130.598 171.84 131.24 171.84Z" fill="#F3C10E"/>
<path d="M139.31 181.49L134.63 173.49C134.54 173.28 134.25 173.14 133.9 173.01L132.32 172.4H130.1L128.55 173C128.21 173.13 127.93 173.24 127.83 173.45L123.13 181.45C123.004 181.662 122.968 181.916 123.029 182.155C123.09 182.394 123.243 182.599 123.455 182.725C123.668 182.851 123.921 182.887 124.16 182.826C124.399 182.766 124.604 182.612 124.73 182.4L128.07 176.71L128.36 182.43V194.06C128.36 194.357 128.478 194.642 128.688 194.852C128.898 195.062 129.183 195.18 129.48 195.18C129.777 195.18 130.062 195.062 130.272 194.852C130.482 194.642 130.6 194.357 130.6 194.06V184.06H131.77V194.06C131.77 194.357 131.888 194.642 132.098 194.852C132.308 195.062 132.593 195.18 132.89 195.18C133.187 195.18 133.472 195.062 133.682 194.852C133.892 194.642 134.01 194.357 134.01 194.06V182.89L134.32 176.66L137.72 182.44C137.776 182.557 137.856 182.66 137.954 182.744C138.052 182.828 138.167 182.891 138.291 182.928C138.415 182.966 138.545 182.977 138.673 182.961C138.801 182.945 138.925 182.903 139.036 182.836C139.147 182.77 139.243 182.681 139.318 182.576C139.393 182.47 139.445 182.35 139.47 182.224C139.496 182.097 139.495 181.966 139.468 181.84C139.44 181.714 139.387 181.594 139.31 181.49Z" fill="#F3C10E"/>
<path d="M152.01 171.84C152.489 171.84 152.957 171.698 153.355 171.432C153.753 171.166 154.063 170.788 154.246 170.346C154.429 169.904 154.477 169.417 154.384 168.948C154.29 168.478 154.06 168.047 153.722 167.709C153.383 167.37 152.952 167.14 152.482 167.047C152.013 166.953 151.526 167.001 151.084 167.184C150.642 167.367 150.264 167.678 149.998 168.076C149.732 168.473 149.59 168.941 149.59 169.42C149.59 170.062 149.845 170.677 150.299 171.131C150.753 171.585 151.369 171.84 152.01 171.84Z" fill="#F3C10E"/>
<path d="M160.08 181.49L155.4 173.49C155.31 173.28 155.02 173.14 154.67 173.01L153.09 172.4H150.87L149.32 173C148.98 173.13 148.7 173.24 148.6 173.45L143.9 181.45C143.774 181.662 143.738 181.916 143.799 182.155C143.86 182.394 144.013 182.599 144.225 182.725C144.438 182.851 144.691 182.887 144.93 182.826C145.169 182.766 145.374 182.612 145.5 182.4L148.84 176.71L149.13 182.43V194.06C149.13 194.357 149.248 194.642 149.458 194.852C149.668 195.062 149.953 195.18 150.25 195.18C150.547 195.18 150.832 195.062 151.042 194.852C151.252 194.642 151.37 194.357 151.37 194.06V184.06H152.54V194.06C152.54 194.357 152.658 194.642 152.868 194.852C153.079 195.062 153.363 195.18 153.66 195.18C153.957 195.18 154.242 195.062 154.452 194.852C154.662 194.642 154.78 194.357 154.78 194.06V182.89L155.09 176.66L158.49 182.44C158.546 182.557 158.626 182.66 158.724 182.744C158.822 182.828 158.937 182.891 159.061 182.928C159.185 182.966 159.315 182.977 159.443 182.961C159.571 182.945 159.695 182.903 159.806 182.836C159.917 182.77 160.013 182.681 160.088 182.576C160.163 182.47 160.215 182.35 160.24 182.224C160.266 182.097 160.265 181.966 160.238 181.84C160.21 181.714 160.157 181.594 160.08 181.49Z" fill="#F3C10E"/>
<path d="M172.78 171.84C173.259 171.84 173.727 171.698 174.125 171.432C174.523 171.166 174.833 170.788 175.016 170.346C175.199 169.904 175.247 169.417 175.154 168.948C175.06 168.478 174.83 168.047 174.492 167.709C174.153 167.37 173.722 167.14 173.252 167.047C172.783 166.953 172.296 167.001 171.854 167.184C171.412 167.367 171.034 167.678 170.768 168.076C170.502 168.473 170.36 168.941 170.36 169.42C170.36 170.062 170.615 170.677 171.069 171.131C171.523 171.585 172.139 171.84 172.78 171.84Z" fill="#F3C10E"/>
<path d="M180.86 181.49L176.17 173.49C176.08 173.28 175.8 173.14 175.45 173.01L173.86 172.4H171.64L170.09 173C169.75 173.13 169.47 173.24 169.37 173.45L164.67 181.45C164.608 181.555 164.567 181.671 164.55 181.792C164.532 181.913 164.539 182.036 164.569 182.155C164.599 182.273 164.652 182.384 164.725 182.482C164.799 182.58 164.89 182.663 164.995 182.725C165.1 182.787 165.217 182.828 165.338 182.846C165.459 182.863 165.582 182.857 165.7 182.826C165.819 182.796 165.93 182.743 166.028 182.67C166.126 182.597 166.208 182.505 166.27 182.4L169.61 176.71L169.9 182.43V194.06C169.9 194.357 170.018 194.642 170.228 194.852C170.439 195.062 170.723 195.18 171.02 195.18C171.317 195.18 171.602 195.062 171.812 194.852C172.022 194.642 172.14 194.357 172.14 194.06V184.06H173.31V194.06C173.31 194.357 173.428 194.642 173.638 194.852C173.849 195.062 174.133 195.18 174.43 195.18C174.727 195.18 175.012 195.062 175.222 194.852C175.432 194.642 175.55 194.357 175.55 194.06V182.89L175.86 176.66L179.26 182.44C179.322 182.545 179.404 182.637 179.502 182.71C179.599 182.783 179.71 182.836 179.829 182.865C179.947 182.895 180.07 182.901 180.19 182.883C180.311 182.865 180.426 182.823 180.53 182.76C180.742 182.635 180.896 182.431 180.958 182.193C181.019 181.955 180.985 181.702 180.86 181.49Z" fill="#F3C10E"/>
<path d="M193.55 171.84C194.029 171.84 194.497 171.698 194.895 171.432C195.293 171.166 195.603 170.788 195.786 170.346C195.969 169.904 196.017 169.417 195.924 168.948C195.83 168.478 195.6 168.047 195.262 167.709C194.923 167.37 194.492 167.14 194.022 167.047C193.553 166.953 193.066 167.001 192.624 167.184C192.182 167.367 191.804 167.678 191.538 168.076C191.272 168.473 191.13 168.941 191.13 169.42C191.13 170.062 191.385 170.677 191.839 171.131C192.293 171.585 192.909 171.84 193.55 171.84Z" fill="#F3C10E"/>
<path d="M201.63 181.49L196.95 173.49C196.772 173.248 196.513 173.078 196.22 173.01L194.63 172.4H192.41L190.86 173C190.52 173.13 190.24 173.24 190.14 173.45L185.44 181.45C185.316 181.662 185.281 181.915 185.343 182.153C185.405 182.391 185.558 182.595 185.77 182.72C185.874 182.783 185.99 182.825 186.11 182.843C186.231 182.861 186.354 182.855 186.472 182.825C186.59 182.796 186.701 182.743 186.799 182.67C186.896 182.597 186.978 182.505 187.04 182.4L190.38 176.71L190.67 182.43V194.06C190.67 194.357 190.788 194.642 190.998 194.852C191.208 195.062 191.493 195.18 191.79 195.18C192.087 195.18 192.372 195.062 192.582 194.852C192.792 194.642 192.91 194.357 192.91 194.06V184.06H194.08V194.06C194.08 194.357 194.198 194.642 194.408 194.852C194.618 195.062 194.903 195.18 195.2 195.18C195.497 195.18 195.782 195.062 195.992 194.852C196.202 194.642 196.32 194.357 196.32 194.06V182.89L196.63 176.66L200.03 182.44C200.092 182.545 200.174 182.637 200.271 182.71C200.369 182.783 200.48 182.836 200.598 182.865C200.716 182.895 200.839 182.901 200.96 182.883C201.08 182.865 201.196 182.823 201.3 182.76C201.512 182.635 201.665 182.431 201.727 182.193C201.789 181.955 201.754 181.702 201.63 181.49Z" fill="#F3C10E"/>
<path d="M214.32 171.84C214.799 171.84 215.267 171.698 215.665 171.432C216.063 171.166 216.373 170.788 216.556 170.346C216.739 169.904 216.787 169.417 216.694 168.948C216.601 168.478 216.37 168.047 216.032 167.709C215.693 167.37 215.262 167.14 214.793 167.047C214.323 166.953 213.836 167.001 213.394 167.184C212.952 167.367 212.574 167.678 212.308 168.076C212.042 168.473 211.9 168.941 211.9 169.42C211.9 170.062 212.155 170.677 212.609 171.131C213.063 171.585 213.679 171.84 214.32 171.84Z" fill="#F3C10E"/>
<path d="M222.4 181.49L217.72 173.49C217.524 173.259 217.25 173.106 216.95 173.06L215.37 172.45H213.14L211.59 173.05C211.25 173.18 210.97 173.29 210.87 173.5L206.17 181.5C206.046 181.713 206.011 181.965 206.073 182.203C206.135 182.441 206.288 182.645 206.5 182.77C206.604 182.833 206.72 182.875 206.84 182.893C206.961 182.911 207.084 182.905 207.202 182.876C207.32 182.846 207.431 182.793 207.529 182.72C207.626 182.647 207.708 182.555 207.77 182.45L211.11 176.76L211.4 182.48V194.06C211.4 194.357 211.518 194.642 211.728 194.852C211.938 195.062 212.223 195.18 212.52 195.18C212.817 195.18 213.102 195.062 213.312 194.852C213.522 194.642 213.64 194.357 213.64 194.06V184.06H214.81V194.06C214.81 194.357 214.928 194.642 215.138 194.852C215.348 195.062 215.633 195.18 215.93 195.18C216.227 195.18 216.512 195.062 216.722 194.852C216.932 194.642 217.05 194.357 217.05 194.06V182.89L217.36 176.66L220.76 182.44C220.822 182.545 220.904 182.637 221.001 182.71C221.099 182.783 221.21 182.836 221.328 182.866C221.446 182.895 221.569 182.901 221.69 182.883C221.81 182.865 221.926 182.823 222.03 182.76C222.138 182.702 222.234 182.622 222.311 182.526C222.388 182.431 222.446 182.321 222.48 182.202C222.515 182.084 222.525 181.961 222.511 181.838C222.498 181.716 222.46 181.598 222.4 181.49Z" fill="#F3C10E"/>
<path d="M131.24 206.34C131.719 206.34 132.187 206.198 132.585 205.932C132.983 205.666 133.293 205.288 133.476 204.846C133.659 204.404 133.707 203.917 133.614 203.448C133.52 202.978 133.29 202.547 132.952 202.209C132.613 201.87 132.182 201.64 131.712 201.547C131.243 201.453 130.756 201.501 130.314 201.684C129.872 201.867 129.494 202.178 129.228 202.576C128.962 202.973 128.82 203.441 128.82 203.92C128.82 204.562 129.075 205.177 129.529 205.631C129.983 206.085 130.598 206.34 131.24 206.34Z" fill="#F3C10E"/>
<path d="M139.31 215.99L134.63 207.99C134.54 207.78 134.25 207.65 133.9 207.51L132.32 206.91H130.1L128.55 207.51C128.21 207.64 127.93 207.75 127.83 207.96L123.13 215.96C123.068 216.065 123.027 216.182 123.01 216.302C122.992 216.423 122.999 216.547 123.029 216.665C123.059 216.783 123.112 216.895 123.185 216.992C123.259 217.09 123.35 217.173 123.455 217.235C123.56 217.298 123.677 217.339 123.798 217.356C123.919 217.373 124.042 217.367 124.16 217.337C124.279 217.307 124.39 217.253 124.488 217.18C124.586 217.107 124.668 217.015 124.73 216.91L128.07 211.22L128.36 216.94V228.58C128.36 228.877 128.478 229.162 128.688 229.372C128.898 229.582 129.183 229.7 129.48 229.7C129.777 229.7 130.062 229.582 130.272 229.372C130.482 229.162 130.6 228.877 130.6 228.58V218.58H131.77V228.58C131.77 228.877 131.888 229.162 132.098 229.372C132.308 229.582 132.593 229.7 132.89 229.7C133.187 229.7 133.472 229.582 133.682 229.372C133.892 229.162 134.01 228.877 134.01 228.58V217.39L134.32 211.16L137.72 216.94C137.776 217.057 137.856 217.16 137.954 217.245C138.052 217.329 138.167 217.391 138.291 217.429C138.415 217.466 138.545 217.477 138.673 217.461C138.801 217.445 138.925 217.403 139.036 217.337C139.147 217.27 139.243 217.182 139.318 217.076C139.393 216.971 139.445 216.851 139.47 216.724C139.496 216.597 139.495 216.467 139.468 216.34C139.44 216.214 139.387 216.095 139.31 215.99Z" fill="#F3C10E"/>
<path d="M152.01 206.34C152.489 206.34 152.957 206.198 153.355 205.932C153.753 205.666 154.063 205.288 154.246 204.846C154.429 204.404 154.477 203.917 154.384 203.448C154.29 202.978 154.06 202.547 153.722 202.209C153.383 201.87 152.952 201.64 152.482 201.547C152.013 201.453 151.526 201.501 151.084 201.684C150.642 201.867 150.264 202.178 149.998 202.576C149.732 202.973 149.59 203.441 149.59 203.92C149.59 204.562 149.845 205.177 150.299 205.631C150.753 206.085 151.369 206.34 152.01 206.34Z" fill="#F3C10E"/>
<path d="M160.08 215.99L155.4 207.99C155.31 207.78 155.02 207.65 154.67 207.51L153.09 206.91H150.87L149.32 207.51C148.98 207.64 148.7 207.75 148.6 207.96L143.9 215.96C143.838 216.065 143.797 216.182 143.78 216.302C143.762 216.423 143.769 216.547 143.799 216.665C143.829 216.783 143.882 216.895 143.955 216.992C144.029 217.09 144.12 217.173 144.225 217.235C144.33 217.298 144.447 217.339 144.568 217.356C144.689 217.373 144.812 217.367 144.93 217.337C145.049 217.307 145.16 217.253 145.258 217.18C145.356 217.107 145.438 217.015 145.5 216.91L148.84 211.22L149.13 216.94V228.58C149.13 228.877 149.248 229.162 149.458 229.372C149.668 229.582 149.953 229.7 150.25 229.7C150.547 229.7 150.832 229.582 151.042 229.372C151.252 229.162 151.37 228.877 151.37 228.58V218.58H152.54V228.58C152.54 228.877 152.658 229.162 152.868 229.372C153.078 229.582 153.363 229.7 153.66 229.7C153.957 229.7 154.242 229.582 154.452 229.372C154.662 229.162 154.78 228.877 154.78 228.58V217.39L155.09 211.16L158.49 216.94C158.546 217.057 158.626 217.16 158.724 217.245C158.822 217.329 158.937 217.391 159.061 217.429C159.185 217.466 159.315 217.477 159.443 217.461C159.571 217.445 159.695 217.403 159.806 217.337C159.917 217.27 160.013 217.182 160.088 217.076C160.163 216.971 160.215 216.851 160.24 216.724C160.266 216.597 160.265 216.467 160.238 216.34C160.21 216.214 160.157 216.095 160.08 215.99Z" fill="#F3C10E"/>
<path d="M172.78 206.34C173.259 206.34 173.727 206.198 174.125 205.932C174.523 205.666 174.833 205.288 175.016 204.846C175.199 204.404 175.247 203.917 175.154 203.448C175.06 202.978 174.83 202.547 174.492 202.209C174.153 201.87 173.722 201.64 173.252 201.547C172.783 201.453 172.296 201.501 171.854 201.684C171.412 201.867 171.034 202.178 170.768 202.576C170.502 202.973 170.36 203.441 170.36 203.92C170.36 204.562 170.615 205.177 171.069 205.631C171.523 206.085 172.139 206.34 172.78 206.34Z" fill="#F3C10E"/>
<path d="M180.86 215.99L176.17 207.99C176.08 207.78 175.8 207.65 175.45 207.51L173.86 206.91H171.64L170.09 207.51C169.75 207.64 169.47 207.75 169.37 207.96L164.67 215.96C164.608 216.065 164.567 216.182 164.55 216.302C164.532 216.423 164.539 216.547 164.569 216.665C164.599 216.783 164.652 216.895 164.725 216.992C164.799 217.09 164.89 217.173 164.995 217.235C165.1 217.298 165.217 217.339 165.338 217.356C165.459 217.373 165.582 217.367 165.7 217.337C165.819 217.307 165.93 217.253 166.028 217.18C166.126 217.107 166.208 217.015 166.27 216.91L169.61 211.22L169.9 216.94V228.58C169.9 228.877 170.018 229.162 170.228 229.372C170.439 229.582 170.723 229.7 171.02 229.7C171.317 229.7 171.602 229.582 171.812 229.372C172.022 229.162 172.14 228.877 172.14 228.58V218.58H173.31V228.58C173.31 228.877 173.428 229.162 173.638 229.372C173.849 229.582 174.133 229.7 174.43 229.7C174.727 229.7 175.012 229.582 175.222 229.372C175.432 229.162 175.55 228.877 175.55 228.58V217.39L175.86 211.16L179.26 216.94C179.385 217.152 179.589 217.305 179.827 217.367C180.065 217.429 180.318 217.394 180.53 217.27C180.743 217.143 180.897 216.938 180.958 216.698C181.02 216.458 180.985 216.204 180.86 215.99Z" fill="#F3C10E"/>
<path d="M193.55 206.34C194.029 206.34 194.497 206.198 194.895 205.932C195.293 205.666 195.603 205.288 195.786 204.846C195.969 204.404 196.017 203.917 195.924 203.448C195.83 202.978 195.6 202.547 195.262 202.209C194.923 201.87 194.492 201.64 194.022 201.547C193.553 201.453 193.066 201.501 192.624 201.684C192.182 201.867 191.804 202.178 191.538 202.576C191.272 202.973 191.13 203.441 191.13 203.92C191.13 204.562 191.385 205.177 191.839 205.631C192.293 206.085 192.909 206.34 193.55 206.34Z" fill="#F3C10E"/>
<path d="M201.63 215.99L196.95 208.06C196.85 207.85 196.57 207.72 196.22 207.58L194.63 206.98H192.41L190.86 207.58C190.52 207.71 190.24 207.82 190.14 208.03L185.44 216.03C185.316 216.244 185.28 216.498 185.342 216.738C185.404 216.977 185.558 217.183 185.77 217.31C185.983 217.434 186.235 217.469 186.473 217.407C186.711 217.345 186.915 217.192 187.04 216.98L190.38 211.29L190.67 217.01V228.65C190.67 228.947 190.788 229.232 190.998 229.442C191.208 229.652 191.493 229.77 191.79 229.77C192.087 229.77 192.372 229.652 192.582 229.442C192.792 229.232 192.91 228.947 192.91 228.65V218.65H194.08V228.65C194.08 228.947 194.198 229.232 194.408 229.442C194.618 229.652 194.903 229.77 195.2 229.77C195.497 229.77 195.782 229.652 195.992 229.442C196.202 229.232 196.32 228.947 196.32 228.65V217.39L196.63 211.16L200.03 216.94C200.155 217.152 200.359 217.305 200.597 217.367C200.835 217.429 201.088 217.394 201.3 217.27C201.513 217.143 201.666 216.937 201.728 216.698C201.79 216.458 201.755 216.204 201.63 215.99Z" fill="#F3C10E"/>
<path d="M214.32 206.34C214.799 206.34 215.267 206.198 215.665 205.932C216.063 205.666 216.373 205.288 216.556 204.846C216.739 204.404 216.787 203.917 216.694 203.448C216.601 202.978 216.37 202.547 216.032 202.209C215.693 201.87 215.262 201.64 214.793 201.547C214.323 201.453 213.836 201.501 213.394 201.684C212.952 201.867 212.574 202.178 212.308 202.576C212.042 202.973 211.9 203.441 211.9 203.92C211.9 204.562 212.155 205.177 212.609 205.631C213.063 206.085 213.679 206.34 214.32 206.34Z" fill="#F3C10E"/>
<path d="M222.4 215.99L217.72 207.99C217.62 207.78 217.34 207.65 216.99 207.51L215.41 206.91H213.18L211.63 207.51C211.29 207.64 211.01 207.75 210.91 207.96L206.21 215.96C206.086 216.174 206.051 216.428 206.112 216.668C206.174 216.908 206.328 217.113 206.54 217.24C206.753 217.364 207.005 217.399 207.243 217.337C207.481 217.275 207.685 217.122 207.81 216.91L211.15 211.22L211.44 216.94V228.58C211.44 228.877 211.558 229.162 211.768 229.372C211.978 229.582 212.263 229.7 212.56 229.7C212.857 229.7 213.142 229.582 213.352 229.372C213.562 229.162 213.68 228.877 213.68 228.58V218.58H214.85V228.58C214.85 228.877 214.968 229.162 215.178 229.372C215.388 229.582 215.673 229.7 215.97 229.7C216.267 229.7 216.552 229.582 216.762 229.372C216.972 229.162 217.09 228.877 217.09 228.58V217.39L217.4 211.16L220.8 216.94C220.925 217.152 221.129 217.305 221.367 217.367C221.605 217.429 221.858 217.394 222.07 217.27C222.283 217.143 222.436 216.938 222.498 216.698C222.56 216.458 222.525 216.204 222.4 215.99Z" fill="#F3C10E"/>
<path d="M103.86 111.67H89.5701V121.11H87.2301V111.67H73.1401V109.91H87.2301V100.42H74.9401V98.6602H101.94V100.42H89.5701V109.91H103.86V111.67ZM79.4601 101.78C80.8576 103.655 81.9947 105.71 82.8401 107.89L80.6701 108.45C79.8316 106.261 78.7409 104.177 77.4201 102.24L79.4601 101.78ZM93.5401 108.07C95.0346 106.057 96.3181 103.896 97.3701 101.62L99.7901 102.18C98.5342 104.42 97.0925 106.551 95.4801 108.55L93.5401 108.07Z" fill="#381805"/>
<path d="M99.6201 123.5V145.5H97.2401V143.9H79.7401V145.63H77.3901V123.5H99.6201ZM79.7401 125.28V132.72H97.2401V125.28H79.7401ZM97.2401 142.13V134.48H79.7401V142.13H97.2401Z" fill="#381805"/>
<path d="M80.75 171.78C80.0888 173.747 79.2971 175.668 78.38 177.53V196.15H76.18V181.31C75.4454 182.411 74.6191 183.448 73.71 184.41C73.3766 183.753 72.9561 183.145 72.46 182.6C75.3099 179.363 77.3917 175.524 78.55 171.37L80.75 171.78ZM84.2 190.62V196.1H82V172.47H91.44V180.79H84.2V183.89H90.68V185.45H84.2V189.06H91.06V190.62H84.2ZM84.2 174.03V179.23H89.43V174L84.2 174.03ZM103.12 183.31C102.394 186.302 100.878 189.044 98.73 191.25C100.376 192.836 102.368 194.018 104.55 194.7C104.023 195.112 103.543 195.582 103.12 196.1C100.981 195.328 99.0331 194.103 97.41 192.51C95.2699 194.183 92.8342 195.438 90.23 196.21C89.8935 195.701 89.4783 195.249 89 194.87C91.6254 194.175 94.0662 192.912 96.15 191.17C94.6075 189.304 93.4242 187.168 92.66 184.87L94.2 184.57H91.9V183H101.34H101.72L103.12 183.31ZM102.63 180.77H92.91V179.18H100.51V174.06H92.91V172.47H102.63V180.77ZM94.55 184.57C95.1995 186.525 96.2179 188.338 97.55 189.91C98.9524 188.372 100.009 186.551 100.65 184.57H94.55Z" fill="#381805"/>
<path d="M100.27 199.78V222.37H97.8598V220.73H80.1898V222.51H77.8198V199.78H100.27ZM80.1898 201.61V209.25H97.8598V201.61H80.1898ZM97.8598 218.92V211.06H80.1898V218.92H97.8598Z" fill="#381805"/>
<path d="M73.7998 160.04H241.27" stroke="#FFDA7C" stroke-width="0.5" stroke-miterlimit="10"/>
<path d="M131.253 98.9098C131.732 98.9098 132.2 98.7679 132.598 98.502C132.996 98.2361 133.306 97.8581 133.489 97.4159C133.672 96.9737 133.72 96.4871 133.627 96.0177C133.534 95.5483 133.303 95.1171 132.965 94.7786C132.626 94.4402 132.195 94.2097 131.726 94.1163C131.256 94.0229 130.77 94.0709 130.327 94.254C129.885 94.4372 129.507 94.7474 129.241 95.1453C128.975 95.5433 128.833 96.0112 128.833 96.4898C128.833 97.1316 129.088 97.7472 129.542 98.201C129.996 98.6549 130.612 98.9098 131.253 98.9098Z" fill="#F3C10E"/>
<path d="M139.323 108.56L134.643 100.56C134.553 100.35 134.263 100.22 133.913 100.08L132.333 99.48H130.113L128.563 100.08C128.223 100.21 127.943 100.32 127.843 100.53L123.143 108.53C123.078 108.635 123.033 108.752 123.013 108.874C122.992 108.996 122.996 109.121 123.024 109.242C123.052 109.363 123.103 109.477 123.175 109.578C123.247 109.679 123.338 109.764 123.443 109.83C123.548 109.896 123.665 109.94 123.788 109.96C123.91 109.981 124.035 109.977 124.156 109.949C124.276 109.921 124.39 109.87 124.491 109.798C124.592 109.726 124.678 109.635 124.743 109.53L128.083 103.84L128.373 109.56V121.2C128.373 121.497 128.491 121.782 128.701 121.992C128.911 122.202 129.196 122.32 129.493 122.32C129.79 122.32 130.075 122.202 130.285 121.992C130.495 121.782 130.613 121.497 130.613 121.2V111.2H131.783V121.2C131.783 121.497 131.901 121.782 132.111 121.992C132.321 122.202 132.606 122.32 132.903 122.32C133.2 122.32 133.485 122.202 133.695 121.992C133.905 121.782 134.023 121.497 134.023 121.2V109.96L134.333 103.73L137.733 109.51C137.866 109.721 138.077 109.87 138.32 109.926C138.563 109.981 138.818 109.938 139.028 109.805C139.239 109.672 139.389 109.461 139.444 109.219C139.499 108.976 139.456 108.721 139.323 108.51V108.56Z" fill="#F3C10E"/>
<path d="M152.024 98.9098C152.502 98.9098 152.97 98.7679 153.368 98.502C153.766 98.2361 154.076 97.8581 154.259 97.4159C154.442 96.9737 154.49 96.4871 154.397 96.0177C154.304 95.5483 154.073 95.1171 153.735 94.7786C153.396 94.4402 152.965 94.2097 152.496 94.1163C152.026 94.0229 151.54 94.0709 151.097 94.254C150.655 94.4372 150.277 94.7474 150.011 95.1453C149.745 95.5433 149.604 96.0112 149.604 96.4898C149.604 97.1316 149.858 97.7472 150.312 98.201C150.766 98.6549 151.382 98.9098 152.024 98.9098Z" fill="#F3C10E"/>
<path d="M160.103 108.56L155.413 100.56C155.323 100.35 155.043 100.22 154.693 100.08L153.103 99.48H150.883L149.333 100.08C148.993 100.21 148.713 100.32 148.613 100.53L143.913 108.53C143.848 108.635 143.803 108.752 143.783 108.874C143.763 108.996 143.766 109.121 143.794 109.242C143.822 109.363 143.873 109.477 143.945 109.578C144.017 109.679 144.108 109.764 144.213 109.83C144.318 109.896 144.435 109.94 144.558 109.96C144.68 109.981 144.805 109.977 144.926 109.949C145.046 109.921 145.16 109.87 145.261 109.798C145.362 109.726 145.448 109.635 145.513 109.53L148.853 103.84L149.143 109.56V121.2C149.143 121.497 149.261 121.782 149.471 121.992C149.682 122.202 149.966 122.32 150.263 122.32C150.56 122.32 150.845 122.202 151.055 121.992C151.265 121.782 151.383 121.497 151.383 121.2V111.2H152.553V121.2C152.553 121.497 152.671 121.782 152.881 121.992C153.091 122.202 153.376 122.32 153.673 122.32C153.97 122.32 154.255 122.202 154.465 121.992C154.675 121.782 154.793 121.497 154.793 121.2V109.96L155.103 103.73L158.503 109.51C158.628 109.722 158.832 109.875 159.07 109.937C159.308 109.999 159.561 109.964 159.773 109.84C159.986 109.713 160.14 109.507 160.201 109.268C160.263 109.028 160.228 108.774 160.103 108.56Z" fill="#F3C10E"/>
<path d="M172.794 98.9098C173.272 98.9098 173.74 98.7679 174.138 98.502C174.536 98.2361 174.846 97.8581 175.029 97.4159C175.212 96.9737 175.26 96.4871 175.167 96.0177C175.074 95.5483 174.843 95.1171 174.505 94.7786C174.166 94.4402 173.735 94.2097 173.266 94.1163C172.796 94.0229 172.31 94.0709 171.867 94.254C171.425 94.4372 171.047 94.7474 170.781 95.1453C170.515 95.5433 170.374 96.0112 170.374 96.4898C170.374 97.1316 170.629 97.7472 171.082 98.201C171.536 98.6549 172.152 98.9098 172.794 98.9098Z" fill="#F3C10E"/>
<path d="M180.873 108.56L176.193 100.56C176.093 100.35 175.813 100.22 175.463 100.08L173.873 99.48H171.653L170.103 100.08C169.763 100.21 169.483 100.32 169.383 100.53L164.683 108.53C164.559 108.744 164.524 108.998 164.585 109.238C164.647 109.477 164.801 109.683 165.013 109.81C165.226 109.934 165.479 109.969 165.717 109.907C165.955 109.845 166.158 109.692 166.283 109.48L169.623 103.79L169.913 109.51V121.15C169.913 121.447 170.031 121.732 170.241 121.942C170.451 122.152 170.736 122.27 171.033 122.27C171.33 122.27 171.615 122.152 171.825 121.942C172.035 121.732 172.153 121.447 172.153 121.15V111.15H173.323V121.15C173.323 121.447 173.441 121.732 173.651 121.942C173.861 122.152 174.146 122.27 174.443 122.27C174.74 122.27 175.025 122.152 175.235 121.942C175.445 121.732 175.563 121.447 175.563 121.15V109.96L175.873 103.73L179.273 109.51C179.398 109.722 179.602 109.875 179.84 109.937C180.078 109.999 180.331 109.964 180.543 109.84C180.756 109.713 180.91 109.507 180.971 109.268C181.033 109.028 180.998 108.774 180.873 108.56Z" fill="#F3C10E"/>
<path d="M193.563 98.9098C194.044 98.9197 194.517 98.7863 194.921 98.5265C195.326 98.2667 195.644 97.8923 195.834 97.4511C196.025 97.0098 196.08 96.5218 195.993 96.0491C195.905 95.5764 195.679 95.1405 195.342 94.7971C195.006 94.4536 194.575 94.2181 194.104 94.1206C193.633 94.0231 193.144 94.068 192.699 94.2496C192.254 94.4312 191.873 94.7413 191.605 95.1403C191.337 95.5392 191.193 96.0091 191.193 96.4898C191.193 97.123 191.441 97.7311 191.884 98.1836C192.327 98.636 192.93 98.8967 193.563 98.9098Z" fill="#F3C10E"/>
<path d="M201.643 108.56L196.963 100.56C196.863 100.35 196.583 100.22 196.233 100.08L194.653 99.48H192.423L190.873 100.08C190.533 100.21 190.253 100.32 190.153 100.53L185.453 108.53C185.329 108.744 185.294 108.998 185.355 109.238C185.417 109.477 185.571 109.683 185.783 109.81C185.996 109.934 186.249 109.969 186.487 109.907C186.725 109.845 186.928 109.692 187.053 109.48L190.393 103.79L190.683 109.51V121.15C190.683 121.447 190.801 121.732 191.011 121.942C191.222 122.152 191.506 122.27 191.803 122.27C192.1 122.27 192.385 122.152 192.595 121.942C192.805 121.732 192.923 121.447 192.923 121.15V111.15H194.093V121.15C194.093 121.447 194.211 121.732 194.421 121.942C194.632 122.152 194.916 122.27 195.213 122.27C195.51 122.27 195.795 122.152 196.005 121.942C196.215 121.732 196.333 121.447 196.333 121.15V109.96L196.643 103.73L200.043 109.51C200.168 109.722 200.372 109.875 200.61 109.937C200.848 109.999 201.101 109.964 201.313 109.84C201.526 109.713 201.68 109.507 201.741 109.268C201.803 109.028 201.768 108.774 201.643 108.56Z" fill="#F3C10E"/>
<path d="M131.253 133.41C131.732 133.41 132.2 133.268 132.598 133.002C132.996 132.736 133.306 132.358 133.489 131.916C133.672 131.474 133.72 130.987 133.627 130.518C133.534 130.048 133.303 129.617 132.965 129.279C132.626 128.94 132.195 128.71 131.726 128.616C131.256 128.523 130.77 128.571 130.327 128.754C129.885 128.937 129.507 129.247 129.241 129.645C128.975 130.043 128.833 130.511 128.833 130.99C128.833 131.632 129.088 132.247 129.542 132.701C129.996 133.155 130.612 133.41 131.253 133.41Z" fill="#F3C10E"/>
<path d="M139.324 143.06L134.644 135.06C134.554 134.86 134.264 134.72 133.914 134.58L132.334 133.98H130.114L128.564 134.58C128.224 134.71 127.944 134.83 127.844 135.03L123.144 143.03C123.081 143.135 123.04 143.251 123.023 143.372C123.005 143.493 123.012 143.616 123.042 143.735C123.072 143.853 123.125 143.964 123.199 144.062C123.272 144.16 123.364 144.243 123.469 144.305C123.574 144.367 123.69 144.408 123.811 144.426C123.932 144.443 124.055 144.437 124.173 144.407C124.292 144.376 124.403 144.323 124.501 144.25C124.599 144.177 124.681 144.085 124.744 143.98L128.084 138.29L128.374 144.02V155.65C128.374 155.947 128.492 156.232 128.702 156.442C128.912 156.652 129.197 156.77 129.494 156.77C129.791 156.77 130.076 156.652 130.286 156.442C130.496 156.232 130.614 155.947 130.614 155.65V145.65H131.784V155.65C131.784 155.947 131.902 156.232 132.112 156.442C132.322 156.652 132.607 156.77 132.904 156.77C133.201 156.77 133.485 156.652 133.696 156.442C133.906 156.232 134.024 155.947 134.024 155.65V144.46L134.334 138.23L137.734 144.01C137.789 144.127 137.869 144.23 137.967 144.314C138.065 144.398 138.18 144.461 138.304 144.499C138.428 144.536 138.558 144.547 138.686 144.531C138.815 144.515 138.938 144.473 139.049 144.406C139.16 144.34 139.256 144.251 139.331 144.146C139.406 144.04 139.458 143.92 139.484 143.794C139.509 143.667 139.508 143.536 139.481 143.41C139.453 143.284 139.4 143.164 139.324 143.06Z" fill="#F3C10E"/>
<path d="M152.024 133.41C152.502 133.41 152.97 133.268 153.368 133.002C153.766 132.736 154.076 132.358 154.259 131.916C154.442 131.474 154.49 130.987 154.397 130.518C154.304 130.048 154.073 129.617 153.735 129.279C153.396 128.94 152.965 128.71 152.496 128.616C152.026 128.523 151.54 128.571 151.097 128.754C150.655 128.937 150.277 129.247 150.011 129.645C149.745 130.043 149.604 130.511 149.604 130.99C149.604 131.632 149.858 132.247 150.312 132.701C150.766 133.155 151.382 133.41 152.024 133.41Z" fill="#F3C10E"/>
<path d="M160.104 143.06L155.414 135.06C155.324 134.86 155.044 134.72 154.694 134.58L153.104 133.98H150.884L149.334 134.58C148.994 134.71 148.714 134.83 148.614 135.03L143.914 143.03C143.851 143.135 143.81 143.251 143.793 143.372C143.775 143.493 143.782 143.616 143.812 143.735C143.842 143.853 143.895 143.964 143.969 144.062C144.042 144.16 144.134 144.243 144.239 144.305C144.344 144.367 144.46 144.408 144.581 144.426C144.702 144.443 144.825 144.437 144.943 144.407C145.062 144.376 145.173 144.323 145.271 144.25C145.369 144.177 145.451 144.085 145.514 143.98L148.854 138.29L149.144 144.02V155.65C149.144 155.947 149.262 156.232 149.472 156.442C149.682 156.652 149.967 156.77 150.264 156.77C150.561 156.77 150.846 156.652 151.056 156.442C151.266 156.232 151.384 155.947 151.384 155.65V145.65H152.554V155.65C152.554 155.947 152.672 156.232 152.882 156.442C153.092 156.652 153.377 156.77 153.674 156.77C153.971 156.77 154.256 156.652 154.466 156.442C154.676 156.232 154.794 155.947 154.794 155.65V144.46L155.104 138.23L158.504 144.01C158.629 144.222 158.832 144.375 159.07 144.437C159.308 144.499 159.561 144.464 159.774 144.34C159.986 144.213 160.14 144.007 160.202 143.768C160.263 143.528 160.228 143.274 160.104 143.06Z" fill="#F3C10E"/>
<path d="M172.794 133.41C173.272 133.41 173.74 133.268 174.138 133.002C174.536 132.736 174.846 132.358 175.029 131.916C175.212 131.474 175.26 130.987 175.167 130.518C175.074 130.048 174.843 129.617 174.505 129.279C174.166 128.94 173.735 128.71 173.266 128.616C172.796 128.523 172.31 128.571 171.867 128.754C171.425 128.937 171.047 129.247 170.781 129.645C170.515 130.043 170.374 130.511 170.374 130.99C170.374 131.632 170.629 132.247 171.082 132.701C171.536 133.155 172.152 133.41 172.794 133.41Z" fill="#F3C10E"/>
<path d="M180.873 143.06L176.193 135.06C176.009 134.824 175.753 134.655 175.463 134.58L173.873 133.98H171.653L170.103 134.58C169.763 134.71 169.483 134.83 169.383 135.03L164.683 143.03C164.559 143.244 164.524 143.498 164.585 143.738C164.647 143.977 164.801 144.183 165.013 144.31C165.226 144.434 165.479 144.469 165.717 144.407C165.955 144.345 166.158 144.192 166.283 143.98L169.623 138.29L169.913 144.02V155.65C169.913 155.947 170.031 156.232 170.241 156.442C170.451 156.652 170.736 156.77 171.033 156.77C171.33 156.77 171.615 156.652 171.825 156.442C172.035 156.232 172.153 155.947 172.153 155.65V145.65H173.323V155.65C173.323 155.947 173.441 156.232 173.651 156.442C173.861 156.652 174.146 156.77 174.443 156.77C174.74 156.77 175.025 156.652 175.235 156.442C175.445 156.232 175.563 155.947 175.563 155.65V144.46L175.873 138.23L179.273 144.01C179.398 144.222 179.602 144.375 179.84 144.437C180.078 144.499 180.331 144.464 180.543 144.34C180.756 144.213 180.91 144.007 180.971 143.768C181.033 143.528 180.998 143.274 180.873 143.06Z" fill="#F3C10E"/>
<path d="M193.563 133.41C194.044 133.42 194.517 133.286 194.921 133.026C195.326 132.767 195.644 132.392 195.834 131.951C196.025 131.51 196.08 131.022 195.993 130.549C195.905 130.076 195.679 129.641 195.342 129.297C195.006 128.954 194.575 128.718 194.104 128.621C193.633 128.523 193.144 128.568 192.699 128.75C192.254 128.931 191.873 129.241 191.605 129.64C191.337 130.039 191.193 130.509 191.193 130.99C191.193 131.623 191.441 132.231 191.884 132.684C192.327 133.136 192.93 133.397 193.563 133.41Z" fill="#F3C10E"/>
<path d="M201.643 143.06L196.963 135.06C196.78 134.824 196.523 134.655 196.233 134.58L194.653 133.98H192.423L190.873 134.58C190.533 134.71 190.253 134.83 190.153 135.03L185.453 143.03C185.329 143.244 185.294 143.498 185.355 143.738C185.417 143.977 185.571 144.183 185.783 144.31C185.996 144.434 186.249 144.469 186.487 144.407C186.725 144.345 186.928 144.192 187.053 143.98L190.393 138.29L190.683 144.02V155.65C190.683 155.947 190.801 156.232 191.011 156.442C191.222 156.652 191.506 156.77 191.803 156.77C192.1 156.77 192.385 156.652 192.595 156.442C192.805 156.232 192.923 155.947 192.923 155.65V145.65H194.093V155.65C194.093 155.947 194.211 156.232 194.421 156.442C194.632 156.652 194.916 156.77 195.213 156.77C195.51 156.77 195.795 156.652 196.005 156.442C196.215 156.232 196.333 155.947 196.333 155.65V144.46L196.643 138.23L200.043 144.01C200.168 144.222 200.372 144.375 200.61 144.437C200.848 144.499 201.101 144.464 201.313 144.34C201.526 144.213 201.68 144.007 201.741 143.768C201.803 143.528 201.768 143.274 201.643 143.06Z" fill="#F3C10E"/>
<path d="M214.713 98.84C215.192 98.84 215.66 98.6981 216.058 98.4322C216.456 98.1662 216.766 97.7883 216.949 97.3461C217.132 96.9039 217.18 96.4173 217.087 95.9479C216.994 95.4784 216.763 95.0472 216.425 94.7088C216.086 94.3704 215.655 94.1399 215.186 94.0465C214.716 93.9531 214.23 94.001 213.787 94.1842C213.345 94.3674 212.967 94.6776 212.701 95.0755C212.435 95.4735 212.293 95.9414 212.293 96.42C212.293 97.0618 212.548 97.6774 213.002 98.1312C213.456 98.585 214.072 98.84 214.713 98.84Z" fill="#F3C10E"/>
<path d="M222.783 108.49L218.103 100.49C218.013 100.28 217.723 100.14 217.373 100.01L215.793 99.3999H213.563L212.023 99.9999C211.683 100.13 211.403 100.24 211.303 100.45L206.603 108.45C206.478 108.661 206.442 108.913 206.502 109.151C206.562 109.389 206.713 109.593 206.923 109.72C207.136 109.845 207.389 109.882 207.629 109.822C207.868 109.762 208.075 109.611 208.203 109.4L211.543 103.71L211.823 109.43V121.06C211.823 121.357 211.941 121.642 212.151 121.852C212.361 122.062 212.646 122.18 212.943 122.18C213.24 122.18 213.525 122.062 213.735 121.852C213.945 121.642 214.063 121.357 214.063 121.06V111.06H215.193V121.06C215.193 121.357 215.311 121.642 215.521 121.852C215.731 122.062 216.016 122.18 216.313 122.18C216.61 122.18 216.895 122.062 217.105 121.852C217.315 121.642 217.433 121.357 217.433 121.06V109.88L217.753 103.66L221.143 109.44C221.272 109.651 221.478 109.802 221.718 109.862C221.957 109.922 222.211 109.885 222.423 109.76C222.531 109.7 222.625 109.62 222.701 109.524C222.778 109.428 222.834 109.318 222.868 109.2C222.901 109.082 222.911 108.958 222.896 108.836C222.882 108.715 222.843 108.597 222.783 108.49Z" fill="#F3C10E"/>
<path d="M214.713 133.34C215.192 133.34 215.66 133.198 216.058 132.932C216.456 132.666 216.766 132.288 216.949 131.846C217.132 131.404 217.18 130.917 217.087 130.448C216.994 129.978 216.763 129.547 216.425 129.209C216.086 128.87 215.655 128.64 215.186 128.547C214.716 128.453 214.23 128.501 213.787 128.684C213.345 128.867 212.967 129.178 212.701 129.576C212.435 129.973 212.293 130.441 212.293 130.92C212.293 131.562 212.548 132.177 213.002 132.631C213.456 133.085 214.072 133.34 214.713 133.34Z" fill="#ECECE7"/>
<path d="M222.783 142.99L218.103 134.99C218.013 134.78 217.723 134.64 217.373 134.51L215.793 133.9H213.563L212.023 134.5C211.683 134.63 211.403 134.74 211.303 134.95L206.603 142.95C206.471 143.162 206.428 143.418 206.484 143.662C206.54 143.906 206.691 144.117 206.903 144.25C207.116 144.383 207.372 144.425 207.615 144.369C207.859 144.313 208.071 144.162 208.203 143.95L211.543 138.26L211.823 143.98V155.61C211.823 155.907 211.941 156.192 212.151 156.402C212.361 156.612 212.646 156.73 212.943 156.73C213.24 156.73 213.525 156.612 213.735 156.402C213.945 156.192 214.063 155.907 214.063 155.61V145.61H215.193V155.61C215.193 155.907 215.311 156.192 215.521 156.402C215.731 156.612 216.016 156.73 216.313 156.73C216.61 156.73 216.895 156.612 217.105 156.402C217.315 156.192 217.433 155.907 217.433 155.61V144.39L217.753 138.16L221.143 143.94C221.209 144.045 221.295 144.136 221.396 144.208C221.496 144.28 221.611 144.331 221.731 144.359C221.852 144.387 221.977 144.391 222.099 144.37C222.221 144.35 222.338 144.306 222.443 144.24C222.548 144.174 222.64 144.089 222.711 143.988C222.783 143.887 222.835 143.773 222.863 143.652C222.89 143.531 222.894 143.406 222.874 143.284C222.853 143.162 222.809 143.045 222.743 142.94L222.783 142.99Z" fill="#ECECE7"/>
<path d="M212.293 130.92C212.296 131.557 212.549 132.167 212.999 132.618C213.448 133.069 214.057 133.325 214.693 133.33V128.5C214.055 128.505 213.445 128.763 212.995 129.216C212.546 129.669 212.293 130.282 212.293 130.92Z" fill="#F3C10E"/>
<path d="M213.563 133.94L212.023 134.54C211.683 134.67 211.403 134.78 211.303 134.99L206.603 142.99C206.478 143.201 206.442 143.453 206.502 143.691C206.562 143.929 206.713 144.133 206.923 144.26C207.136 144.385 207.389 144.422 207.629 144.362C207.868 144.302 208.075 144.151 208.203 143.94L211.543 138.25L211.823 143.97V155.6C211.823 155.897 211.941 156.182 212.151 156.392C212.361 156.602 212.646 156.72 212.943 156.72C213.24 156.72 213.525 156.602 213.735 156.392C213.945 156.182 214.063 155.897 214.063 155.6V145.6H214.693V133.94H213.563Z" fill="#F3C10E"/>
</g>
<defs>
<clipPath id="clip0_451_5174">
<rect width="410" height="500" fill="white"/>
</clipPath>
</defs>
</svg>
