<svg width="410" height="500" viewBox="0 0 410 500" fill="none" xmlns="http://www.w3.org/2000/svg">
<path d="M205.994 466C205.184 461.95 203.694 454.63 203.524 450.45C203.194 442.57 205.124 435.08 207.014 427.53C208.704 420.78 211.404 414.53 214.124 408.16C217.004 401.45 218.934 394.37 221.304 387.47C225.494 375.26 230.854 363.609 238.444 353.079C240.991 349.593 243.185 345.861 244.994 341.94C248.704 333.78 253.804 326.43 258.344 318.75C266.084 305.69 271.344 291.58 275.544 277.04C278.044 268.32 280.654 259.63 282.864 250.84C285.404 240.73 286.494 230.33 288.114 220.04C289.904 208.64 291.114 197.04 296.294 186.5C298.508 182.205 301.084 178.107 303.994 174.25C306.455 170.932 308.551 167.358 310.244 163.59C312.103 159.162 314.293 154.88 316.794 150.78C318.645 147.947 319.803 144.718 320.173 141.354C320.543 137.99 320.115 134.587 318.924 131.42C317.002 126.083 316.077 120.44 316.194 114.77C316.335 109.013 317.388 103.316 319.314 97.8895C320.744 93.8195 324.074 90.9995 327.384 88.2895C330.234 85.9495 330.744 84.2895 328.974 80.9895C326.824 76.9895 326.554 72.7995 326.814 68.3995C327.044 64.5595 325.314 62.9095 321.414 62.3995C313.034 61.2895 304.904 59.5895 297.914 54.2895C295.471 52.4661 293.363 50.233 291.684 47.6895C290.363 45.684 288.721 43.9102 286.824 42.4395C282.294 38.9295 279.374 39.6195 274.824 41.9995C269.334 44.8495 265.124 49.3295 261.204 53.9995C254.834 61.5695 246.494 65.4995 237.204 67.8895C226.064 70.7395 216.634 75.8895 209.484 85.4795C205.078 91.6002 201.603 98.3401 199.174 105.48C196.364 113.17 192.924 120.63 186.514 126.3C182.947 129.548 179.571 133.001 176.404 136.64C172.344 141.18 170.124 146.64 168.114 152.4C164.528 162.48 159.615 172.037 153.504 180.82C146.424 191.06 139.434 201.44 134.214 212.75C128.734 224.61 122.284 236.03 118.004 248.43C114.844 257.989 112.755 267.869 111.774 277.89C111.044 284.41 110.774 290.97 110.324 297.52C109.324 313.66 112.394 329.22 116.324 344.71C118.994 355.16 124.264 364.19 130.514 372.82C136.764 381.45 144.314 389.09 150.684 397.64C158.304 407.85 166.304 417.81 171.214 429.78C173.706 435.817 175.417 442.148 176.304 448.62C177.244 455.45 179.944 460.689 186.994 462.799C188.734 463.319 190.454 463.88 192.174 464.43C195.305 465.293 198.39 466.322 201.414 467.51C203.674 468.51 204.974 468 206.084 466.07" stroke="#381805" stroke-width="2" stroke-linecap="round" stroke-linejoin="round"/>
<path d="M327.375 76.8489C326.401 74.5396 326.102 72.0011 326.515 69.5289C327.515 63.2689 323.135 62.9489 319.025 62.5989C312.735 62.0689 308.075 66.2789 303.705 70.3489C300.805 73.0489 298.025 73.0689 295.825 71.2289C295.154 70.7552 294.68 70.0506 294.496 69.2499C294.311 68.4492 294.429 67.6086 294.825 66.8889C295.825 65.0389 298.225 62.8889 299.535 61.1989C300.625 59.7589 301.295 57.0489 299.085 55.6089C294.545 52.6089 292.605 48.0889 288.745 44.1189C285.145 40.5189 281.745 39.2889 277.925 41.0389C273.015 43.2889 269.925 45.5489 264.875 50.4289C261.155 53.7889 257.695 57.3289 254.105 60.8289C252.105 62.7689 249.045 63.8289 246.575 64.9689C244.575 65.8589 244.225 67.3489 244.025 69.5789C243.745 72.6989 244.615 73.6489 248.365 75.0589C250.365 75.8089 252.575 75.9489 253.915 78.2589C254.747 79.5061 255.201 80.9671 255.222 82.4662C255.244 83.9653 254.831 85.4386 254.035 86.7089C250.755 91.9389 253.035 96.7889 254.405 101.709C254.895 103.469 256.405 104.319 257.905 105.299C263.905 109.299 266.805 114.999 266.325 122.169C266.025 126.779 266.735 131.959 270.775 133.729C275.085 135.619 284.335 127.469 286.875 119.459C287.502 117.551 288.852 115.964 290.635 115.039C294.345 113.039 297.955 110.759 301.555 108.519C305.984 105.711 309.862 102.115 312.995 97.9089C315.635 94.4389 318.175 91.1889 322.835 90.2089C324.745 89.8089 330.015 88.2089 330.015 84.8489C329.645 79.9989 328.275 79.2389 327.375 76.8489ZM290.175 80.8489C288.263 83.3573 286.484 85.9642 284.845 88.6589C282.845 92.0789 279.725 90.9489 278.495 88.6589C277.767 87.0593 276.603 85.697 275.137 84.7279C273.671 83.7587 271.962 83.2219 270.205 83.1789C267.725 82.9889 267.205 81.2889 268.575 79.1789C269.705 77.6483 270.449 75.8681 270.745 73.9889C270.985 71.4989 268.835 69.8289 267.445 67.9889C267.088 67.6369 266.87 67.1679 266.832 66.6681C266.793 66.1684 266.936 65.6715 267.235 65.2689C269.505 62.5589 271.615 62.5789 274.715 58.3989C275.316 57.5542 276.176 56.929 277.165 56.6189C279.985 55.7789 281.635 57.1289 282.725 60.6189C284.585 66.6189 285.645 72.8589 290.345 77.5589C291.245 78.4189 291.105 79.5289 290.175 80.8089V80.8489Z" stroke="#F3C10E" stroke-width="3" stroke-miterlimit="10"/>
<g opacity="0.2">
<path d="M327.375 76.8489C326.401 74.5396 326.102 72.0011 326.515 69.5289C327.515 63.2689 323.135 62.9489 319.025 62.5989C312.735 62.0689 308.075 66.2789 303.705 70.3489C300.805 73.0489 298.025 73.0689 295.825 71.2289C295.154 70.7552 294.68 70.0506 294.496 69.2499C294.311 68.4492 294.429 67.6086 294.825 66.8889C295.825 65.0389 298.225 62.8889 299.535 61.1989C300.625 59.7589 301.295 57.0489 299.085 55.6089C294.545 52.6089 292.605 48.0889 288.745 44.1189C285.145 40.5189 281.745 39.2889 277.925 41.0389C273.015 43.2889 269.925 45.5489 264.875 50.4289C261.155 53.7889 257.695 57.3289 254.105 60.8289C252.105 62.7689 249.045 63.8289 246.575 64.9689C244.575 65.8589 244.225 67.3489 244.025 69.5789C243.745 72.6989 244.615 73.6489 248.365 75.0589C250.365 75.8089 252.575 75.9489 253.915 78.2589C254.747 79.5061 255.201 80.9671 255.222 82.4662C255.244 83.9653 254.831 85.4386 254.035 86.7089C250.755 91.9389 253.035 96.7889 254.405 101.709C254.895 103.469 256.405 104.319 257.905 105.299C263.905 109.299 266.805 114.999 266.325 122.169C266.025 126.779 266.735 131.959 270.775 133.729C275.085 135.619 284.335 127.469 286.875 119.459C287.502 117.551 288.852 115.964 290.635 115.039C294.345 113.039 297.955 110.759 301.555 108.519C305.984 105.711 309.862 102.115 312.995 97.9089C315.635 94.4389 318.175 91.1889 322.835 90.2089C324.745 89.8089 330.015 88.2089 330.015 84.8489C329.645 79.9989 328.275 79.2389 327.375 76.8489ZM290.175 80.8489C288.263 83.3573 286.484 85.9642 284.845 88.6589C282.845 92.0789 279.725 90.9489 278.495 88.6589C277.767 87.0593 276.603 85.697 275.137 84.7279C273.671 83.7587 271.962 83.2219 270.205 83.1789C267.725 82.9889 267.205 81.2889 268.575 79.1789C269.705 77.6483 270.449 75.8681 270.745 73.9889C270.985 71.4989 268.835 69.8289 267.445 67.9889C267.088 67.6369 266.87 67.1679 266.832 66.6681C266.793 66.1684 266.936 65.6715 267.235 65.2689C269.505 62.5589 271.615 62.5789 274.715 58.3989C275.316 57.5542 276.176 56.929 277.165 56.6189C279.985 55.7789 281.635 57.1289 282.725 60.6189C284.585 66.6189 285.645 72.8589 290.345 77.5589C291.245 78.4189 291.105 79.5289 290.175 80.8089V80.8489Z" fill="#F3C10E"/>
</g>
<path d="M290.177 80.8099C288.266 83.3183 286.486 85.9252 284.848 88.6199C282.848 92.0399 279.728 90.9099 278.498 88.6199C277.77 87.0203 276.606 85.658 275.14 84.6889C273.674 83.7197 271.964 83.1829 270.207 83.1399C267.727 82.9499 267.207 81.2499 268.577 79.1399C269.707 77.6093 270.452 75.8291 270.748 73.9499C270.988 71.4599 268.838 69.7899 267.448 67.9499C267.091 67.5979 266.873 67.1289 266.834 66.6291C266.796 66.1294 266.939 65.6325 267.237 65.2299C269.507 62.5199 271.618 62.5399 274.718 58.3599C275.318 57.5151 276.179 56.89 277.168 56.5799C279.988 55.7399 281.638 57.0899 282.728 60.5799C284.588 66.5799 285.648 72.8199 290.348 77.5199C291.248 78.4199 291.107 79.5299 290.177 80.8099Z" stroke="#F3C10E" stroke-width="3" stroke-miterlimit="10"/>
<path d="M290.177 80.8099C288.266 83.3183 286.486 85.9252 284.848 88.6199C282.848 92.0399 279.728 90.9099 278.498 88.6199C277.77 87.0203 276.606 85.658 275.14 84.6889C273.674 83.7197 271.964 83.1829 270.207 83.1399C267.727 82.9499 267.207 81.2499 268.577 79.1399C269.707 77.6093 270.452 75.8291 270.748 73.9499C270.988 71.4599 268.838 69.7899 267.448 67.9499C267.091 67.5979 266.873 67.1289 266.834 66.6291C266.796 66.1294 266.939 65.6325 267.237 65.2299C269.507 62.5199 271.618 62.5399 274.718 58.3599C275.318 57.5151 276.179 56.89 277.168 56.5799C279.988 55.7399 281.638 57.0899 282.728 60.5799C284.588 66.5799 285.648 72.8199 290.348 77.5199C291.248 78.4199 291.107 79.5299 290.177 80.8099Z" stroke="#F3C10E" stroke-width="3" stroke-miterlimit="10"/>
<path d="M226.846 142.73L264.316 105.07L200.816 142.73H74.4763C71.6753 142.738 68.9914 143.854 67.0109 145.835C65.0303 147.815 63.9142 150.499 63.9062 153.3V295.44C63.9168 298.239 65.0341 300.921 67.0144 302.899C68.9947 304.878 71.6771 305.992 74.4763 306H226.846C229.647 305.992 232.331 304.876 234.312 302.896C236.292 300.915 237.408 298.231 237.416 295.43V153.3C237.408 150.499 236.292 147.815 234.312 145.835C232.331 143.854 229.647 142.738 226.846 142.73Z" fill="white" stroke="#381805" stroke-width="0.5" stroke-miterlimit="10" stroke-dasharray="4 1"/>
<path d="M94.2403 168.84C94.7189 168.84 95.1868 168.698 95.5848 168.432C95.9828 168.166 96.2929 167.788 96.4761 167.346C96.6593 166.904 96.7072 166.417 96.6138 165.948C96.5204 165.478 96.29 165.047 95.9515 164.709C95.6131 164.37 95.1819 164.14 94.7124 164.047C94.243 163.953 93.7564 164.001 93.3142 164.184C92.872 164.367 92.4941 164.678 92.2282 165.076C91.9622 165.473 91.8203 165.941 91.8203 166.42C91.8203 167.062 92.0753 167.677 92.5291 168.131C92.983 168.585 93.5985 168.84 94.2403 168.84Z" fill="#F3C10E"/>
<path d="M102.318 178.49L97.6378 170.49C97.4576 170.248 97.1999 170.076 96.9078 170L95.3278 169.4H93.0978L91.5578 170C91.2078 170.13 90.9278 170.25 90.8278 170.46L86.1278 178.46C86.0032 178.674 85.968 178.929 86.0298 179.168C86.0915 179.408 86.2453 179.613 86.4578 179.74C86.6701 179.864 86.9229 179.899 87.1609 179.838C87.3989 179.776 87.6027 179.622 87.7278 179.41L91.0678 173.73L91.3578 179.45V191.11C91.3578 191.407 91.4758 191.692 91.6858 191.902C91.8958 192.112 92.1807 192.23 92.4778 192.23C92.7748 192.23 93.0597 192.112 93.2697 191.902C93.4798 191.692 93.5978 191.407 93.5978 191.11V181.11H94.7678V191.11C94.7678 191.407 94.8858 191.692 95.0958 191.902C95.3058 192.112 95.5907 192.23 95.8878 192.23C96.1848 192.23 96.4697 192.112 96.6797 191.902C96.8898 191.692 97.0078 191.407 97.0078 191.11V179.89L97.3178 173.66L100.718 179.44C100.843 179.652 101.047 179.806 101.285 179.868C101.523 179.929 101.775 179.894 101.988 179.77C102.2 179.643 102.354 179.438 102.416 179.198C102.478 178.959 102.442 178.704 102.318 178.49Z" fill="#F3C10E"/>
<path d="M116.686 168.84C117.164 168.84 117.632 168.698 118.03 168.432C118.428 168.166 118.738 167.788 118.921 167.346C119.105 166.904 119.153 166.417 119.059 165.948C118.966 165.478 118.735 165.047 118.397 164.709C118.058 164.37 117.627 164.14 117.158 164.047C116.688 163.953 116.202 164.001 115.76 164.184C115.317 164.367 114.939 164.678 114.673 165.076C114.408 165.473 114.266 165.941 114.266 166.42C114.264 166.738 114.326 167.053 114.447 167.348C114.568 167.642 114.747 167.909 114.971 168.134C115.196 168.359 115.464 168.537 115.758 168.658C116.052 168.78 116.367 168.841 116.686 168.84Z" fill="#F3C10E"/>
<path d="M124.763 178.49L120.083 170.49C119.903 170.248 119.645 170.076 119.353 170L117.773 169.4H115.543L114.003 170C113.663 170.13 113.373 170.25 113.273 170.46L108.573 178.46C108.449 178.674 108.413 178.929 108.475 179.168C108.537 179.408 108.691 179.613 108.903 179.74C109.115 179.864 109.368 179.899 109.606 179.838C109.844 179.776 110.048 179.622 110.173 179.41L113.513 173.73L113.803 179.45V191.11C113.803 191.257 113.832 191.403 113.888 191.539C113.945 191.675 114.027 191.798 114.131 191.902C114.235 192.006 114.359 192.089 114.494 192.145C114.63 192.201 114.776 192.23 114.923 192.23C115.07 192.23 115.216 192.201 115.352 192.145C115.488 192.089 115.611 192.006 115.715 191.902C115.819 191.798 115.902 191.675 115.958 191.539C116.014 191.403 116.043 191.257 116.043 191.11V181.11H117.213V191.11C117.213 191.407 117.331 191.692 117.541 191.902C117.751 192.112 118.036 192.23 118.333 192.23C118.63 192.23 118.915 192.112 119.125 191.902C119.335 191.692 119.453 191.407 119.453 191.11V179.89L119.763 173.66L123.163 179.44C123.288 179.652 123.492 179.806 123.73 179.868C123.968 179.929 124.221 179.894 124.433 179.77C124.645 179.643 124.799 179.438 124.861 179.198C124.923 178.959 124.888 178.704 124.763 178.49Z" fill="#F3C10E"/>
<path d="M139.092 168.84C139.571 168.84 140.038 168.698 140.436 168.432C140.834 168.166 141.144 167.788 141.328 167.346C141.511 166.904 141.559 166.417 141.465 165.948C141.372 165.478 141.142 165.047 140.803 164.709C140.465 164.37 140.033 164.14 139.564 164.047C139.095 163.953 138.608 164.001 138.166 164.184C137.724 164.367 137.346 164.678 137.08 165.076C136.814 165.473 136.672 165.941 136.672 166.42C136.672 167.062 136.927 167.677 137.381 168.131C137.835 168.585 138.45 168.84 139.092 168.84Z" fill="#F3C10E"/>
<path d="M147.158 178.49L142.478 170.49C142.298 170.248 142.041 170.076 141.748 170L140.168 169.4H137.988L136.448 170C136.16 170.068 135.903 170.23 135.718 170.46L131.018 178.46C130.894 178.674 130.859 178.929 130.92 179.168C130.982 179.408 131.136 179.613 131.348 179.74C131.561 179.864 131.814 179.899 132.052 179.838C132.29 179.776 132.493 179.622 132.618 179.41L135.958 173.73L136.248 179.45V191.11C136.248 191.407 136.366 191.692 136.576 191.902C136.786 192.112 137.071 192.23 137.368 192.23C137.665 192.23 137.95 192.112 138.16 191.902C138.37 191.692 138.488 191.407 138.488 191.11V181.11H139.658V191.11C139.658 191.407 139.776 191.692 139.986 191.902C140.196 192.112 140.481 192.23 140.778 192.23C141.075 192.23 141.36 192.112 141.57 191.902C141.78 191.692 141.898 191.407 141.898 191.11V179.89L142.208 173.66L145.608 179.44C145.734 179.653 145.939 179.806 146.179 179.867C146.418 179.928 146.671 179.891 146.883 179.765C147.096 179.639 147.249 179.434 147.31 179.195C147.371 178.956 147.334 178.703 147.208 178.49H147.158Z" fill="#F3C10E"/>
<path d="M161.631 168.84C162.11 168.84 162.577 168.698 162.975 168.432C163.373 168.166 163.684 167.788 163.867 167.346C164.05 166.904 164.098 166.417 164.004 165.948C163.911 165.478 163.681 165.047 163.342 164.709C163.004 164.37 162.572 164.14 162.103 164.047C161.634 163.953 161.147 164.001 160.705 164.184C160.263 164.367 159.885 164.678 159.619 165.076C159.353 165.473 159.211 165.941 159.211 166.42C159.211 167.062 159.466 167.677 159.92 168.131C160.374 168.585 160.989 168.84 161.631 168.84Z" fill="#F3C10E"/>
<path d="M169.695 178.49L165.015 170.49C164.834 170.248 164.577 170.076 164.285 170L162.705 169.4H160.475L158.935 170C158.647 170.068 158.39 170.23 158.205 170.46L153.515 178.46C153.438 178.565 153.385 178.684 153.357 178.81C153.33 178.937 153.329 179.067 153.355 179.194C153.38 179.321 153.432 179.441 153.507 179.546C153.582 179.652 153.678 179.741 153.789 179.807C153.9 179.873 154.024 179.916 154.152 179.931C154.28 179.947 154.41 179.936 154.534 179.899C154.658 179.862 154.773 179.799 154.871 179.715C154.969 179.631 155.049 179.527 155.105 179.41L158.445 173.73L158.735 179.45V191.11C158.735 191.407 158.853 191.692 159.063 191.902C159.273 192.112 159.558 192.23 159.855 192.23C160.152 192.23 160.437 192.112 160.647 191.902C160.857 191.692 160.975 191.407 160.975 191.11V181.11H162.145V191.11C162.145 191.407 162.263 191.692 162.473 191.902C162.683 192.112 162.968 192.23 163.265 192.23C163.562 192.23 163.847 192.112 164.057 191.902C164.267 191.692 164.385 191.407 164.385 191.11V179.89L164.705 173.66L168.095 179.44C168.157 179.545 168.239 179.637 168.337 179.71C168.435 179.784 168.546 179.837 168.665 179.867C168.783 179.897 168.906 179.904 169.027 179.886C169.148 179.869 169.265 179.828 169.37 179.765C169.475 179.703 169.566 179.621 169.64 179.523C169.713 179.425 169.766 179.314 169.796 179.195C169.826 179.077 169.833 178.954 169.815 178.833C169.798 178.712 169.757 178.595 169.695 178.49Z" fill="#F3C10E"/>
<path d="M184.115 168.84C184.594 168.84 185.062 168.698 185.46 168.432C185.858 168.166 186.168 167.788 186.351 167.346C186.534 166.904 186.582 166.417 186.489 165.948C186.395 165.478 186.165 165.047 185.827 164.709C185.488 164.37 185.057 164.14 184.587 164.047C184.118 163.953 183.631 164.001 183.189 164.184C182.747 164.367 182.369 164.678 182.103 165.076C181.837 165.473 181.695 165.941 181.695 166.42C181.695 167.062 181.95 167.677 182.404 168.131C182.858 168.585 183.473 168.84 184.115 168.84Z" fill="#F3C10E"/>
<path d="M192.187 178.49L187.507 170.49C187.327 170.248 187.069 170.076 186.777 170L185.197 169.4H182.967L181.427 170C181.139 170.068 180.882 170.23 180.697 170.46L176.007 178.46C175.931 178.565 175.877 178.684 175.849 178.81C175.822 178.937 175.821 179.067 175.847 179.194C175.873 179.321 175.925 179.441 175.999 179.546C176.074 179.652 176.17 179.741 176.281 179.807C176.392 179.873 176.516 179.916 176.644 179.931C176.772 179.947 176.903 179.936 177.026 179.899C177.15 179.862 177.265 179.799 177.363 179.715C177.461 179.631 177.541 179.527 177.597 179.41L180.937 173.73L181.227 179.45V191.11C181.227 191.407 181.345 191.692 181.555 191.902C181.765 192.112 182.05 192.23 182.347 192.23C182.644 192.23 182.929 192.112 183.139 191.902C183.349 191.692 183.467 191.407 183.467 191.11V181.11H184.637V191.11C184.637 191.407 184.755 191.692 184.965 191.902C185.175 192.112 185.46 192.23 185.757 192.23C186.054 192.23 186.339 192.112 186.549 191.902C186.759 191.692 186.877 191.407 186.877 191.11V179.89L187.197 173.66L190.587 179.44C190.649 179.545 190.732 179.637 190.829 179.71C190.927 179.784 191.039 179.837 191.157 179.867C191.275 179.897 191.399 179.904 191.519 179.886C191.64 179.869 191.757 179.828 191.862 179.765C191.967 179.703 192.059 179.621 192.132 179.523C192.205 179.425 192.258 179.314 192.288 179.195C192.319 179.077 192.325 178.954 192.308 178.833C192.29 178.712 192.249 178.595 192.187 178.49Z" fill="#F3C10E"/>
<path d="M206.607 168.84C207.086 168.84 207.554 168.698 207.952 168.432C208.35 168.166 208.66 167.788 208.843 167.346C209.026 166.904 209.074 166.417 208.981 165.948C208.888 165.478 208.657 165.047 208.319 164.709C207.98 164.37 207.549 164.14 207.08 164.047C206.61 163.953 206.124 164.001 205.681 164.184C205.239 164.367 204.861 164.678 204.595 165.076C204.329 165.473 204.188 165.941 204.188 166.42C204.188 167.062 204.442 167.677 204.896 168.131C205.35 168.585 205.966 168.84 206.607 168.84Z" fill="#F3C10E"/>
<path d="M214.679 178.49L209.999 170.49C209.909 170.28 209.619 170.14 209.269 170L207.689 169.4H205.459L203.919 170C203.631 170.068 203.374 170.23 203.189 170.46L198.499 178.46C198.423 178.565 198.369 178.684 198.342 178.81C198.314 178.937 198.313 179.067 198.339 179.194C198.365 179.321 198.417 179.441 198.492 179.546C198.566 179.652 198.662 179.741 198.773 179.807C198.884 179.873 199.008 179.916 199.136 179.931C199.265 179.947 199.395 179.936 199.519 179.899C199.642 179.862 199.757 179.799 199.855 179.715C199.954 179.631 200.033 179.527 200.089 179.41L203.439 173.73L203.719 179.45V191.11C203.719 191.407 203.837 191.692 204.047 191.902C204.257 192.112 204.542 192.23 204.839 192.23C205.136 192.23 205.421 192.112 205.631 191.902C205.841 191.692 205.959 191.407 205.959 191.11V181.11H207.129V191.11C207.129 191.407 207.247 191.692 207.457 191.902C207.667 192.112 207.952 192.23 208.249 192.23C208.546 192.23 208.831 192.112 209.041 191.902C209.251 191.692 209.369 191.407 209.369 191.11V179.89L209.689 173.66L213.079 179.44C213.205 179.653 213.41 179.806 213.649 179.867C213.888 179.928 214.142 179.891 214.354 179.765C214.566 179.639 214.72 179.434 214.781 179.195C214.841 178.956 214.805 178.703 214.679 178.49Z" fill="#F3C10E"/>
<path d="M94.2403 201.07C94.7189 201.07 95.1868 200.929 95.5848 200.663C95.9828 200.397 96.2929 200.019 96.4761 199.577C96.6593 199.134 96.7072 198.648 96.6138 198.178C96.5204 197.709 96.29 197.278 95.9515 196.939C95.6131 196.601 95.1819 196.37 94.7124 196.277C94.243 196.184 93.7564 196.232 93.3142 196.415C92.872 196.598 92.4941 196.908 92.2282 197.306C91.9622 197.704 91.8203 198.172 91.8203 198.65C91.8203 199.292 92.0753 199.908 92.5291 200.362C92.983 200.816 93.5985 201.07 94.2403 201.07Z" fill="#F3C10E"/>
<path d="M102.318 210.721L97.6378 202.721C97.4576 202.479 97.1999 202.306 96.9078 202.231L95.3278 201.631H93.0978L91.5578 202.231C91.2078 202.361 90.9278 202.481 90.8278 202.691L86.1278 210.691C86.0032 210.905 85.968 211.159 86.0298 211.399C86.0915 211.638 86.2453 211.844 86.4578 211.971C86.6701 212.095 86.9229 212.13 87.1609 212.068C87.3989 212.006 87.6027 211.853 87.7278 211.641L91.0678 205.961L91.3578 211.681V223.341C91.3578 223.638 91.4758 223.923 91.6858 224.133C91.8958 224.343 92.1807 224.461 92.4778 224.461C92.7748 224.461 93.0597 224.343 93.2697 224.133C93.4798 223.923 93.5978 223.638 93.5978 223.341V213.341H94.7678V223.341C94.7678 223.638 94.8858 223.923 95.0958 224.133C95.3058 224.343 95.5907 224.461 95.8878 224.461C96.1848 224.461 96.4697 224.343 96.6797 224.133C96.8898 223.923 97.0078 223.638 97.0078 223.341V212.121L97.3178 205.891L100.718 211.671C100.843 211.883 101.047 212.036 101.285 212.098C101.523 212.16 101.775 212.125 101.988 212.001C102.2 211.874 102.354 211.668 102.416 211.429C102.478 211.189 102.442 210.935 102.318 210.721Z" fill="#F3C10E"/>
<path d="M116.686 201.07C117.164 201.07 117.632 200.929 118.03 200.663C118.428 200.397 118.738 200.019 118.921 199.577C119.105 199.134 119.153 198.648 119.059 198.178C118.966 197.709 118.735 197.278 118.397 196.939C118.058 196.601 117.627 196.37 117.158 196.277C116.688 196.184 116.202 196.232 115.76 196.415C115.317 196.598 114.939 196.908 114.673 197.306C114.408 197.704 114.266 198.172 114.266 198.65C114.264 198.969 114.326 199.284 114.447 199.578C114.568 199.872 114.747 200.14 114.971 200.365C115.196 200.59 115.464 200.768 115.758 200.889C116.052 201.01 116.367 201.072 116.686 201.07Z" fill="#F3C10E"/>
<path d="M124.763 210.721L120.083 202.721C119.903 202.479 119.645 202.306 119.353 202.231L117.773 201.631H115.543L114.003 202.231C113.663 202.361 113.373 202.481 113.273 202.691L108.573 210.691C108.449 210.905 108.413 211.159 108.475 211.399C108.537 211.638 108.691 211.844 108.903 211.971C109.115 212.095 109.368 212.13 109.606 212.068C109.844 212.006 110.048 211.853 110.173 211.641L113.513 205.961L113.803 211.681V223.341C113.803 223.488 113.832 223.634 113.888 223.769C113.945 223.905 114.027 224.029 114.131 224.133C114.235 224.237 114.359 224.319 114.494 224.376C114.63 224.432 114.776 224.461 114.923 224.461C115.07 224.461 115.216 224.432 115.352 224.376C115.488 224.319 115.611 224.237 115.715 224.133C115.819 224.029 115.902 223.905 115.958 223.769C116.014 223.634 116.043 223.488 116.043 223.341V213.341H117.213V223.341C117.213 223.638 117.331 223.923 117.541 224.133C117.751 224.343 118.036 224.461 118.333 224.461C118.63 224.461 118.915 224.343 119.125 224.133C119.335 223.923 119.453 223.638 119.453 223.341V212.121L119.763 205.891L123.163 211.671C123.288 211.883 123.492 212.036 123.73 212.098C123.968 212.16 124.221 212.125 124.433 212.001C124.645 211.874 124.799 211.668 124.861 211.429C124.923 211.189 124.888 210.935 124.763 210.721Z" fill="#F3C10E"/>
<path d="M139.092 201.07C139.571 201.07 140.038 200.929 140.436 200.663C140.834 200.397 141.144 200.019 141.328 199.577C141.511 199.134 141.559 198.648 141.465 198.178C141.372 197.709 141.142 197.278 140.803 196.939C140.465 196.601 140.033 196.37 139.564 196.277C139.095 196.184 138.608 196.232 138.166 196.415C137.724 196.598 137.346 196.908 137.08 197.306C136.814 197.704 136.672 198.172 136.672 198.65C136.672 199.292 136.927 199.908 137.381 200.362C137.835 200.816 138.45 201.07 139.092 201.07Z" fill="#F3C10E"/>
<path d="M147.158 210.721L142.478 202.721C142.298 202.479 142.041 202.306 141.748 202.231L140.168 201.631H137.988L136.448 202.231C136.16 202.298 135.903 202.46 135.718 202.691L131.018 210.691C130.894 210.905 130.859 211.159 130.92 211.399C130.982 211.638 131.136 211.844 131.348 211.971C131.561 212.095 131.814 212.13 132.052 212.068C132.29 212.006 132.493 211.853 132.618 211.641L135.958 205.961L136.248 211.681V223.341C136.248 223.638 136.366 223.923 136.576 224.133C136.786 224.343 137.071 224.461 137.368 224.461C137.665 224.461 137.95 224.343 138.16 224.133C138.37 223.923 138.488 223.638 138.488 223.341V213.341H139.658V223.341C139.658 223.638 139.776 223.923 139.986 224.133C140.196 224.343 140.481 224.461 140.778 224.461C141.075 224.461 141.36 224.343 141.57 224.133C141.78 223.923 141.898 223.638 141.898 223.341V212.121L142.208 205.891L145.608 211.671C145.734 211.883 145.939 212.036 146.179 212.097C146.418 212.158 146.671 212.122 146.883 211.996C147.096 211.87 147.249 211.665 147.31 211.426C147.371 211.187 147.334 210.933 147.208 210.721H147.158Z" fill="#F3C10E"/>
<path d="M161.631 201.07C162.11 201.07 162.577 200.929 162.975 200.663C163.373 200.397 163.684 200.019 163.867 199.577C164.05 199.134 164.098 198.648 164.004 198.178C163.911 197.709 163.681 197.278 163.342 196.939C163.004 196.601 162.572 196.37 162.103 196.277C161.634 196.184 161.147 196.232 160.705 196.415C160.263 196.598 159.885 196.908 159.619 197.306C159.353 197.704 159.211 198.172 159.211 198.65C159.211 199.292 159.466 199.908 159.92 200.362C160.374 200.816 160.989 201.07 161.631 201.07Z" fill="#F3C10E"/>
<path d="M169.695 210.721L165.015 202.721C164.834 202.479 164.577 202.306 164.285 202.231L162.705 201.631H160.475L158.935 202.231C158.647 202.298 158.39 202.46 158.205 202.691L153.515 210.691C153.438 210.795 153.385 210.915 153.357 211.041C153.33 211.167 153.329 211.298 153.355 211.425C153.38 211.551 153.432 211.671 153.507 211.777C153.582 211.882 153.678 211.971 153.789 212.037C153.9 212.104 154.024 212.146 154.152 212.162C154.28 212.178 154.41 212.167 154.534 212.129C154.658 212.092 154.773 212.029 154.871 211.945C154.969 211.861 155.049 211.757 155.105 211.641L158.445 205.961L158.735 211.681V223.341C158.735 223.638 158.853 223.923 159.063 224.133C159.273 224.343 159.558 224.461 159.855 224.461C160.152 224.461 160.437 224.343 160.647 224.133C160.857 223.923 160.975 223.638 160.975 223.341V213.341H162.145V223.341C162.145 223.638 162.263 223.923 162.473 224.133C162.683 224.343 162.968 224.461 163.265 224.461C163.562 224.461 163.847 224.343 164.057 224.133C164.267 223.923 164.385 223.638 164.385 223.341V212.121L164.705 205.891L168.095 211.671C168.157 211.776 168.239 211.868 168.337 211.941C168.435 212.014 168.546 212.067 168.665 212.097C168.783 212.128 168.906 212.134 169.027 212.117C169.148 212.099 169.265 212.058 169.37 211.996C169.475 211.933 169.566 211.851 169.64 211.753C169.713 211.655 169.766 211.544 169.796 211.426C169.826 211.307 169.833 211.184 169.815 211.063C169.798 210.942 169.757 210.826 169.695 210.721Z" fill="#F3C10E"/>
<path d="M184.115 201.07C184.594 201.07 185.062 200.929 185.46 200.663C185.858 200.397 186.168 200.019 186.351 199.577C186.534 199.134 186.582 198.648 186.489 198.178C186.395 197.709 186.165 197.278 185.827 196.939C185.488 196.601 185.057 196.37 184.587 196.277C184.118 196.184 183.631 196.232 183.189 196.415C182.747 196.598 182.369 196.908 182.103 197.306C181.837 197.704 181.695 198.172 181.695 198.65C181.695 199.292 181.95 199.908 182.404 200.362C182.858 200.816 183.473 201.07 184.115 201.07Z" fill="#F3C10E"/>
<path d="M192.187 210.721L187.507 202.721C187.327 202.479 187.069 202.306 186.777 202.231L185.197 201.631H182.967L181.427 202.231C181.139 202.298 180.882 202.46 180.697 202.691L176.007 210.691C175.931 210.795 175.877 210.915 175.849 211.041C175.822 211.167 175.821 211.298 175.847 211.425C175.873 211.551 175.925 211.671 175.999 211.777C176.074 211.882 176.17 211.971 176.281 212.037C176.392 212.104 176.516 212.146 176.644 212.162C176.772 212.178 176.903 212.167 177.026 212.129C177.15 212.092 177.265 212.029 177.363 211.945C177.461 211.861 177.541 211.757 177.597 211.641L180.937 205.961L181.227 211.681V223.341C181.227 223.638 181.345 223.923 181.555 224.133C181.765 224.343 182.05 224.461 182.347 224.461C182.644 224.461 182.929 224.343 183.139 224.133C183.349 223.923 183.467 223.638 183.467 223.341V213.341H184.637V223.341C184.637 223.638 184.755 223.923 184.965 224.133C185.175 224.343 185.46 224.461 185.757 224.461C186.054 224.461 186.339 224.343 186.549 224.133C186.759 223.923 186.877 223.638 186.877 223.341V212.121L187.197 205.891L190.587 211.671C190.649 211.776 190.732 211.868 190.829 211.941C190.927 212.014 191.039 212.067 191.157 212.097C191.275 212.128 191.399 212.134 191.519 212.117C191.64 212.099 191.757 212.058 191.862 211.996C191.967 211.933 192.059 211.851 192.132 211.753C192.205 211.655 192.258 211.544 192.288 211.426C192.319 211.307 192.325 211.184 192.308 211.063C192.29 210.942 192.249 210.826 192.187 210.721Z" fill="#F3C10E"/>
<path d="M206.607 201.07C207.086 201.07 207.554 200.929 207.952 200.663C208.35 200.397 208.66 200.019 208.843 199.577C209.026 199.134 209.074 198.648 208.981 198.178C208.888 197.709 208.657 197.278 208.319 196.939C207.98 196.601 207.549 196.37 207.08 196.277C206.61 196.184 206.124 196.232 205.681 196.415C205.239 196.598 204.861 196.908 204.595 197.306C204.329 197.704 204.188 198.172 204.188 198.65C204.188 199.292 204.442 199.908 204.896 200.362C205.35 200.816 205.966 201.07 206.607 201.07Z" fill="#F3C10E"/>
<path d="M214.679 210.721L209.999 202.721C209.909 202.511 209.619 202.371 209.269 202.231L207.689 201.631H205.459L203.919 202.231C203.631 202.298 203.374 202.46 203.189 202.691L198.499 210.691C198.423 210.795 198.369 210.915 198.342 211.041C198.314 211.167 198.313 211.298 198.339 211.425C198.365 211.551 198.417 211.671 198.492 211.777C198.566 211.882 198.662 211.971 198.773 212.037C198.884 212.104 199.008 212.146 199.136 212.162C199.265 212.178 199.395 212.167 199.519 212.129C199.642 212.092 199.757 212.029 199.855 211.945C199.954 211.861 200.033 211.757 200.089 211.641L203.439 205.961L203.719 211.681V223.341C203.719 223.638 203.837 223.923 204.047 224.133C204.257 224.343 204.542 224.461 204.839 224.461C205.136 224.461 205.421 224.343 205.631 224.133C205.841 223.923 205.959 223.638 205.959 223.341V213.341H207.129V223.341C207.129 223.638 207.247 223.923 207.457 224.133C207.667 224.343 207.952 224.461 208.249 224.461C208.546 224.461 208.831 224.343 209.041 224.133C209.251 223.923 209.369 223.638 209.369 223.341V212.121L209.689 205.891L213.079 211.671C213.205 211.883 213.41 212.036 213.649 212.097C213.888 212.158 214.142 212.122 214.354 211.996C214.566 211.87 214.72 211.665 214.781 211.426C214.841 211.187 214.805 210.933 214.679 210.721Z" fill="#F3C10E"/>
<path d="M94.2403 233.301C94.7189 233.301 95.1868 233.159 95.5848 232.893C95.9828 232.627 96.2929 232.249 96.4761 231.807C96.6593 231.365 96.7072 230.878 96.6138 230.409C96.5204 229.939 96.29 229.508 95.9515 229.17C95.6131 228.831 95.1819 228.601 94.7124 228.507C94.243 228.414 93.7564 228.462 93.3142 228.645C92.872 228.828 92.4941 229.138 92.2282 229.536C91.9622 229.934 91.8203 230.402 91.8203 230.881C91.8203 231.523 92.0753 232.138 92.5291 232.592C92.983 233.046 93.5985 233.301 94.2403 233.301Z" fill="#F3C10E"/>
<path d="M102.318 242.951L97.6378 234.951C97.4576 234.709 97.1999 234.536 96.9078 234.461L95.3278 233.861H93.0978L91.5578 234.461C91.2078 234.591 90.9278 234.711 90.8278 234.921L86.1278 242.921C86.0032 243.135 85.968 243.39 86.0298 243.629C86.0915 243.869 86.2453 244.074 86.4578 244.201C86.6701 244.325 86.9229 244.36 87.1609 244.298C87.3989 244.237 87.6027 244.083 87.7278 243.871L91.0678 238.191L91.3578 243.911V255.571C91.3578 255.868 91.4758 256.153 91.6858 256.363C91.8958 256.573 92.1807 256.691 92.4778 256.691C92.7748 256.691 93.0597 256.573 93.2697 256.363C93.4798 256.153 93.5978 255.868 93.5978 255.571V245.571H94.7678V255.571C94.7678 255.868 94.8858 256.153 95.0958 256.363C95.3058 256.573 95.5907 256.691 95.8878 256.691C96.1848 256.691 96.4697 256.573 96.6797 256.363C96.8898 256.153 97.0078 255.868 97.0078 255.571V244.351L97.3178 238.121L100.718 243.901C100.843 244.113 101.047 244.267 101.285 244.328C101.523 244.39 101.775 244.355 101.988 244.231C102.2 244.104 102.354 243.899 102.416 243.659C102.478 243.419 102.442 243.165 102.318 242.951Z" fill="#F3C10E"/>
<path d="M116.686 233.301C117.164 233.301 117.632 233.159 118.03 232.893C118.428 232.627 118.738 232.249 118.921 231.807C119.105 231.365 119.153 230.878 119.059 230.409C118.966 229.939 118.735 229.508 118.397 229.17C118.058 228.831 117.627 228.601 117.158 228.507C116.688 228.414 116.202 228.462 115.76 228.645C115.317 228.828 114.939 229.138 114.673 229.536C114.408 229.934 114.266 230.402 114.266 230.881C114.264 231.199 114.326 231.514 114.447 231.809C114.568 232.103 114.747 232.37 114.971 232.595C115.196 232.82 115.464 232.998 115.758 233.119C116.052 233.241 116.367 233.302 116.686 233.301Z" fill="#F3C10E"/>
<path d="M124.763 242.951L120.083 234.951C119.903 234.709 119.645 234.536 119.353 234.461L117.773 233.861H115.543L114.003 234.461C113.663 234.591 113.373 234.711 113.273 234.921L108.573 242.921C108.449 243.135 108.413 243.39 108.475 243.629C108.537 243.869 108.691 244.074 108.903 244.201C109.115 244.325 109.368 244.36 109.606 244.298C109.844 244.237 110.048 244.083 110.173 243.871L113.513 238.191L113.803 243.911V255.571C113.803 255.718 113.832 255.864 113.888 256C113.945 256.136 114.027 256.259 114.131 256.363C114.235 256.467 114.359 256.55 114.494 256.606C114.63 256.662 114.776 256.691 114.923 256.691C115.07 256.691 115.216 256.662 115.352 256.606C115.488 256.55 115.611 256.467 115.715 256.363C115.819 256.259 115.902 256.136 115.958 256C116.014 255.864 116.043 255.718 116.043 255.571V245.571H117.213V255.571C117.213 255.868 117.331 256.153 117.541 256.363C117.751 256.573 118.036 256.691 118.333 256.691C118.63 256.691 118.915 256.573 119.125 256.363C119.335 256.153 119.453 255.868 119.453 255.571V244.351L119.763 238.121L123.163 243.901C123.288 244.113 123.492 244.267 123.73 244.328C123.968 244.39 124.221 244.355 124.433 244.231C124.645 244.104 124.799 243.899 124.861 243.659C124.923 243.419 124.888 243.165 124.763 242.951Z" fill="#F3C10E"/>
<path d="M139.092 233.301C139.571 233.301 140.038 233.159 140.436 232.893C140.834 232.627 141.144 232.249 141.328 231.807C141.511 231.365 141.559 230.878 141.465 230.409C141.372 229.939 141.142 229.508 140.803 229.17C140.465 228.831 140.033 228.601 139.564 228.507C139.095 228.414 138.608 228.462 138.166 228.645C137.724 228.828 137.346 229.138 137.08 229.536C136.814 229.934 136.672 230.402 136.672 230.881C136.672 231.523 136.927 232.138 137.381 232.592C137.835 233.046 138.45 233.301 139.092 233.301Z" fill="#F3C10E"/>
<path d="M147.158 242.951L142.478 234.951C142.298 234.709 142.041 234.536 141.748 234.461L140.168 233.861H137.988L136.448 234.461C136.16 234.529 135.903 234.691 135.718 234.921L131.018 242.921C130.894 243.135 130.859 243.39 130.92 243.629C130.982 243.869 131.136 244.074 131.348 244.201C131.561 244.325 131.814 244.36 132.052 244.298C132.29 244.237 132.493 244.083 132.618 243.871L135.958 238.191L136.248 243.911V255.571C136.248 255.868 136.366 256.153 136.576 256.363C136.786 256.573 137.071 256.691 137.368 256.691C137.665 256.691 137.95 256.573 138.16 256.363C138.37 256.153 138.488 255.868 138.488 255.571V245.571H139.658V255.571C139.658 255.868 139.776 256.153 139.986 256.363C140.196 256.573 140.481 256.691 140.778 256.691C141.075 256.691 141.36 256.573 141.57 256.363C141.78 256.153 141.898 255.868 141.898 255.571V244.351L142.208 238.121L145.608 243.901C145.734 244.114 145.939 244.267 146.179 244.328C146.418 244.389 146.671 244.352 146.883 244.226C147.096 244.1 147.249 243.895 147.31 243.656C147.371 243.417 147.334 243.163 147.208 242.951H147.158Z" fill="#F3C10E"/>
<path d="M161.631 233.301C162.11 233.301 162.577 233.159 162.975 232.893C163.373 232.627 163.684 232.249 163.867 231.807C164.05 231.365 164.098 230.878 164.004 230.409C163.911 229.939 163.681 229.508 163.342 229.17C163.004 228.831 162.572 228.601 162.103 228.507C161.634 228.414 161.147 228.462 160.705 228.645C160.263 228.828 159.885 229.138 159.619 229.536C159.353 229.934 159.211 230.402 159.211 230.881C159.211 231.523 159.466 232.138 159.92 232.592C160.374 233.046 160.989 233.301 161.631 233.301Z" fill="#F3C10E"/>
<path d="M169.695 242.951L165.015 234.951C164.834 234.709 164.577 234.536 164.285 234.461L162.705 233.861H160.475L158.935 234.461C158.647 234.529 158.39 234.691 158.205 234.921L153.515 242.921C153.438 243.026 153.385 243.145 153.357 243.271C153.33 243.398 153.329 243.528 153.355 243.655C153.38 243.782 153.432 243.902 153.507 244.007C153.582 244.113 153.678 244.201 153.789 244.268C153.9 244.334 154.024 244.377 154.152 244.392C154.28 244.408 154.41 244.397 154.534 244.36C154.658 244.323 154.773 244.26 154.871 244.176C154.969 244.092 155.049 243.988 155.105 243.871L158.445 238.191L158.735 243.911V255.571C158.735 255.868 158.853 256.153 159.063 256.363C159.273 256.573 159.558 256.691 159.855 256.691C160.152 256.691 160.437 256.573 160.647 256.363C160.857 256.153 160.975 255.868 160.975 255.571V245.571H162.145V255.571C162.145 255.868 162.263 256.153 162.473 256.363C162.683 256.573 162.968 256.691 163.265 256.691C163.562 256.691 163.847 256.573 164.057 256.363C164.267 256.153 164.385 255.868 164.385 255.571V244.351L164.705 238.121L168.095 243.901C168.157 244.006 168.239 244.098 168.337 244.171C168.435 244.245 168.546 244.298 168.665 244.328C168.783 244.358 168.906 244.365 169.027 244.347C169.148 244.33 169.265 244.289 169.37 244.226C169.475 244.164 169.566 244.081 169.64 243.984C169.713 243.886 169.766 243.775 169.796 243.656C169.826 243.538 169.833 243.415 169.815 243.294C169.798 243.173 169.757 243.056 169.695 242.951Z" fill="#F3C10E"/>
<path d="M184.115 233.301C184.594 233.301 185.062 233.159 185.46 232.893C185.858 232.627 186.168 232.249 186.351 231.807C186.534 231.365 186.582 230.878 186.489 230.409C186.395 229.939 186.165 229.508 185.827 229.17C185.488 228.831 185.057 228.601 184.587 228.507C184.118 228.414 183.631 228.462 183.189 228.645C182.747 228.828 182.369 229.138 182.103 229.536C181.837 229.934 181.695 230.402 181.695 230.881C181.695 231.523 181.95 232.138 182.404 232.592C182.858 233.046 183.473 233.301 184.115 233.301Z" fill="#F3C10E"/>
<path d="M192.187 242.951L187.507 234.951C187.327 234.709 187.069 234.536 186.777 234.461L185.197 233.861H182.967L181.427 234.461C181.139 234.529 180.882 234.691 180.697 234.921L176.007 242.921C175.931 243.026 175.877 243.145 175.849 243.271C175.822 243.398 175.821 243.528 175.847 243.655C175.873 243.782 175.925 243.902 175.999 244.007C176.074 244.113 176.17 244.201 176.281 244.268C176.392 244.334 176.516 244.377 176.644 244.392C176.772 244.408 176.903 244.397 177.026 244.36C177.15 244.323 177.265 244.26 177.363 244.176C177.461 244.092 177.541 243.988 177.597 243.871L180.937 238.191L181.227 243.911V255.571C181.227 255.868 181.345 256.153 181.555 256.363C181.765 256.573 182.05 256.691 182.347 256.691C182.644 256.691 182.929 256.573 183.139 256.363C183.349 256.153 183.467 255.868 183.467 255.571V245.571H184.637V255.571C184.637 255.868 184.755 256.153 184.965 256.363C185.175 256.573 185.46 256.691 185.757 256.691C186.054 256.691 186.339 256.573 186.549 256.363C186.759 256.153 186.877 255.868 186.877 255.571V244.351L187.197 238.121L190.587 243.901C190.649 244.006 190.732 244.098 190.829 244.171C190.927 244.245 191.039 244.298 191.157 244.328C191.275 244.358 191.399 244.365 191.519 244.347C191.64 244.33 191.757 244.289 191.862 244.226C191.967 244.164 192.059 244.081 192.132 243.984C192.205 243.886 192.258 243.775 192.288 243.656C192.319 243.538 192.325 243.415 192.308 243.294C192.29 243.173 192.249 243.056 192.187 242.951Z" fill="#F3C10E"/>
<path d="M206.607 233.301C207.086 233.301 207.554 233.159 207.952 232.893C208.35 232.627 208.66 232.249 208.843 231.807C209.026 231.365 209.074 230.878 208.981 230.409C208.888 229.939 208.657 229.508 208.319 229.17C207.98 228.831 207.549 228.601 207.08 228.507C206.61 228.414 206.124 228.462 205.681 228.645C205.239 228.828 204.861 229.138 204.595 229.536C204.329 229.934 204.188 230.402 204.188 230.881C204.188 231.523 204.442 232.138 204.896 232.592C205.35 233.046 205.966 233.301 206.607 233.301Z" fill="#F3C10E"/>
<path d="M214.679 242.951L209.999 234.951C209.909 234.741 209.619 234.601 209.269 234.461L207.689 233.861H205.459L203.919 234.461C203.631 234.529 203.374 234.691 203.189 234.921L198.499 242.921C198.423 243.026 198.369 243.145 198.342 243.271C198.314 243.398 198.313 243.528 198.339 243.655C198.365 243.782 198.417 243.902 198.492 244.007C198.566 244.113 198.662 244.201 198.773 244.268C198.884 244.334 199.008 244.377 199.136 244.392C199.265 244.408 199.395 244.397 199.519 244.36C199.642 244.323 199.757 244.26 199.855 244.176C199.954 244.092 200.033 243.988 200.089 243.871L203.439 238.191L203.719 243.911V255.571C203.719 255.868 203.837 256.153 204.047 256.363C204.257 256.573 204.542 256.691 204.839 256.691C205.136 256.691 205.421 256.573 205.631 256.363C205.841 256.153 205.959 255.868 205.959 255.571V245.571H207.129V255.571C207.129 255.868 207.247 256.153 207.457 256.363C207.667 256.573 207.952 256.691 208.249 256.691C208.546 256.691 208.831 256.573 209.041 256.363C209.251 256.153 209.369 255.868 209.369 255.571V244.351L209.689 238.121L213.079 243.901C213.205 244.114 213.41 244.267 213.649 244.328C213.888 244.389 214.142 244.352 214.354 244.226C214.566 244.1 214.72 243.895 214.781 243.656C214.841 243.417 214.805 243.163 214.679 242.951Z" fill="#F3C10E"/>
<path d="M94.2403 265.531C94.7189 265.531 95.1868 265.389 95.5848 265.124C95.9828 264.858 96.2929 264.48 96.4761 264.037C96.6593 263.595 96.7072 263.109 96.6138 262.639C96.5204 262.17 96.29 261.739 95.9515 261.4C95.6131 261.062 95.1819 260.831 94.7124 260.738C94.243 260.645 93.7564 260.692 93.3142 260.876C92.872 261.059 92.4941 261.369 92.2282 261.767C91.9622 262.165 91.8203 262.633 91.8203 263.111C91.8203 263.753 92.0753 264.369 92.5291 264.823C92.983 265.276 93.5985 265.531 94.2403 265.531Z" fill="#F3C10E"/>
<path d="M102.318 275.182L97.6378 267.182C97.4576 266.94 97.1999 266.767 96.9078 266.692L95.3278 266.092H93.0978L91.5578 266.692C91.2078 266.822 90.9278 266.942 90.8278 267.152L86.1278 275.152C86.0032 275.366 85.968 275.62 86.0298 275.86C86.0915 276.099 86.2453 276.305 86.4578 276.432C86.6701 276.556 86.9229 276.591 87.1609 276.529C87.3989 276.467 87.6027 276.314 87.7278 276.102L91.0678 270.422L91.3578 276.142V287.802C91.3578 288.099 91.4758 288.384 91.6858 288.594C91.8958 288.804 92.1807 288.922 92.4778 288.922C92.7748 288.922 93.0597 288.804 93.2697 288.594C93.4798 288.384 93.5978 288.099 93.5978 287.802V277.802H94.7678V287.802C94.7678 288.099 94.8858 288.384 95.0958 288.594C95.3058 288.804 95.5907 288.922 95.8878 288.922C96.1848 288.922 96.4697 288.804 96.6797 288.594C96.8898 288.384 97.0078 288.099 97.0078 287.802V276.582L97.3178 270.352L100.718 276.132C100.843 276.344 101.047 276.497 101.285 276.559C101.523 276.621 101.775 276.586 101.988 276.462C102.2 276.335 102.354 276.129 102.416 275.89C102.478 275.65 102.442 275.396 102.318 275.182Z" fill="#F3C10E"/>
<path d="M116.686 265.531C117.164 265.531 117.632 265.389 118.03 265.124C118.428 264.858 118.738 264.48 118.921 264.037C119.105 263.595 119.153 263.109 119.059 262.639C118.966 262.17 118.735 261.739 118.397 261.4C118.058 261.062 117.627 260.831 117.158 260.738C116.688 260.645 116.202 260.692 115.76 260.876C115.317 261.059 114.939 261.369 114.673 261.767C114.408 262.165 114.266 262.633 114.266 263.111C114.264 263.43 114.326 263.745 114.447 264.039C114.568 264.333 114.747 264.601 114.971 264.826C115.196 265.051 115.464 265.229 115.758 265.35C116.052 265.471 116.367 265.533 116.686 265.531Z" fill="#F3C10E"/>
<path d="M124.763 275.182L120.083 267.182C119.903 266.94 119.645 266.767 119.353 266.692L117.773 266.092H115.543L114.003 266.692C113.663 266.822 113.373 266.942 113.273 267.152L108.573 275.152C108.449 275.366 108.413 275.62 108.475 275.86C108.537 276.099 108.691 276.305 108.903 276.432C109.115 276.556 109.368 276.591 109.606 276.529C109.844 276.467 110.048 276.314 110.173 276.102L113.513 270.422L113.803 276.142V287.802C113.803 287.949 113.832 288.095 113.888 288.23C113.945 288.366 114.027 288.49 114.131 288.594C114.235 288.698 114.359 288.78 114.494 288.837C114.63 288.893 114.776 288.922 114.923 288.922C115.07 288.922 115.216 288.893 115.352 288.837C115.488 288.78 115.611 288.698 115.715 288.594C115.819 288.49 115.902 288.366 115.958 288.23C116.014 288.095 116.043 287.949 116.043 287.802V277.802H117.213V287.802C117.213 288.099 117.331 288.384 117.541 288.594C117.751 288.804 118.036 288.922 118.333 288.922C118.63 288.922 118.915 288.804 119.125 288.594C119.335 288.384 119.453 288.099 119.453 287.802V276.582L119.763 270.352L123.163 276.132C123.288 276.344 123.492 276.497 123.73 276.559C123.968 276.621 124.221 276.586 124.433 276.462C124.645 276.335 124.799 276.129 124.861 275.89C124.923 275.65 124.888 275.396 124.763 275.182Z" fill="#F3C10E"/>
<path d="M139.092 265.531C139.571 265.531 140.038 265.389 140.436 265.124C140.834 264.858 141.144 264.48 141.328 264.037C141.511 263.595 141.559 263.109 141.465 262.639C141.372 262.17 141.142 261.739 140.803 261.4C140.465 261.062 140.033 260.831 139.564 260.738C139.095 260.645 138.608 260.692 138.166 260.876C137.724 261.059 137.346 261.369 137.08 261.767C136.814 262.165 136.672 262.633 136.672 263.111C136.672 263.753 136.927 264.369 137.381 264.823C137.835 265.276 138.45 265.531 139.092 265.531Z" fill="#F3C10E"/>
<path d="M147.158 275.182L142.478 267.182C142.298 266.94 142.041 266.767 141.748 266.692L140.168 266.092H137.988L136.448 266.692C136.16 266.759 135.903 266.921 135.718 267.152L131.018 275.152C130.894 275.366 130.859 275.62 130.92 275.86C130.982 276.099 131.136 276.305 131.348 276.432C131.561 276.556 131.814 276.591 132.052 276.529C132.29 276.467 132.493 276.314 132.618 276.102L135.958 270.422L136.248 276.142V287.802C136.248 288.099 136.366 288.384 136.576 288.594C136.786 288.804 137.071 288.922 137.368 288.922C137.665 288.922 137.95 288.804 138.16 288.594C138.37 288.384 138.488 288.099 138.488 287.802V277.802H139.658V287.802C139.658 288.099 139.776 288.384 139.986 288.594C140.196 288.804 140.481 288.922 140.778 288.922C141.075 288.922 141.36 288.804 141.57 288.594C141.78 288.384 141.898 288.099 141.898 287.802V276.582L142.208 270.352L145.608 276.132C145.734 276.344 145.939 276.497 146.179 276.558C146.418 276.619 146.671 276.583 146.883 276.457C147.096 276.331 147.249 276.126 147.31 275.887C147.371 275.648 147.334 275.394 147.208 275.182H147.158Z" fill="#F3C10E"/>
<path d="M161.631 265.531C162.11 265.531 162.577 265.389 162.975 265.124C163.373 264.858 163.684 264.48 163.867 264.037C164.05 263.595 164.098 263.109 164.004 262.639C163.911 262.17 163.681 261.739 163.342 261.4C163.004 261.062 162.572 260.831 162.103 260.738C161.634 260.645 161.147 260.692 160.705 260.876C160.263 261.059 159.885 261.369 159.619 261.767C159.353 262.165 159.211 262.633 159.211 263.111C159.211 263.753 159.466 264.369 159.92 264.823C160.374 265.276 160.989 265.531 161.631 265.531Z" fill="#F3C10E"/>
<path d="M169.695 275.182L165.015 267.182C164.834 266.94 164.577 266.767 164.285 266.692L162.705 266.092H160.475L158.935 266.692C158.647 266.759 158.39 266.921 158.205 267.152L153.515 275.152C153.438 275.256 153.385 275.375 153.357 275.502C153.33 275.628 153.329 275.759 153.355 275.886C153.38 276.012 153.432 276.132 153.507 276.238C153.582 276.343 153.678 276.432 153.789 276.498C153.9 276.565 154.024 276.607 154.152 276.623C154.28 276.639 154.41 276.628 154.534 276.59C154.658 276.553 154.773 276.49 154.871 276.406C154.969 276.322 155.049 276.218 155.105 276.102L158.445 270.422L158.735 276.142V287.802C158.735 288.099 158.853 288.384 159.063 288.594C159.273 288.804 159.558 288.922 159.855 288.922C160.152 288.922 160.437 288.804 160.647 288.594C160.857 288.384 160.975 288.099 160.975 287.802V277.802H162.145V287.802C162.145 288.099 162.263 288.384 162.473 288.594C162.683 288.804 162.968 288.922 163.265 288.922C163.562 288.922 163.847 288.804 164.057 288.594C164.267 288.384 164.385 288.099 164.385 287.802V276.582L164.705 270.352L168.095 276.132C168.157 276.237 168.239 276.329 168.337 276.402C168.435 276.475 168.546 276.528 168.665 276.558C168.783 276.589 168.906 276.595 169.027 276.578C169.148 276.56 169.265 276.519 169.37 276.457C169.475 276.394 169.566 276.312 169.64 276.214C169.713 276.116 169.766 276.005 169.796 275.887C169.826 275.768 169.833 275.645 169.815 275.524C169.798 275.403 169.757 275.287 169.695 275.182Z" fill="#F3C10E"/>
<path d="M184.115 265.531C184.594 265.531 185.062 265.389 185.46 265.124C185.858 264.858 186.168 264.48 186.351 264.037C186.534 263.595 186.582 263.109 186.489 262.639C186.395 262.17 186.165 261.739 185.827 261.4C185.488 261.062 185.057 260.831 184.587 260.738C184.118 260.645 183.631 260.692 183.189 260.876C182.747 261.059 182.369 261.369 182.103 261.767C181.837 262.165 181.695 262.633 181.695 263.111C181.695 263.753 181.95 264.369 182.404 264.823C182.858 265.276 183.473 265.531 184.115 265.531Z" fill="#F3C10E"/>
<path d="M192.187 275.182L187.507 267.182C187.327 266.94 187.069 266.767 186.777 266.692L185.197 266.092H182.967L181.427 266.692C181.139 266.759 180.882 266.921 180.697 267.152L176.007 275.152C175.931 275.256 175.877 275.375 175.849 275.502C175.822 275.628 175.821 275.759 175.847 275.886C175.873 276.012 175.925 276.132 175.999 276.238C176.074 276.343 176.17 276.432 176.281 276.498C176.392 276.565 176.516 276.607 176.644 276.623C176.772 276.639 176.903 276.628 177.026 276.59C177.15 276.553 177.265 276.49 177.363 276.406C177.461 276.322 177.541 276.218 177.597 276.102L180.937 270.422L181.227 276.142V287.802C181.227 288.099 181.345 288.384 181.555 288.594C181.765 288.804 182.05 288.922 182.347 288.922C182.644 288.922 182.929 288.804 183.139 288.594C183.349 288.384 183.467 288.099 183.467 287.802V277.802H184.637V287.802C184.637 288.099 184.755 288.384 184.965 288.594C185.175 288.804 185.46 288.922 185.757 288.922C186.054 288.922 186.339 288.804 186.549 288.594C186.759 288.384 186.877 288.099 186.877 287.802V276.582L187.197 270.352L190.587 276.132C190.649 276.237 190.732 276.329 190.829 276.402C190.927 276.475 191.039 276.528 191.157 276.558C191.275 276.589 191.399 276.595 191.519 276.578C191.64 276.56 191.757 276.519 191.862 276.457C191.967 276.394 192.059 276.312 192.132 276.214C192.205 276.116 192.258 276.005 192.288 275.887C192.319 275.768 192.325 275.645 192.308 275.524C192.29 275.403 192.249 275.287 192.187 275.182Z" fill="#F3C10E"/>
<path d="M206.607 265.531C207.086 265.531 207.554 265.389 207.952 265.124C208.35 264.858 208.66 264.48 208.843 264.037C209.026 263.595 209.074 263.109 208.981 262.639C208.888 262.17 208.657 261.739 208.319 261.4C207.98 261.062 207.549 260.831 207.08 260.738C206.61 260.645 206.124 260.692 205.681 260.876C205.239 261.059 204.861 261.369 204.595 261.767C204.329 262.165 204.188 262.633 204.188 263.111C204.188 263.753 204.442 264.369 204.896 264.823C205.35 265.276 205.966 265.531 206.607 265.531Z" fill="#F3C10E"/>
<path d="M214.679 275.182L209.999 267.182C209.909 266.972 209.619 266.832 209.269 266.692L207.689 266.092H205.459L203.919 266.692C203.631 266.759 203.374 266.921 203.189 267.152L198.499 275.152C198.423 275.256 198.369 275.375 198.342 275.502C198.314 275.628 198.313 275.759 198.339 275.886C198.365 276.012 198.417 276.132 198.492 276.238C198.566 276.343 198.662 276.432 198.773 276.498C198.884 276.565 199.008 276.607 199.136 276.623C199.265 276.639 199.395 276.628 199.519 276.59C199.642 276.553 199.757 276.49 199.855 276.406C199.954 276.322 200.033 276.218 200.089 276.102L203.439 270.422L203.719 276.142V287.802C203.719 288.099 203.837 288.384 204.047 288.594C204.257 288.804 204.542 288.922 204.839 288.922C205.136 288.922 205.421 288.804 205.631 288.594C205.841 288.384 205.959 288.099 205.959 287.802V277.802H207.129V287.802C207.129 288.099 207.247 288.384 207.457 288.594C207.667 288.804 207.952 288.922 208.249 288.922C208.546 288.922 208.831 288.804 209.041 288.594C209.251 288.384 209.369 288.099 209.369 287.802V276.582L209.689 270.352L213.079 276.132C213.205 276.344 213.41 276.497 213.649 276.558C213.888 276.619 214.142 276.583 214.354 276.457C214.566 276.331 214.72 276.126 214.781 275.887C214.841 275.648 214.805 275.394 214.679 275.182Z" fill="#F3C10E"/>
</svg>
