<svg width="400" height="400" viewBox="0 0 400 400" fill="none" xmlns="http://www.w3.org/2000/svg">
<mask id="mask0_218_13666" style="mask-type:luminance" maskUnits="userSpaceOnUse" x="0" y="0" width="400" height="400">
<path d="M400 0H0V400H400V0Z" fill="white"/>
</mask>
<g mask="url(#mask0_218_13666)">
<path d="M623.288 -181H-643V1005.21H623.288V-181Z" fill="#FFDAC6" stroke="#381805" stroke-width="0.5"/>
<path d="M0 55.9042V17.5L15.5 37L0 55.9042Z" stroke="black"/>
<path d="M0 286.5V277L7.5 283.5L0 286.5Z" stroke="black"/>
<path d="M388 68L315.5 93.5L338 112.5L356 166.5L400 195.5V59.5L388 68Z" stroke="black"/>
<path d="M235.766 196.545L238.037 232.355L247.824 230.502L248 236.425L216.374 242.696L196.8 243.2L197.525 208.097L209.281 194.4L235.766 196.545Z" fill="#6FC7E3" stroke="#381805" stroke-width="0.5"/>
<path d="M248.391 235.2L265.6 263.825L245.43 291.681L228.042 300.8L208.8 274.809L216.123 241.489L248.391 235.2Z" fill="#6FC7E3" stroke="#381805" stroke-width="0.5"/>
<path d="M196.368 243.248L216.181 242.752L208.92 275.362L228 300.8L186.719 295.877L164.8 269.671L180.765 242.4L196.368 243.248Z" fill="#007FB6" stroke="#381805" stroke-width="0.5"/>
<path d="M236 196.747L209.262 194.612L197.37 208.249L196.638 243.2L181.1 242.343L160.8 237.732L166.287 192.266L190.169 168.809L208.554 168L236 196.747Z" fill="#007FB6" stroke="#381805" stroke-width="0.5"/>
<path d="M160.357 237.6L181.119 242.184L164.842 269.58L187.2 295.907L179.531 300L151.182 279.463L139.2 266.685L146.878 237.737L160.357 237.6Z" fill="#007FB6" stroke="#381805" stroke-width="0.5"/>
<path d="M166.4 191.75L160.724 237.462L147.099 237.6L140 235.242L140.191 190.4L166.4 191.75Z" fill="#CEF3FF" stroke="#381805" stroke-width="0.5"/>
<path d="M147.735 236.768L140.126 266.159L152 279.132L125.48 299.2L117.693 287.876L112.8 251.251L140.803 234.4L147.735 236.768Z" fill="#FFDAC6" stroke="#381805" stroke-width="0.5"/>
<path d="M272.204 291.2L276.343 350.073L304.8 362.139L289.324 370.4L220.448 369.274L209.92 338.426L178.062 328.773L177.6 321.011L178.248 300.177L185.796 296.083L227.235 301.03L244.541 292.061L272.204 291.2Z" fill="#FFA877" stroke="#381805" stroke-width="0.5"/>
<path d="M299.645 212L312.296 253.866L348.675 269.99L371.2 266.267L368.529 277.092L334.732 276.594L272.507 291.143L244.8 292L264.93 264.193L247.756 235.619L247.577 229.667L299.645 212Z" fill="#CEF3FF" stroke="#381805" stroke-width="0.5"/>
<path d="M270.392 133.6L314.201 162.061L317.6 177.214L299.746 212.752L247.852 230.162L237.913 232L235.606 196.47L208 167.864L270.392 133.6Z" fill="#6FC7E3" stroke="#381805" stroke-width="0.5"/>
<path d="M261.596 55.4378L261.315 73.6316L287.2 108.263L269.914 133.601L207.902 167.838L189.522 168.644L165.647 192L140.316 190.663L120.93 164.134L80.3242 150.901L75.2002 135.832L77.8547 130.38L117.914 131.66L129.779 158.681L157.933 156.659L178.421 97.0604L198.724 90.3354L242.017 5.6001L252.901 6.7357L245.951 52.4659L261.596 55.4378Z" fill="#FFDAC6" stroke="#381805" stroke-width="0.5"/>
<path d="M242.4 5.01529L198.931 89.8974L178.53 96.6427L157.911 156.351L129.621 158.4L117.691 131.338L77.439 130.055L74.3999 119.356L137.082 39.8395L162.138 45.9394L164.563 30.609L194.704 15.0769L218.232 -18.3999L242.4 5.01529Z" fill="#CEF3FF" stroke="#381805" stroke-width="0.5"/>
<path d="M112.4 252.352L117.264 288.568L84.6797 311.032L86.5197 325.344L48.4237 326.544L31.7197 358.288L33.5517 321.8L69.2637 262.136L85.2637 253.416L112.4 252.352Z" fill="#FF650F" stroke="#381805" stroke-width="0.5"/>
<path d="M140.304 191.2L140.12 235.712L112.4 252.352L85.1999 253.416L84.1919 210.816L91.9999 198.272L120.8 164.672L140.304 191.2Z" fill="#FF650F" stroke="#381805" stroke-width="0.5"/>
<path d="M124.976 299.768L154.16 308L151.04 324.224L178.4 321.448L178.864 329.24L158.064 333.352L136.408 361.824L104.6 371.2L86.5197 325.368L84.6797 311.056L117.264 288.592L124.976 299.768Z" fill="#FFA877" stroke="#381805" stroke-width="0.5"/>
<path d="M151.199 280L179.2 300.486L178.58 321.257L151.045 324L154.178 307.894L124.8 299.73L151.199 280Z" fill="#FFA877" stroke="#381805" stroke-width="0.5"/>
<path d="M84.224 210.816L85.232 253.416L69.232 262.136L33.552 321.8L24.648 287.864L7.848 283.536L-12 266.6L-5.176 242.4L14.192 266.4L50.264 248.88L45.856 226.2L59.2 215.352L84.224 210.816Z" fill="#FFA877" stroke="#381805" stroke-width="0.5"/>
<path d="M289.736 371.032L273.6 401.704L262.864 449.08L228.464 466.352L246.368 479.24L241.96 511.304L218.096 486.808L190.56 481.784L116.96 531.616L93.1919 508.256L122.192 445.056L111.664 428L76.328 418.16L72.752 399.32L104.6 371.2L136.36 361.848L158.016 333.376L178.816 329.264L210.568 338.968L221.032 369.928L289.736 371.032Z" fill="#FFDAC6" stroke="#381805" stroke-width="0.5"/>
<path d="M33.5519 321.8L31.7199 358.288L5.3759 369.552L1.3759 389.736L-18.6241 400.856L-64.7041 400.496L-34.8721 369.904L-54.1441 350.848L-30.0961 335.472L-32.0001 320.952L-4.9201 315.28L-21.9921 294.944L7.8559 283.536L24.6559 287.864L33.5519 321.8Z" fill="#FFDAC6" stroke="#381805" stroke-width="0.5"/>
<path d="M72.7522 399.296L76.3282 418.136L111.664 428L122.128 445.064L93.1282 508.264L116.896 531.624L129.472 553.56L107.352 604.64L62.5522 643.904L45.2082 636.968L42.6402 610.4L12.9042 573.68L-18.5758 560.312L-41.1598 575.28L-74.0158 560.344L-101.28 558.792L-69.7038 545.84L-86.8718 522.2L-74.7518 514.2L-92.2878 483.688L-123.488 471.688L-127.344 446.2L-95.5918 427.08L-64.7518 400.52L-18.6718 400.88L1.32823 389.76L15.5602 412.776L43.0002 415.888L72.7522 399.296Z" fill="#FFDAC6" stroke="#381805" stroke-width="0.5"/>
<path d="M314.88 93.7441L338.08 112.4L356.16 166.72L418.672 207.768L437.208 206.848L459.88 227.48L462.544 230.032L424.08 263.768L413.28 249.872L370.776 266.952L348.376 270.64L312.208 254.696L299.64 213.296L317.44 177.712L314.048 162.512L270.4 134.032L287.744 108.64L314.88 93.7441Z" fill="#FFDAC6" stroke="#381805" stroke-width="0.5"/>
<path d="M86.5199 325.344L104.6 371.2L72.7519 399.296L43.0079 415.864L15.5679 412.752L1.33594 389.736L5.37594 369.552L31.7199 358.288L48.4239 326.544L86.5199 325.344Z" fill="#FFDAC6" stroke="#381805" stroke-width="0.5"/>
<path d="M120.848 164.664L92.0482 198.264L68.6162 175.44L80.0882 151.4L120.848 164.664Z" fill="#FFA877" stroke="#381805" stroke-width="0.5"/>
<path d="M74.9521 136.296L80.0881 151.4L68.6161 175.44L92.0001 198.272L84.2001 210.816L59.2001 215.352L2.40012 194.512L7.54412 167.928L-6.77588 144.384L-2.64788 120.696L27.8321 109.496L74.9521 136.296Z" fill="#CEF3FF" stroke="#381805" stroke-width="0.5"/>
<path d="M2.34393 194.512L59.1439 215.352L45.8559 226.2L50.2639 248.88L14.1919 266.4L-5.17607 242.4L-37.9761 211.352L2.34393 194.512Z" fill="#FFDAC6" stroke="#381805" stroke-width="0.5"/>
<path d="M334.52 277.16L339.2 321.872L332.592 344.688L305.144 362.744L276.8 350.632L272.664 291.544L334.52 277.16Z" fill="#FFA877" stroke="#381805" stroke-width="0.5"/>
<path d="M424.104 263.768L439.072 304.8L449.72 300.336L457.888 331.368L445.6 353.824L372.264 389.312L385.6 435.552L346.496 479.552L352.736 518.624L340.4 533.88L326.904 539.12L266.232 525.384L241.912 511.304L246.32 479.24L228.416 466.352L262.816 449.08L273.6 401.704L289.76 371.032L305.176 362.744L332.624 344.688L339.2 321.872L334.512 277.16L368.112 277.656L370.768 266.952L413.272 249.872L424.104 263.768Z" fill="#FFDAC6" stroke="#381805" stroke-width="0.5"/>
<path d="M529.848 338.168L551.872 340.36L552.976 386.264L531.312 440.936L553.16 472.368L536.36 488.72L541.408 512.8L506.808 540.256L487.352 545L466.24 541.672L430.352 568.424L402.168 551.088L358.296 551.368L340.4 533.88L352.696 518.592L346.456 479.52L385.56 435.52L372.248 389.28L445.6 353.824L482.68 353.536L529.848 338.168Z" fill="#FFDAC6" stroke="#381805" stroke-width="0.5"/>
<path d="M164.624 31.3839L162.224 46.7119L137.168 40.6079L74.568 120.128L62.568 73.1039L15.368 36.9919L-2.52002 14.3999L43.832 -32.7041L56.136 -67.7681L89.456 -64.6481L130.112 -47.9601L131.4 -26.8081L112.4 -10.2001L164.624 31.3839Z" fill="#FFDAC6" stroke="#381805" stroke-width="0.5"/>
<path d="M-6.83185 144.384L7.48814 167.928L2.34415 194.512L-37.9438 211.384L-74.0158 211.032L-80.7199 186.144L-148.456 161.472L-177.256 140.48L-176.248 128.216L-75.9999 106.44L-58.3998 93.6401L-45.7359 120.944L-15.6239 157.472L-6.83185 144.384Z" fill="#CEF3FF" stroke="#381805" stroke-width="0.5"/>
<path d="M227.864 -25.3918L218.264 -17.6558L194.736 15.8402L164.624 31.3842L112.4 -10.2158L131.4 -26.8238L130.112 -47.9758L89.4557 -64.6478L56.1357 -67.7678L65.8637 -85.1598L92.8477 -90.1358L106.248 -113.704L144.528 -132.528L171.88 -98.0158L195.2 -109.304L205.6 -99.2958L213.128 -45.1918L227.864 -25.3918Z" fill="#FFDAC6" stroke="#381805" stroke-width="0.5"/>
<path d="M74.5841 120.128L77.6001 130.84L74.9361 136.296L27.7361 109.488L-2.7439 120.688L-6.8719 144.376L-15.6719 157.496L-45.7839 120.968L-58.3999 93.6722L-24.1599 80.9762L-21.3199 48.9762L-6.1919 63.5202L15.4081 36.9922L62.6081 73.1042L74.5841 120.128Z" fill="#CEF3FF" stroke="#381805" stroke-width="0.5"/>
<path d="M348.288 -37.528L291.656 6.832L286.4 33.936L262.016 55.72L246.32 52.736L253.296 6.90401L242.4 5.76801L218.232 -17.656L227.832 -25.392L282.48 -85.52L299.184 -86.088L306.256 -121.448L325.344 -96.52L324.976 -65.848L348.288 -37.528Z" fill="#FF650F" stroke="#381805" stroke-width="0.5"/>
<path d="M433.376 35.4242L432.92 36.3522L432.464 36.8482L387.576 68.3442L314.88 93.7442L287.68 108.64L261.736 73.9522L262.016 55.7202L286.4 33.9362L291.632 6.83216L348.264 -37.5278L377.48 -5.94383L409.056 -15.0958L399.328 14.9202L433.376 35.4242Z" fill="#CEF3FF" stroke="#381805" stroke-width="0.5"/>
<g filter="url(#filter0_d_218_13666)">
<path d="M348.339 269.709L312.499 253.899L300.039 212.879L317.689 177.609L314.319 162.569L271.019 134.319L288.209 109.159L262.469 74.7793L262.749 56.7093L247.189 53.7593L254.099 8.33928L243.279 7.20927L219.359 -16.0007L196.069 17.1993L166.239 32.5993L163.869 47.7793L139.039 41.7393L76.9985 120.549L79.9985 131.159L77.3685 136.569L82.4585 151.539L122.849 164.679L142.129 190.959L141.949 235.079L114.479 251.579L119.299 287.469L126.939 298.569L152.949 278.909L180.519 299.339L179.879 320.059L180.329 327.779L211.809 337.399L222.179 368.079L290.219 369.199L305.499 360.989L277.389 348.979L273.299 290.419L334.609 276.169L367.899 276.659L370.539 266.049L348.339 269.709Z" stroke="#737373" stroke-width="8" shape-rendering="crispEdges"/>
</g>
</g>
<path fill-rule="evenodd" clip-rule="evenodd" d="M313.099 253.299L348.939 269.109L371.139 265.449L371.054 265.79L371.8 265.667L369.129 276.492L335.332 275.994L273.936 290.349L277.989 348.379L306.099 360.389L304.595 361.197L305.4 361.539L289.924 369.8L221.048 368.674L210.521 337.826L178.662 328.173L178.2 320.411L178.848 299.577L179.721 299.103L152.31 279.245L127.539 297.969L119.899 286.869L115.079 250.979L141.681 235.001L140.6 234.642L140.791 189.891L121.531 163.533L80.9243 150.301L75.8003 135.232L78.4548 129.779L80.3957 129.841L80.3068 129.527L78.0391 129.455L75 118.756L137.682 39.2394L162.738 45.3393L165.163 30.0089L195.304 14.4768L205.479 0H0V400H400V0H238.443L243 4.41519L242.696 5.00827L253.501 6.1356L253.279 7.59097L254.699 7.73918L247.945 52.1307L262.196 54.8377L262.18 55.8876L263.349 56.1092L263.069 74.1792L288.809 108.559L271.766 133.503L314.801 161.461L314.914 161.966L314.919 161.969L318.2 176.614L318.289 177.009L300.639 212.279L313.099 253.299Z" fill="#1F1F1F" fill-opacity="0.2"/>
<defs>
<filter id="filter0_d_218_13666" x="68.5947" y="-26.1379" width="311.294" height="403.354" filterUnits="userSpaceOnUse" color-interpolation-filters="sRGB">
<feFlood flood-opacity="0" result="BackgroundImageFix"/>
<feColorMatrix in="SourceAlpha" type="matrix" values="0 0 0 0 0 0 0 0 0 0 0 0 0 0 0 0 0 0 127 0" result="hardAlpha"/>
<feOffset/>
<feGaussianBlur stdDeviation="2"/>
<feComposite in2="hardAlpha" operator="out"/>
<feColorMatrix type="matrix" values="0 0 0 0 0 0 0 0 0 0 0 0 0 0 0 0 0 0 0.25 0"/>
<feBlend mode="normal" in2="BackgroundImageFix" result="effect1_dropShadow_218_13666"/>
<feBlend mode="normal" in="SourceGraphic" in2="effect1_dropShadow_218_13666" result="shape"/>
</filter>
</defs>
</svg>
